<svg width="24" height="24" viewBox="0 0 24 24" fill="none" xmlns="http://www.w3.org/2000/svg">
<path d="M19.5107 2H4.48908C4.24008 2 4.00128 2.10477 3.82521 2.29126C3.64915 2.47776 3.55023 2.7307 3.55023 2.99444V20.8944C3.55023 21.1581 3.64915 21.4111 3.82521 21.5975C4.00128 21.784 4.24008 21.8888 4.48908 21.8888H19.5107C19.7597 21.8888 19.9985 21.784 20.1746 21.5975C20.3506 21.4111 20.4495 21.1581 20.4495 20.8944V2.99444C20.4495 2.7307 20.3506 2.47776 20.1746 2.29126C19.9985 2.10477 19.7597 2 19.5107 2V2Z" stroke="#5CC773" stroke-width="1.5" stroke-linejoin="round"/>
<path d="M17.1636 4.98328H6.83624V9.45826H17.1636V4.98328Z" stroke="#5CC773" stroke-width="1.5" stroke-linejoin="round"/>
<path d="M6.36719 13.9333L9.65316 17.4139" stroke="#5CC773" stroke-width="1.5" stroke-linecap="round" stroke-linejoin="round"/>
<path d="M9.65316 13.9333L6.36719 17.4139" stroke="#5CC773" stroke-width="1.5" stroke-linecap="round" stroke-linejoin="round"/>
<path d="M13.8773 17.4138H17.6327" stroke="#5CC773" stroke-width="1.5" stroke-linecap="round" stroke-linejoin="round"/>
<path d="M13.8773 14.4304H17.6327" stroke="#5CC773" stroke-width="1.5" stroke-linecap="round" stroke-linejoin="round"/>
</svg>
