<svg width="24" height="24" viewBox="0 0 24 24" fill="none" xmlns="http://www.w3.org/2000/svg">
<g clip-path="url(#clip0)">
<path d="M19.6792 6.33011C19.6314 6.23144 19.5569 6.14818 19.464 6.08983C19.3712 6.03148 19.2639 6.0004 19.1542 6.00011H17.9992C17.8453 5.99776 17.6931 6.03187 17.5549 6.09966C17.4167 6.16744 17.2966 6.26697 17.2042 6.39011L10.2292 15.1201L7.10922 11.1601C7.0157 11.0418 6.89811 10.9446 6.76422 10.8751C6.62226 10.8137 6.4689 10.783 6.31422 10.7851H5.08422C4.96433 10.7711 4.84309 10.7955 4.73795 10.8548C4.63282 10.9141 4.54923 11.0053 4.49922 11.1151C4.4386 11.2062 4.40625 11.3132 4.40625 11.4226C4.40625 11.532 4.4386 11.639 4.49922 11.7301L9.44922 17.8351C9.54303 17.953 9.66142 18.0489 9.79614 18.1163C9.93086 18.1836 10.0787 18.2208 10.2292 18.2251C10.3847 18.2241 10.538 18.1886 10.6781 18.1212C10.8182 18.0537 10.9415 17.956 11.0392 17.8351L19.6192 6.96011C19.6869 6.87113 19.7284 6.76499 19.739 6.65367C19.7496 6.54235 19.7289 6.43028 19.6792 6.33011V6.33011Z" fill="white"/>
</g>
<defs>
<clipPath id="clip0">
<rect width="15.24" height="12.225" fill="white" transform="translate(4.5 6)"/>
</clipPath>
</defs>
</svg>
