<?xml version="1.0" encoding="utf-8"?>
<!-- Generator: Adobe Illustrator 21.1.0, SVG Export Plug-In . SVG Version: 6.00 Build 0)  -->
<svg version="1.1" id="Слой_1" xmlns="http://www.w3.org/2000/svg" xmlns:xlink="http://www.w3.org/1999/xlink" x="0px" y="0px"
	 viewBox="0 0 23 16" style="enable-background:new 0 0 23 16;" xml:space="preserve">
<style type="text/css">
	.st0{fill:none;}
	.st1{fill:#FFFFFF;}
</style>
<g>
	<circle class="st0" cx="11.5" cy="8" r="2"/>
	<path class="st0" d="M11.5,2C7.7,2,4.3,5.9,3,7.6C2.9,7.7,2.9,7.8,2.9,8S2.9,8.3,3,8.4c1.3,1.7,4.7,5.6,8.5,5.6
		c3.8,0,7.2-3.9,8.5-5.6c0.2-0.3,0.2-0.6,0-0.9C18.7,5.9,15.3,2,11.5,2z M11.5,12c-2.2,0-4-1.8-4-4c0-2.2,1.8-4,4-4c2.2,0,4,1.8,4,4
		C15.5,10.2,13.7,12,11.5,12z"/>
	<path class="st1" d="M21.6,6.4C21.6,6.4,21.6,6.4,21.6,6.4C19.7,4,16,0,11.5,0C7,0,3.3,4,1.5,6.3C1.1,6.8,0.9,7.4,0.9,8
		s0.2,1.2,0.6,1.6C3.3,12,7,16,11.5,16c4.5,0,8.2-4,10.1-6.4C22.3,8.7,22.3,7.3,21.6,6.4z M20,8.4c-1.3,1.7-4.7,5.6-8.5,5.6
		C7.7,14,4.3,10.1,3,8.4C2.9,8.3,2.9,8.2,2.9,8S2.9,7.7,3,7.6C4.3,5.9,7.7,2,11.5,2c3.8,0,7.2,3.9,8.5,5.6C20.2,7.8,20.2,8.2,20,8.4
		z"/>
	<path class="st1" d="M11.5,4c-2.2,0-4,1.8-4,4c0,2.2,1.8,4,4,4c2.2,0,4-1.8,4-4C15.5,5.8,13.7,4,11.5,4z M11.5,10c-1.1,0-2-0.9-2-2
		c0-1.1,0.9-2,2-2c1.1,0,2,0.9,2,2C13.5,9.1,12.6,10,11.5,10z"/>
</g>
</svg>
