<svg width="24" height="24" viewBox="0 0 24 24" fill="none" xmlns="http://www.w3.org/2000/svg">
<path fill-rule="evenodd" clip-rule="evenodd" d="M24 12C24 15.1826 22.7357 18.2348 20.4853 20.4853C18.2348 22.7357 15.1826 24 12 24C8.8174 24 5.76516 22.7357 3.51472 20.4853C1.26428 18.2348 0 15.1826 0 12C0 8.8174 1.26428 5.76516 3.51472 3.51472C5.76516 1.26428 8.8174 0 12 0C15.1826 0 18.2348 1.26428 20.4853 3.51472C22.7357 5.76516 24 8.8174 24 12ZM12 7.5C11.7364 7.49974 11.4775 7.56893 11.2492 7.7006C11.0209 7.83226 10.8313 8.02176 10.6995 8.25C10.6043 8.42681 10.4747 8.58273 10.3181 8.70849C10.1616 8.83426 9.98143 8.92731 9.78828 8.98215C9.59512 9.03699 9.39292 9.05249 9.19366 9.02773C8.9944 9.00297 8.80214 8.93846 8.62828 8.83802C8.45441 8.73758 8.30248 8.60325 8.1815 8.443C8.06051 8.28275 7.97293 8.09985 7.92394 7.90512C7.87496 7.7104 7.86556 7.50782 7.89632 7.3094C7.92708 7.11098 7.99736 6.92075 8.103 6.75C8.59833 5.89217 9.36286 5.22174 10.278 4.84269C11.1932 4.46364 12.2079 4.39716 13.1647 4.65354C14.1215 4.90992 14.967 5.47484 15.57 6.2607C16.1731 7.04656 16.5 8.00943 16.5 9C16.5003 9.93093 16.2119 10.839 15.6746 11.5993C15.1374 12.3595 14.3776 12.9345 13.5 13.245V13.5C13.5 13.8978 13.342 14.2794 13.0607 14.5607C12.7794 14.842 12.3978 15 12 15C11.6022 15 11.2206 14.842 10.9393 14.5607C10.658 14.2794 10.5 13.8978 10.5 13.5V12C10.5 11.6022 10.658 11.2206 10.9393 10.9393C11.2206 10.658 11.6022 10.5 12 10.5C12.3978 10.5 12.7794 10.342 13.0607 10.0607C13.342 9.77936 13.5 9.39782 13.5 9C13.5 8.60218 13.342 8.22064 13.0607 7.93934C12.7794 7.65804 12.3978 7.5 12 7.5ZM12 19.5C12.3978 19.5 12.7794 19.342 13.0607 19.0607C13.342 18.7794 13.5 18.3978 13.5 18C13.5 17.6022 13.342 17.2206 13.0607 16.9393C12.7794 16.658 12.3978 16.5 12 16.5C11.6022 16.5 11.2206 16.658 10.9393 16.9393C10.658 17.2206 10.5 17.6022 10.5 18C10.5 18.3978 10.658 18.7794 10.9393 19.0607C11.2206 19.342 11.6022 19.5 12 19.5Z" fill="#5CC773"/>
</svg>
