<svg width="33" height="39" viewBox="0 0 33 39" fill="none" xmlns="http://www.w3.org/2000/svg">
<mask id="path-1-outside-1" maskUnits="userSpaceOnUse" x="-0.267336" y="-1.39876e-06" width="33" height="40" fill="black">
<rect fill="white" x="-0.267336" y="-1.39876e-06" width="33" height="40"/>
<path d="M25.3931 1.28896C24.8644 1.80725 24.3358 2.31518 23.8382 2.85421C23.6101 3.09262 23.3821 3.17555 23.0608 3.17555C15.9083 3.16518 8.75585 3.16518 1.6034 3.16518C0.91925 3.16518 0.732664 3.35177 0.732664 4.03592C0.732665 15.4073 0.732665 26.7786 0.732666 38.15C0.732666 38.803 0.929618 39 1.59303 39C8.9839 39 16.3851 39 23.7864 39C24.4394 39 24.6364 38.7927 24.6364 38.1396C24.6364 35.8073 24.6364 33.4854 24.6364 31.153C24.6364 26.8305 24.6364 22.5183 24.6364 18.1957C24.6364 18.0506 24.6467 17.8433 24.74 17.7811C25.0303 17.5737 25.0614 17.3042 25.051 16.9933C25.0406 16.6408 25.0303 16.2987 25.0303 15.9463C25.0303 15.4384 25.0303 14.9201 25.0303 14.4225C25.0925 14.4018 25.1132 14.3914 25.1443 14.3914C25.8699 14.4018 26.5955 14.4018 27.3211 14.4225C28.4199 14.4432 28.4821 14.3707 28.4614 13.2615C28.451 12.5048 28.4614 11.7481 28.4614 11.0018C29.3632 11.0018 30.2547 11.0018 31.1358 11.0018C31.6852 11.0018 31.9132 10.7841 31.9028 10.2243C31.8821 9.16702 31.8717 8.09934 31.8303 7.04202C31.8199 6.82434 31.7163 6.55482 31.5608 6.38897C29.8711 4.6786 28.1711 2.9786 26.4608 1.27859C26.0876 0.905421 25.7766 0.905421 25.3931 1.28896ZM9.11866 37.7354C9.11866 37.5799 9.11866 37.4348 9.11866 37.3C9.11866 35.3616 9.11866 33.4232 9.11866 31.4847C9.11866 31.0079 8.85951 30.7384 8.45524 30.7591C8.09243 30.7799 7.87475 31.039 7.87475 31.4951C7.87475 33.2366 7.87475 34.9884 7.87475 36.7299C7.87475 37.0512 7.87475 37.3726 7.87475 37.725C7.23207 37.725 6.61011 37.725 5.9156 37.725C5.9156 37.2067 5.9156 36.678 5.9156 36.1598C5.9156 35.5378 5.70828 35.2268 5.29365 35.2165C4.87901 35.2061 4.6717 35.5067 4.6717 36.139C4.6717 36.6573 4.6717 37.1652 4.6717 37.7146C3.76987 37.7146 2.89913 37.7146 1.9973 37.7146C1.9973 26.6231 1.9973 15.542 1.9973 4.41945C3.19974 4.41945 4.39182 4.41945 5.62536 4.41945C5.62536 4.57494 5.62536 4.7097 5.62536 4.84446C5.62536 6.43043 5.62536 8.02678 5.62536 9.61275C5.62536 9.71641 5.61499 9.82007 5.62536 9.92373C5.65645 10.2969 5.90523 10.5457 6.23694 10.556C6.58938 10.5664 6.85889 10.2969 6.85889 9.903C6.86926 8.71092 6.85889 7.51885 6.85889 6.33714C6.85889 5.70482 6.85889 5.0725 6.85889 4.40908C8.58999 4.40908 10.29 4.40908 12.0107 4.40908C12.0211 4.51274 12.0315 4.6164 12.0315 4.72006C12.0315 7.91275 12.0315 11.1054 12.0211 14.2981C12.0211 14.4743 11.9174 14.692 11.793 14.8268C10.715 15.9256 9.62658 17.014 8.53817 18.1024C8.08207 18.5585 8.08207 18.8591 8.53817 19.3152C9.62658 20.4036 10.715 21.492 11.7931 22.5908C11.9174 22.7152 12.0211 22.9122 12.0211 23.078C12.0315 27.8671 12.0315 32.6457 12.0315 37.4348C12.0315 37.5073 12.0211 37.5902 12.0107 37.7146C11.0571 37.7354 10.1034 37.7354 9.11866 37.7354ZM16.9553 4.81336C16.9553 6.33714 16.9553 7.86092 16.9553 9.39507C16.9553 9.54019 16.9345 9.72678 16.8516 9.82007C15.701 10.9914 14.5504 12.1524 13.3168 13.3859C13.3168 10.3384 13.3168 7.40482 13.3168 4.44018C14.5296 4.44018 15.7217 4.44018 16.9449 4.44018C16.9449 4.56457 16.9553 4.68897 16.9553 4.81336ZM18.2095 4.44018C19.526 4.44018 20.8321 4.44018 22.0656 4.44018C20.801 5.70482 19.4949 7.00056 18.2095 8.28592C18.2095 7.06275 18.2095 5.76702 18.2095 4.44018ZM23.3717 17.8329C23.3717 24.4774 23.3717 31.0908 23.3717 37.725C22.4077 37.725 21.454 37.725 20.4486 37.725C20.4486 37.5902 20.4486 37.4555 20.4486 37.3207C20.4486 35.4341 20.4486 33.5476 20.4486 31.6506C20.4486 31.578 20.4486 31.4951 20.4486 31.4225C20.4278 31.0183 20.1998 30.7591 19.8473 30.7591C19.4742 30.7488 19.215 31.0079 19.215 31.4329C19.2046 32.9878 19.215 34.5323 19.215 36.0872C19.215 36.6262 19.215 37.1652 19.215 37.7354C18.5516 37.7354 17.9296 37.7354 17.2559 37.7354C17.2559 37.2482 17.2559 36.7817 17.2559 36.3049C17.2559 36.139 17.2662 35.9628 17.2455 35.7969C17.204 35.4549 16.9345 35.2165 16.6235 35.2165C16.2918 35.2165 16.0327 35.4756 16.0223 35.8488C16.012 36.3774 16.0223 36.9061 16.012 37.4348C16.012 37.5384 15.9912 37.6317 15.9809 37.7354C15.0687 37.7354 14.2187 37.7354 13.3376 37.7354C13.3376 33.2055 13.3376 28.6963 13.3376 24.0939C13.8248 24.8195 14.5296 24.6225 15.162 24.6433C15.9083 24.6744 16.665 24.6744 17.4114 24.6951C18.0126 24.7055 18.2199 24.4878 18.2199 23.8866C18.2199 23.0262 18.2199 22.1555 18.2199 21.2744C18.9248 21.2744 19.64 21.264 20.3553 21.2744C21.5888 21.3055 21.6406 21.264 21.6199 20.0408C21.6095 19.3256 21.5992 18.6207 21.5888 17.9055C21.5888 17.8951 21.5992 17.8847 21.6095 17.8329C22.1797 17.8329 22.7601 17.8329 23.3717 17.8329ZM26.212 2.77128C27.5906 4.14994 28.9797 5.5286 30.348 6.91763C30.4931 7.06275 30.5864 7.31153 30.5967 7.51885C30.6278 8.24446 30.6071 8.9597 30.6071 9.72678C30.2754 9.72678 29.9333 9.73715 29.5913 9.72678C29.0315 9.71641 28.4821 9.68532 27.9223 9.68532C27.3937 9.67495 27.176 9.91336 27.1656 10.442C27.1656 11.3335 27.1656 12.225 27.1656 13.1268C26.326 13.1268 25.5071 13.1371 24.6778 13.1268C23.9211 13.1164 23.7449 13.2823 23.7553 14.0493C23.7656 14.8786 23.7553 15.6975 23.7553 16.5475C23.04 16.5475 22.304 16.5579 21.5681 16.5475C20.3656 16.5164 20.2931 16.589 20.3242 17.8018C20.3345 18.5274 20.3242 19.2426 20.3242 19.989C19.7022 19.989 19.0699 19.989 18.4479 19.989C18.1888 19.989 17.9296 19.9786 17.6705 19.9786C17.1107 19.9786 16.8931 20.1963 16.8931 20.7561C16.9034 21.5024 16.9242 22.2591 16.9449 23.0055C16.9449 23.1298 16.9449 23.2542 16.9449 23.3994C16.0949 23.3994 15.276 23.3994 14.4467 23.389C14.3742 23.389 14.2809 23.3164 14.2187 23.2646C12.726 21.7719 11.2333 20.2792 9.75097 18.7969C9.74061 18.7866 9.74061 18.7762 9.75097 18.7969C15.1516 13.3963 20.5522 8.00605 25.9736 2.58469C26.0254 2.60543 26.1187 2.68835 26.212 2.77128Z"/>
</mask>
<path d="M25.3931 1.28896C24.8644 1.80725 24.3358 2.31518 23.8382 2.85421C23.6101 3.09262 23.3821 3.17555 23.0608 3.17555C15.9083 3.16518 8.75585 3.16518 1.6034 3.16518C0.91925 3.16518 0.732664 3.35177 0.732664 4.03592C0.732665 15.4073 0.732665 26.7786 0.732666 38.15C0.732666 38.803 0.929618 39 1.59303 39C8.9839 39 16.3851 39 23.7864 39C24.4394 39 24.6364 38.7927 24.6364 38.1396C24.6364 35.8073 24.6364 33.4854 24.6364 31.153C24.6364 26.8305 24.6364 22.5183 24.6364 18.1957C24.6364 18.0506 24.6467 17.8433 24.74 17.7811C25.0303 17.5737 25.0614 17.3042 25.051 16.9933C25.0406 16.6408 25.0303 16.2987 25.0303 15.9463C25.0303 15.4384 25.0303 14.9201 25.0303 14.4225C25.0925 14.4018 25.1132 14.3914 25.1443 14.3914C25.8699 14.4018 26.5955 14.4018 27.3211 14.4225C28.4199 14.4432 28.4821 14.3707 28.4614 13.2615C28.451 12.5048 28.4614 11.7481 28.4614 11.0018C29.3632 11.0018 30.2547 11.0018 31.1358 11.0018C31.6852 11.0018 31.9132 10.7841 31.9028 10.2243C31.8821 9.16702 31.8717 8.09934 31.8303 7.04202C31.8199 6.82434 31.7163 6.55482 31.5608 6.38897C29.8711 4.6786 28.1711 2.9786 26.4608 1.27859C26.0876 0.905421 25.7766 0.905421 25.3931 1.28896ZM9.11866 37.7354C9.11866 37.5799 9.11866 37.4348 9.11866 37.3C9.11866 35.3616 9.11866 33.4232 9.11866 31.4847C9.11866 31.0079 8.85951 30.7384 8.45524 30.7591C8.09243 30.7799 7.87475 31.039 7.87475 31.4951C7.87475 33.2366 7.87475 34.9884 7.87475 36.7299C7.87475 37.0512 7.87475 37.3726 7.87475 37.725C7.23207 37.725 6.61011 37.725 5.9156 37.725C5.9156 37.2067 5.9156 36.678 5.9156 36.1598C5.9156 35.5378 5.70828 35.2268 5.29365 35.2165C4.87901 35.2061 4.6717 35.5067 4.6717 36.139C4.6717 36.6573 4.6717 37.1652 4.6717 37.7146C3.76987 37.7146 2.89913 37.7146 1.9973 37.7146C1.9973 26.6231 1.9973 15.542 1.9973 4.41945C3.19974 4.41945 4.39182 4.41945 5.62536 4.41945C5.62536 4.57494 5.62536 4.7097 5.62536 4.84446C5.62536 6.43043 5.62536 8.02678 5.62536 9.61275C5.62536 9.71641 5.61499 9.82007 5.62536 9.92373C5.65645 10.2969 5.90523 10.5457 6.23694 10.556C6.58938 10.5664 6.85889 10.2969 6.85889 9.903C6.86926 8.71092 6.85889 7.51885 6.85889 6.33714C6.85889 5.70482 6.85889 5.0725 6.85889 4.40908C8.58999 4.40908 10.29 4.40908 12.0107 4.40908C12.0211 4.51274 12.0315 4.6164 12.0315 4.72006C12.0315 7.91275 12.0315 11.1054 12.0211 14.2981C12.0211 14.4743 11.9174 14.692 11.793 14.8268C10.715 15.9256 9.62658 17.014 8.53817 18.1024C8.08207 18.5585 8.08207 18.8591 8.53817 19.3152C9.62658 20.4036 10.715 21.492 11.7931 22.5908C11.9174 22.7152 12.0211 22.9122 12.0211 23.078C12.0315 27.8671 12.0315 32.6457 12.0315 37.4348C12.0315 37.5073 12.0211 37.5902 12.0107 37.7146C11.0571 37.7354 10.1034 37.7354 9.11866 37.7354ZM16.9553 4.81336C16.9553 6.33714 16.9553 7.86092 16.9553 9.39507C16.9553 9.54019 16.9345 9.72678 16.8516 9.82007C15.701 10.9914 14.5504 12.1524 13.3168 13.3859C13.3168 10.3384 13.3168 7.40482 13.3168 4.44018C14.5296 4.44018 15.7217 4.44018 16.9449 4.44018C16.9449 4.56457 16.9553 4.68897 16.9553 4.81336ZM18.2095 4.44018C19.526 4.44018 20.8321 4.44018 22.0656 4.44018C20.801 5.70482 19.4949 7.00056 18.2095 8.28592C18.2095 7.06275 18.2095 5.76702 18.2095 4.44018ZM23.3717 17.8329C23.3717 24.4774 23.3717 31.0908 23.3717 37.725C22.4077 37.725 21.454 37.725 20.4486 37.725C20.4486 37.5902 20.4486 37.4555 20.4486 37.3207C20.4486 35.4341 20.4486 33.5476 20.4486 31.6506C20.4486 31.578 20.4486 31.4951 20.4486 31.4225C20.4278 31.0183 20.1998 30.7591 19.8473 30.7591C19.4742 30.7488 19.215 31.0079 19.215 31.4329C19.2046 32.9878 19.215 34.5323 19.215 36.0872C19.215 36.6262 19.215 37.1652 19.215 37.7354C18.5516 37.7354 17.9296 37.7354 17.2559 37.7354C17.2559 37.2482 17.2559 36.7817 17.2559 36.3049C17.2559 36.139 17.2662 35.9628 17.2455 35.7969C17.204 35.4549 16.9345 35.2165 16.6235 35.2165C16.2918 35.2165 16.0327 35.4756 16.0223 35.8488C16.012 36.3774 16.0223 36.9061 16.012 37.4348C16.012 37.5384 15.9912 37.6317 15.9809 37.7354C15.0687 37.7354 14.2187 37.7354 13.3376 37.7354C13.3376 33.2055 13.3376 28.6963 13.3376 24.0939C13.8248 24.8195 14.5296 24.6225 15.162 24.6433C15.9083 24.6744 16.665 24.6744 17.4114 24.6951C18.0126 24.7055 18.2199 24.4878 18.2199 23.8866C18.2199 23.0262 18.2199 22.1555 18.2199 21.2744C18.9248 21.2744 19.64 21.264 20.3553 21.2744C21.5888 21.3055 21.6406 21.264 21.6199 20.0408C21.6095 19.3256 21.5992 18.6207 21.5888 17.9055C21.5888 17.8951 21.5992 17.8847 21.6095 17.8329C22.1797 17.8329 22.7601 17.8329 23.3717 17.8329ZM26.212 2.77128C27.5906 4.14994 28.9797 5.5286 30.348 6.91763C30.4931 7.06275 30.5864 7.31153 30.5967 7.51885C30.6278 8.24446 30.6071 8.9597 30.6071 9.72678C30.2754 9.72678 29.9333 9.73715 29.5913 9.72678C29.0315 9.71641 28.4821 9.68532 27.9223 9.68532C27.3937 9.67495 27.176 9.91336 27.1656 10.442C27.1656 11.3335 27.1656 12.225 27.1656 13.1268C26.326 13.1268 25.5071 13.1371 24.6778 13.1268C23.9211 13.1164 23.7449 13.2823 23.7553 14.0493C23.7656 14.8786 23.7553 15.6975 23.7553 16.5475C23.04 16.5475 22.304 16.5579 21.5681 16.5475C20.3656 16.5164 20.2931 16.589 20.3242 17.8018C20.3345 18.5274 20.3242 19.2426 20.3242 19.989C19.7022 19.989 19.0699 19.989 18.4479 19.989C18.1888 19.989 17.9296 19.9786 17.6705 19.9786C17.1107 19.9786 16.8931 20.1963 16.8931 20.7561C16.9034 21.5024 16.9242 22.2591 16.9449 23.0055C16.9449 23.1298 16.9449 23.2542 16.9449 23.3994C16.0949 23.3994 15.276 23.3994 14.4467 23.389C14.3742 23.389 14.2809 23.3164 14.2187 23.2646C12.726 21.7719 11.2333 20.2792 9.75097 18.7969C9.74061 18.7866 9.74061 18.7762 9.75097 18.7969C15.1516 13.3963 20.5522 8.00605 25.9736 2.58469C26.0254 2.60543 26.1187 2.68835 26.212 2.77128Z" fill="#5CC773"/>
<path d="M25.3931 1.28896C24.8644 1.80725 24.3358 2.31518 23.8382 2.85421C23.6101 3.09262 23.3821 3.17555 23.0608 3.17555C15.9083 3.16518 8.75585 3.16518 1.6034 3.16518C0.91925 3.16518 0.732664 3.35177 0.732664 4.03592C0.732665 15.4073 0.732665 26.7786 0.732666 38.15C0.732666 38.803 0.929618 39 1.59303 39C8.9839 39 16.3851 39 23.7864 39C24.4394 39 24.6364 38.7927 24.6364 38.1396C24.6364 35.8073 24.6364 33.4854 24.6364 31.153C24.6364 26.8305 24.6364 22.5183 24.6364 18.1957C24.6364 18.0506 24.6467 17.8433 24.74 17.7811C25.0303 17.5737 25.0614 17.3042 25.051 16.9933C25.0406 16.6408 25.0303 16.2987 25.0303 15.9463C25.0303 15.4384 25.0303 14.9201 25.0303 14.4225C25.0925 14.4018 25.1132 14.3914 25.1443 14.3914C25.8699 14.4018 26.5955 14.4018 27.3211 14.4225C28.4199 14.4432 28.4821 14.3707 28.4614 13.2615C28.451 12.5048 28.4614 11.7481 28.4614 11.0018C29.3632 11.0018 30.2547 11.0018 31.1358 11.0018C31.6852 11.0018 31.9132 10.7841 31.9028 10.2243C31.8821 9.16702 31.8717 8.09934 31.8303 7.04202C31.8199 6.82434 31.7163 6.55482 31.5608 6.38897C29.8711 4.6786 28.1711 2.9786 26.4608 1.27859C26.0876 0.905421 25.7766 0.905421 25.3931 1.28896ZM9.11866 37.7354C9.11866 37.5799 9.11866 37.4348 9.11866 37.3C9.11866 35.3616 9.11866 33.4232 9.11866 31.4847C9.11866 31.0079 8.85951 30.7384 8.45524 30.7591C8.09243 30.7799 7.87475 31.039 7.87475 31.4951C7.87475 33.2366 7.87475 34.9884 7.87475 36.7299C7.87475 37.0512 7.87475 37.3726 7.87475 37.725C7.23207 37.725 6.61011 37.725 5.9156 37.725C5.9156 37.2067 5.9156 36.678 5.9156 36.1598C5.9156 35.5378 5.70828 35.2268 5.29365 35.2165C4.87901 35.2061 4.6717 35.5067 4.6717 36.139C4.6717 36.6573 4.6717 37.1652 4.6717 37.7146C3.76987 37.7146 2.89913 37.7146 1.9973 37.7146C1.9973 26.6231 1.9973 15.542 1.9973 4.41945C3.19974 4.41945 4.39182 4.41945 5.62536 4.41945C5.62536 4.57494 5.62536 4.7097 5.62536 4.84446C5.62536 6.43043 5.62536 8.02678 5.62536 9.61275C5.62536 9.71641 5.61499 9.82007 5.62536 9.92373C5.65645 10.2969 5.90523 10.5457 6.23694 10.556C6.58938 10.5664 6.85889 10.2969 6.85889 9.903C6.86926 8.71092 6.85889 7.51885 6.85889 6.33714C6.85889 5.70482 6.85889 5.0725 6.85889 4.40908C8.58999 4.40908 10.29 4.40908 12.0107 4.40908C12.0211 4.51274 12.0315 4.6164 12.0315 4.72006C12.0315 7.91275 12.0315 11.1054 12.0211 14.2981C12.0211 14.4743 11.9174 14.692 11.793 14.8268C10.715 15.9256 9.62658 17.014 8.53817 18.1024C8.08207 18.5585 8.08207 18.8591 8.53817 19.3152C9.62658 20.4036 10.715 21.492 11.7931 22.5908C11.9174 22.7152 12.0211 22.9122 12.0211 23.078C12.0315 27.8671 12.0315 32.6457 12.0315 37.4348C12.0315 37.5073 12.0211 37.5902 12.0107 37.7146C11.0571 37.7354 10.1034 37.7354 9.11866 37.7354ZM16.9553 4.81336C16.9553 6.33714 16.9553 7.86092 16.9553 9.39507C16.9553 9.54019 16.9345 9.72678 16.8516 9.82007C15.701 10.9914 14.5504 12.1524 13.3168 13.3859C13.3168 10.3384 13.3168 7.40482 13.3168 4.44018C14.5296 4.44018 15.7217 4.44018 16.9449 4.44018C16.9449 4.56457 16.9553 4.68897 16.9553 4.81336ZM18.2095 4.44018C19.526 4.44018 20.8321 4.44018 22.0656 4.44018C20.801 5.70482 19.4949 7.00056 18.2095 8.28592C18.2095 7.06275 18.2095 5.76702 18.2095 4.44018ZM23.3717 17.8329C23.3717 24.4774 23.3717 31.0908 23.3717 37.725C22.4077 37.725 21.454 37.725 20.4486 37.725C20.4486 37.5902 20.4486 37.4555 20.4486 37.3207C20.4486 35.4341 20.4486 33.5476 20.4486 31.6506C20.4486 31.578 20.4486 31.4951 20.4486 31.4225C20.4278 31.0183 20.1998 30.7591 19.8473 30.7591C19.4742 30.7488 19.215 31.0079 19.215 31.4329C19.2046 32.9878 19.215 34.5323 19.215 36.0872C19.215 36.6262 19.215 37.1652 19.215 37.7354C18.5516 37.7354 17.9296 37.7354 17.2559 37.7354C17.2559 37.2482 17.2559 36.7817 17.2559 36.3049C17.2559 36.139 17.2662 35.9628 17.2455 35.7969C17.204 35.4549 16.9345 35.2165 16.6235 35.2165C16.2918 35.2165 16.0327 35.4756 16.0223 35.8488C16.012 36.3774 16.0223 36.9061 16.012 37.4348C16.012 37.5384 15.9912 37.6317 15.9809 37.7354C15.0687 37.7354 14.2187 37.7354 13.3376 37.7354C13.3376 33.2055 13.3376 28.6963 13.3376 24.0939C13.8248 24.8195 14.5296 24.6225 15.162 24.6433C15.9083 24.6744 16.665 24.6744 17.4114 24.6951C18.0126 24.7055 18.2199 24.4878 18.2199 23.8866C18.2199 23.0262 18.2199 22.1555 18.2199 21.2744C18.9248 21.2744 19.64 21.264 20.3553 21.2744C21.5888 21.3055 21.6406 21.264 21.6199 20.0408C21.6095 19.3256 21.5992 18.6207 21.5888 17.9055C21.5888 17.8951 21.5992 17.8847 21.6095 17.8329C22.1797 17.8329 22.7601 17.8329 23.3717 17.8329ZM26.212 2.77128C27.5906 4.14994 28.9797 5.5286 30.348 6.91763C30.4931 7.06275 30.5864 7.31153 30.5967 7.51885C30.6278 8.24446 30.6071 8.9597 30.6071 9.72678C30.2754 9.72678 29.9333 9.73715 29.5913 9.72678C29.0315 9.71641 28.4821 9.68532 27.9223 9.68532C27.3937 9.67495 27.176 9.91336 27.1656 10.442C27.1656 11.3335 27.1656 12.225 27.1656 13.1268C26.326 13.1268 25.5071 13.1371 24.6778 13.1268C23.9211 13.1164 23.7449 13.2823 23.7553 14.0493C23.7656 14.8786 23.7553 15.6975 23.7553 16.5475C23.04 16.5475 22.304 16.5579 21.5681 16.5475C20.3656 16.5164 20.2931 16.589 20.3242 17.8018C20.3345 18.5274 20.3242 19.2426 20.3242 19.989C19.7022 19.989 19.0699 19.989 18.4479 19.989C18.1888 19.989 17.9296 19.9786 17.6705 19.9786C17.1107 19.9786 16.8931 20.1963 16.8931 20.7561C16.9034 21.5024 16.9242 22.2591 16.9449 23.0055C16.9449 23.1298 16.9449 23.2542 16.9449 23.3994C16.0949 23.3994 15.276 23.3994 14.4467 23.389C14.3742 23.389 14.2809 23.3164 14.2187 23.2646C12.726 21.7719 11.2333 20.2792 9.75097 18.7969C9.74061 18.7866 9.74061 18.7762 9.75097 18.7969C15.1516 13.3963 20.5522 8.00605 25.9736 2.58469C26.0254 2.60543 26.1187 2.68835 26.212 2.77128Z" stroke="#5CC773" stroke-width="0.8" mask="url(#path-1-outside-1)"/>
<mask id="path-2-outside-2" maskUnits="userSpaceOnUse" x="8.76123" y="17.7761" width="2" height="1" fill="black">
<rect fill="white" x="8.76123" y="17.7761" width="2" height="1"/>
<path d="M9.76123 18.7761C9.76123 18.7651 9.76123 18.7761 9.76123 18.7761V18.7761Z"/>
</mask>
<path d="M9.76123 18.7761C9.76123 18.7651 9.76123 18.7761 9.76123 18.7761V18.7761Z" fill="white"/>
<path d="M10.1612 18.7761C10.1612 18.776 10.1612 18.776 10.1612 18.776C10.1612 18.776 10.1612 18.776 10.1612 18.7759C10.1612 18.7759 10.1612 18.7759 10.1612 18.7759C10.1612 18.7759 10.1612 18.7758 10.1612 18.7758C10.1612 18.7758 10.1612 18.7758 10.1612 18.7757C10.1612 18.7757 10.1612 18.7757 10.1612 18.7757C10.1612 18.7757 10.1612 18.7756 10.1612 18.7756C10.1612 18.7756 10.1612 18.7756 10.1612 18.7756C10.1612 18.7755 10.1612 18.7755 10.1612 18.7755C10.1612 18.7755 10.1612 18.7755 10.1612 18.7754C10.1612 18.7754 10.1612 18.7754 10.1612 18.7754C10.1612 18.7754 10.1612 18.7753 10.1612 18.7753C10.1612 18.7753 10.1612 18.7753 10.1612 18.7753C10.1612 18.7753 10.1612 18.7752 10.1612 18.7752C10.1612 18.7752 10.1612 18.7752 10.1612 18.7752C10.1612 18.7751 10.1612 18.7751 10.1612 18.7751C10.1612 18.7751 10.1612 18.7751 10.1612 18.775C10.1612 18.775 10.1612 18.775 10.1612 18.775C10.1612 18.775 10.1612 18.775 10.1612 18.7749C10.1612 18.7749 10.1612 18.7749 10.1612 18.7749C10.1612 18.7749 10.1612 18.7748 10.1612 18.7748C10.1612 18.7748 10.1612 18.7748 10.1612 18.7748C10.1612 18.7748 10.1612 18.7747 10.1612 18.7747C10.1612 18.7747 10.1612 18.7747 10.1612 18.7747C10.1612 18.7746 10.1612 18.7746 10.1612 18.7746C10.1612 18.7746 10.1612 18.7746 10.1612 18.7746C10.1612 18.7745 10.1612 18.7745 10.1612 18.7745C10.1612 18.7745 10.1612 18.7745 10.1612 18.7745C10.1612 18.7744 10.1612 18.7744 10.1612 18.7744C10.1612 18.7744 10.1612 18.7744 10.1612 18.7744C10.1612 18.7743 10.1612 18.7743 10.1612 18.7743C10.1612 18.7743 10.1612 18.7743 10.1612 18.7743C10.1612 18.7742 10.1612 18.7742 10.1612 18.7742C10.1612 18.7742 10.1612 18.7742 10.1612 18.7742C10.1612 18.7741 10.1612 18.7741 10.1612 18.7741C10.1612 18.7741 10.1612 18.7741 10.1612 18.7741C10.1612 18.7741 10.1612 18.774 10.1612 18.774C10.1612 18.774 10.1612 18.774 10.1612 18.774C10.1612 18.774 10.1612 18.7739 10.1612 18.7739C10.1612 18.7739 10.1612 18.7739 10.1612 18.7739C10.1612 18.7739 10.1612 18.7739 10.1612 18.7738C10.1612 18.7738 10.1612 18.7738 10.1612 18.7738C10.1612 18.7738 10.1612 18.7738 10.1612 18.7738C10.1612 18.7737 10.1612 18.7737 10.1612 18.7737C10.1612 18.7737 10.1612 18.7737 10.1612 18.7737C10.1612 18.7736 10.1612 18.7736 10.1612 18.7736C10.1612 18.7736 10.1612 18.7736 10.1612 18.7736C10.1612 18.7736 10.1612 18.7736 10.1612 18.7735C10.1612 18.7735 10.1612 18.7735 10.1612 18.7735C10.1612 18.7735 10.1612 18.7735 10.1612 18.7735C10.1612 18.7734 10.1612 18.7734 10.1612 18.7734C10.1612 18.7734 10.1612 18.7734 10.1612 18.7734C10.1612 18.7734 10.1612 18.7733 10.1612 18.7733C10.1612 18.7733 10.1612 18.7733 10.1612 18.7733C10.1612 18.7733 10.1612 18.7733 10.1612 18.7733C10.1612 18.7732 10.1612 18.7732 10.1612 18.7732C10.1612 18.7732 10.1612 18.7732 10.1612 18.7732C10.1612 18.7732 10.1612 18.7732 10.1612 18.7731C10.1612 18.7731 10.1612 18.7731 10.1612 18.7731C10.1612 18.7731 10.1612 18.7731 10.1612 18.7731C10.1612 18.7731 10.1612 18.773 10.1612 18.773C10.1612 18.773 10.1612 18.773 10.1612 18.773C10.1612 18.773 10.1612 18.773 10.1612 18.773C10.1612 18.7729 10.1612 18.7729 10.1612 18.7729C10.1612 18.7729 10.1612 18.7729 10.1612 18.7729C10.1612 18.7729 10.1612 18.7729 10.1612 18.7729C10.1612 18.7728 10.1612 18.7728 10.1612 18.7728C10.1612 18.7728 10.1612 18.7728 10.1612 18.7728C10.1612 18.7728 10.1612 18.7728 10.1612 18.7728C10.1612 18.7727 10.1612 18.7727 10.1612 18.7727C10.1612 18.7727 10.1612 18.7727 10.1612 18.7727C10.1612 18.7727 10.1612 18.7727 10.1612 18.7727C10.1612 18.7726 10.1612 18.7726 10.1612 18.7726C10.1612 18.7726 10.1612 18.7726 10.1612 18.7726C10.1612 18.7726 10.1612 18.7726 10.1612 18.7726C10.1612 18.7726 10.1612 18.7725 10.1612 18.7725C10.1612 18.7725 10.1612 18.7725 10.1612 18.7725C10.1612 18.7725 10.1612 18.7725 10.1612 18.7725C10.1612 18.7725 10.1612 18.7725 10.1612 18.7724C10.1612 18.7724 10.1612 18.7724 10.1612 18.7724C10.1612 18.7724 10.1612 18.7724 10.1612 18.7724C10.1612 18.7724 10.1612 18.7724 10.1612 18.7724C10.1612 18.7723 10.1612 18.7723 10.1612 18.7723C10.1612 18.7723 10.1612 18.7723 10.1612 18.7723C10.1612 18.7723 10.1612 18.7723 10.1612 18.7723C10.1612 18.7723 10.1612 18.7723 10.1612 18.7722C10.1612 18.7722 10.1612 18.7722 10.1612 18.7722C10.1612 18.7722 10.1612 18.7722 10.1612 18.7722C10.1612 18.7722 10.1612 18.7722 10.1612 18.7722C10.1612 18.7722 10.1612 18.7722 10.1612 18.7721C10.1612 18.7721 10.1612 18.7721 10.1612 18.7721C10.1612 18.7721 10.1612 18.7721 10.1612 18.7721C10.1612 18.7721 10.1612 18.7721 10.1612 18.7721C10.1612 18.7721 10.1612 18.7721 10.1612 18.772C10.1612 18.772 10.1612 18.772 10.1612 18.772C10.1612 18.772 10.1612 18.772 10.1612 18.772C10.1612 18.772 10.1612 18.772 10.1612 18.772C10.1612 18.772 10.1612 18.772 10.1612 18.772C10.1612 18.7719 10.1612 18.7719 10.1612 18.7719C10.1612 18.7719 10.1612 18.7719 10.1612 18.7719C10.1612 18.7719 10.1612 18.7719 10.1612 18.7719C10.1612 18.7719 10.1612 18.7719 10.1612 18.7719C10.1612 18.7719 10.1612 18.7719 10.1612 18.7719C10.1612 18.7718 10.1612 18.7718 10.1612 18.7718C10.1612 18.7718 10.1612 18.7718 10.1612 18.7718C10.1612 18.7718 10.1612 18.7718 10.1612 18.7718C10.1612 18.7718 10.1612 18.7718 10.1612 18.7718C10.1612 18.7718 10.1612 18.7718 10.1612 18.7718C10.1612 18.7717 10.1612 18.7717 10.1612 18.7717C10.1612 18.7717 10.1612 18.7717 10.1612 18.7717C10.1612 18.7717 10.1612 18.7717 10.1612 18.7717C10.1612 18.7717 10.1612 18.7717 10.1612 18.7717C10.1612 18.7717 10.1612 18.7717 10.1612 18.7717C10.1612 18.7717 10.1612 18.7717 10.1612 18.7716C10.1612 18.7716 10.1612 18.7716 10.1612 18.7716C10.1612 18.7716 10.1612 18.7716 10.1612 18.7716C10.1612 18.7716 10.1612 18.7716 10.1612 18.7716C10.1612 18.7716 10.1612 18.7716 10.1612 18.7716C10.1612 18.7716 10.1612 18.7716 10.1612 18.7716C10.1612 18.7716 10.1612 18.7716 10.1612 18.7716C10.1612 18.7716 10.1612 18.7715 10.1612 18.7715C10.1612 18.7715 10.1612 18.7715 10.1612 18.7715C10.1612 18.7715 10.1612 18.7715 10.1612 18.7715C10.1612 18.7715 10.1612 18.7715 10.1612 18.7715C10.1612 18.7715 10.1612 18.7715 10.1612 18.7715C10.1612 18.7715 10.1612 18.7715 10.1612 18.7715C10.1612 18.7715 10.1612 18.7715 10.1612 18.7715C10.1612 18.7715 10.1612 18.7715 10.1612 18.7714C10.1612 18.7714 10.1612 18.7714 10.1612 18.7714C10.1612 18.7714 10.1612 18.7714 10.1612 18.7714C10.1612 18.7714 10.1612 18.7714 10.1612 18.7714C10.1612 18.7714 10.1612 18.7714 10.1612 18.7714C10.1612 18.7714 10.1612 18.7714 10.1612 18.7714C10.1612 18.7714 10.1612 18.7714 10.1612 18.7714C10.1612 18.7714 10.1612 18.7714 10.1612 18.7714C10.1612 18.7714 10.1612 18.7714 10.1612 18.7714C10.1612 18.7714 10.1612 18.7714 10.1612 18.7714C10.1612 18.7714 10.1612 18.7713 10.1612 18.7713C10.1612 18.7713 10.1612 18.7713 10.1612 18.7713C10.1612 18.7713 10.1612 18.7713 10.1612 18.7713C10.1612 18.7713 10.1612 18.7713 10.1612 18.7713C10.1612 18.7713 10.1612 18.7713 10.1612 18.7713C10.1612 18.7713 10.1612 18.7713 10.1612 18.7713C10.1612 18.7713 10.1612 18.7713 10.1612 18.7713C10.1612 18.7713 10.1612 18.7713 10.1612 18.7713C10.1612 18.7713 10.1612 18.7713 10.1612 18.7713C10.1612 18.7713 10.1612 18.7713 10.1612 18.7713C10.1612 18.7713 10.1612 18.7713 10.1612 18.7713C10.1612 18.7713 10.1612 18.7713 10.1612 18.7713C10.1612 18.7713 10.1612 18.7713 10.1612 18.7713C10.1612 18.7713 10.1612 18.7713 10.1612 18.7713C10.1612 18.7713 10.1612 18.7712 10.1612 18.7712C10.1612 18.7712 10.1612 18.7712 10.1612 18.7712C10.1612 18.7712 10.1612 18.7712 10.1612 18.7712C10.1612 18.7712 10.1612 18.7712 10.1612 18.7712C10.1612 18.7712 10.1612 18.7712 10.1612 18.7712C10.1612 18.7712 10.1612 18.7712 10.1612 18.7712C10.1612 18.7712 10.1612 18.7712 10.1612 18.7712C10.1612 18.7712 10.1612 18.7712 10.1612 18.7712C10.1612 18.7712 10.1612 18.7712 10.1612 18.7712C10.1612 18.7712 10.1612 18.7712 10.1612 18.7712C10.1612 18.7712 10.1612 18.7712 10.1612 18.7712C10.1612 18.7712 10.1612 18.7712 10.1612 18.7712C10.1612 18.7712 10.1612 18.7712 10.1612 18.7712C10.1612 18.7712 10.1612 18.7712 10.1612 18.7712C10.1612 18.7712 10.1612 18.7712 10.1612 18.7712C10.1612 18.7712 10.1612 18.7712 10.1612 18.7712C10.1612 18.7712 10.1612 18.7712 10.1612 18.7712C10.1612 18.7712 10.1612 18.7712 10.1612 18.7712C10.1612 18.7712 10.1612 18.7712 10.1612 18.7712C10.1612 18.7712 9.76123 18.7712 9.36123 18.7712C9.36123 18.7712 9.36123 18.7712 9.36123 18.7712C9.36123 18.7712 9.36123 18.7712 9.36123 18.7712C9.36123 18.7712 9.36123 18.7712 9.36123 18.7712C9.36123 18.7712 9.36123 18.7712 9.36123 18.7712C9.36123 18.7712 9.36123 18.7712 9.36123 18.7712C9.36123 18.7712 9.36123 18.7712 9.36123 18.7712C9.36123 18.7712 9.36123 18.7712 9.36123 18.7712C9.36123 18.7712 9.36123 18.7712 9.36123 18.7712C9.36123 18.7712 9.36123 18.7712 9.36123 18.7712C9.36123 18.7712 9.36123 18.7712 9.36123 18.7712C9.36123 18.7712 9.36123 18.7712 9.36123 18.7712C9.36123 18.7712 9.36123 18.7712 9.36123 18.7712C9.36123 18.7712 9.36123 18.7712 9.36123 18.7712C9.36123 18.7712 9.36123 18.7712 9.36123 18.7712C9.36123 18.7712 9.36123 18.7712 9.36123 18.7712C9.36123 18.7712 9.36123 18.7712 9.36123 18.7712C9.36123 18.7712 9.36123 18.7712 9.36123 18.7712C9.36123 18.7712 9.36123 18.7712 9.36123 18.7712C9.36123 18.7712 9.36123 18.7712 9.36123 18.7712C9.36123 18.7712 9.36123 18.7713 9.36123 18.7713C9.36123 18.7713 9.36123 18.7713 9.36123 18.7713C9.36123 18.7713 9.36123 18.7713 9.36123 18.7713C9.36123 18.7713 9.36123 18.7713 9.36123 18.7713C9.36123 18.7713 9.36123 18.7713 9.36123 18.7713C9.36123 18.7713 9.36123 18.7713 9.36123 18.7713C9.36123 18.7713 9.36123 18.7713 9.36123 18.7713C9.36123 18.7713 9.36123 18.7713 9.36123 18.7713C9.36123 18.7713 9.36123 18.7713 9.36123 18.7713C9.36123 18.7713 9.36123 18.7713 9.36123 18.7713C9.36123 18.7713 9.36123 18.7713 9.36123 18.7713C9.36123 18.7713 9.36123 18.7713 9.36123 18.7713C9.36123 18.7713 9.36123 18.7713 9.36123 18.7713C9.36123 18.7713 9.36123 18.7713 9.36123 18.7713C9.36123 18.7713 9.36123 18.7713 9.36123 18.7713C9.36123 18.7713 9.36123 18.7713 9.36123 18.7713C9.36123 18.7714 9.36123 18.7714 9.36123 18.7714C9.36123 18.7714 9.36123 18.7714 9.36123 18.7714C9.36123 18.7714 9.36123 18.7714 9.36123 18.7714C9.36123 18.7714 9.36123 18.7714 9.36123 18.7714C9.36123 18.7714 9.36123 18.7714 9.36123 18.7714C9.36123 18.7714 9.36123 18.7714 9.36123 18.7714C9.36123 18.7714 9.36123 18.7714 9.36123 18.7714C9.36123 18.7714 9.36123 18.7714 9.36123 18.7714C9.36123 18.7714 9.36123 18.7714 9.36123 18.7714C9.36123 18.7714 9.36123 18.7714 9.36123 18.7714C9.36123 18.7714 9.36123 18.7714 9.36123 18.7714C9.36123 18.7715 9.36123 18.7715 9.36123 18.7715C9.36123 18.7715 9.36123 18.7715 9.36123 18.7715C9.36123 18.7715 9.36123 18.7715 9.36123 18.7715C9.36123 18.7715 9.36123 18.7715 9.36123 18.7715C9.36123 18.7715 9.36123 18.7715 9.36123 18.7715C9.36123 18.7715 9.36123 18.7715 9.36123 18.7715C9.36123 18.7715 9.36123 18.7715 9.36123 18.7715C9.36123 18.7715 9.36123 18.7715 9.36123 18.7715C9.36123 18.7715 9.36123 18.7715 9.36123 18.7715C9.36123 18.7715 9.36123 18.7716 9.36123 18.7716C9.36123 18.7716 9.36123 18.7716 9.36123 18.7716C9.36123 18.7716 9.36123 18.7716 9.36123 18.7716C9.36123 18.7716 9.36123 18.7716 9.36123 18.7716C9.36123 18.7716 9.36123 18.7716 9.36123 18.7716C9.36123 18.7716 9.36123 18.7716 9.36123 18.7716C9.36123 18.7716 9.36123 18.7716 9.36123 18.7716C9.36123 18.7716 9.36123 18.7716 9.36123 18.7716C9.36123 18.7716 9.36123 18.7717 9.36123 18.7717C9.36123 18.7717 9.36123 18.7717 9.36123 18.7717C9.36123 18.7717 9.36123 18.7717 9.36123 18.7717C9.36123 18.7717 9.36123 18.7717 9.36123 18.7717C9.36123 18.7717 9.36123 18.7717 9.36123 18.7717C9.36123 18.7717 9.36123 18.7717 9.36123 18.7717C9.36123 18.7717 9.36123 18.7717 9.36123 18.7717C9.36123 18.7717 9.36123 18.7717 9.36123 18.7718C9.36123 18.7718 9.36123 18.7718 9.36123 18.7718C9.36123 18.7718 9.36123 18.7718 9.36123 18.7718C9.36123 18.7718 9.36123 18.7718 9.36123 18.7718C9.36123 18.7718 9.36123 18.7718 9.36123 18.7718C9.36123 18.7718 9.36123 18.7718 9.36123 18.7718C9.36123 18.7718 9.36123 18.7718 9.36123 18.7718C9.36123 18.7718 9.36123 18.7718 9.36123 18.7719C9.36123 18.7719 9.36123 18.7719 9.36123 18.7719C9.36123 18.7719 9.36123 18.7719 9.36123 18.7719C9.36123 18.7719 9.36123 18.7719 9.36123 18.7719C9.36123 18.7719 9.36123 18.7719 9.36123 18.7719C9.36123 18.7719 9.36123 18.7719 9.36123 18.7719C9.36123 18.7719 9.36123 18.7719 9.36123 18.7719C9.36123 18.772 9.36123 18.772 9.36123 18.772C9.36123 18.772 9.36123 18.772 9.36123 18.772C9.36123 18.772 9.36123 18.772 9.36123 18.772C9.36123 18.772 9.36123 18.772 9.36123 18.772C9.36123 18.772 9.36123 18.772 9.36123 18.772C9.36123 18.772 9.36123 18.772 9.36123 18.772C9.36123 18.772 9.36123 18.7721 9.36123 18.7721C9.36123 18.7721 9.36123 18.7721 9.36123 18.7721C9.36123 18.7721 9.36123 18.7721 9.36123 18.7721C9.36123 18.7721 9.36123 18.7721 9.36123 18.7721C9.36123 18.7721 9.36123 18.7721 9.36123 18.7721C9.36123 18.7721 9.36123 18.7721 9.36123 18.7721C9.36123 18.7722 9.36123 18.7722 9.36123 18.7722C9.36123 18.7722 9.36123 18.7722 9.36123 18.7722C9.36123 18.7722 9.36123 18.7722 9.36123 18.7722C9.36123 18.7722 9.36123 18.7722 9.36123 18.7722C9.36123 18.7722 9.36123 18.7722 9.36123 18.7722C9.36123 18.7722 9.36123 18.7722 9.36123 18.7723C9.36123 18.7723 9.36123 18.7723 9.36123 18.7723C9.36123 18.7723 9.36123 18.7723 9.36123 18.7723C9.36123 18.7723 9.36123 18.7723 9.36123 18.7723C9.36123 18.7723 9.36123 18.7723 9.36123 18.7723C9.36123 18.7723 9.36123 18.7723 9.36123 18.7723C9.36123 18.7723 9.36123 18.7724 9.36123 18.7724C9.36123 18.7724 9.36123 18.7724 9.36123 18.7724C9.36123 18.7724 9.36123 18.7724 9.36123 18.7724C9.36123 18.7724 9.36123 18.7724 9.36123 18.7724C9.36123 18.7724 9.36123 18.7724 9.36123 18.7724C9.36123 18.7724 9.36123 18.7724 9.36123 18.7725C9.36123 18.7725 9.36123 18.7725 9.36123 18.7725C9.36123 18.7725 9.36123 18.7725 9.36123 18.7725C9.36123 18.7725 9.36123 18.7725 9.36123 18.7725C9.36123 18.7725 9.36123 18.7725 9.36123 18.7725C9.36123 18.7725 9.36123 18.7725 9.36123 18.7725C9.36123 18.7726 9.36123 18.7726 9.36123 18.7726C9.36123 18.7726 9.36123 18.7726 9.36123 18.7726C9.36123 18.7726 9.36123 18.7726 9.36123 18.7726C9.36123 18.7726 9.36123 18.7726 9.36123 18.7726C9.36123 18.7726 9.36123 18.7726 9.36123 18.7726C9.36123 18.7727 9.36123 18.7727 9.36123 18.7727C9.36123 18.7727 9.36123 18.7727 9.36123 18.7727C9.36123 18.7727 9.36123 18.7727 9.36123 18.7727C9.36123 18.7727 9.36123 18.7727 9.36123 18.7727C9.36123 18.7727 9.36123 18.7727 9.36123 18.7727C9.36123 18.7728 9.36123 18.7728 9.36123 18.7728C9.36123 18.7728 9.36123 18.7728 9.36123 18.7728C9.36123 18.7728 9.36123 18.7728 9.36123 18.7728C9.36123 18.7728 9.36123 18.7728 9.36123 18.7728C9.36123 18.7728 9.36123 18.7728 9.36123 18.7728C9.36123 18.7729 9.36123 18.7729 9.36123 18.7729C9.36123 18.7729 9.36123 18.7729 9.36123 18.7729C9.36123 18.7729 9.36123 18.7729 9.36123 18.7729C9.36123 18.7729 9.36123 18.7729 9.36123 18.7729C9.36123 18.7729 9.36123 18.7729 9.36123 18.773C9.36123 18.773 9.36123 18.773 9.36123 18.773C9.36123 18.773 9.36123 18.773 9.36123 18.773C9.36123 18.773 9.36123 18.773 9.36123 18.773C9.36123 18.773 9.36123 18.773 9.36123 18.773C9.36123 18.773 9.36123 18.773 9.36123 18.7731C9.36123 18.7731 9.36123 18.7731 9.36123 18.7731C9.36123 18.7731 9.36123 18.7731 9.36123 18.7731C9.36123 18.7731 9.36123 18.7731 9.36123 18.7731C9.36123 18.7731 9.36123 18.7731 9.36123 18.7731C9.36123 18.7731 9.36123 18.7732 9.36123 18.7732C9.36123 18.7732 9.36123 18.7732 9.36123 18.7732C9.36123 18.7732 9.36123 18.7732 9.36123 18.7732C9.36123 18.7732 9.36123 18.7732 9.36123 18.7732C9.36123 18.7732 9.36123 18.7732 9.36123 18.7732C9.36123 18.7732 9.36123 18.7733 9.36123 18.7733C9.36123 18.7733 9.36123 18.7733 9.36123 18.7733C9.36123 18.7733 9.36123 18.7733 9.36123 18.7733C9.36123 18.7733 9.36123 18.7733 9.36123 18.7733C9.36123 18.7733 9.36123 18.7733 9.36123 18.7733C9.36123 18.7734 9.36123 18.7734 9.36123 18.7734C9.36123 18.7734 9.36123 18.7734 9.36123 18.7734C9.36123 18.7734 9.36123 18.7734 9.36123 18.7734C9.36123 18.7734 9.36123 18.7734 9.36123 18.7734C9.36123 18.7734 9.36123 18.7734 9.36123 18.7735C9.36123 18.7735 9.36123 18.7735 9.36123 18.7735C9.36123 18.7735 9.36123 18.7735 9.36123 18.7735C9.36123 18.7735 9.36123 18.7735 9.36123 18.7735C9.36123 18.7735 9.36123 18.7735 9.36123 18.7735C9.36123 18.7735 9.36123 18.7736 9.36123 18.7736C9.36123 18.7736 9.36123 18.7736 9.36123 18.7736C9.36123 18.7736 9.36123 18.7736 9.36123 18.7736C9.36123 18.7736 9.36123 18.7736 9.36123 18.7736C9.36123 18.7736 9.36123 18.7736 9.36123 18.7736C9.36123 18.7737 9.36123 18.7737 9.36123 18.7737C9.36123 18.7737 9.36123 18.7737 9.36123 18.7737C9.36123 18.7737 9.36123 18.7737 9.36123 18.7737C9.36123 18.7737 9.36123 18.7737 9.36123 18.7737C9.36123 18.7737 9.36123 18.7737 9.36123 18.7738C9.36123 18.7738 9.36123 18.7738 9.36123 18.7738C9.36123 18.7738 9.36123 18.7738 9.36123 18.7738C9.36123 18.7738 9.36123 18.7738 9.36123 18.7738C9.36123 18.7738 9.36123 18.7738 9.36123 18.7738C9.36123 18.7738 9.36123 18.7739 9.36123 18.7739C9.36123 18.7739 9.36123 18.7739 9.36123 18.7739C9.36123 18.7739 9.36123 18.7739 9.36123 18.7739C9.36123 18.7739 9.36123 18.7739 9.36123 18.7739C9.36123 18.7739 9.36123 18.7739 9.36123 18.7739C9.36123 18.774 9.36123 18.774 9.36123 18.774C9.36123 18.774 9.36123 18.774 9.36123 18.774C9.36123 18.774 9.36123 18.774 9.36123 18.774C9.36123 18.774 9.36123 18.774 9.36123 18.774C9.36123 18.774 9.36123 18.774 9.36123 18.7741C9.36123 18.7741 9.36123 18.7741 9.36123 18.7741C9.36123 18.7741 9.36123 18.7741 9.36123 18.7741C9.36123 18.7741 9.36123 18.7741 9.36123 18.7741C9.36123 18.7741 9.36123 18.7741 9.36123 18.7741C9.36123 18.7741 9.36123 18.7741 9.36123 18.7742C9.36123 18.7742 9.36123 18.7742 9.36123 18.7742C9.36123 18.7742 9.36123 18.7742 9.36123 18.7742C9.36123 18.7742 9.36123 18.7742 9.36123 18.7742C9.36123 18.7742 9.36123 18.7742 9.36123 18.7742C9.36123 18.7742 9.36123 18.7743 9.36123 18.7743C9.36123 18.7743 9.36123 18.7743 9.36123 18.7743C9.36123 18.7743 9.36123 18.7743 9.36123 18.7743C9.36123 18.7743 9.36123 18.7743 9.36123 18.7743C9.36123 18.7743 9.36123 18.7743 9.36123 18.7743C9.36123 18.7743 9.36123 18.7744 9.36123 18.7744C9.36123 18.7744 9.36123 18.7744 9.36123 18.7744C9.36123 18.7744 9.36123 18.7744 9.36123 18.7744C9.36123 18.7744 9.36123 18.7744 9.36123 18.7744C9.36123 18.7744 9.36123 18.7744 9.36123 18.7744C9.36123 18.7745 9.36123 18.7745 9.36123 18.7745C9.36123 18.7745 9.36123 18.7745 9.36123 18.7745C9.36123 18.7745 9.36123 18.7745 9.36123 18.7745C9.36123 18.7745 9.36123 18.7745 9.36123 18.7745C9.36123 18.7745 9.36123 18.7745 9.36123 18.7745C9.36123 18.7746 9.36123 18.7746 9.36123 18.7746C9.36123 18.7746 9.36123 18.7746 9.36123 18.7746C9.36123 18.7746 9.36123 18.7746 9.36123 18.7746C9.36123 18.7746 9.36123 18.7746 9.36123 18.7746C9.36123 18.7746 9.36123 18.7746 9.36123 18.7746C9.36123 18.7746 9.36123 18.7747 9.36123 18.7747C9.36123 18.7747 9.36123 18.7747 9.36123 18.7747C9.36123 18.7747 9.36123 18.7747 9.36123 18.7747C9.36123 18.7747 9.36123 18.7747 9.36123 18.7747C9.36123 18.7747 9.36123 18.7747 9.36123 18.7747C9.36123 18.7747 9.36123 18.7748 9.36123 18.7748C9.36123 18.7748 9.36123 18.7748 9.36123 18.7748C9.36123 18.7748 9.36123 18.7748 9.36123 18.7748C9.36123 18.7748 9.36123 18.7748 9.36123 18.7748C9.36123 18.7748 9.36123 18.7748 9.36123 18.7748C9.36123 18.7748 9.36123 18.7748 9.36123 18.7749C9.36123 18.7749 9.36123 18.7749 9.36123 18.7749C9.36123 18.7749 9.36123 18.7749 9.36123 18.7749C9.36123 18.7749 9.36123 18.7749 9.36123 18.7749C9.36123 18.7749 9.36123 18.7749 9.36123 18.7749C9.36123 18.7749 9.36123 18.7749 9.36123 18.7749C9.36123 18.775 9.36123 18.775 9.36123 18.775C9.36123 18.775 9.36123 18.775 9.36123 18.775C9.36123 18.775 9.36123 18.775 9.36123 18.775C9.36123 18.775 9.36123 18.775 9.36123 18.775C9.36123 18.775 9.36123 18.775 9.36123 18.775C9.36123 18.775 9.36123 18.775 9.36123 18.7751C9.36123 18.7751 9.36123 18.7751 9.36123 18.7751C9.36123 18.7751 9.36123 18.7751 9.36123 18.7751C9.36123 18.7751 9.36123 18.7751 9.36123 18.7751C9.36123 18.7751 9.36123 18.7751 9.36123 18.7751C9.36123 18.7751 9.36123 18.7751 9.36123 18.7751C9.36123 18.7751 9.36123 18.7752 9.36123 18.7752C9.36123 18.7752 9.36123 18.7752 9.36123 18.7752C9.36123 18.7752 9.36123 18.7752 9.36123 18.7752C9.36123 18.7752 9.36123 18.7752 9.36123 18.7752C9.36123 18.7752 9.36123 18.7752 9.36123 18.7752C9.36123 18.7752 9.36123 18.7752 9.36123 18.7752C9.36123 18.7752 9.36123 18.7753 9.36123 18.7753C9.36123 18.7753 9.36123 18.7753 9.36123 18.7753C9.36123 18.7753 9.36123 18.7753 9.36123 18.7753C9.36123 18.7753 9.36123 18.7753 9.36123 18.7753C9.36123 18.7753 9.36123 18.7753 9.36123 18.7753C9.36123 18.7753 9.36123 18.7753 9.36123 18.7753C9.36123 18.7753 9.36123 18.7754 9.36123 18.7754C9.36123 18.7754 9.36123 18.7754 9.36123 18.7754C9.36123 18.7754 9.36123 18.7754 9.36123 18.7754C9.36123 18.7754 9.36123 18.7754 9.36123 18.7754C9.36123 18.7754 9.36123 18.7754 9.36123 18.7754C9.36123 18.7754 9.36123 18.7754 9.36123 18.7754C9.36123 18.7754 9.36123 18.7754 9.36123 18.7754C9.36123 18.7755 9.36123 18.7755 9.36123 18.7755C9.36123 18.7755 9.36123 18.7755 9.36123 18.7755C9.36123 18.7755 9.36123 18.7755 9.36123 18.7755C9.36123 18.7755 9.36123 18.7755 9.36123 18.7755C9.36123 18.7755 9.36123 18.7755 9.36123 18.7755C9.36123 18.7755 9.36123 18.7755 9.36123 18.7755C9.36123 18.7755 9.36123 18.7755 9.36123 18.7755C9.36123 18.7756 9.36123 18.7756 9.36123 18.7756C9.36123 18.7756 9.36123 18.7756 9.36123 18.7756C9.36123 18.7756 9.36123 18.7756 9.36123 18.7756C9.36123 18.7756 9.36123 18.7756 9.36123 18.7756C9.36123 18.7756 9.36123 18.7756 9.36123 18.7756C9.36123 18.7756 9.36123 18.7756 9.36123 18.7756C9.36123 18.7756 9.36123 18.7756 9.36123 18.7756C9.36123 18.7756 9.36123 18.7756 9.36123 18.7757C9.36123 18.7757 9.36123 18.7757 9.36123 18.7757C9.36123 18.7757 9.36123 18.7757 9.36123 18.7757C9.36123 18.7757 9.36123 18.7757 9.36123 18.7757C9.36123 18.7757 9.36123 18.7757 9.36123 18.7757C9.36123 18.7757 9.36123 18.7757 9.36123 18.7757C9.36123 18.7757 9.36123 18.7757 9.36123 18.7757C9.36123 18.7757 9.36123 18.7757 9.36123 18.7757C9.36123 18.7757 9.36123 18.7757 9.36123 18.7757C9.36123 18.7758 9.36123 18.7758 9.36123 18.7758C9.36123 18.7758 9.36123 18.7758 9.36123 18.7758C9.36123 18.7758 9.36123 18.7758 9.36123 18.7758C9.36123 18.7758 9.36123 18.7758 9.36123 18.7758C9.36123 18.7758 9.36123 18.7758 9.36123 18.7758C9.36123 18.7758 9.36123 18.7758 9.36123 18.7758C9.36123 18.7758 9.36123 18.7758 9.36123 18.7758C9.36123 18.7758 9.36123 18.7758 9.36123 18.7758C9.36123 18.7758 9.36123 18.7758 9.36123 18.7758C9.36123 18.7758 9.36123 18.7758 9.36123 18.7759C9.36123 18.7759 9.36123 18.7759 9.36123 18.7759C9.36123 18.7759 9.36123 18.7759 9.36123 18.7759C9.36123 18.7759 9.36123 18.7759 9.36123 18.7759C9.36123 18.7759 9.36123 18.7759 9.36123 18.7759C9.36123 18.7759 9.36123 18.7759 9.36123 18.7759C9.36123 18.7759 9.36123 18.7759 9.36123 18.7759C9.36123 18.7759 9.36123 18.7759 9.36123 18.7759C9.36123 18.7759 9.36123 18.7759 9.36123 18.7759C9.36123 18.7759 9.36123 18.7759 9.36123 18.7759C9.36123 18.7759 9.36123 18.7759 9.36123 18.7759C9.36123 18.7759 9.36123 18.7759 9.36123 18.7759C9.36123 18.7759 9.36123 18.7759 9.36123 18.7759C9.36123 18.776 9.36123 18.776 9.36123 18.776C9.36123 18.776 9.36123 18.776 9.36123 18.776C9.36123 18.776 9.36123 18.776 9.36123 18.776C9.36123 18.776 9.36123 18.776 9.36123 18.776C9.36123 18.776 9.36123 18.776 9.36123 18.776C9.36123 18.776 9.36123 18.776 9.36123 18.776C9.36123 18.776 9.36123 18.776 9.36123 18.776C9.36123 18.776 9.36123 18.776 9.36123 18.776C9.36123 18.776 9.36123 18.776 9.36123 18.776C9.36123 18.776 9.36123 18.776 9.36123 18.776C9.36123 18.776 9.36123 18.776 9.36123 18.776C9.36123 18.776 9.36123 18.776 9.36123 18.776C9.36123 18.776 9.36123 18.776 9.36123 18.776C9.36123 18.776 9.36123 18.776 9.36123 18.776C9.36123 18.776 9.36123 18.776 9.36123 18.776C9.36123 18.776 9.36123 18.776 9.36123 18.776C9.36123 18.776 9.36123 18.776 9.36123 18.776C9.36123 18.776 9.36123 18.776 9.36123 18.776C9.36123 18.776 9.36123 18.776 9.36123 18.776C9.36123 18.776 9.36123 18.776 9.36123 18.776C9.36123 18.776 9.36123 18.776 9.36123 18.776C9.36123 18.7761 9.36123 18.7761 9.36123 18.7761C9.36123 18.7761 9.36123 18.7761 9.36123 18.7761C9.36123 18.7761 9.36123 18.7761 9.36123 18.7761C9.36123 18.7761 9.36123 18.7761 9.36123 18.7761C9.36123 18.7761 9.36123 18.7761 9.36123 18.7761C9.36123 18.7761 9.36123 18.7761 9.36123 18.7761C9.36123 18.7761 9.36123 18.7761 9.36123 18.7761C9.36123 18.7761 9.36123 18.7761 9.36123 18.7761C9.36123 18.7761 9.36123 18.7761 9.36123 18.7761C9.36123 18.7761 9.36123 18.7761 9.76123 18.7761C10.1612 18.7761 10.1612 18.7761 10.1612 18.7761C10.1612 18.7761 10.1612 18.7761 10.1612 18.7761C10.1612 18.7761 10.1612 18.7761 10.1612 18.7761C10.1612 18.7761 10.1612 18.7761 10.1612 18.7761C10.1612 18.7761 10.1612 18.7761 10.1612 18.7761C10.1612 18.7761 10.1612 18.7761 10.1612 18.7761C10.1612 18.7761 10.1612 18.7761 10.1612 18.7761C10.1612 18.7761 10.1612 18.7761 10.1612 18.7761C10.1612 18.7761 10.1612 18.7761 10.1612 18.7761C10.1612 18.7761 10.1612 18.7761 10.1612 18.776C10.1612 18.776 10.1612 18.776 10.1612 18.776C10.1612 18.776 10.1612 18.776 10.1612 18.776C10.1612 18.776 10.1612 18.776 10.1612 18.776C10.1612 18.776 10.1612 18.776 10.1612 18.776C10.1612 18.776 10.1612 18.776 10.1612 18.776C10.1612 18.776 10.1612 18.776 10.1612 18.776C10.1612 18.776 10.1612 18.776 10.1612 18.776C10.1612 18.776 10.1612 18.776 10.1612 18.776C10.1612 18.776 10.1612 18.776 10.1612 18.776C10.1612 18.776 10.1612 18.776 10.1612 18.776C10.1612 18.776 10.1612 18.776 10.1612 18.776C10.1612 18.776 10.1612 18.776 10.1612 18.776C10.1612 18.776 10.1612 18.776 10.1612 18.776C10.1612 18.776 10.1612 18.776 10.1612 18.776C10.1612 18.776 10.1612 18.776 10.1612 18.776C10.1612 18.776 10.1612 18.776 10.1612 18.776C10.1612 18.776 10.1612 18.776 10.1612 18.776C10.1612 18.776 10.1612 18.776 10.1612 18.776C10.1612 18.776 10.1612 18.776 10.1612 18.776C10.1612 18.776 10.1612 18.776 10.1612 18.776C10.1612 18.776 10.1612 18.776 10.1612 18.7759C10.1612 18.7759 10.1612 18.7759 10.1612 18.7759C10.1612 18.7759 10.1612 18.7759 10.1612 18.7759C10.1612 18.7759 10.1612 18.7759 10.1612 18.7759C10.1612 18.7759 10.1612 18.7759 10.1612 18.7759C10.1612 18.7759 10.1612 18.7759 10.1612 18.7759C10.1612 18.7759 10.1612 18.7759 10.1612 18.7759C10.1612 18.7759 10.1612 18.7759 10.1612 18.7759C10.1612 18.7759 10.1612 18.7759 10.1612 18.7759C10.1612 18.7759 10.1612 18.7759 10.1612 18.7759C10.1612 18.7759 10.1612 18.7759 10.1612 18.7759C10.1612 18.7759 10.1612 18.7759 10.1612 18.7759C10.1612 18.7759 10.1612 18.7759 10.1612 18.7759C10.1612 18.7758 10.1612 18.7758 10.1612 18.7758C10.1612 18.7758 10.1612 18.7758 10.1612 18.7758C10.1612 18.7758 10.1612 18.7758 10.1612 18.7758C10.1612 18.7758 10.1612 18.7758 10.1612 18.7758C10.1612 18.7758 10.1612 18.7758 10.1612 18.7758C10.1612 18.7758 10.1612 18.7758 10.1612 18.7758C10.1612 18.7758 10.1612 18.7758 10.1612 18.7758C10.1612 18.7758 10.1612 18.7758 10.1612 18.7758C10.1612 18.7758 10.1612 18.7758 10.1612 18.7758C10.1612 18.7758 10.1612 18.7758 10.1612 18.7757C10.1612 18.7757 10.1612 18.7757 10.1612 18.7757C10.1612 18.7757 10.1612 18.7757 10.1612 18.7757C10.1612 18.7757 10.1612 18.7757 10.1612 18.7757C10.1612 18.7757 10.1612 18.7757 10.1612 18.7757C10.1612 18.7757 10.1612 18.7757 10.1612 18.7757C10.1612 18.7757 10.1612 18.7757 10.1612 18.7757C10.1612 18.7757 10.1612 18.7757 10.1612 18.7757C10.1612 18.7757 10.1612 18.7757 10.1612 18.7757C10.1612 18.7756 10.1612 18.7756 10.1612 18.7756C10.1612 18.7756 10.1612 18.7756 10.1612 18.7756C10.1612 18.7756 10.1612 18.7756 10.1612 18.7756C10.1612 18.7756 10.1612 18.7756 10.1612 18.7756C10.1612 18.7756 10.1612 18.7756 10.1612 18.7756C10.1612 18.7756 10.1612 18.7756 10.1612 18.7756C10.1612 18.7756 10.1612 18.7756 10.1612 18.7756C10.1612 18.7756 10.1612 18.7756 10.1612 18.7755C10.1612 18.7755 10.1612 18.7755 10.1612 18.7755C10.1612 18.7755 10.1612 18.7755 10.1612 18.7755C10.1612 18.7755 10.1612 18.7755 10.1612 18.7755C10.1612 18.7755 10.1612 18.7755 10.1612 18.7755C10.1612 18.7755 10.1612 18.7755 10.1612 18.7755C10.1612 18.7755 10.1612 18.7755 10.1612 18.7755C10.1612 18.7755 10.1612 18.7755 10.1612 18.7754C10.1612 18.7754 10.1612 18.7754 10.1612 18.7754C10.1612 18.7754 10.1612 18.7754 10.1612 18.7754C10.1612 18.7754 10.1612 18.7754 10.1612 18.7754C10.1612 18.7754 10.1612 18.7754 10.1612 18.7754C10.1612 18.7754 10.1612 18.7754 10.1612 18.7754C10.1612 18.7754 10.1612 18.7754 10.1612 18.7754C10.1612 18.7754 10.1612 18.7753 10.1612 18.7753C10.1612 18.7753 10.1612 18.7753 10.1612 18.7753C10.1612 18.7753 10.1612 18.7753 10.1612 18.7753C10.1612 18.7753 10.1612 18.7753 10.1612 18.7753C10.1612 18.7753 10.1612 18.7753 10.1612 18.7753C10.1612 18.7753 10.1612 18.7753 10.1612 18.7753C10.1612 18.7753 10.1612 18.7752 10.1612 18.7752C10.1612 18.7752 10.1612 18.7752 10.1612 18.7752C10.1612 18.7752 10.1612 18.7752 10.1612 18.7752C10.1612 18.7752 10.1612 18.7752 10.1612 18.7752C10.1612 18.7752 10.1612 18.7752 10.1612 18.7752C10.1612 18.7752 10.1612 18.7752 10.1612 18.7752C10.1612 18.7752 10.1612 18.7751 10.1612 18.7751C10.1612 18.7751 10.1612 18.7751 10.1612 18.7751C10.1612 18.7751 10.1612 18.7751 10.1612 18.7751C10.1612 18.7751 10.1612 18.7751 10.1612 18.7751C10.1612 18.7751 10.1612 18.7751 10.1612 18.7751C10.1612 18.7751 10.1612 18.7751 10.1612 18.7751C10.1612 18.775 10.1612 18.775 10.1612 18.775C10.1612 18.775 10.1612 18.775 10.1612 18.775C10.1612 18.775 10.1612 18.775 10.1612 18.775C10.1612 18.775 10.1612 18.775 10.1612 18.775C10.1612 18.775 10.1612 18.775 10.1612 18.775C10.1612 18.775 10.1612 18.775 10.1612 18.7749C10.1612 18.7749 10.1612 18.7749 10.1612 18.7749C10.1612 18.7749 10.1612 18.7749 10.1612 18.7749C10.1612 18.7749 10.1612 18.7749 10.1612 18.7749C10.1612 18.7749 10.1612 18.7749 10.1612 18.7749C10.1612 18.7749 10.1612 18.7749 10.1612 18.7749C10.1612 18.7748 10.1612 18.7748 10.1612 18.7748C10.1612 18.7748 10.1612 18.7748 10.1612 18.7748C10.1612 18.7748 10.1612 18.7748 10.1612 18.7748C10.1612 18.7748 10.1612 18.7748 10.1612 18.7748C10.1612 18.7748 10.1612 18.7748 10.1612 18.7748C10.1612 18.7748 10.1612 18.7747 10.1612 18.7747C10.1612 18.7747 10.1612 18.7747 10.1612 18.7747C10.1612 18.7747 10.1612 18.7747 10.1612 18.7747C10.1612 18.7747 10.1612 18.7747 10.1612 18.7747C10.1612 18.7747 10.1612 18.7747 10.1612 18.7747C10.1612 18.7747 10.1612 18.7746 10.1612 18.7746C10.1612 18.7746 10.1612 18.7746 10.1612 18.7746C10.1612 18.7746 10.1612 18.7746 10.1612 18.7746C10.1612 18.7746 10.1612 18.7746 10.1612 18.7746C10.1612 18.7746 10.1612 18.7746 10.1612 18.7746C10.1612 18.7746 10.1612 18.7746 10.1612 18.7745C10.1612 18.7745 10.1612 18.7745 10.1612 18.7745C10.1612 18.7745 10.1612 18.7745 10.1612 18.7745C10.1612 18.7745 10.1612 18.7745 10.1612 18.7745C10.1612 18.7745 10.1612 18.7745 10.1612 18.7745C10.1612 18.7745 10.1612 18.7745 10.1612 18.7744C10.1612 18.7744 10.1612 18.7744 10.1612 18.7744C10.1612 18.7744 10.1612 18.7744 10.1612 18.7744C10.1612 18.7744 10.1612 18.7744 10.1612 18.7744C10.1612 18.7744 10.1612 18.7744 10.1612 18.7744C10.1612 18.7744 10.1612 18.7743 10.1612 18.7743C10.1612 18.7743 10.1612 18.7743 10.1612 18.7743C10.1612 18.7743 10.1612 18.7743 10.1612 18.7743C10.1612 18.7743 10.1612 18.7743 10.1612 18.7743C10.1612 18.7743 10.1612 18.7743 10.1612 18.7743C10.1612 18.7743 10.1612 18.7742 10.1612 18.7742C10.1612 18.7742 10.1612 18.7742 10.1612 18.7742C10.1612 18.7742 10.1612 18.7742 10.1612 18.7742C10.1612 18.7742 10.1612 18.7742 10.1612 18.7742C10.1612 18.7742 10.1612 18.7742 10.1612 18.7742C10.1612 18.7741 10.1612 18.7741 10.1612 18.7741C10.1612 18.7741 10.1612 18.7741 10.1612 18.7741C10.1612 18.7741 10.1612 18.7741 10.1612 18.7741C10.1612 18.7741 10.1612 18.7741 10.1612 18.7741C10.1612 18.7741 10.1612 18.7741 10.1612 18.7741C10.1612 18.774 10.1612 18.774 10.1612 18.774C10.1612 18.774 10.1612 18.774 10.1612 18.774C10.1612 18.774 10.1612 18.774 10.1612 18.774C10.1612 18.774 10.1612 18.774 10.1612 18.774C10.1612 18.774 10.1612 18.774 10.1612 18.7739C10.1612 18.7739 10.1612 18.7739 10.1612 18.7739C10.1612 18.7739 10.1612 18.7739 10.1612 18.7739C10.1612 18.7739 10.1612 18.7739 10.1612 18.7739C10.1612 18.7739 10.1612 18.7739 10.1612 18.7739C10.1612 18.7739 10.1612 18.7738 10.1612 18.7738C10.1612 18.7738 10.1612 18.7738 10.1612 18.7738C10.1612 18.7738 10.1612 18.7738 10.1612 18.7738C10.1612 18.7738 10.1612 18.7738 10.1612 18.7738C10.1612 18.7738 10.1612 18.7738 10.1612 18.7738C10.1612 18.7737 10.1612 18.7737 10.1612 18.7737C10.1612 18.7737 10.1612 18.7737 10.1612 18.7737C10.1612 18.7737 10.1612 18.7737 10.1612 18.7737C10.1612 18.7737 10.1612 18.7737 10.1612 18.7737C10.1612 18.7737 10.1612 18.7737 10.1612 18.7736C10.1612 18.7736 10.1612 18.7736 10.1612 18.7736C10.1612 18.7736 10.1612 18.7736 10.1612 18.7736C10.1612 18.7736 10.1612 18.7736 10.1612 18.7736C10.1612 18.7736 10.1612 18.7736 10.1612 18.7736C10.1612 18.7736 10.1612 18.7735 10.1612 18.7735C10.1612 18.7735 10.1612 18.7735 10.1612 18.7735C10.1612 18.7735 10.1612 18.7735 10.1612 18.7735C10.1612 18.7735 10.1612 18.7735 10.1612 18.7735C10.1612 18.7735 10.1612 18.7735 10.1612 18.7735C10.1612 18.7734 10.1612 18.7734 10.1612 18.7734C10.1612 18.7734 10.1612 18.7734 10.1612 18.7734C10.1612 18.7734 10.1612 18.7734 10.1612 18.7734C10.1612 18.7734 10.1612 18.7734 10.1612 18.7734C10.1612 18.7734 10.1612 18.7734 10.1612 18.7733C10.1612 18.7733 10.1612 18.7733 10.1612 18.7733C10.1612 18.7733 10.1612 18.7733 10.1612 18.7733C10.1612 18.7733 10.1612 18.7733 10.1612 18.7733C10.1612 18.7733 10.1612 18.7733 10.1612 18.7733C10.1612 18.7733 10.1612 18.7732 10.1612 18.7732C10.1612 18.7732 10.1612 18.7732 10.1612 18.7732C10.1612 18.7732 10.1612 18.7732 10.1612 18.7732C10.1612 18.7732 10.1612 18.7732 10.1612 18.7732C10.1612 18.7732 10.1612 18.7732 10.1612 18.7732C10.1612 18.7732 10.1612 18.7731 10.1612 18.7731C10.1612 18.7731 10.1612 18.7731 10.1612 18.7731C10.1612 18.7731 10.1612 18.7731 10.1612 18.7731C10.1612 18.7731 10.1612 18.7731 10.1612 18.7731C10.1612 18.7731 10.1612 18.7731 10.1612 18.7731C10.1612 18.773 10.1612 18.773 10.1612 18.773C10.1612 18.773 10.1612 18.773 10.1612 18.773C10.1612 18.773 10.1612 18.773 10.1612 18.773C10.1612 18.773 10.1612 18.773 10.1612 18.773C10.1612 18.773 10.1612 18.773 10.1612 18.773C10.1612 18.7729 10.1612 18.7729 10.1612 18.7729C10.1612 18.7729 10.1612 18.7729 10.1612 18.7729C10.1612 18.7729 10.1612 18.7729 10.1612 18.7729C10.1612 18.7729 10.1612 18.7729 10.1612 18.7729C10.1612 18.7729 10.1612 18.7729 10.1612 18.7728C10.1612 18.7728 10.1612 18.7728 10.1612 18.7728C10.1612 18.7728 10.1612 18.7728 10.1612 18.7728C10.1612 18.7728 10.1612 18.7728 10.1612 18.7728C10.1612 18.7728 10.1612 18.7728 10.1612 18.7728C10.1612 18.7728 10.1612 18.7728 10.1612 18.7727C10.1612 18.7727 10.1612 18.7727 10.1612 18.7727C10.1612 18.7727 10.1612 18.7727 10.1612 18.7727C10.1612 18.7727 10.1612 18.7727 10.1612 18.7727C10.1612 18.7727 10.1612 18.7727 10.1612 18.7727C10.1612 18.7727 10.1612 18.7727 10.1612 18.7726C10.1612 18.7726 10.1612 18.7726 10.1612 18.7726C10.1612 18.7726 10.1612 18.7726 10.1612 18.7726C10.1612 18.7726 10.1612 18.7726 10.1612 18.7726C10.1612 18.7726 10.1612 18.7726 10.1612 18.7726C10.1612 18.7726 10.1612 18.7726 10.1612 18.7725C10.1612 18.7725 10.1612 18.7725 10.1612 18.7725C10.1612 18.7725 10.1612 18.7725 10.1612 18.7725C10.1612 18.7725 10.1612 18.7725 10.1612 18.7725C10.1612 18.7725 10.1612 18.7725 10.1612 18.7725C10.1612 18.7725 10.1612 18.7725 10.1612 18.7725C10.1612 18.7724 10.1612 18.7724 10.1612 18.7724C10.1612 18.7724 10.1612 18.7724 10.1612 18.7724C10.1612 18.7724 10.1612 18.7724 10.1612 18.7724C10.1612 18.7724 10.1612 18.7724 10.1612 18.7724C10.1612 18.7724 10.1612 18.7724 10.1612 18.7724C10.1612 18.7724 10.1612 18.7723 10.1612 18.7723C10.1612 18.7723 10.1612 18.7723 10.1612 18.7723C10.1612 18.7723 10.1612 18.7723 10.1612 18.7723C10.1612 18.7723 10.1612 18.7723 10.1612 18.7723C10.1612 18.7723 10.1612 18.7723 10.1612 18.7723C10.1612 18.7723 10.1612 18.7723 10.1612 18.7723C10.1612 18.7722 10.1612 18.7722 10.1612 18.7722C10.1612 18.7722 10.1612 18.7722 10.1612 18.7722C10.1612 18.7722 10.1612 18.7722 10.1612 18.7722C10.1612 18.7722 10.1612 18.7722 10.1612 18.7722C10.1612 18.7722 10.1612 18.7722 10.1612 18.7722C10.1612 18.7722 10.1612 18.7722 10.1612 18.7721C10.1612 18.7721 10.1612 18.7721 10.1612 18.7721C10.1612 18.7721 10.1612 18.7721 10.1612 18.7721C10.1612 18.7721 10.1612 18.7721 10.1612 18.7721C10.1612 18.7721 10.1612 18.7721 10.1612 18.7721C10.1612 18.7721 10.1612 18.7721 10.1612 18.7721C10.1612 18.7721 10.1612 18.772 10.1612 18.772C10.1612 18.772 10.1612 18.772 10.1612 18.772C10.1612 18.772 10.1612 18.772 10.1612 18.772C10.1612 18.772 10.1612 18.772 10.1612 18.772C10.1612 18.772 10.1612 18.772 10.1612 18.772C10.1612 18.772 10.1612 18.772 10.1612 18.772C10.1612 18.772 10.1612 18.772 10.1612 18.7719C10.1612 18.7719 10.1612 18.7719 10.1612 18.7719C10.1612 18.7719 10.1612 18.7719 10.1612 18.7719C10.1612 18.7719 10.1612 18.7719 10.1612 18.7719C10.1612 18.7719 10.1612 18.7719 10.1612 18.7719C10.1612 18.7719 10.1612 18.7719 10.1612 18.7719C10.1612 18.7719 10.1612 18.7719 10.1612 18.7719C10.1612 18.7718 10.1612 18.7718 10.1612 18.7718C10.1612 18.7718 10.1612 18.7718 10.1612 18.7718C10.1612 18.7718 10.1612 18.7718 10.1612 18.7718C10.1612 18.7718 10.1612 18.7718 10.1612 18.7718C10.1612 18.7718 10.1612 18.7718 10.1612 18.7718C10.1612 18.7718 10.1612 18.7718 10.1612 18.7718C10.1612 18.7718 10.1612 18.7718 10.1612 18.7718C10.1612 18.7717 10.1612 18.7717 10.1612 18.7717C10.1612 18.7717 10.1612 18.7717 10.1612 18.7717C10.1612 18.7717 10.1612 18.7717 10.1612 18.7717C10.1612 18.7717 10.1612 18.7717 10.1612 18.7717C10.1612 18.7717 10.1612 18.7717 10.1612 18.7717C10.1612 18.7717 10.1612 18.7717 10.1612 18.7717C10.1612 18.7717 10.1612 18.7717 10.1612 18.7717C10.1612 18.7717 10.1612 18.7716 10.1612 18.7716C10.1612 18.7716 10.1612 18.7716 10.1612 18.7716C10.1612 18.7716 10.1612 18.7716 10.1612 18.7716C10.1612 18.7716 10.1612 18.7716 10.1612 18.7716C10.1612 18.7716 10.1612 18.7716 10.1612 18.7716C10.1612 18.7716 10.1612 18.7716 10.1612 18.7716C10.1612 18.7716 10.1612 18.7716 10.1612 18.7716C10.1612 18.7716 10.1612 18.7716 10.1612 18.7716C10.1612 18.7716 10.1612 18.7715 10.1612 18.7715C10.1612 18.7715 10.1612 18.7715 10.1612 18.7715C10.1612 18.7715 10.1612 18.7715 10.1612 18.7715C10.1612 18.7715 10.1612 18.7715 10.1612 18.7715C10.1612 18.7715 10.1612 18.7715 10.1612 18.7715C10.1612 18.7715 10.1612 18.7715 10.1612 18.7715C10.1612 18.7715 10.1612 18.7715 10.1612 18.7715C10.1612 18.7715 10.1612 18.7715 10.1612 18.7715C10.1612 18.7715 10.1612 18.7715 10.1612 18.7715C10.1612 18.7715 10.1612 18.7715 10.1612 18.7714C10.1612 18.7714 10.1612 18.7714 10.1612 18.7714C10.1612 18.7714 10.1612 18.7714 10.1612 18.7714C10.1612 18.7714 10.1612 18.7714 10.1612 18.7714C10.1612 18.7714 10.1612 18.7714 10.1612 18.7714C10.1612 18.7714 10.1612 18.7714 10.1612 18.7714C10.1612 18.7714 10.1612 18.7714 10.1612 18.7714C10.1612 18.7714 10.1612 18.7714 10.1612 18.7714C10.1612 18.7714 10.1612 18.7714 10.1612 18.7714C10.1612 18.7714 10.1612 18.7714 10.1612 18.7714C10.1612 18.7714 10.1612 18.7714 10.1612 18.7714C10.1612 18.7714 10.1612 18.7714 10.1612 18.7713C10.1612 18.7713 10.1612 18.7713 10.1612 18.7713C10.1612 18.7713 10.1612 18.7713 10.1612 18.7713C10.1612 18.7713 10.1612 18.7713 10.1612 18.7713C10.1612 18.7713 10.1612 18.7713 10.1612 18.7713C10.1612 18.7713 10.1612 18.7713 10.1612 18.7713C10.1612 18.7713 10.1612 18.7713 10.1612 18.7713C10.1612 18.7713 10.1612 18.7713 10.1612 18.7713C10.1612 18.7713 10.1612 18.7713 10.1612 18.7713C10.1612 18.7713 10.1612 18.7713 10.1612 18.7713C10.1612 18.7713 10.1612 18.7713 10.1612 18.7713C10.1612 18.7713 10.1612 18.7713 10.1612 18.7713C10.1612 18.7713 10.1612 18.7713 10.1612 18.7713C10.1612 18.7713 10.1612 18.7713 10.1612 18.7713C10.1612 18.7713 10.1612 18.7713 10.1612 18.7713C10.1612 18.7713 10.1612 18.7713 10.1612 18.7713C10.1612 18.7713 10.1612 18.7712 10.1612 18.7712C10.1612 18.7712 10.1612 18.7712 10.1612 18.7712C10.1612 18.7712 10.1612 18.7712 10.1612 18.7712C10.1612 18.7712 10.1612 18.7712 10.1612 18.7712C10.1612 18.7712 10.1612 18.7712 10.1612 18.7712C10.1612 18.7712 10.1612 18.7712 10.1612 18.7712C10.1612 18.7712 10.1612 18.7712 10.1612 18.7712C10.1612 18.7712 10.1612 18.7712 10.1612 18.7712C10.1612 18.7712 10.1612 18.7712 10.1612 18.7712C10.1612 18.7712 10.1612 18.7712 10.1612 18.7712C10.1612 18.7712 10.1612 18.7712 10.1612 18.7712C10.1612 18.7712 10.1612 18.7712 10.1612 18.7712C10.1612 18.7712 10.1612 18.7712 10.1612 18.7712C10.1612 18.7712 10.1612 18.7712 10.1612 18.7712C10.1612 18.7712 10.1612 18.7712 10.1612 18.7712C10.1612 18.7712 10.1612 18.7712 10.1612 18.7712C10.1612 18.7712 10.1612 18.7712 10.1612 18.7712C10.1612 18.7712 10.1612 18.7712 10.1612 18.7712C10.1612 18.7712 10.1612 18.7712 10.1612 18.7712C10.1612 18.7712 10.1612 18.7712 10.1612 18.7712C9.76123 18.7712 9.36123 18.7712 9.36123 18.7712C9.36123 18.7712 9.36123 18.7712 9.36123 18.7712C9.36123 18.7712 9.36123 18.7712 9.36123 18.7712C9.36123 18.7712 9.36123 18.7712 9.36123 18.7712C9.36123 18.7712 9.36123 18.7712 9.36123 18.7712C9.36123 18.7712 9.36123 18.7712 9.36123 18.7712C9.36123 18.7712 9.36123 18.7712 9.36123 18.7712C9.36123 18.7712 9.36123 18.7712 9.36123 18.7712C9.36123 18.7712 9.36123 18.7712 9.36123 18.7712C9.36123 18.7712 9.36123 18.7712 9.36123 18.7712C9.36123 18.7712 9.36123 18.7712 9.36123 18.7712C9.36123 18.7712 9.36123 18.7712 9.36123 18.7712C9.36123 18.7712 9.36123 18.7712 9.36123 18.7712C9.36123 18.7712 9.36123 18.7712 9.36123 18.7712C9.36123 18.7712 9.36123 18.7712 9.36123 18.7712C9.36123 18.7712 9.36123 18.7712 9.36123 18.7712C9.36123 18.7712 9.36123 18.7712 9.36123 18.7712C9.36123 18.7712 9.36123 18.7712 9.36123 18.7712C9.36123 18.7712 9.36123 18.7712 9.36123 18.7712C9.36123 18.7712 9.36123 18.7713 9.36123 18.7713C9.36123 18.7713 9.36123 18.7713 9.36123 18.7713C9.36123 18.7713 9.36123 18.7713 9.36123 18.7713C9.36123 18.7713 9.36123 18.7713 9.36123 18.7713C9.36123 18.7713 9.36123 18.7713 9.36123 18.7713C9.36123 18.7713 9.36123 18.7713 9.36123 18.7713C9.36123 18.7713 9.36123 18.7713 9.36123 18.7713C9.36123 18.7713 9.36123 18.7713 9.36123 18.7713C9.36123 18.7713 9.36123 18.7713 9.36123 18.7713C9.36123 18.7713 9.36123 18.7713 9.36123 18.7713C9.36123 18.7713 9.36123 18.7713 9.36123 18.7713C9.36123 18.7713 9.36123 18.7713 9.36123 18.7713C9.36123 18.7713 9.36123 18.7713 9.36123 18.7713C9.36123 18.7713 9.36123 18.7713 9.36123 18.7713C9.36123 18.7713 9.36123 18.7714 9.36123 18.7714C9.36123 18.7714 9.36123 18.7714 9.36123 18.7714C9.36123 18.7714 9.36123 18.7714 9.36123 18.7714C9.36123 18.7714 9.36123 18.7714 9.36123 18.7714C9.36123 18.7714 9.36123 18.7714 9.36123 18.7714C9.36123 18.7714 9.36123 18.7714 9.36123 18.7714C9.36123 18.7714 9.36123 18.7714 9.36123 18.7714C9.36123 18.7714 9.36123 18.7714 9.36123 18.7714C9.36123 18.7714 9.36123 18.7714 9.36123 18.7714C9.36123 18.7714 9.36123 18.7714 9.36123 18.7714C9.36123 18.7715 9.36123 18.7715 9.36123 18.7715C9.36123 18.7715 9.36123 18.7715 9.36123 18.7715C9.36123 18.7715 9.36123 18.7715 9.36123 18.7715C9.36123 18.7715 9.36123 18.7715 9.36123 18.7715C9.36123 18.7715 9.36123 18.7715 9.36123 18.7715C9.36123 18.7715 9.36123 18.7715 9.36123 18.7715C9.36123 18.7715 9.36123 18.7715 9.36123 18.7715C9.36123 18.7715 9.36123 18.7716 9.36123 18.7716C9.36123 18.7716 9.36123 18.7716 9.36123 18.7716C9.36123 18.7716 9.36123 18.7716 9.36123 18.7716C9.36123 18.7716 9.36123 18.7716 9.36123 18.7716C9.36123 18.7716 9.36123 18.7716 9.36123 18.7716C9.36123 18.7716 9.36123 18.7716 9.36123 18.7716C9.36123 18.7716 9.36123 18.7716 9.36123 18.7716C9.36123 18.7717 9.36123 18.7717 9.36123 18.7717C9.36123 18.7717 9.36123 18.7717 9.36123 18.7717C9.36123 18.7717 9.36123 18.7717 9.36123 18.7717C9.36123 18.7717 9.36123 18.7717 9.36123 18.7717C9.36123 18.7717 9.36123 18.7717 9.36123 18.7717C9.36123 18.7717 9.36123 18.7717 9.36123 18.7718C9.36123 18.7718 9.36123 18.7718 9.36123 18.7718C9.36123 18.7718 9.36123 18.7718 9.36123 18.7718C9.36123 18.7718 9.36123 18.7718 9.36123 18.7718C9.36123 18.7718 9.36123 18.7718 9.36123 18.7718C9.36123 18.7718 9.36123 18.7718 9.36123 18.7719C9.36123 18.7719 9.36123 18.7719 9.36123 18.7719C9.36123 18.7719 9.36123 18.7719 9.36123 18.7719C9.36123 18.7719 9.36123 18.7719 9.36123 18.7719C9.36123 18.7719 9.36123 18.7719 9.36123 18.7719C9.36123 18.7719 9.36123 18.7719 9.36123 18.772C9.36123 18.772 9.36123 18.772 9.36123 18.772C9.36123 18.772 9.36123 18.772 9.36123 18.772C9.36123 18.772 9.36123 18.772 9.36123 18.772C9.36123 18.772 9.36123 18.772 9.36123 18.772C9.36123 18.7721 9.36123 18.7721 9.36123 18.7721C9.36123 18.7721 9.36123 18.7721 9.36123 18.7721C9.36123 18.7721 9.36123 18.7721 9.36123 18.7721C9.36123 18.7721 9.36123 18.7721 9.36123 18.7721C9.36123 18.7722 9.36123 18.7722 9.36123 18.7722C9.36123 18.7722 9.36123 18.7722 9.36123 18.7722C9.36123 18.7722 9.36123 18.7722 9.36123 18.7722C9.36123 18.7722 9.36123 18.7722 9.36123 18.7722C9.36123 18.7723 9.36123 18.7723 9.36123 18.7723C9.36123 18.7723 9.36123 18.7723 9.36123 18.7723C9.36123 18.7723 9.36123 18.7723 9.36123 18.7723C9.36123 18.7723 9.36123 18.7723 9.36123 18.7724C9.36123 18.7724 9.36123 18.7724 9.36123 18.7724C9.36123 18.7724 9.36123 18.7724 9.36123 18.7724C9.36123 18.7724 9.36123 18.7724 9.36123 18.7724C9.36123 18.7725 9.36123 18.7725 9.36123 18.7725C9.36123 18.7725 9.36123 18.7725 9.36123 18.7725C9.36123 18.7725 9.36123 18.7725 9.36123 18.7725C9.36123 18.7725 9.36123 18.7726 9.36123 18.7726C9.36123 18.7726 9.36123 18.7726 9.36123 18.7726C9.36123 18.7726 9.36123 18.7726 9.36123 18.7726C9.36123 18.7726 9.36123 18.7726 9.36123 18.7727C9.36123 18.7727 9.36123 18.7727 9.36123 18.7727C9.36123 18.7727 9.36123 18.7727 9.36123 18.7727C9.36123 18.7727 9.36123 18.7727 9.36123 18.7728C9.36123 18.7728 9.36123 18.7728 9.36123 18.7728C9.36123 18.7728 9.36123 18.7728 9.36123 18.7728C9.36123 18.7728 9.36123 18.7728 9.36123 18.7729C9.36123 18.7729 9.36123 18.7729 9.36123 18.7729C9.36123 18.7729 9.36123 18.7729 9.36123 18.7729C9.36123 18.7729 9.36123 18.7729 9.36123 18.773C9.36123 18.773 9.36123 18.773 9.36123 18.773C9.36123 18.773 9.36123 18.773 9.36123 18.773C9.36123 18.773 9.36123 18.7731 9.36123 18.7731C9.36123 18.7731 9.36123 18.7731 9.36123 18.7731C9.36123 18.7731 9.36123 18.7731 9.36123 18.7731C9.36123 18.7732 9.36123 18.7732 9.36123 18.7732C9.36123 18.7732 9.36123 18.7732 9.36123 18.7732C9.36123 18.7732 9.36123 18.7732 9.36123 18.7733C9.36123 18.7733 9.36123 18.7733 9.36123 18.7733C9.36123 18.7733 9.36123 18.7733 9.36123 18.7733C9.36123 18.7733 9.36123 18.7734 9.36123 18.7734C9.36123 18.7734 9.36123 18.7734 9.36123 18.7734C9.36123 18.7734 9.36123 18.7734 9.36123 18.7735C9.36123 18.7735 9.36123 18.7735 9.36123 18.7735C9.36123 18.7735 9.36123 18.7735 9.36123 18.7735C9.36123 18.7736 9.36123 18.7736 9.36123 18.7736C9.36123 18.7736 9.36123 18.7736 9.36123 18.7736C9.36123 18.7736 9.36123 18.7736 9.36123 18.7737C9.36123 18.7737 9.36123 18.7737 9.36123 18.7737C9.36123 18.7737 9.36123 18.7737 9.36123 18.7738C9.36123 18.7738 9.36123 18.7738 9.36123 18.7738C9.36123 18.7738 9.36123 18.7738 9.36123 18.7738C9.36123 18.7739 9.36123 18.7739 9.36123 18.7739C9.36123 18.7739 9.36123 18.7739 9.36123 18.7739C9.36123 18.7739 9.36123 18.774 9.36123 18.774C9.36123 18.774 9.36123 18.774 9.36123 18.774C9.36123 18.774 9.36123 18.7741 9.36123 18.7741C9.36123 18.7741 9.36123 18.7741 9.36123 18.7741C9.36123 18.7741 9.36123 18.7741 9.36123 18.7742C9.36123 18.7742 9.36123 18.7742 9.36123 18.7742C9.36123 18.7742 9.36123 18.7742 9.36123 18.7743C9.36123 18.7743 9.36123 18.7743 9.36123 18.7743C9.36123 18.7743 9.36123 18.7743 9.36123 18.7744C9.36123 18.7744 9.36123 18.7744 9.36123 18.7744C9.36123 18.7744 9.36123 18.7744 9.36123 18.7745C9.36123 18.7745 9.36123 18.7745 9.36123 18.7745C9.36123 18.7745 9.36123 18.7745 9.36123 18.7746C9.36123 18.7746 9.36123 18.7746 9.36123 18.7746C9.36123 18.7746 9.36123 18.7746 9.36123 18.7747C9.36123 18.7747 9.36123 18.7747 9.36123 18.7747C9.36123 18.7747 9.36123 18.7748 9.36123 18.7748C9.36123 18.7748 9.36123 18.7748 9.36123 18.7748C9.36123 18.7748 9.36123 18.7749 9.36123 18.7749C9.36123 18.7749 9.36123 18.7749 9.36123 18.7749C9.36123 18.775 9.36123 18.775 9.36123 18.775C9.36123 18.775 9.36123 18.775 9.36123 18.775C9.36123 18.7751 9.36123 18.7751 9.36123 18.7751C9.36123 18.7751 9.36123 18.7751 9.36123 18.7752C9.36123 18.7752 9.36123 18.7752 9.36123 18.7752C9.36123 18.7752 9.36123 18.7753 9.36123 18.7753C9.36123 18.7753 9.36123 18.7753 9.36123 18.7753C9.36123 18.7753 9.36123 18.7754 9.36123 18.7754C9.36123 18.7754 9.36123 18.7754 9.36123 18.7754C9.36123 18.7755 9.36123 18.7755 9.36123 18.7755C9.36123 18.7755 9.36123 18.7755 9.36123 18.7756C9.36123 18.7756 9.36123 18.7756 9.36123 18.7756C9.36123 18.7756 9.36123 18.7757 9.36123 18.7757C9.36123 18.7757 9.36123 18.7757 9.36123 18.7757C9.36123 18.7758 9.36123 18.7758 9.36123 18.7758C9.36123 18.7758 9.36123 18.7759 9.36123 18.7759C9.36123 18.7759 9.36123 18.7759 9.36123 18.7759C9.36123 18.776 9.36123 18.776 9.36123 18.776C9.36123 18.776 9.36123 18.776 9.36123 18.7761L10.1612 18.7761Z" fill="#5CC773" mask="url(#path-2-outside-2)"/>
</svg>
