<svg width="38" height="33" viewBox="0 0 38 33" fill="none" xmlns="http://www.w3.org/2000/svg">
<path d="M32.3307 31.3335C32.3307 31.7756 32.1551 32.1995 31.8426 32.512C31.53 32.8246 31.1061 33.0002 30.6641 33.0002H7.33073C6.8887 33.0002 6.46478 32.8246 6.15222 32.512C5.83966 32.1995 5.66406 31.7756 5.66406 31.3335V16.3335H0.664062L17.8757 0.686859C18.1826 0.407655 18.5825 0.25293 18.9974 0.25293C19.4123 0.25293 19.8122 0.407655 20.1191 0.686859L37.3307 16.3335H32.3307V31.3335ZM11.4974 19.6669C11.4974 21.656 12.2876 23.5636 13.6941 24.9702C15.1006 26.3767 17.0083 27.1669 18.9974 27.1669C20.9865 27.1669 22.8942 26.3767 24.3007 24.9702C25.7072 23.5636 26.4974 21.656 26.4974 19.6669H23.1641C23.1641 20.7719 22.7251 21.8317 21.9437 22.6131C21.1623 23.3945 20.1025 23.8335 18.9974 23.8335C17.8923 23.8335 16.8325 23.3945 16.0511 22.6131C15.2697 21.8317 14.8307 20.7719 14.8307 19.6669H11.4974Z" fill="#5CC773"/>
<rect x="10" y="15" width="18" height="14" fill="#5CC773"/>
<path d="M19 14L20.8547 17.6212L25 18.2022L22 21.0194L22.7079 25L19 23.1205L15.2921 24.9986L16 21.0194L13 18.2008L17.1453 17.6198L19 14Z" fill="white"/>
</svg>
