<?xml version="1.0" encoding="utf-8"?>
<!-- Generator: Adobe Illustrator 21.1.0, SVG Export Plug-In . SVG Version: 6.00 Build 0)  -->
<svg version="1.1" id="Слой_1" xmlns="http://www.w3.org/2000/svg" xmlns:xlink="http://www.w3.org/1999/xlink" x="0px" y="0px"
	 viewBox="0 0 38 33" style="enable-background:new 0 0 38 33;" xml:space="preserve">
<style type="text/css">
	.st0{fill:#5CC773;}
</style>
<path class="st0" d="M20.1,0.7c-0.3-0.3-0.7-0.4-1.1-0.4c-0.4,0-0.8,0.2-1.1,0.4L0.7,16.3h5v15c0,0.4,0.2,0.9,0.5,1.2
	C6.5,32.8,6.9,33,7.3,33h23.3c0.4,0,0.9-0.2,1.2-0.5c0.3-0.3,0.5-0.7,0.5-1.2v-15h5L20.1,0.7z M22.7,25L19,23.1L15.3,25l0.7-4
	l-3-2.8l4.1-0.6L19,14l1.9,3.6l4.1,0.6L22,21L22.7,25z"/>
</svg>
