<svg width="24" height="24" viewBox="0 0 24 24" fill="none" xmlns="http://www.w3.org/2000/svg">
<mask id="path-1-outside-1" maskUnits="userSpaceOnUse" x="-0.00134277" y="0" width="24" height="24" fill="black">
<rect fill="white" x="-0.00134277" width="24" height="24"/>
<path fill-rule="evenodd" clip-rule="evenodd" d="M2.51243 1H21.485C22.3197 1 22.9987 1.57827 22.9987 2.28906V21.7108C22.9987 22.4216 22.3197 22.9999 21.485 22.9999H15.0818L15.078 23L15.0745 22.9999H2.51243C1.67774 22.9999 0.998657 22.4216 0.998657 21.7108V16.61C0.998657 16.3727 1.22461 16.1803 1.50325 16.1803C1.78188 16.1803 2.00784 16.3727 2.00784 16.61V21.7108C2.00784 21.9477 2.2342 22.1405 2.51243 22.1405H5.34228C4.26442 21.072 3.6743 19.7201 3.6743 18.3038C3.6743 18.0665 3.90026 17.8741 4.1789 17.8741C4.45753 17.8741 4.68349 18.0665 4.68349 18.3038C4.68349 19.5911 5.25418 20.8162 6.29041 21.7536L6.71815 22.1405H12.5127C9.71462 20.9029 7.54331 18.8251 6.43028 16.269C5.57495 14.3046 4.04755 12.6434 2.01339 11.4651L2.00784 11.4619V13.4466C2.00784 13.6839 1.78188 13.8763 1.50325 13.8763C1.22461 13.8763 0.998657 13.6839 0.998657 13.4466V10.6493V10.6471V2.28906C0.998657 1.57827 1.67774 1 2.51243 1ZM20.3344 5.91644C20.9213 5.91644 21.4855 6.04603 21.9896 6.28954V2.28902C21.9896 2.05209 21.7633 1.85933 21.485 1.85933H11.008C10.8771 1.99451 10.7488 2.13532 10.6251 2.28004C7.36322 6.09657 7.36322 12.3065 10.6251 16.123C12.1654 17.9253 14.198 18.9179 16.3485 18.9179C16.6272 18.9179 16.8531 19.1103 16.8531 19.3476C16.8531 19.5849 16.6272 19.7773 16.3485 19.7773C13.8667 19.7773 11.5443 18.6591 9.80908 16.6287C8.10901 14.6395 7.17269 12.0018 7.17269 9.20157C7.17269 6.44075 8.08332 3.83847 9.73823 1.85938H4.38542C4.9327 2.97832 5.22047 4.19159 5.22047 5.40301V6.54469C5.22047 6.782 4.99452 6.97437 4.71588 6.97437C4.43725 6.97437 4.21129 6.782 4.21129 6.54469V5.40301C4.21129 4.18411 3.89022 2.96316 3.28234 1.85938H2.51248C2.23425 1.85938 2.00789 2.05213 2.00789 2.28906V10.4225L2.58101 10.7545C4.78955 12.0339 6.44789 13.8374 7.37654 15.9702C8.59301 18.7639 11.1819 20.9375 14.4796 21.9335L15.1649 22.1405H21.485C21.7632 22.1405 21.9896 21.9477 21.9896 21.7108V17.5507C21.7907 17.7296 21.5859 17.899 21.3757 18.0575C21.2797 18.13 21.1602 18.1656 21.0413 18.1656C20.9019 18.1656 20.7632 18.1167 20.6634 18.0208C20.4786 17.8432 20.4979 17.5716 20.7065 17.4143C21.1638 17.0693 21.5947 16.6664 21.9896 16.2168V12.0746C21.4855 12.318 20.9213 12.4476 20.3344 12.4476C19.3755 12.4476 18.4764 12.1032 17.8028 11.4778C16.4394 10.2119 16.4394 8.15215 17.8028 6.88629C18.4764 6.26088 19.3755 5.91644 20.3344 5.91644ZM21.9896 11.011V7.35319C21.528 6.98009 20.947 6.7759 20.3344 6.77586C19.6616 6.77586 19.0267 7.02138 18.5465 7.46723C17.5281 8.41284 17.5281 9.95142 18.5465 10.897C19.0267 11.3428 19.6616 11.5884 20.3344 11.5884C20.947 11.5884 21.528 11.3841 21.9896 11.011ZM16.0661 3.19881C15.9848 2.97584 15.7382 2.86086 15.5153 2.94207C14.6441 3.25935 13.8421 3.82525 13.196 4.57853C13.0414 4.75866 13.0622 5.02992 13.2424 5.18444C13.3234 5.25396 13.4229 5.28795 13.5219 5.28795C13.643 5.28795 13.7633 5.23707 13.8483 5.13799C14.3985 4.49651 15.0766 4.01637 15.8093 3.74958C16.0323 3.66837 16.1472 3.42177 16.0661 3.19881ZM3.3649 14.6479C3.28502 14.568 3.17417 14.5225 3.06116 14.5225C2.94815 14.5225 2.83729 14.568 2.75737 14.6479C2.67745 14.7283 2.63147 14.8387 2.63147 14.9521C2.63147 15.0652 2.6774 15.1756 2.75737 15.2559C2.83733 15.3359 2.94819 15.3818 3.06116 15.3818C3.17417 15.3818 3.28502 15.3359 3.3649 15.2559C3.44483 15.1756 3.49084 15.0652 3.49084 14.9521C3.49084 14.8387 3.44487 14.7283 3.3649 14.6479ZM17.9275 15.2635C17.914 15.0265 17.7125 14.8458 17.4739 14.8591L17.4662 14.8595C17.2293 14.8731 17.0483 15.0762 17.0619 15.3131C17.075 15.5416 17.2644 15.7182 17.4905 15.7182C17.4987 15.7182 17.5071 15.7179 17.5155 15.7175L17.5232 15.717C17.7601 15.7035 17.9411 15.5004 17.9275 15.2635ZM13.8464 13.2265C14.4617 13.9439 15.2274 14.4528 16.0606 14.6982C16.2883 14.7652 16.4184 15.0041 16.3515 15.2318C16.2964 15.4189 16.1251 15.5402 15.9394 15.5402C15.8993 15.5402 15.8584 15.5346 15.8179 15.5226C14.825 15.2302 13.9178 14.6297 13.1941 13.7859C11.6029 11.9305 11.1194 9.16513 11.9626 6.74084C12.0405 6.51667 12.2851 6.39816 12.5095 6.47611C12.7337 6.55405 12.8521 6.79897 12.7742 7.0231C12.0297 9.16393 12.4506 11.5989 13.8464 13.2265Z"/>
</mask>
<path fill-rule="evenodd" clip-rule="evenodd" d="M2.51243 1H21.485C22.3197 1 22.9987 1.57827 22.9987 2.28906V21.7108C22.9987 22.4216 22.3197 22.9999 21.485 22.9999H15.0818L15.078 23L15.0745 22.9999H2.51243C1.67774 22.9999 0.998657 22.4216 0.998657 21.7108V16.61C0.998657 16.3727 1.22461 16.1803 1.50325 16.1803C1.78188 16.1803 2.00784 16.3727 2.00784 16.61V21.7108C2.00784 21.9477 2.2342 22.1405 2.51243 22.1405H5.34228C4.26442 21.072 3.6743 19.7201 3.6743 18.3038C3.6743 18.0665 3.90026 17.8741 4.1789 17.8741C4.45753 17.8741 4.68349 18.0665 4.68349 18.3038C4.68349 19.5911 5.25418 20.8162 6.29041 21.7536L6.71815 22.1405H12.5127C9.71462 20.9029 7.54331 18.8251 6.43028 16.269C5.57495 14.3046 4.04755 12.6434 2.01339 11.4651L2.00784 11.4619V13.4466C2.00784 13.6839 1.78188 13.8763 1.50325 13.8763C1.22461 13.8763 0.998657 13.6839 0.998657 13.4466V10.6493V10.6471V2.28906C0.998657 1.57827 1.67774 1 2.51243 1ZM20.3344 5.91644C20.9213 5.91644 21.4855 6.04603 21.9896 6.28954V2.28902C21.9896 2.05209 21.7633 1.85933 21.485 1.85933H11.008C10.8771 1.99451 10.7488 2.13532 10.6251 2.28004C7.36322 6.09657 7.36322 12.3065 10.6251 16.123C12.1654 17.9253 14.198 18.9179 16.3485 18.9179C16.6272 18.9179 16.8531 19.1103 16.8531 19.3476C16.8531 19.5849 16.6272 19.7773 16.3485 19.7773C13.8667 19.7773 11.5443 18.6591 9.80908 16.6287C8.10901 14.6395 7.17269 12.0018 7.17269 9.20157C7.17269 6.44075 8.08332 3.83847 9.73823 1.85938H4.38542C4.9327 2.97832 5.22047 4.19159 5.22047 5.40301V6.54469C5.22047 6.782 4.99452 6.97437 4.71588 6.97437C4.43725 6.97437 4.21129 6.782 4.21129 6.54469V5.40301C4.21129 4.18411 3.89022 2.96316 3.28234 1.85938H2.51248C2.23425 1.85938 2.00789 2.05213 2.00789 2.28906V10.4225L2.58101 10.7545C4.78955 12.0339 6.44789 13.8374 7.37654 15.9702C8.59301 18.7639 11.1819 20.9375 14.4796 21.9335L15.1649 22.1405H21.485C21.7632 22.1405 21.9896 21.9477 21.9896 21.7108V17.5507C21.7907 17.7296 21.5859 17.899 21.3757 18.0575C21.2797 18.13 21.1602 18.1656 21.0413 18.1656C20.9019 18.1656 20.7632 18.1167 20.6634 18.0208C20.4786 17.8432 20.4979 17.5716 20.7065 17.4143C21.1638 17.0693 21.5947 16.6664 21.9896 16.2168V12.0746C21.4855 12.318 20.9213 12.4476 20.3344 12.4476C19.3755 12.4476 18.4764 12.1032 17.8028 11.4778C16.4394 10.2119 16.4394 8.15215 17.8028 6.88629C18.4764 6.26088 19.3755 5.91644 20.3344 5.91644ZM21.9896 11.011V7.35319C21.528 6.98009 20.947 6.7759 20.3344 6.77586C19.6616 6.77586 19.0267 7.02138 18.5465 7.46723C17.5281 8.41284 17.5281 9.95142 18.5465 10.897C19.0267 11.3428 19.6616 11.5884 20.3344 11.5884C20.947 11.5884 21.528 11.3841 21.9896 11.011ZM16.0661 3.19881C15.9848 2.97584 15.7382 2.86086 15.5153 2.94207C14.6441 3.25935 13.8421 3.82525 13.196 4.57853C13.0414 4.75866 13.0622 5.02992 13.2424 5.18444C13.3234 5.25396 13.4229 5.28795 13.5219 5.28795C13.643 5.28795 13.7633 5.23707 13.8483 5.13799C14.3985 4.49651 15.0766 4.01637 15.8093 3.74958C16.0323 3.66837 16.1472 3.42177 16.0661 3.19881ZM3.3649 14.6479C3.28502 14.568 3.17417 14.5225 3.06116 14.5225C2.94815 14.5225 2.83729 14.568 2.75737 14.6479C2.67745 14.7283 2.63147 14.8387 2.63147 14.9521C2.63147 15.0652 2.6774 15.1756 2.75737 15.2559C2.83733 15.3359 2.94819 15.3818 3.06116 15.3818C3.17417 15.3818 3.28502 15.3359 3.3649 15.2559C3.44483 15.1756 3.49084 15.0652 3.49084 14.9521C3.49084 14.8387 3.44487 14.7283 3.3649 14.6479ZM17.9275 15.2635C17.914 15.0265 17.7125 14.8458 17.4739 14.8591L17.4662 14.8595C17.2293 14.8731 17.0483 15.0762 17.0619 15.3131C17.075 15.5416 17.2644 15.7182 17.4905 15.7182C17.4987 15.7182 17.5071 15.7179 17.5155 15.7175L17.5232 15.717C17.7601 15.7035 17.9411 15.5004 17.9275 15.2635ZM13.8464 13.2265C14.4617 13.9439 15.2274 14.4528 16.0606 14.6982C16.2883 14.7652 16.4184 15.0041 16.3515 15.2318C16.2964 15.4189 16.1251 15.5402 15.9394 15.5402C15.8993 15.5402 15.8584 15.5346 15.8179 15.5226C14.825 15.2302 13.9178 14.6297 13.1941 13.7859C11.6029 11.9305 11.1194 9.16513 11.9626 6.74084C12.0405 6.51667 12.2851 6.39816 12.5095 6.47611C12.7337 6.55405 12.8521 6.79897 12.7742 7.0231C12.0297 9.16393 12.4506 11.5989 13.8464 13.2265Z" fill="#535257"/>
<path d="M15.0818 22.9999V22.6997L15.0718 22.7L15.0818 22.9999ZM15.078 23L15.067 23.2998L15.0775 23.3002L15.088 23.2998L15.078 23ZM15.0745 22.9999L15.0855 22.6999H15.0745V22.9999ZM5.34228 22.1405V22.4405H6.07107L5.55348 21.9274L5.34228 22.1405ZM6.29041 21.7536L6.49166 21.5311L6.49166 21.5311L6.29041 21.7536ZM6.71815 22.1405L6.5169 22.363L6.60259 22.4405H6.71815V22.1405ZM12.5127 22.1405V22.4405L12.6341 21.8661L12.5127 22.1405ZM6.43028 16.269L6.15522 16.3888L6.15523 16.3888L6.43028 16.269ZM2.01339 11.4651L1.86276 11.7245L1.86302 11.7247L2.01339 11.4651ZM2.00784 11.4619L2.15847 11.2024L1.70784 10.9408V11.4619H2.00784ZM21.9896 6.28954L21.8591 6.55967L22.2896 6.76762V6.28954H21.9896ZM11.008 1.85933V1.55933H10.8809L10.7925 1.65065L11.008 1.85933ZM10.6251 2.28004L10.8532 2.47495L10.8532 2.47494L10.6251 2.28004ZM10.6251 16.123L10.397 16.3179L10.397 16.3179L10.6251 16.123ZM9.80908 16.6287L9.58102 16.8236L9.58102 16.8236L9.80908 16.6287ZM9.73823 1.85938L9.96837 2.05182L10.3802 1.55937H9.73823V1.85938ZM4.38542 1.85938V1.55937H3.90473L4.11593 1.99118L4.38542 1.85938ZM3.28234 1.85938L3.54512 1.71465L3.45961 1.55937H3.28234V1.85938ZM2.00789 10.4225H1.70789V10.5954L1.85752 10.6821L2.00789 10.4225ZM2.58101 10.7545L2.73138 10.4949L2.73138 10.4949L2.58101 10.7545ZM7.37654 15.9702L7.10148 16.09L7.10149 16.09L7.37654 15.9702ZM14.4796 21.9335L14.5664 21.6463L14.5664 21.6463L14.4796 21.9335ZM15.1649 22.1405L15.0781 22.4277L15.1205 22.4405H15.1649V22.1405ZM21.9896 21.7108L22.2896 21.7109V21.7108H21.9896ZM21.9896 17.5507H22.2896V16.8774L21.789 17.3276L21.9896 17.5507ZM21.3757 18.0575L21.195 17.818L21.195 17.818L21.3757 18.0575ZM20.6634 18.0208L20.4555 18.2371L20.4555 18.2371L20.6634 18.0208ZM20.7065 17.4143L20.8871 17.6538L20.8872 17.6538L20.7065 17.4143ZM21.9896 16.2168L22.215 16.4148L22.2896 16.3299V16.2168H21.9896ZM21.9896 12.0746H22.2896V11.5965L21.8591 11.8044L21.9896 12.0746ZM17.8028 11.4778L17.5986 11.6976L17.5986 11.6976L17.8028 11.4778ZM17.8028 6.88629L17.5986 6.66643L17.5986 6.66644L17.8028 6.88629ZM21.9896 7.35319H22.2896V7.20993L22.1781 7.11987L21.9896 7.35319ZM21.9896 11.011L22.1781 11.2443L22.2896 11.1543V11.011H21.9896ZM20.3344 6.77586L20.3344 6.47586H20.3344V6.77586ZM18.5465 7.46723L18.7506 7.68707L18.5465 7.46723ZM18.5465 10.897L18.7506 10.6771L18.7506 10.6771L18.5465 10.897ZM15.5153 2.94207L15.6179 3.22396L15.618 3.22394L15.5153 2.94207ZM16.0661 3.19881L16.348 3.09618L16.3479 3.09614L16.0661 3.19881ZM13.196 4.57853L13.4237 4.77386L13.4237 4.77385L13.196 4.57853ZM13.2424 5.18444L13.4377 4.95674L13.4377 4.95671L13.2424 5.18444ZM13.8483 5.13799L14.076 5.33331L14.076 5.33329L13.8483 5.13799ZM15.8093 3.74958L15.912 4.03148L15.912 4.03147L15.8093 3.74958ZM3.3649 14.6479L3.57755 14.4363L3.57709 14.4359L3.3649 14.6479ZM2.75737 14.6479L2.54524 14.4358L2.54467 14.4364L2.75737 14.6479ZM2.75737 15.2559L2.54473 15.4676L2.54529 15.4681L2.75737 15.2559ZM3.3649 15.2559L3.57709 15.468L3.5776 15.4675L3.3649 15.2559ZM17.4739 14.8591L17.4573 14.5595L17.4572 14.5595L17.4739 14.8591ZM17.9275 15.2635L17.628 15.2806L17.628 15.2807L17.9275 15.2635ZM17.4662 14.8595L17.4495 14.56L17.449 14.56L17.4662 14.8595ZM17.0619 15.3131L17.3614 15.2959L17.3614 15.2959L17.0619 15.3131ZM17.5155 15.7175L17.4987 15.4179L17.4986 15.4179L17.5155 15.7175ZM17.5232 15.717L17.5399 16.0166L17.5403 16.0165L17.5232 15.717ZM16.0606 14.6982L15.9759 14.986L15.9759 14.986L16.0606 14.6982ZM13.8464 13.2265L14.0742 13.0312L14.0742 13.0311L13.8464 13.2265ZM16.3515 15.2318L16.6392 15.3165L16.6393 15.3165L16.3515 15.2318ZM15.8179 15.5226L15.9027 15.2349L15.9026 15.2348L15.8179 15.5226ZM13.1941 13.7859L12.9664 13.9812L12.9664 13.9813L13.1941 13.7859ZM11.9626 6.74084L12.2459 6.83938L12.2459 6.83936L11.9626 6.74084ZM12.5095 6.47611L12.6081 6.19275L12.608 6.19271L12.5095 6.47611ZM12.7742 7.0231L13.0576 7.12164L13.0576 7.12159L12.7742 7.0231ZM21.485 0.7H2.51243V1.3H21.485V0.7ZM23.2987 2.28906C23.2987 1.36919 22.4383 0.7 21.485 0.7V1.3C22.201 1.3 22.6987 1.78736 22.6987 2.28906H23.2987ZM23.2987 21.7108V2.28906H22.6987V21.7108H23.2987ZM21.485 23.2999C22.4383 23.2999 23.2987 22.6307 23.2987 21.7108H22.6987C22.6987 22.2125 22.201 22.6999 21.485 22.6999V23.2999ZM15.0818 23.2999H21.485V22.6999H15.0818V23.2999ZM15.088 23.2998L15.0918 23.2997L15.0718 22.7L15.068 22.7002L15.088 23.2998ZM15.0635 23.2997L15.067 23.2998L15.089 22.7002L15.0855 22.7001L15.0635 23.2997ZM2.51243 23.2999H15.0745V22.6999H2.51243V23.2999ZM0.698657 21.7108C0.698657 22.6307 1.55907 23.2999 2.51243 23.2999V22.6999C1.7964 22.6999 1.29866 22.2125 1.29866 21.7108H0.698657ZM0.698657 16.61V21.7108H1.29866V16.61H0.698657ZM1.50325 15.8803C1.10597 15.8803 0.698657 16.1636 0.698657 16.61H1.29866C1.29866 16.5914 1.30678 16.5637 1.34096 16.5346C1.37577 16.505 1.43221 16.4803 1.50325 16.4803V15.8803ZM2.30784 16.61C2.30784 16.1636 1.90053 15.8803 1.50325 15.8803V16.4803C1.57429 16.4803 1.63073 16.505 1.66554 16.5346C1.69971 16.5637 1.70784 16.5914 1.70784 16.61H2.30784ZM2.30784 21.7108V16.61H1.70784V21.7108H2.30784ZM2.51243 21.8405C2.44183 21.8405 2.38533 21.8159 2.3503 21.7861C2.31584 21.7567 2.30784 21.7289 2.30784 21.7108H1.70784C1.70784 22.1568 2.11553 22.4405 2.51243 22.4405V21.8405ZM5.34228 21.8405H2.51243V22.4405H5.34228V21.8405ZM3.3743 18.3038C3.3743 19.8067 4.00128 21.2336 5.13108 22.3535L5.55348 21.9274C4.52757 20.9105 3.9743 19.6334 3.9743 18.3038H3.3743ZM4.1789 17.5741C3.78161 17.5741 3.3743 17.8574 3.3743 18.3038H3.9743C3.9743 18.2852 3.98243 18.2575 4.0166 18.2284C4.05142 18.1987 4.10786 18.1741 4.1789 18.1741V17.5741ZM4.98349 18.3038C4.98349 17.8574 4.57618 17.5741 4.1789 17.5741V18.1741C4.24993 18.1741 4.30638 18.1987 4.34119 18.2284C4.37536 18.2575 4.38349 18.2852 4.38349 18.3038H4.98349ZM6.49166 21.5311C5.51228 20.6452 4.98349 19.4985 4.98349 18.3038H4.38349C4.38349 19.6837 4.99608 20.9873 6.08916 21.976L6.49166 21.5311ZM6.91941 21.918L6.49166 21.5311L6.08916 21.976L6.5169 22.363L6.91941 21.918ZM12.5127 21.8405H6.71815V22.4405H12.5127V21.8405ZM6.15523 16.3888C7.3019 19.0221 9.5332 21.1507 12.3914 22.4149L12.6341 21.8661C9.89603 20.6551 7.78472 18.628 6.70534 16.1493L6.15523 16.3888ZM1.86302 11.7247C3.84744 12.8742 5.32796 14.4888 6.15522 16.3888L6.70534 16.1493C5.82193 14.1203 4.24766 12.4126 2.16376 11.2055L1.86302 11.7247ZM1.85721 11.7213L1.86276 11.7245L2.16402 11.2056L2.15847 11.2024L1.85721 11.7213ZM2.30784 13.4466V11.4619H1.70784V13.4466H2.30784ZM1.50325 14.1763C1.90053 14.1763 2.30784 13.893 2.30784 13.4466H1.70784C1.70784 13.4652 1.69971 13.4929 1.66554 13.522C1.63073 13.5517 1.57429 13.5763 1.50325 13.5763V14.1763ZM0.698657 13.4466C0.698657 13.893 1.10597 14.1763 1.50325 14.1763V13.5763C1.43221 13.5763 1.37577 13.5517 1.34096 13.522C1.30678 13.4929 1.29866 13.4652 1.29866 13.4466H0.698657ZM0.698657 10.6493V13.4466H1.29866V10.6493H0.698657ZM0.698657 10.6471V10.6493H1.29866V10.6471H0.698657ZM0.698657 2.28906V10.6471H1.29866V2.28906H0.698657ZM2.51243 0.7C1.55907 0.7 0.698657 1.36919 0.698657 2.28906H1.29866C1.29866 1.78736 1.7964 1.3 2.51243 1.3V0.7ZM22.1201 6.01941C21.5745 5.75584 20.9656 5.61644 20.3344 5.61644V6.21644C20.8771 6.21644 21.3966 6.33623 21.8591 6.55967L22.1201 6.01941ZM21.6896 2.28902V6.28954H22.2896V2.28902H21.6896ZM21.485 2.15933C21.5556 2.15933 21.6121 2.18391 21.6472 2.21373C21.6816 2.24308 21.6896 2.27084 21.6896 2.28902H22.2896C22.2896 1.84301 21.8819 1.55933 21.485 1.55933V2.15933ZM11.008 2.15933H21.485V1.55933H11.008V2.15933ZM10.8532 2.47494C10.9727 2.33507 11.0969 2.19885 11.2236 2.06802L10.7925 1.65065C10.6574 1.79017 10.5249 1.93557 10.397 2.08514L10.8532 2.47494ZM10.8531 15.9281C7.6872 12.2239 7.6872 6.17924 10.8532 2.47495L10.397 2.08513C7.03924 6.01389 7.03924 12.3892 10.397 16.3179L10.8531 15.9281ZM16.3485 18.6179C14.2953 18.6179 12.3431 17.6714 10.8531 15.9281L10.397 16.3179C11.9878 18.1792 14.1006 19.2179 16.3485 19.2179V18.6179ZM17.1531 19.3476C17.1531 18.9012 16.7458 18.6179 16.3485 18.6179V19.2179C16.4196 19.2179 16.476 19.2425 16.5108 19.2721C16.545 19.3012 16.5531 19.3289 16.5531 19.3476H17.1531ZM16.3485 20.0773C16.7458 20.0773 17.1531 19.794 17.1531 19.3476H16.5531C16.5531 19.3662 16.545 19.3939 16.5108 19.423C16.476 19.4526 16.4196 19.4773 16.3485 19.4773V20.0773ZM9.58102 16.8236C11.3683 18.9149 13.7717 20.0773 16.3485 20.0773V19.4773C13.9618 19.4773 11.7203 18.4032 10.0371 16.4338L9.58102 16.8236ZM6.87269 9.20157C6.87269 12.0679 7.83112 14.7761 9.58102 16.8236L10.0371 16.4338C8.3869 14.5029 7.47269 11.9358 7.47269 9.20157H6.87269ZM9.50809 1.66693C7.80485 3.70383 6.87269 6.37555 6.87269 9.20157H7.47269C7.47269 6.50594 8.3618 3.97311 9.96837 2.05182L9.50809 1.66693ZM4.38542 2.15937H9.73823V1.55937H4.38542V2.15937ZM5.52047 5.40301C5.52047 4.14413 5.22148 2.88594 4.65492 1.72757L4.11593 1.99118C4.64393 3.07071 4.92047 4.23905 4.92047 5.40301H5.52047ZM5.52047 6.54469V5.40301H4.92047V6.54469H5.52047ZM4.71588 7.27437C5.11316 7.27437 5.52047 6.99111 5.52047 6.54469H4.92047C4.92047 6.56333 4.91235 6.59101 4.87817 6.62011C4.84336 6.64975 4.78692 6.67437 4.71588 6.67437V7.27437ZM3.91129 6.54469C3.91129 6.99111 4.3186 7.27437 4.71588 7.27437V6.67437C4.64484 6.67437 4.5884 6.64975 4.55359 6.62011C4.51942 6.59101 4.51129 6.56333 4.51129 6.54469H3.91129ZM3.91129 5.40301V6.54469H4.51129V5.40301H3.91129ZM3.01955 2.0041C3.604 3.06533 3.91129 4.23672 3.91129 5.40301H4.51129C4.51129 4.13151 4.17644 2.86098 3.54512 1.71465L3.01955 2.0041ZM2.51248 2.15937H3.28234V1.55937H2.51248V2.15937ZM2.30789 2.28906C2.30789 2.27088 2.31589 2.24312 2.35035 2.21378C2.38538 2.18395 2.44188 2.15937 2.51248 2.15937V1.55937C2.11558 1.55937 1.70789 1.84305 1.70789 2.28906H2.30789ZM2.30789 10.4225V2.28906H1.70789V10.4225H2.30789ZM2.73138 10.4949L2.15826 10.1629L1.85752 10.6821L2.43064 11.0141L2.73138 10.4949ZM7.6516 15.8505C6.69488 13.6531 4.98966 11.8031 2.73138 10.4949L2.43063 11.0141C4.58944 12.2646 6.20091 14.0216 7.10148 16.09L7.6516 15.8505ZM14.5664 21.6463C11.3406 20.672 8.82808 18.5523 7.6516 15.8505L7.10149 16.09C8.35794 18.9755 11.0232 21.2029 14.3929 22.2207L14.5664 21.6463ZM15.2516 21.8533L14.5664 21.6463L14.3929 22.2207L15.0781 22.4277L15.2516 21.8533ZM21.485 21.8405H15.1649V22.4405H21.485V21.8405ZM21.6896 21.7107C21.6896 21.729 21.6816 21.7567 21.6471 21.7861C21.6121 21.8159 21.5556 21.8405 21.485 21.8405V22.4405C21.8819 22.4405 22.2895 22.1568 22.2896 21.7109L21.6896 21.7107ZM21.6896 17.5507V21.7108H22.2896V17.5507H21.6896ZM21.5563 18.297C21.7737 18.133 21.9852 17.9581 22.1902 17.7738L21.789 17.3276C21.5962 17.501 21.398 17.6649 21.195 17.818L21.5563 18.297ZM21.0413 18.4656C21.2183 18.4656 21.4028 18.4128 21.5564 18.297L21.195 17.818C21.1565 17.8471 21.1022 17.8656 21.0413 17.8656V18.4656ZM20.4555 18.2371C20.6184 18.3937 20.8351 18.4656 21.0413 18.4656V17.8656C20.9687 17.8656 20.9079 17.8397 20.8713 17.8045L20.4555 18.2371ZM20.5258 17.1748C20.1754 17.4391 20.1326 17.9267 20.4555 18.2371L20.8713 17.8045C20.84 17.7745 20.8355 17.748 20.8366 17.7312C20.8379 17.7138 20.8472 17.6839 20.8871 17.6538L20.5258 17.1748ZM21.7642 16.0188C21.3819 16.454 20.9659 16.8428 20.5258 17.1748L20.8872 17.6538C21.3617 17.2958 21.8074 16.8788 22.215 16.4148L21.7642 16.0188ZM21.6896 12.0746V16.2168H22.2896V12.0746H21.6896ZM20.3344 12.7476C20.9656 12.7476 21.5745 12.6082 22.1201 12.3447L21.8591 11.8044C21.3966 12.0278 20.877 12.1476 20.3344 12.1476V12.7476ZM17.5986 11.6976C18.3303 12.3769 19.3034 12.7476 20.3344 12.7476V12.1476C19.4476 12.1476 18.6224 11.8294 18.0069 11.2579L17.5986 11.6976ZM17.5986 6.66644C16.1074 8.05099 16.1074 10.3131 17.5986 11.6976L18.0069 11.2579C16.7714 10.1107 16.7714 8.2533 18.0069 7.10614L17.5986 6.66644ZM20.3344 5.61644C19.3034 5.61644 18.3303 5.98711 17.5986 6.66643L18.0069 7.10614C18.6224 6.53465 19.4476 6.21644 20.3344 6.21644V5.61644ZM21.6896 7.35319V11.011H22.2896V7.35319H21.6896ZM20.3343 7.07586C20.8799 7.0759 21.394 7.25753 21.801 7.5865L22.1781 7.11987C21.662 6.70265 21.0141 6.47591 20.3344 6.47586L20.3343 7.07586ZM18.7506 7.68707C19.1737 7.29426 19.7351 7.07586 20.3344 7.07586V6.47586C19.5882 6.47586 18.8796 6.74851 18.3424 7.24738L18.7506 7.68707ZM18.7506 10.6771C17.86 9.85027 17.86 8.514 18.7506 7.68707L18.3424 7.24738C17.1961 8.31168 17.1961 10.0526 18.3424 11.1168L18.7506 10.6771ZM20.3344 11.2884C19.7351 11.2884 19.1737 11.07 18.7506 10.6771L18.3424 11.1168C18.8796 11.6157 19.5882 11.8884 20.3344 11.8884V11.2884ZM21.801 10.7777C21.394 11.1067 20.8799 11.2884 20.3344 11.2884V11.8884C21.0141 11.8884 21.662 11.6616 22.1781 11.2443L21.801 10.7777ZM15.618 3.22394C15.6851 3.19949 15.7596 3.23413 15.7842 3.30148L16.3479 3.09614C16.2101 2.71756 15.7912 2.52223 15.4126 2.6602L15.618 3.22394ZM13.4237 4.77385C14.0387 4.05684 14.7986 3.52236 15.6179 3.22396L15.4126 2.66018C14.4896 2.99634 13.6455 3.59366 12.9682 4.38322L13.4237 4.77385ZM13.4377 4.95671C13.3833 4.91004 13.3771 4.82819 13.4237 4.77386L12.9683 4.38321C12.7058 4.68913 12.7412 5.1498 13.0471 5.41216L13.4377 4.95671ZM13.5219 4.98795C13.4918 4.98795 13.4623 4.97782 13.4377 4.95674L13.0471 5.41213C13.1846 5.5301 13.354 5.58795 13.5219 5.58795V4.98795ZM13.6206 4.94267C13.595 4.97252 13.5592 4.98795 13.5219 4.98795V5.58795C13.7268 5.58795 13.9316 5.50163 14.076 5.33331L13.6206 4.94267ZM15.7067 3.46769C14.9215 3.75358 14.2014 4.26545 13.6206 4.94268L14.076 5.33329C14.5955 4.72756 15.2317 4.27917 15.912 4.03148L15.7067 3.46769ZM15.7842 3.30143C15.8087 3.36872 15.774 3.44318 15.7066 3.4677L15.912 4.03147C16.2906 3.89356 16.4858 3.47482 16.348 3.09618L15.7842 3.30143ZM3.06116 14.8225C3.09527 14.8225 3.1296 14.8369 3.15271 14.86L3.57709 14.4359C3.44045 14.2991 3.25306 14.2225 3.06116 14.2225V14.8225ZM2.9695 14.8601C2.9927 14.8369 3.02706 14.8225 3.06116 14.8225V14.2225C2.86924 14.2225 2.68188 14.2991 2.54524 14.4358L2.9695 14.8601ZM2.93147 14.9521C2.93147 14.9187 2.94557 14.8841 2.97007 14.8595L2.54467 14.4364C2.40932 14.5724 2.33147 14.7587 2.33147 14.9521H2.93147ZM2.97001 15.0443C2.94546 15.0197 2.93147 14.9851 2.93147 14.9521H2.33147C2.33147 15.1452 2.40934 15.3315 2.54473 15.4676L2.97001 15.0443ZM3.06116 15.0818C3.0279 15.0818 2.99327 15.0676 2.96944 15.0437L2.54529 15.4681C2.6814 15.6042 2.86849 15.6818 3.06116 15.6818V15.0818ZM3.15271 15.0439C3.12905 15.0675 3.09451 15.0818 3.06116 15.0818V15.6818C3.25382 15.6818 3.44099 15.6042 3.57709 15.468L3.15271 15.0439ZM3.19084 14.9521C3.19084 14.9849 3.17686 15.0196 3.1522 15.0444L3.5776 15.4675C3.71279 15.3316 3.79084 15.1454 3.79084 14.9521H3.19084ZM3.15226 14.8595C3.17675 14.8842 3.19084 14.9187 3.19084 14.9521H3.79084C3.79084 14.7587 3.71299 14.5724 3.57755 14.4363L3.15226 14.8595ZM17.4905 15.1586C17.564 15.1545 17.6239 15.209 17.628 15.2806L18.227 15.2463C18.204 14.8441 17.861 14.5371 17.4573 14.5595L17.4905 15.1586ZM17.4829 15.159L17.4906 15.1586L17.4572 14.5595L17.4495 14.56L17.4829 15.159ZM17.3614 15.2959C17.3573 15.2244 17.4119 15.1631 17.4834 15.159L17.449 14.56C17.0467 14.5831 16.7392 14.9279 16.7624 15.3303L17.3614 15.2959ZM17.4905 15.4182C17.4225 15.4182 17.3653 15.3648 17.3614 15.2959L16.7624 15.3303C16.7846 15.7185 17.1063 16.0182 17.4905 16.0182V15.4182ZM17.4986 15.4179C17.4953 15.4181 17.4926 15.4182 17.4905 15.4182V16.0182C17.5049 16.0182 17.519 16.0177 17.5324 16.017L17.4986 15.4179ZM17.5064 15.4175L17.4987 15.4179L17.5322 16.017L17.5399 16.0166L17.5064 15.4175ZM17.628 15.2807C17.6321 15.3522 17.5775 15.4134 17.506 15.4175L17.5403 16.0165C17.9427 15.9935 18.2501 15.6486 18.227 15.2462L17.628 15.2807ZM16.1453 14.4104C15.3726 14.1829 14.6552 13.7087 14.0742 13.0312L13.6187 13.4218C14.2683 14.1792 15.0822 14.7228 15.9759 14.986L16.1453 14.4104ZM16.6393 15.3165C16.753 14.9299 16.532 14.5242 16.1453 14.4104L15.9759 14.986C16.0445 15.0062 16.0839 15.0783 16.0637 15.1471L16.6393 15.3165ZM15.9394 15.8402C16.2545 15.8402 16.5456 15.6348 16.6392 15.3165L16.0637 15.1471C16.0472 15.2031 15.9957 15.2402 15.9394 15.2402V15.8402ZM15.733 15.8104C15.8015 15.8305 15.8709 15.8402 15.9394 15.8402V15.2402C15.9276 15.2402 15.9153 15.2386 15.9027 15.2349L15.733 15.8104ZM12.9664 13.9813C13.7249 14.8656 14.6806 15.5004 15.7331 15.8104L15.9026 15.2348C14.9695 14.96 14.1107 14.3938 13.4218 13.5906L12.9664 13.9813ZM11.6792 6.64229C10.8031 9.16127 11.3015 12.0399 12.9664 13.9812L13.4219 13.5907C11.9043 11.8211 11.4357 9.169 12.2459 6.83938L11.6792 6.64229ZM12.608 6.19271C12.2271 6.06044 11.8116 6.26165 11.6792 6.64231L12.2459 6.83936C12.2694 6.77169 12.3431 6.73588 12.4111 6.75951L12.608 6.19271ZM13.0576 7.12159C13.1899 6.74107 12.9888 6.32515 12.6081 6.19275L12.411 6.75946C12.4786 6.78296 12.5144 6.85687 12.4909 6.9246L13.0576 7.12159ZM14.0742 13.0311C12.7525 11.4902 12.3457 9.16866 13.0576 7.12164L12.4909 6.92455C11.7137 9.1592 12.1486 11.7076 13.6187 13.4218L14.0742 13.0311Z" fill="#535257" mask="url(#path-1-outside-1)"/>
</svg>
