<svg width="20" height="15" fill="none" xmlns="http://www.w3.org/2000/svg">
    <path d="M20 10h-1.818v1.667H20V10zm0 3.333h-1.818V15H20v-1.667zm0-6.666h-1.818v1.666H20V6.667zM12.727 0H10.91v1.667h1.818V0zM20 3.333h-1.818V5H20V3.333zM0 15h9.09v-5H0v5zM1.818 3.333H0V5h1.818V3.333zm10.91 10h-1.819V15h1.818v-1.667zM16.363 0h-1.819v1.667h1.819V0zM20 0h-1.818v1.667H20V0zm-3.636 13.333h-1.819V15h1.819v-1.667zM1.818 6.667H0v1.666h1.818V6.667zM9.091 0H7.273v1.667H9.09V0zM5.455 0H3.636v1.667h1.819V0zM1.818 0H0v1.667h1.818V0z" fill="#C4C4C4"/>
</svg>
