<svg width="22" height="22" viewBox="0 0 22 22" fill="none" xmlns="http://www.w3.org/2000/svg">
<path fill-rule="evenodd" clip-rule="evenodd" d="M11 7.61684e-06C12.4448 -0.00169499 13.8757 0.282059 15.2105 0.834976C16.5453 1.38788 17.7577 2.19904 18.7781 3.22187C19.8009 4.24228 20.6121 5.45471 21.165 6.78953C21.7179 8.12433 22.0017 9.55522 22 11C22.0017 12.4448 21.718 13.8757 21.165 15.2105C20.6121 16.5453 19.801 17.7577 18.7781 18.7781C17.7577 19.801 16.5453 20.6121 15.2105 21.165C13.8757 21.718 12.4448 22.0017 11 22C9.55521 22.0017 8.12433 21.7179 6.78953 21.165C5.45473 20.6121 4.24231 19.8009 3.22191 18.7781C2.19907 17.7577 1.38789 16.5453 0.834976 15.2105C0.282057 13.8757 -0.00169658 12.4448 7.6312e-06 11C-0.00166333 9.55521 0.282103 8.12433 0.835014 6.78953C1.38793 5.45473 2.19908 4.24231 3.2219 3.2219C4.24231 2.19908 5.45473 1.38793 6.78953 0.835014C8.12433 0.282102 9.55522 -0.00166495 11 7.61684e-06ZM11 21L11.0013 20C12.183 20.0015 13.3534 19.7695 14.4451 19.3173C15.5369 18.8651 16.5285 18.2015 17.363 17.3648L17.3648 17.363C18.2015 16.5285 18.8651 15.5369 19.3173 14.4451C19.7695 13.3534 20.0015 12.183 20 11.0013V10.9987C20.0015 9.81703 19.7695 8.64667 19.3173 7.55492C18.865 6.46316 18.2015 5.47154 17.3648 4.63703L17.363 4.63518C16.5285 3.79849 15.5369 3.13496 14.4451 2.68273C13.3534 2.23049 12.183 1.99848 11.0013 2.00001H10.9987C9.81703 1.9985 8.64667 2.23053 7.55492 2.68276C6.46316 3.135 5.47154 3.79852 4.63703 4.6352L4.6352 4.63703C3.79852 5.47154 3.135 6.46316 2.68276 7.55492C2.23053 8.64667 1.9985 9.81703 2.00001 10.9987V11.0013C1.99848 12.183 2.23049 13.3534 2.68273 14.4451C3.13496 15.5369 3.79849 16.5285 4.63518 17.363L4.63703 17.3648C5.47154 18.2015 6.46316 18.865 7.55492 19.3173C8.64667 19.7695 9.81703 20.0015 10.9987 20L11 21Z" fill="#5CC773"/>
<path fill-rule="evenodd" clip-rule="evenodd" d="M11 17.5C11.3315 17.5 11.6495 17.3683 11.8839 17.1339C12.1183 16.8995 12.25 16.5815 12.25 16.25C12.25 15.9185 12.1183 15.6005 11.8839 15.3661C11.6495 15.1317 11.3315 15 11 15C10.6685 15 10.3505 15.1317 10.1161 15.3661C9.8817 15.6005 9.75 15.9185 9.75 16.25C9.75 16.5815 9.8817 16.8995 10.1161 17.1339C10.3505 17.3683 10.6685 17.5 11 17.5Z" fill="#5CC773"/>
<path fill-rule="evenodd" clip-rule="evenodd" d="M11 4C11.5523 4 12 4.44772 12 5V13C12 13.5523 11.5523 14 11 14C10.4477 14 10 13.5523 10 13V5C10 4.44772 10.4477 4 11 4Z" fill="#5CC773"/>
</svg>
