<svg width="22" height="22" fill="none" xmlns="http://www.w3.org/2000/svg">
    <path fill-rule="evenodd" clip-rule="evenodd" d="M11 0a10.968 10.968 0 0 1 7.778 3.222A10.97 10.97 0 0 1 22 11a10.967 10.967 0 0 1-3.222 7.778A10.967 10.967 0 0 1 11 22a10.969 10.969 0 0 1-7.778-3.222A10.969 10.969 0 0 1 0 11a10.969 10.969 0 0 1 3.222-7.778A10.97 10.97 0 0 1 11 0zm0 21 .001-1a8.97 8.97 0 0 0 6.362-2.635l.002-.002A8.968 8.968 0 0 0 20 11.001V11a8.97 8.97 0 0 0-2.635-6.362l-.002-.002A8.968 8.968 0 0 0 11.001 2H11a8.969 8.969 0 0 0-6.362 2.635l-.002.002A8.97 8.97 0 0 0 2 10.999V11a8.968 8.968 0 0 0 2.635 6.362l.002.002A8.97 8.97 0 0 0 10.999 20L11 21z" fill="#5CC773"/>
    <path fill-rule="evenodd" clip-rule="evenodd" d="M11 17.5a1.25 1.25 0 1 0 0-2.5 1.25 1.25 0 0 0 0 2.5zM11 4a1 1 0 0 1 1 1v8a1 1 0 1 1-2 0V5a1 1 0 0 1 1-1z" fill="#5CC773"/>
</svg>
