<svg width="41" height="40" fill="none" xmlns="http://www.w3.org/2000/svg">
    <path d="m33 5.833-2.5-2.5-2.5 2.5-2.5-2.5-2.5 2.5-2.5-2.5-2.5 2.5-2.5-2.5-2.5 2.5-2.5-2.5v23.334h-5v5c0 2.766 2.233 5 5 5h20c2.767 0 5-2.234 5-5V3.333l-2.5 2.5zm-7.5 27.5h-15c-.917 0-1.667-.75-1.667-1.666V30H25.5v3.333zm6.667-1.666c0 .916-.75 1.666-1.667 1.666s-1.667-.75-1.667-1.666v-5h-15V8.333h18.334v23.334z" fill="#5CC773"/>
    <path d="M15.5 11.667h10V15h-10v-3.333zm11.667 0H30.5V15h-3.333v-3.333zm-11.667 5h10V20h-10v-3.333zm11.667 0H30.5V20h-3.333v-3.333z" fill="#5CC773"/>
</svg>
