<svg width="23" height="22" viewBox="0 0 23 22" fill="none" xmlns="http://www.w3.org/2000/svg">
<path d="M20.2487 5.1H19.8487V5.5V8.25V8.65H20.2487H22.3112C22.3874 8.65 22.4605 8.68029 22.5145 8.73421C22.5684 8.78812 22.5987 8.86125 22.5987 8.9375V13.0625C22.5987 13.1388 22.5684 13.2119 22.5145 13.2658C22.4605 13.3197 22.3874 13.35 22.3112 13.35H20.2487H19.8487V13.75V16.5V16.9H20.2487H22.3112C22.3874 16.9 22.4605 16.9303 22.5145 16.9842C22.5684 17.0381 22.5987 17.1112 22.5987 17.1875V21.3125C22.5987 21.3888 22.5684 21.4619 22.5145 21.5158C22.4605 21.5697 22.3874 21.6 22.3112 21.6H1.68616C1.60991 21.6 1.53678 21.5697 1.48286 21.5158C1.42895 21.4619 1.39866 21.3888 1.39866 21.3125V17.1875C1.39866 17.1112 1.42895 17.0381 1.48286 16.9842C1.53678 16.9303 1.60991 16.9 1.68616 16.9H3.74866H4.14866V16.5V13.75V13.35H3.74866H1.68616C1.60991 13.35 1.53678 13.3197 1.48286 13.2658C1.42895 13.2119 1.39866 13.1388 1.39866 13.0625V8.9375C1.39866 8.86125 1.42895 8.78812 1.48286 8.73421C1.53678 8.68029 1.60991 8.65 1.68616 8.65H3.74866H4.14866V8.25V5.5V5.1H3.74866H1.68616C1.60991 5.1 1.53678 5.06971 1.48286 5.01579C1.42895 4.96188 1.39866 4.88875 1.39866 4.8125V0.6875C1.39866 0.61125 1.42895 0.538124 1.48286 0.484207C1.53678 0.43029 1.60991 0.4 1.68616 0.4H22.3112C22.3874 0.4 22.4605 0.430291 22.5145 0.484207C22.5684 0.538122 22.5987 0.611248 22.5987 0.6875V4.8125C22.5987 4.88875 22.5684 4.96188 22.5145 5.01579C22.4605 5.06971 22.3874 5.1 22.3112 5.1H20.2487ZM5.12366 5.1H4.72366V5.5V8.25V8.65H5.12366H11.3112H11.7112V8.25V5.5V5.1H11.3112H5.12366ZM12.6862 5.1H12.2862V5.5V8.25V8.65H12.6862H18.8737H19.2737V8.25V5.5V5.1H18.8737H12.6862ZM5.12366 13.35H4.72366V13.75V16.5V16.9H5.12366H11.3112H11.7112V16.5V13.75V13.35H11.3112H5.12366ZM12.6862 13.35H12.2862V13.75V16.5V16.9H12.6862H18.8737H19.2737V16.5V13.75V13.35H18.8737H12.6862ZM2.37366 0.975H1.97366V1.375V4.125V4.525H2.37366H7.18616H7.58616V4.125V1.375V0.975H7.18616H2.37366ZM8.56116 0.975H8.16116V1.375V4.125V4.525H8.56116H15.4362H15.8362V4.125V1.375V0.975H15.4362H8.56116ZM16.8112 0.975H16.4112V1.375V4.125V4.525H16.8112H21.6237H22.0237V4.125V1.375V0.975H21.6237H16.8112ZM2.37366 9.225H1.97366V9.625V12.375V12.775H2.37366H7.18616H7.58616V12.375V9.625V9.225H7.18616H2.37366ZM8.56116 9.225H8.16116V9.625V12.375V12.775H8.56116H15.4362H15.8362V12.375V9.625V9.225H15.4362H8.56116ZM16.8112 9.225H16.4112V9.625V12.375V12.775H16.8112H21.6237H22.0237V12.375V9.625V9.225H21.6237H16.8112ZM2.37366 17.475H1.97366V17.875V20.625V21.025H2.37366H7.18616H7.58616V20.625V17.875V17.475H7.18616H2.37366ZM8.56116 17.475H8.16116V17.875V20.625V21.025H8.56116H15.4362H15.8362V20.625V17.875V17.475H15.4362H8.56116ZM16.8112 17.475H16.4112V17.875V20.625V21.025H16.8112H21.6237H22.0237V20.625V17.875V17.475H21.6237H16.8112Z" fill="#535257" stroke="#535257" stroke-width="0.8"/>
</svg>
