<svg width="23" height="22" fill="none" xmlns="http://www.w3.org/2000/svg">
    <path d="M20.249 5.1h-.4v3.55H22.31a.288.288 0 0 1 .288.287v4.126a.287.287 0 0 1-.288.287H19.85v3.55H22.31a.288.288 0 0 1 .288.288v4.125a.287.287 0 0 1-.288.287H1.686a.288.288 0 0 1-.287-.288v-4.125a.287.287 0 0 1 .287-.287H4.15v-3.55H1.686a.288.288 0 0 1-.287-.287V8.936a.288.288 0 0 1 .287-.287H4.15V5.1H1.686a.288.288 0 0 1-.287-.287V.688A.288.288 0 0 1 1.686.4h20.625a.288.288 0 0 1 .288.287v4.125a.288.288 0 0 1-.288.288H20.25zm-15.125 0h-.4v3.55H11.71V5.1H5.124zm7.562 0h-.4v3.55h6.988V5.1h-6.588zm-7.562 8.25h-.4v3.55H11.71v-3.55H5.124zm7.562 0h-.4v3.55h6.988v-3.55h-6.588zM2.374.975h-.4v3.55H7.586V.975H2.374zm6.187 0h-.4v3.55H15.836V.975H8.561zm8.25 0h-.4v3.55h5.613V.975H16.81zM2.374 9.225h-.4v3.55H7.586v-3.55H2.374zm6.187 0h-.4v3.55H15.836v-3.55H8.561zm8.25 0h-.4v3.55h5.613v-3.55H16.81zm-14.437 8.25h-.4v3.55H7.586v-3.55H2.374zm6.187 0h-.4v3.55H15.836v-3.55H8.561zm8.25 0h-.4v3.55h5.613v-3.55H16.81z" fill="#535257" stroke="#535257" stroke-width=".8"/>
</svg>
