<?xml version="1.0" encoding="utf-8"?>
<!-- Generator: Adobe Illustrator 21.1.0, SVG Export Plug-In . SVG Version: 6.00 Build 0)  -->
<svg version="1.1" id="Слой_1" xmlns="http://www.w3.org/2000/svg" xmlns:xlink="http://www.w3.org/1999/xlink" x="0px" y="0px"
	 viewBox="0 0 33 31.3" style="enable-background:new 0 0 33 31.3;" xml:space="preserve">
<style type="text/css">
	.st0{fill:none;}
	.st1{fill:#5CC773;}
</style>
<g>
	<rect x="19.7" y="18" class="st0" width="3.7" height="10.3"/>
	<polygon class="st0" points="16.7,21.3 11.5,21.3 11.5,21.3 11.5,21.3 9.7,21.3 9.7,28.3 16.7,28.3 	"/>
	<path class="st0" d="M16.7,16.5C16.7,16.5,16.7,16.5,16.7,16.5C16.7,16.5,16.7,16.5,16.7,16.5v-1.7c0,0,0-0.1,0-0.1
		c0,0-0.1,0-0.1,0h-3.3c0,0-0.1,0-0.1,0c0,0,0,0.1,0,0.1v3.5h3.7V16.5z"/>
	<path class="st1" d="M32.1,6.8l-15-6.7c-0.4-0.2-0.8-0.2-1.2,0l-15,6.7C0.3,7,0,7.6,0,8.2v21.7c0,0.8,0.7,1.5,1.5,1.5
		S3,30.7,3,29.8V9.1l13.5-6l13.5,6v20.7c0,0.8,0.7,1.5,1.5,1.5s1.5-0.7,1.5-1.5V8.2C33,7.6,32.7,7,32.1,6.8z"/>
	<path class="st1" d="M24.8,15h-5.2v-0.2c0-0.8-0.3-1.6-0.9-2.2c-0.6-0.6-1.4-0.9-2.2-0.9h-3.3c-0.8,0-1.6,0.3-2.2,0.9
		S10,14,10,14.8v3.5H8.2c-0.8,0-1.5,0.7-1.5,1.5v10c0,0.8,0.7,1.5,1.5,1.5h10c0,0,0,0,0,0s0,0,0,0h6.7c0.8,0,1.5-0.7,1.5-1.5V16.5
		C26.3,15.7,25.7,15,24.8,15z M13,14.8c0,0,0-0.1,0-0.1c0,0,0.1,0,0.1,0h3.3c0,0,0.1,0,0.1,0c0,0,0,0.1,0,0.1v1.7c0,0,0,0,0,0
		s0,0,0,0v1.8H13V14.8z M9.7,21.3h1.8c0,0,0,0,0,0s0,0,0,0h5.2v7h-7V21.3z M23.3,28.3h-3.7V18h3.7V28.3z"/>
</g>
</svg>
