<svg version="1.1" id="Слой_1" xmlns="http://www.w3.org/2000/svg" x="0" y="0" viewBox="0 0 33 31.3" style="enable-background:new 0 0 33 31.3" xml:space="preserve">
    <style>
        .st0{fill:none}.st1{fill:#5cc773}
    </style>
    <path class="st0" d="M19.7 18h3.7v10.3h-3.7zM16.7 21.3h-7v7h7zM16.7 16.5v-1.8h-3.5v3.6h3.7v-1.8z"/>
    <path class="st1" d="M32.1 6.8 17.1.1c-.4-.2-.8-.2-1.2 0L.9 6.8C.3 7 0 7.6 0 8.2v21.7c0 .8.7 1.5 1.5 1.5S3 30.7 3 29.8V9.1l13.5-6 13.5 6v20.7c0 .8.7 1.5 1.5 1.5s1.5-.7 1.5-1.5V8.2c0-.6-.3-1.2-.9-1.4z"/>
    <path class="st1" d="M24.8 15h-5.2v-.2c0-.8-.3-1.6-.9-2.2-.6-.6-1.4-.9-2.2-.9h-3.3c-.8 0-1.6.3-2.2.9s-1 1.4-1 2.2v3.5H8.2c-.8 0-1.5.7-1.5 1.5v10c0 .8.7 1.5 1.5 1.5h16.7c.8 0 1.5-.7 1.5-1.5V16.5c-.1-.8-.7-1.5-1.6-1.5zM13 14.8v-.1h3.5v3.6H13v-3.5zm-3.3 6.5h7v7h-7v-7zm13.6 7h-3.7V18h3.7v10.3z"/>
</svg>
