<svg width="105" height="123" fill="none" xmlns="http://www.w3.org/2000/svg">
    <path fill-rule="evenodd" clip-rule="evenodd" d="M2.737 3.004C4.523 1.112 7 0 9.637 0h85.725c2.638 0 5.115 1.112 6.901 3.004C104.041 4.887 105 7.392 105 9.955v102.15c0 2.564-.959 5.068-2.737 6.951-1.786 1.892-4.263 3.004-6.9 3.004H9.637c-2.638 0-5.115-1.112-6.9-3.004C.958 117.173 0 114.669 0 112.105V9.955c0-2.563.96-5.068 2.737-6.951zm6.9 5.556c-.203 0-.452.084-.676.32a1.573 1.573 0 0 0-.4 1.075v102.15c0 .447.169.83.4 1.075.224.237.473.32.677.32h85.724c.204 0 .453-.083.677-.32.231-.245.4-.628.4-1.075V9.955c0-.447-.169-.83-.4-1.075-.224-.236-.473-.32-.677-.32H9.638z" fill="#F3F3F3"/>
    <path fill-rule="evenodd" clip-rule="evenodd" d="M18.753 21.305a4.28 4.28 0 0 1 4.28-4.28h58.936a4.28 4.28 0 0 1 4.28 4.28v25.538a4.28 4.28 0 0 1-4.28 4.28H23.033a4.28 4.28 0 0 1-4.28-4.28V21.305zm8.56 4.28v16.978h50.375V25.585H27.313zM17.417 69.269a4.28 4.28 0 0 1 6.05.173L42.22 89.305a4.28 4.28 0 0 1-6.225 5.876L17.243 75.32a4.28 4.28 0 0 1 .174-6.05z" fill="#F3F3F3"/>
    <path fill-rule="evenodd" clip-rule="evenodd" d="M42.046 69.269a4.28 4.28 0 0 1 .174 6.05L23.468 95.18a4.28 4.28 0 0 1-6.225-5.876l18.752-19.863a4.28 4.28 0 0 1 6.05-.173zM58.934 92.243a4.28 4.28 0 0 1 4.28-4.28h21.431a4.28 4.28 0 0 1 0 8.56h-21.43a4.28 4.28 0 0 1-4.28-4.28zM58.934 75.217a4.28 4.28 0 0 1 4.28-4.28h21.431a4.28 4.28 0 1 1 0 8.56h-21.43a4.28 4.28 0 0 1-4.28-4.28z" fill="#F3F3F3"/>
</svg>
