<svg width="24" height="24" fill="none" xmlns="http://www.w3.org/2000/svg">
    <path d="M19.511 2H4.49a.913.913 0 0 0-.664.291c-.176.187-.275.44-.275.703v17.9c0 .264.099.517.275.704a.913.913 0 0 0 .664.29H19.51a.913.913 0 0 0 .664-.29c.176-.187.275-.44.275-.704v-17.9c0-.263-.099-.516-.275-.703A.913.913 0 0 0 19.511 2z" stroke="#5CC773" stroke-width="1.5" stroke-linejoin="round"/>
    <path d="M17.163 4.983H6.836v4.475h10.327V4.983z" stroke="#5CC773" stroke-width="1.5" stroke-linejoin="round"/>
    <path d="m6.367 13.934 3.286 3.48M9.653 13.934l-3.286 3.48M13.877 17.414h3.755M13.877 14.43h3.755" stroke="#5CC773" stroke-width="1.5" stroke-linecap="round" stroke-linejoin="round"/>
</svg>
