<svg width="24" height="24" fill="none" xmlns="http://www.w3.org/2000/svg">
    <path d="M2.926 3C2.416 3 2 3.405 2 3.9s.417.9.926.9h2.056l2.431 9.45c.206.801.945 1.35 1.795 1.35h10.624c.835 0 1.545-.538 1.765-1.322L24 5.7H8.484l.463 1.8h12.65l-1.765 6.3H9.208L6.776 4.35a1.781 1.781 0 0 0-.656-.976A1.872 1.872 0 0 0 4.983 3H2.926zm15.748 12.6c-1.524 0-2.78 1.22-2.78 2.7 0 1.48 1.256 2.7 2.78 2.7 1.524 0 2.779-1.22 2.779-2.7 0-1.48-1.255-2.7-2.78-2.7zm-8.337 0c-1.524 0-2.78 1.22-2.78 2.7 0 1.48 1.256 2.7 2.78 2.7 1.524 0 2.779-1.22 2.779-2.7 0-1.48-1.255-2.7-2.78-2.7zm0 1.8c.521 0 .926.394.926.9 0 .507-.406.9-.926.9-.522 0-.926-.394-.926-.9 0-.507.405-.9.926-.9zm8.337 0c.521 0 .926.394.926.9 0 .507-.406.9-.926.9-.522 0-.927-.394-.927-.9 0-.507.406-.9.927-.9z" fill="#535257"/>
</svg>
