<svg width="126" height="146" fill="none" xmlns="http://www.w3.org/2000/svg">
    <path opacity=".2" d="M5.305 24.099C2.387 24.099 0 26.44 0 29.304s2.387 5.206 5.305 5.206h11.773l13.926 54.66c1.178 4.633 5.411 7.809 10.276 7.809h60.846c4.786 0 8.849-3.113 10.112-7.647L126 39.716H37.137l2.652 10.411h72.449l-10.112 36.44H41.28l-13.926-54.66a10.309 10.309 0 0 0-3.76-5.646 10.652 10.652 0 0 0-6.511-2.162H5.305zm90.19 72.88c-8.727 0-15.916 7.054-15.916 15.617s7.189 15.617 15.916 15.617 15.916-7.054 15.916-15.617-7.189-15.617-15.916-15.617zm-47.748 0c-8.727 0-15.915 7.054-15.915 15.617s7.188 15.617 15.915 15.617 15.916-7.054 15.916-15.617-7.188-15.617-15.916-15.617zm0 10.411c2.987 0 5.306 2.28 5.306 5.206 0 2.931-2.324 5.206-5.306 5.206-2.986 0-5.305-2.28-5.305-5.206 0-2.931 2.324-5.206 5.305-5.206zm47.748 0c2.987 0 5.305 2.28 5.305 5.206 0 2.931-2.324 5.206-5.305 5.206-2.987 0-5.306-2.28-5.306-5.206 0-2.931 2.324-5.206 5.306-5.206z" fill="#C4C4C4"/>
</svg>
