<svg width="24" height="24" fill="none" xmlns="http://www.w3.org/2000/svg">
    <g clip-path="url(#a)">
        <path d="M19.68 6.33a.585.585 0 0 0-.526-.33H18a.975.975 0 0 0-.795.39l-6.975 8.73-3.12-3.96a1.066 1.066 0 0 0-.345-.285 1.096 1.096 0 0 0-.45-.09h-1.23a.57.57 0 0 0-.585.33.555.555 0 0 0 0 .615l4.95 6.105a1.035 1.035 0 0 0 .78.39 1.051 1.051 0 0 0 .81-.39L19.62 6.96a.6.6 0 0 0 .06-.63z" fill="#fff"/>
    </g>
    <defs>
        <clipPath id="a">
            <path fill="#fff" transform="translate(4.5 6)" d="M0 0h15.24v12.225H0z"/>
        </clipPath>
    </defs>
</svg>
