<svg width="40" height="29" viewBox="0 0 40 29" fill="none" xmlns="http://www.w3.org/2000/svg">
<path d="M38.5004 21.1742C38.5004 22.8054 38.0469 24.1491 37.2843 25.0572C36.5507 25.9308 35.4273 26.5298 33.768 26.5298H6.34564C4.68637 26.5298 3.56296 25.9308 2.82934 25.0572C2.06676 24.1491 1.61328 22.8054 1.61328 21.1742V7.46301C1.61328 5.83183 2.06676 4.48813 2.82934 3.58003C3.56296 2.70641 4.68637 2.10742 6.34564 2.10742H33.768C35.4273 2.10742 36.5507 2.70641 37.2843 3.58003C38.0469 4.48813 38.5004 5.83183 38.5004 7.46301V21.1742Z" stroke="#5CC773" stroke-width="3"/>
<path d="M27.4059 14.672C27.4059 18.5946 24.2249 21.7769 20.301 21.7769C16.3796 21.7769 13.1992 18.5953 13.1992 14.672C13.1992 10.7487 16.3796 7.56836 20.301 7.56836C24.2243 7.56836 27.4059 10.7487 27.4059 14.672Z" fill="#5CC773"/>
</svg>
