<?xml version="1.0" encoding="utf-8"?>
<!-- Generator: Adobe Illustrator 21.1.0, SVG Export Plug-In . SVG Version: 6.00 Build 0)  -->
<svg version="1.1" id="Слой_1" xmlns="http://www.w3.org/2000/svg" xmlns:xlink="http://www.w3.org/1999/xlink" x="0px" y="0px"
	 viewBox="0 0 39.9 27.4" style="enable-background:new 0 0 39.9 27.4;" xml:space="preserve">
<style type="text/css">
	.st0{fill:none;}
	.st1{fill:#5CC773;}
</style>
<g>
	<path class="st0" d="M33.7,3H6.2C5.2,3,4.4,3.3,3.9,3.9C3.3,4.6,3,5.6,3,6.9v13.7c0,1.2,0.3,2.3,0.9,2.9c0.5,0.6,1.3,0.9,2.4,0.9
		h27.4c1.1,0,1.8-0.3,2.4-0.9c0.6-0.7,0.9-1.7,0.9-2.9V6.9c0-1.2-0.3-2.3-0.9-2.9C35.5,3.3,34.7,3,33.7,3z M20.2,21.2
		c-3.9,0-7.1-3.2-7.1-7.1c0-3.9,3.2-7.1,7.1-7.1c3.9,0,7.1,3.2,7.1,7.1C27.3,18,24.1,21.2,20.2,21.2z"/>
	<path class="st1" d="M38.3,2c-0.8-0.9-2.2-2-4.7-2H6.2C3.8,0,2.3,1.1,1.6,2C0.5,3.2,0,4.9,0,6.9v13.7c0,2,0.5,3.6,1.6,4.8
		c0.8,0.9,2.2,2,4.7,2h27.4c2.5,0,3.9-1.1,4.7-2c1-1.2,1.6-2.9,1.6-4.8V6.9C39.9,4.9,39.3,3.2,38.3,2z M36.9,20.6
		c0,1.2-0.3,2.3-0.9,2.9c-0.5,0.6-1.3,0.9-2.4,0.9H6.2c-1.1,0-1.8-0.3-2.4-0.9C3.3,22.8,3,21.8,3,20.6V6.9c0-1.2,0.3-2.3,0.9-2.9
		C4.4,3.3,5.2,3,6.2,3h27.4c1.1,0,1.8,0.3,2.4,0.9c0.6,0.7,0.9,1.7,0.9,2.9V20.6z"/>
	<circle class="st1" cx="20.2" cy="14.1" r="7.1"/>
</g>
</svg>
