<svg version="1.1" id="Слой_1" xmlns="http://www.w3.org/2000/svg" x="0" y="0" viewBox="0 0 39.9 27.4" style="enable-background:new 0 0 39.9 27.4" xml:space="preserve">
    <style>
        .st1{fill:#5cc773}
    </style>
    <path d="M33.7 3H6.2c-1 0-1.8.3-2.3.9-.6.7-.9 1.7-.9 3v13.7c0 1.2.3 2.3.9 2.9.5.6 1.3.9 2.4.9h27.4c1.1 0 1.8-.3 2.4-.9.6-.7.9-1.7.9-2.9V6.9c0-1.2-.3-2.3-.9-2.9-.6-.7-1.4-1-2.4-1zM20.2 21.2c-3.9 0-7.1-3.2-7.1-7.1 0-3.9 3.2-7.1 7.1-7.1 3.9 0 7.1 3.2 7.1 7.1 0 3.9-3.2 7.1-7.1 7.1z" style="fill:none"/>
    <path class="st1" d="M38.3 2c-.8-.9-2.2-2-4.7-2H6.2C3.8 0 2.3 1.1 1.6 2 .5 3.2 0 4.9 0 6.9v13.7c0 2 .5 3.6 1.6 4.8.8.9 2.2 2 4.7 2h27.4c2.5 0 3.9-1.1 4.7-2 1-1.2 1.6-2.9 1.6-4.8V6.9c-.1-2-.7-3.7-1.7-4.9zm-1.4 18.6c0 1.2-.3 2.3-.9 2.9-.5.6-1.3.9-2.4.9H6.2c-1.1 0-1.8-.3-2.4-.9-.5-.7-.8-1.7-.8-2.9V6.9c0-1.2.3-2.3.9-2.9.5-.7 1.3-1 2.3-1h27.4c1.1 0 1.8.3 2.4.9.6.7.9 1.7.9 2.9v13.8z"/>
    <circle class="st1" cx="20.2" cy="14.1" r="7.1"/>
</svg>
