<svg width="46" height="46" fill="none" xmlns="http://www.w3.org/2000/svg">
    <path fill-rule="evenodd" clip-rule="evenodd" d="M44.44 14.213h-.703v.702a.702.702 0 1 1-1.406 0v-.702h-.703a.703.703 0 1 1 0-1.406h.703v-.703a.703.703 0 1 1 1.406 0v.703h.703a.703.703 0 1 1 0 1.405zm-2.812 13.706a1.055 1.055 0 1 1 2.11.002 1.055 1.055 0 0 1-2.11-.002zm0 10.896v.834c.596.21 1.063.684 1.277 1.276h.832a.702.702 0 1 1 0 1.406h-.832a2.118 2.118 0 0 1-1.277 1.277v.832a.702.702 0 1 1-1.406 0v-.834a2.114 2.114 0 0 1-1.276-1.276h-.832a.702.702 0 1 1 0-1.406h.832a2.112 2.112 0 0 1 1.276-1.277v-.832a.702.702 0 1 1 1.406 0zm-1.406 2.811a.702.702 0 1 0 1.406 0 .702.702 0 1 0-1.406 0zM34.6 39.517H11.402a3.515 3.515 0 0 1-3.515-3.514V9.995a3.515 3.515 0 0 1 3.515-3.515h23.197a3.514 3.514 0 0 1 3.515 3.515v26.008a3.514 3.514 0 0 1-3.515 3.514zm-7.732-31.63H18.43v4.92h8.435v-4.92zM9.292 31.784h2.812v-4.92H9.293v4.92zm0-12.652h2.812v-4.92H9.293v4.92zm0 1.406v4.92h7.732v-4.92H9.293zm9.138 17.573h8.435v-4.92h-8.435v4.92zm4.92-11.247v4.92h8.436v-4.92h-8.435zm3.515-1.406v-4.92h-8.435v4.92h8.435zm-4.92 6.326v-4.92H13.51v4.92h8.436zM13.51 19.133h8.436v-4.92H13.51v4.92zm9.842-4.92v4.92h8.435v-4.92h-8.435zm4.92 6.326v4.92h8.436v-4.92h-8.436zm8.436 6.326h-3.515v4.92h3.515v-4.92zm-3.515-7.732h3.515v-4.92h-3.515v4.92zm3.515 16.87V33.19h-8.436v4.92H34.6a2.11 2.11 0 0 0 2.109-2.108zm-25.306 2.109h5.623v-4.92H9.293v2.81c0 1.166.944 2.11 2.109 2.11zM9.292 9.995v2.812h7.733v-4.92h-5.623a2.109 2.109 0 0 0-2.11 2.108zM34.6 7.886h-6.327v4.92h8.436V9.996a2.11 2.11 0 0 0-2.11-2.109zm.351-4.217a1.054 1.054 0 1 1 0-2.108 1.054 1.054 0 0 1 0 2.108zM7.184 5.075h-.832a2.115 2.115 0 0 1-1.277 1.277v.831a.703.703 0 0 1-1.406 0v-.831a2.117 2.117 0 0 1-1.276-1.277H1.56a.703.703 0 0 1 0-1.406h.833a2.115 2.115 0 0 1 1.276-1.277V1.56a.703.703 0 0 1 1.406 0v.832A2.11 2.11 0 0 1 6.352 3.67h.832a.703.703 0 0 1 0 1.406zM4.372 3.669a.703.703 0 1 0 0 1.406.703.703 0 0 0 0-1.406zM2.615 33.894a1.055 1.055 0 1 1-.002 2.11 1.055 1.055 0 0 1 .002-2.11zm2.109-14.761a1.054 1.054 0 1 1 0 2.108 1.054 1.054 0 0 1 0-2.108zM15.97 41.626a1.055 1.055 0 1 1-.002 2.11 1.055 1.055 0 0 1 .002-2.11z" fill="#5CC773"/>
</svg>
