<svg width="40" height="40" fill="none" xmlns="http://www.w3.org/2000/svg">
    <path d="M16.25 5H5v11.262h2.5V7.5h8.75V5zM36.862 16.4l-11.25-6.25a1.25 1.25 0 0 0-1.25 0l-11.25 6.25a1.25 1.25 0 0 0-.612 1.1V30a1.25 1.25 0 0 0 .65 1.087l11.25 6.25c.183.104.39.16.6.163.214-.003.425-.06.613-.163l11.25-6.25A1.25 1.25 0 0 0 37.5 30V17.5a1.25 1.25 0 0 0-.638-1.1zM23.75 34.125 15 29.262v-9.65l8.75 4.863v9.65zM25 22.312 16.325 17.5 25 12.675l8.675 4.825L25 22.313zm10 6.95-8.75 4.863v-9.65L35 19.612v9.65z" fill="#5CC773"/>
</svg>
