<svg width="25" height="25" fill="none" xmlns="http://www.w3.org/2000/svg">
    <g clip-path="url(#a)" fill="#fff">
        <path d="m22.093 6.704-7.857-4.321a.786.786 0 0 0-.758 0L5.621 6.704a.786.786 0 0 0 0 1.377l7.45 4.098V20.6l-2.385-1.312-.758 1.376 3.55 1.953a.785.785 0 0 0 .758 0l7.857-4.322a.786.786 0 0 0 .407-.688V7.393a.785.785 0 0 0-.407-.689zM13.857 3.97l6.227 3.424-6.227 3.424L7.63 7.393l6.227-3.424zm7.071 13.174L14.643 20.6v-8.422l6.285-3.457v8.422z"/>
        <path d="M6.786 12.5H.5v-1.572h6.286V12.5zM9.357 18.785H3.072v-1.571h6.285v1.571zM10.928 15.643H4.643v-1.571h6.285v1.571z"/>
    </g>
    <defs>
        <clipPath id="a">
            <path fill="#fff" transform="translate(.5 .5)" d="M0 0h24v24H0z"/>
        </clipPath>
    </defs>
</svg>
