<svg width="139" height="140" fill="none" xmlns="http://www.w3.org/2000/svg">
    <path d="M17.375 70H69.5v8.688H17.375V70zM8.688 48.281h43.437v8.688H8.687V48.28z" fill="#F3F3F3"/>
    <path d="m129.961 72.632-13.032-30.406a4.339 4.339 0 0 0-3.991-2.632H99.906v-8.688a4.344 4.344 0 0 0-4.343-4.343h-69.5v8.687h65.156v54.54a17.343 17.343 0 0 0-8.07 10.616H55.851a17.375 17.375 0 1 0 0 8.688h27.296a17.288 17.288 0 0 0 33.517 0h9.304a4.34 4.34 0 0 0 3.071-1.273 4.34 4.34 0 0 0 1.273-3.071V74.344c0-.589-.12-1.171-.352-1.712zm-90.867 40.806a8.685 8.685 0 0 1-8.026-5.363 8.69 8.69 0 0 1 6.331-11.846 8.688 8.688 0 0 1 10.382 8.521 8.695 8.695 0 0 1-8.687 8.688zm60.812-65.157h10.165L119.384 70H99.906V48.281zm0 65.157a8.685 8.685 0 0 1-8.026-5.363 8.69 8.69 0 0 1 6.332-11.846 8.689 8.689 0 0 1 10.382 8.521 8.7 8.7 0 0 1-8.688 8.688zm21.719-13.032h-4.96a17.355 17.355 0 0 0-16.759-13.031v-8.688h21.719v21.719z" fill="#F3F3F3"/>
</svg>
