<svg width="21" height="26" fill="none" xmlns="http://www.w3.org/2000/svg">
    <path d="M10.578.5c-6.662 5.688-10 10.6-10 14.75 0 6.225 4.75 10.25 10 10.25s10-4.025 10-10.25c0-4.15-3.337-9.063-10-14.75zm0 22.5c-4.187 0-7.5-3.212-7.5-7.75 0-2.925 2.438-6.8 7.5-11.425 5.063 4.625 7.5 8.488 7.5 11.425 0 4.538-3.312 7.75-7.5 7.75zm-5.212-7.5c.462 0 .837.325.925.775.512 2.775 2.85 3.725 4.55 3.588a.94.94 0 0 1 .987.937c0 .5-.4.912-.9.938-2.662.162-5.775-1.363-6.487-5.15a.937.937 0 0 1 .925-1.088z" fill="#5CC773"/>
</svg>
