<svg width="46" height="43" fill="none" xmlns="http://www.w3.org/2000/svg">
    <path fill-rule="evenodd" clip-rule="evenodd" d="M45.143 20.264H43a.713.713 0 1 1 0-1.428h2.143a.714.714 0 1 1 0 1.428zm-.465-9.308-2.004.757a.708.708 0 0 1-.916-.429.735.735 0 0 1 .421-.932l2.007-.757a.716.716 0 0 1 .922.429.722.722 0 0 1-.422.932h-.008zm-4.344-7.59a.709.709 0 0 1-1.01-.045.737.737 0 0 1 .032-1.029L40.92.828a.706.706 0 0 1 1.008.043.73.73 0 0 1-.036 1.021l-1.564 1.465.006.009zm-.906 16.9c0 13.068-11.646 22.141-16.428 22.141S6.57 33.4 6.57 20.264V7.407c0-1.443 7.355-5 16.429-5 9.073 0 16.428 3.557 16.428 5v12.859zM38 8.123c0-1.333-6.625-4.286-15-4.286-8.376 0-15 2.953-15 4.286v12.143c0 12.106 10.585 20.713 15 20.713 4.414 0 15-8.665 15-20.715V8.122v.001zM23 38.836c-3.74 0-12.857-8.104-12.857-18.572V9.55C10.143 8.4 15.67 5.98 23 5.98c7.328 0 12.857 2.421 12.857 3.571v10.714c0 10.416-9.119 18.572-12.857 18.572zm11.428-28.572c0-.67-4.664-2.857-11.428-2.857-6.765 0-11.429 2.226-11.429 2.857v10c0 9.649 8.91 17.143 11.429 17.143 2.548 0 11.428-7.54 11.428-17.143v-10zM23 29.55c-3.945 0-6.429-2.483-6.429-6.428 0-3.943 4.149-6.749 2.857-11.429 6.93 0 10 7.486 10 11.429 0 3.945-2.484 6.428-6.428 6.428zm0-1.443c1.19 0 1.443-.958 1.443-2.141 0-2.24-.993-4.272-1.443-4.272-.536 2.234-1.443 3.089-1.443 4.272 0 1.183.252 2.141 1.443 2.141zm-1.905-14.985c0 5.603-3.095 6.982-3.095 10.089 0 2.121.876 3.614 2.424 4.362a4.756 4.756 0 0 1-.281-1.594c0-2.357 1.882-2.907 1.428-5.715 3.972 0 4.286 4.005 4.286 5.715 0 .54-.1 1.088-.282 1.594C27.123 26.825 28 25.33 28 23.211c0-6.124-5.454-10.089-6.905-10.089zM6.239 3.009 4.662 1.543A.724.724 0 0 1 4.628.522a.72.72 0 0 1 1.02-.047l1.577 1.466c.29.27.305.728.033 1.023a.714.714 0 0 1-1.015.043l-.004.002zM3.821 28.75l-2.006.756a.708.708 0 0 1-.915-.427.73.73 0 0 1 .42-.934l2.005-.757c.37-.14.779.052.916.429a.729.729 0 0 1-.42.932v.001zm-.536-16.914-2.009-.746a.715.715 0 0 1 .497-1.34l2.009.746a.715.715 0 0 1-.497 1.34zm-.285 7a.714.714 0 1 1 0 1.428H.857a.713.713 0 1 1 0-1.428H3zM6.38 36.45a.708.708 0 0 1 1.01.045.73.73 0 0 1-.032 1.023L5.8 38.984a.707.707 0 0 1-1.007-.045.73.73 0 0 1 .035-1.023l1.564-1.466H6.38zm33.38.357 1.578 1.465c.29.27.305.728.032 1.023a.725.725 0 0 1-1.021.046l-1.579-1.467a.724.724 0 0 1-.035-1.022.715.715 0 0 1 1.014-.045h.011zm2.954-9.543 2.01.748c.37.135.558.548.42.917a.71.71 0 0 1-.917.422l-2.01-.743a.71.71 0 0 1-.42-.914.718.718 0 0 1 .917-.422v-.008z" fill="#5CC773"/>
</svg>
