<svg width="23" height="28" fill="none" xmlns="http://www.w3.org/2000/svg">
    <path d="m7.163 9.493-.002.002-.004.002.006-.004zm12.443-.233a1.55 1.55 0 0 0-.288-.219 1.25 1.25 0 0 0-1.75.514 7.23 7.23 0 0 1-1.747 2.222A10.894 10.894 0 0 0 10.489.412 1.25 1.25 0 0 0 8.623 1.42a8.771 8.771 0 0 1-3.088 6.177l-.288.234a10.641 10.641 0 0 0-2.485 2.329 11.229 11.229 0 0 0 4.57 17.385 1.25 1.25 0 0 0 1.659-1.548 8.721 8.721 0 0 1-.238-3.226 11.255 11.255 0 0 0 5.392 5.02c.282.126.6.143.894.047A11.245 11.245 0 0 0 19.605 9.26zm-4.881 16.038a8.705 8.705 0 0 1-4.471-5.502 11.13 11.13 0 0 1-.226-1.205 1.25 1.25 0 0 0-2.32-.454A11.199 11.199 0 0 0 6.2 24.035 8.731 8.731 0 0 1 4.73 11.7a8.194 8.194 0 0 1 1.952-1.823.931.931 0 0 0 .094-.069s.37-.306.383-.312a11.21 11.21 0 0 0 3.625-5.791 8.42 8.42 0 0 1 1.731 10.11 1.25 1.25 0 0 0 1.48 1.772 9.82 9.82 0 0 0 4.827-3.36A8.751 8.751 0 0 1 14.726 25.3z" fill="#5CC773"/>
</svg>
