<svg width="139" height="140" fill="none" xmlns="http://www.w3.org/2000/svg">
    <path fill-rule="evenodd" clip-rule="evenodd" d="M28.958 52.625a5.792 5.792 0 0 0-5.791 5.792v57.916a5.792 5.792 0 0 0 5.791 5.792h81.084a5.792 5.792 0 0 0 5.791-5.792V58.417a5.792 5.792 0 0 0-5.791-5.792H28.958zm-17.375 5.792c0-9.596 7.78-17.375 17.375-17.375h81.084c9.596 0 17.375 7.779 17.375 17.375v57.916c0 9.596-7.779 17.375-17.375 17.375H28.958c-9.596 0-17.375-7.779-17.375-17.375V58.417z" fill="#F3F3F3"/>
    <path fill-rule="evenodd" clip-rule="evenodd" d="M47.605 6.737a23.167 23.167 0 0 1 27.687 22.721 5.792 5.792 0 0 1-11.584 0 11.583 11.583 0 1 0-11.583 11.584 5.792 5.792 0 0 1 0 11.583 23.167 23.167 0 0 1-4.52-45.888z" fill="#F3F3F3"/>
    <path fill-rule="evenodd" clip-rule="evenodd" d="M78.01 8.055a23.167 23.167 0 1 1 8.865 44.57 5.792 5.792 0 1 1 0-11.583 11.584 11.584 0 1 0-11.583-11.584 5.792 5.792 0 0 1-11.584 0A23.166 23.166 0 0 1 78.01 8.055z" fill="#F3F3F3"/>
    <path fill-rule="evenodd" clip-rule="evenodd" d="M69.5 23.667a5.792 5.792 0 0 1 5.792 5.791v98.459a5.791 5.791 0 0 1-11.584 0V29.458a5.792 5.792 0 0 1 5.792-5.791z" fill="#F3F3F3"/>
    <path fill-rule="evenodd" clip-rule="evenodd" d="M11.583 87.375a5.792 5.792 0 0 1 5.792-5.792h104.25a5.792 5.792 0 1 1 0 11.584H17.375a5.792 5.792 0 0 1-5.792-5.792z" fill="#F3F3F3"/>
</svg>
