<svg width="23" height="16" viewBox="0 0 23 16" fill="none" xmlns="http://www.w3.org/2000/svg">
<path d="M20.7565 6.962C21.2305 7.582 21.2305 8.419 20.7565 9.038C19.2635 10.987 15.6815 15 11.4995 15C7.31752 15 3.73552 10.987 2.24252 9.038C2.01191 8.74113 1.88672 8.37592 1.88672 8C1.88672 7.62408 2.01191 7.25887 2.24252 6.962C3.73552 5.013 7.31752 1 11.4995 1C15.6815 1 19.2635 5.013 20.7565 6.962V6.962Z" stroke="white" stroke-width="2" stroke-linecap="round" stroke-linejoin="round"/>
<path d="M11.5 11C13.1569 11 14.5 9.65685 14.5 8C14.5 6.34315 13.1569 5 11.5 5C9.84315 5 8.5 6.34315 8.5 8C8.5 9.65685 9.84315 11 11.5 11Z" stroke="white" stroke-width="2" stroke-linecap="round" stroke-linejoin="round"/>
</svg>
