<svg width="26" height="26" fill="none" xmlns="http://www.w3.org/2000/svg">
    <path d="m2.624 11 3.535 3.535 7.955-7.955-3.537-3.535-7.953 7.953V11zm15.908 7.07-6.187-6.188-.883.885 6.188 6.188.882-.885zm1.77 1.768-.885.884 2.21 2.209a.625.625 0 0 0 .883-.884L20.3 19.838zM6.965 3.12 8.81 1.275a2.5 2.5 0 0 1 3.536 0l3.535 3.536a2.5 2.5 0 0 1 0 3.535l-1.767 1.767 10.165 10.165a3.126 3.126 0 0 1-4.42 4.42L9.694 14.533l-1.768 1.768a2.5 2.5 0 0 1-3.535 0L.854 12.767a2.5 2.5 0 0 1 0-3.536l1.843-1.843a1.875 1.875 0 0 1 .367-2.135l1.768-1.766a1.875 1.875 0 0 1 2.135-.366V3.12z" fill="#5CC773"/>
</svg>
