<svg width="120" height="120" fill="none" xmlns="http://www.w3.org/2000/svg">
    <path d="M94.992 9.998h-50c-5.515 0-10 4.485-10 10v27.93L11.457 71.463a5 5 0 0 0 3.535 8.535v25a5.002 5.002 0 0 0 5 5h80a5 5 0 0 0 5-5v-85c0-5.515-4.485-10-10-10zm-40 90h-30v-27.93l15-15 15 15v27.93zm40 0h-30v-20a4.995 4.995 0 0 0 3.535-8.535L44.992 47.928v-27.93h50v80z" fill="#F3F3F3"/>
    <path d="M55.007 30h10v10h-10V30zm20 0h10v10h-10V30zm0 20.155h10V60h-10v-9.845zm0 19.845h10v10h-10V70zm-40 5h10v10h-10V75z" fill="#F3F3F3"/>
</svg>
