<svg width="22" height="22" fill="none" xmlns="http://www.w3.org/2000/svg">
    <path d="M17.415 1.833H8.25a1.835 1.835 0 0 0-1.834 1.833v5.12L2.1 13.103a.917.917 0 0 0 .648 1.564v4.584a.917.917 0 0 0 .917.916h14.667a.917.917 0 0 0 .916-.916V3.666a1.835 1.835 0 0 0-1.833-1.833zm-7.333 16.5h-5.5v-5.12l2.75-2.75 2.75 2.75v5.12zm7.333 0h-5.5v-3.667a.916.916 0 0 0 .648-1.564L8.248 8.787v-5.12h9.167v14.666z" fill="#535257"/>
    <path d="M10.085 5.5h1.833v1.833h-1.833V5.5zm3.666 0h1.834v1.833H13.75V5.5zm0 3.695h1.834V11H13.75V9.195zm0 3.638h1.834v1.834H13.75v-1.834zm-7.333.917h1.833v1.833H6.418V13.75z" fill="#535257"/>
</svg>
