<svg width="130" height="130" fill="none" xmlns="http://www.w3.org/2000/svg">
    <path fill-rule="evenodd" clip-rule="evenodd" d="M65 12.5c-28.995 0-52.5 23.505-52.5 52.5s23.505 52.5 52.5 52.5 52.5-23.505 52.5-52.5S93.995 12.5 65 12.5zM.833 65C.833 29.562 29.562.833 65 .833S129.167 29.562 129.167 65 100.438 129.167 65 129.167.833 100.438.833 65z" fill="#F3F3F3"/>
    <path fill-rule="evenodd" clip-rule="evenodd" d="M59.167 35.833A5.833 5.833 0 0 1 65 30h.058a5.833 5.833 0 0 1 0 11.667H65a5.833 5.833 0 0 1-5.833-5.834zM47.5 59.167a5.833 5.833 0 0 1 5.833-5.834H65a5.833 5.833 0 0 1 5.833 5.834v29.166a5.833 5.833 0 1 1-11.666 0V65h-5.834a5.833 5.833 0 0 1-5.833-5.833z" fill="#F3F3F3"/>
    <path fill-rule="evenodd" clip-rule="evenodd" d="M47.5 88.333a5.833 5.833 0 0 1 5.833-5.833h23.334a5.833 5.833 0 0 1 0 11.667H53.333a5.833 5.833 0 0 1-5.833-5.834z" fill="#F3F3F3"/>
</svg>
