<svg width="38" height="33" viewBox="0 0 38 33" fill="none" xmlns="http://www.w3.org/2000/svg">
<path d="M32.3346 31.3335C32.3346 31.7756 32.159 32.1995 31.8465 32.512C31.5339 32.8246 31.11 33.0002 30.668 33.0002H7.33463C6.89261 33.0002 6.46868 32.8246 6.15612 32.512C5.84356 32.1995 5.66797 31.7756 5.66797 31.3335V16.3335H0.667969L17.8796 0.686859C18.1865 0.407655 18.5864 0.25293 19.0013 0.25293C19.4162 0.25293 19.8161 0.407655 20.123 0.686859L37.3346 16.3335H32.3346V31.3335ZM11.5013 19.6669C11.5013 21.656 12.2915 23.5636 13.698 24.9702C15.1045 26.3767 17.0122 27.1669 19.0013 27.1669C20.9904 27.1669 22.8981 26.3767 24.3046 24.9702C25.7111 23.5636 26.5013 21.656 26.5013 19.6669H23.168C23.168 20.7719 22.729 21.8317 21.9476 22.6131C21.1662 23.3945 20.1064 23.8335 19.0013 23.8335C17.8962 23.8335 16.8364 23.3945 16.055 22.6131C15.2736 21.8317 14.8346 20.7719 14.8346 19.6669H11.5013Z" fill="#5CC773"/>
</svg>
