<svg width="45" height="46" fill="none" xmlns="http://www.w3.org/2000/svg">
    <path fill-rule="evenodd" clip-rule="evenodd" d="M35.801 37.166c-5.443 5.445-10.35 9.5-13.055 8.007l-.075.073-.498-.497c-.002-.007-.005-.007-.008-.007v-.014l-18.68-18.67a.01.01 0 0 1-.008-.008c-2.233-2.23 1.177-7.043 6.379-12.416V5.857h.017A6.067 6.067 0 0 1 15.927.143a6.059 6.059 0 0 1 5.774 4.236c1.242-.369 2.271-.262 2.992.462l19.193 19.193-.071.074c1.521 2.728-2.557 7.614-8.007 13.064l-.007-.006zM19.638 40.19c.195-.1 1.365-.354 2.02-1.01.59-.589.053-.957-.505-1.514l-6.06-6.062c-.557-.557-1.391-.655-1.941-.104-.153.153-1.39.51-1.595.61 2.956 3.014 4.855 4.854 8.081 8.08zM4.487 25.043l.007.006c.763.748 3.402-.577 6.672-3.158-1.697-.347-4.408-.641-6.195.44-.688 1.327-.895 2.3-.484 2.713v-.001zm7.577-11.614c-2.513 2.512-4.587 4.997-5.964 7.04 2.345-.732 5.238-.165 6.576.178a60.626 60.626 0 0 0 3.429-3.178c1.72-1.72 3.236-3.429 4.464-4.992V6.554c-2.243 1.255-5.353 3.723-8.505 6.874zM15.927 1.57c-2.441 0-4.421 1.892-4.607 4.286h-.036v6.333c3.34-3.32 6.53-6.021 9.075-7.268-.56-1.93-2.32-3.35-4.432-3.35zm7.754 4.282c-.296-.297-.886-.267-1.683.023v4.659c1.58-2.321 2.279-4.093 1.683-4.686v.004zm7.07 7.064c-.515 1.08-1.972 2.982-3.029 4.04a1.436 1.436 0 0 0 0 2.02l7.579 7.576c.557.557 1.2-.184 1.514-.505.993-.963 1.8-3.46 2.236-4.816-4.8-4.87-6.358-6.412-8.293-8.316l-.007.001zM42.372 24.54v-.002l-1.571-1.567.007-.001-.586-.588c-.243 1.144-.938 3.227-2.893 5.181-.71.708-2.193.836-3.03 0l-8.092-8.084a2.154 2.154 0 0 1 0-3.031c1.598-1.598 2.712-3.687 3.25-4.829L25.35 7.514c-.329 1.593-1.567 3.536-3.352 5.696v9.076a.714.714 0 1 1-1.428 0v-7.424a96.672 96.672 0 0 1-3.456 3.617C12.866 22.726 8.95 26.117 6.146 26.7l4.115 4.115c.821-.218 1.926-.345 2.812-1.232 1.125-.714 1.689-.332 2.525.505l7.072 7.072c.836.835 1.216 1.814.505 2.524-.567.564-1.426 1.436-2.222 1.821l2.222 2.222.001-.007.005.007c1.125 1.101 6.318-2.286 11.611-7.579 5.3-5.3 8.686-10.5 7.571-11.618l.009.009zm-23.63.974a3.565 3.565 0 0 1 0-5.05c.122-.119.255-.214.386-.314v1.325l.641.014a2.127 2.127 0 0 0 0 3.018 2.146 2.146 0 0 0 3.029 0 2.12 2.12 0 0 0 .057-2.948l.571.012v-1.418c.132.1.265.193.382.312a3.57 3.57 0 0 1 0 5.057 3.591 3.591 0 0 1-5.064 0l-.001-.008zM7.715 34.43a3.572 3.572 0 0 1-7.143 0c0-1.973 3.572-5.715 3.572-5.715s3.571 3.742 3.571 5.715zM4.143 36.57c1.183 0 2.143-.984 2.143-2.197 0-1.214-2.143-3.517-2.143-3.517S2 33.16 2 34.374c0 1.213.957 2.197 2.141 2.197h.002z" fill="#5CC773"/>
</svg>
