<svg width="40" height="40" fill="none" xmlns="http://www.w3.org/2000/svg">
    <path d="M34.922 0H5.078c-.647 0-1.172.525-1.172 1.172v37.656c0 .647.525 1.172 1.172 1.172h29.844c.647 0 1.172-.525 1.172-1.172V1.172C36.094.525 35.569 0 34.922 0zM33.75 37.656H6.25V2.344h27.5v35.312z" fill="#5CC773"/>
    <path d="M30.234 4.688H9.766c-.648 0-1.172.524-1.172 1.171v28.282c0 .647.524 1.172 1.172 1.172h20.468c.648 0 1.172-.525 1.172-1.172V5.859c0-.647-.524-1.171-1.172-1.171zm-11.406 28.28h-7.89V25.86h7.89v7.11zm0-9.452h-7.89v-7.032h7.89v7.032zm0-9.375h-7.89V7.03h7.89v7.11zm10.235 18.828h-7.891v-7.11h7.89v7.11zm0-9.453h-7.891v-7.032h7.89v7.032zm0-9.375h-7.891V7.03h7.89v7.11z" fill="#5CC773"/>
</svg>
