<svg width="40" height="40" fill="none" xmlns="http://www.w3.org/2000/svg">
    <path d="M38.828 21.172a1.172 1.172 0 0 0 0-2.344h-2.812V13.75h2.812a1.172 1.172 0 0 0 0-2.344h-2.812v-6.25c0-.647-.525-1.172-1.172-1.172h-6.25V1.172a1.172 1.172 0 0 0-2.344 0v2.812h-5.078V1.172a1.172 1.172 0 0 0-2.344 0v2.812H13.75V1.172a1.172 1.172 0 0 0-2.344 0v2.812h-6.25c-.647 0-1.172.525-1.172 1.172v6.25H1.172a1.172 1.172 0 0 0 0 2.344h2.812v5.078H1.172a1.172 1.172 0 0 0 0 2.344h2.812v5.078H1.172a1.172 1.172 0 0 0 0 2.344h2.812v6.25c0 .647.525 1.172 1.172 1.172h6.25v2.812a1.172 1.172 0 0 0 2.344 0v-2.812h5.078v2.812a1.172 1.172 0 0 0 2.344 0v-2.812h5.078v2.812a1.172 1.172 0 0 0 2.344 0v-2.812h6.25c.647 0 1.172-.525 1.172-1.172v-6.25h2.812a1.172 1.172 0 0 0 0-2.344h-2.812v-5.078h2.812zm-5.156-9.766h-2.813a1.172 1.172 0 0 0 0 2.344h2.813v5.078h-2.813a1.172 1.172 0 0 0 0 2.344h2.813v5.078h-2.813a1.172 1.172 0 0 0 0 2.344h2.813v5.078h-5.078v-2.813a1.172 1.172 0 0 0-2.344 0v2.813h-5.078v-2.813a1.172 1.172 0 0 0-2.344 0v2.813H13.75v-2.813a1.172 1.172 0 0 0-2.344 0v2.813H6.328v-5.078h2.813a1.172 1.172 0 0 0 0-2.344H6.328v-5.078h2.813a1.172 1.172 0 0 0 0-2.344H6.328V13.75h2.813a1.172 1.172 0 0 0 0-2.344H6.328V6.328h5.078v2.813a1.172 1.172 0 0 0 2.344 0V6.328h5.078v2.813a1.172 1.172 0 0 0 2.344 0V6.328h5.078v2.813a1.172 1.172 0 0 0 2.344 0V6.328h5.078v5.078z" fill="#5CC773"/>
</svg>
