<svg width="37" height="36" fill="none" xmlns="http://www.w3.org/2000/svg">
    <path d="M8 13.5A1.5 1.5 0 0 1 9.5 15c2.357-.004 4.646.79 6.495 2.25h3.255c2 0 3.795.87 5.031 2.25H29a7.5 7.5 0 0 1 6.774 4.276C32.227 28.459 26.483 31.5 20 31.5c-4.185 0-7.725-.904-10.59-2.487A1.497 1.497 0 0 1 8 30H3.5A1.5 1.5 0 0 1 2 28.5V15a1.5 1.5 0 0 1 1.5-1.5H8zM9.502 18 9.5 25.533l.068.048C12.26 27.471 15.767 28.5 20 28.5c4.506 0 8.698-1.734 11.753-4.695l.199-.2-.18-.15a4.491 4.491 0 0 0-2.464-.944L29 22.5h-3.166c.108.483.166.984.166 1.5v1.5H12.5v-3l10.185-.002-.051-.117a3.752 3.752 0 0 0-3.138-2.123l-.246-.008h-4.395A7.477 7.477 0 0 0 9.503 18h-.002zM6.5 16.5H5V27h1.5V16.5zm21-9a4.5 4.5 0 1 1 0 9 4.5 4.5 0 0 1 0-9zm0 3a1.5 1.5 0 1 0 0 3 1.5 1.5 0 0 0 0-3zM17 3a4.5 4.5 0 1 1 0 9 4.5 4.5 0 0 1 0-9zm0 3a1.5 1.5 0 1 0 0 3 1.5 1.5 0 0 0 0-3z" fill="#5CC773"/>
</svg>
