<svg width="140" height="140" fill="none" xmlns="http://www.w3.org/2000/svg">
    <path fill-rule="evenodd" clip-rule="evenodd" d="M121.008 106.742a4.643 4.643 0 0 1-1.012 1.513l-15.821 15.821c-1.989 1.989-4.604 3.076-7.37 3.076h-.155c-8.21-.133-36.672-2.315-59.08-24.724-22.418-22.417-24.598-50.891-24.73-59.09-.043-2.788 1.08-5.53 3.076-7.527l15.802-15.808a4.841 4.841 0 0 1 6.623 0l23.322 23.322a4.662 4.662 0 0 1-.001 6.597l-9.79 9.79.198.667c1.29 4.332 4.272 12.625 9.592 17.945s13.613 8.302 17.945 9.592l.667.198 9.79-9.79a4.66 4.66 0 0 1 6.598 0l23.334 23.334a4.658 4.658 0 0 1 1.012 5.084zM51.77 46.623 35.035 29.888l-12.87 12.87.008.495c.118 7.242 2.039 32.615 21.995 52.571 19.89 19.897 45.175 21.871 52.564 21.995l.495.008 12.877-12.87-16.736-16.735L85 96.592a4.632 4.632 0 0 1-4.255 1.26c-.295-.06-4.37-.935-9.56-2.987-5.204-2.057-11.434-5.262-16.115-9.942-4.68-4.68-7.885-10.911-9.942-16.115-2.052-5.19-2.927-9.269-2.989-9.564a4.643 4.643 0 0 1 1.265-4.253l8.367-8.368zM76.942 11.676l-.029-.001h.03zm0 10.502v-9.336c28.352.57 49.644 21.84 50.214 50.15h-9.336c-.548-23.317-17.53-40.267-40.878-40.814zM76.995 35.013zm19.646 8.34c4.46 4.46 6.967 11.025 7.173 19.647h-9.335c-.16-5.693-1.515-10.048-4.476-13.009-2.96-2.96-7.316-4.316-13.008-4.475V36.18c8.621.206 15.186 2.714 19.646 7.173z" fill="#F3F3F3"/>
</svg>
