<svg width="20" height="20" fill="none" xmlns="http://www.w3.org/2000/svg">
    <path fill-rule="evenodd" clip-rule="evenodd" d="M18.743 16.3a.8.8 0 0 1-.173.26l-2.713 2.712c-.34.34-.789.527-1.263.527h-.026c-1.408-.023-6.287-.397-10.129-4.238C.596 11.718.223 6.836.2 5.43a1.799 1.799 0 0 1 .528-1.29l2.71-2.71a.83.83 0 0 1 1.135 0L8.57 5.429a.799.799 0 0 1 0 1.13L6.89 8.239l.034.114c.221.743.733 2.165 1.644 3.076.912.912 2.334 1.424 3.077 1.645l.114.034 1.678-1.679a.799.799 0 0 1 1.131 0l4 4a.799.799 0 0 1 .174.872zM6.873 5.994 4.006 3.125 1.799 5.332l.001.084c.02 1.242.35 5.591 3.77 9.012 3.41 3.411 7.745 3.75 9.012 3.771l.084.001 2.208-2.206-2.87-2.869-1.434 1.435a.794.794 0 0 1-.73.216c-.05-.01-.749-.16-1.638-.512-.892-.353-1.96-.902-2.763-1.704-.802-.803-1.351-1.87-1.704-2.763a11.04 11.04 0 0 1-.512-1.64.796.796 0 0 1 .216-.729l1.435-1.434zM11.189 1.802v-1.6c4.86.097 8.51 3.744 8.608 8.597h-1.6c-.094-3.997-3.006-6.903-7.008-6.997zM19.999 9zM15.997 8.8zm-1.43-3.368c.764.765 1.194 1.89 1.23 3.368h-1.6c-.028-.976-.26-1.723-.768-2.23-.508-.508-1.254-.74-2.23-.767v-1.6c1.478.035 2.603.465 3.368 1.23z" fill="#5CC773"/>
</svg>
