<svg width="40" height="40" fill="none" xmlns="http://www.w3.org/2000/svg">
    <g clip-path="url(#a)" fill="#5CC773" stroke="#5CC773" stroke-width=".4">
        <path d="M40 33.108h-1.6v-14.57c0-1.03-.4-2.02-1.111-2.75a3.755 3.755 0 0 0-2.689-1.142h-8.8V12.8h-4V24.277h4V22.43h5v10.677H29V37.2h11.2V33.108H40zm-7.2-12.923h-7v-3.293h8.8c.423 0 .83.172 1.13.48.3.309.47.728.47 1.166v14.57H33V20.185h-.2zM14.4 12.723h-.2V14.57h-5V3.892H11V-.2H-.2V3.892h1.8v14.57c0 1.03.4 2.02 1.111 2.75A3.755 3.755 0 0 0 5.4 22.354h8.8V24.2h4V12.723H14.4zm-7.2 4.092h7v3.293H5.4c-.423 0-.83-.172-1.13-.48a1.67 1.67 0 0 1-.47-1.166V3.892H7v12.923h.2z"/>
    </g>
    <defs>
        <clipPath id="a">
            <path fill="#fff" d="M0 0h40v40H0z"/>
        </clipPath>
    </defs>
</svg>
