<svg width="40" height="40" viewBox="0 0 40 40" fill="none" xmlns="http://www.w3.org/2000/svg">
<g clip-path="url(#clip0)">
<path d="M40 33.1077H38.4V18.5385C38.4 17.5078 38.0008 16.5183 37.2888 15.788C36.5766 15.0575 35.6095 14.6462 34.6 14.6462H25.8V13V12.8H25.6H22H21.8V13V24.0769V24.2769H22H25.6H25.8V24.0769V22.4308H30.8V33.1077H29.2H29V33.3077V37V37.2H29.2H40H40.2V37V33.3077V33.1077H40ZM32.8 20.1846H25.8V16.8923H34.6C35.0227 16.8923 35.4291 17.0645 35.7296 17.3727C36.0302 17.681 36.2 18.1003 36.2 18.5385V33.1077H33V20.3846V20.1846H32.8Z" fill="#5CC773" stroke="#5CC773" stroke-width="0.4"/>
<path d="M14.4 12.7231H14.2V12.9231V14.5692H9.2V3.89231H10.8H11V3.69231V0V-0.2H10.8H0H-0.2V0V3.69231V3.89231H0H1.6V18.4615C1.6 19.4922 1.99916 20.4817 2.71122 21.212C3.42344 21.9425 4.39052 22.3538 5.4 22.3538H14.2V24V24.2H14.4H18H18.2V24V12.9231V12.7231H18H14.4ZM7.2 16.8154H14.2V20.1077H5.4C4.97731 20.1077 4.57088 19.9355 4.27041 19.6273C3.96977 19.319 3.8 18.8997 3.8 18.4615V3.89231H7V16.6154V16.8154H7.2Z" fill="#5CC773" stroke="#5CC773" stroke-width="0.4"/>
</g>
<defs>
<clipPath id="clip0">
<rect width="40" height="40" fill="white"/>
</clipPath>
</defs>
</svg>
