<svg width="40" height="40" viewBox="0 0 40 40" fill="none" xmlns="http://www.w3.org/2000/svg">
<path d="M38.5004 26.8558C38.5004 28.487 38.0469 29.8307 37.2843 30.7388C36.5507 31.6124 35.4273 32.2114 33.768 32.2114H6.34564C4.68637 32.2114 3.56296 31.6124 2.82934 30.7388C2.06676 29.8307 1.61328 28.487 1.61328 26.8558V13.1447C1.61328 11.5135 2.06676 10.1698 2.82934 9.26167C3.56296 8.38805 4.68637 7.78906 6.34564 7.78906H33.768C35.4273 7.78906 36.5507 8.38805 37.2843 9.26167C38.0469 10.1698 38.5004 11.5135 38.5004 13.1447V26.8558Z" stroke="#5CC773" stroke-width="3"/>
<path d="M27.4059 20.3536C27.4059 24.2763 24.2249 27.4585 20.301 27.4585C16.3796 27.4585 13.1992 24.2769 13.1992 20.3536C13.1992 16.4304 16.3796 13.25 20.301 13.25C24.2243 13.25 27.4059 16.4304 27.4059 20.3536Z" fill="#5CC773"/>
</svg>
