<svg width="129" height="123" fill="none" xmlns="http://www.w3.org/2000/svg">
    <path d="M.792 122.917a46.333 46.333 0 1 1 92.666 0H81.875a34.75 34.75 0 1 0-69.5 0H.792zm46.333-52.125c-19.2 0-34.75-15.551-34.75-34.75 0-19.2 15.55-34.75 34.75-34.75s34.75 15.55 34.75 34.75c0 19.199-15.55 34.75-34.75 34.75zm0-11.584c12.8 0 23.167-10.367 23.167-23.166 0-12.8-10.367-23.167-23.167-23.167S23.958 23.242 23.958 36.042s10.367 23.166 23.167 23.166zM119.799.041a80.75 80.75 0 0 1 8.409 36c0 12.933-3.029 25.16-8.409 36.002l-9.527-6.927a69.235 69.235 0 0 0 6.353-29.074c0-10.379-2.276-20.23-6.353-29.075l9.527-6.926zm-19.124 13.9a57.764 57.764 0 0 1 4.367 22.1 57.763 57.763 0 0 1-4.367 22.102l-9.713-7.066c1.657-4.84 2.501-9.92 2.496-15.035a46.274 46.274 0 0 0-2.49-15.036l9.707-7.065z" fill="#F3F3F3"/>
</svg>
