<svg width="22" height="22" fill="none" xmlns="http://www.w3.org/2000/svg">
    <g clip-path="url(#a)" fill="#fff">
        <path d="M5.765 5.53v.078a1.247 1.247 0 0 0 1.247.904H8.29a.737.737 0 0 1 .383.117c.913.629 1.876 1.297 3.025 2.112.266.19.586.29.913.285h1.925A1.247 1.247 0 0 0 15.871 7.7V4.921a1.475 1.475 0 0 0-.5-1.15l-1.474-1.355L11.844.521a3.408 3.408 0 0 0-.53-.364L11.108 0H5.41a1.228 1.228 0 0 0-.825 1.67c.324 1.276.747 2.514 1.179 3.86zm8.967 2.14c0 .246 0 .266-.265.266h-1.798a.835.835 0 0 1-.324-.098A99.183 99.183 0 0 1 9.4 5.745a1.66 1.66 0 0 0-.982-.334H7.05c-.176-.01-.176-.04-.176-.158-.197-.648-.403-1.306-.61-1.964l-.608-1.964v-.197a.265.265 0 0 1 .176-.049h4.901A.51.51 0 0 1 11 1.18l1.964 1.787.265.246 1.454 1.335a.413.413 0 0 1 .049.364v2.76zM7.7 17.561c-.098-.285-.206-.57-.314-.854l-.226-.61a1.257 1.257 0 0 0-.923-.815h-.138l-1.277-.324a1.346 1.346 0 0 0-1.149.236l-.786.6-2.17 1.58a1.866 1.866 0 0 0-.707.914v2.75a1.287 1.287 0 0 0 1.453.982h3.222a1.237 1.237 0 0 0 1.09-.58l1.787-2.7A1.237 1.237 0 0 0 7.7 17.56zm-1.09.6-1.356 2.032-.343.58a.246.246 0 0 1-.226.108h-3.35c-.196 0-.225 0-.225-.226v-2.043a.284.284 0 0 1 .108-.206c.982-.766 2.043-1.552 3.103-2.338a.462.462 0 0 1 .236 0c.275.05.54.118.845.197l.51.127a.256.256 0 0 1 .197.187c.147.393.304.825.51 1.345a.255.255 0 0 1-.01.236zM0 15.273a1.198 1.198 0 0 0 .776.874c.135.05.278.076.422.078.31-.003.609-.114.845-.314.275-.226.56-.432.815-.619l.383-.285a1.247 1.247 0 0 0 .501-1.375c-.236-.982-.462-2.062-.697-3.093l-.099-.511c-.157-.746-.32-1.47-.49-2.17a1.287 1.287 0 0 0-.6-.816 1.238 1.238 0 0 0-.972-.167A1.277 1.277 0 0 0 0 7.857v7.416zm1.247-7.317a.177.177 0 0 1 .118.137c.089.364.167.737.265 1.13l.482 2.15c.186.835.383 1.66.57 2.495a.255.255 0 0 1-.109.324l-1.188.884c-.118.098-.157.089-.197.069-.039-.02-.078 0-.078-.216V8.182c0-.07.016-.137.049-.197a.069.069 0 0 1 .059 0l.03-.03zM1.473 6.512H3.93c.11.014.223.014.334 0a1.228 1.228 0 0 0 .854-.62c.158-.302.19-.655.088-.981-.147-.491-.304-.982-.461-1.483a131.78 131.78 0 0 1-.717-2.27A1.463 1.463 0 0 0 3.045 0H.982A1.355 1.355 0 0 0 0 .982V5.55a1.277 1.277 0 0 0 1.473.962zM1.11 2.583V1.326c0-.197 0-.216.216-.216H2.69c.138 0 .187 0 .216.157l.737 2.328.5 1.571v.177a.236.236 0 0 1-.176 0H1.316c-.167 0-.206 0-.206-.216V2.583zM14.987 2.946l.56.511c.223.218.522.342.834.344a1.1 1.1 0 0 0 .315-.03l.324-.098c1.178-.334 2.642-.756 4.056-1.188A1.247 1.247 0 0 0 21.96.982 1.277 1.277 0 0 0 20.978 0H14.73a1.267 1.267 0 0 0-.57 2.2l.826.746zM14.83 1.18c0-.07.059-.089.265-.089h5.53c.225 0 .235.06.245.128.01.069 0 .147-.197.216l-.353.108-3.771 1.14a.305.305 0 0 1-.325-.07c-.334-.333-.687-.648-.982-.982l-.245-.226c-.197-.117-.187-.147-.167-.206v-.02zM16.303 9.36h-3.536a1.198 1.198 0 0 0-.982.462l-4.105 4.96a1.198 1.198 0 0 0-.206 1.247l.108.294c.108.305.226.6.334.894a1.228 1.228 0 0 0 1.208.815h3.044a1.298 1.298 0 0 0 .982-.402c1.14-1.13 2.171-2.161 3.202-3.212.167-.164.292-.366.364-.59.284-.913.54-1.856.795-2.76v-.097a1.306 1.306 0 0 0-.177-1.15 1.315 1.315 0 0 0-1.03-.461zm-5.245 7.562H9.164c-.128 0-.177 0-.216-.137a18.35 18.35 0 0 0-.403-1.08.226.226 0 0 1 .05-.266l3.977-4.832a.314.314 0 0 1 .275-.137h3.378a.402.402 0 0 1 .226 0 .422.422 0 0 1 0 .236l-.196.667c-.167.6-.363 1.307-.57 1.965a.686.686 0 0 1-.147.265c-1.12 1.13-2.15 2.15-3.133 3.123a.48.48 0 0 1-.275.108c-.344.098-.766.088-1.07.088z"/>
        <path d="M11.266 9.311a1.298 1.298 0 0 0-.56-.874l-.982-.668-.884-.668a1.473 1.473 0 0 0-.904-.226H4.194a1.306 1.306 0 0 0-1.05.462 1.277 1.277 0 0 0-.197 1.05c.403 1.779.815 3.605 1.208 5.314a1.189 1.189 0 0 0 .913.982l1.16.295c.11.014.222.014.333 0a1.248 1.248 0 0 0 .982-.481c1.12-1.365 2.289-2.77 3.448-4.194a1.25 1.25 0 0 0 .275-.992zm-1.1.138s0 .059-.118.196l-1.424 1.729L6.66 13.73c-.099.118-.167.147-.295.108l-.982-.255a.177.177 0 0 1-.167-.177c-.383-1.67-.756-3.34-1.179-5.186v-.216s0-.05.236-.05h3.585a.58.58 0 0 1 .314.09l1.267.873.53.373c.177.109.197.158.197.158zM19.919 17.62l-.432-.433L17.68 15.4a1.228 1.228 0 0 0-1.847 0l-.982.982-1.493 1.493a1.326 1.326 0 0 0-.393.982v1.768a1.237 1.237 0 0 0 1.346 1.336h6.393a1.228 1.228 0 0 0 1.297-1.307v-.412a1.287 1.287 0 0 0-.393-.982l-1.69-1.64zm.982 2.75c0 .51 0 .51-.53.51h-6.03c-.256 0-.266 0-.266-.275v-1.718a.432.432 0 0 1 .108-.276l1.866-1.875.54-.54c.07-.07.118-.109.158-.109.039 0 .088 0 .166.118l3.821 3.811a.411.411 0 0 1 .157.354h.01zM17.542 14.791l1.355 1.356.904.913a1.345 1.345 0 0 0 .982.442c.162 0 .323-.033.471-.098a1.228 1.228 0 0 0 .776-1.228V10.52a1.324 1.324 0 0 0-.422-1.031 1.336 1.336 0 0 0-1.08-.314h-.236l-.983.088a1.247 1.247 0 0 0-1.178.982l-.285.982c-.206.727-.412 1.444-.619 2.141a1.297 1.297 0 0 0 .315 1.424zm3.162-4.518h.138c.01 0 0 0 0 .236v5.608c0 .177 0 .206-.07.226-.068.02-.097 0-.225-.108l-.756-.756c-.452-.462-.982-.982-1.513-1.513a.246.246 0 0 1-.078-.294c.294-1.041.599-2.082.893-3.123 0-.138.089-.187.236-.187l.982-.088h.393zM21.5 3.232a1.277 1.277 0 0 0-1.14-.167l-2.592.766-.6.177a1.228 1.228 0 0 0-.982 1.286V7.74a1.376 1.376 0 0 0 .393.982c.236.215.545.331.865.324h.068c1.11 0 2.23-.128 3.33-.226A1.208 1.208 0 0 0 22 7.514V4.292a1.296 1.296 0 0 0-.501-1.06zm-.61 4.262c0 .187 0 .206-.166.216l-3.104.207h-.235c-.01 0 0 0 0-.246V5.304c0-.187 0-.187.186-.245l3.055-.924h.206c.041.064.059.14.05.216v3.143h.009zM11.364 18.356H8.908a1.208 1.208 0 0 0-1.08.58l-.658.982-.079.108a1.257 1.257 0 0 0-.078 1.316 1.237 1.237 0 0 0 1.149.648h3.231a1.227 1.227 0 0 0 1.247-1.247v-1.1a1.238 1.238 0 0 0-1.277-1.287zm-1.621 1.11h1.591c.167 0 .197 0 .197.197v.982c0 .226 0 .226-.226.226H8.2a.314.314 0 0 1-.216-.098s0-.099.059-.158c.236-.353.481-.717.687-1.04a.217.217 0 0 1 .207-.109h.805z"/>
    </g>
    <defs>
        <clipPath id="a">
            <path fill="#fff" d="M0 0h22v22H0z"/>
        </clipPath>
    </defs>
</svg>
