<svg width="139" height="140" fill="none" xmlns="http://www.w3.org/2000/svg">
    <path d="m127.771 94.612-27.518-27.518 27.514-27.513a8.69 8.69 0 0 0 .004-12.289l-.004-.009-15.551-15.55a8.682 8.682 0 0 0-9.469-1.888 8.693 8.693 0 0 0-2.82 1.883l-.004.005L72.41 39.246 44.892 11.728a8.705 8.705 0 0 0-12.284 0l-21.38 21.376a8.692 8.692 0 0 0 0 12.289l27.514 27.513-30.055 30.063v27.843h27.844l30.058-30.058 27.518 27.526a8.722 8.722 0 0 0 12.293 0l21.371-21.38a8.692 8.692 0 0 0 0-12.288zm-21.727-76.754 15.594 15.594-27.51 27.513L78.536 45.37l27.509-27.513zM34.75 122.125H17.375v-15.598L44.87 79.035 60.838 95.01 34.75 122.125zm65.503.017L17.375 39.246l21.38-21.371 16.454 16.45-9.782 9.786 6.146 6.142 9.778-9.782 17.94 17.94-9.791 9.773 6.15 6.142 9.783-9.782 17.939 17.94-9.782 9.778 6.142 6.146 9.782-9.778 12.119 12.124-21.38 21.388z" fill="#C4C4C4" fill-opacity=".2"/>
</svg>
