<svg width="33" height="39" fill="none" xmlns="http://www.w3.org/2000/svg">
    <mask id="a" maskUnits="userSpaceOnUse" x="-.267" y="0" width="33" height="40" fill="#000">
        <path fill="#fff" d="M-.267 0h33v40h-33z"/>
        <path d="M25.393 1.289c-.529.518-1.057 1.026-1.555 1.565-.228.239-.456.322-.777.322-7.153-.01-14.305-.01-21.458-.01-.684 0-.87.186-.87.87V38.15c0 .653.197.85.86.85h22.193c.653 0 .85-.207.85-.86V18.196c0-.145.01-.353.104-.415.29-.207.321-.477.311-.788-.01-.352-.02-.694-.02-1.047v-1.524c.062-.02.082-.03.113-.03.726.01 1.452.01 2.177.03 1.099.021 1.161-.051 1.14-1.16-.01-.757 0-1.514 0-2.26h2.675c.55 0 .777-.218.767-.778-.02-1.057-.031-2.125-.073-3.182a1.11 1.11 0 0 0-.27-.653 793.42 793.42 0 0 0-5.1-5.11c-.372-.374-.683-.374-1.067.01zM9.12 37.735v-6.25c0-.477-.26-.747-.664-.726-.363.02-.58.28-.58.736v6.23h-1.96V36.16c0-.622-.207-.933-.621-.943-.415-.01-.622.29-.622.922v1.576H1.997V4.419h3.628v5.194c0 .103-.01.207 0 .31.031.374.28.623.612.633.352.01.622-.26.622-.653.01-1.192 0-2.384 0-3.566V4.41h5.152c.01.104.02.207.02.311 0 3.193 0 6.385-.01 9.578 0 .176-.104.394-.228.529-1.078 1.099-2.166 2.187-3.255 3.275-.456.456-.456.757 0 1.213 1.089 1.089 2.177 2.177 3.255 3.276.124.124.228.321.228.487.01 4.79.01 9.568.01 14.357 0 .072-.01.155-.02.28-.954.02-1.908.02-2.892.02zm7.836-32.922v4.582c0 .145-.02.332-.103.425a553.543 553.543 0 0 1-3.535 3.566V4.44h3.628c0 .125.01.249.01.373zm1.255-.373h3.856C20.8 5.705 19.495 7 18.209 8.286V4.44zm5.162 13.393v19.892h-2.923v-6.303c-.021-.404-.25-.663-.602-.663-.373-.01-.632.249-.632.674-.01 1.555 0 3.1 0 4.654v1.648h-1.96v-1.43c0-.166.011-.342-.01-.508-.041-.342-.31-.58-.622-.58-.331 0-.59.259-.6.632-.011.528 0 1.057-.011 1.586 0 .103-.02.197-.031.3h-2.643V24.094c.487.726 1.192.528 1.824.55.746.03 1.503.03 2.25.051.6.01.808-.207.808-.808v-2.613c.705 0 1.42-.01 2.135 0 1.234.031 1.286-.01 1.265-1.233l-.031-2.136c0-.01.01-.02.02-.072h1.763zm2.84-15.062c1.379 1.379 2.768 2.758 4.136 4.147a.979.979 0 0 1 .249.6c.03.726.01 1.442.01 2.209-.332 0-.674.01-1.016 0-.56-.01-1.109-.042-1.669-.042-.528-.01-.746.228-.756.757v2.685c-.84 0-1.659.01-2.488 0-.757-.01-.933.155-.923.922.01.83 0 1.649 0 2.498-.715 0-1.451.01-2.187 0-1.202-.03-1.275.042-1.244 1.255.01.725 0 1.44 0 2.187h-1.876c-.26 0-.518-.01-.777-.01-.56 0-.778.217-.778.777.01.746.031 1.503.052 2.25v.393c-.85 0-1.669 0-2.498-.01-.073 0-.166-.073-.228-.124L9.75 18.797c-.01-.01-.01-.02 0 0 5.4-5.4 10.801-10.791 16.223-16.212.051.02.145.103.238.186z"/>
    </mask>
    <path d="M25.393 1.289c-.529.518-1.057 1.026-1.555 1.565-.228.239-.456.322-.777.322-7.153-.01-14.305-.01-21.458-.01-.684 0-.87.186-.87.87V38.15c0 .653.197.85.86.85h22.193c.653 0 .85-.207.85-.86V18.196c0-.145.01-.353.104-.415.29-.207.321-.477.311-.788-.01-.352-.02-.694-.02-1.047v-1.524c.062-.02.082-.03.113-.03.726.01 1.452.01 2.177.03 1.099.021 1.161-.051 1.14-1.16-.01-.757 0-1.514 0-2.26h2.675c.55 0 .777-.218.767-.778-.02-1.057-.031-2.125-.073-3.182a1.11 1.11 0 0 0-.27-.653 793.42 793.42 0 0 0-5.1-5.11c-.372-.374-.683-.374-1.067.01zM9.12 37.735v-6.25c0-.477-.26-.747-.664-.726-.363.02-.58.28-.58.736v6.23h-1.96V36.16c0-.622-.207-.933-.621-.943-.415-.01-.622.29-.622.922v1.576H1.997V4.419h3.628v5.194c0 .103-.01.207 0 .31.031.374.28.623.612.633.352.01.622-.26.622-.653.01-1.192 0-2.384 0-3.566V4.41h5.152c.01.104.02.207.02.311 0 3.193 0 6.385-.01 9.578 0 .176-.104.394-.228.529-1.078 1.099-2.166 2.187-3.255 3.275-.456.456-.456.757 0 1.213 1.089 1.089 2.177 2.177 3.255 3.276.124.124.228.321.228.487.01 4.79.01 9.568.01 14.357 0 .072-.01.155-.02.28-.954.02-1.908.02-2.892.02zm7.836-32.922v4.582c0 .145-.02.332-.103.425a553.543 553.543 0 0 1-3.535 3.566V4.44h3.628c0 .125.01.249.01.373zm1.255-.373h3.856C20.8 5.705 19.495 7 18.209 8.286V4.44zm5.162 13.393v19.892h-2.923v-6.303c-.021-.404-.25-.663-.602-.663-.373-.01-.632.249-.632.674-.01 1.555 0 3.1 0 4.654v1.648h-1.96v-1.43c0-.166.011-.342-.01-.508-.041-.342-.31-.58-.622-.58-.331 0-.59.259-.6.632-.011.528 0 1.057-.011 1.586 0 .103-.02.197-.031.3h-2.643V24.094c.487.726 1.192.528 1.824.55.746.03 1.503.03 2.25.051.6.01.808-.207.808-.808v-2.613c.705 0 1.42-.01 2.135 0 1.234.031 1.286-.01 1.265-1.233l-.031-2.136c0-.01.01-.02.02-.072h1.763zm2.84-15.062c1.379 1.379 2.768 2.758 4.136 4.147a.979.979 0 0 1 .249.6c.03.726.01 1.442.01 2.209-.332 0-.674.01-1.016 0-.56-.01-1.109-.042-1.669-.042-.528-.01-.746.228-.756.757v2.685c-.84 0-1.659.01-2.488 0-.757-.01-.933.155-.923.922.01.83 0 1.649 0 2.498-.715 0-1.451.01-2.187 0-1.202-.03-1.275.042-1.244 1.255.01.725 0 1.44 0 2.187h-1.876c-.26 0-.518-.01-.777-.01-.56 0-.778.217-.778.777.01.746.031 1.503.052 2.25v.393c-.85 0-1.669 0-2.498-.01-.073 0-.166-.073-.228-.124L9.75 18.797c-.01-.01-.01-.02 0 0 5.4-5.4 10.801-10.791 16.223-16.212.051.02.145.103.238.186z" fill="#5CC773"/>
    <path d="M25.393 1.289c-.529.518-1.057 1.026-1.555 1.565-.228.239-.456.322-.777.322-7.153-.01-14.305-.01-21.458-.01-.684 0-.87.186-.87.87V38.15c0 .653.197.85.86.85h22.193c.653 0 .85-.207.85-.86V18.196c0-.145.01-.353.104-.415.29-.207.321-.477.311-.788-.01-.352-.02-.694-.02-1.047v-1.524c.062-.02.082-.03.113-.03.726.01 1.452.01 2.177.03 1.099.021 1.161-.051 1.14-1.16-.01-.757 0-1.514 0-2.26h2.675c.55 0 .777-.218.767-.778-.02-1.057-.031-2.125-.073-3.182a1.11 1.11 0 0 0-.27-.653 793.42 793.42 0 0 0-5.1-5.11c-.372-.374-.683-.374-1.067.01zM9.12 37.735v-6.25c0-.477-.26-.747-.664-.726-.363.02-.58.28-.58.736v6.23h-1.96V36.16c0-.622-.207-.933-.621-.943-.415-.01-.622.29-.622.922v1.576H1.997V4.419h3.628v5.194c0 .103-.01.207 0 .31.031.374.28.623.612.633.352.01.622-.26.622-.653.01-1.192 0-2.384 0-3.566V4.41h5.152c.01.104.02.207.02.311 0 3.193 0 6.385-.01 9.578 0 .176-.104.394-.228.529-1.078 1.099-2.166 2.187-3.255 3.275-.456.456-.456.757 0 1.213 1.089 1.089 2.177 2.177 3.255 3.276.124.124.228.321.228.487.01 4.79.01 9.568.01 14.357 0 .072-.01.155-.02.28-.954.02-1.908.02-2.892.02zm7.836-32.922v4.582c0 .145-.02.332-.103.425a553.543 553.543 0 0 1-3.535 3.566V4.44h3.628c0 .125.01.249.01.373zm1.255-.373h3.856C20.8 5.705 19.495 7 18.209 8.286V4.44zm5.162 13.393v19.892h-2.923v-6.303c-.021-.404-.25-.663-.602-.663-.373-.01-.632.249-.632.674-.01 1.555 0 3.1 0 4.654v1.648h-1.96v-1.43c0-.166.011-.342-.01-.508-.041-.342-.31-.58-.622-.58-.331 0-.59.259-.6.632-.011.528 0 1.057-.011 1.586 0 .103-.02.197-.031.3h-2.643V24.094c.487.726 1.192.528 1.824.55.746.03 1.503.03 2.25.051.6.01.808-.207.808-.808v-2.613c.705 0 1.42-.01 2.135 0 1.234.031 1.286-.01 1.265-1.233l-.031-2.136c0-.01.01-.02.02-.072h1.763zm2.84-15.062c1.379 1.379 2.768 2.758 4.136 4.147a.979.979 0 0 1 .249.6c.03.726.01 1.442.01 2.209-.332 0-.674.01-1.016 0-.56-.01-1.109-.042-1.669-.042-.528-.01-.746.228-.756.757v2.685c-.84 0-1.659.01-2.488 0-.757-.01-.933.155-.923.922.01.83 0 1.649 0 2.498-.715 0-1.451.01-2.187 0-1.202-.03-1.275.042-1.244 1.255.01.725 0 1.44 0 2.187h-1.876c-.26 0-.518-.01-.777-.01-.56 0-.778.217-.778.777.01.746.031 1.503.052 2.25v.393c-.85 0-1.669 0-2.498-.01-.073 0-.166-.073-.228-.124L9.75 18.797c-.01-.01-.01-.02 0 0 5.4-5.4 10.801-10.791 16.223-16.212.051.02.145.103.238.186z" stroke="#5CC773" stroke-width=".8" mask="url(#a)"/>
    <mask id="b" maskUnits="userSpaceOnUse" x="8.761" y="17.776" width="2" height="1" fill="#000">
        <path fill="#fff" d="M8.761 17.776h2v1h-2z"/>
        <path d="M9.761 18.776c0-.01 0 0 0 0z"/>
    </mask>
    <path d="M9.761 18.776c0-.01 0 0 0 0z" fill="#fff"/>
    <path d="M10.161 18.776v-.004h-.8v.004h.8v-.004h-.8v.004h.8z" fill="#5CC773" mask="url(#b)"/>
</svg>
