<svg width="105" height="121" fill="none" xmlns="http://www.w3.org/2000/svg">
    <path d="m59.477 5.835 18.958 32.841A5.83 5.83 0 0 1 76.3 46.64l-7.583 4.375 5.839 10.103-10.103 5.834-5.834-10.11-7.577 4.381a5.836 5.836 0 0 1-7.969-2.135L32.352 40.526c-11.97 3.628-20.685 14.758-20.685 27.912 0 3.646.67 7.14 1.89 10.36a29.029 29.029 0 0 1 15.61-4.526c9.823 0 18.515 4.859 23.8 12.302L97.813 60.68l5.834 10.103L57.692 97.32a29.39 29.39 0 0 1 .641 6.119 29.09 29.09 0 0 1-.583 5.833H105v11.667l-99.167.006A29.044 29.044 0 0 1 0 103.438a29.058 29.058 0 0 1 4.725-15.925A40.598 40.598 0 0 1 0 68.438c0-17.47 10.973-32.38 26.407-38.208l-2.292-3.979c-3.22-5.582-1.313-12.716 4.27-15.936l15.155-8.75c5.583-3.22 12.717-1.313 15.937 4.27zm-30.31 80.103c-9.666 0-17.5 7.834-17.5 17.5 0 2.042.35 4.008.991 5.833h33.017c.642-1.825.992-3.791.992-5.833 0-9.666-7.834-17.5-17.5-17.5zm20.206-74.27-15.155 8.75L50.26 48.202l15.155-8.75-16.042-27.784z" fill="#C4C4C4"/>
</svg>
