<svg width="40" height="40" fill="none" xmlns="http://www.w3.org/2000/svg">
    <path d="M20 28.689c.312-.432 3.516-2.691 3.516-7.316V0h-7.032v21.373c0 4.604 3.205 6.886 3.516 7.316zm0-3.487a6.749 6.749 0 0 1-.983-2.228l2.134-1.067A6.765 6.765 0 0 1 20 25.202zM18.828 9.005l2.344-1.171V9.9l-2.344 1.172V9.005zm0 4.688 2.344-1.172v2.067l-2.344 1.172v-2.067zm0 4.688 2.344-1.172v2.067l-2.344 1.172V18.38zm2.344-16.037v2.87l-2.344 1.171V2.344h2.344z" fill="#5CC773"/>
    <path d="M25.86 4.766V27.03c0 2.326-3.933 4.77-5.86 5.733-1.928-.964-5.86-3.407-5.86-5.733V4.766H0V40h40V4.766H25.86zm11.796 2.343v2.344h-9.453V7.11h9.453zm0 4.688v11.719h-9.453v-11.72h9.453zm-25.86 11.719H2.345v-11.72h9.453v11.72zm0-16.407v2.344H2.345V7.11h9.453zM2.345 37.656v-7.11h7.11v-2.343h-7.11V25.86h9.453v1.172c0 2.008 1.346 4 4 5.921 1.358.983 2.708 1.721 4.203 2.395 1.492-.672 2.843-1.41 4.203-2.395 2.654-1.921 4-3.913 4-5.92v-1.173h9.453v2.344h-7.11v2.344h7.11v7.11H2.344z" fill="#5CC773"/>
    <path d="M4.766 14.14h2.343v2.344H4.766v-2.343zM7.11 18.828h2.343v2.344H7.11v-2.344zM30.547 18.828h2.344v2.344h-2.344v-2.344zM32.89 14.14h2.344v2.344h-2.343v-2.343zM4.766 32.89h7.03v2.344h-7.03v-2.343zM28.203 32.89h7.031v2.344h-7.03v-2.343z" fill="#5CC773"/>
</svg>
