<svg width="38" height="33" fill="none" xmlns="http://www.w3.org/2000/svg">
    <path d="M32.335 31.334A1.667 1.667 0 0 1 30.668 33H7.335a1.667 1.667 0 0 1-1.667-1.666v-15h-5L17.88.687a1.667 1.667 0 0 1 2.243 0l17.212 15.647h-5v15zM13.32 21.014l-1.651.953 1.666 2.888 1.655-.955a5.834 5.834 0 0 0 2.342 1.352v1.908h3.337v-1.91a5.834 5.834 0 0 0 2.341-1.35l1.654.954 1.67-2.887-1.652-.953a5.84 5.84 0 0 0 0-2.7l1.652-.956-1.667-2.888-1.655.955a5.834 5.834 0 0 0-2.345-1.35v-1.908h-3.337v1.906a5.835 5.835 0 0 0-2.341 1.352l-1.654-.955-1.668 2.89 1.652.954a5.84 5.84 0 0 0 0 2.7h.001zm5.68 1.15a2.501 2.501 0 1 1-.003-5A2.501 2.501 0 0 1 19 22.163v.002z" fill="#5CC773"/>
</svg>
