<svg width="40" height="40" fill="none" xmlns="http://www.w3.org/2000/svg">
    <path d="M34.992 11.5a1.663 1.663 0 0 0-.914-1.325L20.745 3.508a1.667 1.667 0 0 0-1.492 0L5.92 10.175a1.67 1.67 0 0 0-.912 1.325c-.018.178-1.601 17.945 14.315 25.023a1.645 1.645 0 0 0 1.354 0C36.593 29.445 35.01 11.68 34.992 11.5zM20 33.162C8.718 27.708 8.185 16.07 8.277 12.725L20 6.863l11.715 5.859c.062 3.315-.547 15.03-11.715 20.44z" fill="#5CC773"/>
    <path d="m18.335 20.976-3.822-3.821-2.357 2.356 6.179 6.179 9.511-9.512-2.356-2.357-7.155 7.155z" fill="#5CC773"/>
</svg>
