<svg width="41" height="42" fill="none" xmlns="http://www.w3.org/2000/svg">
    <path fill-rule="evenodd" clip-rule="evenodd" d="m40.7 6.18-1.867 1.224 1.872 1.217a.649.649 0 0 1 .191.896.643.643 0 0 1-.891.191l-1.71-1.112v2.047a.646.646 0 0 1-.645.647.646.646 0 0 1-.645-.647V8.602l-1.7 1.116a.634.634 0 0 1-.893-.188.646.646 0 0 1 .187-.893l1.869-1.224-1.874-1.217a.644.644 0 1 1 .7-1.081l1.711 1.1V4.17c0-.358.288-.648.645-.648.355 0 .644.29.644.648v2.04l1.701-1.115a.643.643 0 0 1 .893.188.65.65 0 0 1-.187.897zm-6.272 13.525c0-.357.288-.647.645-.647.355 0 .644.29.644.647v1.414l1.188-.757c.3-.19.7-.101.89.201a.649.649 0 0 1-.2.893l-1.325.843 1.318.852a.647.647 0 0 1-.697 1.089l-1.174-.76v1.404a.645.645 0 1 1-1.289 0V23.47l-1.189.756a.641.641 0 0 1-.889-.2.65.65 0 0 1 .2-.894l1.325-.841-1.319-.853a.649.649 0 0 1-.193-.895.643.643 0 0 1 .891-.194l1.174.76v-1.404zm-3.544-4.53a.968.968 0 0 1-.966-.972.97.97 0 0 1 .966-.97.97.97 0 0 1 .967.97.967.967 0 0 1-.967.971zm-9.987 26.54c-4.627 0-8.377-3.768-8.377-8.416 0-2.974 1.547-5.57 3.866-7.065V4.17h.065c.316-2.193 2.176-3.884 4.446-3.884 2.27 0 4.13 1.69 4.446 3.884h.064v22.064c2.32 1.495 3.866 4.09 3.866 7.064 0 4.648-3.75 8.416-8.376 8.416zm3.866-14.38v-.51h-.645v-3.883H22.83a.645.645 0 0 1-.644-.647c0-.358.288-.648.644-.648h1.289v-2.589h-1.29a.645.645 0 0 1-.643-.647c0-.358.288-.648.644-.648h1.289v-2.589h-1.29a.646.646 0 0 1-.643-.647c0-.357.288-.647.644-.647h1.289v-2.59h-1.29a.646.646 0 0 1-.643-.647c0-.357.288-.647.644-.647h1.289v-2.59h-1.29a.645.645 0 0 1-.643-.647c0-.357.288-.647.644-.647h1.289V4.817a3.23 3.23 0 0 0-3.222-3.237 3.23 3.23 0 0 0-3.222 3.237v1.295h1.289c.355 0 .644.29.644.647a.646.646 0 0 1-.644.647h-1.289v2.59h1.289a.646.646 0 0 1 0 1.295h-1.289v2.588h1.289c.355 0 .644.29.644.648a.646.646 0 0 1-.644.647h-1.289v2.59h1.289c.355 0 .644.29.644.647a.646.646 0 0 1-.644.647h-1.289v2.59h1.289c.355 0 .644.289.644.647a.646.646 0 0 1-.644.647h-1.289v4.531h-.829A7.106 7.106 0 0 0 13.81 33.3c0 3.933 3.173 7.12 7.088 7.12 3.914 0 7.088-3.187 7.088-7.12a7.118 7.118 0 0 0-3.222-5.964zm-3.866 9.848A3.875 3.875 0 0 1 17.03 33.3c0-1.437.778-2.683 1.933-3.352v-3.121c0-1.072.865-1.942 1.933-1.942 1.067 0 1.933.87 1.933 1.942v3.121a3.866 3.866 0 0 1 1.933 3.352 3.875 3.875 0 0 1-3.866 3.884zm.644-6.38v-3.977a.645.645 0 1 0-1.289 0v3.976A2.58 2.58 0 0 0 18.32 33.3c0 1.43 1.154 2.59 2.578 2.59a2.583 2.583 0 0 0 2.577-2.59 2.58 2.58 0 0 0-1.933-2.497zm-9.784-20.498c-.332.484-.895.178-.895.178L9.8 9.82l.064.278a.645.645 0 1 1-1.258.279l-.341-1.528-.97-.608a2.05 2.05 0 0 1-.567.323V9.71l1.076 1.062a.66.66 0 0 1 0 .951.691.691 0 0 1-.966 0l-.11-.11v.984s-.038.622-.644.622-.644-.615-.644-.615v-.99l-.13.128a.691.691 0 0 1-.966 0 .672.672 0 0 1 0-.953l1.102-1.08V8.582a1.85 1.85 0 0 1-.548-.306l-1.05.67-.346 1.346a.661.661 0 0 1-.82.478.69.69 0 0 1-.49-.753l-.835.54s-.558.313-.898-.165c-.342-.479.174-.856.174-.856l1.256-.813-.457-.128a.699.699 0 0 1-.484-.841.667.667 0 0 1 .825-.476l1.65.46.792-.513a2.196 2.196 0 0 1-.058-.466c0-.15.025-.292.057-.434l-.831-.518-1.559.368a.662.662 0 0 1-.799-.505.694.694 0 0 1 .516-.818l.216-.052-1.16-.725s-.545-.345-.193-.854c.35-.511.896-.18.896-.18l1.085.675-.039-.178a.697.697 0 0 1 .517-.822.663.663 0 0 1 .801.51l.319 1.486.876.547c.169-.139.36-.25.57-.325V3.757l-.986-.992a.648.648 0 0 1 0-.915.638.638 0 0 1 .91 0l.075.075V.903s.008-.617.649-.617c.64 0 .647.616.647.616v1.025l.075-.077a.647.647 0 0 1 .915.916l-.986.997V4.94c.2.07.387.174.548.31l1.166-.757.303-1.126a.643.643 0 0 1 1.263.13l.805-.519s.542-.336.902.169c.357.504-.174.854-.174.854l-1.301.842.479.129a.648.648 0 0 1-.332 1.25l-1.61-.435h-.004l-.812.524c.036.151.061.305.061.466 0 .15-.02.296-.051.436l1.127.701 1.27-.285a.64.64 0 0 1 .766.488.65.65 0 0 1-.481.77l.928.576s.519.37.187.855l-.01-.014zm-5.68-4.193a.646.646 0 0 0-.645.647.645.645 0 1 0 1.29 0 .646.646 0 0 0-.645-.647zm-3.89 19.251a.642.642 0 0 1 .891-.191l1.71 1.111v-2.046a.645.645 0 1 1 1.289 0v2.041l1.7-1.116a.634.634 0 0 1 .893.187c.195.305.111.7-.187.894l-1.868 1.223 1.873 1.217a.644.644 0 1 1-.7 1.081l-1.711-1.106v2.052a.645.645 0 1 1-1.289 0v-2.04l-1.701 1.114a.644.644 0 0 1-.892-.188.651.651 0 0 1 .187-.897l1.867-1.223-1.87-1.22a.647.647 0 0 1-.192-.894v.001zm4.856 11.173a.97.97 0 0 1 .967.97c0 .537-.432.972-.967.972a.968.968 0 0 1-.966-.971.97.97 0 0 1 .966-.971zm3.222-20.067c.534 0 .967.433.967.97a.968.968 0 1 1-1.933 0c0-.537.433-.97.966-.97zm25.13 20.067a.97.97 0 0 1 .966.97c0 .537-.431.972-.966.972a.968.968 0 0 1-.967-.971.97.97 0 0 1 .967-.971zm3.866-7.12a.97.97 0 0 1 .966.97.968.968 0 0 1-.966.971.968.968 0 0 1-.967-.97.97.97 0 0 1 .967-.972z" fill="#5CC773"/>
</svg>
