<svg width="40" height="41" fill="none" xmlns="http://www.w3.org/2000/svg">
    <path d="m33.574 14.101 2.605-2.605-2.357-2.356-2.847 2.845A11.578 11.578 0 0 0 25 10.318c-6.432 0-11.667 5.233-11.667 11.667 0 6.433 5.235 11.666 11.667 11.666 6.431 0 11.666-5.233 11.666-11.666a11.61 11.61 0 0 0-3.091-7.884zm-8.575 16.217c-4.595 0-8.334-3.738-8.334-8.333 0-4.595 3.739-8.334 8.334-8.334s8.333 3.739 8.333 8.334-3.738 8.333-8.333 8.333z" fill="#5CC773"/>
    <path d="M23.332 16.985h3.333v6.667h-3.333v-6.667zM21.665 5.318h6.667v3.334h-6.667V5.318zM5 13.652h6.666v3.333H5v-3.333zm0 13.333h6.666v3.333H5v-3.333zm-1.667-6.667h6.65v3.334h-6.65v-3.334z" fill="#5CC773"/>
</svg>
