<svg width="24" height="22" fill="none" xmlns="http://www.w3.org/2000/svg">
    <path d="m2 8.654 2.814 2.822 6.332-6.35-2.814-2.823L2 8.653v.001zm4.442 8.128 2.11-2.117a.992.992 0 0 1 1.408 0 1 1 0 0 1 0 1.411l-2.11 2.117a1 1 0 0 1 0 1.411l-1.41 1.411a.992.992 0 0 1-1.406 0l-1.407-1.41a1 1 0 0 1 0-1.412l1.407-1.411a.993.993 0 0 1 1.407 0zm9.146-6.35 6.33-6.35-1.406-1.412-6.331 6.35c-.777-.78-.912-1.907-.302-2.52L19.407.956c.61-.612 1.735-.477 2.512.303l1.407 1.41c.778.78.913 1.909.302 2.52L18.1 10.734c-.61.612-1.735.477-2.512-.303v.001zm-.924 3.866L9.739 9.36l-.704.706 4.925 4.939.704-.706v-.001zm1.407 1.412-.704.705 1.759 1.764a.496.496 0 0 0 .848-.352.5.5 0 0 0-.145-.353L16.07 15.71zM2.06 5.77a1.5 1.5 0 0 1 .29-1.704l1.408-1.41a1.49 1.49 0 0 1 1.699-.293L6.925.892a1.986 1.986 0 0 1 2.814 0l2.814 2.823a2 2 0 0 1 0 2.822l-1.407 1.411 8.09 8.114a2.5 2.5 0 0 1-.807 4.069 2.482 2.482 0 0 1-2.71-.541l-8.09-8.114-1.408 1.411c-.777.78-2.037.78-2.814 0L.593 10.065a2 2 0 0 1 0-2.823l1.467-1.47V5.77z" fill="#5CC773"/>
</svg>
