<svg width="40" height="40" fill="none" xmlns="http://www.w3.org/2000/svg">
    <path d="M.005 33.275a.656.656 0 0 1 .029-.14.674.674 0 0 1 .03-.112l-.059.252zm0 0a.05.05 0 0 1-.002.011L0 33.3v5.847l.005-5.872zm-.166-.19a.875.875 0 0 1 .038-.132l.005-.014.007-.013a.858.858 0 0 1 .079-.118.86.86 0 0 1 .096-.124l.007-.008a.23.23 0 0 1 .033-.035l-.265.444zm0 0a.857.857 0 0 0-.034.167.232.232 0 0 0-.005.048v5.847a.867.867 0 0 0 .867.867h38.666a.867.867 0 0 0 .867-.867V.84l-.002-.012a.856.856 0 0 0-.019-.1.848.848 0 0 0-.034-.161l-.002-.008-.004-.008a.845.845 0 0 0-.078-.147.838.838 0 0 0-.049-.087l-.007-.01-.008-.01a.234.234 0 0 0-.044-.042.862.862 0 0 0-.124-.098.859.859 0 0 0-.119-.08l-.012-.006-.012-.005a.858.858 0 0 0-.137-.04.853.853 0 0 0-.167-.034.235.235 0 0 0-.049-.005h-.012l-.012.001a.822.822 0 0 0-.102.02.84.84 0 0 0-.16.034l-.008.002-.007.003a.843.843 0 0 0-.147.078.834.834 0 0 0-.088.05l-.011.006-.01.009L.285 32.486l-.001.001-.18.153-.265.445zm1.694.62L38.467 2.711v2.09L19.403 20.8l-.004.003-13.96 11.715-.007.006-2.887 2.423H1.533v-1.243zm36.934 4.575H1.533v-1.6h36.934v1.6zm0-3.333H5.24l1.112-.934h32.114v.934zM8.418 32.28l10.715-8.991v8.991H8.418zm12.449 0V21.834l.77-.646.163.164V32.28h-.933zm2.821-12.813L35.8 31.579v.701h-.62L22.97 20.07l.718-.603zm12.112 9.66L25.02 18.349 35.8 9.303v19.825zm-12.267-6.042 9.195 9.195h-9.195v-9.195zm14.934 9.195h-.934V7.849l.934-.784V32.28z" fill="#5CC773" stroke="#5CC773" stroke-width=".4"/>
</svg>
