<svg width="38" height="34" fill="none" xmlns="http://www.w3.org/2000/svg">
    <path d="M0 17.895v8.947c0 .475.182.93.506 1.266.324.335.763.524 1.221.524h1.728c0 1.423.545 2.789 1.517 3.796A5.092 5.092 0 0 0 8.636 34a5.092 5.092 0 0 0 3.665-1.572 5.468 5.468 0 0 0 1.517-3.796h10.364c0 1.423.546 2.789 1.518 3.796A5.092 5.092 0 0 0 29.364 34a5.092 5.092 0 0 0 3.664-1.572 5.468 5.468 0 0 0 1.517-3.796h1.728c.458 0 .897-.189 1.221-.524.324-.336.506-.791.506-1.266V5.368c0-1.423-.546-2.789-1.518-3.796A5.092 5.092 0 0 0 32.818 0H17.273a5.092 5.092 0 0 0-3.664 1.572 5.468 5.468 0 0 0-1.518 3.796v3.58H8.636c-.804 0-1.597.193-2.317.566a5.23 5.23 0 0 0-1.828 1.58L.345 16.822c-.05.078-.09.162-.12.25l-.104.197c-.076.2-.117.412-.121.627zm27.636 10.737c0-.354.102-.7.291-.995.19-.294.46-.523.776-.659.315-.135.663-.17.998-.102.335.07.642.24.884.49s.406.57.473.916c.066.348.032.707-.099 1.034-.13.327-.352.607-.636.803a1.685 1.685 0 0 1-.96.302c-.457 0-.897-.188-1.22-.524a1.822 1.822 0 0 1-.507-1.265zM15.546 5.368c0-.474.181-.93.505-1.265a1.697 1.697 0 0 1 1.222-.524h15.545c.458 0 .898.188 1.222.524.324.336.505.79.505 1.265v19.685h-1.347a5.191 5.191 0 0 0-1.738-1.299 5.029 5.029 0 0 0-4.193 0 5.191 5.191 0 0 0-1.738 1.299h-9.983V5.368zM12.09 16.105H5.18l2.074-2.863c.16-.222.37-.403.609-.527.24-.124.504-.189.772-.189h3.455v3.58zM6.909 28.632c0-.354.101-.7.291-.995.19-.294.46-.523.775-.659.316-.135.663-.17.998-.102.335.07.643.24.885.49.241.25.406.57.472.916a1.85 1.85 0 0 1-.098 1.034c-.13.327-.352.607-.636.803a1.685 1.685 0 0 1-.96.302c-.458 0-.897-.188-1.221-.524a1.823 1.823 0 0 1-.506-1.265zm-3.454-8.948h8.636v4.975A5.073 5.073 0 0 0 8.368 23.3a5.112 5.112 0 0 0-3.566 1.752H3.455v-5.369z" fill="#5CC773"/>
</svg>
