<svg width="25" height="25" fill="none" xmlns="http://www.w3.org/2000/svg">
    <path d="M11.875 0c-2.007.03-6.32.358-8.73 2.57C1.357 4.36.726 6.98.66 10.226c-.065 3.246-.15 9.332 5.716 10.982h.003l-.004 2.517s-.039 1.018.635 1.226c.81.252 1.286-.52 2.063-1.356a65.434 65.434 0 0 0 1.455-1.646c4.01.34 7.096-.433 7.448-.547.808-.262 5.392-.85 6.138-6.934.77-6.271-.375-10.24-2.438-12.027-.62-.573-3.131-2.396-8.724-2.42 0 0-.411-.026-1.08-.018L11.875 0zm.06 1.764c.568-.005.917.017.917.017 4.731.021 6.997 1.446 7.523 1.923 1.745 1.495 2.636 5.071 1.985 10.31v.002c-.629 5.08-4.347 5.4-5.033 5.62-.292.093-3.002.767-6.41.545 0 0-2.537 3.063-3.33 3.859-.124.125-.27.174-.366.15-.136-.035-.173-.196-.172-.432l.02-4.185c-4.96-1.375-4.671-6.554-4.614-9.266.057-2.712.566-4.935 2.08-6.43 2.041-1.847 5.701-2.102 7.406-2.114h-.006zm.396 2.71a.317.317 0 0 0-.004.632c1.692.01 3.069.56 4.196 1.659 1.118 1.09 1.688 2.57 1.701 4.514a.318.318 0 0 0 .32.313.317.317 0 0 0 .312-.317c-.014-2.067-.643-3.746-1.891-4.963-1.24-1.208-2.804-1.826-4.633-1.838zm-4.125.724a1.022 1.022 0 0 0-.641.122l-.01.002a4.81 4.81 0 0 0-1.195.97c-.002.005-.006.005-.008.009-.278.337-.437.665-.479.988a.621.621 0 0 0-.007.145c0 .142.023.282.067.417l.014.01c.14.5.493 1.33 1.255 2.713.438.8.94 1.563 1.506 2.277.282.358.584.701.907 1.025l.137.138c.323.32.667.625 1.025.906a16.17 16.17 0 0 0 2.277 1.507c1.384.764 2.215 1.115 2.713 1.256l.01.015c.181.06.373.079.563.057.323-.037.653-.198.987-.479.004 0 .003-.002.008-.005.386-.344.712-.75.97-1.196l.002-.01c.235-.45.157-.878-.187-1.167-.004 0-.727-.604-1.08-.865-.375-.265-.76-.512-1.16-.74-.531-.296-1.075-.11-1.3.182l-.465.588c-.24.294-.685.256-.685.256-3.25-.83-4.12-4.12-4.12-4.12s-.038-.444.259-.683l.586-.467c.289-.224.475-.768.177-1.3-.226-.4-.473-.787-.74-1.161-.279-.367-.567-.726-.864-1.079a.856.856 0 0 0-.523-.309l.001-.002zm4.677.917a.316.316 0 1 0-.018.63c1.208.09 2.1.486 2.755 1.199.656.716.969 1.587.944 2.677a.32.32 0 0 0 .635.013c.026-1.224-.348-2.284-1.111-3.118-.771-.844-1.852-1.306-3.178-1.402h-.027zm.483 1.697a.318.318 0 0 0-.313.3.319.319 0 0 0 .3.333c.545.029.912.182 1.16.44.25.255.404.645.433 1.212a.316.316 0 0 0 .63-.031c-.031-.671-.224-1.227-.604-1.622-.382-.394-.93-.598-1.583-.633h-.02l-.003.002z" fill="#5D21DC"/>
</svg>
