<svg width="22" height="22" fill="none" xmlns="http://www.w3.org/2000/svg">
    <path d="M0 21.272V.688A1.01 1.01 0 0 1 .688 0h20.584c.505.172.694.521.694 1.048-.006 6.623-.006 13.252-.006 19.875 0 .716-.315 1.031-1.031 1.031-6.617 0-13.235-.006-19.858.006-.532.006-.9-.172-1.071-.688zm1.73-1.048h17.222L1.73 3.002v17.222zM11.842 6.726h8.382V1.73h-8.382v4.996zm8.388 1.753h-5.002v5.008h5.002V8.479zM2.962 1.724c.029.04.034.052.046.064 1.621 1.62 3.243 3.242 4.87 4.864.057.057.16.085.246.085.481.006.957.006 1.438.006h.55V1.724h-7.15zm6.823 6.738c1.232 1.232 2.475 2.48 3.707 3.707-.006.023.006 0 .006-.017 0-1.17 0-2.344.006-3.512 0-.172-.08-.178-.212-.178-1.135.006-2.27 0-3.41 0h-.097zm6.732 6.76c1.238 1.238 2.48 2.487 3.707 3.713v-3.713h-3.707z" fill="#fff"/>
    <path d="M0 21.272V.688A1.01 1.01 0 0 1 .688 0h20.584c.505.172.694.521.694 1.048-.006 6.623-.006 13.252-.006 19.875 0 .716-.315 1.031-1.031 1.031h-4.963c-4.964-.002-9.928-.003-14.895.006-.532.006-.9-.172-1.071-.688zm1.73-1.048h17.222L1.73 3.002v17.222zM11.842 6.726h8.382V1.73h-8.382v4.996zm8.388 1.753h-5.002v5.008h5.002V8.479zM2.962 1.724l.024.035a.19.19 0 0 0 .022.029c1.621 1.62 3.243 3.242 4.87 4.864.057.057.16.085.246.085.481.006.957.006 1.438.006h.55V1.724h-7.15zm6.823 6.738 1.234 1.235c.825.826 1.652 1.654 2.473 2.472-.006.023.006 0 .006-.017 0-1.17 0-2.344.006-3.512 0-.172-.08-.178-.212-.178-.756.004-1.512.003-2.27.001l-1.14-.001h-.097zm6.732 6.76 1.862 1.865 1.845 1.848v-3.713h-3.707z" fill="#535257"/>
</svg>
