<svg width="40" height="42" fill="none" xmlns="http://www.w3.org/2000/svg">
    <path fill-rule="evenodd" clip-rule="evenodd" d="m34.79 13.22-7.264.01c-.794 3.333-3.974 5.828-7.441 5.828L9.398 19.04c-3.4-.192-6.107-2.906-6.107-6.239 0-2.824 1.941-5.209 4.609-5.988.256-3.648 3.22-6.527 6.845-6.527 2.702 0 5.035 1.605 6.159 3.933.643.039 1.266.17 1.852.371a5.429 5.429 0 0 1 3.56-1.592c.823-1.605 2.54-2.712 4.532-2.712 2.672 0 4.853 1.986 5.044 4.501 1.963.538 3.394 2.182 3.394 4.13 0 2.298-1.993 4.17-4.5 4.302h.004zM20.005 5.463c-1.026-2.867-3.028-3.877-5.28-3.877-3.394 0-5.464 3.12-5.464 6.468-2.488.203-4.667 2.396-4.684 4.85-.03 4.35 4.684 4.852 4.684 4.852h10.928c2.81 0 6.409-2.9 6.245-6.467-.122-2.655-2.562-6-6.428-5.826h-.001zm14.698.26c0-2.145-1.462-4.144-3.862-4.144-1.594 0-3.008.648-3.735 2.484-1.298-.054-2.365.402-3.137 1.075a7.431 7.431 0 0 1 3.742 6.488c0 .11-.013.207-.017.31h7s3.332-.317 3.311-3.107c-.013-1.573-1.552-2.977-3.31-3.107h.008zM11.648 23.588l-.643-1.942c-.065-.351.294-.58.643-.647.35-.066.578.296.643.647l.643 1.942c.066.352-.294.582-.643.648-.349.066-.578-.296-.643-.648zm1.929 5.179-.643-1.942c-.066-.352.294-.581.643-.647.349-.066.577.296.643.647l.642 1.942c.066.351-.293.581-.642.647-.35.066-.579-.296-.643-.647zm2.571 3.236.643 1.943c.065.351-.294.58-.643.647-.349.066-.577-.296-.643-.648l-.643-1.941c-.065-.352.294-.582.643-.648.35-.066.577.296.643.648zm0-11.004c.35-.066.577.296.643.647l.643 1.942c.065.352-.294.582-.643.648-.35.066-.577-.296-.643-.648l-.643-1.942c-.065-.351.294-.58.643-.647zm1.928 7.768-.642-1.942c-.066-.352.293-.581.642-.647.35-.066.578.296.643.647l.643 1.942c.066.351-.294.581-.643.647-.349.066-.578-.296-.643-.647zm2.572 3.236.643 1.943c.065.351-.294.58-.643.647-.35.066-.578-.296-.643-.648l-.643-1.941c-.065-.352.294-.582.643-.648.349-.066.577.296.643.648zm0-11.004c.349-.066.577.296.643.647l.642 1.942c.066.352-.293.582-.642.648-.35.066-.578-.296-.643-.648l-.643-1.942c-.066-.351.294-.58.643-.647zm1.928 7.768-.643-1.942c-.065-.352.294-.581.643-.647.35-.066.578.296.643.647l.643 1.942c.066.351-.294.581-.643.647-.349.066-.579-.296-.643-.647zm1.929 5.178-.643-1.941c-.066-.352.294-.582.643-.648.349-.066.577.296.643.648l.642 1.941c.066.352-.293.582-.642.648-.35.066-.579-.296-.643-.648zM9.186 28.768h2.37l.367 1.295H9.89c-.707 0-1.594.492-1.973 1.094l-5.226 6.667-.687 1.301A1.29 1.29 0 0 0 3.29 40.42h30.856c.71 0 1.285-.58 1.285-1.295l-.584-1.295-5.452-6.648c-.353-.614-1.221-1.12-1.928-1.12h-1.173l-.46-1.294h2.38c.706 0 1.574.505 1.928 1.12l6.427 8.117c.096.168.141.328.147.473h.01v.647a2.58 2.58 0 0 1-2.57 2.59H3.3a2.58 2.58 0 0 1-2.571-2.59v-.454c-.04-.182.003-.402.154-.641l6.338-8.168c.377-.602 1.267-1.094 1.972-1.094h-.007z" fill="#5CC773"/>
</svg>
