<svg width="36" height="47" fill="none" xmlns="http://www.w3.org/2000/svg">
    <path fill-rule="evenodd" clip-rule="evenodd" d="M23.357 38.747c3.61.66 6.071 1.965 6.071 3.467 0 2.17-5.117 3.929-11.428 3.929-6.312 0-11.429-1.76-11.429-3.929 0-1.503 2.462-2.807 6.072-3.467C7.19 34.134.143 25.27.143 18.3.143 8.43 8.137.43 18 .43c9.862 0 17.857 8.001 17.857 17.871 0 6.968-7.047 15.834-12.5 20.447zM8 42.214c0 .826 4.477 2.5 10 2.5s10-1.498 10-2.5c0-.757-2.552-1.788-6.172-2.252-.328.242-.645.462-.951.662 1.694.248 2.837.708 2.837 1.233 0 .789-2.559 1.429-5.714 1.429-3.156 0-5.715-.64-5.715-1.429 0-.525 1.143-.985 2.838-1.233a19.26 19.26 0 0 1-.925-.642C10.564 40.486 8 41.591 8 42.214zM18 1.852c-9.077 0-16.436 7.35-16.436 16.417 0 9.034 13.914 22.062 16.406 22.16h.061c2.49-.098 16.404-13.126 16.404-22.16 0-9.067-7.36-16.417-16.435-16.417zm0 28.577c-6.707 0-12.143-5.436-12.143-12.143 0-6.707 5.436-12.143 12.143-12.143 6.707 0 12.143 5.436 12.143 12.143 0 6.707-5.436 12.143-12.143 12.143zM18 7.56c-5.924 0-10.725 4.801-10.725 10.725 0 5.923 4.801 10.724 10.725 10.724 5.923 0 10.725-4.801 10.725-10.724S23.923 7.56 18 7.56zm7.143 12.868H23a.714.714 0 0 1-.715-.715l-.661-1.588-.767 2.303c.104.357-.13.541-.496.651a.53.53 0 0 1-.08.027l-.021.007c-.043.011-.077-.004-.117-.002-.035 0-.071.014-.114.002l-.021-.007a.429.429 0 0 1-.079-.027c-.364-.11-.6-.296-.493-.651l-.85-4.672-2.015 7.529c.104.357-.13.541-.496.651a.52.52 0 0 1-.08.027c-.007 0-.014 0-.021.007-.043.007-.076-.007-.116-.007-.036 0-.072.014-.115 0l-.021-.007a.35.35 0 0 1-.079-.029c-.364-.113-.6-.298-.493-.654l-.924-5.078-.512 1.518c0 .395-.32.715-.714.715h-2.143a.714.714 0 1 1 0-1.429h1.666l1.191-3.571c-.07-.236.06-.405.26-.529a.468.468 0 0 1 .414-.173c.014-.003.026-.01.04-.013.24-.058.395.058.507.232.162.12.263.275.208.483l.85 4.671L18 12.572c-.093-.315.153-.515.473-.636a.512.512 0 0 1 .122-.04c.04-.012.078-.029.119-.039.214-.053.366.03.476.175.203.114.315.278.238.54l.925 5.084.504-1.513c.007-.025.021-.049.03-.074.003-.014.012-.026.016-.04.033-.078.072-.157.122-.235l.005-.007a.659.659 0 0 1 .455-.315c.029-.007.055-.028.086-.035.214-.05.366.032.476.177.203.114.314.278.238.54l1.143 2.857h1.715a.715.715 0 0 1 0 1.428v-.01zM5.357 40.124c.171.165.378.405.357 1.019-.007.183-.155.266-.3.349-1.097.242-1.741.495-1.741.722 0 .25.544.554 1.471.861v.21c.736.59.907 1.314.51 1.637-2.074-.611-3.369-1.486-3.369-2.708 0-.904 1.172-1.589 3.072-2.09zm25.333 1.262c-.169-.24-.404-.486-.404-.734 0-.196.25-.395.422-.594 1.864.5 3.007 1.2 3.007 2.157 0 1.2-1.279 2.079-3.35 2.693a.543.543 0 0 1-.079-.257c0-.322.572-.693.572-1.093v-.279c.921-.328 1.457-.685 1.457-1.057 0-.302-.593-.582-1.622-.828l-.003-.008z" fill="#5CC773"/>
</svg>
