<svg width="24" height="24" fill="none" xmlns="http://www.w3.org/2000/svg">
    <mask id="a" maskUnits="userSpaceOnUse" x="-.001" y="0" width="24" height="24" fill="#000">
        <path fill="#fff" d="M-.001 0h24v24h-24z"/>
        <path fill-rule="evenodd" clip-rule="evenodd" d="M2.512 1h18.973c.835 0 1.514.578 1.514 1.29v19.42c0 .712-.68 1.29-1.514 1.29H2.512C1.678 23 1 22.422 1 21.71v-5.1c0-.237.226-.43.504-.43.279 0 .505.193.505.43v5.1c0 .238.226.43.504.43h2.83c-1.078-1.068-1.668-2.42-1.668-3.836 0-.237.226-.43.505-.43s.504.193.504.43c0 1.287.571 2.512 1.607 3.45l.428.386h5.795c-2.798-1.237-4.97-3.315-6.083-5.871-.855-1.964-2.382-3.626-4.417-4.804l-.005-.003v1.985c0 .237-.226.43-.505.43-.278 0-.504-.193-.504-.43V2.289C.999 1.58 1.678 1 2.512 1zm17.822 4.916a3.8 3.8 0 0 1 1.656.374V2.289c0-.237-.227-.43-.505-.43H11.008c-.13.136-.26.276-.383.421-3.262 3.817-3.262 10.027 0 13.843 1.54 1.802 3.573 2.795 5.724 2.795.278 0 .504.192.504.43 0 .237-.226.43-.505.43-2.481 0-4.804-1.119-6.539-3.15-1.7-1.989-2.636-4.626-2.636-7.426 0-2.761.91-5.364 2.565-7.343H4.385a8.08 8.08 0 0 1 .835 3.544v1.142c0 .237-.225.43-.504.43s-.505-.193-.505-.43V5.403c0-1.219-.32-2.44-.929-3.544h-.77c-.278 0-.504.193-.504.43v8.133l.573.332c2.209 1.28 3.867 3.083 4.796 5.216 1.216 2.794 3.805 4.967 7.103 5.963l.685.207h6.32c.278 0 .505-.192.505-.43v-4.16a9.218 9.218 0 0 1-.614.508.556.556 0 0 1-.335.108.546.546 0 0 1-.378-.145c-.184-.178-.165-.45.043-.607a8.646 8.646 0 0 0 1.284-1.197v-4.142a3.801 3.801 0 0 1-1.656.373 3.699 3.699 0 0 1-2.531-.97c-1.364-1.266-1.364-3.326 0-4.592a3.699 3.699 0 0 1 2.531-.97zm1.656 5.095V7.353a2.623 2.623 0 0 0-1.656-.577c-.672 0-1.307.245-1.787.691a2.307 2.307 0 0 0 0 3.43c.48.446 1.115.691 1.787.691.613 0 1.194-.204 1.656-.577zm-5.924-7.812a.43.43 0 0 0-.55-.257 5.615 5.615 0 0 0-2.32 1.637.43.43 0 1 0 .652.559A4.754 4.754 0 0 1 15.81 3.75a.43.43 0 0 0 .257-.551zM3.365 14.648a.432.432 0 0 0-.608 0 .433.433 0 0 0 .304.734.432.432 0 0 0 .43-.43.434.434 0 0 0-.126-.304zm14.562.616a.429.429 0 0 0-.453-.405h-.008a.43.43 0 0 0 .05.858h.007a.43.43 0 0 0 .404-.454zm-4.08-2.037c.615.717 1.38 1.226 2.214 1.471a.43.43 0 0 1-.243.825c-.993-.293-1.9-.893-2.624-1.737-1.591-1.855-2.075-4.62-1.231-7.045a.43.43 0 1 1 .811.282c-.744 2.14-.323 4.576 1.072 6.204z"/>
    </mask>
    <path fill-rule="evenodd" clip-rule="evenodd" d="M2.512 1h18.973c.835 0 1.514.578 1.514 1.29v19.42c0 .712-.68 1.29-1.514 1.29H2.512C1.678 23 1 22.422 1 21.71v-5.1c0-.237.226-.43.504-.43.279 0 .505.193.505.43v5.1c0 .238.226.43.504.43h2.83c-1.078-1.068-1.668-2.42-1.668-3.836 0-.237.226-.43.505-.43s.504.193.504.43c0 1.287.571 2.512 1.607 3.45l.428.386h5.795c-2.798-1.237-4.97-3.315-6.083-5.871-.855-1.964-2.382-3.626-4.417-4.804l-.005-.003v1.985c0 .237-.226.43-.505.43-.278 0-.504-.193-.504-.43V2.289C.999 1.58 1.678 1 2.512 1zm17.822 4.916a3.8 3.8 0 0 1 1.656.374V2.289c0-.237-.227-.43-.505-.43H11.008c-.13.136-.26.276-.383.421-3.262 3.817-3.262 10.027 0 13.843 1.54 1.802 3.573 2.795 5.724 2.795.278 0 .504.192.504.43 0 .237-.226.43-.505.43-2.481 0-4.804-1.119-6.539-3.15-1.7-1.989-2.636-4.626-2.636-7.426 0-2.761.91-5.364 2.565-7.343H4.385a8.08 8.08 0 0 1 .835 3.544v1.142c0 .237-.225.43-.504.43s-.505-.193-.505-.43V5.403c0-1.219-.32-2.44-.929-3.544h-.77c-.278 0-.504.193-.504.43v8.133l.573.332c2.209 1.28 3.867 3.083 4.796 5.216 1.216 2.794 3.805 4.967 7.103 5.963l.685.207h6.32c.278 0 .505-.192.505-.43v-4.16a9.218 9.218 0 0 1-.614.508.556.556 0 0 1-.335.108.546.546 0 0 1-.378-.145c-.184-.178-.165-.45.043-.607a8.646 8.646 0 0 0 1.284-1.197v-4.142a3.801 3.801 0 0 1-1.656.373 3.699 3.699 0 0 1-2.531-.97c-1.364-1.266-1.364-3.326 0-4.592a3.699 3.699 0 0 1 2.531-.97zm1.656 5.095V7.353a2.623 2.623 0 0 0-1.656-.577c-.672 0-1.307.245-1.787.691a2.307 2.307 0 0 0 0 3.43c.48.446 1.115.691 1.787.691.613 0 1.194-.204 1.656-.577zm-5.924-7.812a.43.43 0 0 0-.55-.257 5.615 5.615 0 0 0-2.32 1.637.43.43 0 1 0 .652.559A4.754 4.754 0 0 1 15.81 3.75a.43.43 0 0 0 .257-.551zM3.365 14.648a.432.432 0 0 0-.608 0 .433.433 0 0 0 .304.734.432.432 0 0 0 .43-.43.434.434 0 0 0-.126-.304zm14.562.616a.429.429 0 0 0-.453-.405h-.008a.43.43 0 0 0 .05.858h.007a.43.43 0 0 0 .404-.454zm-4.08-2.037c.615.717 1.38 1.226 2.214 1.471a.43.43 0 0 1-.243.825c-.993-.293-1.9-.893-2.624-1.737-1.591-1.855-2.075-4.62-1.231-7.045a.43.43 0 1 1 .811.282c-.744 2.14-.323 4.576 1.072 6.204z" fill="#535257"/>
    <path d="M15.082 23v-.3h-.01l.01.3zm-.004 0-.011.3H15.088l-.01-.3zm-.003 0 .01-.3h-.01v.3zm-9.733-.86v.3h.73l-.519-.513-.21.213zm.948-.386.202-.223-.202.223zm.428.386-.201.223.086.078h.115v-.3zm5.795 0v.3l.121-.574-.121.274zM6.43 16.27l-.275.12.275-.12zm-4.417-4.804-.15.26.15-.26zm-.005-.003.15-.26-.45-.261v.52h.3zM21.99 6.29l-.13.27.43.208V6.29h-.3zM11.008 1.86v-.3h-.127l-.088.09.215.21zm-.383.42.228.195-.228-.195zm0 13.843-.228.195.228-.195zm-.816.506-.228.195.228-.195zm-.07-14.77.23.193.411-.493h-.642v.3zm-5.354 0v-.3h-.48l.21.432.27-.132zm-1.103 0 .263-.144-.085-.156h-.178v.3zm-1.274 8.563h-.3v.173l.15.087.15-.26zm.573.332.15-.26-.15.26zm4.796 5.216-.276.12.276-.12zm7.103 5.963.086-.287-.086.287zm.685.207-.087.288.043.012h.044v-.3zm6.825-.43h.3-.3zm0-4.16h.3v-.673l-.501.45.2.224zm-.614.508-.181-.24.18.24zm-.713-.037-.207.216.207-.216zm.043-.607.181.24-.18-.24zm1.284-1.197.225.198.075-.085v-.113h-.3zm0-4.142h.3v-.478l-.43.207.13.27zm-4.187-.597-.204.22.204-.22zm0-4.592-.204-.22.204.22zm4.187.467h.3V7.21l-.112-.09-.188.233zm0 3.658.188.233.112-.09v-.143h-.3zm-1.656-4.235v-.3.3zm-1.787.691.204.22-.204-.22zm0 3.43.204-.22-.204.22zm-3.032-7.955.103.282-.103-.282zm.551.257.282-.103-.282.103zm-2.87 1.38.228.195-.228-.195zm.046.605.196-.227-.196.227zm.606-.046.228.195-.228-.195zM15.81 3.75l.103.281-.103-.281zM3.365 14.648l.213-.212-.213.212zm-.608 0-.212-.212.212.212zm0 .608-.212.212.212-.212zm.608 0 .212.212-.212-.212zm14.109-.397-.017-.3.017.3zm.453.405-.299.017.3-.018zm-.46-.404-.017-.3h-.001l.017.3zm-.405.453.3-.017-.3.017zm.453.404-.016-.3.017.3zm.008 0 .017.3-.017-.3zm-1.462-1.019-.085.288.085-.288zm-2.215-1.472.228-.195-.228.195zm2.506 2.006.287.085-.287-.085zm-.534.29.085-.287-.085.288zm-2.624-1.736-.228.195.228-.195zM11.963 6.74l.283.098-.283-.098zm.546-.265.1-.283h-.001l-.099.283zm.265.547.284.099-.284-.099zM21.485.7H2.512v.6h18.973V.7zm1.814 1.59c0-.92-.86-1.59-1.814-1.59v.6c.716 0 1.214.487 1.214.99h.6zm0 19.42V2.29h-.6v19.42h.6zm-1.814 1.59c.953 0 1.814-.67 1.814-1.59h-.6c0 .502-.498.99-1.214.99v.6zm-6.403 0h6.403v-.6h-6.403v.6zm.006 0h.004l-.02-.6h-.004l.02.6zm-.024 0h.003l.022-.6h-.004l-.022.6zm-12.552 0h12.563v-.6H2.511v.6zM.7 21.71c0 .92.86 1.59 1.813 1.59v-.6c-.716 0-1.213-.488-1.213-.99h-.6zm0-5.1v5.1h.6v-5.1h-.6zm.804-.73c-.397 0-.804.284-.804.73h.6c0-.019.008-.046.042-.075a.251.251 0 0 1 .162-.055v-.6zm.805.73c0-.446-.407-.73-.805-.73v.6c.071 0 .128.025.163.055.034.029.042.056.042.075h.6zm0 5.1v-5.1h-.6v5.1h.6zm.204.13a.251.251 0 0 1-.162-.054c-.034-.03-.042-.057-.042-.075h-.6c0 .446.408.73.804.73v-.6zm2.83 0h-2.83v.6h2.83v-.6zm-1.968-3.536c0 1.503.627 2.93 1.757 4.05l.422-.427c-1.025-1.017-1.579-2.294-1.579-3.623h-.6zm.805-.73c-.397 0-.805.283-.805.73h.6c0-.019.008-.046.043-.076a.25.25 0 0 1 .162-.054v-.6zm.804.73c0-.447-.407-.73-.804-.73v.6a.25.25 0 0 1 .162.054c.034.03.042.057.042.076h.6zm1.509 3.227c-.98-.886-1.509-2.032-1.509-3.227h-.6c0 1.38.613 2.683 1.706 3.672l.403-.445zm.427.387-.427-.387-.403.445.428.387.402-.445zm5.594-.078H6.718v.6h5.795v-.6zM6.155 16.39c1.147 2.633 3.378 4.762 6.236 6.026l.243-.549c-2.738-1.21-4.85-3.238-5.929-5.717l-.55.24zm-4.292-4.664c1.984 1.15 3.465 2.764 4.292 4.664l.55-.24c-.883-2.029-2.457-3.736-4.541-4.944l-.301.52zm-.006-.004.006.004.301-.52-.006-.003-.3.52zm.45 1.726v-1.985h-.6v1.985h.6zm-.804.73c.398 0 .805-.284.805-.73h-.6c0 .018-.008.046-.042.075a.25.25 0 0 1-.163.054v.6zm-.804-.73c0 .446.407.73.804.73v-.6a.25.25 0 0 1-.162-.055c-.034-.03-.042-.057-.042-.075h-.6zm0-2.798v2.798h.6v-2.798h-.6zm0-.002v.002h.6v-.002h-.6zm0-8.358v8.358h.6V2.29h-.6zM2.512.7C1.56.7.7 1.37.7 2.29h.6c0-.503.497-.99 1.213-.99V.7zM22.12 6.02a4.1 4.1 0 0 0-1.786-.404v.6a3.5 3.5 0 0 1 1.525.344l.261-.54zm-.43-3.731v4h.6v-4h-.6zm-.205-.13c.07 0 .127.025.162.055s.043.057.043.075h.6c0-.446-.408-.73-.805-.73v.6zm-10.477 0h10.477v-.6H11.008v.6zm-.155.316c.12-.14.244-.276.37-.407l-.43-.417a9.52 9.52 0 0 0-.396.434l.456.39zm0 13.453c-3.166-3.704-3.166-9.749 0-13.453l-.456-.39c-3.358 3.929-3.358 10.304 0 14.233l.456-.39zm5.496 2.69c-2.054 0-4.006-.947-5.496-2.69l-.456.39c1.59 1.861 3.704 2.9 5.952 2.9v-.6zm.804.73c0-.447-.407-.73-.804-.73v.6c.07 0 .127.024.162.054.034.03.042.057.042.076h.6zm-.804.73c.397 0 .804-.284.804-.73h-.6c0 .018-.008.046-.042.075a.251.251 0 0 1-.162.054v.6zM9.58 16.823c1.787 2.09 4.19 3.253 6.768 3.253v-.6c-2.387 0-4.629-1.074-6.312-3.043l-.456.39zM6.873 9.202c0 2.866.958 5.574 2.708 7.622l.456-.39c-1.65-1.931-2.564-4.498-2.564-7.232h-.6zm2.635-7.535C7.805 3.704 6.873 6.376 6.873 9.202h.6c0-2.696.889-5.229 2.495-7.15l-.46-.385zm-5.123.492h5.353v-.6H4.385v.6zM5.52 5.403a8.38 8.38 0 0 0-.865-3.675l-.54.263a7.78 7.78 0 0 1 .805 3.412h.6zm0 1.142V5.403h-.6v1.142h.6zm-.804.73c.397 0 .804-.284.804-.73h-.6c0 .018-.008.046-.042.075a.251.251 0 0 1-.162.054v.6zm-.805-.73c0 .446.408.73.805.73v-.6a.251.251 0 0 1-.162-.055c-.035-.029-.043-.057-.043-.075h-.6zm0-1.142v1.142h.6V5.403h-.6zM3.02 2.004a7.063 7.063 0 0 1 .891 3.399h.6a7.663 7.663 0 0 0-.966-3.688l-.525.29zm-.508.155h.77v-.6h-.77v.6zm-.204.13c0-.018.008-.046.042-.075a.251.251 0 0 1 .162-.055v-.6c-.396 0-.804.284-.804.73h.6zm0 8.133V2.29h-.6v8.133h.6zm.423.073-.573-.332-.3.52.573.331.3-.52zm4.92 5.356c-.956-2.198-2.661-4.048-4.92-5.356l-.3.52c2.158 1.25 3.77 3.007 4.67 5.075l.55-.24zm6.915 5.795c-3.225-.974-5.738-3.094-6.914-5.796l-.55.24c1.256 2.886 3.921 5.113 7.29 6.13l.174-.574zm.686.207-.686-.207-.173.575.685.207.174-.575zm6.233-.013h-6.32v.6h6.32v-.6zm.205-.13c0 .019-.008.047-.043.076a.251.251 0 0 1-.162.054v.6c.397 0 .805-.283.805-.73h-.6zm0-4.16v4.16h.6v-4.16h-.6zm-.134.747c.218-.164.43-.339.634-.523l-.401-.446a8.934 8.934 0 0 1-.594.49l.361.479zm-.515.169a.856.856 0 0 0 .515-.169l-.361-.479a.256.256 0 0 1-.154.048v.6zm-.585-.229c.162.157.38.229.585.229v-.6a.247.247 0 0 1-.17-.061l-.415.432zm.07-1.062a.686.686 0 0 0-.07 1.062l.415-.432c-.031-.03-.035-.057-.034-.074 0-.017.01-.047.05-.077l-.361-.48zm1.238-1.156a8.348 8.348 0 0 1-1.238 1.156l.361.479a8.95 8.95 0 0 0 1.328-1.24l-.45-.395zm-.074-3.944v4.142h.6v-4.142h-.6zm-1.356.673a4.1 4.1 0 0 0 1.786-.403l-.26-.54a3.5 3.5 0 0 1-1.526.343v.6zm-2.735-1.05a4 4 0 0 0 2.735 1.05v-.6a3.399 3.399 0 0 1-2.327-.89l-.408.44zm0-5.032c-1.492 1.385-1.492 3.647 0 5.032l.408-.44c-1.236-1.147-1.236-3.005 0-4.152l-.408-.44zm2.735-1.05a4 4 0 0 0-2.735 1.05l.408.44a3.4 3.4 0 0 1 2.327-.89v-.6zm1.356 1.737v3.658h.6V7.353h-.6zm-1.356-.277c.546 0 1.06.182 1.467.51l.377-.466a2.923 2.923 0 0 0-1.844-.644v.6zm-1.583.611a2.315 2.315 0 0 1 1.583-.611v-.6c-.746 0-1.454.273-1.992.771l.409.44zm0 2.99a2.007 2.007 0 0 1 0-2.99l-.409-.44a2.607 2.607 0 0 0 0 3.87l.409-.44zm1.583.611c-.599 0-1.16-.218-1.583-.61l-.409.439a2.915 2.915 0 0 0 1.992.771v-.6zm1.467-.51c-.407.329-.921.51-1.467.51v.6c.68 0 1.328-.226 1.844-.644l-.377-.466zm-6.183-7.554a.13.13 0 0 1 .166.077l.564-.205a.73.73 0 0 0-.935-.436l.205.564zm-2.194 1.55a5.316 5.316 0 0 1 2.194-1.55l-.205-.564a5.916 5.916 0 0 0-2.445 1.723l.456.39zm.014.183a.13.13 0 0 1-.014-.183l-.456-.39a.73.73 0 0 0 .08 1.028l.39-.455zm.084.03c-.03 0-.06-.01-.084-.03l-.39.455a.728.728 0 0 0 .474.176v-.6zm.099-.044a.129.129 0 0 1-.1.045v.6c.206 0 .41-.086.555-.255l-.455-.39zm2.086-1.475a5.053 5.053 0 0 0-2.086 1.475l.455.39a4.454 4.454 0 0 1 1.836-1.302l-.205-.563zm.077-.167a.13.13 0 0 1-.077.167l.205.563a.73.73 0 0 0 .436-.935l-.564.205zM3.061 14.822c.034 0 .069.015.092.038l.424-.424a.732.732 0 0 0-.516-.213v.6zm-.091.038a.133.133 0 0 1 .091-.037v-.6a.732.732 0 0 0-.516.213l.425.424zm-.039.092c0-.033.015-.068.04-.092l-.426-.424a.734.734 0 0 0-.214.516h.6zm.039.092a.133.133 0 0 1-.039-.092h-.6c0 .193.078.38.214.516l.425-.424zm.091.038a.133.133 0 0 1-.092-.038l-.424.424a.733.733 0 0 0 .516.214v-.6zm.092-.038a.133.133 0 0 1-.092.038v.6c.193 0 .38-.078.516-.214l-.424-.424zm.038-.092a.134.134 0 0 1-.039.092l.426.423a.734.734 0 0 0 .213-.515h-.6zm-.039-.092c.025.024.039.059.039.092h.6a.734.734 0 0 0-.213-.516l-.426.424zm14.338.299a.129.129 0 0 1 .138.122l.599-.035a.729.729 0 0 0-.77-.687l.034.6zm-.007 0h.008l-.034-.6-.008.001.034.599zm-.122.137a.13.13 0 0 1 .122-.137l-.034-.599a.73.73 0 0 0-.687.77l.6-.034zm.13.122a.13.13 0 0 1-.13-.122l-.599.034a.73.73 0 0 0 .729.688v-.6zm.008 0a.14.14 0 0 1-.008 0v.6l.041-.001-.033-.6zm.007 0H17.5l.033.599h.008l-.034-.6zm.122-.137a.13.13 0 0 1-.122.136l.034.6a.73.73 0 0 0 .687-.77l-.599.034zm-1.483-.87c-.772-.228-1.49-.702-2.07-1.38l-.456.39c.65.758 1.463 1.302 2.357 1.565l.17-.576zm.494.905a.73.73 0 0 0-.494-.906l-.17.576a.13.13 0 0 1 .089.161l.575.17zm-.7.524a.73.73 0 0 0 .7-.524l-.575-.169a.13.13 0 0 1-.125.093v.6zm-.206-.03c.069.02.138.03.206.03v-.6a.13.13 0 0 1-.036-.005l-.17.575zm-2.767-1.829c.759.885 1.715 1.52 2.767 1.83l.17-.576c-.934-.275-1.792-.841-2.481-1.644l-.456.39zM11.68 6.642c-.876 2.52-.377 5.398 1.287 7.34l.456-.391c-1.518-1.77-1.986-4.422-1.176-6.752l-.567-.197zm.929-.45a.73.73 0 0 0-.929.45l.567.197a.13.13 0 0 1 .165-.08l.197-.566zm.45.93a.73.73 0 0 0-.45-.93l-.197.567a.13.13 0 0 1 .08.166l.567.197zm1.016 5.91c-1.322-1.542-1.728-3.863-1.016-5.91l-.567-.197c-.777 2.234-.342 4.783 1.128 6.497l.455-.39z" fill="#535257" mask="url(#a)"/>
</svg>
