<svg width="32" height="24" fill="none" xmlns="http://www.w3.org/2000/svg">
    <path d="M31.326 4.271a4.006 4.006 0 0 0-2.787-2.78C26.044.822 16.014.822 16.014.822S6.004.807 3.482 1.49a4.005 4.005 0 0 0-2.78 2.781 41.574 41.574 0 0 0-.698 7.745 42.136 42.136 0 0 0 .697 7.708 4.022 4.022 0 0 0 2.781 2.787c2.495.667 12.532.667 12.532.667s10.005 0 12.525-.667a4.023 4.023 0 0 0 2.787-2.787c.46-2.54.683-5.125.667-7.708.016-2.6-.203-5.188-.667-7.745zM12.81 16.803V7.208l8.35 4.808-8.35 4.787z" fill="#fff"/>
</svg>
