<svg width="55" height="473" fill="none" xmlns="http://www.w3.org/2000/svg">
    <path d="m4.74 12.975-.857-.516-.001.002.858.514zm9.205-8.435-.445-.896-.004.003.449.893zm27.51 0 .45-.893-.005-.002-.445.895zm9.205 8.435.858-.514-.002-.002-.856.516zm0 26.075-.856-.516-.002.002.858.514zm-9.205 8.435-.445-.895-.004.002.449.893zm-27.51 0 .45-.893-.005-.002-.445.895zM4.74 39.05l.858-.514-.001-.002-.857.516zm5.67-13.02-1-.015 1 .015zm2.065 7.98-.83.557.83-.557zm6.055 4.76.38-.925-.007-.003-.373.928zm18.27 0-.379-.926-.007.003.386.923zm5.985-4.76.83.557-.83-.557zm2.205-7.98 1 .015-1-.015zm-8.12-12.775.38-.925-.007-.003-.373.928zm-18.27 0-.379-.926-.007.003.386.923zm-5.985 4.795-.83-.557.83.557zM2.45 26.03c0-4.892 1.063-9.06 3.148-12.541L3.882 12.46C1.58 16.306.45 20.842.45 26.03h2zm3.147-12.539c2.092-3.472 5.016-6.156 8.797-8.058l-.898-1.786C9.39 5.71 6.178 8.65 3.883 12.459l1.714 1.032zm8.793-8.056C18.172 3.555 22.6 2.6 27.7 2.6v-2c-5.352 0-10.095 1.004-14.2 3.045l.89 1.79zM27.7 2.6c5.1 0 9.528.956 13.31 2.835l.89-1.79C37.795 1.605 33.053.6 27.7.6v2zm13.306 2.833c3.781 1.902 6.705 4.586 8.797 8.058l1.714-1.032c-2.295-3.808-5.508-6.748-9.613-8.812l-.898 1.786zm8.796 8.056c2.085 3.482 3.148 7.649 3.148 12.541h2c0-5.188-1.13-9.724-3.432-13.569l-1.716 1.028zM52.95 26.03c0 4.892-1.063 9.047-3.147 12.504l1.714 1.032c2.303-3.823 3.433-8.348 3.433-13.536h-2zm-3.148 12.506c-2.092 3.494-5.014 6.176-8.792 8.053l.89 1.791c4.11-2.042 7.323-4.983 9.618-8.816l-1.716-1.028zm-8.796 8.056c-3.78 1.901-8.207 2.868-13.306 2.868v2c5.354 0 10.098-1.016 14.204-3.082l-.898-1.786zM27.7 49.46c-5.1 0-9.525-.967-13.306-2.868l-.898 1.786c4.106 2.066 8.85 3.082 14.204 3.082v-2zm-13.31-2.87c-3.778-1.878-6.7-4.56-8.792-8.054l-1.716 1.028c2.295 3.833 5.509 6.774 9.618 8.816l.89-1.79zm-8.793-8.056C3.513 35.077 2.45 30.922 2.45 26.03h-2c0 5.188 1.13 9.713 3.433 13.536l1.714-1.032zM9.41 26.015c-.049 3.35.672 6.222 2.234 8.552l1.662-1.114c-1.285-1.916-1.94-4.364-1.896-7.408l-2-.03zm2.234 8.552c1.547 2.307 3.733 4.014 6.513 5.13l.746-1.855c-2.447-.983-4.297-2.45-5.597-4.389l-1.662 1.114zm6.506 5.128c2.759 1.133 5.95 1.685 9.55 1.685v-2c-3.4 0-6.322-.522-8.79-1.535l-.76 1.85zm9.55 1.685c3.6 0 6.77-.552 9.486-1.687l-.772-1.846C33.997 38.858 31.1 39.38 27.7 39.38v2zm9.479-1.684c2.734-1.119 4.893-2.827 6.437-5.13l-1.662-1.113c-1.303 1.944-3.134 3.41-5.533 4.391l.758 1.852zm6.437-5.13c1.555-2.32 2.325-5.18 2.374-8.521l-2-.03c-.044 3.052-.744 5.511-2.036 7.438l1.662 1.114zm2.374-8.521c.049-3.35-.672-6.222-2.234-8.552l-1.662 1.114c1.285 1.916 1.94 4.364 1.896 7.408l2 .03zm-2.234-8.552c-1.546-2.305-3.73-4.023-6.506-5.163l-.76 1.85c2.45 1.006 4.303 2.485 5.604 4.427l1.662-1.114zm-6.513-5.166c-2.757-1.107-5.945-1.647-9.543-1.647v2c3.402 0 6.327.51 8.797 1.503l.746-1.856zM27.7 10.68c-3.597 0-6.765.54-9.479 1.65l.758 1.85c2.42-.99 5.318-1.5 8.721-1.5v-2zm-9.486 1.652c-2.73 1.142-4.887 2.86-6.43 5.161l1.662 1.114c1.304-1.946 3.137-3.425 5.54-4.43l-.772-1.845zm-6.43 5.161c-1.555 2.32-2.325 5.18-2.374 8.522l2 .03c.044-3.052.744-5.511 2.036-7.438l-1.662-1.114zM2.5 71.461v-1h-1v1h1zm50.4 0h1v-1h-1v1zm0 9.52v1h1v-1h-1zm-23.24 0v-1h-2.783l2.146 1.77.637-.77zm23.24 19.18h1v-.472l-.364-.3-.636.772zm0 11.62-.647.762 1.647 1.397v-2.159h-1zm-24.85-21.07.647-.763-.658-.558-.648.569.659.751zM2.5 113.11h-1v2.206l1.66-1.455-.66-.751zm0-12.04-.659-.753-.341.299v.454h1zm22.96-20.09.659.752 2.002-1.752H25.46v1zm-22.96 0h-1v1h1v-1zm0-8.52h50.4v-2H2.5v2zm49.4-1v9.52h2v-9.52h-2zm1 8.52H29.66v2H52.9v-2zm-23.877 1.77 23.24 19.181 1.273-1.543-23.24-19.18-1.273 1.543zm22.877 18.41v11.62h2v-11.62h-2zm1.647 10.857-24.85-21.07-1.294 1.525 24.85 21.07 1.294-1.525zM27.39 89.958 1.84 112.36l1.318 1.503 25.55-22.4-1.318-1.503zM3.5 113.112v-12.04h-2v12.04h2zm-.341-11.288 22.96-20.09-1.317-1.505-22.96 20.09 1.317 1.505zM25.46 79.981H2.5v2h22.96v-2zm-21.96 1v-9.52h-2v9.52h2zm1.24 42.805-.857-.517-.001.003.858.514zm9.205-8.435-.445-.896-.004.002.449.894zm27.51 0 .45-.894-.005-.002-.445.896zm9.205 8.435.858-.514-.002-.003-.856.517zm0 26.075-.856-.517-.002.003.858.514zm-9.205 8.435-.445-.896-.004.002.449.894zm-27.51 0 .45-.894-.005-.002-.445.896zm-9.205-8.435.858-.514-.001-.003-.857.517zm5.67-13.02-1-.015 1 .015zm2.065 7.98-.83.556.83-.556zm6.055 4.76.38-.926-.007-.002-.373.928zm18.27 0-.379-.926-.007.003.386.923zm5.985-4.76.83.556-.83-.556zm2.205-7.98 1 .014-1-.014zm-8.12-12.775.38-.925-.007-.003-.373.928zm-18.27 0-.379-.926-.007.003.386.923zm-5.985 4.795-.83-.557.83.557zm-10.165 7.98c0-4.892 1.063-9.06 3.148-12.542l-1.716-1.027C1.58 127.116.45 131.653.45 136.841h2zm3.147-12.539c2.092-3.472 5.016-6.156 8.797-8.058l-.898-1.787c-4.105 2.065-7.318 5.004-9.613 8.812l1.714 1.033zm8.793-8.056c3.782-1.88 8.21-2.835 13.31-2.835v-2c-5.352 0-10.095 1.004-14.2 3.044l.89 1.791zm13.31-2.835c5.1 0 9.528.955 13.31 2.835l.89-1.791c-4.105-2.04-8.847-3.044-14.2-3.044v2zm13.306 2.833c3.781 1.902 6.705 4.586 8.797 8.058l1.714-1.033c-2.295-3.808-5.508-6.747-9.613-8.812l-.898 1.787zm8.796 8.055c2.085 3.482 3.148 7.65 3.148 12.542h2c0-5.188-1.13-9.725-3.432-13.569l-1.716 1.027zm3.148 12.542c0 4.892-1.063 9.046-3.147 12.503l1.714 1.033c2.303-3.823 3.433-8.349 3.433-13.536h-2zm-3.148 12.506c-2.092 3.494-5.014 6.175-8.792 8.053l.89 1.791c4.11-2.042 7.323-4.984 9.618-8.817l-1.716-1.027zm-8.796 8.055c-3.78 1.902-8.207 2.869-13.306 2.869v2c5.354 0 10.098-1.017 14.204-3.082l-.898-1.787zM27.7 160.271c-5.1 0-9.525-.967-13.306-2.869l-.898 1.787c4.106 2.065 8.85 3.082 14.204 3.082v-2zM14.39 157.4c-3.778-1.878-6.7-4.559-8.792-8.053l-1.716 1.027c2.295 3.833 5.509 6.775 9.618 8.817l.89-1.791zm-8.793-8.056c-2.084-3.457-3.147-7.611-3.147-12.503h-2c0 5.187 1.13 9.713 3.433 13.536l1.714-1.033zm3.813-12.518c-.049 3.349.672 6.221 2.234 8.551l1.662-1.113c-1.285-1.917-1.94-4.364-1.896-7.409l-2-.029zm2.234 8.551c1.547 2.307 3.733 4.015 6.513 5.131l.746-1.855c-2.447-.983-4.297-2.45-5.597-4.389l-1.662 1.113zm6.506 5.129c2.759 1.133 5.95 1.685 9.55 1.685v-2c-3.4 0-6.322-.522-8.79-1.535l-.76 1.85zm9.55 1.685c3.6 0 6.77-.552 9.486-1.688l-.772-1.845c-2.417 1.011-5.314 1.533-8.714 1.533v2zm9.479-1.685c2.734-1.118 4.893-2.826 6.437-5.129l-1.662-1.113c-1.303 1.944-3.134 3.41-5.533 4.391l.758 1.851zm6.437-5.129c1.555-2.32 2.325-5.18 2.374-8.522l-2-.029c-.044 3.052-.744 5.511-2.036 7.438l1.662 1.113zm2.374-8.522c.049-3.349-.672-6.221-2.234-8.551l-1.662 1.113c1.285 1.917 1.94 4.364 1.896 7.409l2 .029zm-2.234-8.551c-1.546-2.305-3.73-4.023-6.506-5.163l-.76 1.85c2.45 1.006 4.303 2.485 5.604 4.426l1.662-1.113zm-6.513-5.166c-2.757-1.108-5.945-1.647-9.543-1.647v2c3.402 0 6.327.51 8.797 1.502l.746-1.855zm-9.543-1.647c-3.597 0-6.765.539-9.479 1.649l.758 1.851c2.42-.99 5.318-1.5 8.721-1.5v-2zm-9.486 1.652c-2.73 1.142-4.887 2.86-6.43 5.161l1.662 1.113c1.304-1.946 3.137-3.424 5.54-4.429l-.772-1.845zm-6.43 5.161c-1.555 2.32-2.325 5.18-2.374 8.522l2 .029c.044-3.052.744-5.511 2.036-7.438l-1.662-1.113zM2.5 168.257v-1h-1v1h1zm50.4 0h1v-1h-1v1zm0 8.54.446.896.554-.276v-.62h-1zm-33.46 16.66-.446-.895-1.798.895 1.798.896.446-.896zm33.46 16.66h1v-.619l-.554-.276-.446.895zm0 8.54v1h1v-1h-1zm-50.4 0h-1v1h1v-1zm0-8.89v-1h-1v1h1zm30.1 0v1l.437-1.899-.437.899zm-30.1-14.63h-1v.626l.563.274.437-.9zm0-3.36-.437-.899-.563.274v.625h1zm30.1-14.63.437.9-.437-1.9v1zm-30.1 0h-1v1h1v-1zm0-7.89h50.4v-2H2.5v2zm49.4-1v8.54h2v-8.54h-2zm.554 7.645-33.46 16.66.892 1.791 33.46-16.66-.892-1.791zm-33.46 18.451 33.46 16.66.892-1.791-33.46-16.66-.892 1.791zM51.9 210.117v8.54h2v-8.54h-2zm1 7.54H2.5v2h50.4v-2zm-49.4 1v-8.89h-2v8.89h2zm-1-7.89h30.1v-2H2.5v2zm30.537-1.899-30.1-14.63-.874 1.799 30.1 14.63.874-1.799zM3.5 195.137v-3.36h-2v3.36h2zm-.563-2.46 30.1-14.63-.874-1.799-30.1 14.63.874 1.799zm29.663-16.53H2.5v2h30.1v-2zm-29.1 1v-8.89h-2v8.89h2zm-1 51.335v-1h-1v1h1zm50.4 0h1v-1h-1v1zm0 41.58v1h1v-1h-1zm-50.4 0h-1v1h1v-1zm0-9.52v-1h-1v1h1zm41.51 0v1h1v-1h-1zm0-22.54h1v-1h-1v1zm-41.51 0h-1v1h1v-1zm0-8.52h50.4v-2H2.5v2zm49.4-1v41.58h2v-41.58h-2zm1 40.58H2.5v2h50.4v-2zm-49.4 1v-9.52h-2v9.52h2zm-1-8.52h41.51v-2H2.5v2zm42.51-1v-22.54h-2v22.54h2zm-1-23.54H2.5v2h41.51v-2zm-40.51 1v-9.52h-2v9.52h2zm-1 38.386.292-.956-1.292-.395v1.351h1zm50.4 15.4h1v-.74l-.708-.216-.292.956zm0 14.21.292.957.708-.217v-.74h-1zm-50.4 15.4h-1v1.351l1.292-.394-.292-.957zm0-9.8-.295-.955-.705.217v.738h1zm44.45-13.72h1v-1.355l-1.295.4.295.955zm0 1.82-.29.957 1.29.392v-1.349h-1zM2.5 286.188h-1v.742l.71.215.29-.957zm10.5-.56v-1h-1v1h1zm8.89 0h1v-1h-1v1zm0 26.6v1h1v-1h-1zm-8.89 0h-1v1h1v-1zM2.208 277.345l50.4 15.4.584-1.913-50.4-15.4-.584 1.913zM51.9 291.788v14.21h2v-14.21h-2zm.708 13.254-50.4 15.4.584 1.913 50.4-15.4-.584-1.913zM3.5 321.398v-9.8h-2v9.8h2zm-.705-8.844 44.45-13.72-.59-1.911-44.45 13.72.59 1.911zm43.155-14.676v1.82h2v-1.82h-2zm1.29.863L2.79 285.232l-.58 1.913 44.45 13.51.58-1.914zM3.5 286.188v-9.8h-2v9.8h2zm9.5.44h8.89v-2H13v2zm7.89-1v26.6h2v-26.6h-2zm1 25.6H13v2h8.89v-2zm-7.89 1v-26.6h-2v26.6h2zM2.5 327.671v-1h-1v1h1zm50.4 0h1v-1h-1v1zm0 9.52v1h1v-1h-1zm-20.72 0v-1h-1v1h1zm0 22.54h-1v1h1v-1zm20.72 0h1v-1h-1v1zm0 9.52v1h1v-1h-1zm-50.4 0h-1v1h1v-1zm0-9.52v-1h-1v1h1zm20.79 0v1h1v-1h-1zm0-22.54h1v-1h-1v1zm-20.79 0h-1v1h1v-1zm0-8.52h50.4v-2H2.5v2zm49.4-1v9.52h2v-9.52h-2zm1 8.52H32.18v2H52.9v-2zm-21.72 1v22.54h2v-22.54h-2zm1 23.54H52.9v-2H32.18v2zm19.72-1v9.52h2v-9.52h-2zm1 8.52H2.5v2h50.4v-2zm-49.4 1v-9.52h-2v9.52h2zm-1-8.52h20.79v-2H2.5v2zm21.79-1v-22.54h-2v22.54h2zm-1-23.54H2.5v2h20.79v-2zm-19.79 1v-9.52h-2v9.52h2zm-1 83.117h-1v1h1v-1zm50.4 0v1h1v-1h-1zm0-9.66h1v-.542l-.454-.296-.546.838zm-33.6-21.91v-1h-3.364l2.818 1.837.546-.837zm33.6 0v1h1v-1h-1zm0-9.66h1v-1h-1v1zm-50.4 0v-1h-1v1h1zm0 9.66h-1v.541l.454.296.546-.837zm33.6 21.91v1h3.364l-2.818-1.838-.546.838zm-33.6 0v-1h-1v1h1zm0 10.66h50.4v-2H2.5v2zm51.4-1v-9.66h-2v9.66h2zm-.454-10.498-33.6-21.91-1.092 1.675 33.6 21.91 1.092-1.675zM19.3 389.738h33.6v-2H19.3v2zm34.6-1v-9.66h-2v9.66h2zm-1-10.66H2.5v2h50.4v-2zm-51.4 1v9.66h2v-9.66h-2zm.454 10.497 33.6 21.91 1.092-1.675-33.6-21.91-1.092 1.675zM36.1 409.648H2.5v2h33.6v-2zm-34.6 1v9.66h2v-9.66h-2zm1 60.656h-1v1h1v-1zm50.4 0v1h1v-1h-1zm0-9.66h1v-.542l-.454-.296-.546.838zm-33.6-21.91v-1h-3.364l2.818 1.837.546-.837zm33.6 0v1h1v-1h-1zm0-9.66h1v-1h-1v1zm-50.4 0v-1h-1v1h1zm0 9.66h-1v.542l.454.295.546-.837zm33.6 21.91v1h3.364l-2.818-1.838-.546.838zm-33.6 0v-1h-1v1h1zm0 10.66h50.4v-2H2.5v2zm51.4-1v-9.66h-2v9.66h2zm-.454-10.498-33.6-21.91-1.092 1.675 33.6 21.91 1.092-1.675zM19.3 440.734h33.6v-2H19.3v2zm34.6-1v-9.66h-2v9.66h2zm-1-10.66H2.5v2h50.4v-2zm-51.4 1v9.66h2v-9.66h-2zm.454 10.497 33.6 21.91 1.092-1.675-33.6-21.91-1.092 1.675zM36.1 460.644H2.5v2h33.6v-2zm-34.6 1v9.66h2v-9.66h-2z" fill="#28272D"/>
</svg>
