<svg width="55" height="516" fill="none" xmlns="http://www.w3.org/2000/svg">
    <path d="M2.5 1.9v-1h-1v1h1zm0 9.52h-1v1h1v-1zm22.96 0 .659.753 2.002-1.753H25.46v1zM2.5 31.51l-.659-.753-.341.3v.453h1zm0 12.04h-1v2.207l1.66-1.455-.66-.752zm25.55-22.4.647-.763-.658-.557-.648.568.659.752zM52.9 42.22l-.647.763 1.647 1.396V42.22h-1zm0-11.62h1v-.471l-.364-.3-.636.771zM29.66 11.42v-1h-2.783l2.146 1.771.637-.771zm23.24 0v1h1v-1h-1zm0-9.52h1v-1h-1v1zm-51.4 0v9.52h2V1.9h-2zm1 10.52h22.96v-2H2.5v2zm22.302-1.753-22.96 20.09 1.317 1.506 22.96-20.09-1.317-1.506zM1.5 31.51v12.04h2V31.51h-2zm1.66 12.792 25.55-22.4-1.32-1.504-25.55 22.4 1.32 1.504zm24.243-22.39 24.85 21.07 1.294-1.525-24.85-21.07-1.294 1.526zM53.9 42.22V30.6h-2v11.62h2zm-.364-12.391-23.24-19.18-1.273 1.542 23.24 19.18 1.273-1.542zM29.66 12.42H52.9v-2H29.66v2zm24.24-1V1.9h-2v9.52h2zM52.9.9H2.5v2h50.4v-2zM2.5 44.953l.292-.957-1.292-.395v1.352h1zm0 9.8h-1v.741l.71.216.29-.957zM13 57.938h1v-.742l-.71-.215-.29.957zm0 18.97.296.955.704-.218v-.737h-1zM2.5 80.163l-.296-.955-.704.218v.737h1zm0 9.8h-1v1.35l1.292-.394-.292-.956zm50.4-15.4.292.956.708-.216v-.74h-1zm0-14.21h1v-.74l-.708-.217-.292.957zm-31.01.28.291-.957-1.291-.393v1.35h1zm22.085 6.72.295.955 3.116-.963-3.12-.949-.291.957zM21.89 74.178h-1v1.355l1.295-.4-.295-.955zM1.5 44.953v9.8h2v-9.8h-2zm.71 10.757 10.5 3.185.58-1.914-10.5-3.185-.58 1.914zM12 57.938v18.97h2v-18.97h-2zm.704 18.015-10.5 3.255.592 1.91 10.5-3.255-.592-1.91zM1.5 80.163v9.8h2v-9.8h-2zm1.292 10.756 50.4-15.4-.584-1.913-50.4 15.4.584 1.913zM53.9 74.563v-14.21h-2v14.21h2zm-.708-15.167-50.4-15.4-.584 1.913 50.4 15.4.584-1.913zM21.6 61.59l22.085 6.72.582-1.913-22.085-6.72-.582 1.913zm22.08 4.808-22.084 6.825.59 1.911 22.085-6.825-.59-1.91zm-20.789 7.78V60.634h-2v13.545h2zM2.5 94.856v-1h-.822l-.16.806.982.194zm.315 8.575.912-.41-.002-.004-.91.414zm4.83 4.725-.425.905.425-.905zm8.435 2.59.205-.979-.013-.002-.192.981zm7.945 1.365-.135.991.135-.991zm7.91.945.1-.995-.1.995zm6.965.595.078-.997-.011-.001-.067.998zm5.11.385h1v-.931l-.929-.066-.071.997zm0 16.1v1h1v-1h-1zm-41.51 0v-1h-1v1h1zm0 9.52h-1v1h1v-1zm50.4 0v1h1v-1h-1zm0-34.37h1v-.955l-.954-.044-.046.999zm-6.125-.315-.055.999.055-.999zm-8.47-.595.082-.997-.082.997zm-9.52-.98.121-.993H28.9l-.115.993zm-9.205-1.4.189-.982-.004-.001-.185.983zm-5.775-1.54-.382.924.005.002.377-.926zm-2.8-2.17-.87.494.005.007.865-.5zm-.595-3.43.998.066.07-1.066H10.41v1zm-8.891-.194c-.74 3.747-.674 6.851.386 9.183l1.82-.828c-.806-1.775-.95-4.387-.244-7.967L1.52 94.66zm.384 9.179c1.042 2.319 2.84 4.057 5.317 5.22l.85-1.81c-2.096-.984-3.518-2.396-4.343-4.23l-1.824.82zm5.317 5.22c2.381 1.118 5.276 2.002 8.668 2.666l.384-1.962c-3.282-.643-6.01-1.485-8.202-2.514l-.85 1.81zm8.655 2.664c2.591.542 5.262 1.001 8.015 1.377l.27-1.982c-2.707-.37-5.333-.821-7.875-1.353l-.41 1.958zm8.015 1.377c2.74.375 5.389.691 7.945.949l.2-1.99c-2.53-.255-5.155-.569-7.874-.941l-.271 1.982zm7.945.949c2.552.258 4.885.457 6.998.598l.134-1.996a205.085 205.085 0 0 1-6.932-.592l-.2 1.99zm6.987.597c2.101.163 3.807.292 5.117.386l.142-1.995a959.01 959.01 0 0 1-5.104-.385l-.154 1.994zm4.188-.612v16.1h2v-16.1h-2zm1 15.1H2.5v2h41.51v-2zm-42.51 1v9.52h2v-9.52h-2zm1 10.52h50.4v-2H2.5v2zm51.4-1v-34.37h-2v34.37h2zm-.954-35.369c-1.512-.07-3.551-.175-6.116-.314l-.11 1.997c2.568.14 4.613.245 6.134.315l.092-1.998zm-6.116-.314c-2.532-.14-5.346-.337-8.443-.594l-.164 1.994c3.11.257 5.943.456 8.497.597l.11-1.997zm-8.443-.594c-3.09-.255-6.25-.58-9.48-.976l-.243 1.986c3.255.398 6.442.726 9.559.984l.164-1.994zm-9.487-.976a124.637 124.637 0 0 1-9.131-1.389l-.378 1.964c2.944.565 6.036 1.035 9.279 1.411l.23-1.986zm-9.135-1.39c-2.446-.461-4.296-.96-5.583-1.483l-.754 1.852c1.466.597 3.466 1.125 5.967 1.597l.37-1.966zm-5.578-1.48c-1.234-.512-1.952-1.118-2.317-1.748l-1.73 1.002c.662 1.144 1.81 1.984 3.283 2.593l.764-1.848zm-2.312-1.74c-.36-.635-.553-1.562-.467-2.871l-1.996-.131c-.1 1.537.103 2.896.723 3.989l1.74-.987zm-1.465-3.937H2.5v2h7.91v-2zM2.5 149.418v-1h-1v1h1zm.07 23.24.998-.056v-.001l-.998.057zm.21 2.24-.99.141.002.012.988-.153zm5.53 9.905-.57.821.002.002.568-.823zm21.7-.035-.575-.818.575.818zm5.53-9.87-.984-.176-.002.011-.002.011.988.154zm.21-2.24-.998-.056-.001.014v.014l.999.028zm.07-13.72v-1h-1v1h1zm17.08 0v1h1v-1h-1zm0-9.52h1v-1h-1v1zm-41.51 9.52v-1h-1v1h1zm15.54 0h1v-1h-1v1zm-.07 12.95.997.08-.997-.08zm-.28 1.61-.962-.275-.003.012.965.263zm-1.785 2.975-.64-.768-.01.009.65.759zm-2.765 1.435-.242-.97-.014.003-.013.004.269.963zm-5.775 0 .263-.965-.008-.002-.007-.002-.248.969zm-2.765-1.435-.65.759.01.009.64-.768zm-1.75-2.975.965-.263-.004-.012-.961.275zm-.28-1.61.997-.08-.997.08zm-9.96-22.47v21.28h2v-21.28h-2zm0 21.28c0 .517.024 1.192.072 2.017l1.996-.114a35.162 35.162 0 0 1-.068-1.903h-2zm.072 2.015c.047.862.12 1.638.218 2.326l1.98-.283a25.31 25.31 0 0 1-.202-2.154l-1.996.111zm.22 2.338c.73 4.722 2.68 8.302 5.947 10.573l1.142-1.642c-2.707-1.882-4.443-4.906-5.113-9.237l-1.976.306zm5.95 10.575c3.202 2.209 7.024 3.292 11.418 3.292v-2c-4.053 0-7.464-.994-10.282-2.938l-1.136 1.646zm11.418 3.292c4.418 0 8.244-1.095 11.425-3.332l-1.15-1.636c-2.792 1.963-6.2 2.968-10.275 2.968v2zm11.425-3.332c3.26-2.292 5.212-5.855 5.943-10.534l-1.976-.308c-.669 4.28-2.404 7.298-5.117 9.206l1.15 1.636zm5.94-10.512c.127-.713.2-1.511.225-2.388l-2-.056a14.258 14.258 0 0 1-.194 2.092l1.968.352zm.224-2.361a38.62 38.62 0 0 0 .071-2.015h-2c0 .439-.022 1.071-.069 1.904l1.998.111zm.071-2.015v-11.76h-2v11.76h2zm-1-10.76H52.9v-2H35.82v2zm18.08-1v-9.52h-2v9.52h2zm-1-10.52H2.5v2h50.4v-2zm-41.51 11.52h15.54v-2H11.39v2zm14.54-1v11.34h2v-11.34h-2zm0 11.34c0 .459-.022.968-.067 1.53l1.994.16c.048-.605.073-1.169.073-1.69h-2zm-.067 1.53a7.27 7.27 0 0 1-.244 1.415l1.922.55c.161-.563.265-1.166.316-1.805l-1.994-.16zm-.248 1.427c-.308 1.129-.809 1.927-1.46 2.47l1.28 1.536c1.029-.857 1.718-2.042 2.11-3.48l-1.93-.526zm-1.47 2.479c-.702.6-1.484 1.005-2.357 1.224l.485 1.94a7.695 7.695 0 0 0 3.173-1.646l-1.302-1.518zm-2.384 1.231c-.928.259-1.794.383-2.601.383v2c1.013 0 2.06-.156 3.139-.457l-.538-1.926zm-2.601.383c-.808 0-1.687-.124-2.642-.385l-.526 1.93c1.098.299 2.156.455 3.168.455v-2zm-2.657-.389a5.994 5.994 0 0 1-2.373-1.234l-1.28 1.536a7.99 7.99 0 0 0 3.157 1.636l.496-1.938zm-2.362-1.225c-.632-.542-1.126-1.343-1.436-2.479l-1.93.526c.39 1.43 1.063 2.613 2.064 3.471l1.302-1.518zm-1.44-2.491a7.263 7.263 0 0 1-.244-1.415l-1.994.16c.051.639.155 1.242.316 1.805l1.922-.55zm-.244-1.415a19.325 19.325 0 0 1-.067-1.53h-2c0 .521.025 1.085.073 1.69l1.994-.16zm-.067-1.53v-11.34h-2v11.34h2zM2.5 195.63v-1h-1v1h1zm0 9.52h-1v1h1v-1zm22.96 0 .659.753 2.002-1.753H25.46v1zM2.5 225.24l-.659-.752-.341.299v.453h1zm0 12.04h-1v2.207l1.66-1.455-.66-.752zm25.55-22.4.647-.762-.658-.558-.648.569.659.751zm24.85 21.07-.647.763 1.647 1.396v-2.159h-1zm0-11.62h1v-.471l-.364-.3-.636.771zm-23.24-19.18v-1h-2.783l2.146 1.772.637-.772zm23.24 0v1h1v-1h-1zm0-9.52h1v-1h-1v1zm-51.4 0v9.52h2v-9.52h-2zm1 10.52h22.96v-2H2.5v2zm22.302-1.752-22.96 20.09 1.316 1.505 22.96-20.09-1.316-1.505zM1.5 225.24v12.04h2v-12.04h-2zm1.66 12.792 25.55-22.4-1.32-1.503-25.55 22.4 1.32 1.503zm24.243-22.389 24.85 21.07 1.294-1.525-24.85-21.07-1.294 1.525zM53.9 235.95v-11.62h-2v11.62h2zm-.364-12.391-23.24-19.18-1.273 1.543 23.24 19.18 1.273-1.543zM29.66 206.15H52.9v-2H29.66v2zm24.24-1v-9.52h-2v9.52h2zm-1-10.52H2.5v2h50.4v-2zM2.5 248.203l.444-.896-1.444-.715v1.611h1zm0 10.15h-1v.634l.573.27.427-.904zm50.4 23.8-.427.904 1.427.674v-1.578h-1zm0-10.15h1v-.646l-.59-.265-.41.911zm-26.25-11.83-.399-.917-2.072.901 2.06.928.411-.912zm26.25-11.41.399.917.601-.261v-.656h-1zm0-10.78h1v-1.582l-1.429.679.429.903zm-36.26 17.22-.444.896.435.216.438-.208-.429-.904zm-15.14-7v10.15h2v-10.15h-2zm.573 11.054 50.4 23.8.854-1.808-50.4-23.8-.854 1.808zM53.9 282.153v-10.15h-2v10.15h2zm-.59-11.061-26.25-11.83-.82 1.823 26.25 11.83.82-1.823zM27.05 261.09l26.25-11.41-.798-1.834-26.25 11.41.798 1.834zM53.9 248.763v-10.78h-2v10.78h2zm-1.429-11.683-36.26 17.22.858 1.807 36.26-17.22-.858-1.807zm-35.387 17.227-14.14-7-.888 1.792 14.14 7 .888-1.792zM2.5 278.605v-1h-.822l-.16.806.982.194zm.315 8.575.912-.41-.002-.004-.91.414zm4.83 4.725-.425.905.425-.905zm8.435 2.59.205-.979-.013-.002-.192.981zm7.945 1.365-.135.991.135-.991zm7.91.945.1-.995-.1.995zm6.965.595.078-.997-.011-.001-.067.998zm5.11.385h1v-.931l-.929-.066-.071.997zm0 16.1v1h1v-1h-1zm-41.51 0v-1h-1v1h1zm0 9.52h-1v1h1v-1zm50.4 0v1h1v-1h-1zm0-34.37h1v-.955l-.954-.044-.046.999zm-6.125-.315-.055.999.055-.999zm-8.47-.595.082-.997-.082.997zm-9.52-.98.121-.993H28.9l-.115.993zm-9.205-1.4.189-.982-.004-.001-.185.983zm-5.775-1.54-.382.924.005.002.377-.926zm-2.8-2.17-.87.494.005.007.865-.501zm-.595-3.43.998.066.07-1.066H10.41v1zm-8.891-.194c-.74 3.747-.674 6.851.386 9.183l1.82-.828c-.806-1.775-.95-4.387-.244-7.967l-1.962-.388zm.384 9.179c1.042 2.319 2.84 4.057 5.317 5.22l.85-1.81c-2.096-.984-3.518-2.396-4.343-4.23l-1.824.82zm5.317 5.22c2.381 1.118 5.276 2.002 8.668 2.666l.384-1.962c-3.282-.643-6.01-1.485-8.202-2.514l-.85 1.81zm8.655 2.664c2.591.542 5.262 1.001 8.015 1.377l.27-1.982c-2.707-.37-5.333-.821-7.875-1.353l-.41 1.958zm8.015 1.377c2.74.375 5.389.691 7.945.949l.2-1.99c-2.53-.255-5.155-.569-7.874-.941l-.271 1.982zm7.945.949c2.552.258 4.885.457 6.998.598l.134-1.996a205.063 205.063 0 0 1-6.932-.592l-.2 1.99zm6.987.597c2.101.163 3.807.292 5.117.386l.142-1.995a959.01 959.01 0 0 1-5.104-.385l-.155 1.994zm4.188-.612v16.1h2v-16.1h-2zm1 15.1H2.5v2h41.51v-2zm-42.51 1v9.52h2v-9.52h-2zm1 10.52h50.4v-2H2.5v2zm51.4-1v-34.37h-2v34.37h2zm-.954-35.369c-1.512-.07-3.551-.175-6.116-.314l-.11 1.997c2.568.14 4.613.245 6.134.315l.092-1.998zm-6.116-.314c-2.532-.14-5.346-.337-8.443-.594l-.164 1.994c3.11.257 5.943.456 8.497.597l.11-1.997zm-8.443-.594c-3.09-.255-6.25-.58-9.48-.976l-.243 1.986c3.255.398 6.442.726 9.559.984l.164-1.994zm-9.487-.976a124.648 124.648 0 0 1-9.131-1.389l-.378 1.964c2.944.565 6.036 1.035 9.279 1.411l.23-1.986zm-9.135-1.39c-2.446-.461-4.296-.96-5.583-1.483l-.754 1.852c1.466.597 3.466 1.125 5.967 1.597l.37-1.966zm-5.578-1.481c-1.234-.511-1.952-1.117-2.317-1.747l-1.73 1.002c.662 1.143 1.81 1.984 3.283 2.593l.764-1.848zm-2.312-1.74c-.36-.634-.553-1.561-.467-2.87l-1.996-.131c-.1 1.537.103 2.896.723 3.989l1.74-.988zm-1.465-3.936H2.5v2h7.91v-2zM2.5 370.338h-1v1h1v-1zm0-9.52v-1h-1v1h1zm17.08 0v1h1v-1h-1zm0-10.605h1v-.626l-.563-.274-.437.9zM2.5 341.918h-1v.626l.563.273.437-.899zm0-10.78.438-.899-1.438-.7v1.599h1zm18.69 9.1-.438.899.923.449.425-.934-.91-.414zm5.915-6.37-.454-.891-.009.004.463.887zm19.985 1.085.57-.821-.57.821zm5.53 9.905-.988.153.002.011.002.012.984-.176zm.21 2.205-1 .028v.014l.002.013.998-.055zm.07 23.275v1h1v-1h-1zm-24.43-9.52h-1v1h1v-1zm15.54 0v1h1v-1h-1zm-.07-12.95-.997.08.997-.08zm-.28-1.61-.965.263.004.012.961-.275zm-1.785-2.975-.65.759.01.009.64-.768zm-2.765-1.47.263-.965-.008-.002-.007-.002-.248.969zm-5.775 0-.242-.97-.014.003-.013.004.269.963zm-2.765 1.47-.64-.768-.01.009.65.759zm-1.75 2.975.962.275.003-.012-.965-.263zm-.28 1.61-.997-.08.997.08zM3.5 370.338v-9.52h-2v9.52h2zm-1-8.52h17.08v-2H2.5v2zm18.08-1v-10.605h-2v10.605h2zm-.563-11.505-17.08-8.295-.874 1.799 17.08 8.295.874-1.799zM3.5 341.918v-10.78h-2v10.78h2zm-1.438-9.881 18.69 9.1.876-1.798-18.69-9.1-.876 1.798zm20.038 8.615c1.22-2.68 3.041-4.631 5.468-5.898l-.926-1.773c-2.846 1.487-4.97 3.783-6.362 6.843l1.82.828zm5.458-5.893c2.5-1.272 5.386-1.921 8.682-1.921v-2c-3.564 0-6.768.704-9.589 2.139l.907 1.782zm8.682-1.921c4.078 0 7.487.994 10.28 2.936l1.14-1.642c-3.18-2.212-7.004-3.294-11.42-3.294v2zm10.28 2.936c2.706 1.882 4.442 4.906 5.112 9.237l1.976-.306c-.73-4.723-2.68-8.302-5.947-10.573l-1.142 1.642zm5.116 9.26c.106.595.172 1.279.194 2.057l2-.057a16.068 16.068 0 0 0-.226-2.352l-1.968.352zm.195 2.084c.047.833.069 1.477.069 1.94h2c0-.517-.024-1.203-.072-2.051l-1.997.111zm.069 1.94v21.28h2v-21.28h-2zm1 20.28H2.5v2h50.4v-2zm-24.43-7.52h15.54v-2H28.47v2zm16.54-1v-11.34h-2v11.34h2zm0-11.34c0-.521-.025-1.085-.073-1.69l-1.994.16c.045.561.067 1.071.067 1.53h2zm-.073-1.69a9.252 9.252 0 0 0-.316-1.805l-1.922.55c.119.417.202.888.244 1.415l1.994-.16zm-.312-1.793c-.392-1.438-1.081-2.623-2.11-3.48l-1.28 1.536c.651.543 1.152 1.341 1.46 2.47l1.93-.526zm-2.1-3.471a8.051 8.051 0 0 0-3.152-1.676l-.526 1.93c.882.24 1.672.659 2.377 1.264l1.302-1.518zm-3.167-1.68a12.561 12.561 0 0 0-3.118-.416v2c.816 0 1.689.115 2.622.354l.496-1.938zm-3.118-.416c-1.004 0-2.054.141-3.148.415l.486 1.94c.96-.24 1.846-.355 2.662-.355v-2zm-3.174.422a8.387 8.387 0 0 0-3.136 1.665l1.28 1.536a6.387 6.387 0 0 1 2.394-1.275l-.538-1.926zm-3.147 1.674c-1.001.858-1.674 2.04-2.064 3.471l1.93.526c.31-1.136.804-1.937 1.436-2.479l-1.302-1.518zm-2.06 3.459a9.245 9.245 0 0 0-.316 1.805l1.994.16c.042-.527.125-.998.245-1.415l-1.924-.55zm-.316 1.805a21.306 21.306 0 0 0-.073 1.69h2c0-.459.022-.969.067-1.53l-1.994-.16zm-.073 1.69v11.34h2v-11.34h-2zM2.5 391.822v-1h-1v1h1zm0 9.52h-1v1h1v-1zm41.51 0h1v-1h-1v1zm0 15.89h-1v1h1v-1zm8.89 0v1h1v-1h-1zm0-41.3h1v-1h-1v1zm-8.89 0v-1h-1v1h1zm0 15.89v1h1v-1h-1zm-42.51 0v9.52h2v-9.52h-2zm1 10.52h41.51v-2H2.5v2zm40.51-1v15.89h2v-15.89h-2zm1 16.89h8.89v-2h-8.89v2zm9.89-1v-41.3h-2v41.3h2zm-1-42.3h-8.89v2h8.89v-2zm-9.89 1v15.89h2v-15.89h-2zm1 14.89H2.5v2h41.51v-2zM4.74 457.507l.858-.514-.002-.002-.856.516zm9.205 8.435.45-.893-.005-.002-.445.895zm27.51 0-.445-.895-.004.002.449.893zm9.205-8.435-.856-.516-.002.002.858.514zm0-26.075.858-.514-.002-.002-.856.516zm-9.205-8.435.45-.893-.005-.002-.445.895zm-27.51 0-.445-.895-.004.002.449.893zm-9.205 8.435-.857-.516-.001.002.858.514zm5.67 13.055-1-.015 1 .015zm4.76-10.78-.609-.793-.003.002.612.791zm25.165 0 .604-.797-.004-.003-.6.8zm4.655 10.78-1-.015 1 .015zm-4.76 10.78.609.794-.609-.794zm-25.165 0-.6.8.6-.8zM.45 444.487c0 5.188 1.13 9.714 3.433 13.536l1.713-1.032c-2.083-3.457-3.146-7.612-3.146-12.504h-2zm3.432 13.534c2.295 3.833 5.509 6.774 9.618 8.817l.89-1.791c-3.778-1.878-6.7-4.56-8.792-8.054l-1.716 1.028zm9.614 8.814c4.106 2.066 8.85 3.082 14.204 3.082v-2c-5.1 0-9.525-.967-13.306-2.868l-.898 1.786zm14.204 3.082c5.354 0 10.098-1.016 14.204-3.082l-.898-1.786c-3.78 1.901-8.207 2.868-13.306 2.868v2zm14.2-3.079c4.11-2.043 7.323-4.984 9.618-8.817l-1.716-1.028c-2.092 3.494-5.014 6.176-8.792 8.054l.89 1.791zm9.617-8.815c2.303-3.822 3.433-8.348 3.433-13.536h-2c0 4.892-1.063 9.047-3.147 12.504l1.714 1.032zm3.433-13.536c0-5.188-1.13-9.724-3.432-13.569l-1.716 1.028c2.085 3.482 3.148 7.649 3.148 12.541h2zm-3.434-13.571c-2.294-3.808-5.507-6.748-9.612-8.812l-.898 1.786c3.781 1.902 6.705 4.586 8.797 8.058l1.714-1.032zm-9.616-8.814c-4.105-2.041-8.848-3.045-14.2-3.045v2c5.1 0 9.528.956 13.31 2.836l.89-1.791zm-14.2-3.045c-5.352 0-10.095 1.004-14.2 3.045l.89 1.791c3.782-1.88 8.21-2.836 13.31-2.836v-2zm-14.204 3.047c-4.105 2.064-7.318 5.004-9.613 8.812l1.713 1.032c2.093-3.472 5.017-6.156 8.798-8.058l-.898-1.786zm-9.614 8.814C1.58 434.763.45 439.299.45 444.487h2c0-4.892 1.063-9.059 3.148-12.541l-1.716-1.028zm7.528 13.584c.066-4.553 1.562-7.828 4.372-10.004l-1.224-1.582c-3.397 2.631-5.075 6.543-5.148 11.556l2 .03zm4.368-10.001c2.878-2.207 6.817-3.364 11.922-3.364v-2c-5.395 0-9.81 1.223-13.139 3.777l1.217 1.587zm11.922-3.364c5.103 0 9.083 1.156 12.035 3.37l1.2-1.6c-3.395-2.546-7.838-3.77-13.235-3.77v2zm12.031 3.367c2.867 2.171 4.325 5.431 4.26 9.968l1.999.03c.073-5.029-1.572-8.957-5.051-11.592l-1.208 1.594zm4.26 9.968c-.068 4.579-1.564 7.85-4.37 10.002l1.218 1.587c3.401-2.609 5.078-6.524 5.15-11.559l-1.999-.03zm-4.37 10.002c-2.877 2.206-6.816 3.363-11.921 3.363v2c5.395 0 9.81-1.223 13.139-3.776l-1.218-1.587zM27.7 457.837c-5.103 0-9.083-1.156-12.035-3.37l-1.2 1.6c3.395 2.546 7.838 3.77 13.235 3.77v-2zm-12.035-3.37c-2.862-2.146-4.322-5.402-4.255-9.965l-2-.03c-.073 5.051 1.57 8.981 5.055 11.595l1.2-1.6zM2.5 475.904v-1h-1v1h1zm0 9.52h-1v1h1v-1zm17.08 0h1v-1h-1v1zm.07 13.72-.998.055.998-.055zm.21 2.24-.99.141.002.013.988-.154zm5.53 9.87-.575.818.003.002.572-.82zm27.23-9.87-.984-.176-.003.012-.001.011.988.153zm.21-2.24-.998-.057-.001.014v.015l.999.028zm.07-23.24h1v-1h-1v1zm-24.43 9.52v-1h-1v1h1zm15.54 0h1v-1h-1v1zm-.07 12.95-.997-.08.997.08zm-.28 1.61-.962-.275-.003.012.965.263zm-1.785 2.975-.64-.768-.01.009.65.759zm-2.765 1.435-.243-.97-.013.003-.013.004.269.963zm-5.775 0 .263-.965-.008-.002-.007-.002-.248.969zm-2.765-1.435-.65.759.01.009.64-.768zm-1.75-2.975.965-.263-.003-.012-.962.275zm-.28-1.61-.997.08.997-.08zM1.5 475.904v9.52h2v-9.52h-2zm1 10.52h17.08v-2H2.5v2zm16.08-1v11.76h2v-11.76h-2zm0 11.76c0 .494.025 1.169.072 2.015l1.996-.111a36.758 36.758 0 0 1-.068-1.904h-2zm.072 2.015c.047.862.12 1.638.218 2.326l1.98-.283a25.33 25.33 0 0 1-.202-2.154l-1.997.111zm.22 2.339c.731 4.679 2.683 8.242 5.943 10.534l1.15-1.636c-2.713-1.908-4.448-4.926-5.117-9.206l-1.976.308zm5.946 10.536c3.202 2.234 7.026 3.33 11.422 3.33v-2c-4.05 0-7.46-1.004-10.278-2.97l-1.144 1.64zm11.422 3.33c4.416 0 8.24-1.082 11.42-3.294l-1.14-1.642c-2.793 1.941-6.202 2.936-10.28 2.936v2zm11.42-3.294c3.267-2.271 5.218-5.851 5.948-10.573l-1.976-.306c-.67 4.331-2.406 7.355-5.113 9.237l1.142 1.642zm5.944-10.55c.128-.713.201-1.511.226-2.388l-2-.056a14.272 14.272 0 0 1-.194 2.092l1.968.352zm.224-2.359c.047-.825.072-1.5.072-2.017h-2c0 .463-.022 1.094-.068 1.903l1.996.114zm.072-2.017v-21.28h-2v21.28h2zm-1-22.28H2.5v2h50.4v-2zm-24.43 11.52h15.54v-2H28.47v2zm14.54-1v11.34h2v-11.34h-2zm0 11.34c0 .459-.022.968-.067 1.53l1.994.16c.048-.605.073-1.169.073-1.69h-2zm-.067 1.53a7.27 7.27 0 0 1-.244 1.415l1.922.55c.161-.563.265-1.166.316-1.805l-1.994-.16zm-.248 1.427c-.308 1.129-.809 1.927-1.46 2.47l1.28 1.536c1.029-.857 1.718-2.042 2.11-3.48l-1.93-.526zm-1.47 2.479c-.702.6-1.484 1.005-2.358 1.224l.486 1.94a7.695 7.695 0 0 0 3.173-1.646l-1.302-1.518zm-2.384 1.231c-.928.259-1.794.383-2.601.383v2c1.013 0 2.06-.156 3.139-.457l-.538-1.926zm-2.601.383c-.808 0-1.687-.124-2.642-.385l-.526 1.93c1.098.299 2.156.455 3.168.455v-2zm-2.657-.389a5.993 5.993 0 0 1-2.373-1.234l-1.28 1.536a7.99 7.99 0 0 0 3.157 1.636l.496-1.938zM31.22 502.2c-.632-.542-1.126-1.343-1.436-2.479l-1.93.526c.39 1.43 1.063 2.613 2.064 3.471l1.302-1.518zm-1.44-2.491a7.255 7.255 0 0 1-.244-1.415l-1.994.16c.051.639.155 1.242.316 1.805l1.922-.55zm-.244-1.415a19.325 19.325 0 0 1-.067-1.53h-2c0 .521.025 1.085.073 1.69l1.994-.16zm-.067-1.53v-11.34h-2v11.34h2z" fill="#28272D"/>
</svg>
