<svg width="55" height="421" fill="none" xmlns="http://www.w3.org/2000/svg">
    <path d="M52.5 419.1v1h1v-1h-1zm-4.235-33.81-.663.749.663-.749zm-17.71-1.995.494.87.012-.007-.506-.863zm-4.55 5.285-.854.52 1.023 1.679.754-1.815-.923-.384zm-3.85-3.5.452-.892-.452.892zm-12.495.28-.428-.904.428.904zm-5.39 4.865.837.547.004-.007-.841-.54zM2.1 419.1h-1v1h1v-1zm19.67-9.66v1h1v-1h-1zm-10.78 0h-1v1h1v-1zm1.575-14.525.674.739-.674-.739zm7.945.175.78-.625v-.002l-.78.627zm23.03 14.35v1h1v-1h-1zm-12.88 0h-1v1h1v-1zm1.785-16.66.678.735.007-.007.008-.007-.693-.721zm9.31.21.72-.693v-.001l-.72.694zM53.5 419.1v-22.33h-2v22.33h2zm0-22.33c0-5.333-1.464-9.48-4.573-12.229l-1.324 1.498c2.538 2.245 3.897 5.751 3.897 10.731h2zm-4.572-12.229c-3.062-2.711-6.988-4.031-11.688-4.031v2c4.307 0 7.731 1.2 10.362 3.529l1.326-1.498zM37.24 380.51c-2.599 0-5.002.639-7.19 1.922l1.01 1.726c1.872-1.098 3.925-1.648 6.18-1.648v-2zm-7.179 1.916c-2.262 1.285-3.921 3.226-4.98 5.77l1.847.768c.902-2.169 2.277-3.752 4.121-4.8l-.988-1.738zm-3.202 5.634c-1.013-1.662-2.44-2.953-4.252-3.872l-.904 1.784c1.501.761 2.64 1.804 3.448 3.128l1.708-1.04zm-4.252-3.872c-1.825-.926-3.959-1.368-6.367-1.368v2c2.165 0 3.975.398 5.463 1.152l.904-1.784zm-6.367-1.368c-2.377 0-4.715.551-7.008 1.636l.856 1.808c2.047-.969 4.095-1.444 6.152-1.444v-2zm-7.008 1.636c-2.355 1.115-4.29 2.87-5.803 5.229l1.682 1.08c1.333-2.075 2.992-3.562 4.977-4.501l-.856-1.808zm-5.8 5.222C1.849 392.106 1.1 395.22 1.1 398.94h2c0-3.467.699-6.163 2.007-8.168l-1.674-1.094zM1.1 398.94v20.16h2v-20.16h-2zm1 21.16h50.4v-2H2.1v2zm19.67-11.66H10.99v2h10.78v-2zm-9.78 1v-10.36h-2v10.36h2zm0-10.36c0-1.623.461-2.709 1.248-3.426l-1.346-1.478c-1.313 1.196-1.902 2.887-1.902 4.904h2zm1.248-3.426c.85-.774 1.898-1.174 3.212-1.174v-2c-1.766 0-3.308.557-4.558 1.696l1.347 1.478zm3.212-1.174c1.65 0 2.667.473 3.28 1.237l1.56-1.254c-1.113-1.383-2.803-1.983-4.84-1.983v2zm3.28 1.235c.67.839 1.04 1.936 1.04 3.365h2c0-1.791-.47-3.354-1.48-4.615l-1.56 1.25zm1.04 3.365v10.36h2v-10.36h-2zm22.77 9.36H30.66v2h12.88v-2zm-11.88 1v-11.69h-2v11.69h2zm0-11.69c0-2.044.546-3.389 1.463-4.235l-1.356-1.47c-1.462 1.348-2.107 3.316-2.107 5.705h2zm1.478-4.249c.959-.92 2.182-1.401 3.752-1.401v-2c-2.024 0-3.763.639-5.137 1.959l1.385 1.442zm3.752-1.401c1.806 0 3.15.551 4.145 1.584l1.44-1.388c-1.432-1.487-3.33-2.196-5.585-2.196v2zm4.144 1.583c.988 1.026 1.506 2.353 1.506 4.067h2c0-2.159-.672-4.006-2.064-5.453l-1.442 1.386zm1.506 4.067v11.69h2v-11.69h-2zm9.96-19.72-.292.956 1.292.395v-1.351h-1zm0-9.8h1v-.742l-.71-.215-.29.957zM42 365.045h-1v.741l.71.216.29-.957zm0-18.97-.296-.955-.704.218v.737h1zm10.5-3.255.296.955.704-.218v-.737h-1zm0-9.8h1v-1.352l-1.292.395.292.957zm-50.4 15.4-.292-.957-.708.217v.74h1zm0 14.21h-1v.74l.708.216.292-.956zm31.01-.28-.291.956 1.291.393v-1.349h-1zm-22.085-6.72-.295-.956-3.116.963 3.12.949.291-.956zm22.085-6.825h1v-1.356l-1.295.4.295.956zM53.5 378.03v-9.8h-2v9.8h2zm-.71-10.757-10.5-3.185-.58 1.914 10.5 3.185.58-1.914zM43 365.045v-18.97h-2v18.97h2zm-.704-18.015 10.5-3.255-.592-1.91-10.5 3.255.592 1.91zm11.204-4.21v-9.8h-2v9.8h2zm-1.292-10.757-50.4 15.4.584 1.913 50.4-15.4-.584-1.913zM1.1 348.42v14.21h2v-14.21h-2zm.708 15.166 50.4 15.4.584-1.913-50.4-15.4-.584 1.913zm31.593-2.193-22.085-6.72-.582 1.913 22.085 6.72.582-1.913zm-22.08-4.808 22.084-6.825-.59-1.911-22.085 6.825.59 1.911zm20.789-7.78v13.545h2v-13.545h-2zm20.39-22.059v1h1v-1h-1zm0-57.4h1v-1h-1v1zm-50.4 0v-1h-1v1h1zm0 9.52h-1v1h1v-1zm41.51 0h1v-1h-1v1zm0 14.42v1h1v-1h-1zm-41.51 0v-1h-1v1h1zm0 9.52h-1v1h1v-1zm41.51 0h1v-1h-1v1zm0 14.42v1h1v-1h-1zm-41.51 0v-1h-1v1h1zm0 9.52h-1v1h1v-1zm51.4 0v-57.4h-2v57.4h2zm-1-58.4H2.1v2h50.4v-2zm-51.4 1v9.52h2v-9.52h-2zm1 10.52h41.51v-2H2.1v2zm40.51-1v14.42h2v-14.42h-2zm1 13.42H2.1v2h41.51v-2zm-42.51 1v9.52h2v-9.52h-2zm1 10.52h41.51v-2H2.1v2zm40.51-1v14.42h2v-14.42h-2zm1 13.42H2.1v2h41.51v-2zm-42.51 1v9.52h2v-9.52h-2zm1 10.52h50.4v-2H2.1v2zm50.4-82.21v1h1v-1h-1zm-4.235-33.81-.663.748v.001l.663-.749zm-17.71-1.995.494.869.012-.007-.506-.862zm-4.55 5.285-.854.52 1.023 1.678.754-1.814-.923-.384zm-3.85-3.5.452-.892-.452.892zm-12.495.28-.428-.904.428.904zm-5.39 4.865.837.546.004-.006-.841-.54zM2.1 245.536h-1v1h1v-1zm19.67-9.66v1h1v-1h-1zm-10.78 0h-1v1h1v-1zm1.575-14.525.674.739-.674-.739zm7.945.175.78-.625v-.002l-.78.627zm23.03 14.35v1h1v-1h-1zm-12.88 0h-1v1h1v-1zm1.785-16.66.678.735.007-.007.008-.007-.693-.721zm9.31.21.72-.694-.72.694zm11.745 26.11v-22.33h-2v22.33h2zm0-22.33c0-5.334-1.464-9.481-4.573-12.23l-1.324 1.499c2.538 2.244 3.897 5.75 3.897 10.731h2zm-4.572-12.229c-3.062-2.711-6.988-4.031-11.688-4.031v2c4.307 0 7.731 1.199 10.362 3.528l1.326-1.497zm-11.688-4.031c-2.599 0-5.002.639-7.19 1.922l1.01 1.725c1.872-1.097 3.925-1.647 6.18-1.647v-2zm-7.179 1.915c-2.262 1.286-3.921 3.227-4.98 5.771l1.847.768c.902-2.17 2.277-3.752 4.121-4.8l-.988-1.739zm-3.202 5.634c-1.013-1.662-2.44-2.953-4.252-3.871l-.904 1.783c1.501.762 2.64 1.804 3.448 3.129l1.708-1.041zm-4.252-3.871c-1.825-.926-3.959-1.368-6.367-1.368v2c2.165 0 3.975.397 5.463 1.151l.904-1.783zm-6.367-1.368c-2.377 0-4.715.551-7.008 1.636l.856 1.807c2.047-.968 4.095-1.443 6.152-1.443v-2zm-7.008 1.636c-2.355 1.114-4.29 2.87-5.803 5.228l1.682 1.081c1.333-2.075 2.992-3.563 4.977-4.502l-.856-1.807zm-5.8 5.222c-1.584 2.428-2.332 5.542-2.332 9.262h2c0-3.467.699-6.163 2.007-8.169l-1.674-1.093zM1.1 225.376v20.16h2v-20.16h-2zm1 21.16h50.4v-2H2.1v2zm19.67-11.66H10.99v2h10.78v-2zm-9.78 1v-10.36h-2v10.36h2zm0-10.36c0-1.623.461-2.709 1.248-3.426l-1.346-1.479c-1.313 1.197-1.902 2.887-1.902 4.905h2zm1.248-3.426c.85-.774 1.898-1.174 3.212-1.174v-2c-1.766 0-3.308.556-4.558 1.695l1.347 1.479zm3.212-1.174c1.65 0 2.667.473 3.28 1.236l1.56-1.253c-1.113-1.383-2.803-1.983-4.84-1.983v2zm3.28 1.234c.67.84 1.04 1.936 1.04 3.366h2c0-1.791-.47-3.355-1.48-4.615l-1.56 1.249zm1.04 3.366v10.36h2v-10.36h-2zm22.77 9.36H30.66v2h12.88v-2zm-11.88 1v-11.69h-2v11.69h2zm0-11.69c0-2.045.546-3.39 1.463-4.235l-1.356-1.471c-1.462 1.348-2.107 3.317-2.107 5.706h2zm1.478-4.249c.959-.921 2.182-1.401 3.752-1.401v-2c-2.024 0-3.763.639-5.137 1.958l1.385 1.443zm3.752-1.401c1.806 0 3.15.551 4.145 1.583l1.44-1.387c-1.432-1.488-3.33-2.196-5.585-2.196v2zm4.144 1.583c.988 1.026 1.506 2.352 1.506 4.067h2c0-2.16-.672-4.006-2.064-5.454l-1.442 1.387zm1.506 4.067v11.69h2v-11.69h-2zm9.96-23.151v1h1v-1h-1zm-.07-23.24-.998.056v.001l.998-.057zm-.21-2.24.99-.141-.002-.012-.988.153zm-5.53-9.905.57-.821-.002-.002-.568.823zm-21.7.035.575.818-.575-.818zm-5.53 9.87.984.176.002-.011.002-.01-.988-.155zm-.21 2.24.998.056.001-.014v-.014l-.999-.028zm-.07 13.72v1h1v-1h-1zm-17.08 0v-1h-1v1h1zm0 9.52h-1v1h1v-1zm41.51-9.52v1h1v-1h-1zm-15.54 0h-1v1h1v-1zm.07-12.95-.997-.08.997.08zm.28-1.61.962.275.003-.012-.965-.263zm1.785-2.975.64.769.01-.01-.65-.759zm2.765-1.435.242.97.014-.003.013-.004-.269-.963zm5.775 0-.263.965.008.002.007.002.248-.969zm2.765 1.435.65-.759-.01-.009-.64.768zm1.75 2.975-.965.263.003.012.962-.275zm.28 1.61-.997.08.997-.08zm8.96-21.07v1h1v-1h-1zm0-9.52h1v-1h-1v1zm-50.4 0v-1h-1v1h1zm0 9.52h-1v1h1v-1zm51.4 43.54v-21.28h-2v21.28h2zm0-21.28c0-.517-.025-1.192-.072-2.017l-1.996.114c.046.809.068 1.441.068 1.903h2zm-.072-2.015a27.229 27.229 0 0 0-.218-2.326l-1.98.283c.088.618.156 1.335.202 2.154l1.996-.111zm-.22-2.338c-.73-4.722-2.68-8.302-5.947-10.573l-1.142 1.642c2.707 1.882 4.443 4.906 5.113 9.237l1.976-.306zm-5.95-10.575c-3.202-2.209-7.024-3.292-11.418-3.292v2c4.053 0 7.464.994 10.282 2.938l1.136-1.646zm-11.418-3.292c-4.418 0-8.244 1.095-11.425 3.332l1.15 1.636c2.792-1.963 6.2-2.968 10.275-2.968v-2zm-11.425 3.332c-3.26 2.292-5.212 5.855-5.943 10.534l1.976.309c.669-4.281 2.404-7.299 5.117-9.207l-1.15-1.636zm-5.94 10.512c-.127.714-.2 1.511-.225 2.388l2 .056c.022-.803.088-1.498.194-2.092l-1.968-.352zm-.224 2.361a38.62 38.62 0 0 0-.071 2.015h2c0-.439.022-1.071.068-1.904l-1.997-.111zm-.071 2.015v11.76h2v-11.76h-2zm1 10.76H2.1v2h17.08v-2zm-18.08 1v9.52h2v-9.52h-2zm1 10.52h50.4v-2H2.1v2zm41.51-11.52H28.07v2h15.54v-2zm-14.54 1v-11.34h-2v11.34h2zm0-11.34c0-.459.022-.968.067-1.53l-1.994-.16a21.306 21.306 0 0 0-.073 1.69h2zm.067-1.53c.042-.527.125-.997.244-1.415l-1.922-.549a9.248 9.248 0 0 0-.316 1.804l1.994.16zm.248-1.427c.308-1.129.809-1.927 1.46-2.47l-1.28-1.536c-1.029.857-1.718 2.043-2.11 3.48l1.93.526zm1.47-2.479c.702-.6 1.484-1.005 2.357-1.224l-.485-1.94a7.694 7.694 0 0 0-3.173 1.646l1.302 1.518zm2.384-1.231c.928-.259 1.794-.383 2.601-.383v-2c-1.013 0-2.06.156-3.139.457l.538 1.926zm2.601-.383c.808 0 1.687.125 2.642.385l.526-1.93c-1.098-.299-2.156-.455-3.168-.455v2zm2.657.389c.851.218 1.64.624 2.373 1.234l1.28-1.536a7.99 7.99 0 0 0-3.157-1.636l-.496 1.938zm2.362 1.225c.632.542 1.126 1.343 1.436 2.479l1.93-.526c-.39-1.43-1.063-2.613-2.064-3.471l-1.302 1.518zm1.44 2.491c.119.418.202.888.244 1.415l1.994-.16a9.255 9.255 0 0 0-.316-1.804l-1.922.549zm.244 1.415c.045.562.067 1.071.067 1.53h2c0-.521-.025-1.085-.073-1.69l-1.994.16zm.067 1.53v11.34h2v-11.34h-2zm10.89-22.68v-9.52h-2v9.52h2zm-1-10.52H2.1v2h50.4v-2zm-51.4 1v9.52h2v-9.52h-2zm1 10.52h50.4v-2H2.1v2zm50.4-20.352v1h1v-1h-1zm-.035-23.24 1-.029v-.013l-.002-.014-.998.056zm-.175-2.24-.995.103v.003l.995-.106zm-2.66-7.245.793-.609-.001-.002-.792.611zm-5.635-4.34.39-.921-.004-.002-.386.923zm-14.875.035.386.923.011-.005-.397-.918zm-5.635 4.34.788.615.009-.01-.797-.605zm-2.695 7.21.994.106v-.002l-.994-.104zm-.14 2.24.998.055.001-.013v-.014l-.999-.028zm-.07 13.72v1h1v-1h-1zm-9.59 0h-1v1h1v-1zm0-25.06h1v-1h-1v1zm-8.89 0v-1h-1v1h1zm0 34.58h-1v1h1v-1zm41.51-9.52v1h1v-1h-1zm-14.14 0h-1v1h1v-1zm.07-12.95.997.08.001-.02.001-.02-.999-.04zm.21-1.61.973.232.002-.01.002-.01-.977-.212zm2.695-3.85.416.909.01-.004.009-.004-.435-.901zm8.19 0-.429.903.013.006.416-.909zm2.695 3.85.982-.187-.002-.013-.003-.012-.977.212zm.21 1.61.997-.08-.997.08zm9.96 22.47v-21.28h-2v21.28h2zm0-21.28c0-.504-.012-1.168-.035-1.989l-2 .058c.024.812.035 1.455.035 1.931h2zm-.037-2.016a45.44 45.44 0 0 0-.179-2.291l-1.988.213c.067.633.125 1.362.17 2.189l1.997-.111zm-.178-2.287c-.319-3.061-1.257-5.663-2.862-7.751l-1.586 1.218c1.335 1.738 2.17 3.967 2.458 6.739l1.99-.206zm-2.863-7.753a14.766 14.766 0 0 0-6.038-4.65l-.778 1.842c2.105.89 3.844 2.23 5.232 4.03l1.584-1.222zm-6.041-4.652c-2.419-1.011-5.036-1.512-7.841-1.512v2c2.562 0 4.914.456 7.069 1.357l.772-1.845zm-7.841-1.512c-2.808 0-5.418.513-7.817 1.552l.794 1.836c2.128-.921 4.464-1.388 7.023-1.388v-2zm-7.806 1.547c-2.446 1.024-4.467 2.579-6.046 4.658l1.594 1.21c1.36-1.794 3.096-3.132 5.224-4.023l-.772-1.845zm-6.037 4.648c-1.63 2.088-2.583 4.678-2.902 7.721l1.99.208c.287-2.744 1.131-4.96 2.488-6.699l-1.576-1.23zm-2.901 7.718c-.074.686-.122 1.46-.146 2.319l2 .056c.022-.821.068-1.54.134-2.162l-1.988-.213zm-.145 2.291a38.688 38.688 0 0 0-.071 2.016h2c0-.439.022-1.071.068-1.905l-1.997-.111zm-.071 2.016v11.76h2v-11.76h-2zm1 10.76h-9.59v2h9.59v-2zm-8.59 1v-25.06h-2v25.06h2zm-1-26.06H2.1v2h8.89v-2zm-9.89 1v34.58h2v-34.58h-2zm1 35.58h50.4v-2H2.1v2zm41.51-11.52H29.47v2h14.14v-2zm-13.14 1v-11.34h-2v11.34h2zm0-11.34c0-.459.022-.969.067-1.53l-1.994-.16a21.306 21.306 0 0 0-.073 1.69h2zm.07-1.57c.02-.529.083-1 .183-1.418l-1.946-.464a9.405 9.405 0 0 0-.236 1.802l1.998.08zm.187-1.438c.376-1.733 1.128-2.693 2.134-3.153l-.832-1.818c-1.748.799-2.792 2.406-3.256 4.547l1.954.424zm2.153-3.161c1.23-.594 2.447-.881 3.66-.881v-2c-1.54 0-3.053.367-4.53 1.079l.87 1.802zm3.66-.881c1.187 0 2.407.286 3.666.883l.858-1.806c-1.494-.709-3.005-1.077-4.524-1.077v2zm3.679.889c1.005.46 1.758 1.42 2.134 3.153l1.954-.424c-.464-2.141-1.508-3.748-3.256-4.547l-.832 1.818zm2.129 3.128c.085.449.15.949.195 1.503l1.994-.16a16.04 16.04 0 0 0-.225-1.717l-1.964.374zm.195 1.503c.045.561.067 1.071.067 1.53h2c0-.521-.025-1.085-.073-1.69l-1.994.16zm.067 1.53v11.34h2v-11.34h-2zm7.65-59.317-.858.513.002.003.856-.516zm-9.205-8.435-.45.893.005.002.445-.895zm-27.51 0 .445.895.004-.002-.449-.893zM4.34 57.966l.857.516.001-.003-.858-.513zm0 26.075-.858.513.001.003.857-.516zm9.205 8.435-.45.893.005.002.445-.895zm27.51 0 .445.895.004-.002-.449-.893zm9.205-8.435.857.516.001-.003-.858-.513zm-5.67-13.055 1 .014-1-.014zm-4.76 10.78.608.793.004-.003-.612-.79zm-25.165 0-.604.797.004.003.6-.8zm-4.655-10.78 1 .014-1-.014zm4.76-10.78-.609-.794.609.794zm25.165 0 .6-.8-.6.8zm14.615 10.78c0-5.188-1.13-9.714-3.433-13.537l-1.713 1.033c2.083 3.457 3.146 7.611 3.146 12.504h2zm-3.432-13.534c-2.295-3.833-5.509-6.774-9.618-8.817l-.89 1.791c3.778 1.878 6.7 4.56 8.792 8.053l1.716-1.027zm-9.614-8.815c-4.106-2.065-8.85-3.081-14.204-3.081v2c5.1 0 9.525.967 13.306 2.868l.898-1.787zM27.3 45.556c-5.354 0-10.098 1.016-14.204 3.081l.898 1.787c3.78-1.901 8.207-2.868 13.306-2.868v-2zm-14.2 3.08c-4.11 2.041-7.323 4.983-9.618 8.816l1.716 1.027c2.092-3.493 5.014-6.175 8.792-8.053l-.89-1.79zm-9.617 8.813C1.18 61.273.05 65.799.05 70.987h2c0-4.893 1.063-9.047 3.147-12.504L3.483 57.45zM.05 70.987c0 5.188 1.13 9.724 3.432 13.568l1.716-1.027c-2.085-3.482-3.148-7.65-3.148-12.541h-2zm3.433 13.57c2.295 3.809 5.508 6.748 9.613 8.813l.898-1.787c-3.781-1.902-6.705-4.586-8.797-8.057l-1.714 1.032zm9.617 8.815c4.105 2.04 8.848 3.045 14.2 3.045v-2c-5.1 0-9.529-.956-13.31-2.836l-.89 1.791zm14.2 3.045c5.352 0 10.095-1.004 14.2-3.045l-.89-1.79c-3.782 1.879-8.21 2.835-13.31 2.835v2zm14.204-3.047c4.105-2.065 7.318-5.004 9.613-8.812l-1.713-1.032c-2.093 3.471-5.017 6.155-8.798 8.057l.898 1.787zm9.614-8.815c2.302-3.844 3.432-8.38 3.432-13.568h-2c0 4.892-1.063 9.059-3.148 12.54l1.716 1.028zM43.59 70.971c-.067 4.553-1.562 7.828-4.372 10.004l1.224 1.581c3.397-2.63 5.075-6.542 5.148-11.556l-2-.029zm-4.369 10.001c-2.877 2.207-6.816 3.364-11.921 3.364v2c5.395 0 9.81-1.224 13.138-3.777l-1.217-1.587zM27.3 84.336c-5.103 0-9.083-1.157-12.035-3.37l-1.2 1.6c3.395 2.546 7.838 3.77 13.235 3.77v-2zm-12.031-3.368c-2.867-2.17-4.325-5.43-4.26-9.968l-1.999-.029c-.074 5.03 1.572 8.956 5.051 11.592l1.208-1.595zM11.009 71c.067-4.578 1.564-7.85 4.37-10l-1.218-1.588c-3.401 2.609-5.078 6.524-5.15 11.56L11.01 71zm4.37-10c2.877-2.208 6.816-3.364 11.921-3.364v-2c-5.395 0-9.81 1.223-13.139 3.776L15.38 61zM27.3 57.635c5.103 0 9.083 1.156 12.035 3.37l1.2-1.6c-3.395-2.547-7.838-3.77-13.235-3.77v2zm12.035 3.37c2.862 2.146 4.322 5.402 4.255 9.965l2 .03c.073-5.051-1.57-8.982-5.055-11.595l-1.2 1.6zM52.5 39.569v1h1v-1h-1zm0-9.52h1v-1h-1v1zm-17.08 0h-1v1h1v-1zm-.07-13.72.998-.056-.998.056zm-.21-2.24.99-.142-.002-.013-.988.155zm-5.53-9.87.575-.818-.003-.002-.572.82zm-27.23 9.87.984.175.002-.01.002-.012-.988-.153zm-.21 2.24.998.057.001-.015v-.014l-.999-.028zm-.07 23.24h-1v1h1v-1zm24.43-9.52v1h1v-1h-1zm-15.54 0h-1v1h1v-1zm.07-12.95.997.08-.997-.08zm.28-1.61.962.274.003-.011-.965-.263zm1.785-2.975.64.768.01-.009-.65-.76zm2.765-1.435.242.97.014-.003.013-.004-.269-.963zm5.775 0-.263.964.008.003.007.002.248-.97zm2.765 1.435.65-.76-.01-.008-.64.768zm1.75 2.975-.965.263.003.011.962-.274zm.28 1.61.997-.08-.997.08zm27.04 22.47v-9.52h-2v9.52h2zm-1-10.52H35.42v2H52.5v-2zm-16.08 1v-11.76h-2v11.76h2zm0-11.76c0-.495-.025-1.17-.072-2.016l-1.996.111c.046.834.068 1.466.068 1.905h2zm-.072-2.016a27.268 27.268 0 0 0-.218-2.326l-1.98.283c.088.618.156 1.336.202 2.154l1.996-.11zm-.22-2.339c-.731-4.679-2.683-8.241-5.943-10.533l-1.15 1.636c2.713 1.908 4.448 4.925 5.117 9.206l1.976-.309zM30.182 3.4C26.98 1.165 23.156.069 18.76.069v2c4.05 0 7.46 1.004 10.278 2.97l1.144-1.64zM18.76.069c-4.416 0-8.24 1.082-11.42 3.294l1.14 1.642c2.793-1.942 6.202-2.936 10.28-2.936v-2zM7.34 3.363c-3.267 2.27-5.218 5.85-5.948 10.573l1.976.306c.67-4.331 2.406-7.355 5.113-9.237L7.339 3.363zm-5.944 10.55c-.128.713-.201 1.51-.226 2.388l2 .056a14.27 14.27 0 0 1 .194-2.092l-1.968-.352zm-.224 2.359c-.048.825-.072 1.5-.072 2.017h2c0-.463.022-1.095.068-1.903l-1.996-.114zM1.1 18.289v21.28h2v-21.28h-2zm1 22.28h50.4v-2H2.1v2zm24.43-11.52H10.99v2h15.54v-2zm-14.54 1v-11.34h-2v11.34h2zm0-11.34c0-.46.022-.969.067-1.53l-1.994-.16a21.296 21.296 0 0 0-.073 1.69h2zm.067-1.53c.042-.527.125-.998.245-1.415l-1.923-.55a9.25 9.25 0 0 0-.316 1.805l1.994.16zm.248-1.427c.308-1.13.809-1.927 1.46-2.47l-1.28-1.537c-1.029.858-1.718 2.043-2.11 3.48l1.93.527zm1.47-2.479a5.69 5.69 0 0 1 2.357-1.224l-.485-1.94a7.69 7.69 0 0 0-3.173 1.646l1.302 1.518zm2.384-1.231c.928-.26 1.794-.383 2.601-.383v-2c-1.013 0-2.06.156-3.139.457l.538 1.926zm2.601-.383c.808 0 1.687.124 2.642.384l.526-1.929c-1.098-.3-2.156-.455-3.168-.455v2zm2.657.388c.851.218 1.64.625 2.373 1.235l1.28-1.537a7.99 7.99 0 0 0-3.157-1.635l-.496 1.938zm2.362 1.226c.632.542 1.126 1.343 1.436 2.479l1.93-.526c-.39-1.43-1.063-2.613-2.064-3.472l-1.302 1.519zm1.44 2.49c.119.418.202.889.244 1.415l1.994-.159a9.257 9.257 0 0 0-.316-1.805l-1.922.55zm.244 1.415c.045.562.067 1.072.067 1.53h2c0-.52-.025-1.084-.073-1.689l-1.994.16zm.067 1.53v11.34h2v-11.34h-2z" fill="#28272D"/>
</svg>
