<svg width="62" height="534" fill="none" xmlns="http://www.w3.org/2000/svg">
    <path d="M9.5 1.4v-1h-1v1h1zm0 9.52h-1v1h1v-1zm22.96 0 .658.753 2.003-1.753H32.46v1zM9.5 31.01l-.659-.753-.341.3v.453h1zm0 12.04h-1v2.207l1.66-1.455-.66-.752zm25.55-22.4.647-.763-.658-.557-.648.568.659.752zM59.9 41.72l-.647.763 1.647 1.396V41.72h-1zm0-11.62h1v-.471l-.364-.3-.636.771zM36.66 10.92v-1h-2.783l2.146 1.771.637-.771zm23.24 0v1h1v-1h-1zm0-9.52h1v-1h-1v1zm-51.4 0v9.52h2V1.4h-2zm1 10.52h22.96v-2H9.5v2zm22.302-1.753-22.96 20.09 1.316 1.506 22.96-20.09-1.317-1.506zM8.5 31.01v12.04h2V31.01h-2zm1.66 12.792 25.55-22.4-1.32-1.504-25.55 22.4 1.32 1.504zm24.243-22.39 24.85 21.07 1.294-1.525-24.85-21.07-1.294 1.526zM60.9 41.72V30.1h-2v11.62h2zm-.364-12.391-23.24-19.18-1.273 1.542 23.24 19.18 1.273-1.542zM36.66 11.92H59.9v-2H36.66v2zm24.24-1V1.4h-2v9.52h2zM59.9.4H9.5v2h50.4v-2zM11.74 79.8l.858-.514-.002-.002-.856.516zm9.205 8.435.45-.893-.005-.002-.445.895zm27.51 0-.445-.895-.004.002.449.893zM57.66 79.8l-.856-.516-.002.002.858.514zm0-26.075.858-.514-.002-.002-.856.516zm-9.205-8.435.45-.893-.005-.002-.445.895zm-27.51 0-.445-.895-.004.002.449.893zm-9.205 8.435-.857-.516-.001.002.858.514zm5.67 13.055-1-.015 1 .015zM22.17 56l-.609-.794-.003.003.612.791zm25.165 0 .604-.797-.004-.003-.6.8zm4.655 10.78-1-.015 1 .015zm-4.76 10.78.609.793-.609-.793zm-25.165 0-.6.8.6-.8zM7.45 66.78c0 5.188 1.13 9.713 3.433 13.536l1.714-1.032C10.513 75.826 9.45 71.672 9.45 66.78h-2zm3.432 13.534c2.295 3.833 5.509 6.774 9.618 8.817l.89-1.791c-3.778-1.878-6.7-4.56-8.792-8.054l-1.716 1.028zm9.614 8.814c4.106 2.066 8.85 3.082 14.204 3.082v-2c-5.1 0-9.525-.967-13.306-2.868l-.898 1.786zM34.7 92.21c5.354 0 10.098-1.016 14.204-3.082l-.898-1.786c-3.78 1.901-8.207 2.868-13.306 2.868v2zm14.2-3.08c4.11-2.042 7.323-4.983 9.618-8.816l-1.716-1.028c-2.092 3.494-5.014 6.176-8.792 8.053l.89 1.791zm9.617-8.814c2.303-3.823 3.433-8.348 3.433-13.536h-2c0 4.892-1.063 9.046-3.147 12.504l1.714 1.032zM61.95 66.78c0-5.188-1.13-9.724-3.432-13.569l-1.716 1.028c2.085 3.482 3.148 7.649 3.148 12.541h2zm-3.434-13.571c-2.294-3.808-5.507-6.748-9.612-8.812l-.898 1.786c3.781 1.902 6.705 4.586 8.797 8.058l1.714-1.032zM48.9 44.394c-4.105-2.04-8.847-3.044-14.2-3.044v2c5.1 0 9.528.956 13.31 2.835l.89-1.79zM34.7 41.35c-5.353 0-10.095 1.004-14.2 3.044l.89 1.791c3.782-1.88 8.21-2.835 13.31-2.835v-2zm-14.204 3.047c-4.105 2.064-7.318 5.004-9.612 8.812l1.713 1.032c2.092-3.472 5.016-6.156 8.797-8.058l-.898-1.786zm-9.614 8.814C8.58 57.056 7.45 61.592 7.45 66.78h2c0-4.892 1.063-9.06 3.148-12.541l-1.716-1.028zm7.528 13.584c.067-4.553 1.562-7.828 4.372-10.004l-1.224-1.582c-3.397 2.63-5.075 6.542-5.148 11.556l2 .03zm4.369-10.002c2.877-2.206 6.816-3.363 11.921-3.363v-2c-5.395 0-9.81 1.223-13.139 3.776l1.218 1.587zM34.7 53.43c5.103 0 9.083 1.156 12.035 3.37l1.2-1.6c-3.395-2.546-7.838-3.77-13.235-3.77v2zm12.031 3.367c2.867 2.172 4.325 5.43 4.26 9.968l1.999.03c.073-5.03-1.572-8.957-5.051-11.592l-1.208 1.594zm4.26 9.968c-.068 4.579-1.564 7.85-4.37 10.001l1.218 1.587c3.401-2.608 5.078-6.523 5.15-11.558l-1.999-.03zm-4.37 10.001c-2.877 2.207-6.816 3.364-11.921 3.364v2c5.395 0 9.81-1.223 13.139-3.776l-1.218-1.588zM34.7 80.13c-5.103 0-9.083-1.156-12.035-3.37l-1.2 1.6c3.395 2.546 7.838 3.77 13.235 3.77v-2zm-12.035-3.37c-2.862-2.146-4.322-5.402-4.255-9.965l-2-.03c-.073 5.05 1.57 8.981 5.055 11.595l1.2-1.6zM9.5 98.197v-1h-1v1h1zm0 8.89h-1v1h1v-1zm30.1 0 .437.899-.437-1.899v1zm-30.1 14.63-.437-.9-.563.274v.626h1zm0 3.36h-1v.626l.563.273.437-.899zm30.1 14.63v1l.437-1.9-.437.9zm-30.1 0v-1h-1v1h1zm0 8.89h-1v1h1v-1zm50.4 0v1h1v-1h-1zm0-8.54h1v-.619l-.554-.276-.446.895zm-33.46-16.66-.446-.895-1.798.895 1.798.895.446-.895zm33.46-16.66.446.895.554-.276v-.619h-1zm0-8.54h1v-1h-1v1zm-51.4 0v8.89h2v-8.89h-2zm1 9.89h30.1v-2H9.5v2zm29.663-1.9-30.1 14.63.874 1.799 30.1-14.63-.874-1.799zM8.5 121.717v3.36h2v-3.36h-2zm.563 4.259 30.1 14.63.874-1.799-30.1-14.63-.874 1.799zM39.6 138.707H9.5v2h30.1v-2zm-31.1 1v8.89h2v-8.89h-2zm1 9.89h50.4v-2H9.5v2zm51.4-1v-8.54h-2v8.54h2zm-.554-9.435-33.46-16.66-.892 1.79 33.46 16.66.892-1.79zm-33.46-14.87 33.46-16.66-.892-1.79-33.46 16.66.892 1.79zM60.9 106.737v-8.54h-2v8.54h2zm-1-9.54H9.5v2h50.4v-2zM9.5 158.42v-1h-1v1h1zm0 9.52h-1v1h1v-1zm41.51 0h1v-1h-1v1zm0 22.54v1h1v-1h-1zm-41.51 0v-1h-1v1h1zm0 9.52h-1v1h1v-1zm50.4 0v1h1v-1h-1zm0-41.58h1v-1h-1v1zm-51.4 0v9.52h2v-9.52h-2zm1 10.52h41.51v-2H9.5v2zm40.51-1v22.54h2v-22.54h-2zm1 21.54H9.5v2h41.51v-2zm-42.51 1v9.52h2v-9.52h-2zm1 10.52h50.4v-2H9.5v2zm51.4-1v-41.58h-2v41.58h2zm-1-42.58H9.5v2h50.4v-2zM9.5 209.828v-1h-1v1h1zm0 32.9h-1v1h1v-1zm8.89 0v1h1v-1h-1zm0-23.38v-1h-1v1h1zm12.95 0h1v-1h-1v1zm0 19.18h-1v1h1v-1zm8.89 0v1h1v-1h-1zm0-19.18v-1h-1v1h1zm10.78 0h1v-1h-1v1zm0 23.38h-1v1h1v-1zm8.89 0v1h1v-1h-1zm0-32.9h1v-1h-1v1zm-51.4 0v32.9h2v-32.9h-2zm1 33.9h8.89v-2H9.5v2zm9.89-1v-23.38h-2v23.38h2zm-1-22.38h12.95v-2H18.39v2zm11.95-1v19.18h2v-19.18h-2zm1 20.18h8.89v-2h-8.89v2zm9.89-1v-19.18h-2v19.18h2zm-1-18.18h10.78v-2H40.23v2zm9.78-1v23.38h2v-23.38h-2zm1 24.38h8.89v-2h-8.89v2zm9.89-1v-32.9h-2v32.9h2zm-1-33.9H9.5v2h50.4v-2zM9.5 262.807v-1h-1v1h1zm0 9.52h-1v1h1v-1zm41.51 0h1v-1h-1v1zm0 15.89h-1v1h1v-1zm8.89 0v1h1v-1h-1zm0-41.3h1v-1h-1v1zm-8.89 0v-1h-1v1h1zm0 15.89v1h1v-1h-1zm-42.51 0v9.52h2v-9.52h-2zm1 10.52h41.51v-2H9.5v2zm40.51-1v15.89h2v-15.89h-2zm1 16.89h8.89v-2h-8.89v2zm9.89-1v-41.3h-2v41.3h2zm-1-42.3h-8.89v2h8.89v-2zm-9.89 1v15.89h2v-15.89h-2zm1 14.89H9.5v2h41.51v-2zM9.5 293.841v-1h-1v1h1zm0 32.9h-1v1h1v-1zm8.89 0v1h1v-1h-1zm0-23.38v-1h-1v1h1zm12.95 0h1v-1h-1v1zm0 19.18h-1v1h1v-1zm8.89 0v1h1v-1h-1zm0-19.18v-1h-1v1h1zm10.78 0h1v-1h-1v1zm0 23.38h-1v1h1v-1zm8.89 0v1h1v-1h-1zm0-32.9h1v-1h-1v1zm-51.4 0v32.9h2v-32.9h-2zm1 33.9h8.89v-2H9.5v2zm9.89-1v-23.38h-2v23.38h2zm-1-22.38h12.95v-2H18.39v2zm11.95-1v19.18h2v-19.18h-2zm1 20.18h8.89v-2h-8.89v2zm9.89-1v-19.18h-2v19.18h2zm-1-18.18h10.78v-2H40.23v2zm9.78-1v23.38h2v-23.38h-2zm1 24.38h8.89v-2h-8.89v2zm9.89-1v-32.9h-2v32.9h2zm-1-33.9H9.5v2h50.4v-2zM9.5 335.13v-1h-1v1h1zm0 9.52h-1v1h1v-1zm20.79 0h1v-1h-1v1zm0 22.54v1h1v-1h-1zm-20.79 0v-1h-1v1h1zm0 9.52h-1v1h1v-1zm50.4 0v1h1v-1h-1zm0-9.52h1v-1h-1v1zm-20.72 0h-1v1h1v-1zm0-22.54v-1h-1v1h1zm20.72 0v1h1v-1h-1zm0-9.52h1v-1h-1v1zm-51.4 0v9.52h2v-9.52h-2zm1 10.52h20.79v-2H9.5v2zm19.79-1v22.54h2v-22.54h-2zm1 21.54H9.5v2h20.79v-2zm-21.79 1v9.52h2v-9.52h-2zm1 10.52h50.4v-2H9.5v2zm51.4-1v-9.52h-2v9.52h2zm-1-10.52H39.18v2H59.9v-2zm-19.72 1v-22.54h-2v22.54h2zm-1-21.54H59.9v-2H39.18v2zm21.72-1v-9.52h-2v9.52h2zm-1-10.52H9.5v2h50.4v-2zM1.1 424.687v-1h-1v1h1zm0 9.52h-1v1h1v-1zm16.8 0v1h1v-1h-1zm0-5.67v-1h-1v1h1zm40.6 0v1h1v-1h-1zm0-9.52h1v-1h-1v1zm-40.6 0h-1v1h1v-1zm0-22.96v-1h-1v1h1zm42 0v1h1v-1h-1zm0-9.52h1v-1h-1v1zm-50.4 0v-1h-1v1h1zm0 38.15v1h1v-1h-1zm-9.4 0v9.52h2v-9.52h-2zm1 10.52h16.8v-2H1.1v2zm17.8-1v-5.67h-2v5.67h2zm-1-4.67h40.6v-2H17.9v2zm41.6-1v-9.52h-2v9.52h2zm-1-10.52H17.9v2h40.6v-2zm-39.6 1v-22.96h-2v22.96h2zm-1-21.96h42v-2h-42v2zm43-1v-9.52h-2v9.52h2zm-1-10.52H9.5v2h50.4v-2zm-51.4 1v38.15h2v-38.15h-2zm1 37.15H1.1v2h8.4v-2zm0 57.332h-1v1h1v-1zm0-9.66v-1h-1v1h1zm33.6 0v1h3.364l-2.818-1.838-.546.838zm-33.6-21.91h-1v.541l.454.296.546-.837zm0-9.66v-1h-1v1h1zm50.4 0h1v-1h-1v1zm0 9.66v1h1v-1h-1zm-33.6 0v-1h-3.364l2.818 1.837.546-.837zm33.6 21.91h1v-.542l-.454-.296-.546.838zm0 9.66v1h1v-1h-1zm-49.4 0v-9.66h-2v9.66h2zm-1-8.66h33.6v-2H9.5v2zm34.146-1.838-33.6-21.91-1.092 1.675 33.6 21.91 1.092-1.675zM10.5 449.449v-9.66h-2v9.66h2zm-1-8.66h50.4v-2H9.5v2zm49.4-1v9.66h2v-9.66h-2zm1 8.66H26.3v2h33.6v-2zm-34.146 1.837 33.6 21.91 1.092-1.675-33.6-21.91-1.092 1.675zM58.9 471.359v9.66h2v-9.66h-2zm1 8.66H9.5v2h50.4v-2zM9.5 532.015h-1v1h1v-1zm0-9.66v-1h-1v1h1zm33.6 0v1h3.364l-2.818-1.838-.546.838zm-33.6-21.91h-1v.542l.454.295.546-.837zm0-9.66v-1h-1v1h1zm50.4 0h1v-1h-1v1zm0 9.66v1h1v-1h-1zm-33.6 0v-1h-3.364l2.818 1.837.546-.837zm33.6 21.91h1v-.542l-.454-.296-.546.838zm0 9.66v1h1v-1h-1zm-49.4 0v-9.66h-2v9.66h2zm-1-8.66h33.6v-2H9.5v2zm34.146-1.838-33.6-21.91-1.092 1.675 33.6 21.91 1.092-1.675zM10.5 500.445v-9.66h-2v9.66h2zm-1-8.66h50.4v-2H9.5v2zm49.4-1v9.66h2v-9.66h-2zm1 8.66H26.3v2h33.6v-2zm-34.146 1.837 33.6 21.91 1.092-1.675-33.6-21.91-1.092 1.675zM58.9 522.355v9.66h2v-9.66h-2zm1 8.66H9.5v2h50.4v-2z" fill="#28272D"/>
</svg>
