<svg width="62" height="587" fill="none" xmlns="http://www.w3.org/2000/svg">
    <path d="M52.5 585.1v1h1v-1h-1zm0-9.52h1v-1h-1v1zm-41.51 0h-1v1h1v-1zm0-22.54v-1h-1v1h1zm41.51 0v1h1v-1h-1zm0-9.52h1v-1h-1v1zm-50.4 0v-1h-1v1h1zm0 41.58h-1v1h1v-1zm51.4 0v-9.52h-2v9.52h2zm-1-10.52H10.99v2H52.5v-2zm-40.51 1v-22.54h-2v22.54h2zm-1-21.54H52.5v-2H10.99v2zm42.51-1v-9.52h-2v9.52h2zm-1-10.52H2.1v2h50.4v-2zm-51.4 1v41.58h2v-41.58h-2zm1 42.58h50.4v-2H2.1v2zm50.4-52.406v1h1v-1h-1zm0-9.52h1v-1h-1v1zm-17.08 0h-1v1h1v-1zm-.07-13.72.998-.056-.998.056zm-.21-2.24.99-.142-.002-.013-.988.155zm-5.53-9.87.575-.818-.003-.002-.572.82zm-27.23 9.87.984.176.002-.012.002-.011-.988-.153zm-.21 2.24.998.057.001-.015v-.014l-.999-.028zm-.07 23.24h-1v1h1v-1zm24.43-9.52v1h1v-1h-1zm-15.54 0h-1v1h1v-1zm.07-12.95.997.079-.997-.079zm.28-1.61.962.274.003-.011-.965-.263zm1.785-2.975.64.768.01-.009-.65-.759zm2.765-1.435.242.97.014-.003.013-.004-.269-.963zm5.775 0-.263.965.008.002.007.002.248-.969zm2.765 1.435.65-.76-.01-.008-.64.768zm1.75 2.975-.965.263.003.011.962-.274zm.28 1.61.997-.08-.997.08zm27.04 22.47v-9.52h-2v9.52h2zm-1-10.52H35.42v2H52.5v-2zm-16.08 1v-11.76h-2v11.76h2zm0-11.76c0-.495-.025-1.169-.072-2.016l-1.996.111c.046.834.068 1.466.068 1.905h2zm-.072-2.016a27.346 27.346 0 0 0-.218-2.326l-1.98.283c.088.619.156 1.336.202 2.154l1.997-.111zm-.22-2.339c-.731-4.679-2.683-8.241-5.943-10.533l-1.15 1.636c2.713 1.908 4.448 4.925 5.117 9.206l1.976-.309zm-5.946-10.535c-3.202-2.234-7.026-3.33-11.422-3.33v2c4.05 0 7.46 1.004 10.278 2.97l1.144-1.64zm-11.422-3.33c-4.416 0-8.24 1.082-11.42 3.294l1.14 1.642c2.793-1.942 6.202-2.936 10.28-2.936v-2zm-11.42 3.294c-3.267 2.271-5.218 5.85-5.948 10.573l1.976.306c.67-4.331 2.406-7.355 5.113-9.237l-1.142-1.642zm-5.944 10.55c-.128.713-.201 1.511-.226 2.388l2 .056a14.26 14.26 0 0 1 .194-2.092l-1.968-.352zm-.224 2.359a37.006 37.006 0 0 0-.072 2.017h2c0-.463.022-1.095.068-1.903l-1.996-.114zm-.072 2.017v21.28h2v-21.28h-2zm1 22.28h50.4v-2H2.1v2zm24.43-11.52H10.99v2h15.54v-2zm-14.54 1v-11.34h-2v11.34h2zm0-11.34c0-.459.022-.969.067-1.531l-1.994-.159a21.306 21.306 0 0 0-.073 1.69h2zm.067-1.531c.042-.526.125-.997.245-1.415l-1.923-.549a9.245 9.245 0 0 0-.316 1.805l1.994.159zm.248-1.426c.308-1.129.809-1.927 1.46-2.47l-1.28-1.536c-1.029.857-1.718 2.042-2.11 3.48l1.93.526zm1.47-2.479a5.682 5.682 0 0 1 2.357-1.224l-.485-1.94a7.692 7.692 0 0 0-3.173 1.645l1.302 1.519zm2.384-1.231c.928-.259 1.794-.383 2.601-.383v-2c-1.013 0-2.06.156-3.139.457l.538 1.926zm2.601-.383c.808 0 1.687.124 2.642.385l.526-1.93c-1.098-.3-2.156-.455-3.168-.455v2zm2.657.389c.851.217 1.64.624 2.373 1.234l1.28-1.536a7.99 7.99 0 0 0-3.157-1.636l-.496 1.938zm2.362 1.225c.632.542 1.126 1.343 1.436 2.479l1.93-.526c-.39-1.431-1.063-2.613-2.064-3.472l-1.302 1.519zm1.44 2.49c.119.418.202.889.244 1.415l1.994-.159a9.245 9.245 0 0 0-.316-1.805l-1.922.549zm.244 1.415c.045.562.067 1.072.067 1.531h2c0-.521-.025-1.085-.073-1.69l-1.994.159zm.067 1.531v11.34h2v-11.34h-2zm26.97-24.668v1h1v-1h-1zm0-32.9h1v-1h-1v1zm-8.89 0v-1h-1v1h1zm0 23.38v1h1v-1h-1zm-12.95 0h-1v1h1v-1zm0-19.18h1v-1h-1v1zm-8.89 0v-1h-1v1h1zm0 19.18v1h1v-1h-1zm-10.78 0h-1v1h1v-1zm0-23.38h1v-1h-1v1zm-8.89 0v-1h-1v1h1zm0 32.9h-1v1h1v-1zm51.4 0v-32.9h-2v32.9h2zm-1-33.9h-8.89v2h8.89v-2zm-9.89 1v23.38h2v-23.38h-2zm1 22.38H30.66v2h12.95v-2zm-11.95 1v-19.18h-2v19.18h2zm-1-20.18h-8.89v2h8.89v-2zm-9.89 1v19.18h2v-19.18h-2zm1 18.18H10.99v2h10.78v-2zm-9.78 1v-23.38h-2v23.38h2zm-1-24.38H2.1v2h8.89v-2zm-9.89 1v32.9h2v-32.9h-2zm1 33.9h50.4v-2H2.1v2zm50.4-83.519h1v-1h-1v1zm0 9.66v1h1v-1h-1zm-33.6 0v-1h-3.364l2.818 1.838.546-.838zm33.6 21.91h1v-.541l-.454-.296-.546.837zm0 9.66v1h1v-1h-1zm-50.4 0h-1v1h1v-1zm0-9.66v-1h-1v1h1zm33.6 0v1h3.364l-2.818-1.837-.546.837zm-33.6-21.91h-1v.542l.454.296.546-.838zm0-9.66v-1h-1v1h1zm49.4 0v9.66h2v-9.66h-2zm1 8.66H18.9v2h33.6v-2zm-34.146 1.838 33.6 21.91 1.092-1.675-33.6-21.91-1.092 1.675zM51.5 437.217v9.66h2v-9.66h-2zm1 8.66H2.1v2h50.4v-2zm-49.4 1v-9.66h-2v9.66h2zm-1-8.66h33.6v-2H2.1v2zm34.146-1.837-33.6-21.91-1.092 1.675 33.6 21.91 1.092-1.675zM3.1 415.307v-9.66h-2v9.66h2zm-1-8.66h50.4v-2H2.1v2zm50.4-10.766v1h1v-1h-1zm0-8.89h1v-1h-1v1zm-30.1 0-.437-.899.437 1.899v-1zm30.1-14.63.437.9.563-.274v-.626h-1zm0-3.36h1v-.626l-.563-.273-.437.899zm-30.1-14.63v-1l-.437 1.9.437-.9zm30.1 0v1h1v-1h-1zm0-8.89h1v-1h-1v1zm-50.4 0v-1h-1v1h1zm0 8.54h-1v.619l.554.276.446-.895zm33.46 16.66.446.895 1.798-.895-1.798-.895-.446.895zM2.1 387.341l-.446-.895-.554.276v.619h1zm0 8.54h-1v1h1v-1zm51.4 0v-8.89h-2v8.89h2zm-1-9.89H22.4v2h30.1v-2zm-29.663 1.9 30.1-14.63-.874-1.799-30.1 14.63.874 1.799zm30.663-15.53v-3.36h-2v3.36h2zm-.563-4.259-30.1-14.63-.874 1.799 30.1 14.63.874-1.799zM22.4 355.371h30.1v-2H22.4v2zm31.1-1v-8.89h-2v8.89h2zm-1-9.89H2.1v2h50.4v-2zm-51.4 1v8.54h2v-8.54h-2zm.554 9.435 33.46 16.66.892-1.79-33.46-16.66-.892 1.79zm33.46 14.87-33.46 16.66.892 1.79 33.46-16.66-.892-1.79zM1.1 387.341v8.54h2v-8.54h-2zm1 9.54h50.4v-2H2.1v2zm50.4-67.244-.444.896 1.444.715v-1.611h-1zm0-10.15h1v-.634l-.573-.271-.427.905zm-50.4-23.8.427-.905-1.427-.673v1.578h1zm0 10.15h-1v.646l.59.265.41-.911zm26.25 11.83.399.917 2.072-.901-2.06-.928-.411.912zM2.1 329.077l-.399-.917-.601.261v.656h1zm0 10.78h-1v1.582l1.429-.679-.429-.903zm36.26-17.22.444-.897-.435-.215-.438.208.429.904zm15.14 7v-10.15h-2v10.15h2zm-.573-11.055-50.4-23.8-.854 1.809 50.4 23.8.854-1.809zM1.1 295.687v10.15h2v-10.15h-2zm.59 11.061 26.25 11.83.82-1.823-26.25-11.83-.82 1.823zM27.95 316.75l-26.25 11.41.798 1.834 26.25-11.41-.798-1.834zM1.1 329.077v10.78h2v-10.78h-2zm1.429 11.683 36.26-17.22-.858-1.807-36.26 17.22.858 1.807zm35.387-17.227 14.14 7 .888-1.793-14.14-7-.888 1.793zm14.584-32.72v1h1v-1h-1zm0-53.55v-1h-1v1h1zm8.4 0v1h1v-1h-1zm0-9.52h1v-1h-1v1zm-16.8 0v-1h-1v1h1zm0 5.67v1h1v-1h-1zm-42 0v-1h-1v1h1zm0 9.52h-1v1h1v-1zm41.51 0h1v-1h-1v1zm0 14.42v1h1v-1h-1zm-41.51 0v-1h-1v1h1zm0 9.52h-1v1h1v-1zm41.51 0h1v-1h-1v1zm0 14.42v1h1v-1h-1zm-41.51 0v-1h-1v1h1zm0 9.52h-1v1h1v-1zm51.4 0v-53.55h-2v53.55h2zm-1-52.55h8.4v-2h-8.4v2zm9.4-1v-9.52h-2v9.52h2zm-1-10.52H44.1v2h16.8v-2zm-17.8 1v5.67h2v-5.67h-2zm1 4.67h-42v2h42v-2zm-43 1v9.52h2v-9.52h-2zm1 10.52h41.51v-2H2.1v2zm40.51-1v14.42h2v-14.42h-2zm1 13.42H2.1v2h41.51v-2zm-42.51 1v9.52h2v-9.52h-2zm1 10.52h41.51v-2H2.1v2zm40.51-1v14.42h2v-14.42h-2zm1 13.42H2.1v2h41.51v-2zm-42.51 1v9.52h2v-9.52h-2zm1 10.52h50.4v-2H2.1v2zm50.4-69.701v1h1v-1h-1zm0-32.9h1v-1h-1v1zm-8.89 0v-1h-1v1h1zm0 23.38v1h1v-1h-1zm-12.95 0h-1v1h1v-1zm0-19.18h1v-1h-1v1zm-8.89 0v-1h-1v1h1zm0 19.18v1h1v-1h-1zm-10.78 0h-1v1h1v-1zm0-23.38h1v-1h-1v1zm-8.89 0v-1h-1v1h1zm0 32.9h-1v1h1v-1zm51.4 0v-32.9h-2v32.9h2zm-1-33.9h-8.89v2h8.89v-2zm-9.89 1v23.38h2v-23.38h-2zm1 22.38H30.66v2h12.95v-2zm-11.95 1v-19.18h-2v19.18h2zm-1-20.18h-8.89v2h8.89v-2zm-9.89 1v19.18h2v-19.18h-2zm1 18.18H10.99v2h10.78v-2zm-9.78 1v-23.38h-2v23.38h2zm-1-24.38H2.1v2h8.89v-2zm-9.89 1v32.9h2v-32.9h-2zm1 33.9h50.4v-2H2.1v2zm47.145-76.36-.808.588.001.003.807-.591zm-11.655-8.33.312-.95-.995-.327-.28 1.01.963.267zm-2.66 9.59-.964-.267-.26.937.93.286.294-.956zm7.105 4.725-.793.609.793-.609zm-2.135 19.39.607.795.006-.005-.613-.79zm-25.165 0-.61.792v.001l.61-.793zm-2.17-19.39.793.609.004-.005-.797-.604zm7.105-4.725.292.956.932-.284-.26-.939-.964.267zm-2.66-9.59.964-.267-.28-1.01-.996.327.312.95zm-11.655 8.33.807.591.002-.003-.809-.588zM4.34 174.367l-.858.513.001.003.857-.516zm9.205 8.435-.45.893.005.002.445-.895zm27.51 0 .445.895.004-.002-.449-.893zm9.205-8.435.857.516.001-.003-.858-.513zm4.29-13.055c0-5.958-1.48-11.029-4.498-15.151l-1.614 1.182c2.722 3.717 4.112 8.353 4.112 13.969h2zm-4.496-15.149c-3.001-4.123-7.065-7.02-12.152-8.691l-.624 1.9c4.713 1.548 8.42 4.205 11.159 7.968l1.617-1.177zm-13.428-8.008-2.66 9.59 1.928.534 2.66-9.59-1.928-.534zm-1.99 10.813c2.863.881 5.046 2.348 6.606 4.378l1.586-1.219c-1.846-2.402-4.4-4.085-7.604-5.071l-.588 1.912zm6.606 4.378c1.538 2.002 2.348 4.63 2.348 7.966h2c0-3.664-.894-6.753-2.762-9.185l-1.586 1.219zm2.348 7.966c0 4.546-1.472 7.828-4.303 10.025l1.226 1.58c3.422-2.656 5.077-6.585 5.077-11.605h-2zm-4.297 10.02c-2.926 2.233-6.891 3.4-11.993 3.4v2c5.398 0 9.833-1.236 13.207-3.81l-1.214-1.59zm-11.993 3.4c-5.102 0-9.054-1.168-11.956-3.398l-1.218 1.586c3.351 2.576 7.776 3.812 13.174 3.812v-2zm-11.955-3.397c-2.853-2.199-4.335-5.48-4.335-10.023h-2c0 5.023 1.668 8.952 5.115 11.607l1.22-1.584zm-4.335-10.023c0-3.336.81-5.964 2.348-7.966l-1.586-1.218c-1.868 2.431-2.762 5.52-2.762 9.184h2zm2.352-7.971c1.535-2.025 3.713-3.491 6.6-4.373l-.584-1.913c-3.227.986-5.785 2.669-7.61 5.078l1.594 1.208zm7.272-5.596-2.66-9.59-1.928.534 2.66 9.59 1.928-.534zm-3.936-10.273c-5.087 1.671-9.15 4.568-12.152 8.691l1.618 1.177c2.739-3.763 6.445-6.42 11.158-7.968l-.624-1.9zm-12.15 8.689C1.53 150.283.05 155.354.05 161.312h2c0-5.616 1.39-10.252 4.112-13.969l-1.614-1.182zM.05 161.312c0 5.188 1.13 9.724 3.432 13.568l1.716-1.027c-2.085-3.482-3.148-7.649-3.148-12.541h-2zm3.433 13.571c2.295 3.808 5.508 6.747 9.613 8.812l.898-1.787c-3.781-1.902-6.705-4.585-8.797-8.057l-1.714 1.032zm9.617 8.814c4.105 2.041 8.848 3.045 14.2 3.045v-2c-5.1 0-9.529-.956-13.31-2.836l-.89 1.791zm14.2 3.045c5.352 0 10.095-1.004 14.2-3.045l-.89-1.791c-3.782 1.88-8.21 2.836-13.31 2.836v2zm14.204-3.047c4.105-2.065 7.318-5.004 9.613-8.812l-1.713-1.032c-2.093 3.472-5.017 6.155-8.798 8.057l.898 1.787zm9.614-8.815c2.302-3.844 3.432-8.38 3.432-13.568h-2c0 4.892-1.063 9.059-3.148 12.541l1.716 1.027zm1.382-55.855v1h1v-1h-1zm0-9.52h1v-1h-1v1zm-41.51 0h-1v1h1v-1zm0-15.89h1v-1h-1v1zm-8.89 0v-1h-1v1h1zm0 41.3h-1v1h1v-1zm8.89 0v1h1v-1h-1zm0-15.89v-1h-1v1h1zm42.51 0v-9.52h-2v9.52h2zm-1-10.52H10.99v2H52.5v-2zm-40.51 1v-15.89h-2v15.89h2zm-1-16.89H2.1v2h8.89v-2zm-9.89 1v41.3h2v-41.3h-2zm1 42.3h8.89v-2H2.1v2zm9.89-1v-15.89h-2v15.89h2zm-1-14.89H52.5v-2H10.99v2zM52.5 87.991v1h1v-1h-1zm-4.235-33.81-.663.748.663-.748zm-17.71-1.995.494.87.012-.008-.506-.862zm-4.55 5.285-.854.52 1.023 1.678.754-1.814-.923-.384zm-3.85-3.5.452-.892-.452.892zm-12.495.28-.428-.904.428.904zm-5.39 4.865.837.546.004-.006-.841-.54zM2.1 87.99h-1v1h1v-1zm19.67-9.66v1h1v-1h-1zm-10.78 0h-1v1h1v-1zm1.575-14.525.674.739-.674-.74zm7.945.175.78-.625v-.002l-.78.627zm23.03 14.35v1h1v-1h-1zm-12.88 0h-1v1h1v-1zm1.785-16.66.678.735.007-.007.008-.007-.693-.721zm9.31.21.72-.694-.72.694zM53.5 87.99V65.66h-2v22.33h2zm0-22.33c0-5.333-1.464-9.48-4.573-12.23l-1.325 1.499c2.539 2.244 3.898 5.75 3.898 10.73h2zm-4.572-12.23c-3.062-2.71-6.988-4.03-11.688-4.03v2c4.307 0 7.731 1.2 10.362 3.528l1.326-1.497zm-11.688-4.03c-2.599 0-5.002.64-7.19 1.922l1.01 1.725c1.872-1.097 3.925-1.647 6.18-1.647v-2zm-7.179 1.915c-2.262 1.286-3.921 3.227-4.98 5.77l1.847.769c.902-2.17 2.277-3.752 4.121-4.8l-.988-1.739zm-3.202 5.634c-1.013-1.662-2.44-2.953-4.252-3.871l-.904 1.783c1.501.762 2.64 1.804 3.448 3.129l1.708-1.04zm-4.252-3.871c-1.825-.926-3.959-1.368-6.367-1.368v2c2.165 0 3.975.397 5.463 1.151l.904-1.783zM16.24 51.71c-2.377 0-4.715.551-7.008 1.636l.856 1.807c2.047-.968 4.095-1.443 6.152-1.443v-2zm-7.008 1.636c-2.355 1.114-4.29 2.87-5.803 5.228l1.682 1.08c1.333-2.074 2.992-3.562 4.977-4.5l-.856-1.808zm-5.8 5.222C1.849 60.997 1.1 64.111 1.1 67.831h2c0-3.467.698-6.163 2.007-8.169L3.433 58.57zM1.1 67.831v20.16h2V67.83h-2zm1 21.16h50.4v-2H2.1v2zm19.67-11.66H10.99v2h10.78v-2zm-9.78 1V67.97h-2v10.36h2zm0-10.36c0-1.623.461-2.71 1.248-3.426l-1.346-1.479c-1.313 1.197-1.902 2.887-1.902 4.905h2zm1.248-3.426c.85-.774 1.898-1.174 3.212-1.174v-2c-1.766 0-3.308.556-4.558 1.695l1.347 1.479zm3.212-1.174c1.65 0 2.667.473 3.28 1.236l1.56-1.253c-1.113-1.383-2.803-1.983-4.84-1.983v2zm3.28 1.234c.67.84 1.04 1.936 1.04 3.366h2c0-1.79-.47-3.355-1.48-4.615l-1.56 1.25zm1.04 3.366v10.36h2V67.97h-2zm22.77 9.36H30.66v2h12.88v-2zm-11.88 1V66.64h-2v11.69h2zm0-11.69c0-2.045.546-3.39 1.463-4.235l-1.356-1.47c-1.462 1.347-2.107 3.316-2.107 5.705h2zm1.478-4.249c.959-.92 2.182-1.401 3.752-1.401v-2c-2.024 0-3.763.639-5.138 1.958l1.386 1.443zm3.752-1.401c1.806 0 3.15.55 4.145 1.583l1.44-1.387c-1.432-1.487-3.33-2.196-5.585-2.196v2zm4.144 1.583c.988 1.026 1.506 2.353 1.506 4.067h2c0-2.16-.672-4.006-2.065-5.454l-1.44 1.387zm1.506 4.067v11.69h2V66.64h-2zm9.96-19.72-.292.956 1.292.395V46.92h-1zm0-9.8h1v-.742l-.71-.216-.29.957zM42 33.934h-1v.742l.71.215.29-.957zm0-18.97-.296-.955-.704.218v.737h1zm10.5-3.255.296.955.704-.218v-.737h-1zm0-9.8h1V.56l-1.292.394.292.956zM2.1 17.31l-.292-.956-.708.216v.74h1zm0 14.21h-1v.74l.708.217.292-.957zm31.01-.28-.291.957 1.291.393v-1.35h-1zm-22.085-6.72-.295-.955-3.116.963 3.12.949.291-.957zm22.085-6.825h1V16.34l-1.295.4.295.955zM53.5 46.92v-9.8h-2v9.8h2zm-.71-10.757-10.5-3.185-.58 1.914 10.5 3.185.58-1.914zM43 33.935v-18.97h-2v18.97h2zm-.704-18.015 10.5-3.255-.592-1.91-10.5 3.255.592 1.91zM53.5 11.71v-9.8h-2v9.8h2zM52.208.954l-50.4 15.4.584 1.913 50.4-15.4-.584-1.913zM1.1 17.31v14.21h2V17.31h-2zm.708 15.167 50.4 15.4.584-1.913-50.4-15.4-.584 1.913zM33.4 30.284l-22.085-6.72-.582 1.913 22.085 6.72.582-1.913zm-22.08-4.808 22.084-6.825-.59-1.911-22.085 6.825.59 1.91zm20.789-7.78V31.24h2V17.695h-2z" fill="#28272D"/>
</svg>
