<svg width="1920" height="1305" fill="none" xmlns="http://www.w3.org/2000/svg">
    <g opacity=".2" fill-rule="evenodd" clip-rule="evenodd">
        <path d="M-2 1041.5h1922.5v1H-2v-1z" fill="url(#a)"/>
        <path d="M1544.03 0v1305h-.98V0h.98z" fill="url(#b)"/>
        <path d="M1249.08 0v1305h-.99V0h.99z" fill="url(#c)"/>
        <path d="m957.087 0-.001 1305h-.986V0h.987z" fill="url(#d)"/>
        <path d="M663.12 0v1305h-.987V0h.987z" fill="url(#e)"/>
        <path d="M374.709 0v1305h-.987V0h.987z" fill="url(#f)"/>
        <path d="M1838 0v1305h-.99V0h.99z" fill="url(#g)"/>
        <path d="M80.742 0v1305h-.986V0h.986z" fill="url(#h)"/>
        <path d="M-2 748.5h1922.5v1H-2v-1z" fill="url(#i)"/>
        <path d="M-2 455.5h1922.5v1H-2v-1z" fill="url(#j)"/>
    </g>
    <defs>
        <linearGradient id="a" x1="973" y1="1333" x2="973" y2="311.999" gradientUnits="userSpaceOnUse">
            <stop stop-color="#5CC773"/>
            <stop offset="1" stop-color="#5CC773" stop-opacity=".18"/>
        </linearGradient>
        <linearGradient id="b" x1="973" y1="1333" x2="973" y2="311.999" gradientUnits="userSpaceOnUse">
            <stop stop-color="#5CC773"/>
            <stop offset="1" stop-color="#5CC773" stop-opacity=".18"/>
        </linearGradient>
        <linearGradient id="c" x1="973" y1="1333" x2="973" y2="311.999" gradientUnits="userSpaceOnUse">
            <stop stop-color="#5CC773"/>
            <stop offset="1" stop-color="#5CC773" stop-opacity=".18"/>
        </linearGradient>
        <linearGradient id="d" x1="973" y1="1333" x2="973" y2="311.999" gradientUnits="userSpaceOnUse">
            <stop stop-color="#5CC773"/>
            <stop offset="1" stop-color="#5CC773" stop-opacity=".18"/>
        </linearGradient>
        <linearGradient id="e" x1="973" y1="1333" x2="973" y2="311.999" gradientUnits="userSpaceOnUse">
            <stop stop-color="#5CC773"/>
            <stop offset="1" stop-color="#5CC773" stop-opacity=".18"/>
        </linearGradient>
        <linearGradient id="f" x1="973" y1="1333" x2="973" y2="311.999" gradientUnits="userSpaceOnUse">
            <stop stop-color="#5CC773"/>
            <stop offset="1" stop-color="#5CC773" stop-opacity=".18"/>
        </linearGradient>
        <linearGradient id="g" x1="973" y1="1333" x2="973" y2="311.999" gradientUnits="userSpaceOnUse">
            <stop stop-color="#5CC773"/>
            <stop offset="1" stop-color="#5CC773" stop-opacity=".18"/>
        </linearGradient>
        <linearGradient id="h" x1="973" y1="1333" x2="973" y2="311.999" gradientUnits="userSpaceOnUse">
            <stop stop-color="#5CC773"/>
            <stop offset="1" stop-color="#5CC773" stop-opacity=".18"/>
        </linearGradient>
        <linearGradient id="i" x1="973" y1="1333" x2="973" y2="311.999" gradientUnits="userSpaceOnUse">
            <stop stop-color="#5CC773"/>
            <stop offset="1" stop-color="#5CC773" stop-opacity=".18"/>
        </linearGradient>
        <linearGradient id="j" x1="973" y1="1333" x2="973" y2="311.999" gradientUnits="userSpaceOnUse">
            <stop stop-color="#5CC773"/>
            <stop offset="1" stop-color="#5CC773" stop-opacity=".18"/>
        </linearGradient>
    </defs>
</svg>
