<svg width="178" height="36" fill="none" xmlns="http://www.w3.org/2000/svg">
    <path d="M35.071 0h-5.53a.612.612 0 0 0-.472.202L.202 29.07A.612.612 0 0 0 0 29.54v5.53c0 .338.27.675.674.675h5.53a.613.613 0 0 0 .473-.202L35.544 6.677a.613.613 0 0 0 .202-.472V.675c0-.405-.27-.675-.675-.675zM1.147 14.366l13.219-13.22C14.838.675 14.5 0 13.96 0H.674C.27 0 0 .27 0 .674v13.287c0 .54.674.877 1.147.405zM34.6 21.38 21.38 34.6c-.472.472-.135 1.146.405 1.146h13.287c.337 0 .674-.27.674-.674V21.785c0-.54-.674-.877-1.147-.405zM61.279 22.171l9.17-8.405v-.255h-8.343v-3.82h14.01v4.075l-9.17 8.405v.319h9.488v3.757H61.279V22.17zM78.917 17.523h7.896v4.012h-7.896v-4.012zM90.316 9.69h12.736v3.757h-8.406v2.802h8.024v3.757h-8.024v6.24h-4.33V9.69zM110.374 9.69h5.157l6.75 15.601v.956h-4.457l-1.083-2.675h-7.577l-1.083 2.675h-4.33v-.956l6.623-15.6zm.318 10.125h4.457l-2.037-5.094h-.382l-2.038 5.094zM138.838 13.702v1.082h-4.457c-.446-1.018-1.847-1.655-3.184-1.655-1.528 0-2.611.51-2.611 1.337 0 .892 1.528 1.274 2.993 1.592 2.993.637 7.386 1.528 7.386 5.158 0 3.375-3.183 5.413-7.259 5.413-3.566 0-6.559-1.656-7.832-4.585V20.96h4.457c.51 1.02 1.847 1.656 3.439 1.656 1.528 0 2.802-.382 2.802-1.337 0-.828-1.401-1.21-3.057-1.529-2.929-.573-7.323-1.464-7.323-5.221 0-3.184 3.184-5.413 7.005-5.413 3.693.064 6.431 1.974 7.641 4.585zM147.119 9.69h5.158l6.749 15.602v.955h-4.457l-1.082-2.675h-7.514l-1.083 2.675h-4.33v-.955l6.559-15.601zm.318 10.125h4.458l-2.038-5.094h-.382l-2.038 5.094zM161.444 9.69h7.45c5.158 0 9.106 3.057 9.106 8.279 0 5.221-3.948 8.278-9.106 8.278h-7.514V9.69h.064zm4.33 3.821v9.043h3.184c2.674 0 4.712-1.656 4.712-4.521 0-2.93-1.974-4.458-4.712-4.458h-3.184v-.064z" fill="#28272D"/>
</svg>
