<svg width="276" height="74" fill="none" xmlns="http://www.w3.org/2000/svg">
    <path d="M71.623.5H60.328c-.413 0-.688.138-.964.413L.414 59.864c-.276.276-.414.551-.414.964v11.295C0 72.81.55 73.5 1.377 73.5h11.295c.413 0 .688-.138.964-.413l58.95-58.951c.276-.276.414-.551.414-.964V1.877C73 1.051 72.45.5 71.623.5z" fill="#5CC773"/>
    <path d="M2.342 29.838 29.338 2.842C30.302 1.877 29.613.5 28.51.5H1.377C.551.5 0 1.05 0 1.877v27.134c0 1.102 1.377 1.79 2.342.827zM70.659 44.161 43.662 71.157c-.964.965-.275 2.342.827 2.342h27.134c.688 0 1.377-.551 1.377-1.377V44.988c0-1.102-1.377-1.79-2.341-.827z" fill="#28272D"/>
    <path d="m100 42.229 11.156-10.226v-.31h-10.149v-4.648h17.043v4.958l-11.155 10.226v.387h11.543v4.571H100v-4.958z" fill="#5CC773"/>
    <path d="M121.457 36.574h9.606v4.88h-9.606v-4.88zM135.328 27.045h15.494v4.57h-10.226v3.41h9.761v4.57h-9.761v7.592h-5.268V27.045zM159.729 27.045h6.275l8.211 18.98v1.162h-5.422l-1.317-3.254h-9.219l-1.317 3.254h-5.268v-1.162l8.057-18.98zm.387 12.317h5.423l-2.479-6.197h-.465l-2.479 6.197zM194.354 31.925v1.317h-5.423c-.542-1.24-2.247-2.014-3.874-2.014-1.859 0-3.176.62-3.176 1.627 0 1.085 1.859 1.55 3.641 1.937 3.641.774 8.987 1.86 8.987 6.275 0 4.106-3.874 6.585-8.832 6.585-4.338 0-7.979-2.014-9.529-5.578v-1.317h5.423c.62 1.24 2.247 2.014 4.184 2.014 1.859 0 3.408-.465 3.408-1.627 0-1.007-1.704-1.472-3.718-1.859-3.564-.697-8.909-1.782-8.909-6.352 0-3.874 3.873-6.585 8.521-6.585 4.494.077 7.825 2.401 9.297 5.577zM204.429 27.045h6.275l8.211 18.98v1.162h-5.423l-1.317-3.254h-9.141l-1.317 3.254h-5.268v-1.162l7.98-18.98zm.387 12.317h5.423l-2.479-6.197h-.465l-2.479 6.197zM221.859 27.045h9.064c6.275 0 11.078 3.718 11.078 10.07 0 6.353-4.803 10.072-11.078 10.072h-9.142V27.045h.078zm5.268 4.648v11H231c3.254 0 5.733-2.014 5.733-5.5 0-3.563-2.402-5.422-5.733-5.422h-3.873v-.078z" fill="#28272D"/>
</svg>
