<svg width="771" height="233" fill="none" xmlns="http://www.w3.org/2000/svg">
    <g opacity=".4" fill="#F3F3F3">
        <path d="M228.39 0h-35.937c-1.314 0-2.191.438-3.067 1.315L1.815 188.886C.938 189.762.5 190.639.5 191.953v35.937c0 2.191 1.753 4.382 4.383 4.382h35.936c1.315 0 2.191-.438 3.068-1.314L231.458 43.387c.876-.877 1.314-1.753 1.314-3.068V4.382c0-2.629-1.753-4.382-4.382-4.382zM7.95 93.347 93.847 7.45c3.068-3.067.877-7.45-2.63-7.45H4.884C2.253 0 .5 1.753.5 4.383v86.335c0 3.506 4.383 5.697 7.45 2.63zM225.322 138.922l-85.897 85.897c-3.068 3.068-.877 7.45 2.629 7.45h86.335c2.192 0 4.383-1.753 4.383-4.382v-86.336c0-3.506-4.383-5.697-7.45-2.629zM318.682 133.882l35.495-32.537v-.986h-32.291v-14.79h54.228v15.776l-35.494 32.537v1.232h36.727v14.543h-58.665v-15.775zM386.957 115.889h30.565v15.529h-30.565v-15.529zM431.089 85.57h49.298v14.542H447.85v10.846h31.058v14.543H447.85v24.156h-16.761V85.569zM508.725 85.57h19.966l26.128 60.39v3.697h-17.254l-4.191-10.352h-29.332l-4.191 10.352H483.09v-3.697l25.635-60.39zm1.233 39.192h17.254l-7.888-19.72h-1.479l-7.887 19.72zM618.425 99.991v4.19H601.17c-1.725-3.943-7.148-6.408-12.324-6.408-5.916 0-10.107 1.972-10.107 5.176 0 3.451 5.916 4.93 11.586 6.162 11.585 2.465 28.593 5.916 28.593 19.966 0 13.064-12.325 20.952-28.1 20.952-13.804 0-25.389-6.409-30.319-17.747v-4.191h17.255c1.971 3.944 7.148 6.409 13.31 6.409 5.916 0 10.846-1.479 10.846-5.176 0-3.205-5.423-4.684-11.832-5.916-11.339-2.219-28.347-5.669-28.347-20.213 0-12.324 12.325-20.951 27.115-20.951 14.296.246 24.895 7.64 29.579 17.747zM650.956 85.57h19.966l26.128 60.39v3.697h-17.254l-4.191-10.352h-29.086l-4.19 10.352h-16.762v-3.697l25.389-60.39zm1.233 39.192h17.254l-7.888-19.72h-1.479l-7.887 19.72zM706.414 85.57h28.839c19.966 0 35.249 11.83 35.249 32.043s-15.283 32.044-35.249 32.044h-29.086V85.569h.247zm16.761 14.789v35.002H735.5c10.352 0 18.24-6.409 18.24-17.501 0-11.339-7.641-17.255-18.24-17.255h-12.325v-.246z"/>
    </g>
</svg>
