<svg width="152" height="28" fill="none" xmlns="http://www.w3.org/2000/svg">
    <g clip-path="url(#a)">
        <path fill="url(#b)" fill-opacity=".2" d="M0 0h28v28H0z"/>
        <path d="M27.472 0H23.14a.48.48 0 0 0-.37.158L.158 22.77a.48.48 0 0 0-.158.37v4.332A.53.53 0 0 0 .528 28H4.86a.48.48 0 0 0 .37-.159l22.611-22.61A.48.48 0 0 0 28 4.86V.527C28 .211 27.789 0 27.472 0z" fill="#5CC773"/>
        <path d="M.898 11.253 11.253.898c.37-.37.105-.898-.317-.898H.528C.211 0 0 .211 0 .528v10.408c0 .422.528.687.898.317zM27.101 16.747 16.746 27.102c-.37.37-.105.898.317.898h10.408a.53.53 0 0 0 .528-.528V17.064c0-.422-.528-.686-.898-.317z" fill="#fff"/>
    </g>
    <path d="m48 17.367 7.183-6.584v-.2h-6.535V7.592h10.974v3.192l-7.183 6.584v.25h7.432v2.942H48v-3.192z" fill="#5CC773"/>
    <path d="M61.816 13.726h6.185v3.142h-6.185v-3.142zM70.746 7.59h9.976v2.944h-6.584v2.194h6.285v2.943h-6.285v4.888h-3.392V7.591zM86.457 7.59h4.04l5.287 12.221v.748h-3.491l-.848-2.095h-5.936l-.848 2.095H81.27v-.748l5.188-12.22zm.25 7.932h3.49l-1.595-3.99h-.3l-1.596 3.99zM108.753 10.733v.848h-3.492c-.349-.798-1.446-1.297-2.494-1.297-1.197 0-2.045.399-2.045 1.047 0 .699 1.197.998 2.345 1.247 2.344.5 5.786 1.197 5.786 4.04 0 2.644-2.494 4.24-5.687 4.24-2.793 0-5.137-1.297-6.135-3.59v-.849h3.492c.399.798 1.446 1.297 2.693 1.297 1.197 0 2.195-.3 2.195-1.047 0-.649-1.097-.948-2.394-1.198-2.295-.448-5.736-1.147-5.736-4.09 0-2.494 2.494-4.24 5.486-4.24 2.893.05 5.038 1.547 5.986 3.592zM115.239 7.59h4.04l5.288 12.221v.748h-3.492l-.848-2.095h-5.886l-.848 2.095h-3.391v-.748l5.137-12.22zm.25 7.932h3.491l-1.596-3.99h-.299l-1.596 3.99zM126.46 7.59h5.836c4.04 0 7.133 2.395 7.133 6.485s-3.093 6.484-7.133 6.484h-5.886V7.591h.05zm3.392 2.994v7.082h2.494c2.095 0 3.691-1.296 3.691-3.541 0-2.294-1.546-3.492-3.691-3.492h-2.494v-.05z" fill="#fff"/>
    <defs>
        <linearGradient id="b" x1="12.942" y1="28" x2="14.98" y2=".984" gradientUnits="userSpaceOnUse">
            <stop stop-color="#5CC773"/>
            <stop offset="1" stop-color="#5CC773" stop-opacity=".18"/>
        </linearGradient>
        <clipPath id="a">
            <path fill="#fff" d="M0 0h28v28H0z"/>
        </clipPath>
    </defs>
</svg>
