<svg width="55" height="543" fill="none" xmlns="http://www.w3.org/2000/svg">
    <path d="M52.5 541.1v1h1v-1h-1zm0-9.52h1v-1h-1v1zm-41.51 0h-1v1h1v-1zm0-22.54v-1h-1v1h1zm41.51 0v1h1v-1h-1zm0-9.52h1v-1h-1v1zm-50.4 0v-1h-1v1h1zm0 41.58h-1v1h1v-1zm51.4 0v-9.52h-2v9.52h2zm-1-10.52H10.99v2H52.5v-2zm-40.51 1v-22.54h-2v22.54h2zm-1-21.54H52.5v-2H10.99v2zm42.51-1v-9.52h-2v9.52h2zm-1-10.52H2.1v2h50.4v-2zm-51.4 1v41.58h2v-41.58h-2zm1 42.58h50.4v-2H2.1v2zm50.4-48.906-.292.956 1.292.395v-1.351h-1zm0-9.8h1v-.742l-.71-.215-.29.957zM42 480.209h-1v.741l.71.216.29-.957zm0-18.97-.296-.955-.704.218v.737h1zm10.5-3.255.296.955.704-.218v-.737h-1zm0-9.8h1v-1.351l-1.292.394.292.957zm-50.4 15.4-.292-.957-.708.217v.74h1zm0 14.21h-1v.74l.708.216.292-.956zm31.01-.28-.291.956 1.291.393v-1.349h-1zm-22.085-6.72-.295-.956-3.116.963 3.12.949.291-.956zm22.085-6.825h1v-1.356l-1.295.4.295.956zm20.39 29.225v-9.8h-2v9.8h2zm-.71-10.757-10.5-3.185-.58 1.914 10.5 3.185.58-1.914zM43 480.209v-18.97h-2v18.97h2zm-.704-18.015 10.5-3.255-.592-1.91-10.5 3.255.592 1.91zm11.204-4.21v-9.8h-2v9.8h2zm-1.292-10.757-50.4 15.4.584 1.913 50.4-15.4-.584-1.913zM1.1 463.584v14.21h2v-14.21h-2zm.708 15.166 50.4 15.4.584-1.913-50.4-15.4-.584 1.913zm31.593-2.193-22.085-6.72-.582 1.913 22.085 6.72.582-1.913zm-22.08-4.808 22.084-6.825-.59-1.911-22.085 6.825.59 1.911zm20.789-7.78v13.545h2v-13.545h-2zm20.39-22.058v1h1v-1h-1zm0-9.52h1v-1h-1v1zm-20.79 0h-1v1h1v-1zm0-22.54v-1h-1v1h1zm20.79 0v1h1v-1h-1zm0-9.52h1v-1h-1v1zm-50.4 0v-1h-1v1h1zm0 9.52h-1v1h1v-1zm20.72 0h1v-1h-1v1zm0 22.54v1h1v-1h-1zm-20.72 0v-1h-1v1h1zm0 9.52h-1v1h1v-1zm51.4 0v-9.52h-2v9.52h2zm-1-10.52H31.71v2H52.5v-2zm-19.79 1v-22.54h-2v22.54h2zm-1-21.54H52.5v-2H31.71v2zm21.79-1v-9.52h-2v9.52h2zm-1-10.52H2.1v2h50.4v-2zm-51.4 1v9.52h2v-9.52h-2zm1 10.52h20.72v-2H2.1v2zm19.72-1v22.54h2v-22.54h-2zm1 21.54H2.1v2h20.72v-2zm-21.72 1v9.52h2v-9.52h-2zm1 10.52h50.4v-2H2.1v2zm50.4-52.407v1h1v-1h-1zm0-32.9h1v-1h-1v1zm-8.89 0v-1h-1v1h1zm0 23.38v1h1v-1h-1zm-12.95 0h-1v1h1v-1zm0-19.18h1v-1h-1v1zm-8.89 0v-1h-1v1h1zm0 19.18v1h1v-1h-1zm-10.78 0h-1v1h1v-1zm0-23.38h1v-1h-1v1zm-8.89 0v-1h-1v1h1zm0 32.9h-1v1h1v-1zm51.4 0v-32.9h-2v32.9h2zm-1-33.9h-8.89v2h8.89v-2zm-9.89 1v23.38h2v-23.38h-2zm1 22.38H30.66v2h12.95v-2zm-11.95 1v-19.18h-2v19.18h2zm-1-20.18h-8.89v2h8.89v-2zm-9.89 1v19.18h2v-19.18h-2zm1 18.18H10.99v2h10.78v-2zm-9.78 1v-23.38h-2v23.38h2zm-1-24.38H2.1v2h8.89v-2zm-9.89 1v32.9h2v-32.9h-2zm1 33.9h50.4v-2H2.1v2zm50.4-38.789v1h.822l.159-.806-.981-.194zm-.315-8.575-.912.41.002.004.91-.414zm-4.83-4.725.425-.905-.425.905zm-8.435-2.59-.205.979.013.003.192-.982zm-7.945-1.365.135-.991-.135.991zm-7.91-.945-.1.995.1-.995zm-6.965-.595-.078.997.012.001.066-.998zm-5.11-.385h-1v.931l.929.067.071-.998zm0-16.1v-1h-1v1h1zm41.51 0v1h1v-1h-1zm0-9.52h1v-1h-1v1zm-50.4 0v-1h-1v1h1zm0 34.37h-1v.955l.954.044.046-.999zm6.125.315.055-.998-.055.998zm8.47.595-.082.997.082-.997zm9.52.98-.121.993.006.001.115-.994zm9.205 1.4-.189.982.004.001.185-.983zm5.775 1.54.382-.924-.005-.002-.377.926zm2.8 2.17.87-.493-.005-.008-.865.501zm.595 3.43-.998-.065-.07 1.065h1.068v-1zm8.891.194c.74-3.746.674-6.851-.386-9.183l-1.82.828c.806 1.775.95 4.387.244 7.968l1.962.387zm-.384-9.179c-1.042-2.319-2.84-4.057-5.317-5.22l-.85 1.81c2.096.984 3.518 2.396 4.343 4.23l1.824-.82zm-5.317-5.22c-2.381-1.118-5.276-2.002-8.668-2.666l-.384 1.963c3.282.642 6.01 1.485 8.202 2.513l.85-1.81zm-8.655-2.664c-2.591-.541-5.263-1-8.015-1.377l-.27 1.982c2.707.37 5.333.821 7.875 1.353l.41-1.958zm-8.015-1.377a228.8 228.8 0 0 0-7.945-.949l-.2 1.99c2.53.256 5.155.569 7.875.941l.27-1.982zm-7.945-.949a209.821 209.821 0 0 0-6.998-.598l-.134 1.996c2.087.139 4.397.336 6.932.592l.2-1.99zm-6.988-.597a830.337 830.337 0 0 0-5.116-.385l-.142 1.995c1.303.093 3.005.221 5.103.384l.155-1.994zm-4.187.612v-16.1h-2v16.1h2zm-1-15.1H52.5v-2H10.99v2zm42.51-1v-9.52h-2v9.52h2zm-1-10.52H2.1v2h50.4v-2zm-51.4 1v34.37h2v-34.37h-2zm.954 35.369c1.513.07 3.551.175 6.117.315l.108-1.997c-2.567-.14-4.612-.246-6.133-.316l-.092 1.998zm6.116.315c2.533.139 5.347.337 8.443.593l.164-1.993c-3.11-.258-5.943-.457-8.497-.597l-.11 1.997zm8.443.593c3.09.255 6.25.581 9.48.976l.243-1.985a242.262 242.262 0 0 0-9.559-.984l-.164 1.993zm9.487.977c3.197.37 6.241.833 9.131 1.388l.377-1.964a126.608 126.608 0 0 0-9.278-1.411l-.23 1.987zm9.135 1.389c2.446.461 4.296.96 5.583 1.484l.754-1.853c-1.467-.597-3.466-1.125-5.967-1.596l-.37 1.965zm5.578 1.481c1.234.511 1.952 1.117 2.317 1.747l1.73-1.002c-.661-1.143-1.81-1.984-3.283-2.593l-.764 1.848zm2.312 1.74c.36.634.553 1.561.467 2.871l1.996.131c.1-1.537-.103-2.897-.723-3.989l-1.74.987zm1.465 3.936h7.91v-2h-7.91v2zm7.91-96.863h1v-1h-1v1zm0 9.66v1h1v-1h-1zm-33.6 0v-1h-3.364l2.818 1.838.546-.838zm33.6 21.91h1v-.541l-.454-.296-.546.837zm0 9.66v1h1v-1h-1zm-50.4 0h-1v1h1v-1zm0-9.66v-1h-1v1h1zm33.6 0v1h3.364l-2.818-1.837-.546.837zm-33.6-21.91h-1v.542l.454.296.546-.838zm0-9.66v-1h-1v1h1zm49.4 0v9.66h2v-9.66h-2zm1 8.66H18.9v2h33.6v-2zm-34.146 1.838 33.6 21.91 1.092-1.675-33.6-21.91-1.092 1.675zM51.5 288.422v9.66h2v-9.66h-2zm1 8.66H2.1v2h50.4v-2zm-49.4 1v-9.66h-2v9.66h2zm-1-8.66h33.6v-2H2.1v2zm34.146-1.837-33.6-21.91-1.092 1.675 33.6 21.91 1.092-1.675zM3.1 266.512v-9.66h-2v9.66h2zm-1-8.66h50.4v-2H2.1v2zm47.145-60.969-.808.588.001.002.807-.59zm-11.655-8.33.312-.95-.995-.328-.28 1.01.963.268zm-2.66 9.59-.964-.268-.26.937.93.286.294-.955zm7.105 4.725-.793.609.793-.609zm-2.135 19.39.607.795.006-.005-.613-.79zm-25.165 0-.61.792.61-.792zm-2.17-19.39.793.609.004-.005-.797-.604zm7.105-4.725.292.956.932-.285-.26-.939-.964.268zm-2.66-9.59.964-.268-.28-1.01-.996.328.312.95zm-11.655 8.33.807.59.002-.002-.809-.588zM4.34 224.498l-.858.513.001.003.857-.516zm9.205 8.435-.45.893.005.002.445-.895zm27.51 0 .445.895.004-.002-.449-.893zm9.205-8.435.857.516.001-.003-.858-.513zm4.29-13.055c0-5.958-1.48-11.029-4.498-15.151l-1.614 1.181c2.722 3.718 4.112 8.354 4.112 13.97h2zm-4.496-15.149c-3.001-4.123-7.065-7.02-12.152-8.691l-.624 1.9c4.713 1.548 8.42 4.204 11.159 7.968l1.617-1.177zm-13.428-8.009-2.66 9.59 1.928.535 2.66-9.59-1.928-.535zm-1.99 10.813c2.863.881 5.046 2.348 6.606 4.379l1.586-1.219c-1.846-2.402-4.4-4.085-7.604-5.071l-.588 1.911zm6.606 4.379c1.538 2.002 2.348 4.63 2.348 7.966h2c0-3.664-.894-6.753-2.762-9.185l-1.586 1.219zm2.348 7.966c0 4.546-1.472 7.827-4.303 10.025l1.226 1.58c3.422-2.657 5.077-6.585 5.077-11.605h-2zm-4.297 10.02c-2.926 2.233-6.891 3.4-11.993 3.4v2c5.398 0 9.833-1.237 13.207-3.81l-1.214-1.59zm-11.993 3.4c-5.102 0-9.054-1.168-11.956-3.398l-1.218 1.585c3.351 2.577 7.776 3.813 13.174 3.813v-2zm-11.955-3.398c-2.853-2.198-4.335-5.479-4.335-10.022h-2c0 5.023 1.668 8.952 5.115 11.607l1.22-1.585zm-4.335-10.022c0-3.336.81-5.964 2.348-7.966l-1.586-1.219c-1.868 2.432-2.762 5.521-2.762 9.185h2zm2.352-7.971c1.535-2.025 3.713-3.492 6.6-4.373l-.584-1.913c-3.227.986-5.785 2.669-7.61 5.078l1.594 1.208zm7.272-5.597-2.66-9.59-1.928.535 2.66 9.59 1.928-.535zm-3.936-10.272c-5.087 1.671-9.15 4.568-12.152 8.691l1.618 1.177c2.739-3.764 6.445-6.42 11.158-7.968l-.624-1.9zm-12.15 8.689C1.53 200.414.05 205.485.05 211.443h2c0-5.616 1.39-10.252 4.112-13.97l-1.614-1.181zM.05 211.443c0 5.188 1.13 9.724 3.432 13.568l1.716-1.027c-2.085-3.482-3.148-7.649-3.148-12.541h-2zm3.433 13.571c2.295 3.808 5.508 6.747 9.613 8.812l.898-1.787c-3.781-1.902-6.705-4.586-8.797-8.057l-1.714 1.032zm9.617 8.814c4.105 2.041 8.848 3.045 14.2 3.045v-2c-5.1 0-9.529-.956-13.31-2.836l-.89 1.791zm14.2 3.045c5.352 0 10.095-1.004 14.2-3.045l-.89-1.791c-3.782 1.88-8.21 2.836-13.31 2.836v2zm14.204-3.047c4.105-2.065 7.318-5.004 9.613-8.812l-1.713-1.032c-2.093 3.471-5.017 6.155-8.798 8.057l.898 1.787zm9.614-8.815c2.302-3.844 3.432-8.38 3.432-13.568h-2c0 4.892-1.063 9.059-3.148 12.541l1.716 1.027zm1.382-44.165v1h1v-1h-1zm0-32.9h1v-1h-1v1zm-8.89 0v-1h-1v1h1zm0 23.38v1h1v-1h-1zm-12.95 0h-1v1h1v-1zm0-19.18h1v-1h-1v1zm-8.89 0v-1h-1v1h1zm0 19.18v1h1v-1h-1zm-10.78 0h-1v1h1v-1zm0-23.38h1v-1h-1v1zm-8.89 0v-1h-1v1h1zm0 32.9h-1v1h1v-1zm51.4 0v-32.9h-2v32.9h2zm-1-33.9h-8.89v2h8.89v-2zm-9.89 1v23.38h2v-23.38h-2zm1 22.38H30.66v2h12.95v-2zm-11.95 1v-19.18h-2v19.18h2zm-1-20.18h-8.89v2h8.89v-2zm-9.89 1v19.18h2v-19.18h-2zm1 18.18H10.99v2h10.78v-2zm-9.78 1v-23.38h-2v23.38h2zm-1-24.38H2.1v2h8.89v-2zm-9.89 1v32.9h2v-32.9h-2zm1 33.9h50.4v-2H2.1v2zm50.4-42.289v1h1v-1h-1zm0-9.52h1v-1h-1v1zm-17.08 0h-1v1h1v-1zm-.07-13.72.998-.055-.998.055zm-.21-2.24.99-.141-.002-.013-.988.154zm-5.53-9.87.575-.818-.003-.002-.572.82zm-27.23 9.87.984.176.002-.012.002-.011-.988-.153zm-.21 2.24.998.057.001-.015v-.014l-.999-.028zm-.07 23.24h-1v1h1v-1zm24.43-9.52v1h1v-1h-1zm-15.54 0h-1v1h1v-1zm.07-12.95.997.08-.997-.08zm.28-1.61.962.275.003-.012-.965-.263zm1.785-2.975.64.768.01-.009-.65-.759zm2.765-1.435.242.97.014-.003.013-.004-.269-.963zm5.775 0-.263.965.008.002.007.002.248-.969zm2.765 1.435.65-.759-.01-.009-.64.768zm1.75 2.975-.965.263.003.012.962-.275zm.28 1.61.997-.08-.997.08zm27.04 22.47v-9.52h-2v9.52h2zm-1-10.52H35.42v2H52.5v-2zm-16.08 1v-11.76h-2v11.76h2zm0-11.76c0-.494-.025-1.169-.072-2.015l-1.996.11c.046.834.068 1.466.068 1.905h2zm-.072-2.015a27.229 27.229 0 0 0-.218-2.326l-1.98.282c.088.619.156 1.336.202 2.154l1.996-.11zm-.22-2.339c-.731-4.679-2.683-8.242-5.943-10.534l-1.15 1.636c2.713 1.908 4.448 4.925 5.117 9.206l1.976-.308zm-5.946-10.536c-3.202-2.234-7.026-3.33-11.422-3.33v2c4.05 0 7.46 1.004 10.278 2.97l1.144-1.64zm-11.422-3.33c-4.416 0-8.24 1.082-11.42 3.294l1.14 1.642c2.793-1.942 6.202-2.936 10.28-2.936v-2zm-11.42 3.294c-3.267 2.271-5.218 5.851-5.948 10.573l1.976.306c.67-4.331 2.406-7.355 5.113-9.237l-1.142-1.642zm-5.944 10.55a16.25 16.25 0 0 0-.226 2.388l2 .056c.022-.803.088-1.499.194-2.092l-1.968-.352zm-.224 2.359a37.04 37.04 0 0 0-.072 2.017h2c0-.463.022-1.095.068-1.903l-1.996-.114zm-.072 2.017v21.28h2v-21.28h-2zm1 22.28h50.4v-2H2.1v2zm24.43-11.52H10.99v2h15.54v-2zm-14.54 1v-11.34h-2v11.34h2zm0-11.34c0-.459.022-.969.067-1.53l-1.994-.16a21.307 21.307 0 0 0-.073 1.69h2zm.067-1.53c.042-.527.125-.997.245-1.415l-1.923-.55a9.258 9.258 0 0 0-.316 1.805l1.994.16zm.248-1.427c.308-1.129.809-1.927 1.46-2.47l-1.28-1.536c-1.029.857-1.718 2.042-2.11 3.48l1.93.526zm1.47-2.479c.702-.6 1.484-1.005 2.357-1.224l-.485-1.94a7.683 7.683 0 0 0-3.173 1.646l1.302 1.518zm2.384-1.231c.928-.259 1.794-.383 2.601-.383v-2c-1.013 0-2.06.156-3.139.457l.538 1.926zm2.601-.383c.808 0 1.687.124 2.642.385l.526-1.93c-1.098-.299-2.156-.455-3.168-.455v2zm2.657.389c.851.218 1.64.624 2.373 1.234l1.28-1.536a7.991 7.991 0 0 0-3.157-1.636l-.496 1.938zm2.362 1.225c.632.542 1.126 1.343 1.436 2.479l1.93-.526c-.39-1.43-1.063-2.613-2.064-3.471l-1.302 1.518zm1.44 2.491c.119.418.202.888.244 1.415l1.994-.16a9.265 9.265 0 0 0-.316-1.805l-1.922.55zm.244 1.415c.045.561.067 1.071.067 1.53h2c0-.521-.025-1.085-.073-1.69l-1.994.16zm.067 1.53v11.34h2v-11.34h-2zM52.5 52.8h1v-1h-1v1zm0 9.66v1h1v-1h-1zm-33.6 0v-1h-3.364l2.818 1.837.546-.837zm33.6 21.91h1v-.542l-.454-.296-.546.838zm0 9.66v1h1v-1h-1zm-50.4 0h-1v1h1v-1zm0-9.66v-1h-1v1h1zm33.6 0v1h3.364l-2.818-1.838-.546.838zM2.1 62.46h-1V63l.454.296.546-.837zm0-9.66v-1h-1v1h1zm49.4 0v9.66h2V52.8h-2zm1 8.66H18.9v2h33.6v-2zm-34.146 1.837 33.6 21.91 1.092-1.675-33.6-21.91-1.092 1.675zM51.5 84.37v9.66h2v-9.66h-2zm1 8.66H2.1v2h50.4v-2zm-49.4 1v-9.66h-2v9.66h2zm-1-8.66h33.6v-2H2.1v2zm34.146-1.838-33.6-21.91-1.092 1.675 33.6 21.91 1.092-1.675zM3.1 62.46V52.8h-2v9.66h2zm-1-8.66h50.4v-2H2.1v2zM52.5 1.804h1v-1h-1v1zm0 9.66v1h1v-1h-1zm-33.6 0v-1h-3.364l2.818 1.837.546-.837zm33.6 21.91h1v-.542l-.454-.296-.546.838zm0 9.66v1h1v-1h-1zm-50.4 0h-1v1h1v-1zm0-9.66v-1h-1v1h1zm33.6 0v1h3.364l-2.818-1.838-.546.838zM2.1 11.464h-1v.541l.454.296.546-.837zm0-9.66v-1h-1v1h1zm49.4 0v9.66h2v-9.66h-2zm1 8.66H18.9v2h33.6v-2zM18.354 12.3l33.6 21.91 1.092-1.675-33.6-21.91-1.092 1.675zM51.5 33.374v9.66h2v-9.66h-2zm1 8.66H2.1v2h50.4v-2zm-49.4 1v-9.66h-2v9.66h2zm-1-8.66h33.6v-2H2.1v2zm34.146-1.838-33.6-21.91L1.554 12.3l33.6 21.91 1.092-1.675zM3.1 11.464v-9.66h-2v9.66h2zm-1-8.66h50.4v-2H2.1v2z" fill="#28272D"/>
</svg>
