<svg width="55" height="337" fill="none" xmlns="http://www.w3.org/2000/svg">
    <path d="M2.5 1.9v-1h-1v1h1zm50.4 0h1v-1h-1v1zm0 41.58v1h1v-1h-1zm-50.4 0h-1v1h1v-1zm0-9.52v-1h-1v1h1zm41.51 0v1h1v-1h-1zm0-22.54h1v-1h-1v1zm-41.51 0h-1v1h1v-1zm0-8.52h50.4v-2H2.5v2zm49.4-1v41.58h2V1.9h-2zm1 40.58H2.5v2h50.4v-2zm-49.4 1v-9.52h-2v9.52h2zm-1-8.52h41.51v-2H2.5v2zm42.51-1V11.42h-2v22.54h2zm-1-23.54H2.5v2h41.51v-2zm-40.51 1V1.9h-2v9.52h2zm-1 41.886v-1h-1v1h1zm50.4 0h1v-1h-1v1zm-.07 23.24-.998-.057-.001.015v.014l.999.028zm-.21 2.24-.984-.175-.002.01-.002.012.988.153zm-2.975 7.385-.784-.621-.003.005.787.616zm-5.74 4.27-.367-.93-.003.001.37.93zm-15.365-.035.375-.927-.005-.002-.37.93zm-5.705-4.27.787-.616-.003-.005-.784.621zm-2.975-7.35-.99.142.002.013.988-.155zm-.21-2.24-.998.056.998-.056zm-.07-13.72h1v-1h-1v1zm-17.08 0h-1v1h1v-1zm25.97 0v-1h-1v1h1zm.07 12.95-.997.08.997-.08zm.28 1.61.965-.263-.003-.011-.962.274zm1.75 2.975-.65.76.01.008.64-.768zm2.765 1.435.263-.965-.008-.002-.007-.002-.248.97zm5.775 0-.242-.97-.014.003-.013.004.269.963zm2.765-1.435-.64-.768-.01.009.65.76zm1.785-2.975-.962-.274-.003.011.965.263zm.28-1.61-.997-.08.997.08zm.07-12.95h1v-1h-1v1zM2.5 54.306h50.4v-2H2.5v2zm49.4-1v21.28h2v-21.28h-2zm0 21.28c0 .463-.022 1.095-.068 1.903l1.996.114c.047-.825.072-1.5.072-2.017h-2zm-.07 1.933a14.27 14.27 0 0 1-.194 2.091l1.968.352c.128-.713.201-1.51.226-2.388l-2-.055zm-.198 2.114c-.447 2.88-1.385 5.17-2.77 6.917l1.567 1.242c1.647-2.078 2.692-4.713 3.18-7.853l-1.977-.306zm-2.774 6.922c-1.406 1.795-3.174 3.11-5.32 3.956l.734 1.86c2.474-.974 4.533-2.505 6.16-4.583l-1.574-1.233zm-5.323 3.957c-2.153.857-4.58 1.294-7.295 1.294v2c2.931 0 5.614-.472 8.035-1.436l-.74-1.858zm-7.295 1.294c-2.712 0-5.15-.448-7.325-1.327l-.75 1.854c2.444.988 5.14 1.473 8.075 1.473v-2zm-7.33-1.329a12.43 12.43 0 0 1-5.288-3.957l-1.574 1.233a14.43 14.43 0 0 0 6.122 4.582l.74-1.858zm-5.291-3.962c-1.387-1.75-2.325-4.027-2.771-6.883l-1.976.309c.487 3.117 1.533 5.74 3.18 7.816l1.567-1.242zm-2.77-6.87a25.32 25.32 0 0 1-.2-2.154l-1.998.11c.048.862.12 1.638.219 2.327l1.98-.283zm-.2-2.154a36.708 36.708 0 0 1-.069-1.905h-2c0 .495.025 1.17.072 2.016l1.996-.111zm-.069-1.905v-11.76h-2v11.76h2zm-1-12.76H2.5v2h17.08v-2zm-16.08 1v-9.52h-2v9.52h2zm23.97 0v11.34h2v-11.34h-2zm0 11.34c0 .521.025 1.085.073 1.69l1.994-.16a19.327 19.327 0 0 1-.067-1.53h-2zm.073 1.69a9.25 9.25 0 0 0 .316 1.805l1.922-.55a7.27 7.27 0 0 1-.244-1.415l-1.994.16zm.312 1.793c.39 1.43 1.063 2.613 2.064 3.472l1.302-1.519c-.632-.542-1.126-1.343-1.436-2.479l-1.93.526zm2.075 3.48a7.989 7.989 0 0 0 3.157 1.636l.496-1.938a5.987 5.987 0 0 1-2.373-1.234l-1.28 1.536zm3.142 1.632c1.098.3 2.156.455 3.168.455v-2c-.808 0-1.687-.124-2.642-.384l-.526 1.929zm3.168.455c1.013 0 2.06-.156 3.139-.457l-.538-1.926c-.928.26-1.794.383-2.601.383v2zm3.112-.45a7.691 7.691 0 0 0 3.174-1.645l-1.302-1.519a5.69 5.69 0 0 1-2.356 1.224l.484 1.94zm3.163-1.637c1.029-.857 1.718-2.042 2.11-3.48l-1.93-.526c-.308 1.13-.809 1.927-1.46 2.47l1.28 1.536zm2.106-3.468a9.25 9.25 0 0 0 .316-1.805l-1.994-.16a7.27 7.27 0 0 1-.244 1.416l1.922.549zm.316-1.805c.048-.605.073-1.169.073-1.69h-2c0 .46-.022.969-.067 1.53l1.994.16zm.073-1.69v-11.34h-2v11.34h2zm-1-12.34H28.47v2h15.54v-2zM4.74 107.41l-.857-.517-.001.003.858.514zm9.205-8.435-.445-.896-.004.002.449.894zm27.51 0 .45-.894-.005-.002-.445.896zm9.205 8.435.858-.514-.002-.003-.856.517zm0 26.075-.856-.517-.002.003.858.514zm-9.205 8.435-.445-.896-.004.002.449.894zm-27.51 0 .45-.894-.005-.002-.445.896zm-9.205-8.435.858-.514-.001-.003-.857.517zm5.67-13.02-1-.015 1 .015zm2.065 7.98-.83.556.83-.556zm6.055 4.76.38-.925-.007-.003-.373.928zm18.27 0-.379-.926-.007.003.386.923zm5.985-4.76.83.556-.83-.556zm2.205-7.98 1 .014-1-.014zm-8.12-12.775.38-.925-.007-.003-.373.928zm-18.27 0-.379-.926-.007.003.386.923zm-5.985 4.795-.83-.557.83.557zm-10.165 7.98c0-4.892 1.063-9.06 3.148-12.542l-1.716-1.027C1.58 110.739.45 115.276.45 120.464h2zm3.147-12.539c2.092-3.472 5.016-6.156 8.797-8.058l-.898-1.787c-4.105 2.065-7.318 5.004-9.613 8.812l1.714 1.033zm8.793-8.056c3.782-1.88 8.21-2.835 13.31-2.835v-2c-5.352 0-10.095 1.004-14.2 3.044l.89 1.791zm13.31-2.835c5.1 0 9.528.956 13.31 2.835l.89-1.79c-4.105-2.041-8.847-3.045-14.2-3.045v2zm13.306 2.833c3.781 1.902 6.705 4.586 8.797 8.058l1.714-1.033c-2.295-3.808-5.508-6.747-9.613-8.812l-.898 1.787zm8.796 8.055c2.085 3.482 3.148 7.65 3.148 12.542h2c0-5.188-1.13-9.725-3.432-13.569l-1.716 1.027zm3.148 12.542c0 4.892-1.063 9.046-3.147 12.503L51.517 134c2.303-3.823 3.433-8.349 3.433-13.536h-2zm-3.148 12.506c-2.092 3.494-5.014 6.175-8.792 8.053l.89 1.791c4.11-2.042 7.323-4.984 9.618-8.817l-1.716-1.027zm-8.796 8.055c-3.78 1.902-8.207 2.869-13.306 2.869v2c5.354 0 10.098-1.017 14.204-3.082l-.898-1.787zM27.7 143.894c-5.1 0-9.525-.967-13.306-2.869l-.898 1.787c4.106 2.065 8.85 3.082 14.204 3.082v-2zm-13.31-2.871c-3.778-1.878-6.7-4.559-8.792-8.053l-1.716 1.027c2.295 3.833 5.509 6.775 9.618 8.817l.89-1.791zm-8.793-8.056c-2.084-3.457-3.147-7.611-3.147-12.503h-2c0 5.187 1.13 9.713 3.433 13.536l1.714-1.033zm3.813-12.518c-.049 3.349.672 6.221 2.234 8.551l1.662-1.113c-1.285-1.917-1.94-4.364-1.896-7.409l-2-.029zM11.644 129c1.547 2.307 3.733 4.015 6.513 5.131l.746-1.855c-2.447-.983-4.297-2.45-5.597-4.389L11.644 129zm6.506 5.129c2.759 1.133 5.95 1.685 9.55 1.685v-2c-3.4 0-6.322-.522-8.79-1.535l-.76 1.85zm9.55 1.685c3.6 0 6.77-.552 9.486-1.688l-.772-1.845c-2.417 1.011-5.314 1.533-8.714 1.533v2zm9.479-1.685c2.734-1.118 4.893-2.826 6.437-5.129l-1.662-1.113c-1.303 1.944-3.134 3.41-5.533 4.391l.758 1.851zM43.616 129c1.555-2.319 2.325-5.18 2.374-8.522l-2-.029c-.044 3.052-.744 5.511-2.036 7.438L43.616 129zm2.374-8.522c.049-3.348-.672-6.221-2.234-8.551l-1.662 1.113c1.285 1.917 1.94 4.364 1.896 7.409l2 .029zm-2.234-8.551c-1.546-2.305-3.73-4.023-6.506-5.163l-.76 1.85c2.45 1.006 4.303 2.485 5.604 4.426l1.662-1.113zm-6.513-5.166c-2.757-1.108-5.945-1.647-9.543-1.647v2c3.402 0 6.327.51 8.797 1.502l.746-1.855zm-9.543-1.647c-3.597 0-6.765.539-9.479 1.649l.758 1.851c2.42-.99 5.318-1.5 8.721-1.5v-2zm-9.486 1.652c-2.73 1.142-4.887 2.86-6.43 5.161l1.662 1.113c1.304-1.946 3.137-3.424 5.54-4.429l-.772-1.845zm-6.43 5.161c-1.555 2.32-2.325 5.18-2.374 8.522l2 .029c.044-3.052.744-5.511 2.036-7.438l-1.662-1.113zM2.5 151.88v-1h-1v1h1zm50.4 0h1v-1h-1v1zm0 32.9v1h1v-1h-1zm-8.89 0h-1v1h1v-1zm0-23.38h1v-1h-1v1zm-10.78 0v-1h-1v1h1zm0 19.18v1h1v-1h-1zm-8.89 0h-1v1h1v-1zm0-19.18h1v-1h-1v1zm-12.95 0v-1h-1v1h1zm0 23.38v1h1v-1h-1zm-8.89 0h-1v1h1v-1zm0-31.9h50.4v-2H2.5v2zm49.4-1v32.9h2v-32.9h-2zm1 31.9h-8.89v2h8.89v-2zm-7.89 1V161.4h-2v23.38h2zm-1-24.38H33.23v2h10.78v-2zm-11.78 1v19.18h2V161.4h-2zm1 18.18h-8.89v2h8.89v-2zm-7.89 1V161.4h-2v19.18h2zm-1-20.18H11.39v2h12.95v-2zm-13.95 1v23.38h2V161.4h-2zm1 22.38H2.5v2h8.89v-2zm-7.89 1v-32.9h-2v32.9h2zm-1 8.39v-1h-1v1h1zm50.4 0h1v-1h-1v1zm0 9.52v1h1v-1h-1zm-23.24 0v-1h-2.783l2.146 1.771.637-.771zm23.24 19.18h1v-.472l-.364-.3-.636.772zm0 11.62-.647.762 1.647 1.396v-2.158h-1zm-24.85-21.07.647-.763-.658-.558-.648.569.659.752zM2.5 234.82h-1v2.206l1.66-1.455-.66-.751zm0-12.04-.659-.753-.341.299v.454h1zm22.96-20.09.659.752 2.002-1.752H25.46v1zm-22.96 0h-1v1h1v-1zm0-8.52h50.4v-2H2.5v2zm49.4-1v9.52h2v-9.52h-2zm1 8.52H29.66v2H52.9v-2zm-23.877 1.771 23.24 19.18 1.273-1.543-23.24-19.18-1.273 1.543zM51.9 221.87v11.62h2v-11.62h-2zm1.647 10.857-24.85-21.07-1.294 1.525 24.85 21.07 1.294-1.525zM27.39 211.668l-25.55 22.4 1.318 1.503 25.55-22.4-1.318-1.503zM3.5 234.82v-12.04h-2v12.04h2zm-.341-11.288 22.96-20.09-1.317-1.505-22.96 20.09 1.317 1.505zM25.46 201.69H2.5v2h22.96v-2zm-21.96 1v-9.52h-2v9.52h2zm-1 48.722v-1h-1v1h1zm41.51 0v1h1v-1h-1zm0-15.89v-1h-1v1h1zm8.89 0h1v-1h-1v1zm0 41.3v1h1v-1h-1zm-8.89 0h-1v1h1v-1zm0-15.89h1v-1h-1v1zm-41.51 0h-1v1h1v-1zm0-8.52h41.51v-2H2.5v2zm42.51-1v-15.89h-2v15.89h2zm-1-14.89h8.89v-2h-8.89v2zm7.89-1v41.3h2v-41.3h-2zm1 40.3h-8.89v2h8.89v-2zm-7.89 1v-15.89h-2v15.89h2zm-1-16.89H2.5v2h41.51v-2zm-40.51 1v-9.52h-2v9.52h2zm-1 21.445v-1h-1v1h1zm50.4 0h1v-1h-1v1zm0 9.52v1h1v-1h-1zm-17.08 0v-1h-1v1h1zm-.07 13.72-.998-.056-.001.014v.014l.999.028zm-.21 2.24-.984-.176-.002.011-.002.011.988.154zm-2.975 7.35-.784-.621-.003.004.787.617zm-5.74 4.27-.367-.931-.01.005.377.926zm-15.365.035-.37.929.004.001.366-.93zm-5.705-4.27.787-.617-.003-.004-.784.621zm-2.975-7.385-.99.141.002.012.988-.153zm-.21-2.24.998-.056v-.001l-.998.057zm8.82-13.72v-1h-1v1h1zm.07 12.95.997-.08-.997.08zm.28 1.61.965-.263-.004-.012-.961.275zm1.75 2.975-.65.759.01.009.64-.768zm2.765 1.435.263-.965-.008-.002-.007-.002-.248.969zm5.775 0-.242-.97-.014.003-.013.004.269.963zm2.765-1.435-.64-.768-.01.009.65.759zm1.785-2.975-.962-.275-.003.012.965.263zm.28-1.61.997.08-.997-.08zm.07-12.95h1v-1h-1v1zM2.5 325.917v-1h-1v1h1zm50.4 0h1v-1h-1v1zm0 9.52v1h1v-1h-1zm-50.4 0h-1v1h1v-1zm0-52.06h50.4v-2H2.5v2zm49.4-1v9.52h2v-9.52h-2zm1 8.52H35.82v2H52.9v-2zm-18.08 1v11.76h2v-11.76h-2zm0 11.76c0 .439-.022 1.071-.069 1.904l1.997.111c.047-.846.072-1.521.072-2.015h-2zm-.07 1.932a14.272 14.272 0 0 1-.194 2.092l1.968.352c.128-.713.201-1.511.226-2.388l-2-.056zm-.198 2.114c-.446 2.856-1.384 5.133-2.77 6.883l1.567 1.242c1.646-2.077 2.692-4.7 3.179-7.817l-1.976-.308zm-2.774 6.887c-1.406 1.795-3.174 3.111-5.32 3.956l.734 1.861c2.474-.974 4.533-2.505 6.16-4.584l-1.574-1.233zm-5.33 3.961c-2.152.878-4.576 1.326-7.288 1.326v2c2.934 0 5.62-.485 8.043-1.474l-.756-1.852zm-7.288 1.326c-2.715 0-5.155-.437-7.334-1.296l-.732 1.861c2.441.962 5.134 1.435 8.066 1.435v-2zm-7.33-1.294a12.43 12.43 0 0 1-5.288-3.958l-1.574 1.233a14.428 14.428 0 0 0 6.122 4.583l.74-1.858zm-5.291-3.962c-1.386-1.748-2.324-4.037-2.77-6.917l-1.977.306c.487 3.139 1.532 5.774 3.18 7.853l1.567-1.242zm-2.77-6.906a25.301 25.301 0 0 1-.2-2.154l-1.997.111c.047.862.12 1.638.218 2.326l1.98-.283zm-.2-2.155a35.162 35.162 0 0 1-.069-1.903h-2c0 .517.024 1.192.072 2.017l1.996-.114zm-.069-1.903v-21.28h-2v21.28h2zm6.89-11.76v11.34h2v-11.34h-2zm0 11.34c0 .521.025 1.085.073 1.69l1.994-.16a19.325 19.325 0 0 1-.067-1.53h-2zm.073 1.69c.051.639.155 1.242.316 1.805l1.922-.55a7.255 7.255 0 0 1-.244-1.415l-1.994.16zm.312 1.793c.39 1.43 1.063 2.613 2.064 3.471l1.302-1.518c-.632-.542-1.126-1.343-1.436-2.479l-1.93.526zm2.075 3.48a7.99 7.99 0 0 0 3.157 1.636l.496-1.938a5.994 5.994 0 0 1-2.373-1.234l-1.28 1.536zm3.142 1.632c1.098.299 2.156.455 3.168.455v-2c-.808 0-1.687-.124-2.642-.385l-.526 1.93zm3.168.455c1.013 0 2.06-.156 3.139-.457l-.538-1.926c-.928.259-1.794.383-2.601.383v2zm3.113-.45a7.695 7.695 0 0 0 3.173-1.646l-1.302-1.518c-.7.6-1.483 1.005-2.356 1.224l.485 1.94zm3.162-1.637c1.029-.857 1.718-2.043 2.11-3.48l-1.93-.526c-.308 1.129-.809 1.927-1.46 2.47l1.28 1.536zm2.107-3.468c.16-.563.264-1.166.315-1.805l-1.994-.16a7.27 7.27 0 0 1-.244 1.415l1.922.55zm.315-1.805c.048-.605.073-1.169.073-1.69h-2c0 .459-.022.968-.067 1.53l1.994.16zm.073-1.69v-11.34h-2v11.34h2zm-1-12.34H11.39v2h15.54v-2zM2.5 326.917h50.4v-2H2.5v2zm49.4-1v9.52h2v-9.52h-2zm1 8.52H2.5v2h50.4v-2zm-49.4 1v-9.52h-2v9.52h2z" fill="#28272D"/>
</svg>
