<svg width="55" height="337" viewBox="0 0 55 337" fill="none" xmlns="http://www.w3.org/2000/svg">
<path d="M2.5 1.9L2.5 0.899997L1.5 0.899997L1.5 1.9L2.5 1.9ZM52.9 1.9L53.9 1.9L53.9 0.899999L52.9 0.899999L52.9 1.9ZM52.9 43.48L52.9 44.48L53.9 44.48L53.9 43.48L52.9 43.48ZM2.5 43.48L1.5 43.48L1.5 44.48L2.5 44.48L2.5 43.48ZM2.5 33.96L2.5 32.96L1.5 32.96L1.5 33.96L2.5 33.96ZM44.01 33.96L44.01 34.96L45.01 34.96L45.01 33.96L44.01 33.96ZM44.01 11.42L45.01 11.42L45.01 10.42L44.01 10.42L44.01 11.42ZM2.5 11.42L1.5 11.42L1.5 12.42L2.5 12.42L2.5 11.42ZM2.5 2.9L52.9 2.9L52.9 0.899999L2.5 0.899997L2.5 2.9ZM51.9 1.9L51.9 43.48L53.9 43.48L53.9 1.9L51.9 1.9ZM52.9 42.48L2.5 42.48L2.5 44.48L52.9 44.48L52.9 42.48ZM3.5 43.48L3.5 33.96L1.5 33.96L1.5 43.48L3.5 43.48ZM2.5 34.96L44.01 34.96L44.01 32.96L2.5 32.96L2.5 34.96ZM45.01 33.96L45.01 11.42L43.01 11.42L43.01 33.96L45.01 33.96ZM44.01 10.42L2.5 10.42L2.5 12.42L44.01 12.42L44.01 10.42ZM3.5 11.42L3.5 1.9L1.5 1.9L1.5 11.42L3.5 11.42ZM2.5 53.3062L2.5 52.3062L1.5 52.3062L1.5 53.3062L2.5 53.3062ZM52.9 53.3063L53.9 53.3063L53.9 52.3063L52.9 52.3063L52.9 53.3063ZM52.83 76.5462L51.8316 76.4892L51.8308 76.5038L51.8304 76.5185L52.83 76.5462ZM52.62 78.7863L51.6356 78.6105L51.6336 78.6217L51.6318 78.633L52.62 78.7863ZM49.645 86.1712L48.8613 85.55L48.8577 85.5547L49.645 86.1712ZM43.905 90.4413L43.5385 89.5108L43.5352 89.5121L43.905 90.4413ZM28.54 90.4062L28.9146 89.4791L28.9098 89.4771L28.54 90.4062ZM22.835 86.1363L23.6223 85.5197L23.6187 85.5151L22.835 86.1363ZM19.86 78.7863L18.87 78.9277L18.872 78.9406L19.86 78.7863ZM19.65 76.5462L18.6515 76.6017L19.65 76.5462ZM19.58 62.8262L20.58 62.8262L20.58 61.8262L19.58 61.8262L19.58 62.8262ZM2.5 62.8262L1.5 62.8262L1.5 63.8262L2.5 63.8262L2.5 62.8262ZM28.47 62.8262L28.47 61.8262L27.47 61.8262L27.47 62.8262L28.47 62.8262ZM28.54 75.7763L27.5432 75.856L28.54 75.7763ZM28.82 77.3863L29.7848 77.1231L29.7815 77.1115L28.82 77.3863ZM30.57 80.3612L29.9191 81.1206L29.9298 81.1295L30.57 80.3612ZM33.335 81.7962L33.5981 80.8315L33.5905 80.8294L33.5828 80.8274L33.335 81.7962ZM39.11 81.7962L38.8675 80.8261L38.8543 80.8294L38.8412 80.8331L39.11 81.7962ZM41.875 80.3613L41.2347 79.593L41.2242 79.602L41.875 80.3613ZM43.66 77.3863L42.6984 77.1115L42.6952 77.1231L43.66 77.3863ZM43.94 75.7763L42.9432 75.6965L42.9432 75.6965L43.94 75.7763ZM44.01 62.8262L45.01 62.8262L45.01 61.8262L44.01 61.8262L44.01 62.8262ZM2.5 54.3062L52.9 54.3063L52.9 52.3063L2.5 52.3062L2.5 54.3062ZM51.9 53.3063L51.9 74.5862L53.9 74.5862L53.9 53.3063L51.9 53.3063ZM51.9 74.5862C51.9 75.0489 51.8778 75.6808 51.8316 76.4892L53.8284 76.6033C53.8755 75.7784 53.9 75.1036 53.9 74.5862L51.9 74.5862ZM51.8304 76.5185C51.8081 77.3212 51.7416 78.0169 51.6356 78.6105L53.6044 78.962C53.7318 78.249 53.8052 77.4513 53.8296 76.574L51.8304 76.5185ZM51.6318 78.633C51.1852 81.5138 50.2469 83.8021 48.8613 85.5501L50.4287 86.7924C52.0764 84.7138 53.1215 82.0787 53.6082 78.9395L51.6318 78.633ZM48.8577 85.5547C47.4519 87.3498 45.6844 88.6655 43.5385 89.5108L44.2715 91.3717C46.7456 90.397 48.8048 88.8661 50.4323 86.7878L48.8577 85.5547ZM43.5352 89.5121C41.3822 90.3689 38.9552 90.8062 36.24 90.8062L36.24 92.8062C39.1715 92.8062 41.8544 92.3336 44.2748 91.3704L43.5352 89.5121ZM36.24 90.8062C33.5281 90.8062 31.0908 90.3583 28.9146 89.4791L28.1654 91.3334C30.6092 92.3208 33.3053 92.8062 36.24 92.8062L36.24 90.8062ZM28.9098 89.4771C26.7874 88.6325 25.0298 87.317 23.6223 85.5197L22.0477 86.7528C23.6735 88.8288 25.7193 90.36 28.1702 91.3354L28.9098 89.4771ZM23.6187 85.5151C22.232 83.7657 21.2943 81.4881 20.848 78.6319L18.872 78.9406C19.359 82.0577 20.4047 84.6801 22.0513 86.7574L23.6187 85.5151ZM20.8499 78.6448C20.7616 78.0265 20.6939 77.3094 20.6485 76.4908L18.6515 76.6017C18.6994 77.4631 18.7717 78.2393 18.87 78.9277L20.8499 78.6448ZM20.6485 76.4908C20.6021 75.6571 20.58 75.0253 20.58 74.5862L18.58 74.5862C18.58 75.0805 18.6045 75.7553 18.6515 76.6017L20.6485 76.4908ZM20.58 74.5862L20.58 62.8262L18.58 62.8262L18.58 74.5862L20.58 74.5862ZM19.58 61.8262L2.5 61.8262L2.5 63.8262L19.58 63.8262L19.58 61.8262ZM3.5 62.8262L3.5 53.3062L1.5 53.3062L1.5 62.8262L3.5 62.8262ZM27.47 62.8262L27.47 74.1662L29.47 74.1663L29.47 62.8262L27.47 62.8262ZM27.47 74.1662C27.47 74.6874 27.4948 75.251 27.5432 75.856L29.5368 75.6965C29.4919 75.1348 29.47 74.6251 29.47 74.1663L27.47 74.1662ZM27.5432 75.856C27.5944 76.4958 27.6978 77.0988 27.8585 77.661L29.7815 77.1115C29.6622 76.6937 29.579 76.2233 29.5368 75.6965L27.5432 75.856ZM27.8552 77.6494C28.2453 79.0797 28.918 80.2623 29.9192 81.1205L31.2208 79.602C30.5886 79.0602 30.0947 78.2594 29.7848 77.1231L27.8552 77.6494ZM29.9298 81.1295C30.8775 81.9192 31.9318 82.4695 33.0872 82.7651L33.5828 80.8274C32.7316 80.6097 31.9425 80.2033 31.2102 79.593L29.9298 81.1295ZM33.0719 82.761C34.1702 83.0606 35.2276 83.2162 36.24 83.2162L36.24 81.2162C35.4324 81.2162 34.5531 81.0919 33.5981 80.8315L33.0719 82.761ZM36.24 83.2162C37.2529 83.2162 38.3003 83.0604 39.3788 82.7594L38.8412 80.8331C37.913 81.0921 37.0471 81.2162 36.24 81.2162L36.24 83.2162ZM39.3525 82.7664C40.5323 82.4714 41.5933 81.9198 42.5258 81.1205L41.2242 79.602C40.5234 80.2027 39.741 80.6077 38.8675 80.8261L39.3525 82.7664ZM42.5152 81.1295C43.5439 80.2722 44.2327 79.0869 44.6248 77.6494L42.6952 77.1231C42.3873 78.2523 41.886 79.0503 41.2348 79.593L42.5152 81.1295ZM44.6215 77.661C44.7822 77.0988 44.8856 76.4958 44.9368 75.856L42.9432 75.6965C42.901 76.2233 42.8178 76.6937 42.6985 77.1115L44.6215 77.661ZM44.9368 75.856C44.9852 75.251 45.01 74.6874 45.01 74.1663L43.01 74.1663C43.01 74.6251 42.9881 75.1348 42.9432 75.6965L44.9368 75.856ZM45.01 74.1663L45.01 62.8262L43.01 62.8262L43.01 74.1663L45.01 74.1663ZM44.01 61.8262L28.47 61.8262L28.47 63.8262L44.01 63.8262L44.01 61.8262ZM4.73999 107.409L3.88347 106.892L3.88202 106.895L4.73999 107.409ZM13.945 98.9736L13.4999 98.0781L13.4957 98.0802L13.945 98.9736ZM41.455 98.9736L41.9043 98.0802L41.9001 98.0781L41.455 98.9736ZM50.66 107.409L51.518 106.895L51.5165 106.892L50.66 107.409ZM50.66 133.484L49.8035 132.967L49.802 132.97L50.66 133.484ZM41.455 141.919L41.0099 141.023L41.0057 141.025L41.455 141.919ZM13.945 141.919L14.3943 141.025L14.3901 141.023L13.945 141.919ZM4.73999 133.484L5.59797 132.97L5.59651 132.967L4.73999 133.484ZM10.41 120.464L9.41011 120.449L10.41 120.464ZM12.475 128.444L11.6444 129L12.475 128.444ZM18.53 133.204L18.9099 132.279L18.9028 132.276L18.53 133.204ZM36.8 133.204L36.4214 132.278L36.4142 132.281L36.8 133.204ZM42.785 128.444L43.6156 129L42.785 128.444ZM44.99 120.464L45.9899 120.478L45.9899 120.478L44.99 120.464ZM36.87 107.689L37.2499 106.764L37.2428 106.761L36.87 107.689ZM18.6 107.689L18.2214 106.763L18.2142 106.766L18.6 107.689ZM12.615 112.484L11.7844 111.927L12.615 112.484ZM2.44999 120.464C2.44999 115.572 3.51316 111.404 5.59797 107.922L3.88202 106.895C1.58016 110.739 0.449992 115.276 0.449992 120.464L2.44999 120.464ZM5.59651 107.925C7.68856 104.453 10.6128 101.769 14.3943 99.867L13.4957 98.0802C9.39057 100.145 6.1781 103.084 3.88347 106.892L5.59651 107.925ZM14.3901 99.8691C18.1716 97.9895 22.5991 97.0336 27.7 97.0336L27.7 95.0336C22.3475 95.0336 17.6051 96.0377 13.4999 98.0781L14.3901 99.8691ZM27.7 97.0336C32.8009 97.0336 37.2284 97.9895 41.0099 99.8691L41.9001 98.0781C37.7949 96.0377 33.0525 95.0336 27.7 95.0336L27.7 97.0336ZM41.0057 99.867C44.7872 101.769 47.7114 104.453 49.8035 107.925L51.5165 106.892C49.2219 103.084 46.0094 100.145 41.9043 98.0802L41.0057 99.867ZM49.802 107.922C51.8868 111.404 52.95 115.572 52.95 120.464L54.95 120.464C54.95 115.276 53.8198 110.739 51.518 106.895L49.802 107.922ZM52.95 120.464C52.95 125.356 51.8868 129.51 49.8035 132.967L51.5165 134C53.8199 130.177 54.95 125.651 54.95 120.464L52.95 120.464ZM49.802 132.97C47.7102 136.464 44.7876 139.145 41.0099 141.023L41.9001 142.814C46.0091 140.772 49.2232 137.83 51.518 133.997L49.802 132.97ZM41.0057 141.025C37.2252 142.927 32.7992 143.894 27.7 143.894L27.7 145.894C33.0541 145.894 37.7981 144.877 41.9043 142.812L41.0057 141.025ZM27.7 143.894C22.6008 143.894 18.1748 142.927 14.3943 141.025L13.4957 142.812C17.6019 144.877 22.3458 145.894 27.7 145.894L27.7 143.894ZM14.3901 141.023C10.6124 139.145 7.68983 136.464 5.59797 132.97L3.88202 133.997C6.17683 137.83 9.39092 140.772 13.4999 142.814L14.3901 141.023ZM5.59651 132.967C3.51322 129.51 2.44999 125.356 2.44999 120.464L0.449992 120.464C0.449991 125.651 1.5801 130.177 3.88347 134L5.59651 132.967ZM9.41011 120.449C9.36122 123.798 10.0823 126.67 11.6444 129L13.3056 127.887C12.021 125.97 11.3654 123.523 11.4099 120.478L9.41011 120.449ZM11.6444 129C13.1909 131.307 15.3772 133.015 18.1572 134.131L18.9028 132.276C16.4561 131.293 14.6058 129.826 13.3056 127.887L11.6444 129ZM18.1501 134.129C20.909 135.262 24.0998 135.814 27.7 135.814L27.7 133.814C24.3002 133.814 21.3776 133.292 18.9099 132.279L18.1501 134.129ZM27.7 135.814C31.2995 135.814 34.4698 135.262 37.1858 134.126L36.4142 132.281C33.9969 133.292 31.1005 133.814 27.7 133.814L27.7 135.814ZM37.1786 134.129C39.9129 133.011 42.0722 131.303 43.6156 129L41.9544 127.887C40.6511 129.831 38.8204 131.297 36.4214 132.278L37.1786 134.129ZM43.6156 129C45.1707 126.681 45.9411 123.82 45.9899 120.478L43.9901 120.449C43.9456 123.501 43.2459 125.96 41.9544 127.887L43.6156 129ZM45.9899 120.478C46.0388 117.13 45.3177 114.257 43.7556 111.927L42.0944 113.04C43.379 114.957 44.0346 117.404 43.9901 120.449L45.9899 120.478ZM43.7556 111.927C42.2104 109.622 40.0266 107.904 37.2499 106.764L36.4901 108.614C38.9401 109.62 40.7929 111.099 42.0944 113.04L43.7556 111.927ZM37.2428 106.761C34.486 105.653 31.2978 105.114 27.7 105.114L27.7 107.114C31.1022 107.114 34.0273 107.624 36.4972 108.616L37.2428 106.761ZM27.7 105.114C24.1029 105.114 20.9352 105.653 18.2214 106.763L18.9786 108.614C21.3981 107.624 24.2971 107.114 27.7 107.114L27.7 105.114ZM18.2142 106.766C15.4833 107.908 13.3265 109.626 11.7844 111.927L13.4456 113.04C14.7501 111.094 16.5834 109.616 18.9858 108.611L18.2142 106.766ZM11.7844 111.927C10.2293 114.247 9.45889 117.107 9.41011 120.449L11.4099 120.478C11.4544 117.426 12.1541 114.967 13.4456 113.04L11.7844 111.927ZM2.49999 151.88L2.49999 150.88L1.49999 150.88L1.49999 151.88L2.49999 151.88ZM52.9 151.88L53.9 151.88L53.9 150.88L52.9 150.88L52.9 151.88ZM52.9 184.78L52.9 185.78L53.9 185.78L53.9 184.78L52.9 184.78ZM44.01 184.78L43.01 184.78L43.01 185.78L44.01 185.78L44.01 184.78ZM44.01 161.4L45.01 161.4L45.01 160.4L44.01 160.4L44.01 161.4ZM33.23 161.4L33.23 160.4L32.23 160.4L32.23 161.4L33.23 161.4ZM33.23 180.58L33.23 181.58L34.23 181.58L34.23 180.58L33.23 180.58ZM24.34 180.58L23.34 180.58L23.34 181.58L24.34 181.58L24.34 180.58ZM24.34 161.4L25.34 161.4L25.34 160.4L24.34 160.4L24.34 161.4ZM11.39 161.4L11.39 160.4L10.39 160.4L10.39 161.4L11.39 161.4ZM11.39 184.78L11.39 185.78L12.39 185.78L12.39 184.78L11.39 184.78ZM2.49999 184.78L1.49999 184.78L1.49999 185.78L2.49999 185.78L2.49999 184.78ZM2.49999 152.88L52.9 152.88L52.9 150.88L2.49999 150.88L2.49999 152.88ZM51.9 151.88L51.9 184.78L53.9 184.78L53.9 151.88L51.9 151.88ZM52.9 183.78L44.01 183.78L44.01 185.78L52.9 185.78L52.9 183.78ZM45.01 184.78L45.01 161.4L43.01 161.4L43.01 184.78L45.01 184.78ZM44.01 160.4L33.23 160.4L33.23 162.4L44.01 162.4L44.01 160.4ZM32.23 161.4L32.23 180.58L34.23 180.58L34.23 161.4L32.23 161.4ZM33.23 179.58L24.34 179.58L24.34 181.58L33.23 181.58L33.23 179.58ZM25.34 180.58L25.34 161.4L23.34 161.4L23.34 180.58L25.34 180.58ZM24.34 160.4L11.39 160.4L11.39 162.4L24.34 162.4L24.34 160.4ZM10.39 161.4L10.39 184.78L12.39 184.78L12.39 161.4L10.39 161.4ZM11.39 183.78L2.49999 183.78L2.49999 185.78L11.39 185.78L11.39 183.78ZM3.49999 184.78L3.49999 151.88L1.49999 151.88L1.49999 184.78L3.49999 184.78ZM2.49999 193.17L2.49999 192.17L1.49999 192.17L1.49999 193.17L2.49999 193.17ZM52.9 193.17L53.9 193.17L53.9 192.17L52.9 192.17L52.9 193.17ZM52.9 202.69L52.9 203.69L53.9 203.69L53.9 202.69L52.9 202.69ZM29.66 202.69L29.66 201.69L26.8773 201.69L29.0235 203.461L29.66 202.69ZM52.9 221.87L53.9 221.87L53.9 221.398L53.5365 221.098L52.9 221.87ZM52.9 233.49L52.2533 234.252L53.9 235.648L53.9 233.49L52.9 233.49ZM28.05 212.42L28.6967 211.657L28.0391 211.099L27.3908 211.668L28.05 212.42ZM2.49999 234.82L1.49999 234.82L1.49999 237.026L3.15922 235.571L2.49999 234.82ZM2.49999 222.78L1.84148 222.027L1.49999 222.326L1.49999 222.78L2.49999 222.78ZM25.46 202.69L26.1185 203.442L28.1214 201.69L25.46 201.69L25.46 202.69ZM2.49999 202.69L1.49999 202.69L1.49999 203.69L2.49999 203.69L2.49999 202.69ZM2.49999 194.17L52.9 194.17L52.9 192.17L2.49999 192.17L2.49999 194.17ZM51.9 193.17L51.9 202.69L53.9 202.69L53.9 193.17L51.9 193.17ZM52.9 201.69L29.66 201.69L29.66 203.69L52.9 203.69L52.9 201.69ZM29.0235 203.461L52.2635 222.641L53.5365 221.098L30.2965 201.918L29.0235 203.461ZM51.9 221.87L51.9 233.49L53.9 233.49L53.9 221.87L51.9 221.87ZM53.5467 232.727L28.6967 211.657L27.4033 213.182L52.2533 234.252L53.5467 232.727ZM27.3908 211.668L1.84076 234.068L3.15922 235.571L28.7092 213.171L27.3908 211.668ZM3.49999 234.82L3.49999 222.78L1.49999 222.78L1.49999 234.82L3.49999 234.82ZM3.1585 223.532L26.1185 203.442L24.8015 201.937L1.84148 222.027L3.1585 223.532ZM25.46 201.69L2.49999 201.69L2.49999 203.69L25.46 203.69L25.46 201.69ZM3.49999 202.69L3.49999 193.17L1.49999 193.17L1.49999 202.69L3.49999 202.69ZM2.49999 251.412L2.49999 250.412L1.49999 250.412L1.49999 251.412L2.49999 251.412ZM44.01 251.412L44.01 252.412L45.01 252.412L45.01 251.412L44.01 251.412ZM44.01 235.522L44.01 234.522L43.01 234.522L43.01 235.522L44.01 235.522ZM52.9 235.522L53.9 235.522L53.9 234.522L52.9 234.522L52.9 235.522ZM52.9 276.822L52.9 277.822L53.9 277.822L53.9 276.822L52.9 276.822ZM44.01 276.822L43.01 276.822L43.01 277.822L44.01 277.822L44.01 276.822ZM44.01 260.932L45.01 260.932L45.01 259.932L44.01 259.932L44.01 260.932ZM2.49999 260.932L1.49999 260.932L1.49999 261.932L2.49999 261.932L2.49999 260.932ZM2.49999 252.412L44.01 252.412L44.01 250.412L2.49999 250.412L2.49999 252.412ZM45.01 251.412L45.01 235.522L43.01 235.522L43.01 251.412L45.01 251.412ZM44.01 236.522L52.9 236.522L52.9 234.522L44.01 234.522L44.01 236.522ZM51.9 235.522L51.9 276.822L53.9 276.822L53.9 235.522L51.9 235.522ZM52.9 275.822L44.01 275.822L44.01 277.822L52.9 277.822L52.9 275.822ZM45.01 276.822L45.01 260.932L43.01 260.932L43.01 276.822L45.01 276.822ZM44.01 259.932L2.49999 259.932L2.49999 261.932L44.01 261.932L44.01 259.932ZM3.49999 260.932L3.49999 251.412L1.49999 251.412L1.49999 260.932L3.49999 260.932ZM2.49999 282.377L2.49999 281.377L1.49999 281.377L1.49999 282.377L2.49999 282.377ZM52.9 282.377L53.9 282.377L53.9 281.377L52.9 281.377L52.9 282.377ZM52.9 291.897L52.9 292.897L53.9 292.897L53.9 291.897L52.9 291.897ZM35.82 291.897L35.82 290.897L34.82 290.897L34.82 291.897L35.82 291.897ZM35.75 305.617L34.7515 305.561L34.7508 305.575L34.7504 305.589L35.75 305.617ZM35.54 307.857L34.5556 307.681L34.5537 307.692L34.552 307.703L35.54 307.857ZM32.565 315.207L31.7813 314.586L31.7777 314.59L32.565 315.207ZM26.825 319.477L26.4584 318.546L26.4471 318.551L26.825 319.477ZM11.46 319.512L11.0902 320.441L11.0935 320.442L11.46 319.512ZM5.75498 315.242L6.54231 314.625L6.53864 314.621L5.75498 315.242ZM2.77999 307.857L1.78996 307.998L1.7918 308.01L2.77999 307.857ZM2.56999 305.617L3.56845 305.561L3.56836 305.56L2.56999 305.617ZM11.39 291.897L11.39 290.897L10.39 290.897L10.39 291.897L11.39 291.897ZM11.46 304.847L12.4568 304.767L11.46 304.847ZM11.74 306.457L12.7048 306.194L12.7015 306.182L11.74 306.457ZM13.49 309.432L12.8391 310.191L12.8498 310.2L13.49 309.432ZM16.255 310.867L16.5181 309.902L16.5105 309.9L16.5028 309.898L16.255 310.867ZM22.03 310.867L21.7875 309.897L21.7743 309.9L21.7612 309.904L22.03 310.867ZM24.795 309.432L24.1547 308.664L24.1442 308.673L24.795 309.432ZM26.58 306.457L25.6184 306.182L25.6152 306.194L26.58 306.457ZM26.86 304.847L27.8568 304.927L27.8568 304.927L26.86 304.847ZM26.93 291.897L27.93 291.897L27.93 290.897L26.93 290.897L26.93 291.897ZM2.49999 325.917L2.49999 324.917L1.49999 324.917L1.49999 325.917L2.49999 325.917ZM52.9 325.917L53.9 325.917L53.9 324.917L52.9 324.917L52.9 325.917ZM52.9 335.437L52.9 336.437L53.9 336.437L53.9 335.437L52.9 335.437ZM2.49999 335.437L1.49999 335.437L1.49999 336.437L2.49999 336.437L2.49999 335.437ZM2.49999 283.377L52.9 283.377L52.9 281.377L2.49999 281.377L2.49999 283.377ZM51.9 282.377L51.9 291.897L53.9 291.897L53.9 282.377L51.9 282.377ZM52.9 290.897L35.82 290.897L35.82 292.897L52.9 292.897L52.9 290.897ZM34.82 291.897L34.82 303.657L36.82 303.657L36.82 291.897L34.82 291.897ZM34.82 303.657C34.82 304.096 34.7978 304.728 34.7515 305.561L36.7484 305.672C36.7955 304.826 36.82 304.151 36.82 303.657L34.82 303.657ZM34.7504 305.589C34.7281 306.392 34.6616 307.087 34.5556 307.681L36.5244 308.033C36.6518 307.32 36.7252 306.522 36.7496 305.645L34.7504 305.589ZM34.552 307.703C34.1057 310.559 33.168 312.836 31.7813 314.586L33.3486 315.828C34.9953 313.751 36.041 311.128 36.528 308.011L34.552 307.703ZM31.7777 314.59C30.3719 316.385 28.6044 317.701 26.4585 318.546L27.1915 320.407C29.6656 319.433 31.7247 317.902 33.3523 315.823L31.7777 314.59ZM26.4471 318.551C24.2963 319.429 21.8721 319.877 19.16 319.877L19.16 321.877C22.0945 321.877 24.7803 321.392 27.2029 320.403L26.4471 318.551ZM19.16 319.877C16.445 319.877 14.0049 319.44 11.8265 318.581L11.0935 320.442C13.5351 321.404 16.2283 321.877 19.16 321.877L19.16 319.877ZM11.8297 318.583C9.70737 317.738 7.94982 316.423 6.54229 314.625L4.96768 315.858C6.59348 317.934 8.63927 319.466 11.0902 320.441L11.8297 318.583ZM6.53864 314.621C5.15305 312.873 4.21481 310.584 3.76818 307.704L1.7918 308.01C2.2785 311.149 3.32359 313.784 4.97133 315.863L6.53864 314.621ZM3.76994 307.715C3.6816 307.097 3.61392 306.38 3.56845 305.561L1.57153 305.672C1.61938 306.534 1.69171 307.31 1.79004 307.998L3.76994 307.715ZM3.56836 305.56C3.52217 304.751 3.49999 304.12 3.49999 303.657L1.49999 303.657C1.49999 304.174 1.52448 304.849 1.57162 305.674L3.56836 305.56ZM3.49999 303.657L3.49999 282.377L1.49999 282.377L1.49999 303.657L3.49999 303.657ZM10.39 291.897L10.39 303.237L12.39 303.237L12.39 291.897L10.39 291.897ZM10.39 303.237C10.39 303.758 10.4148 304.322 10.4632 304.927L12.4568 304.767C12.4119 304.205 12.39 303.696 12.39 303.237L10.39 303.237ZM10.4632 304.927C10.5144 305.566 10.6178 306.169 10.7785 306.732L12.7015 306.182C12.5821 305.764 12.4989 305.294 12.4568 304.767L10.4632 304.927ZM10.7752 306.72C11.1653 308.15 11.838 309.333 12.8392 310.191L14.1408 308.673C13.5086 308.131 13.0146 307.33 12.7048 306.194L10.7752 306.72ZM12.8498 310.2C13.7975 310.99 14.8517 311.54 16.0072 311.836L16.5028 309.898C15.6516 309.68 14.8625 309.274 14.1302 308.664L12.8498 310.2ZM15.9919 311.832C17.0902 312.131 18.1476 312.287 19.16 312.287L19.16 310.287C18.3524 310.287 17.4731 310.163 16.5181 309.902L15.9919 311.832ZM19.16 312.287C20.1729 312.287 21.2203 312.131 22.2988 311.83L21.7612 309.904C20.833 310.163 19.9671 310.287 19.16 310.287L19.16 312.287ZM22.2725 311.837C23.4523 311.542 24.5132 310.99 25.4458 310.191L24.1442 308.673C23.4434 309.273 22.661 309.678 21.7875 309.897L22.2725 311.837ZM25.4352 310.2C26.4639 309.343 27.1527 308.157 27.5448 306.72L25.6152 306.194C25.3073 307.323 24.806 308.121 24.1548 308.664L25.4352 310.2ZM27.5415 306.732C27.7021 306.169 27.8056 305.566 27.8568 304.927L25.8632 304.767C25.821 305.294 25.7378 305.764 25.6185 306.182L27.5415 306.732ZM27.8568 304.927C27.9052 304.322 27.93 303.758 27.93 303.237L25.93 303.237C25.93 303.696 25.9081 304.205 25.8632 304.767L27.8568 304.927ZM27.93 303.237L27.93 291.897L25.93 291.897L25.93 303.237L27.93 303.237ZM26.93 290.897L11.39 290.897L11.39 292.897L26.93 292.897L26.93 290.897ZM2.49999 326.917L52.9 326.917L52.9 324.917L2.49999 324.917L2.49999 326.917ZM51.9 325.917L51.9 335.437L53.9 335.437L53.9 325.917L51.9 325.917ZM52.9 334.437L2.49999 334.437L2.49999 336.437L52.9 336.437L52.9 334.437ZM3.49999 335.437L3.49999 325.917L1.49999 325.917L1.49999 335.437L3.49999 335.437Z" fill="#28272D"/>
</svg>
