<svg width="55" height="337" fill="none" xmlns="http://www.w3.org/2000/svg">
    <path d="M52.5 335.1v1h1v-1h-1zm0-9.52h1v-1h-1v1zm-41.51 0h-1v1h1v-1zm0-22.54v-1h-1v1h1zm41.51 0v1h1v-1h-1zm0-9.52h1v-1h-1v1zm-50.4 0v-1h-1v1h1zm0 41.58h-1v1h1v-1zm51.4 0v-9.52h-2v9.52h2zm-1-10.52H10.99v2H52.5v-2zm-40.51 1v-22.54h-2v22.54h2zm-1-21.54H52.5v-2H10.99v2zm42.51-1v-9.52h-2v9.52h2zm-1-10.52H2.1v2h50.4v-2zm-51.4 1v41.58h2v-41.58h-2zm1 42.58h50.4v-2H2.1v2zm50.4-52.406v1h1v-1h-1zm0-9.52h1v-1h-1v1zm-17.08 0h-1v1h1v-1zm-.07-13.72.998-.056-.998.056zm-.21-2.24.99-.142-.002-.013-.988.155zm-5.53-9.87.575-.818-.003-.002-.572.82zm-27.23 9.87.984.176.002-.012.002-.011-.988-.153zm-.21 2.24.998.057.001-.015v-.014l-.999-.028zm-.07 23.24h-1v1h1v-1zm24.43-9.52v1h1v-1h-1zm-15.54 0h-1v1h1v-1zm.07-12.95.997.079-.997-.079zm.28-1.61.962.274.003-.011-.965-.263zm1.785-2.975.64.768.01-.009-.65-.759zm2.765-1.435.242.97.014-.003.013-.004-.269-.963zm5.775 0-.263.965.008.002.007.002.248-.969zm2.765 1.435.65-.76-.01-.008-.64.768zm1.75 2.975-.965.263.003.011.962-.274zm.28 1.61.997-.08-.997.08zm27.04 22.47v-9.52h-2v9.52h2zm-1-10.52H35.42v2H52.5v-2zm-16.08 1v-11.76h-2v11.76h2zm0-11.76c0-.495-.025-1.169-.072-2.016l-1.996.111c.046.834.068 1.466.068 1.905h2zm-.072-2.016a27.346 27.346 0 0 0-.218-2.326l-1.98.283c.088.619.156 1.336.202 2.154l1.997-.111zm-.22-2.339c-.731-4.679-2.683-8.241-5.943-10.533l-1.15 1.636c2.713 1.908 4.448 4.925 5.117 9.206l1.976-.309zm-5.946-10.535c-3.202-2.234-7.026-3.33-11.422-3.33v2c4.05 0 7.46 1.004 10.278 2.97l1.144-1.64zm-11.422-3.33c-4.416 0-8.24 1.082-11.42 3.294l1.14 1.642c2.793-1.942 6.202-2.936 10.28-2.936v-2zm-11.42 3.294c-3.267 2.271-5.218 5.85-5.948 10.573l1.976.306c.67-4.331 2.406-7.355 5.113-9.237l-1.142-1.642zm-5.944 10.55c-.128.713-.201 1.511-.226 2.388l2 .056a14.26 14.26 0 0 1 .194-2.092l-1.968-.352zm-.224 2.359a37.006 37.006 0 0 0-.072 2.017h2c0-.463.022-1.095.068-1.903l-1.996-.114zm-.072 2.017v21.28h2v-21.28h-2zm1 22.28h50.4v-2H2.1v2zm24.43-11.52H10.99v2h15.54v-2zm-14.54 1v-11.34h-2v11.34h2zm0-11.34c0-.459.022-.969.067-1.531l-1.994-.159a21.306 21.306 0 0 0-.073 1.69h2zm.067-1.531c.042-.526.125-.997.245-1.415l-1.923-.549a9.245 9.245 0 0 0-.316 1.805l1.994.159zm.248-1.426c.308-1.129.809-1.927 1.46-2.47l-1.28-1.536c-1.029.857-1.718 2.042-2.11 3.48l1.93.526zm1.47-2.479a5.682 5.682 0 0 1 2.357-1.224l-.485-1.94a7.692 7.692 0 0 0-3.173 1.645l1.302 1.519zm2.384-1.231c.928-.259 1.794-.383 2.601-.383v-2c-1.013 0-2.06.156-3.139.457l.538 1.926zm2.601-.383c.808 0 1.687.124 2.642.385l.526-1.93c-1.098-.3-2.156-.455-3.168-.455v2zm2.657.389c.851.217 1.64.624 2.373 1.234l1.28-1.536a7.99 7.99 0 0 0-3.157-1.636l-.496 1.938zm2.362 1.225c.632.542 1.126 1.343 1.436 2.479l1.93-.526c-.39-1.431-1.063-2.613-2.064-3.472l-1.302 1.519zm1.44 2.49c.119.418.202.889.244 1.415l1.994-.159a9.245 9.245 0 0 0-.316-1.805l-1.922.549zm.244 1.415c.045.562.067 1.072.067 1.531h2c0-.521-.025-1.085-.073-1.69l-1.994.159zm.067 1.531v11.34h2v-11.34h-2zm24.73-59.318-.858.514.002.003.856-.517zm-9.205-8.435-.45.894.005.002.445-.896zm-27.51 0 .445.896.004-.002-.449-.894zm-9.205 8.435.857.517.001-.003-.858-.514zm0 26.075-.858.514.001.003.857-.517zm9.205 8.435-.45.894.005.002.445-.896zm27.51 0 .445.896.004-.002-.449-.894zm9.205-8.435.857.517.001-.003-.858-.514zm-5.67-13.055 1 .015-1-.015zm-4.76 10.78.609.794.003-.003-.612-.791zm-25.165 0-.604.798.004.002.6-.8zm-4.655-10.78 1 .015-1-.015zm4.76-10.78-.609-.793.609.793zm25.165 0 .6-.8-.6.8zm14.615 10.78c0-5.187-1.13-9.713-3.433-13.536l-1.713 1.033c2.083 3.457 3.146 7.611 3.146 12.503h2zm-3.432-13.533c-2.295-3.833-5.509-6.775-9.618-8.817l-.89 1.791c3.778 1.878 6.7 4.559 8.792 8.053l1.716-1.027zm-9.614-8.815c-4.106-2.065-8.85-3.082-14.204-3.082v2c5.1 0 9.525.967 13.306 2.869l.898-1.787zM27.3 191.106c-5.354 0-10.098 1.017-14.204 3.082l.898 1.787c3.78-1.902 8.207-2.869 13.306-2.869v-2zm-14.2 3.08c-4.11 2.042-7.323 4.984-9.618 8.817l1.716 1.027c2.092-3.494 5.014-6.175 8.792-8.053l-.89-1.791zM3.483 203C1.18 206.823.05 211.349.05 216.536h2c0-4.892 1.063-9.046 3.147-12.503L3.483 203zM.05 216.536c0 5.188 1.13 9.725 3.432 13.569l1.716-1.027c-2.085-3.482-3.148-7.65-3.148-12.542h-2zm3.433 13.572c2.295 3.808 5.508 6.747 9.613 8.812l.898-1.787c-3.781-1.902-6.705-4.586-8.797-8.058l-1.714 1.033zm9.617 8.814c4.105 2.04 8.848 3.044 14.2 3.044v-2c-5.1 0-9.528-.956-13.31-2.835l-.89 1.791zm14.2 3.044c5.353 0 10.095-1.004 14.2-3.044l-.89-1.791c-3.782 1.879-8.21 2.835-13.31 2.835v2zm14.204-3.046c4.105-2.065 7.318-5.004 9.613-8.812l-1.713-1.033c-2.093 3.472-5.017 6.156-8.798 8.058l.898 1.787zm9.614-8.815c2.302-3.844 3.432-8.381 3.432-13.569h-2c0 4.892-1.063 9.06-3.148 12.542l1.716 1.027zm-7.528-13.583c-.067 4.553-1.562 7.828-4.372 10.004l1.224 1.581c3.397-2.63 5.075-6.542 5.148-11.556l-2-.029zm-4.369 10.001c-2.877 2.207-6.816 3.363-11.921 3.363v2c5.395 0 9.81-1.223 13.139-3.776l-1.218-1.587zM27.3 229.886c-5.103 0-9.083-1.156-12.035-3.37l-1.2 1.6c3.395 2.547 7.838 3.77 13.235 3.77v-2zm-12.031-3.367c-2.867-2.171-4.325-5.43-4.26-9.968l-1.999-.029c-.073 5.029 1.572 8.956 5.051 11.592l1.208-1.595zm-4.26-9.968c.068-4.578 1.564-7.85 4.37-10.001l-1.218-1.587c-3.401 2.609-5.078 6.524-5.15 11.559l1.999.029zm4.37-10.001c2.877-2.207 6.816-3.364 11.921-3.364v-2c-5.395 0-9.81 1.224-13.139 3.777l1.218 1.587zm11.921-3.364c5.103 0 9.083 1.157 12.035 3.37l1.2-1.6c-3.395-2.546-7.838-3.77-13.235-3.77v2zm12.035 3.37c2.862 2.147 4.322 5.403 4.255 9.966l2 .029c.073-5.05-1.57-8.981-5.055-11.595l-1.2 1.6zM52.5 185.12v1h1v-1h-1zm0-32.9h1v-1h-1v1zm-8.89 0v-1h-1v1h1zm0 23.38v1h1v-1h-1zm-12.95 0h-1v1h1v-1zm0-19.18h1v-1h-1v1zm-8.89 0v-1h-1v1h1zm0 19.18v1h1v-1h-1zm-10.78 0h-1v1h1v-1zm0-23.38h1v-1h-1v1zm-8.89 0v-1h-1v1h1zm0 32.9h-1v1h1v-1zm51.4 0v-32.9h-2v32.9h2zm-1-33.9h-8.89v2h8.89v-2zm-9.89 1v23.38h2v-23.38h-2zm1 22.38H30.66v2h12.95v-2zm-11.95 1v-19.18h-2v19.18h2zm-1-20.18h-8.89v2h8.89v-2zm-9.89 1v19.18h2v-19.18h-2zm1 18.18H10.99v2h10.78v-2zm-9.78 1v-23.38h-2v23.38h2zm-1-24.38H2.1v2h8.89v-2zm-9.89 1v32.9h2v-32.9h-2zm1 33.9h50.4v-2H2.1v2zm50.4-42.29v1h1v-1h-1zm0-9.52h1v-1h-1v1zm-22.96 0-.659-.752-2.003 1.752h2.662v-1zm22.96-20.09.658.753.342-.299v-.454h-1zm0-12.04h1v-2.206l-1.66 1.455.66.751zm-25.55 22.4-.647.763.658.558.648-.569-.659-.752zM2.1 103.51l.647-.762-1.647-1.396v2.158h1zm0 11.62h-1v.472l.363.3.637-.772zm23.24 19.18v1h2.783l-2.146-1.771-.637.771zm-23.24 0v-1h-1v1h1zm0 9.52h-1v1h1v-1zm51.4 0v-9.52h-2v9.52h2zm-1-10.52H29.54v2H52.5v-2zm-22.302 1.753 22.96-20.09-1.316-1.505-22.96 20.09 1.316 1.505zM53.5 114.22v-12.04h-2v12.04h2zm-1.66-12.791-25.55 22.4 1.32 1.503 25.55-22.4-1.32-1.503zm-24.243 22.389-24.85-21.07-1.294 1.525 24.85 21.07 1.294-1.525zM1.1 103.51v11.62h2v-11.62h-2zm.363 12.392 23.24 19.18 1.274-1.543-23.24-19.18-1.274 1.543zM25.34 133.31H2.1v2h23.24v-2zm-24.24 1v9.52h2v-9.52h-2zm1 10.52h50.4v-2H2.1v2zm50.4-59.242v1h1v-1h-1zm0-9.52h1v-1h-1v1zm-41.51 0h-1v1h1v-1zm0-15.89h1v-1h-1v1zm-8.89 0v-1h-1v1h1zm0 41.3h-1v1h1v-1zm8.89 0v1h1v-1h-1zm0-15.89v-1h-1v1h1zm42.51 0v-9.52h-2v9.52h2zm-1-10.52H10.99v2H52.5v-2zm-40.51 1v-15.89h-2v15.89h2zm-1-16.89H2.1v2h8.89v-2zm-9.89 1v41.3h2v-41.3h-2zm1 42.3h8.89v-2H2.1v2zm9.89-1v-15.89h-2v15.89h2zm-1-14.89H52.5v-2H10.99v2zM52.5 54.623v1h1v-1h-1zm-.07-23.24-.998.056v.001l.998-.057zm-.21-2.24.99-.141-.002-.012-.988.153zm-5.53-9.905.57-.82-.002-.003-.568.823zm-21.7.035.575.818-.575-.818zm-5.53 9.87.984.176.002-.01.002-.012-.988-.154zm-.21 2.24.998.056.001-.014v-.014l-.999-.028zm-.07 13.72v1h1v-1h-1zm-17.08 0v-1h-1v1h1zm0 9.52h-1v1h1v-1zm41.51-9.52v1h1v-1h-1zm-15.54 0h-1v1h1v-1zm.07-12.95-.997-.08.997.08zm.28-1.61.962.275.003-.012-.965-.263zm1.785-2.975.64.768.01-.009-.65-.759zm2.765-1.435.242.97.014-.003.013-.004-.269-.963zm5.775 0-.263.965.008.002.007.002.248-.969zm2.765 1.435.65-.76-.01-.008-.64.768zm1.75 2.975-.965.263.003.012.962-.275zm.28 1.61-.997.08.997-.08zm8.96-21.07v1h1v-1h-1zm0-9.52h1v-1h-1v1zm-50.4 0v-1h-1v1h1zm0 9.52h-1v1h1v-1zm51.4 43.54v-21.28h-2v21.28h2zm0-21.28c0-.517-.025-1.192-.072-2.017l-1.996.114c.046.809.068 1.44.068 1.903h2zm-.072-2.015a27.264 27.264 0 0 0-.218-2.326l-1.98.283c.088.618.156 1.335.202 2.154l1.996-.111zm-.22-2.338c-.73-4.722-2.68-8.302-5.947-10.573l-1.142 1.642c2.707 1.882 4.443 4.906 5.113 9.237l1.976-.306zm-5.95-10.575c-3.202-2.209-7.024-3.292-11.418-3.292v2c4.053 0 7.464.994 10.282 2.938l1.136-1.646zM35.84 15.123c-4.418 0-8.244 1.095-11.425 3.332l1.15 1.636c2.792-1.963 6.2-2.968 10.275-2.968v-2zm-11.425 3.332c-3.26 2.292-5.212 5.855-5.943 10.534l1.976.308c.669-4.28 2.404-7.298 5.117-9.206l-1.15-1.636zm-5.94 10.512c-.127.713-.2 1.511-.225 2.388l2 .056a14.27 14.27 0 0 1 .194-2.092l-1.968-.352zm-.224 2.36a38.636 38.636 0 0 0-.071 2.016h2c0-.439.022-1.07.068-1.904l-1.997-.111zm-.071 2.016v11.76h2v-11.76h-2zm1 10.76H2.1v2h17.08v-2zm-18.08 1v9.52h2v-9.52h-2zm1 10.52h50.4v-2H2.1v2zm41.51-11.52H28.07v2h15.54v-2zm-14.54 1v-11.34h-2v11.34h2zm0-11.34c0-.459.022-.968.067-1.53l-1.994-.16a21.295 21.295 0 0 0-.073 1.69h2zm.067-1.53c.042-.527.125-.997.244-1.415l-1.922-.55a9.249 9.249 0 0 0-.316 1.805l1.994.16zm.248-1.427c.308-1.129.809-1.927 1.46-2.47l-1.28-1.536c-1.029.857-1.718 2.043-2.11 3.48l1.93.526zm1.47-2.479a5.69 5.69 0 0 1 2.357-1.224l-.485-1.94a7.688 7.688 0 0 0-3.173 1.646l1.302 1.518zm2.384-1.23c.928-.26 1.794-.384 2.601-.384v-2c-1.013 0-2.06.156-3.139.457l.538 1.926zm2.601-.384c.808 0 1.687.124 2.642.385l.526-1.93c-1.098-.3-2.156-.455-3.168-.455v2zm2.657.389a5.99 5.99 0 0 1 2.373 1.234l1.28-1.536a7.987 7.987 0 0 0-3.157-1.636l-.496 1.938zm2.362 1.225c.632.542 1.126 1.343 1.436 2.48l1.93-.527c-.39-1.43-1.063-2.613-2.064-3.471l-1.302 1.518zm1.44 2.49c.119.419.202.889.244 1.416l1.994-.16a9.256 9.256 0 0 0-.316-1.805l-1.922.55zm.244 1.416c.045.562.067 1.071.067 1.53h2c0-.521-.025-1.085-.073-1.69l-1.994.16zm.067 1.53v11.34h2v-11.34h-2zm10.89-22.68v-9.52h-2v9.52h2zm-1-10.52H2.1v2h50.4v-2zm-51.4 1v9.52h2v-9.52h-2zm1 10.52h50.4v-2H2.1v2z" fill="#28272D"/>
</svg>
