<svg width="55" height="307" fill="none" xmlns="http://www.w3.org/2000/svg">
    <path d="m4.74 12.475-.857-.516-.001.002.858.514zm9.205-8.435-.445-.896-.004.003.449.893zm27.51 0 .45-.893-.005-.002-.445.895zm9.205 8.435.858-.514-.002-.002-.856.516zm0 26.075-.856-.516-.002.002.858.514zm-9.205 8.435-.445-.895-.004.002.449.893zm-27.51 0 .45-.893-.005-.002-.445.895zM4.74 38.55l.858-.514-.001-.002-.857.516zm5.67-13.02-1-.015 1 .015zm2.065 7.98-.83.557.83-.557zm6.055 4.76.38-.925-.007-.003-.373.928zm18.27 0-.379-.926-.007.003.386.923zm5.985-4.76.83.557-.83-.557zm2.205-7.98 1 .015-1-.015zm-8.12-12.775.38-.925-.007-.003-.373.928zm-18.27 0-.379-.926-.007.003.386.923zm-5.985 4.795-.83-.557.83.557zM2.45 25.53c0-4.892 1.063-9.06 3.148-12.541L3.882 11.96C1.58 15.806.45 20.342.45 25.53h2zm3.147-12.539c2.092-3.472 5.016-6.156 8.797-8.058l-.898-1.786C9.39 5.21 6.178 8.15 3.883 11.959l1.714 1.032zm8.793-8.056C18.172 3.055 22.6 2.1 27.7 2.1v-2c-5.352 0-10.095 1.004-14.2 3.045l.89 1.79zM27.7 2.1c5.1 0 9.528.956 13.31 2.835l.89-1.79C37.795 1.105 33.053.1 27.7.1v2zm13.306 2.833c3.781 1.902 6.705 4.586 8.797 8.058l1.714-1.032c-2.295-3.808-5.508-6.748-9.613-8.812l-.898 1.786zm8.796 8.056c2.085 3.482 3.148 7.649 3.148 12.541h2c0-5.188-1.13-9.724-3.432-13.569l-1.716 1.028zM52.95 25.53c0 4.892-1.063 9.047-3.147 12.504l1.714 1.032c2.303-3.823 3.433-8.348 3.433-13.536h-2zm-3.148 12.506c-2.092 3.494-5.014 6.176-8.792 8.053l.89 1.791c4.11-2.042 7.323-4.983 9.618-8.816l-1.716-1.028zm-8.796 8.056c-3.78 1.901-8.207 2.868-13.306 2.868v2c5.354 0 10.098-1.016 14.204-3.082l-.898-1.786zM27.7 48.96c-5.1 0-9.525-.967-13.306-2.868l-.898 1.786c4.106 2.066 8.85 3.082 14.204 3.082v-2zm-13.31-2.87c-3.778-1.878-6.7-4.56-8.792-8.054l-1.716 1.028c2.295 3.833 5.509 6.774 9.618 8.816l.89-1.79zm-8.793-8.056C3.513 34.577 2.45 30.422 2.45 25.53h-2c0 5.188 1.13 9.713 3.433 13.536l1.714-1.032zM9.41 25.515c-.049 3.35.672 6.222 2.234 8.552l1.662-1.114c-1.285-1.916-1.94-4.364-1.896-7.408l-2-.03zm2.234 8.552c1.547 2.307 3.733 4.014 6.513 5.13l.746-1.855c-2.447-.983-4.297-2.45-5.597-4.389l-1.662 1.114zm6.506 5.128c2.759 1.133 5.95 1.685 9.55 1.685v-2c-3.4 0-6.322-.522-8.79-1.535l-.76 1.85zm9.55 1.685c3.6 0 6.77-.552 9.486-1.687l-.772-1.846C33.997 38.358 31.1 38.88 27.7 38.88v2zm9.479-1.684c2.734-1.119 4.893-2.827 6.437-5.13l-1.662-1.113c-1.303 1.944-3.134 3.41-5.533 4.391l.758 1.852zm6.437-5.13c1.555-2.32 2.325-5.18 2.374-8.521l-2-.03c-.044 3.052-.744 5.511-2.036 7.438l1.662 1.114zm2.374-8.521c.049-3.35-.672-6.222-2.234-8.552l-1.662 1.114c1.285 1.916 1.94 4.364 1.896 7.408l2 .03zm-2.234-8.552c-1.546-2.305-3.73-4.023-6.506-5.163l-.76 1.85c2.45 1.006 4.303 2.485 5.604 4.427l1.662-1.114zm-6.513-5.166c-2.757-1.107-5.945-1.647-9.543-1.647v2c3.402 0 6.327.51 8.797 1.503l.746-1.856zM27.7 10.18c-3.597 0-6.765.54-9.479 1.65l.758 1.85c2.42-.99 5.318-1.5 8.721-1.5v-2zm-9.486 1.652c-2.73 1.142-4.887 2.86-6.43 5.161l1.662 1.114c1.304-1.946 3.137-3.425 5.54-4.43l-.772-1.845zm-6.43 5.161c-1.555 2.32-2.325 5.18-2.374 8.522l2 .03c.044-3.052.744-5.511 2.036-7.438l-1.662-1.114zM2.5 67.27v-1h-1v1h1zm41.51 0v1h1v-1h-1zm0-15.89v-1h-1v1h1zm8.89 0h1v-1h-1v1zm0 41.3v1h1v-1h-1zm-8.89 0h-1v1h1v-1zm0-15.89h1v-1h-1v1zm-41.51 0h-1v1h1v-1zm0-8.52h41.51v-2H2.5v2zm42.51-1V51.38h-2v15.89h2zm-1-14.89h8.89v-2h-8.89v2zm7.89-1v41.3h2v-41.3h-2zm1 40.3h-8.89v2h8.89v-2zm-7.89 1V76.79h-2v15.89h2zm-1-16.89H2.5v2h41.51v-2zm-40.51 1v-9.52h-2v9.52h2zm-.475 30.509-.931-.364-.001.003.932.361zm4.025-6.79-.744-.668-.004.005.748.663zm5.18-4.305.82-.57-.522-.752-.794.454.496.868zm5.6 8.05.433.902 1.059-.508-.671-.965-.821.571zm-6.3 6.475.916.402-.916-.402zm-.07 12.25.905-.424-.002-.006-.903.43zm2.695 3.22.525-.851-.006-.004-.007-.004-.512.859zm7.175-.42-.734-.679-.008.009.742.67zm1.785-3.64-.974-.228-.001.007-.002.008.977.213zm.595-4.725-1-.029v.001l1 .028zm.105-3.5-1-.033v.001l1 .032zm.035-2.1v-1h-1v1h1zm8.96 0h1v-1h-1v1zm0 3.15h-1v.037l1-.037zm.07 1.54.999-.047v-.011l-.999.058zm1.61 6.125.866-.5-.003-.005-.863.505zm8.925.28-.797-.604-.005.006.802.598zm.14-12.04-.878.479.002.004.876-.483zm-3.255-3.955-.681-.732-.902.839 1.006.71.577-.817zm7-6.51.693-.72-.681-.656-.693.644.681.732zm4.69 7.035-.914.406.914-.406zm1.085 16.415-.964-.265-.003.01.967.255zm-2.625 5.74-.82-.572-.005.007.825.565zm-4.515 4.06-.478-.878-.009.005.487.873zm-12.775.385-.373.928.004.002.369-.93zm-4.83-3.325.742-.67-1.031-1.142-.625 1.406.914.406zm-4.06 4.865.542.841-.542-.841zm-15.295-1.085.61-.792-.001-.001-.609.793zm-5.565-7.455.923-.385-.001-.003-.922.388zm-.96-10.325c0-3.473.511-6.485 1.507-9.053l-1.864-.723C.989 109.783.45 113.048.45 116.714h2zm1.506-9.05c1.015-2.592 2.3-4.75 3.842-6.492l-1.496-1.326c-1.724 1.945-3.123 4.314-4.208 7.089l1.862.729zm3.838-6.486c1.599-1.78 3.244-3.141 4.932-4.105l-.992-1.737c-1.906 1.089-3.713 2.597-5.428 4.505l1.488 1.337zm3.615-4.403 5.6 8.05 1.642-1.142-5.6-8.05-1.642 1.142zm5.988 6.578c-1.266.608-2.499 1.459-3.7 2.537l1.336 1.488c1.086-.974 2.163-1.71 3.23-2.222l-.866-1.803zm-3.7 2.537c-1.27 1.14-2.29 2.631-3.083 4.438l1.832.803c.701-1.6 1.57-2.839 2.587-3.753l-1.336-1.488zm-3.083 4.438c-.819 1.868-1.204 4.151-1.204 6.806h2c0-2.477.361-4.465 1.036-6.003l-1.832-.803zm-1.204 6.806c0 2.509.36 4.621 1.147 6.275l1.806-.86c-.613-1.286-.953-3.07-.953-5.415h-2zm1.145 6.27c.76 1.622 1.776 2.873 3.088 3.654l1.024-1.718c-.881-.525-1.662-1.42-2.301-2.785l-1.811.849zm3.075 3.646c1.244.768 2.58 1.164 3.99 1.164v-2c-1.016 0-1.99-.28-2.94-.866l-1.05 1.702zm3.99 1.164c1.817 0 3.354-.548 4.452-1.765l-1.484-1.34c-.629.697-1.565 1.105-2.968 1.105v2zm4.444-1.756c1.007-1.088 1.67-2.473 2.028-4.105l-1.954-.427c-.296 1.354-.822 2.396-1.542 3.174l1.468 1.358zm2.025-4.091c.366-1.563.572-3.206.62-4.925l-1.999-.056a22.578 22.578 0 0 1-.569 4.525l1.948.456zm.62-4.924c.047-1.61.082-2.775.105-3.496l-1.998-.065c-.024.725-.059 1.893-.106 3.503l2 .058zm.105-3.495c.024-.699.036-1.193.036-1.469h-2c0 .238-.011.7-.034 1.402l1.998.067zm.036-1.469V111.814h-2V112.479h2zm-1 .335h8.96v-2h-8.96v2zm7.96-1V113.144h2V111.814h-2zm0 1.33V114.964h2V113.144h-2zm0 1.857c.024.634.048 1.155.072 1.562l1.996-.117a72.438 72.438 0 0 1-.069-1.519l-1.998.074zm.071 1.551c.122 2.565.687 4.775 1.746 6.583l1.726-1.011c-.855-1.459-1.363-3.332-1.474-5.667l-1.998.095zm1.743 6.577c1.148 1.989 2.985 2.985 5.346 2.985v-2c-1.7 0-2.849-.66-3.614-1.985l-1.732 1zm5.346 2.985c2.176 0 3.957-.878 5.247-2.607l-1.603-1.196c-.904 1.212-2.086 1.803-3.644 1.803v2zm5.242-2.601c1.268-1.672 1.848-3.856 1.848-6.449h-2c0 2.308-.516 4.02-1.442 5.241l1.594 1.208zm1.848-6.449c0-2.459-.536-4.694-1.63-6.677l-1.75.965c.912 1.656 1.38 3.552 1.38 5.712h2zm-1.627-6.674c-1.026-1.88-2.201-3.336-3.556-4.293l-1.154 1.634c1.025.724 2.02 1.904 2.954 3.617l1.756-.958zm-3.452-2.743 7-6.51-1.362-1.465-7 6.51 1.362 1.465zm5.626-6.522c1.705 1.64 3.201 3.868 4.47 6.72l1.827-.812c-1.346-3.027-2.976-5.489-4.91-7.35l-1.387 1.442zm4.47 6.72c1.242 2.796 1.873 5.957 1.873 9.499h2c0-3.784-.675-7.226-2.046-10.311l-1.828.812zm1.873 9.499c0 2.128-.28 4.209-.84 6.245l1.93.53c.607-2.21.91-4.469.91-6.775h-2zm-.842 6.255c-.532 2.016-1.359 3.821-2.478 5.423l1.64 1.145c1.26-1.805 2.184-3.827 2.772-6.058l-1.934-.51zm-2.483 5.43a11.811 11.811 0 0 1-4.168 3.747l.956 1.757a13.818 13.818 0 0 0 4.862-4.374l-1.65-1.13zm-4.177 3.752c-1.665.927-3.695 1.413-6.128 1.413v2c2.7 0 5.08-.54 7.102-1.666l-.974-1.747zm-6.128 1.413c-2.049 0-3.976-.363-5.79-1.084l-.74 1.859c2.06.818 4.239 1.225 6.53 1.225v-2zm-5.787-1.082c-1.78-.717-3.262-1.741-4.46-3.068l-1.485 1.341c1.414 1.565 3.153 2.759 5.199 3.582l.746-1.855zm-6.117-2.804c-.861 1.939-2.093 3.402-3.688 4.431l1.084 1.681c1.951-1.258 3.427-3.038 4.432-5.3l-1.828-.812zm-3.688 4.431c-1.574 1.015-3.59 1.555-6.108 1.555v2c2.802 0 5.22-.603 7.192-1.874l-1.084-1.681zm-6.108 1.555c-3.137 0-5.8-.872-8.035-2.592l-1.22 1.585c2.618 2.013 5.719 3.007 9.255 3.007v-2zm-8.036-2.593c-2.25-1.725-4.004-4.062-5.251-7.047l-1.846.771c1.366 3.268 3.322 5.901 5.88 7.863l1.217-1.587zm-5.252-7.05c-1.25-2.966-1.882-6.274-1.882-9.937h-2c0 3.897.674 7.473 2.038 10.713l1.844-.776zM2.5 144.924v-1h-1v1h1zm50.4 0h1v-1h-1v1zm0 9.52v1h1v-1h-1zm-17.08 0v-1h-1v1h1zm-.07 13.72-.998-.056-.001.014v.014l.999.028zm-.21 2.24-.984-.176-.002.011-.002.01.988.155zm-2.975 7.35-.784-.621-.003.004.787.617zm-5.74 4.27-.367-.931-.01.005.377.926zm-15.365.035-.37.929.004.001.366-.93zm-5.705-4.27.787-.617-.003-.004-.784.621zm-2.975-7.385-.99.141.002.012.988-.153zm-.21-2.24.998-.056v-.001l-.998.057zm8.82-13.72v-1h-1v1h1zm.07 12.95.997-.08-.997.08zm.28 1.61.965-.263-.004-.012-.961.275zm1.75 2.975-.65.759.01.009.64-.768zm2.765 1.435.263-.965-.008-.002-.007-.002-.248.969zm5.775 0-.242-.97-.014.003-.013.004.269.963zm2.765-1.435-.64-.769-.01.009.65.76zm1.785-2.975-.962-.275-.003.012.965.263zm.28-1.61.997.079-.997-.079zm.07-12.95h1v-1h-1v1zM2.5 188.464v-1h-1v1h1zm50.4 0h1v-1h-1v1zm0 9.52v1h1v-1h-1zm-50.4 0h-1v1h1v-1zm0-52.06h50.4v-2H2.5v2zm49.4-1v9.52h2v-9.52h-2zm1 8.52H35.82v2H52.9v-2zm-18.08 1v11.76h2v-11.76h-2zm0 11.76c0 .439-.022 1.071-.069 1.904l1.998.111a38.62 38.62 0 0 0 .071-2.015h-2zm-.07 1.932a14.272 14.272 0 0 1-.194 2.092l1.968.352c.128-.714.201-1.511.226-2.388l-2-.056zm-.198 2.113c-.446 2.857-1.384 5.134-2.77 6.884l1.567 1.242c1.646-2.077 2.692-4.7 3.179-7.817l-1.976-.309zm-2.774 6.888c-1.406 1.795-3.174 3.111-5.32 3.956l.734 1.861c2.474-.974 4.533-2.505 6.16-4.584l-1.574-1.233zm-5.33 3.961c-2.152.878-4.576 1.326-7.288 1.326v2c2.934 0 5.62-.486 8.043-1.474l-.756-1.852zm-7.288 1.326c-2.715 0-5.155-.438-7.334-1.296l-.732 1.861c2.441.962 5.134 1.435 8.066 1.435v-2zm-7.33-1.294a12.437 12.437 0 0 1-5.288-3.958l-1.574 1.233a14.436 14.436 0 0 0 6.122 4.583l.74-1.858zm-5.291-3.962c-1.386-1.748-2.324-4.037-2.77-6.917l-1.977.306c.487 3.139 1.532 5.774 3.18 7.853l1.567-1.242zm-2.77-6.906a25.31 25.31 0 0 1-.2-2.154l-1.997.111c.047.862.12 1.638.218 2.326l1.98-.283zm-.2-2.155a35.187 35.187 0 0 1-.069-1.903h-2c0 .517.024 1.192.072 2.017l1.996-.114zm-.069-1.903v-21.28h-2v21.28h2zm6.89-11.76v11.34h2v-11.34h-2zm0 11.34c0 .521.025 1.085.073 1.689l1.994-.159a19.325 19.325 0 0 1-.067-1.53h-2zm.073 1.689c.051.64.155 1.243.316 1.805l1.922-.549a7.263 7.263 0 0 1-.244-1.415l-1.994.159zm.312 1.794c.39 1.43 1.063 2.613 2.064 3.471l1.302-1.519c-.632-.541-1.126-1.342-1.436-2.478l-1.93.526zm2.075 3.48a7.99 7.99 0 0 0 3.157 1.636l.496-1.938a5.994 5.994 0 0 1-2.373-1.234l-1.28 1.536zm3.142 1.632c1.098.299 2.156.455 3.168.455v-2c-.808 0-1.687-.125-2.642-.385l-.526 1.93zm3.168.455c1.013 0 2.06-.156 3.139-.457l-.538-1.926c-.928.259-1.794.383-2.601.383v2zm3.113-.45a7.695 7.695 0 0 0 3.173-1.646l-1.302-1.519a5.696 5.696 0 0 1-2.356 1.225l.485 1.94zm3.162-1.637c1.029-.857 1.718-2.043 2.11-3.48l-1.93-.526c-.308 1.129-.809 1.927-1.46 2.47l1.28 1.536zm2.107-3.469c.16-.562.264-1.165.315-1.805l-1.994-.159a7.27 7.27 0 0 1-.244 1.415l1.922.549zm.315-1.805c.048-.604.073-1.168.073-1.689h-2c0 .459-.022.968-.067 1.53l1.994.159zm.073-1.689v-11.34h-2v11.34h2zm-1-12.34H11.39v2h15.54v-2zM2.5 189.464h50.4v-2H2.5v2zm49.4-1v9.52h2v-9.52h-2zm1 8.52H2.5v2h50.4v-2zm-49.4 1v-9.52h-2v9.52h2zm-1 9.832v-1h-1v1h1zm50.4 0h1v-1h-1v1zm-2.17 28.875-.837-.547-.005.007.842.54zm-5.39 4.865.428.904-.428-.904zm-13.615-.385.566-.824-.006-.005-.56.829zm-3.745-5.215v-1h-1.324l.362 1.273.962-.273zm1.75 0 .98.203.249-1.203H29.73v1zm-4.375 7.07-.568-.823-.006.004.574.819zm-15.54.7.44-.898-.008-.004-.432.902zm-5.39-5.04-.87.493.004.007.866-.5zm7.035-21.21v-1h-1v1h1zm.805 15.12-.882.472.004.008.005.007.873-.487zm2.31 2.345.503-.865-.007-.003-.496.868zm6.72.14-.465-.885.465.885zm2.205-2.24-.868-.496-.007.012-.007.012.882.472zm.84-15.365h1v-1h-1v1zm8.89 0v-1h-1v1h1zm.56 13.23.914-.406-.914.406zm1.715 1.995-.537.844.011.007.526-.851zm6.93-.7-.674-.739.674.739zm1.575-14.525h1v-1h-1v1zm-41.51-8.66h50.4v-2H2.5v2zm49.4-1v20.16h2v-20.16h-2zm0 20.16c0 3.467-.698 6.163-2.007 8.168l1.674 1.094c1.585-2.428 2.333-5.542 2.333-9.262h-2zm-2.011 8.175c-1.333 2.075-2.992 3.562-4.977 4.501l.856 1.808c2.355-1.114 4.29-2.87 5.803-5.229l-1.682-1.08zm-4.977 4.501c-2.047.969-4.095 1.444-6.152 1.444v2c2.377 0 4.715-.551 7.008-1.636l-.856-1.808zm-6.152 1.444c-2.671 0-4.805-.606-6.468-1.749l-1.134 1.648c2.07 1.423 4.627 2.101 7.602 2.101v-2zm-6.475-1.754c-1.667-1.125-2.776-2.664-3.343-4.659l-1.924.546c.693 2.438 2.08 4.376 4.148 5.771l1.119-1.658zm-4.305-3.386h1.75v-2h-1.75v2zm.77-1.203c-.61 2.944-1.947 5.057-3.963 6.45l1.136 1.646c2.51-1.734 4.09-4.334 4.786-7.69l-1.958-.406zm-3.969 6.454c-2.093 1.467-4.424 2.199-7.021 2.199v2c3.002 0 5.735-.855 8.169-2.561l-1.148-1.638zm-7.021 2.199c-2.885 0-5.378-.536-7.505-1.578l-.88 1.796c2.447 1.198 5.25 1.782 8.385 1.782v-2zm-7.513-1.582c-2.099-1.006-3.747-2.544-4.956-4.638l-1.732 1c1.404 2.432 3.35 4.255 5.824 5.442l.864-1.804zm-4.952-4.631C4.12 236.12 3.5 233.456 3.5 230.146h-2c0 3.55.664 6.579 2.055 9.033l1.74-.986zM3.5 230.146v-22.33h-2v22.33h2zm6.96-12.67v11.69h2v-11.69h-2zm0 11.69c0 1.427.3 2.736.923 3.902l1.764-.944c-.45-.84-.687-1.818-.687-2.958h-2zm.932 3.917a7.027 7.027 0 0 0 2.687 2.726l.992-1.736a5.035 5.035 0 0 1-1.933-1.964l-1.746.974zm2.68 2.723c1.18.685 2.538 1.01 4.038 1.01v-2c-1.206 0-2.205-.259-3.032-.739l-1.006 1.729zm4.038 1.01c1.33 0 2.556-.275 3.65-.85l-.93-1.77c-.772.405-1.67.62-2.72.62v2zm3.65-.85c1.125-.59 1.998-1.488 2.622-2.653l-1.764-.944c-.45.842-1.046 1.437-1.788 1.827l.93 1.77zm2.608-2.629c.669-1.17.972-2.578.972-4.171h-2c0 1.347-.257 2.389-.708 3.179l1.736.992zm.972-4.171v-11.69h-2v11.69h2zm-1-12.69H11.46v2h12.88v-2zm7.89 1v10.36h2v-10.36h-2zm0 10.36c0 1.19.207 2.289.646 3.276l1.828-.812c-.308-.693-.474-1.507-.474-2.464h-2zm.646 3.276a5.461 5.461 0 0 0 2.092 2.433l1.074-1.688a3.455 3.455 0 0 1-1.338-1.557l-1.828.812zm2.104 2.44c.994.614 2.207.884 3.57.884v-2c-1.11 0-1.928-.22-2.52-.586l-1.05 1.702zm3.57.884c1.766 0 3.308-.557 4.559-1.696l-1.348-1.478c-.85.774-1.897 1.174-3.211 1.174v2zm4.559-1.696c1.312-1.196 1.901-2.887 1.901-4.904h-2c0 1.623-.462 2.709-1.248 3.426l1.346 1.478zm1.901-4.904v-10.36h-2v10.36h2zm-1-11.36H33.23v2h10.78v-2zM2.5 252.316v-1h-1v1h1zm50.4 0h1v-1h-1v1zm0 9.52v1h1v-1h-1zm-17.08 0v-1h-1v1h1zm-.07 13.72-.998-.055-.001.014v.014l.999.027zm-.21 2.24-.984-.175-.002.01-.002.011.988.154zm-2.975 7.35-.784-.621-.003.005.787.616zm-5.74 4.27-.367-.93-.01.004.377.926zm-15.365.035-.37.929.004.002.366-.931zm-5.705-4.27.787-.616-.003-.005-.784.621zm-2.975-7.385-.99.142.002.012.988-.154zm-.21-2.24.998-.055v-.002l-.998.057zm8.82-13.72v-1h-1v1h1zm.07 12.95.997-.079-.997.079zm.28 1.61.965-.263-.004-.011-.961.274zm1.75 2.975-.65.76.01.009.64-.769zm2.765 1.435.263-.964-.008-.003-.007-.001-.248.968zm5.775 0-.242-.97-.014.003-.013.004.269.963zm2.765-1.435-.64-.768-.01.009.65.759zm1.785-2.975-.962-.274-.003.011.965.263zm.28-1.61.997.08-.997-.08zm.07-12.95h1v-1h-1v1zM2.5 295.856v-1h-1v1h1zm50.4 0h1v-1h-1v1zm0 9.52v1h1v-1h-1zm-50.4 0h-1v1h1v-1zm0-52.06h50.4v-2H2.5v2zm49.4-1v9.52h2v-9.52h-2zm1 8.52H35.82v2H52.9v-2zm-18.08 1v11.76h2v-11.76h-2zm0 11.76c0 .439-.022 1.071-.069 1.905l1.998.111c.046-.847.071-1.521.071-2.016h-2zm-.07 1.933a14.285 14.285 0 0 1-.194 2.092l1.968.351c.128-.713.201-1.511.226-2.388l-2-.055zm-.198 2.113c-.446 2.856-1.384 5.134-2.77 6.883l1.567 1.243c1.646-2.078 2.692-4.7 3.179-7.817l-1.976-.309zm-2.774 6.888c-1.406 1.795-3.174 3.111-5.32 3.956l.734 1.861c2.474-.975 4.533-2.506 6.16-4.584l-1.574-1.233zm-5.33 3.96c-2.152.878-4.576 1.326-7.288 1.326v2c2.934 0 5.62-.485 8.043-1.474l-.756-1.852zm-7.288 1.326c-2.715 0-5.155-.437-7.334-1.295l-.732 1.861c2.441.962 5.134 1.434 8.066 1.434v-2zm-7.33-1.294a12.427 12.427 0 0 1-5.288-3.957l-1.574 1.233a14.426 14.426 0 0 0 6.122 4.582l.74-1.858zm-5.291-3.962c-1.386-1.748-2.324-4.036-2.77-6.917l-1.977.307c.487 3.139 1.532 5.774 3.18 7.853l1.567-1.243zm-2.77-6.905a25.35 25.35 0 0 1-.2-2.154l-1.997.111c.047.861.12 1.637.218 2.326l1.98-.283zm-.2-2.156a35.129 35.129 0 0 1-.069-1.903h-2c0 .518.024 1.192.072 2.017l1.996-.114zm-.069-1.903v-21.28h-2v21.28h2zm6.89-11.76v11.34h2v-11.34h-2zm0 11.34c0 .521.025 1.085.073 1.69l1.994-.159a19.349 19.349 0 0 1-.067-1.531h-2zm.073 1.69c.051.64.155 1.243.316 1.805l1.922-.549a7.276 7.276 0 0 1-.244-1.415l-1.994.159zm.312 1.793c.39 1.431 1.063 2.613 2.064 3.472l1.302-1.519c-.632-.542-1.126-1.343-1.436-2.479l-1.93.526zm2.075 3.481a7.988 7.988 0 0 0 3.157 1.635l.496-1.937a5.996 5.996 0 0 1-2.373-1.235l-1.28 1.537zm3.142 1.631c1.098.3 2.156.455 3.168.455v-2c-.808 0-1.687-.124-2.642-.384l-.526 1.929zm3.168.455c1.013 0 2.06-.156 3.139-.456l-.538-1.927c-.928.259-1.794.383-2.601.383v2zm3.113-.45a7.682 7.682 0 0 0 3.173-1.645l-1.302-1.519a5.682 5.682 0 0 1-2.356 1.224l.485 1.94zm3.162-1.636c1.029-.858 1.718-2.043 2.11-3.481l-1.93-.526c-.308 1.129-.809 1.927-1.46 2.47l1.28 1.537zm2.107-3.469c.16-.562.264-1.165.315-1.805l-1.994-.159a7.284 7.284 0 0 1-.244 1.415l1.922.549zm.315-1.805c.048-.605.073-1.169.073-1.69h-2c0 .459-.022.969-.067 1.531l1.994.159zm.073-1.69v-11.34h-2v11.34h2zm-1-12.34H11.39v2h15.54v-2zM2.5 296.856h50.4v-2H2.5v2zm49.4-1v9.52h2v-9.52h-2zm1 8.52H2.5v2h50.4v-2zm-49.4 1v-9.52h-2v9.52h2z" fill="#28272D"/>
</svg>
