<svg width="55" height="276" fill="none" xmlns="http://www.w3.org/2000/svg">
    <path d="m2.5 12.42.444-.896-1.444-.715v1.611h1zm0 10.15h-1v.634l.573.27.427-.904zm50.4 23.8-.427.904 1.427.674V46.37h-1zm0-10.15h1v-.646l-.59-.266-.41.912zM26.65 24.39l-.399-.917-2.072.9 2.06.929.411-.912zM52.9 12.98l.399.917.601-.261v-.656h-1zm0-10.78h1V.618l-1.429.679.429.903zM16.64 19.42l-.444.896.435.215.438-.208-.429-.903zm-15.14-7v10.15h2V12.42h-2zm.573 11.054 50.4 23.8.854-1.808-50.4-23.8-.854 1.808zM53.9 46.37V36.22h-2v10.15h2zm-.59-11.062-26.25-11.83-.82 1.824 26.25 11.83.82-1.824zm-26.261-10 26.25-11.41-.798-1.835-26.25 11.41.798 1.834zM53.9 12.98V2.2h-2v10.78h2zM52.471 1.297l-36.26 17.22.858 1.806 36.26-17.22-.858-1.806zM17.084 18.524l-14.14-7-.888 1.792 14.14 7 .888-1.792zM5.755 84.63l.809-.588-.002-.003-.807.591zm11.655 8.33-.312.95.995.327.28-1.01-.963-.267zm2.66-9.59.964.267.26-.937-.93-.286-.294.956zm-7.105-4.725.793-.61-.793.61zm2.135-19.39-.607-.795-.006.005.613.79zm25.165 0 .61-.792-.61.792zm2.17 19.39-.793-.61-.004.006.797.604zm-7.105 4.725-.292-.956-.932.284.26.94.964-.268zm2.66 9.59-.964.267.28 1.01.996-.327-.312-.95zm11.655-8.33-.807-.59-.002.002.809.588zm1.015-27.615.858-.514-.002-.002-.856.516zm-9.205-8.435.45-.893-.005-.003-.445.896zm-27.51 0-.445-.896-.004.003.449.893zM4.74 57.016l-.857-.516-.001.002.858.514zM.45 70.071c0 5.957 1.48 11.029 4.498 15.15l1.614-1.18C3.84 80.322 2.45 75.686 2.45 70.07h-2zm4.496 15.148c3.001 4.124 7.065 7.02 12.152 8.692l.624-1.9c-4.713-1.548-8.42-4.205-11.158-7.968l-1.618 1.176zm13.428 8.01 2.66-9.59-1.928-.535-2.66 9.59 1.928.534zm1.99-10.814c-2.863-.88-5.046-2.348-6.606-4.378l-1.586 1.218c1.846 2.403 4.4 4.086 7.604 5.072l.588-1.912zm-6.606-4.378c-1.538-2.002-2.348-4.63-2.348-7.966h-2c0 3.664.894 6.753 2.762 9.184l1.586-1.218zM11.41 70.07c0-4.546 1.472-7.828 4.303-10.025l-1.226-1.58C11.065 61.122 9.41 65.05 9.41 70.071h2zm4.297-10.02c2.926-2.233 6.891-3.4 11.993-3.4v-2c-5.398 0-9.833 1.236-13.207 3.81l1.214 1.59zm11.993-3.4c5.102 0 9.054 1.167 11.956 3.398l1.218-1.586c-3.351-2.576-7.776-3.812-13.174-3.812v2zm11.955 3.397c2.853 2.198 4.335 5.48 4.335 10.023h2c0-5.023-1.668-8.952-5.115-11.607l-1.22 1.584zm4.335 10.023c0 3.336-.81 5.964-2.348 7.966l1.586 1.218c1.868-2.431 2.762-5.52 2.762-9.184h-2zm-2.352 7.971c-1.535 2.025-3.713 3.491-6.6 4.373l.584 1.912c3.227-.985 5.785-2.668 7.61-5.077l-1.594-1.208zm-7.272 5.596 2.66 9.59 1.928-.534-2.66-9.59-1.928.534zm3.936 10.273c5.087-1.671 9.15-4.569 12.151-8.692l-1.617-1.176c-2.739 3.763-6.445 6.42-11.158 7.968l.624 1.9zm12.15-8.69c3.018-4.121 4.498-9.193 4.498-15.15h-2c0 5.616-1.39 10.252-4.112 13.97l1.614 1.18zm4.498-15.15c0-5.188-1.13-9.724-3.432-13.569l-1.716 1.028c2.085 3.482 3.148 7.649 3.148 12.541h2zM51.516 56.5c-2.294-3.808-5.507-6.748-9.612-8.812l-.898 1.786c3.781 1.902 6.705 4.586 8.797 8.058l1.714-1.032zM41.9 47.685c-4.105-2.04-8.847-3.044-14.2-3.044v2c5.1 0 9.528.956 13.31 2.836l.89-1.791zm-14.2-3.044c-5.352 0-10.095 1.004-14.2 3.044l.89 1.791c3.782-1.88 8.21-2.835 13.31-2.835v-2zm-14.204 3.047C9.39 49.752 6.178 52.692 3.883 56.5l1.714 1.032c2.092-3.472 5.016-6.156 8.797-8.058l-.898-1.786zm-9.614 8.814C1.58 60.347.45 64.883.45 70.071h2c0-4.892 1.063-9.06 3.148-12.541l-1.716-1.028zM2.5 95.8v-1h-.822l-.16.807.982.193zm.315 8.575.912-.41-.002-.003-.91.413zm4.83 4.725-.425.906.425-.906zm8.435 2.59.205-.979-.013-.002-.192.981zm7.945 1.365-.135.991.135-.991zm7.91.945.1-.995-.1.995zm6.965.595.078-.997h-.011l-.067.997zm5.11.385h1v-.931l-.929-.066-.071.997zm0 16.1v1h1v-1h-1zm-41.51 0v-1h-1v1h1zm0 9.52h-1v1h1v-1zm50.4 0v1h1v-1h-1zm0-34.37h1v-.955l-.954-.044-.046.999zm-6.125-.315-.055.999.055-.999zm-8.47-.595.082-.996-.082.996zm-9.52-.98.121-.992-.006-.001-.115.993zm-9.205-1.4.189-.982h-.004l-.185.982zm-5.775-1.54-.382.924.005.003.377-.927zm-2.8-2.17-.87.494.005.007.865-.5zm-.595-3.43.998.066.07-1.066H10.41v1zm-8.891-.193c-.74 3.746-.674 6.85.386 9.182l1.82-.827c-.806-1.775-.95-4.388-.244-7.968l-1.962-.387zm.384 9.178c1.042 2.319 2.84 4.058 5.317 5.221l.85-1.811c-2.096-.984-3.518-2.395-4.343-4.23l-1.824.82zm5.317 5.221c2.381 1.117 5.276 2.002 8.668 2.666l.384-1.963c-3.282-.643-6.01-1.485-8.202-2.514l-.85 1.811zm8.655 2.663c2.591.542 5.262 1.001 8.015 1.377l.27-1.981a114.647 114.647 0 0 1-7.875-1.353l-.41 1.957zm8.015 1.377c2.74.375 5.389.691 7.945.949l.2-1.99c-2.53-.255-5.155-.569-7.874-.94l-.271 1.981zm7.945.949c2.552.258 4.885.457 6.998.598l.134-1.995c-2.087-.14-4.397-.337-6.932-.593l-.2 1.99zm6.987.597c2.101.164 3.807.292 5.117.386l.142-1.995a784.739 784.739 0 0 1-5.104-.385l-.154 1.994zm4.188-.612v16.1h2v-16.1h-2zm1 15.1H2.5v2h41.51v-2zm-42.51 1v9.52h2v-9.52h-2zm1 10.52h50.4v-2H2.5v2zm51.4-1v-34.37h-2v34.37h2zm-.954-35.369a726.388 726.388 0 0 1-6.116-.314l-.11 1.997c2.568.14 4.613.245 6.134.315l.092-1.998zm-6.116-.314a308.412 308.412 0 0 1-8.443-.593l-.164 1.993c3.11.257 5.943.456 8.497.597l.11-1.997zm-8.443-.593a244.58 244.58 0 0 1-9.48-.976l-.243 1.985c3.255.398 6.442.726 9.559.984l.164-1.993zm-9.487-.977a124.637 124.637 0 0 1-9.131-1.389l-.378 1.964a126.07 126.07 0 0 0 9.279 1.412l.23-1.987zm-9.135-1.389c-2.446-.462-4.296-.96-5.583-1.484l-.754 1.853c1.466.596 3.466 1.124 5.967 1.596l.37-1.965zm-5.578-1.482c-1.234-.51-1.952-1.117-2.317-1.747l-1.73 1.002c.662 1.144 1.81 1.984 3.283 2.593l.764-1.848zm-2.312-1.74c-.36-.634-.553-1.56-.467-2.87l-1.996-.131c-.1 1.537.103 2.897.723 3.989l1.74-.987zM10.41 94.8H2.5v2h7.91v-2zM2.5 156.453l.444-.896-1.444-.715v1.611h1zm0 10.15h-1v.634l.573.27.427-.904zm50.4 23.8-.427.904 1.427.674v-1.578h-1zm0-10.15h1v-.646l-.59-.265-.41.911zm-26.25-11.83-.399-.917-2.072.901 2.06.928.411-.912zm26.25-11.41.399.917.601-.261v-.656h-1zm0-10.78h1v-1.582l-1.429.679.429.903zm-36.26 17.22-.444.896.435.216.438-.208-.429-.904zm-15.14-7v10.15h2v-10.15h-2zm.573 11.054 50.4 23.8.854-1.808-50.4-23.8-.854 1.808zM53.9 190.403v-10.15h-2v10.15h2zm-.59-11.061-26.25-11.83-.82 1.823 26.25 11.83.82-1.823zM27.05 169.34l26.25-11.41-.798-1.834-26.25 11.41.798 1.834zM53.9 157.013v-10.78h-2v10.78h2zm-1.429-11.683-36.26 17.22.858 1.807 36.26-17.22-.858-1.807zm-35.387 17.227-14.14-7-.888 1.792 14.14 7 .888-1.792zM2.5 195.277v-1h-1v1h1zm0 9.52h-1v1h1v-1zm41.51 0h1v-1h-1v1zm0 23.38h-1v1h1v-1zm8.89 0v1h1v-1h-1zm0-32.9h1v-1h-1v1zm-51.4 0v9.52h2v-9.52h-2zm1 10.52h41.51v-2H2.5v2zm40.51-1v23.38h2v-23.38h-2zm1 24.38h8.89v-2h-8.89v2zm9.89-1v-32.9h-2v32.9h2zm-1-33.9H2.5v2h50.4v-2zM2.5 274.993h-1v1h1v-1zm0-9.66v-1h-1v1h1zm33.6 0v1h3.364l-2.818-1.837-.546.837zm-33.6-21.91h-1v.542l.454.296.546-.838zm0-9.66v-1h-1v1h1zm50.4 0h1v-1h-1v1zm0 9.66v1h1v-1h-1zm-33.6 0v-1h-3.364l2.818 1.838.546-.838zm33.6 21.91h1v-.541l-.454-.296-.546.837zm0 9.66v1h1v-1h-1zm-49.4 0v-9.66h-2v9.66h2zm-1-8.66h33.6v-2H2.5v2zm34.146-1.837-33.6-21.91-1.092 1.675 33.6 21.91 1.092-1.675zM3.5 243.423v-9.66h-2v9.66h2zm-1-8.66h50.4v-2H2.5v2zm49.4-1v9.66h2v-9.66h-2zm1 8.66H19.3v2h33.6v-2zm-34.146 1.838 33.6 21.91 1.092-1.675-33.6-21.91-1.092 1.675zM51.9 265.333v9.66h2v-9.66h-2zm1 8.66H2.5v2h50.4v-2z" fill="#28272D"/>
</svg>
