<svg aria-hidden="true" style="position:absolute;width:0;height:0;overflow:hidden" xmlns="http://www.w3.org/2000/svg">
    <defs>
        <symbol id="icon-file" viewBox="0 0 32 32">
            <path d="M26 30H11a2.005 2.005 0 0 1-2-2v-6h2v6h15V6h-9V4h9a2.005 2.005 0 0 1 2 2v22a2.005 2.005 0 0 1-2 2z"/>
            <path d="M17 10h7v2h-7v-2zM16 15h8v2h-8v-2zM15 20h9v2h-9v-2zM9 19a5.004 5.004 0 0 1-5-5V3h2v11a3.004 3.004 0 0 0 3 3 2.998 2.998 0 0 0 3-3V5a.997.997 0 0 0-1-1 .997.997 0 0 0-1 1v10H8V5a3.004 3.004 0 0 1 3-3 3.004 3.004 0 0 1 3 3v9a5.004 5.004 0 0 1-5 5z"/>
        </symbol>
        <symbol id="icon-copy" viewBox="0 0 27 32">
            <path d="M6.095 6.857V2.286A1.524 1.524 0 0 1 7.618.763h18.286a1.52 1.52 0 0 1 1.524 1.523v21.333a1.52 1.52 0 0 1-1.524 1.524h-4.571v4.571c0 .841-.686 1.524-1.534 1.524H1.535a1.528 1.528 0 0 1-1.417-.939 1.527 1.527 0 0 1-.117-.585L.006 8.381c0-.841.686-1.524 1.533-1.524h4.558zM3.051 9.905l-.003 18.286h15.238V9.905H3.051zm6.092-3.048h12.19v15.238h3.048V3.809H9.143v3.048zm-3.048 7.619h9.143v3.048H6.095v-3.048zm0 6.095h9.143v3.048H6.095v-3.048z"/>
        </symbol>
        <symbol id="icon-attention" viewBox="0 0 32 32">
            <path d="M16 0a15.961 15.961 0 0 1 11.313 4.686A15.95 15.95 0 0 1 32 15.999a15.944 15.944 0 0 1-4.687 11.313A15.95 15.95 0 0 1 16 31.999a15.947 15.947 0 0 1-11.313-4.687A15.95 15.95 0 0 1 .001 15.999 15.947 15.947 0 0 1 4.688 4.686 15.95 15.95 0 0 1 16.001-.001zm0 30.545.002-1.455a13.044 13.044 0 0 0 9.253-3.833l.003-.003a13.05 13.05 0 0 0 3.833-9.253v-.004a13.044 13.044 0 0 0-3.833-9.253l-.003-.003a13.05 13.05 0 0 0-9.253-3.833h-.004a13.044 13.044 0 0 0-9.253 3.833l-.003.003a13.05 13.05 0 0 0-3.833 9.253v.004a13.044 13.044 0 0 0 3.833 9.253l.003.003a13.05 13.05 0 0 0 9.253 3.833L16 30.545z"/>
            <path d="M16 25.455a1.815 1.815 0 0 0 1.818-1.818A1.815 1.815 0 0 0 16 21.819a1.816 1.816 0 1 0 0 3.636zM16 5.818c.803 0 1.455.651 1.455 1.455v11.636a1.455 1.455 0 0 1-2.91 0V7.273c0-.803.651-1.455 1.455-1.455z"/>
        </symbol>
        <symbol id="icon-art" viewBox="0 0 32 32">
            <path d="M3.556 0H0v32h32V0H3.556zm24.888 3.556v24.889H3.555V3.556h24.889zm-3.555 3.555H7.111v3.556h17.778V7.111zM7.111 14.222h17.778v3.556H7.111v-3.556zm12.445 7.111H7.112v3.556h12.444v-3.556z"/>
        </symbol>
        <symbol id="icon-blank2" viewBox="0 0 33 32">
            <path d="m26.4 4.667-2-2-2 2-2-2-2 2-2-2-2 2-2-2-2 2-2-2v18.667h-4v4c0 2.213 1.787 4 4 4h16c2.213 0 4-1.787 4-4V2.667l-2 2zm-6 22h-12c-.733 0-1.333-.6-1.333-1.333v-1.333H20.4v2.667zm5.333-1.334c0 .733-.6 1.333-1.333 1.333s-1.333-.6-1.333-1.333v-4h-12V6.666h14.667v18.667z"/>
            <path d="M12.4 9.333h8V12h-8V9.333zm9.333 0H24.4V12h-2.667V9.333zm-9.333 4h8V16h-8v-2.667zm9.333 0H24.4V16h-2.667v-2.667z"/>
        </symbol>
        <symbol id="icon-payment" viewBox="0 0 33 32">
            <path d="M7.111 12a1.333 1.333 0 0 1 1.334 1.333 9.294 9.294 0 0 1 5.773 2h2.893c1.777 0 3.373.773 4.472 2h4.195a6.663 6.663 0 0 1 6.022 3.801c-3.153 4.161-8.259 6.865-14.021 6.865-3.72 0-6.867-.804-9.413-2.211a1.333 1.333 0 0 1-1.253.878h-4a1.333 1.333 0 0 1-1.334-1.333v-12A1.33 1.33 0 0 1 3.113 12h4zm1.335 4-.001 6.696.06.043c2.393 1.68 5.511 2.595 9.273 2.595 4.005 0 7.732-1.541 10.447-4.173l.177-.177-.16-.133a3.993 3.993 0 0 0-2.191-.84l-.273-.009h-2.815c.096.429.148.875.148 1.333v1.333h-12v-2.667L20.164 20l-.045-.104a3.341 3.341 0 0 0-2.79-1.888l-.219-.007h-3.907a6.657 6.657 0 0 0-4.758-2h-.001zm-2.668-1.333H4.445V24h1.333v-9.333zm18.666-8a4.003 4.003 0 0 1 4 4 4.003 4.003 0 0 1-4 4 4.003 4.003 0 0 1-4-4 4.003 4.003 0 0 1 4-4zm0 2.666a1.333 1.333 0 1 0-.002 2.665 1.333 1.333 0 0 0 .002-2.665zm-9.333-6.666a4.003 4.003 0 0 1 4 4 4.003 4.003 0 0 1-4 4 4.003 4.003 0 0 1-4-4 4.003 4.003 0 0 1 4-4zm0 2.666a1.33 1.33 0 0 0-1.333 1.334 1.333 1.333 0 1 0 1.333-1.334z"/>
        </symbol>
        <symbol id="icon-area" viewBox="0 0 43 32">
            <path d="M42.667 21.333h-3.879v3.556h3.879v-3.556zm0 7.111h-3.879V32h3.879v-3.556zm0-14.222h-3.879v3.556h3.879v-3.556zM27.152 0h-3.879v3.556h3.879V0zm15.515 7.111h-3.879v3.556h3.879V7.111zM0 32h19.394V21.333H0V32zM3.879 7.111H0v3.556h3.879V7.111zm23.273 21.333h-3.879V32h3.879v-3.556zM34.909 0H31.03v3.556h3.879V0zm7.758 0h-3.879v3.556h3.879V0zm-7.758 28.444H31.03V32h3.879v-3.556zM3.879 14.222H0v3.556h3.879v-3.556zM19.394 0h-3.879v3.556h3.879V0zm-7.758 0H7.757v3.556h3.879V0zM3.879 0H0v3.556h3.879V0z"/>
        </symbol>
        <symbol id="icon-arrow-down" viewBox="0 0 59 32">
            <path d="M29.333 32c-1.067 0-2.667-.533-3.733-1.6L1.6 9.067C-.533 6.934-.533 3.734 1.067 1.6 3.2-.533 6.4-1.067 8.534 1.067L28.801 19.2 49.068 1.067c2.133-2.133 5.333-1.6 7.467.533s1.6 5.333-.533 7.467l-24 21.333c0 1.067-1.6 1.6-2.667 1.6z"/>
        </symbol>
        <symbol id="icon-arrow-right" viewBox="0 0 20 32">
            <path d="M2.228 29.993a2.666 2.666 0 0 1-.221-3.765L11.099 16 2.007 5.772a2.668 2.668 0 0 1 3.986-3.544l10.667 12a2.667 2.667 0 0 1 0 3.543l-10.667 12a2.666 2.666 0 0 1-3.765.221z"/>
        </symbol>
        <symbol id="icon-blank" viewBox="0 0 31 32">
            <path d="M26.881 14.72h-3.84V5.76a1.28 1.28 0 0 0-1.28-1.28H3.841a1.28 1.28 0 0 0-1.28 1.28v17.92a3.845 3.845 0 0 0 3.84 3.84h17.92a3.845 3.845 0 0 0 3.84-3.84V16a1.28 1.28 0 0 0-1.28-1.28zM6.4 24.96a1.28 1.28 0 0 1-1.28-1.28V7.04h15.36v16.64c0 .449.078.881.219 1.28H6.4zm19.201-1.28a1.28 1.28 0 0 1-2.56 0v-6.4h2.56v6.4z"/>
            <path d="M7.68 9.6h10.24v2.56H7.68V9.6zm0 5.12h10.24v2.56H7.68v-2.56zm6.4 5.12h3.84v2.56h-3.84v-2.56z"/>
        </symbol>
        <symbol id="icon-bricks" viewBox="0 0 33 32">
            <path stroke-width="1.164" d="M29.453 7.418h-.582v5.164h3.582a.418.418 0 0 1 .418.419v6a.415.415 0 0 1-.418.418h-3.582v5.164h3.582a.415.415 0 0 1 .418.418v6a.415.415 0 0 1-.418.418h-30a.415.415 0 0 1-.418-.418v-6a.415.415 0 0 1 .418-.418h3.582v-5.164H2.453a.415.415 0 0 1-.418-.418v-6a.421.421 0 0 1 .418-.419h3.582V7.418H2.453A.415.415 0 0 1 2.035 7V1a.415.415 0 0 1 .418-.418h30a.415.415 0 0 1 .418.418v6a.415.415 0 0 1-.418.418h-3zm-22 0h-.582v5.164h10.164V7.418H7.453zm11 0h-.582v5.164h10.164V7.418h-9.582zm-11 12h-.582v5.164h10.164v-5.164H7.453zm11 0h-.582v5.164h10.164v-5.164h-9.582zm-15-18h-.582v5.164h8.164V1.418H3.453zm9 0h-.582v5.164h11.164V1.418H12.453zm12 0h-.582v5.164h8.164V1.418h-7.582zm-21 12h-.582v5.164h8.164v-5.164H3.453zm9 0h-.582v5.164h11.164v-5.164H12.453zm12 0h-.582v5.164h8.164v-5.164h-7.582zm-21 12h-.582v5.164h8.164v-5.164H3.453zm9 0h-.582v5.164h11.164v-5.164H12.453zm12 0h-.582v5.164h8.164v-5.164h-7.582z"/>
        </symbol>
        <symbol id="icon-build" viewBox="0 0 36 32">
            <path d="M3.766 28.222V7.359a1.568 1.568 0 0 1 1.033-1.475L19.969.369a.794.794 0 0 1 .719.094.789.789 0 0 1 .334.642v7.769l9.907 3.302a1.574 1.574 0 0 1 1.073 1.489V28.22h3.137v3.137H.629V28.22h3.137zm3.137 0h10.98V4.465L6.903 8.459v19.763zm21.961 0V14.798l-7.843-2.615v16.039h7.843z"/>
        </symbol>
        <symbol id="icon-building" viewBox="0 0 34 32">
            <path d="M32.818 6.952 17.483.102a1.307 1.307 0 0 0-1.227 0L.921 6.952c-.613.204-.92.818-.92 1.431v22.185c0 .818.716 1.534 1.534 1.534s1.534-.716 1.534-1.636V9.303l13.802-6.134 13.802 6.134v21.163c0 .818.716 1.534 1.534 1.534s1.534-.716 1.534-1.534V8.383c0-.613-.307-1.227-.92-1.431z"/>
            <path d="M25.355 15.335h-5.316v-.204c0-.818-.307-1.636-.92-2.249s-1.431-.92-2.249-.92h-3.374c-.818 0-1.636.307-2.249.92s-1.022 1.431-1.022 2.249v3.578h-1.84c-.818 0-1.534.716-1.534 1.534v10.224c0 .818.716 1.534 1.534 1.534H25.459c.818 0 1.534-.716 1.534-1.534V16.87c-.102-.818-.716-1.534-1.636-1.534zm-12.064-.204v-.102h3.578v3.68h-3.578v-3.578zm-3.374 6.645h7.156v7.157H9.916v-7.157zm13.904 7.157h-3.783v-10.53h3.783v10.53z"/>
        </symbol>
        <symbol id="icon-calc" viewBox="0 0 32 32">
            <path stroke-linejoin="round" stroke-width="2" d="M26.015 2.667H5.986c-.332 0-.65.14-.885.388s-.367.586-.367.938V27.86c0 .352.132.689.367.937s.553.388.885.388h20.029c.332 0 .65-.14.885-.388s.367-.586.367-.937V3.993c0-.352-.132-.689-.367-.938s-.553-.388-.885-.388z"/>
            <path stroke-linejoin="round" stroke-width="2" d="M22.884 6.645H9.114v5.967h13.77V6.645z"/>
            <path stroke-linejoin="round" stroke-linecap="round" stroke-width="2" d="m8.49 18.578 4.381 4.641M12.871 18.578 8.49 23.219M18.503 23.219h5.007M18.503 19.241h5.007"/>
        </symbol>
        <symbol id="icon-calc2" viewBox="0 0 27 32">
            <path d="M.712.782A2.47 2.47 0 0 1 2.507 0h22.302c.686 0 1.331.289 1.795.782.463.49.712 1.142.712 1.808v26.576c0 .667-.25 1.319-.712 1.808a2.47 2.47 0 0 1-1.795.782H2.507a2.465 2.465 0 0 1-1.795-.782A2.632 2.632 0 0 1 0 29.166V2.59C0 1.923.249 1.272.712.782zm1.795 1.445a.245.245 0 0 0-.176.083.41.41 0 0 0-.104.28v26.576c0 .116.044.216.104.28a.241.241 0 0 0 .176.083h22.302a.245.245 0 0 0 .176-.083.41.41 0 0 0 .104-.28V2.59a.412.412 0 0 0-.104-.28.241.241 0 0 0-.176-.083H2.507z"/>
            <path d="M4.879 5.543c0-.615.499-1.114 1.114-1.114h15.333c.615 0 1.113.499 1.113 1.114v6.644c0 .615-.499 1.114-1.113 1.114H5.993a1.114 1.114 0 0 1-1.114-1.114V5.543zm2.227 1.113v4.417h13.106V6.656H7.106zM4.531 18.021a1.114 1.114 0 0 1 1.574.045l4.879 5.168a1.114 1.114 0 0 1-1.619 1.529l-4.879-5.167a1.114 1.114 0 0 1 .045-1.574z"/>
            <path d="M10.939 18.021c.447.422.467 1.127.045 1.574l-4.879 5.167a1.114 1.114 0 0 1-1.619-1.529l4.879-5.168a1.114 1.114 0 0 1 1.574-.045zM15.332 23.998c0-.615.499-1.114 1.114-1.114h5.576a1.114 1.114 0 0 1 0 2.228h-5.576a1.114 1.114 0 0 1-1.114-1.114zM15.332 19.569c0-.615.499-1.113 1.114-1.113h5.576a1.114 1.114 0 0 1 0 2.227h-5.576a1.114 1.114 0 0 1-1.114-1.114z"/>
        </symbol>
        <symbol id="icon-cart" viewBox="0 0 32 32">
            <path d="M3.902 4c-.679 0-1.235.54-1.235 1.2s.556 1.2 1.235 1.2h2.741L9.885 19c.274 1.068 1.26 1.8 2.392 1.8h14.165a2.42 2.42 0 0 0 2.354-1.763L32 7.6H11.312l.618 2.4h16.866l-2.354 8.4H12.277L9.035 5.8c-.134-.517-.442-.975-.875-1.301s-.967-.502-1.516-.498H3.902zm20.996 16.8c-2.032 0-3.705 1.626-3.705 3.6s1.674 3.6 3.705 3.6c2.032 0 3.705-1.626 3.705-3.6s-1.673-3.6-3.705-3.6zm-11.116 0c-2.032 0-3.705 1.626-3.705 3.6s1.674 3.6 3.705 3.6c2.032 0 3.705-1.626 3.705-3.6s-1.674-3.6-3.705-3.6zm0 2.4c.695 0 1.235.526 1.235 1.2 0 .676-.541 1.2-1.235 1.2-.695 0-1.235-.526-1.235-1.2 0-.676.541-1.2 1.235-1.2zm11.116 0c.695 0 1.235.526 1.235 1.2 0 .676-.541 1.2-1.235 1.2-.695 0-1.235-.526-1.235-1.2 0-.676.541-1.2 1.235-1.2z"/>
        </symbol>
        <symbol id="icon-cart2" viewBox="0 0 28 32">
            <path d="M1.163 5.282C.523 5.282 0 5.795 0 6.423s.523 1.141 1.163 1.141h2.58l3.052 11.98c.258 1.015 1.186 1.711 2.252 1.711h13.336a2.28 2.28 0 0 0 2.216-1.676l3.016-10.875H8.138l.581 2.282h15.879l-2.216 7.987H9.046L5.994 6.993c-.126-.491-.416-.927-.824-1.237s-.911-.477-1.427-.474H1.162zM20.93 21.256c-1.913 0-3.488 1.546-3.488 3.423s1.576 3.423 3.488 3.423c1.913 0 3.489-1.546 3.489-3.423s-1.576-3.423-3.489-3.423zm-10.465 0c-1.913 0-3.488 1.546-3.488 3.423s1.576 3.423 3.488 3.423c1.913 0 3.488-1.546 3.488-3.423s-1.576-3.423-3.488-3.423zm0 2.282c.655 0 1.163.5 1.163 1.141 0 .642-.509 1.141-1.163 1.141-.655 0-1.163-.5-1.163-1.141 0-.642.509-1.141 1.163-1.141zm10.465 0c.655 0 1.163.5 1.163 1.141 0 .642-.509 1.141-1.163 1.141-.655 0-1.163-.5-1.163-1.141 0-.642.509-1.141 1.163-1.141z"/>
        </symbol>
        <symbol id="icon-check" viewBox="0 0 32 32">
            <path d="M26.239 8.44c-.064-.132-.163-.243-.287-.32s-.267-.119-.413-.12h-1.54c-.205-.003-.408.042-.592.133s-.344.223-.468.387l-9.3 11.64-4.16-5.28a1.42 1.42 0 0 0-.46-.38 1.456 1.456 0 0 0-.6-.12h-1.64a.759.759 0 0 0-.78.44.737.737 0 0 0 0 .82l6.6 8.14a1.381 1.381 0 0 0 1.04.52 1.399 1.399 0 0 0 1.08-.52l11.44-14.5a.802.802 0 0 0 .08-.84z"/>
        </symbol>
        <symbol id="icon-check-circle" viewBox="0 0 31 32">
            <path d="M30.72 16c0 8.483-6.877 15.36-15.36 15.36S0 24.483 0 16 6.877.64 15.36.64 30.72 7.517 30.72 16z"/>
            <path stroke-linejoin="round" stroke-width="2.56" d="m7.68 14.72 5.76 5.76 9.6-9.6"/>
        </symbol>
        <symbol id="icon-circle" viewBox="0 0 47 32">
            <path d="M44.73 2.336C43.796 1.285 42.161 0 39.241 0h-32C4.438 0 2.686 1.285 1.869 2.336.584 3.737 0 5.723 0 8.059v16c0 2.336.584 4.204 1.869 5.606.934 1.051 2.569 2.336 5.489 2.336h32c2.92 0 4.555-1.285 5.489-2.336 1.168-1.401 1.869-3.387 1.869-5.606v-16c-.117-2.336-.818-4.321-1.985-5.723zm-1.635 21.722c0 1.401-.35 2.686-1.051 3.387-.584.701-1.518 1.051-2.803 1.051h-32c-1.285 0-2.102-.35-2.803-1.051-.584-.818-.934-1.985-.934-3.387v-16c0-1.401.35-2.686 1.051-3.387.584-.818 1.518-1.168 2.686-1.168h32c1.285 0 2.102.35 2.803 1.051.701.818 1.051 1.985 1.051 3.387v16.117z"/>
            <path d="M31.883 16.467c0 4.58-3.712 8.292-8.292 8.292s-8.292-3.712-8.292-8.292 3.712-8.292 8.292-8.292 8.292 3.712 8.292 8.292z"/>
        </symbol>
        <symbol id="icon-clean" viewBox="0 0 32 32">
            <path d="M30.915 9.887h-.489v.489a.49.49 0 0 1-.978 0v-.489h-.489a.49.49 0 0 1 0-.978h.489V8.42a.49.49 0 0 1 .978 0v.489h.489a.49.49 0 0 1 0 .978zm-1.956 9.535a.734.734 0 0 1 1.466 0 .734.734 0 0 1-1.466 0zm0 7.579v.58c.415.147.739.476.888.888h.579a.49.49 0 0 1 0 .978h-.579a1.473 1.473 0 0 1-.888.888v.579a.49.49 0 0 1-.978 0v-.58a1.47 1.47 0 0 1-.888-.888h-.579a.49.49 0 0 1 0-.978h.579c.148-.413.474-.741.888-.888v-.579a.49.49 0 0 1 .978 0zm-.978 1.956a.488.488 0 1 0 .977.001.488.488 0 0 0-.977-.001zm-3.912-1.467H7.932a2.445 2.445 0 0 1-2.445-2.445V6.953a2.445 2.445 0 0 1 2.445-2.445h16.137a2.444 2.444 0 0 1 2.445 2.445v18.092a2.444 2.444 0 0 1-2.445 2.445zM18.69 5.486h-5.868v3.423h5.868V5.486zM6.465 22.111h1.956v-3.423H6.465v3.423zm0-8.801h1.956V9.887H6.465v3.423zm0 .978v3.423h5.379v-3.423H6.465zm6.357 12.224h5.868v-3.423h-5.868v3.423zm3.423-7.823v3.423h5.868v-3.423h-5.868zm2.445-.978v-3.423h-5.868v3.423h5.868zm-3.423 4.4v-3.423H9.399v3.423h5.868zM9.399 13.31h5.868V9.887H9.399v3.423zm6.846-3.423v3.423h5.868V9.887h-5.868zm3.423 4.401v3.423h5.868v-3.423h-5.868zm5.868 4.401h-2.445v3.423h2.445v-3.423zm-2.445-5.379h2.445V9.887h-2.445v3.423zm2.445 11.735v-1.956h-5.868v3.423h4.401c.81 0 1.467-.657 1.467-1.467zM7.932 26.512h3.912v-3.423H6.465v1.956c0 .81.657 1.467 1.467 1.467zM6.465 6.953v1.956h5.379V5.486H7.932c-.81 0-1.467.657-1.467 1.467zm17.604-1.467h-4.401v3.423h5.868V6.953c0-.81-.657-1.467-1.467-1.467zm.244-2.934a.733.733 0 1 1 0-1.466.733.733 0 0 1 0 1.466zM4.998 3.53h-.579a1.47 1.47 0 0 1-.888.888v.578a.49.49 0 0 1-.978 0v-.578a1.47 1.47 0 0 1-.888-.889h-.579a.49.49 0 0 1 0-.978h.579c.148-.412.473-.741.888-.888v-.578a.49.49 0 0 1 .978 0v.579c.415.147.74.476.888.888h.579a.49.49 0 0 1 0 .978zm-1.956-.978a.49.49 0 1 0 0 .978.49.49 0 0 0 0-.978zM1.819 23.578c.405 0 .734.329.734.733a.734.734 0 0 1-1.468 0c0-.405.328-.733.734-.733zM3.286 13.31a.733.733 0 1 1-.001 0zm7.824 15.647a.733.733 0 1 1 0 1.467.733.733 0 0 1 0-1.467z"/>
        </symbol>
        <symbol id="icon-close" viewBox="0 0 32 32">
            <path d="M.937.937a3.2 3.2 0 0 1 4.526 0l25.6 25.6a3.2 3.2 0 1 1-4.526 4.526l-25.6-25.6a3.2 3.2 0 0 1 0-4.526z"/>
            <path d="M31.063.937a3.2 3.2 0 0 1 0 4.526l-25.6 25.6a3.2 3.2 0 1 1-4.526-4.526l25.6-25.6a3.2 3.2 0 0 1 4.526 0z"/>
        </symbol>
        <symbol id="icon-cry" viewBox="0 0 32 32">
            <path d="M16 2.667c7.364 0 13.333 5.969 13.333 13.333a13.28 13.28 0 0 1-1.42 5.995 2.624 2.624 0 0 0-.531-1.033l-.164-.18-1.885-1.885-1.885 1.885-.156.169a2.665 2.665 0 0 0 .734 4.042c.457.258.981.373 1.504.334a13.302 13.302 0 0 1-9.531 4.006C8.635 29.333 2.666 23.364 2.666 16S8.635 2.667 15.999 2.667zM16 20c-1.84 0-3.507.747-4.712 1.951l-.221.232 1.26 1.147c1.053-.42 2.316-.663 3.673-.663 1.207 0 2.339.192 3.315.528l.359.133 1.26-1.147A6.667 6.667 0 0 0 16 20zm-4.667-6.667a2 2 0 1 0 .001 4.001 2 2 0 0 0-.001-4.001zm9.334 0a2 2 0 1 0 .001 4.001 2 2 0 0 0-.001-4.001z"/>
        </symbol>
        <symbol id="icon-cry-gray" viewBox="0 0 32 32">
            <path d="M16 2.667c7.364 0 13.333 5.969 13.333 13.333a13.28 13.28 0 0 1-1.42 5.995 2.624 2.624 0 0 0-.531-1.033l-.164-.18-1.885-1.885-1.885 1.885-.156.169a2.665 2.665 0 0 0 .734 4.042c.457.258.981.373 1.504.334a13.302 13.302 0 0 1-9.531 4.006C8.635 29.333 2.666 23.364 2.666 16S8.635 2.667 15.999 2.667zM16 20c-1.84 0-3.507.747-4.712 1.951l-.221.232 1.26 1.147c1.053-.42 2.316-.663 3.673-.663 1.207 0 2.339.192 3.315.528l.359.133 1.26-1.147A6.667 6.667 0 0 0 16 20zm-4.667-6.667a2 2 0 1 0 .001 4.001 2 2 0 0 0-.001-4.001zm9.334 0a2 2 0 1 0 .001 4.001 2 2 0 0 0-.001-4.001z"/>
        </symbol>
        <symbol id="icon-cube" viewBox="0 0 32 32">
            <path d="M13 4H4v9.01h2V6h7V4zM29.49 13.12l-9-5a.996.996 0 0 0-1 0l-9 5A.997.997 0 0 0 10 14v10a.993.993 0 0 0 .52.87l9 5A.998.998 0 0 0 20 30c.172-.003.34-.047.49-.13l9-5A1.007 1.007 0 0 0 30 24V14a1.003 1.003 0 0 0-.51-.88zM19 27.3l-7-3.89v-7.72l7 3.89v7.72zm1-9.45L13.06 14 20 10.14 26.94 14 20 17.85zm8 5.56-7 3.89v-7.72l7-3.89v7.72z"/>
        </symbol>
        <symbol id="icon-delivery" viewBox="0 0 32 32">
            <path d="M28.279 8.582 18.222 3.051a1 1 0 0 0-.97 0L7.195 8.582a1.007 1.007 0 0 0-.381 1.393 1 1 0 0 0 .381.369l9.536 5.245v10.78l-3.053-1.68-.97 1.761 4.544 2.499a1 1 0 0 0 .97 0l10.057-5.532a1.007 1.007 0 0 0 .521-.881V9.462a1.003 1.003 0 0 0-.521-.881zM17.737 5.08l7.97 4.383-7.97 4.383-7.97-4.383 7.97-4.383zm9.051 16.863-8.046 4.425v-10.78l8.046-4.425v10.78z"/>
            <path d="M8.686 16H.64v-2.011h8.046V16zM11.977 24.045H3.931v-2.012h8.046v2.012zM13.988 20.023H5.942v-2.011h8.046v2.011z"/>
        </symbol>
        <symbol id="icon-done" viewBox="0 0 45 32">
            <path stroke-linejoin="round" stroke-width="6.4" d="m3.2 12.8 14.4 14.4 24-24"/>
        </symbol>
        <symbol id="icon-download" viewBox="0 0 34 32">
            <path d="M16.663 22.574a.346.346 0 0 0 .433.1.353.353 0 0 0 .123-.1l4.941-6.252a.352.352 0 0 0-.278-.569h-3.269V.824a.354.354 0 0 0-.353-.353h-2.647a.354.354 0 0 0-.353.353v14.925H12a.352.352 0 0 0-.278.569l4.941 6.256zm16.425-1.545h-2.647a.354.354 0 0 0-.353.353v6.794H3.794v-6.794a.354.354 0 0 0-.353-.353H.794a.354.354 0 0 0-.353.353v8.735a1.41 1.41 0 0 0 1.412 1.412h30.176a1.41 1.41 0 0 0 1.412-1.412v-8.735a.354.354 0 0 0-.353-.353z"/>
        </symbol>
        <symbol id="icon-drop" viewBox="0 0 26 32">
            <path d="M13.019.615C4.819 7.615.711 13.661.711 18.769c0 7.662 5.846 12.615 12.308 12.615s12.308-4.954 12.308-12.615c0-5.108-4.108-11.154-12.308-18.154zm0 27.693c-5.154 0-9.231-3.954-9.231-9.538 0-3.6 3-8.369 9.231-14.062C19.25 10.4 22.25 15.154 22.25 18.77c0 5.585-4.077 9.538-9.231 9.538zm-6.415-9.231c.569 0 1.031.4 1.138.954.631 3.415 3.508 4.585 5.6 4.415a1.156 1.156 0 0 1 1.215 1.154c0 .615-.492 1.123-1.108 1.154-3.277.2-7.108-1.677-7.985-6.338a1.15 1.15 0 0 1 .26-.933 1.14 1.14 0 0 1 .395-.3c.152-.07.317-.106.484-.107z"/>
        </symbol>
        <symbol id="icon-eye" viewBox="0 0 46 32">
            <path d="M43.2 12.8C39.4 8 32 0 23 0S6.6 8 3 12.6c-.8 1-1.2 2.2-1.2 3.4s.4 2.4 1.2 3.2C6.6 24 14 32 23 32s16.4-8 20.2-12.8c1.4-1.8 1.4-4.6 0-6.4zm-3.2 4C37.4 20.2 30.6 28 23 28S8.6 20.2 6 16.8c-.2-.2-.2-.4-.2-.8s0-.6.2-.8C8.6 11.8 15.4 4 23 4s14.4 7.8 17 11.2c.4.4.4 1.2 0 1.6z"/>
            <path d="M23 8c-4.4 0-8 3.6-8 8s3.6 8 8 8 8-3.6 8-8-3.6-8-8-8zm0 12c-2.2 0-4-1.8-4-4s1.8-4 4-4 4 1.8 4 4-1.8 4-4 4z"/>
        </symbol>
        <symbol id="icon-fire" viewBox="0 0 26 32">
            <path d="m8.187 10.85-.003.001-.004.003.007-.004zm14.22-.267a1.741 1.741 0 0 0-.329-.25 1.427 1.427 0 0 0-2 .587 8.265 8.265 0 0 1-1.997 2.54A12.45 12.45 0 0 0 11.986.471a1.422 1.422 0 0 0-1.909.473 1.432 1.432 0 0 0-.223.68 10.025 10.025 0 0 1-3.53 7.06l-.329.267a12.194 12.194 0 0 0-2.84 2.661 12.83 12.83 0 0 0 5.223 19.869 1.432 1.432 0 0 0 1.8-.652 1.43 1.43 0 0 0 .097-1.117 9.942 9.942 0 0 1-.271-3.687 12.864 12.864 0 0 0 6.161 5.737c.322.144.686.163 1.021.054a12.85 12.85 0 0 0 5.22-21.232zm-5.579 18.33a9.941 9.941 0 0 1-5.11-6.289 12.64 12.64 0 0 1-.257-1.377 1.43 1.43 0 0 0-2.653-.52 12.796 12.796 0 0 0-1.721 6.74 9.972 9.972 0 0 1-3.785-6.698 9.972 9.972 0 0 1 2.105-7.4 9.38 9.38 0 0 1 2.231-2.083c.037-.024.073-.05.107-.079 0 0 .423-.35.437-.357a12.812 12.812 0 0 0 4.143-6.619 9.627 9.627 0 0 1 1.979 11.554 1.43 1.43 0 0 0 .862 2.033c.271.08.559.078.829-.007a11.217 11.217 0 0 0 5.517-3.84 9.989 9.989 0 0 1 1.262 8.599 9.997 9.997 0 0 1-5.946 6.339z"/>
        </symbol>
        <symbol id="icon-fire2" viewBox="0 0 34 32">
            <path d="M33.594 15.08h-1.595a.53.53 0 1 1 0-1.063h1.595a.532.532 0 1 1 0 1.063zm-.345-6.927-1.492.563a.527.527 0 0 1-.682-.319.548.548 0 0 1 .314-.694l1.494-.563c.276-.104.579.038.686.319s-.037.59-.314.694h-.006zm-3.233-5.648a.527.527 0 0 1-.752-.034.548.548 0 0 1 .024-.765l1.164-1.09c.213-.202.547-.186.75.032s.186.558-.027.76l-1.164 1.09.004.006zm-.674 12.577c0 9.725-8.667 16.477-12.226 16.477S4.89 24.855 4.89 15.081V5.513c0-1.074 5.473-3.721 12.226-3.721s12.226 2.647 12.226 3.721v9.569zm-1.063-9.037c0-.992-4.93-3.189-11.163-3.189S5.953 5.053 5.953 6.045v9.037c0 9.009 7.878 15.414 11.163 15.414s11.163-6.448 11.163-15.415V6.046zM17.116 28.901c-2.783 0-9.568-6.031-9.568-13.821V7.107c0-.856 4.114-2.658 9.568-2.658s9.568 1.802 9.568 2.658v7.973c0 7.751-6.786 13.821-9.568 13.821zm8.505-21.262c0-.499-3.471-2.126-8.505-2.126S8.611 7.169 8.611 7.639v7.442c0 7.18 6.631 12.758 8.505 12.758 1.897 0 8.505-5.612 8.505-12.758V7.639zm-8.505 14.352c-2.936 0-4.784-1.848-4.784-4.784 0-2.934 3.087-5.022 2.126-8.505 5.157 0 7.442 5.571 7.442 8.505 0 2.936-1.849 4.784-4.784 4.784zm0-1.074c.886 0 1.074-.713 1.074-1.594 0-1.668-.739-3.179-1.074-3.179-.399 1.662-1.074 2.299-1.074 3.179s.188 1.594 1.074 1.594zM15.698 9.765c0 4.17-2.303 5.197-2.303 7.508 0 1.579.652 2.69 1.804 3.246a3.526 3.526 0 0 1-.209-1.186c0-1.754 1.401-2.163 1.063-4.253 2.956 0 3.189 2.98 3.189 4.253 0 .402-.074.81-.209 1.186 1.152-.556 1.804-1.669 1.804-3.246 0-4.558-4.058-7.508-5.139-7.508v-.001zM4.643 2.24 3.469 1.149a.54.54 0 0 1-.025-.76.537.537 0 0 1 .759-.035l1.173 1.091c.216.2.228.542.024.761a.532.532 0 0 1-.755.032l-.003.002zM2.844 21.395l-1.493.562c-.275.104-.579-.038-.681-.318s.037-.59.313-.695l1.493-.564a.527.527 0 0 1 .681.319.541.541 0 0 1-.313.694v.001zM2.445 8.808.95 8.253a.533.533 0 0 1 .369-.998l1.495.555a.533.533 0 0 1-.369.998zm-.213 5.209a.532.532 0 1 1 0 1.063H.637a.53.53 0 1 1 0-1.063h1.595zm2.516 13.109c.214-.202.551-.186.752.034s.19.561-.024.761l-1.159 1.091a.527.527 0 0 1-.75-.034.542.542 0 0 1 .026-.761l1.164-1.091h-.009zm24.841.265 1.174 1.09a.54.54 0 0 1 .024.762.54.54 0 0 1-.76.034l-1.175-1.091a.539.539 0 0 1-.027-.761.532.532 0 0 1 .755-.033h.008zm2.198-7.101 1.495.556a.531.531 0 1 1-.369.997l-1.495-.553a.529.529 0 1 1 .369-.994v-.006z"/>
        </symbol>
        <symbol id="icon-hammer" viewBox="0 0 32 32">
            <path d="m3.229 13.538 4.351 4.351 9.791-9.791-4.352-4.351-9.789 9.791zm19.58 8.701-7.615-7.615-1.086 1.089 7.615 7.615 1.086-1.089zm2.177 2.177-1.088 1.088 2.719 2.718a.768.768 0 0 0 1.087-1.087l-2.718-2.719zM8.574 3.839l2.269-2.271a3.068 3.068 0 0 1 2.176-.901c.404 0 .804.08 1.178.234s.713.381.998.667l4.351 4.352a3.075 3.075 0 0 1 0 4.35l-2.175 2.175 12.511 12.511a3.848 3.848 0 0 1-2.72 6.567 3.844 3.844 0 0 1-2.72-1.127L11.931 17.885 9.756 20.06a3.077 3.077 0 0 1-4.35 0l-4.354-4.349a3.068 3.068 0 0 1-.901-2.176c0-.404.08-.804.234-1.178s.381-.713.667-.998l2.269-2.268a2.307 2.307 0 0 1 .451-2.628l2.177-2.174a2.304 2.304 0 0 1 2.628-.451l-.002-.002z"/>
        </symbol>
        <symbol id="icon-heart" viewBox="0 0 37 32">
            <path d="M31.355 30.384A1.616 1.616 0 0 1 29.739 32H7.113a1.616 1.616 0 0 1-1.616-1.616V15.839H.649L17.339.667a1.615 1.615 0 0 1 2.176 0l16.69 15.172h-4.849v14.545zm-12.93-4.849 5.429-5.429a3.625 3.625 0 0 0 1.065-2.572 3.639 3.639 0 0 0-5.029-3.36 3.646 3.646 0 0 0-1.18.788l-.286.286-.286-.286a3.625 3.625 0 0 0-2.572-1.065 3.639 3.639 0 0 0-3.36 5.029c.183.442.451.842.788 1.18l5.429 5.429z"/>
        </symbol>
        <symbol id="icon-house" viewBox="0 0 32 32">
            <path d="M25.331 2.666H11.998a2.67 2.67 0 0 0-2.667 2.667v7.448l-6.276 6.276a1.339 1.339 0 0 0-.289 1.453 1.33 1.33 0 0 0 1.232.823V28a1.33 1.33 0 0 0 1.334 1.333h21.333A1.333 1.333 0 0 0 27.999 28V5.333a2.67 2.67 0 0 0-2.667-2.667zm-10.667 24h-8v-7.448l4-4 4 4v7.448zm10.667 0h-8v-5.333a1.326 1.326 0 0 0 1.234-.823 1.339 1.339 0 0 0-.29-1.454l-6.276-6.276V5.332h13.333v21.333z"/>
            <path d="M14.668 8h2.667v2.667h-2.667V8zm5.334 0h2.667v2.667h-2.667V8zm0 5.375h2.667V16h-2.667v-2.625zm0 5.292h2.667v2.667h-2.667v-2.667zM9.335 20h2.667v2.667H9.335V20z"/>
        </symbol>
        <symbol id="icon-house2" viewBox="0 0 32 32">
            <path d="M25.331 2.666H11.998a2.67 2.67 0 0 0-2.667 2.667v7.448l-6.276 6.276a1.339 1.339 0 0 0-.289 1.453 1.33 1.33 0 0 0 1.232.823V28a1.33 1.33 0 0 0 1.334 1.333h21.333A1.333 1.333 0 0 0 27.998 28V5.333a2.67 2.67 0 0 0-2.667-2.667zm-10.666 24h-8v-7.448l4-4 4 4v7.448zm10.666 0h-8v-5.333a1.326 1.326 0 0 0 1.234-.823 1.33 1.33 0 0 0-.291-1.454l-6.276-6.276V5.332h13.333v21.333z"/>
            <path d="M14.668 8h2.667v2.667h-2.667V8zm5.334 0h2.667v2.667h-2.667V8zm0 5.375h2.667V16h-2.667v-2.625zm0 5.292h2.667v2.667h-2.667v-2.667zM9.335 20h2.667v2.667H9.335V20z"/>
        </symbol>
        <symbol id="icon-house3" viewBox="0 0 38 32">
            <path d="M31.817 16.941h5.569L18.824.235.262 16.941h5.569v14.85h3.712v-3.712h18.562v3.712h3.713v-14.85zM9.932 13.229h17.782l.39.353v3.36H9.542v-3.36l.39-.353zm13.662-3.713h-9.541l4.77-4.288 4.77 4.288zM9.543 24.366v-3.712h18.562v3.712H9.543z"/>
        </symbol>
        <symbol id="icon-like" viewBox="0 0 35 32">
            <path d="M1.6 12.8h4.8V32H1.6A1.6 1.6 0 0 1 0 30.4v-16a1.6 1.6 0 0 1 1.6-1.6zm8.469-2.069L20.309.491a.798.798 0 0 1 1.046-.075L22.72 1.44a2.407 2.407 0 0 1 .885 2.512L21.76 11.2H32a3.2 3.2 0 0 1 3.2 3.2v3.366c0 .418-.081.832-.24 1.219l-4.952 12.024a1.602 1.602 0 0 1-1.48.99H11.2a1.6 1.6 0 0 1-1.6-1.6V11.861a1.6 1.6 0 0 1 .469-1.131z"/>
        </symbol>
        <symbol id="icon-line" viewBox="0 0 37 32">
            <path d="M31.355 30.384A1.616 1.616 0 0 1 29.739 32H7.113a1.616 1.616 0 0 1-1.616-1.616V15.839H.649L17.339.667a1.615 1.615 0 0 1 2.176 0l16.69 15.172h-4.849v14.545zM11.153 19.071a7.273 7.273 0 1 0 14.546 0h-3.232a4.043 4.043 0 0 1-4.04 4.04 4.043 4.043 0 0 1-4.04-4.04h-3.232z"/>
        </symbol>
        <symbol id="icon-list" viewBox="0 0 39 32">
            <path d="M0 1.231h4.923v4.923H0V1.231zm0 12.307h4.923v4.923H0v-4.923zm0 12.308h4.923v4.923H0v-4.923zM39.385 6.154V1.231H9.903v4.923h29.482zM9.846 13.538h29.538v4.923H9.846v-4.923zm0 12.308h29.538v4.923H9.846v-4.923z"/>
        </symbol>
        <symbol id="icon-mail" viewBox="0 0 32 32">
            <path d="M26.667 5.333H8A2.67 2.67 0 0 0 5.333 8v6.667H8v-4l8.533 6.4a1.335 1.335 0 0 0 1.6 0l8.533-6.4v12H15.999v2.667h10.667a2.67 2.67 0 0 0 2.667-2.667V8a2.67 2.67 0 0 0-2.667-2.667zm-9.334 9L8.888 8h16.891l-8.445 6.333z"/>
            <path d="M2.667 16H12v2.667H2.667V16zm2.666 4h8v2.667h-8V20zm4 4h5.333v2.667H9.333V24z"/>
        </symbol>
        <symbol id="icon-message" viewBox="0 0 32 32">
            <path d="M6.667 24v5.021L15.036 24h6.297A2.67 2.67 0 0 0 24 21.333V10.666a2.67 2.67 0 0 0-2.667-2.667h-16a2.67 2.67 0 0 0-2.667 2.667v10.667A2.67 2.67 0 0 0 5.333 24h1.333zM5.333 10.667h16v10.667h-7.036l-4.964 2.979v-2.979h-4V10.667z"/>
            <path d="M26.667 2.667h-16A2.67 2.67 0 0 0 8 5.334h16a2.67 2.67 0 0 1 2.667 2.667v10.667a2.67 2.67 0 0 0 2.667-2.667V5.334a2.67 2.67 0 0 0-2.667-2.667z"/>
        </symbol>
        <symbol id="icon-minus" viewBox="0 0 139 32">
            <path d="M10.008 30.769V1.231H128.66v29.538H10.008z"/>
        </symbol>
        <symbol id="icon-oil" viewBox="0 0 31 32">
            <path d="M24.905 25.854c-3.786 3.788-7.2 6.609-9.082 5.57l-.052.051-.346-.346c-.001-.005-.004-.005-.006-.005v-.01L2.425 18.126c-.002 0-.005-.001-.006-.005-1.553-1.551.819-4.899 4.437-8.637v-5.41h.012a4.214 4.214 0 0 1 8.227-1.028c.865-.256 1.58-.182 2.082.322L30.529 16.72l-.05.051c1.058 1.898-1.779 5.297-5.57 9.088l-.004-.004zm-11.243 2.104c.135-.07.949-.246 1.405-.703.41-.409.037-.666-.351-1.053L10.5 21.985c-.388-.388-.967-.456-1.35-.073-.106.106-.967.355-1.11.424 2.056 2.097 3.377 3.377 5.622 5.621zM3.121 17.421l.005.004c.531.521 2.367-.401 4.641-2.196-1.18-.242-3.066-.446-4.309.306-.478.923-.623 1.6-.337 1.887zm5.271-8.079c-1.748 1.748-3.191 3.476-4.149 4.897 1.631-.509 3.644-.114 4.575.124a41.92 41.92 0 0 0 2.385-2.211 39.78 39.78 0 0 0 3.106-3.472V4.56c-1.56.873-3.724 2.59-5.917 4.782zm2.688-8.249a3.22 3.22 0 0 0-3.205 2.981H7.85v4.405c2.324-2.309 4.543-4.189 6.313-5.056a3.215 3.215 0 0 0-3.083-2.331zm5.393 2.979c-.206-.206-.616-.186-1.17.016v3.241c1.099-1.615 1.585-2.847 1.17-3.26v.002zm4.919 4.914c-.358.751-1.371 2.075-2.107 2.81a.998.998 0 0 0 0 1.405l5.272 5.27c.388.388.835-.128 1.053-.351.691-.67 1.252-2.407 1.555-3.35-3.339-3.388-4.422-4.461-5.769-5.785l-.005.001zm8.084 8.085v-.001l-1.093-1.09.005-.001-.407-.409c-.169.796-.652 2.245-2.012 3.604-.494.492-1.526.581-2.108 0l-5.629-5.624a1.499 1.499 0 0 1 0-2.108c1.112-1.111 1.887-2.565 2.261-3.359l-2.857-2.856c-.229 1.108-1.09 2.46-2.331 3.962v6.314a.497.497 0 1 1-.994 0v-5.164c-.729.81-1.54 1.652-2.404 2.516-2.955 2.955-5.679 5.314-7.63 5.72l2.862 2.862c.571-.152 1.34-.239 1.957-.857.783-.497 1.175-.231 1.757.351l4.919 4.919c.581.581.846 1.262.351 1.756-.394.393-.992.999-1.545 1.267l1.545 1.545.001-.005.003.005c.783.766 4.395-1.59 8.078-5.272 3.687-3.687 6.042-7.304 5.267-8.082l.006.006zm-16.438.678a2.48 2.48 0 0 1 0-3.513c.084-.083.177-.149.268-.219v.922l.446.01a1.48 1.48 0 0 0 0 2.099c.581.58 1.526.58 2.107 0a1.475 1.475 0 0 0 .04-2.051l.398.008v-.986c.091.069.184.134.266.217a2.483 2.483 0 0 1 0 3.518 2.498 2.498 0 0 1-3.523 0l-.001-.005zM5.366 23.95a2.485 2.485 0 1 1-4.968 0c0-1.372 2.484-3.975 2.484-3.975s2.484 2.603 2.484 3.975zm-2.484 1.491c.823 0 1.491-.685 1.491-1.529s-1.491-2.446-1.491-2.446-1.491 1.602-1.491 2.446c0 .844.666 1.529 1.49 1.529h.001z"/>
        </symbol>
        <symbol id="icon-panel" viewBox="0 0 32 32">
            <path d="M27.938 0H4.063a.938.938 0 0 0-.938.938v30.125c0 .518.42.938.938.938h23.875c.518 0 .938-.42.938-.938V.938A.938.938 0 0 0 27.938 0zM27 30.125H5V1.875h22v28.25z"/>
            <path d="M24.188 3.75H7.813a.938.938 0 0 0-.938.938v22.625c0 .518.42.938.938.938h16.375c.518 0 .937-.42.937-.938V4.688a.938.938 0 0 0-.937-.938zm-9.126 22.625H8.75v-5.688h6.312v5.688zm0-7.563H8.75v-5.625h6.312v5.625zm0-7.5H8.75V5.625h6.312v5.687zm8.188 15.063h-6.312v-5.688h6.312v5.688zm0-7.563h-6.312v-5.625h6.312v5.625zm0-7.5h-6.312V5.625h6.312v5.687z"/>
        </symbol>
        <symbol id="icon-path" viewBox="0 0 32 32">
            <path d="M31.062 16.938a.938.938 0 0 0 0-1.876h-2.25V11h2.25a.938.938 0 0 0 0-1.876h-2.25v-5a.938.938 0 0 0-.937-.938h-5V.936a.938.938 0 0 0-1.876 0v2.25h-4.062V.936a.938.938 0 0 0-1.876 0v2.25h-4.062V.936a.938.938 0 0 0-1.876 0v2.25h-5a.938.938 0 0 0-.938.938v5H.935a.938.938 0 0 0 0 1.876h2.25v4.062H.935a.938.938 0 0 0 0 1.876h2.25V21H.935a.938.938 0 0 0 0 1.876h2.25v5c0 .518.42.937.938.937h5v2.25a.938.938 0 0 0 1.876 0v-2.25h4.062v2.25a.938.938 0 0 0 1.876 0v-2.25h4.062v2.25a.938.938 0 0 0 1.876 0v-2.25h5c.518 0 .937-.42.937-.937v-5h2.25a.938.938 0 0 0 0-1.876h-2.25v-4.062h2.25zm-4.124-7.813h-2.25a.938.938 0 0 0 0 1.876h2.25v4.062h-2.25a.938.938 0 0 0 0 1.876h2.25v4.062h-2.25a.938.938 0 0 0 0 1.876h2.25v4.062h-4.062v-2.25a.938.938 0 0 0-1.876 0v2.25h-4.062v-2.25a.938.938 0 0 0-1.876 0v2.25H11v-2.25a.938.938 0 0 0-1.876 0v2.25H5.062v-4.062h2.25a.937.937 0 1 0-.001-1.876h-2.25v-4.062h2.25a.938.938 0 0 0 0-1.876h-2.25v-4.062h2.25a.938.938 0 0 0 0-1.876h-2.25V5.063h4.062v2.25a.937.937 0 1 0 1.876-.001v-2.25h4.062v2.25a.938.938 0 0 0 1.876 0v-2.25h4.062v2.25a.938.938 0 0 0 1.876 0v-2.25h4.062v4.062z"/>
        </symbol>
        <symbol id="icon-phone" viewBox="0 0 32 32">
            <path d="M29.989 26.08a1.278 1.278 0 0 1-.278.415l-4.339 4.339a2.841 2.841 0 0 1-2.022.844h-.042c-2.252-.037-10.059-.635-16.205-6.781C.954 18.748.356 10.938.32 8.69a2.88 2.88 0 0 1 .844-2.065l4.334-4.336a1.326 1.326 0 0 1 1.816 0l6.397 6.397a1.294 1.294 0 0 1 .376.905 1.272 1.272 0 0 1-.376.905l-2.685 2.685.054.183c.354 1.188 1.172 3.463 2.631 4.922s3.734 2.277 4.922 2.631l.183.054 2.685-2.685a1.294 1.294 0 0 1 .905-.376 1.268 1.268 0 0 1 .905.376l6.4 6.4a1.267 1.267 0 0 1 .375.905c0 .168-.033.335-.097.49zM10.998 9.59 6.408 5l-3.53 3.53.002.136c.032 1.986.559 8.946 6.033 14.419 5.456 5.457 12.391 5.999 14.418 6.033l.136.002 3.532-3.53-4.59-4.59-2.296 2.296a1.272 1.272 0 0 1-1.167.346 17.658 17.658 0 0 1-2.622-.82c-1.427-.564-3.136-1.443-4.42-2.727s-2.163-2.993-2.727-4.42a17.65 17.65 0 0 1-.82-2.623 1.269 1.269 0 0 1 .347-1.166l2.295-2.295zM17.902 2.884V.323c7.776.156 13.616 5.99 13.773 13.755h-2.561c-.15-6.395-4.808-11.045-11.212-11.195zm14.096 11.514a15.716 15.716 0 0 0-.001 0zM25.595 14.08v.02-.02zm-2.288-5.389c1.223 1.223 1.911 3.024 1.968 5.389h-2.561c-.044-1.561-.416-2.756-1.228-3.568s-2.007-1.184-3.568-1.228V6.723c2.365.057 4.165.744 5.389 1.968z"/>
        </symbol>
        <symbol id="icon-phone-white" viewBox="0 0 32 32">
            <path d="M29.989 26.08a1.278 1.278 0 0 1-.278.415l-4.339 4.339a2.841 2.841 0 0 1-2.022.844h-.042c-2.252-.037-10.059-.635-16.205-6.781C.954 18.748.356 10.938.32 8.69a2.88 2.88 0 0 1 .844-2.065l4.334-4.336a1.326 1.326 0 0 1 1.816 0l6.397 6.397a1.294 1.294 0 0 1 .376.905 1.272 1.272 0 0 1-.376.905l-2.685 2.685.054.183c.354 1.188 1.172 3.463 2.631 4.922s3.734 2.277 4.922 2.631l.183.054 2.685-2.685a1.294 1.294 0 0 1 .905-.376 1.268 1.268 0 0 1 .905.376l6.4 6.4a1.267 1.267 0 0 1 .375.905c0 .168-.033.335-.097.49zM10.998 9.59 6.408 5l-3.53 3.53.002.136c.032 1.986.559 8.946 6.033 14.419 5.456 5.457 12.391 5.999 14.418 6.033l.136.002 3.532-3.53-4.59-4.59-2.296 2.296a1.272 1.272 0 0 1-1.167.346 17.658 17.658 0 0 1-2.622-.82c-1.427-.564-3.136-1.443-4.42-2.727s-2.163-2.993-2.727-4.42a17.65 17.65 0 0 1-.82-2.623 1.269 1.269 0 0 1 .347-1.166l2.295-2.295zM17.902 2.884V.323c7.776.156 13.616 5.99 13.773 13.755h-2.561c-.15-6.395-4.808-11.045-11.212-11.195zm14.096 11.514a15.716 15.716 0 0 0-.001 0zM25.595 14.08v.02-.02zm-2.288-5.389c1.223 1.223 1.911 3.024 1.968 5.389h-2.561c-.044-1.561-.416-2.756-1.228-3.568s-2.007-1.184-3.568-1.228V6.723c2.365.057 4.165.744 5.389 1.968z"/>
        </symbol>
        <symbol id="icon-photo" viewBox="0 0 36 32">
            <path d="M21.547 3.556 24.8 7.112H32v21.333H3.556V7.112h7.2l3.253-3.556h7.538zM23.111 0H12.444L9.191 3.556H3.555A3.566 3.566 0 0 0-.001 7.112v21.333c0 1.956 1.6 3.556 3.556 3.556h28.444c1.956 0 3.556-1.6 3.556-3.556V7.112c0-1.956-1.6-3.556-3.556-3.556h-5.636L23.11 0zm-5.333 12.444c2.933 0 5.333 2.4 5.333 5.333s-2.4 5.333-5.333 5.333c-2.933 0-5.333-2.4-5.333-5.333s2.4-5.333 5.333-5.333zm0-3.555c-4.907 0-8.889 3.982-8.889 8.889s3.982 8.889 8.889 8.889c4.907 0 8.889-3.982 8.889-8.889s-3.982-8.889-8.889-8.889z"/>
        </symbol>
        <symbol id="icon-pipes" viewBox="0 0 32 32">
            <path stroke-width=".32" d="M32 26.486h-1.28V14.831c0-.825-.319-1.616-.889-2.2s-1.343-.913-2.151-.913h-7.04v-1.477h-3.2v9.182h3.2v-1.477h4v8.542H23.2v3.274h8.96v-3.274H32zm-5.76-10.338h-5.6v-2.634h7.04c.338 0 .663.138.904.384s.376.582.376.933v11.655H26.4V16.148h-.16zM11.52 10.178h-.16v1.477h-4V3.114H8.8V-.16H-.16v3.274h1.44v11.655c0 .825.319 1.616.889 2.2s1.343.913 2.151.913h7.04v1.477h3.2v-9.182h-3.04zm-5.76 3.274h5.6v2.634H4.32c-.338 0-.663-.138-.904-.384s-.376-.582-.376-.933V3.114H5.6v10.338h.16z"/>
        </symbol>
        <symbol id="icon-play" viewBox="0 0 32 32">
            <path d="M32 16c0 8.837-7.163 16-16 16S0 24.837 0 16 7.163 0 16 0s16 7.163 16 16z"/>
            <path d="m21.073 16-7.61 4.393v-8.787l7.61 4.393z"/>
        </symbol>
        <symbol id="icon-play-white" viewBox="0 0 32 32">
            <path d="M32 16c0 8.837-7.163 16-16 16S0 24.837 0 16 7.163 0 16 0s16 7.163 16 16z"/>
            <path d="m21.073 16-7.61 4.393v-8.787l7.61 4.393z"/>
        </symbol>
        <symbol id="icon-plus" viewBox="0 0 32 32">
            <path d="M12.678 30.315V19.308H1.625v-6.68h11.053V1.685h6.708v10.943h10.989v6.68H19.386v11.007h-6.708z"/>
        </symbol>
        <symbol id="icon-point" viewBox="0 0 32 32">
            <path d="M16 2.667a10.667 10.667 0 0 0-10.667 10.56c0 7.307 9.4 15.44 9.8 15.787a1.33 1.33 0 0 0 1.734 0c.467-.347 9.8-8.48 9.8-15.787A10.667 10.667 0 0 0 16 2.667zM16 26.2c-2.227-2.12-8-8-8-12.973a8 8 0 1 1 16 0c0 4.933-5.773 10.853-8 12.973z"/>
            <path d="M16 8a4.66 4.66 0 0 0-4.578 5.576 4.668 4.668 0 0 0 6.362 3.401 4.665 4.665 0 0 0-1.786-8.979zm0 6.667a1.997 1.997 0 0 1-1.848-1.235 2.006 2.006 0 0 1 .433-2.18 1.997 1.997 0 0 1 2.179-.433 2 2 0 0 1-.765 3.848z"/>
        </symbol>
        <symbol id="icon-question" viewBox="0 0 32 32">
            <path d="M32 16A15.997 15.997 0 0 0 16 0 16.003 16.003 0 0 0 0 16a16.003 16.003 0 0 0 16 16 16.003 16.003 0 0 0 16-16zm-16-6a1.998 1.998 0 0 0-1.734 1 2.015 2.015 0 0 1-2.008 1.037A1.998 1.998 0 0 1 10.804 9a5.996 5.996 0 0 1 6.749-2.795 5.999 5.999 0 0 1 3.346 9.261A6.001 6.001 0 0 1 18 17.66V18a2 2 0 0 1-4 0v-2a2 2 0 0 1 2-2 2 2 0 0 0 0-4zm0 16a2 2 0 1 1 .001-4.001A2 2 0 0 1 16 26z"/>
        </symbol>
        <symbol id="icon-quote" viewBox="0 0 38 32">
            <path d="M16.591.172C9.786.65.005 1.737 0 15.063V31.83h15.184V13.89h-5.042c-.319-4.79 3.625-6.027 7.915-6.977L16.591.171zm20.343 0C30.129.65 20.348 1.737 20.343 15.063V31.83h15.184V13.89h-5.042C30.166 9.1 34.11 7.863 38.4 6.913L36.934.171z"/>
        </symbol>
        <symbol id="icon-rocks" viewBox="0 0 32 32">
            <path d="M8.385 8.043v.114a1.818 1.818 0 0 0 1.814 1.315h1.857c.198.005.391.064.557.171 1.329.914 2.729 1.886 4.4 3.071.387.277.853.423 1.329.414h2.8a1.813 1.813 0 0 0 1.943-1.929V7.156a2.141 2.141 0 0 0-.729-1.671l-2.143-1.971L17.227.757c-.24-.2-.498-.377-.771-.529l-.3-.229H7.87a1.782 1.782 0 0 0-1.341 1.679c-.007.257.041.513.142.75.471 1.857 1.086 3.657 1.714 5.614zm13.043 3.114c0 .357 0 .386-.386.386h-2.614a1.217 1.217 0 0 1-.471-.143c-1.572-1.086-3.086-2.143-4.286-3.043a2.417 2.417 0 0 0-1.429-.486h-1.986c-.257-.014-.257-.057-.257-.229a323.3 323.3 0 0 0-.886-2.857l-.886-2.857v-.286a.382.382 0 0 1 .257-.071h7.128c.139.01.273.06.386.143l2.857 2.6.386.357 2.114 1.943a.607.607 0 0 1 .072.529v4.014zM11.2 25.543c-.143-.414-.3-.829-.457-1.243l-.329-.886a1.832 1.832 0 0 0-1.343-1.186h-.2l-1.857-.471c-.286-.073-.586-.08-.875-.02s-.562.184-.796.363l-1.143.871-3.157 2.3A2.715 2.715 0 0 0 .014 26.6v4a1.872 1.872 0 0 0 2.114 1.428h4.686a1.793 1.793 0 0 0 1.585-.843l2.6-3.929a1.803 1.803 0 0 0 .2-1.715zm-1.586.872-1.971 2.957-.5.843a.351.351 0 0 1-.329.157H1.943c-.286 0-.329 0-.329-.329v-2.971a.41.41 0 0 1 .158-.3 234.322 234.322 0 0 1 4.514-3.4.665.665 0 0 1 .343 0c.4.071.786.172 1.229.286l.743.186a.377.377 0 0 1 .286.272c.214.572.443 1.2.743 1.957a.364.364 0 0 1-.014.343zM0 22.215a1.741 1.741 0 0 0 1.129 1.272c.197.072.405.111.614.114a1.93 1.93 0 0 0 1.229-.457c.4-.329.814-.628 1.186-.9l.557-.414a1.818 1.818 0 0 0 .728-2c-.343-1.428-.671-3-1.014-4.5l-.143-.743a107.979 107.979 0 0 0-.714-3.157 1.877 1.877 0 0 0-.871-1.186 1.797 1.797 0 0 0-1.414-.242 1.857 1.857 0 0 0-1.286 1.429v10.786zm1.814-10.643a.258.258 0 0 1 .171.2c.129.529.243 1.071.386 1.643l.7 3.129c.271 1.214.557 2.414.829 3.629a.37.37 0 0 1-.157.472l-1.729 1.286c-.171.143-.229.129-.286.1s-.114 0-.114-.314v-9.815a.594.594 0 0 1 .071-.286c.013-.006.028-.01.043-.01s.029.003.043.01l.043-.043zM2.143 9.471h3.571c.161.021.324.021.486 0a1.78 1.78 0 0 0 1.243-.9c.229-.441.276-.954.129-1.429-.214-.714-.443-1.429-.671-2.157-.329-1.014-.7-2.171-1.043-3.3A2.135 2.135 0 0 0 4.43-.001h-3A1.97 1.97 0 0 0 .002 1.427V8.07a1.86 1.86 0 0 0 2.143 1.4zm-.529-5.714V1.928c0-.286 0-.314.314-.314h1.986c.2 0 .271 0 .314.229l1.071 3.386.729 2.286v.257a.346.346 0 0 1-.257 0H1.914c-.243 0-.3 0-.3-.314v-3.7zM21.799 4.286l.814.743c.325.317.76.497 1.214.5.154.008.308-.007.457-.043l.471-.143c1.714-.486 3.843-1.1 5.9-1.729a1.811 1.811 0 0 0 1.286-2.186 1.864 1.864 0 0 0-1.429-1.429h-9.086a1.844 1.844 0 0 0-.829 3.2l1.2 1.086zm-.229-2.572c0-.1.086-.129.386-.129h8.043c.329 0 .343.086.357.186s0 .214-.286.314l-.514.157-5.486 1.657a.448.448 0 0 1-.472-.1c-.486-.486-1-.943-1.428-1.429l-.357-.329c-.286-.171-.271-.214-.243-.3v-.029zM23.714 13.614h-5.143a1.748 1.748 0 0 0-1.429.672L11.171 21.5a1.744 1.744 0 0 0-.3 1.814l.157.428c.157.443.329.871.486 1.3a1.788 1.788 0 0 0 1.758 1.186h4.429a1.88 1.88 0 0 0 1.428-.586 483.38 483.38 0 0 0 4.657-4.671c.243-.239.425-.533.529-.857.414-1.329.786-2.7 1.157-4.014v-.143a1.886 1.886 0 0 0-.257-1.671 1.915 1.915 0 0 0-1.5-.672zm-7.629 11h-2.757c-.186 0-.257 0-.314-.2a25.796 25.796 0 0 0-.586-1.571.329.329 0 0 1 .072-.386l5.786-7.029a.456.456 0 0 1 .4-.2H23.6a.594.594 0 0 1 .329 0 .607.607 0 0 1 0 .343l-.286.971c-.243.871-.529 1.9-.829 2.857a1.006 1.006 0 0 1-.214.386c-1.628 1.643-3.129 3.129-4.557 4.543a.702.702 0 0 1-.4.157c-.5.143-1.114.129-1.557.129z"/>
            <path d="M16.387 13.543a1.89 1.89 0 0 0-.814-1.272l-1.428-.971-1.286-.971A2.144 2.144 0 0 0 11.545 10H6.102a1.89 1.89 0 0 0-1.529.672 1.844 1.844 0 0 0-.286 1.529c.586 2.586 1.186 5.243 1.757 7.729a1.726 1.726 0 0 0 1.329 1.429l1.686.428c.161.021.324.021.486 0a1.808 1.808 0 0 0 1.428-.7c1.629-1.986 3.329-4.029 5.014-6.1a1.819 1.819 0 0 0 .4-1.443zm-1.6.2s0 .086-.171.286l-2.071 2.514-2.857 3.429c-.143.171-.243.214-.429.157l-1.429-.371a.258.258 0 0 1-.243-.257c-.557-2.429-1.1-4.857-1.714-7.543v-.314s0-.071.343-.071h5.214a.839.839 0 0 1 .457.129l1.843 1.271.771.543c.257.157.286.229.286.229zM28.973 25.628 28.345 25l-2.629-2.6a1.789 1.789 0 0 0-2.686 0l-3.6 3.6a1.923 1.923 0 0 0-.571 1.429v2.572a1.811 1.811 0 0 0 .525 1.428 1.793 1.793 0 0 0 1.432.515h9.3a1.77 1.77 0 0 0 1.371-.525 1.797 1.797 0 0 0 .514-1.375v-.6c.011-.265-.034-.529-.132-.776s-.248-.469-.439-.653l-2.457-2.386zm1.428 4c0 .743 0 .743-.771.743h-8.771c-.372 0-.386 0-.386-.4v-2.5a.628.628 0 0 1 .157-.4l2.714-2.729.786-.786c.1-.1.171-.157.229-.157s.129 0 .243.171l5.557 5.543a.598.598 0 0 1 .228.515h.014zM25.515 21.515l1.971 1.971 1.314 1.329a1.958 1.958 0 0 0 1.428.643c.236.001.47-.048.686-.143a1.786 1.786 0 0 0 1.129-1.786V15.3a1.924 1.924 0 0 0-.614-1.5 1.945 1.945 0 0 0-1.571-.457h-.343l-1.428.129a1.815 1.815 0 0 0-1.714 1.429l-.414 1.429c-.3 1.057-.6 2.1-.9 3.114a1.885 1.885 0 0 0 .457 2.071zm4.6-6.572h.2c.014 0 0 0 0 .343v8.157c0 .257 0 .3-.1.329s-.143 0-.329-.157l-1.1-1.1c-.657-.671-1.428-1.429-2.2-2.2a.358.358 0 0 1-.115-.428c.429-1.514.871-3.029 1.3-4.543 0-.2.129-.271.343-.271l1.428-.129h.572zM31.272 4.701a1.862 1.862 0 0 0-1.658-.243l-4.643 1.371A1.784 1.784 0 0 0 23.543 7.7v3.557a1.995 1.995 0 0 0 .572 1.428c.343.313.793.482 1.257.471h.1c1.614 0 3.243-.186 4.843-.329a1.77 1.77 0 0 0 1.249-.59c.158-.178.277-.385.353-.61s.104-.463.084-.7V6.241a1.888 1.888 0 0 0-.729-1.543zm-.885 6.2c0 .271 0 .3-.243.314l-4.514.3h-.343c-.015 0 0 0 0-.357V7.715c0-.271 0-.271.271-.357l4.443-1.343h.3c.06.093.085.204.072.314V10.9h.014zM16.529 26.7h-3.571a1.752 1.752 0 0 0-1.572.843l-.957 1.428-.114.157a1.83 1.83 0 0 0-.114 1.914 1.798 1.798 0 0 0 1.672.943h4.7a1.782 1.782 0 0 0 1.814-1.815v-1.6a1.79 1.79 0 0 0-.521-1.34 1.801 1.801 0 0 0-1.337-.531zm-2.357 1.614h2.314c.243 0 .286 0 .286.286v1.428c0 .329 0 .329-.329.329H11.928a.458.458 0 0 1-.314-.143s0-.143.086-.229c.343-.514.7-1.043 1-1.514.03-.052.074-.095.127-.122s.113-.04.173-.035h1.171z"/>
        </symbol>
        <symbol id="icon-ruler" viewBox="0 0 32 32">
            <path d="m29.205 21.625-6.29-6.29 6.289-6.289a1.99 1.99 0 0 0 .432-2.164c-.1-.241-.246-.46-.43-.644l-.001-.002-3.555-3.554a1.975 1.975 0 0 0-1.404-.582 1.982 1.982 0 0 0-1.404.581l-6.29 6.29-6.29-6.29a1.992 1.992 0 0 0-2.808 0L2.567 7.567a1.989 1.989 0 0 0 0 2.808l6.289 6.289-6.87 6.872V29.9H8.35l6.871-6.87 6.29 6.292a1.992 1.992 0 0 0 2.81 0l4.885-4.887a1.989 1.989 0 0 0 0-2.808zM24.239 4.082l3.564 3.564-6.288 6.289-3.564-3.564 6.288-6.289zM7.943 27.914H3.972v-3.565l6.285-6.284 3.65 3.652-5.963 6.197zm14.972.004L3.971 8.97l4.887-4.885 3.761 3.76-2.236 2.237 1.405 1.404 2.235-2.236 4.101 4.101-2.238 2.234 1.406 1.404 2.236-2.236 4.1 4.101-2.236 2.235 1.404 1.405 2.236-2.235 2.77 2.771-4.887 4.889z"/>
        </symbol>
        <symbol id="icon-ruler2" viewBox="0 0 32 32">
            <path d="M1.6 1.6v28.8h28.8V19.6h-18v-18H1.6zM4 4h6v2.4H6.4v2.4H10v2.4H6.4v2.4H10V16H6.4v2.4H10v1.903l-6 6V4zm7.697 18H13.6v3.6H16V22h2.4v3.6h2.4V22h2.4v3.6h2.4V22H28v6H5.697l6-6z"/>
        </symbol>
        <symbol id="icon-saw" viewBox="0 0 27 32">
            <path d="M20.835 1.058c-.434.425-.868.842-1.276 1.284-.187.196-.374.264-.638.264-5.869-.009-11.737-.009-17.606-.009-.561 0-.714.153-.714.714v27.991c0 .536.162.697.706.697h18.21c.536 0 .697-.17.697-.706V14.928c0-.119.008-.289.085-.34.238-.17.264-.391.255-.646-.009-.289-.017-.57-.017-.859v-1.25c.051-.017.068-.026.094-.026.595.009 1.191.009 1.786.026.902.017.953-.043.936-.953-.009-.621 0-1.242 0-1.854h2.194c.451 0 .638-.179.629-.638-.017-.867-.026-1.744-.059-2.611a.916.916 0 0 0-.221-.536 636.084 636.084 0 0 0-4.185-4.193c-.306-.306-.561-.306-.876.008zM7.482 30.962V25.833c0-.391-.213-.612-.544-.595-.298.017-.476.23-.476.604v5.112H4.855V29.67c0-.51-.17-.766-.51-.774s-.51.238-.51.757v1.293H1.641V3.627h2.977v4.261c0 .085-.008.17 0 .255.026.306.23.51.502.519.289.009.51-.213.51-.536.008-.978 0-1.956 0-2.926V3.618h4.227c.009.085.017.17.017.255 0 2.62 0 5.239-.009 7.859a.715.715 0 0 1-.187.434c-.884.902-1.778 1.795-2.671 2.688-.374.374-.374.621 0 .995.893.893 1.786 1.786 2.671 2.688a.628.628 0 0 1 .187.4c.009 3.93.009 7.85.009 11.78 0 .059-.009.128-.017.23-.782.017-1.565.017-2.373.017zm6.43-27.013v3.759c0 .119-.017.272-.085.349-.944.961-1.888 1.914-2.9 2.926v-7.34h2.977c0 .102.009.204.009.306zm1.029-.306h3.164c-1.038 1.038-2.109 2.101-3.164 3.155V3.643zm4.236 10.989v16.322h-2.398v-5.171c-.017-.332-.204-.544-.493-.544-.306-.008-.519.204-.519.553-.009 1.276 0 2.543 0 3.819v1.352H14.16v-1.174c0-.136.008-.281-.009-.417a.522.522 0 0 0-.51-.476c-.272 0-.485.213-.493.519-.008.434 0 .868-.008 1.301 0 .085-.017.162-.026.247h-2.169V19.77c.4.595.978.434 1.497.451.612.026 1.233.026 1.846.043.493.009.663-.17.663-.663v-2.143c.578 0 1.165-.009 1.752 0 1.012.026 1.055-.009 1.038-1.012l-.026-1.752c0-.009.009-.017.017-.06h1.446zm2.33-12.358c1.131 1.131 2.271 2.262 3.394 3.402a.8.8 0 0 1 .204.493c.026.595.009 1.182.009 1.812-.272 0-.553.008-.833 0-.459-.008-.91-.034-1.369-.034-.434-.008-.612.187-.621.621v2.203c-.689 0-1.361.008-2.041 0-.621-.009-.765.128-.757.757.008.68 0 1.352 0 2.05-.587 0-1.191.009-1.795 0-.987-.026-1.046.034-1.021 1.029.008.595 0 1.182 0 1.795h-1.54c-.213 0-.425-.009-.638-.009-.459 0-.638.179-.638.638.008.612.026 1.233.043 1.846v.323c-.697 0-1.369 0-2.05-.009-.059 0-.136-.06-.187-.102l-3.666-3.666c-.008-.008-.008-.017 0 0 4.431-4.431 8.863-8.854 13.311-13.302.043.017.119.085.196.153z"/>
            <path stroke-width=".656" d="M20.835 1.058c-.434.425-.868.842-1.276 1.284-.187.196-.374.264-.638.264-5.869-.009-11.737-.009-17.606-.009-.561 0-.714.153-.714.714v27.991c0 .536.162.697.706.697h18.21c.536 0 .697-.17.697-.706V14.928c0-.119.008-.289.085-.34.238-.17.264-.391.255-.646-.009-.289-.017-.57-.017-.859v-1.25c.051-.017.068-.026.094-.026.595.009 1.191.009 1.786.026.902.017.953-.043.936-.953-.009-.621 0-1.242 0-1.854h2.194c.451 0 .638-.179.629-.638-.017-.867-.026-1.744-.059-2.611a.916.916 0 0 0-.221-.536 636.084 636.084 0 0 0-4.185-4.193c-.306-.306-.561-.306-.876.008zM7.482 30.962V25.833c0-.391-.213-.612-.544-.595-.298.017-.476.23-.476.604v5.112H4.855V29.67c0-.51-.17-.766-.51-.774s-.51.238-.51.757v1.293H1.641V3.627h2.977v4.261c0 .085-.008.17 0 .255.026.306.23.51.502.519.289.009.51-.213.51-.536.008-.978 0-1.956 0-2.926V3.618h4.227c.009.085.017.17.017.255 0 2.62 0 5.239-.009 7.859a.715.715 0 0 1-.187.434c-.884.902-1.778 1.795-2.671 2.688-.374.374-.374.621 0 .995.893.893 1.786 1.786 2.671 2.688a.628.628 0 0 1 .187.4c.009 3.93.009 7.85.009 11.78 0 .059-.009.128-.017.23-.782.017-1.565.017-2.373.017zm6.43-27.013v3.759c0 .119-.017.272-.085.349-.944.961-1.888 1.914-2.9 2.926v-7.34h2.977c0 .102.009.204.009.306zm1.029-.306h3.164c-1.038 1.038-2.109 2.101-3.164 3.155V3.643zm4.236 10.989v16.322h-2.398v-5.171c-.017-.332-.204-.544-.493-.544-.306-.008-.519.204-.519.553-.009 1.276 0 2.543 0 3.819v1.352H14.16v-1.174c0-.136.008-.281-.009-.417a.522.522 0 0 0-.51-.476c-.272 0-.485.213-.493.519-.008.434 0 .868-.008 1.301 0 .085-.017.162-.026.247h-2.169V19.77c.4.595.978.434 1.497.451.612.026 1.233.026 1.846.043.493.009.663-.17.663-.663v-2.143c.578 0 1.165-.009 1.752 0 1.012.026 1.055-.009 1.038-1.012l-.026-1.752c0-.009.009-.017.017-.06h1.446zm2.33-12.358c1.131 1.131 2.271 2.262 3.394 3.402a.8.8 0 0 1 .204.493c.026.595.009 1.182.009 1.812-.272 0-.553.008-.833 0-.459-.008-.91-.034-1.369-.034-.434-.008-.612.187-.621.621v2.203c-.689 0-1.361.008-2.041 0-.621-.009-.765.128-.757.757.008.68 0 1.352 0 2.05-.587 0-1.191.009-1.795 0-.987-.026-1.046.034-1.021 1.029.008.595 0 1.182 0 1.795h-1.54c-.213 0-.425-.009-.638-.009-.459 0-.638.179-.638.638.008.612.026 1.233.043 1.846v.323c-.697 0-1.369 0-2.05-.009-.059 0-.136-.06-.187-.102l-3.666-3.666c-.008-.008-.008-.017 0 0 4.431-4.431 8.863-8.854 13.311-13.302.043.017.119.085.196.153z"/>
            <path d="M8.009 15.406c0-.009 0 0 0 0zM8.337 15.406h-.656.656-.656.656z"/>
        </symbol>
        <symbol id="icon-scope" viewBox="0 0 28 32">
            <path d="m15.729 1.543 5.014 8.685c.426.736.173 1.68-.565 2.106l-2.006 1.157 1.544 2.672-2.672 1.543-1.543-2.674-2.004 1.159a1.542 1.542 0 0 1-2.107-.565l-2.835-4.909a7.716 7.716 0 0 0-5.47 7.382c0 .964.177 1.888.5 2.74a7.676 7.676 0 0 1 4.128-1.197 7.703 7.703 0 0 1 6.294 3.254l11.86-6.848 1.543 2.672-12.153 7.018a7.77 7.77 0 0 1 .016 3.161h12.496v3.085l-26.226.002A7.68 7.68 0 0 1 0 27.356c0-1.553.46-3.001 1.25-4.212A10.731 10.731 0 0 1 0 18.099c0-4.62 2.902-8.564 6.984-10.105l-.606-1.052a3.085 3.085 0 0 1 1.129-4.215L11.515.413a3.085 3.085 0 0 1 4.215 1.129zM7.713 22.727a4.628 4.628 0 0 0-4.628 4.628c0 .54.093 1.06.262 1.543h8.732c.17-.483.262-1.003.262-1.543a4.628 4.628 0 0 0-4.628-4.628zm5.344-19.641L9.049 5.4l4.242 7.348 4.008-2.314-4.242-7.348z"/>
        </symbol>
        <symbol id="icon-screw" viewBox="0 0 32 32">
            <path d="M16 22.951c.25-.346 2.812-2.152 2.812-5.852V.001h-5.625v17.098c0 3.683 2.564 5.509 2.812 5.852zm0-2.789a5.42 5.42 0 0 1-.787-1.783l1.708-.854A5.405 5.405 0 0 1 16 20.161zm-.938-12.958 1.875-.938V7.92l-1.875.938V7.204zm0 3.75 1.875-.938v1.654l-1.875.938v-1.654zm0 3.75 1.875-.937v1.654l-1.875.938v-1.654zm1.876-12.829v2.296l-1.875.938V1.876h1.875z"/>
            <path d="M20.688 3.813v17.812c0 1.861-3.146 3.816-4.688 4.587-1.542-.771-4.688-2.726-4.688-4.587V3.813H0v28.188h32V3.813H20.688zm9.437 1.875v1.875h-7.562V5.688h7.562zm0 3.75v9.375h-7.562V9.438h7.562zM9.438 18.812H1.875V9.437h7.563v9.375zm0-13.124v1.875H1.875V5.688h7.563zM1.875 30.125v-5.687h5.688v-1.875H1.875v-1.875h7.563v.937c0 1.606 1.077 3.2 3.2 4.737 1.086.786 2.166 1.377 3.362 1.915 1.193-.537 2.274-1.128 3.362-1.915 2.124-1.537 3.2-3.131 3.2-4.737v-.937h7.562v1.875h-5.687v1.875h5.687v5.687H1.874z"/>
            <path d="M3.813 11.312h1.875v1.875H3.813v-1.875zM5.688 15.062h1.875v1.875H5.688v-1.875zM24.438 15.062h1.875v1.875h-1.875v-1.875zM26.312 11.312h1.875v1.875h-1.875v-1.875zM3.813 26.312h5.625v1.875H3.813v-1.875zM22.562 26.312h5.625v1.875h-5.625v-1.875z"/>
        </symbol>
        <symbol id="icon-search" viewBox="0 0 32 32">
            <path d="M13.333 24a10.603 10.603 0 0 0 6.529-2.251l5.861 5.861 1.885-1.885-5.861-5.861a10.602 10.602 0 0 0 2.252-6.531c0-5.881-4.785-10.667-10.667-10.667S2.665 7.451 2.665 13.333C2.665 19.214 7.45 24 13.332 24zm0-18.667c4.412 0 8 3.588 8 8s-3.588 8-8 8-8-3.588-8-8 3.588-8 8-8z"/>
            <path d="M15.218 11.448c.505.507.784 1.176.784 1.885h2.667a5.317 5.317 0 0 0-1.565-3.771c-2.019-2.016-5.519-2.016-7.536 0l1.883 1.888c1.013-1.011 2.76-1.008 3.768-.003z"/>
        </symbol>
        <symbol id="icon-settings" viewBox="0 0 37 32">
            <path d="M31.355 30.384A1.616 1.616 0 0 1 29.739 32H7.113a1.616 1.616 0 0 1-1.616-1.616V15.839H.649L17.339.667a1.615 1.615 0 0 1 2.176 0l16.69 15.172h-4.849v14.545zM12.918 20.377l-1.602.924 1.616 2.801 1.605-.926a5.656 5.656 0 0 0 2.271 1.311v1.85h3.235v-1.852a5.664 5.664 0 0 0 2.271-1.309l1.603.924 1.619-2.799-1.602-.924a5.676 5.676 0 0 0 0-2.618l1.602-.926-1.616-2.801-1.605.926a5.652 5.652 0 0 0-2.274-1.309v-1.85h-3.236v1.849a5.656 5.656 0 0 0-2.271 1.311l-1.603-.926-1.618 2.802 1.602.924a5.676 5.676 0 0 0 0 2.618h.002zm5.507 1.115a2.423 2.423 0 0 1-2.242-3.351 2.43 2.43 0 0 1 1.311-1.313 2.428 2.428 0 0 1 3.354 2.238 2.428 2.428 0 0 1-2.423 2.426v.002z"/>
        </symbol>
        <symbol id="icon-shield" viewBox="0 0 32 32">
            <path d="M27.993 9.2a1.325 1.325 0 0 0-.731-1.06L16.595 2.807a1.33 1.33 0 0 0-1.194 0L4.734 8.14a1.342 1.342 0 0 0-.73 1.06c-.015.143-1.281 14.356 11.452 20.019a1.312 1.312 0 0 0 1.082 0C29.271 23.556 28.005 9.344 27.99 9.2zM16 26.529C6.975 22.166 6.548 12.856 6.621 10.18L16 5.491l9.372 4.687c.049 2.652-.437 12.024-9.372 16.352z"/>
            <path d="m14.668 16.781-3.057-3.057-1.885 1.885 4.943 4.943 7.609-7.609-1.885-1.885-5.724 5.724z"/>
        </symbol>
        <symbol id="icon-star" viewBox="0 0 37 32">
            <path d="M19.491.679C19.2.388 18.812.291 18.424.291s-.776.194-1.067.388L.678 15.806h4.848v14.545c0 .388.194.873.485 1.164S6.69 32 7.078 32h22.594c.388 0 .873-.194 1.164-.485s.485-.679.485-1.164V15.806h4.849L19.491.679zm2.521 23.563L18.424 22.4l-3.588 1.842.679-3.879-2.909-2.715 3.976-.582 1.842-3.491 1.842 3.491 3.976.582-2.909 2.715.679 3.879z"/>
        </symbol>
        <symbol id="icon-tag" viewBox="0 0 32 32">
            <path d="M14.369.444 29.034 2.54l2.095 14.667-13.618 13.618a1.481 1.481 0 0 1-2.094 0L.75 16.158a1.481 1.481 0 0 1 0-2.094L14.369.445zm1.047 3.144L3.892 15.111l12.572 12.57 11.523-11.523-1.57-11-11-1.57zm3.141 9.428a2.964 2.964 0 1 1 4.192.003 2.964 2.964 0 0 1-4.192-.001z"/>
        </symbol>
        <symbol id="icon-temp" viewBox="0 0 31 32">
            <path d="m31.01 4.708-1.423.933 1.427.927a.494.494 0 0 1-.534.828l-1.303-.847v1.559c0 .272-.22.493-.491.493s-.491-.221-.491-.493V6.553l-1.296.85a.483.483 0 0 1-.68-.143.493.493 0 0 1 .142-.681l1.424-.932-1.427-.927a.49.49 0 1 1 .534-.824l1.303.838V3.175a.492.492 0 1 1 .982 0V4.73l1.296-.85c.228-.149.532-.085.68.143s.084.535-.142.683h-.001zm-4.779 10.306a.492.492 0 1 1 .982 0v1.077l.905-.576c.229-.145.533-.077.677.153s.077.535-.152.681l-1.009.642 1.004.649a.493.493 0 0 1-.531.83l-.894-.579v1.069a.492.492 0 1 1-.982 0v-1.077l-.906.576a.488.488 0 0 1-.677-.153.495.495 0 0 1 .152-.681l1.01-.641-1.005-.65a.494.494 0 0 1 .532-.83l.894.579v-1.069zm-2.7-3.453c-.406 0-.736-.33-.736-.74s.33-.74.736-.74.736.331.736.74-.329.74-.736.74zm-7.61 20.221c-3.525 0-6.382-2.87-6.382-6.412a6.39 6.39 0 0 1 2.946-5.383V3.176h.049c.241-1.671 1.658-2.959 3.387-2.959s3.147 1.288 3.387 2.959h.049v16.811a6.393 6.393 0 0 1 2.946 5.383c0 3.541-2.857 6.412-6.382 6.412zm2.946-10.955v-.388h-.491V17.48h-.982c-.271 0-.491-.22-.491-.493s.219-.493.491-.493h.982v-1.973h-.982c-.271 0-.491-.22-.491-.493s.219-.493.491-.493h.982v-1.973h-.982a.492.492 0 0 1 0-.986h.982V8.603h-.982a.492.492 0 0 1 0-.986h.982V5.644h-.982c-.271 0-.491-.22-.491-.493s.219-.493.491-.493h.982v-.986c0-1.361-1.099-2.466-2.455-2.466s-2.455 1.105-2.455 2.466v.986h.982a.492.492 0 0 1 0 .986h-.982v1.973h.982a.492.492 0 0 1 0 .986h-.982v1.973h.982a.492.492 0 0 1 0 .986h-.982v1.973h.982a.492.492 0 0 1 0 .986h-.982v1.973h.982c.271 0 .491.22.491.493s-.22.493-.491.493h-.982v3.452h-.631a5.414 5.414 0 0 0-2.314 4.439c0 2.997 2.418 5.425 5.4 5.425s5.4-2.428 5.4-5.425a5.423 5.423 0 0 0-2.455-4.544zm-2.946 7.503a2.953 2.953 0 0 1-2.946-2.959c0-1.095.593-2.044 1.473-2.554v-2.378c0-.817.659-1.48 1.473-1.48s1.473.663 1.473 1.48v2.378a2.945 2.945 0 0 1 1.473 2.554 2.953 2.953 0 0 1-2.946 2.959zm.491-4.862v-3.03a.492.492 0 1 0-.982 0v3.03a1.968 1.968 0 0 0 .491 3.875 1.968 1.968 0 0 0 .491-3.875zM8.958 7.851c-.253.368-.682.136-.682.136l-.809-.505.049.212a.492.492 0 1 1-.958.212l-.26-1.164-.739-.464a1.58 1.58 0 0 1-.432.247v.873l.82.809c.206.197.206.523 0 .725s-.53.198-.736 0l-.083-.084v.75s-.029.473-.491.473-.491-.469-.491-.469v-.754l-.098.098c-.201.2-.53.2-.736 0a.512.512 0 0 1 0-.726l.84-.824v-.857a1.398 1.398 0 0 1-.417-.233l-.801.51-.263 1.026a.504.504 0 0 1-.625.364.525.525 0 0 1-.372-.574l-.637.411s-.425.239-.684-.125c-.26-.365.133-.652.133-.652l.957-.619-.349-.098a.532.532 0 0 1-.368-.641.507.507 0 0 1 .628-.362l1.257.35.604-.391a1.643 1.643 0 0 1-.044-.355c0-.113.019-.222.043-.33l-.633-.395-1.188.281a.505.505 0 0 1-.609-.385.528.528 0 0 1 .393-.623l.165-.039-.884-.552s-.415-.263-.147-.651c.267-.39.682-.137.682-.137l.827.513-.029-.135c-.06-.281.117-.561.394-.626s.55.108.61.388l.243 1.133.668.417c.129-.106.275-.19.434-.248v-.898l-.751-.756c-.192-.192-.192-.505 0-.697s.502-.194.694 0l.056.057V.689s.006-.47.494-.47.493.47.493.47v.781l.057-.058a.494.494 0 0 1 .697.697l-.751.76v.898c.152.054.295.133.417.237l.889-.577.231-.858a.49.49 0 0 1 .962.099l.614-.395s.412-.256.687.128c.272.385-.133.651-.133.651l-.992.641.365.099c.263.071.417.34.348.605a.489.489 0 0 1-.6.348l-1.23-.332-.619.399c.027.115.046.232.046.355 0 .114-.015.225-.039.332l.859.534.967-.217a.488.488 0 0 1 .584.371.496.496 0 0 1-.367.587l.707.439s.395.281.142.651l-.008-.01zM4.63 4.657a.492.492 0 0 0 0 .986c.271 0 .491-.22.491-.493s-.22-.493-.491-.493zM1.666 19.324a.49.49 0 0 1 .679-.146l1.303.847v-1.559a.491.491 0 1 1 .982 0v1.555l1.296-.851c.228-.153.532-.089.68.143s.084.533-.142.681l-1.424.932 1.427.927a.49.49 0 1 1-.534.824l-1.303-.843v1.563a.492.492 0 1 1-.982 0v-1.555l-1.296.849c-.227.148-.531.085-.679-.143s-.084-.534.142-.684l1.423-.932-1.426-.929a.494.494 0 0 1-.146-.682v.001zm3.7 8.513c.407 0 .736.331.736.74s-.329.74-.736.74-.736-.331-.736-.74c0-.408.33-.74.736-.74zm2.455-15.289c.407 0 .736.33.736.74a.737.737 0 1 1-1.472 0c0-.41.33-.74.736-.74zm19.146 15.289c.407 0 .736.331.736.74s-.329.74-.736.74-.736-.331-.736-.74.33-.74.736-.74zm2.946-5.425c.407 0 .736.331.736.74s-.329.74-.736.74-.736-.331-.736-.74.33-.74.736-.74z"/>
        </symbol>
        <symbol id="icon-time" viewBox="0 0 31 32">
            <path d="M15.36 3.2C8.302 3.2 2.56 8.942 2.56 16s5.742 12.8 12.8 12.8c7.058 0 12.8-5.742 12.8-12.8S22.418 3.2 15.36 3.2zm0 23.04C9.714 26.24 5.12 21.646 5.12 16S9.714 5.76 15.36 5.76 25.6 10.354 25.6 16s-4.594 10.24-10.24 10.24z"/>
            <path d="M16.64 9.6h-2.56v7.68h7.68v-2.56h-5.12V9.6z"/>
        </symbol>
        <symbol id="icon-timer" viewBox="0 0 31 32">
            <path d="m26.204 11.006 2.033-2.033-1.839-1.839-2.222 2.22a9.042 9.042 0 0 0-4.665-1.301c-5.02 0-9.106 4.085-9.106 9.106s4.086 9.106 9.106 9.106 9.106-4.085 9.106-9.106a9.062 9.062 0 0 0-2.413-6.153zm-6.693 12.657c-3.586 0-6.504-2.918-6.504-6.504s2.918-6.504 6.504-6.504c3.586 0 6.504 2.918 6.504 6.504s-2.918 6.504-6.504 6.504z"/>
            <path d="M18.21 13.257h2.602v5.203H18.21v-5.203zm-1.3-9.106h5.203v2.602H16.91V4.151zM3.901 10.655h5.203v2.602H3.901v-2.602zm0 10.406h5.203v2.602H3.901v-2.602zm-1.3-5.203h5.19v2.602h-5.19v-2.602z"/>
        </symbol>
        <symbol id="icon-tools" viewBox="0 0 35 32">
            <path d="m2.91 12.588 4.092 4.105 9.21-9.236-4.093-4.106-9.209 9.238zM9.37 24.41l3.069-3.079a1.439 1.439 0 0 1 1.024-.426 1.45 1.45 0 0 1 1.025 2.478l-3.069 3.079a1.452 1.452 0 0 1 0 2.052L9.37 30.566a1.46 1.46 0 0 1-1.023.425 1.446 1.446 0 0 1-1.023-.425l-2.047-2.051a1.454 1.454 0 0 1 0-2.054l2.047-2.052a1.46 1.46 0 0 1 1.023-.425 1.446 1.446 0 0 1 1.023.425h.001zm13.303-9.236 9.209-9.236-2.047-2.054-9.209 9.236c-1.13-1.135-1.327-2.774-.439-3.665l8.041-8.064c.887-.89 2.524-.694 3.654.441l2.047 2.051c1.132 1.135 1.328 2.777.439 3.665l-8.041 8.065c-.887.89-2.524.694-3.654-.441v.001zm-1.344 5.623-7.164-7.183-1.024 1.027 7.164 7.184 1.024-1.027v-.001zm2.047 2.054-1.024 1.025 2.559 2.566a.72.72 0 0 0 1.023 0 .726.726 0 0 0 0-1.026l-2.557-2.566zM2.998 8.393a2.177 2.177 0 0 1 .424-2.478l2.047-2.051a2.164 2.164 0 0 1 2.472-.426l2.134-2.14A2.887 2.887 0 0 1 13.23.669c.351.146.67.36.939.629l4.093 4.106a2.907 2.907 0 0 1 0 4.104l-2.047 2.052 11.767 11.802a3.634 3.634 0 0 1-1.173 5.918 3.618 3.618 0 0 1-2.77 0 3.611 3.611 0 0 1-1.173-.786L11.099 16.692l-2.048 2.052a2.886 2.886 0 0 1-4.093 0L.865 14.639a2.91 2.91 0 0 1 0-4.106L3 8.392z"/>
        </symbol>
        <symbol id="icon-triangle" viewBox="0 0 32 32">
            <path stroke-width=".32" d="M.004 26.62a.474.474 0 0 1 .023-.112.561.561 0 0 1 .025-.089l-.047.202zm0 0-.002.01-.002.011v4.677l.004-4.698zm-.133-.152a.641.641 0 0 1 .03-.106l.004-.011.006-.01a.652.652 0 0 1 .063-.095.73.73 0 0 1 .077-.099l.005-.007a.17.17 0 0 1 .027-.028l-.212.356zm0 0a.675.675 0 0 0-.025.125l-.002.008a.192.192 0 0 0-.004.038v4.677a.693.693 0 0 0 .693.693h30.933a.693.693 0 0 0 .693-.693V.671l-.001-.01a.524.524 0 0 0-.015-.079.632.632 0 0 0-.028-.129l-.002-.006-.003-.006a.727.727 0 0 0-.062-.117.787.787 0 0 0-.039-.07l-.005-.008-.006-.008a.147.147 0 0 0-.029-.028l-.007-.005a.7.7 0 0 0-.099-.079.61.61 0 0 0-.096-.063l-.009-.005-.01-.004a.58.58 0 0 0-.11-.032.665.665 0 0 0-.124-.025l-.009-.002a.195.195 0 0 0-.039-.004h-.01l-.01.001a.683.683 0 0 0-.081.015.712.712 0 0 0-.128.027l-.006.002-.006.002a.727.727 0 0 0-.117.062.616.616 0 0 0-.071.04l-.009.006-.008.007L.083 26.113l-.212.356zm1.356.495L30.774 2.169v1.672L2.037 27.957h-.809v-.994zm29.546 3.661H1.226v-1.28h29.547v1.28zm0-2.667H4.192l.89-.747h25.691v.747zM6.735 25.824l8.572-7.193v7.193H6.735zm9.958 0v-8.357l.616-.517.131.131v8.742h-.747zm2.257-10.251 9.69 9.69v.561h-.497l-9.768-9.768.575-.483zm9.69 7.729-8.623-8.623 8.623-7.236v15.86zm-9.813-4.834 7.356 7.356h-7.356v-7.356zm11.946 7.356h-.747V6.279l.747-.627v20.172z"/>
        </symbol>
        <symbol id="icon-truck" viewBox="0 0 36 32">
            <path d="M0 16.842v8.421c0 .447.171.875.476 1.191s.718.493 1.15.493h1.626c0 1.34.514 2.625 1.428 3.573S6.835 32 8.129 32c1.293 0 2.534-.532 3.449-1.48s1.428-2.233 1.428-3.573h9.754c0 1.34.514 2.625 1.428 3.573S26.343 32 27.637 32s2.534-.532 3.449-1.48a5.145 5.145 0 0 0 1.429-3.573h1.626c.431 0 .845-.177 1.15-.493s.476-.744.476-1.191V5.052c0-1.34-.514-2.625-1.428-3.573s-2.155-1.48-3.449-1.48H16.259c-1.293 0-2.534.532-3.449 1.48s-1.428 2.233-1.428 3.573V8.42H8.131c-.757 0-1.504.183-2.181.533s-1.266.86-1.721 1.488l-3.902 5.39a1.009 1.009 0 0 0-.114.236l-.098.185c-.072.188-.11.387-.114.589zm26.011 10.105c0-.333.095-.659.274-.936s.432-.493.73-.62a1.576 1.576 0 0 1 1.771.365 1.73 1.73 0 0 1 .352 1.835c-.123.308-.331.571-.599.756s-.582.284-.903.284c-.431 0-.845-.177-1.149-.493s-.476-.744-.476-1.191zM14.631 5.053c0-.447.171-.875.476-1.191s.718-.493 1.149-.493h14.631c.431 0 .845.177 1.15.493s.476.744.476 1.191v18.526h-1.268c-.457-.521-1.014-.937-1.636-1.222a4.734 4.734 0 0 0-3.946 0 4.893 4.893 0 0 0-1.636 1.222h-9.396V5.053zM11.38 15.158H4.877l1.951-2.695c.151-.209.348-.379.574-.496s.475-.178.727-.178h3.251v3.368zM6.503 26.947c0-.333.095-.659.274-.936s.433-.493.73-.62a1.576 1.576 0 0 1 1.771.365c.227.236.382.536.445.862s.031.665-.092.973c-.123.308-.331.571-.599.756s-.582.284-.903.284c-.431 0-.845-.177-1.149-.493s-.476-.744-.476-1.191zm-3.252-8.421h8.128v4.682c-.959-.888-2.219-1.348-3.504-1.278s-2.491.662-3.357 1.649H3.25v-5.053z"/>
        </symbol>
        <symbol id="icon-viber" viewBox="0 0 32 32">
            <path d="M15.2 0C12.631.037 7.111.459 4.027 3.289 1.736 5.582.928 8.933.844 13.089.76 17.244.651 25.034 8.16 27.146h.004l-.005 3.221s-.049 1.303.813 1.569c1.036.323 1.645-.667 2.64-1.736a83.153 83.153 0 0 0 1.863-2.107c5.133.435 9.083-.555 9.533-.7 1.035-.336 6.901-1.088 7.856-8.876.987-8.027-.48-13.107-3.12-15.395-.795-.733-4.008-3.067-11.167-3.097 0 0-.527-.033-1.383-.023l.005-.004zm.077 2.257c.727-.005 1.173.023 1.173.023 6.056.027 8.956 1.851 9.629 2.461 2.233 1.913 3.373 6.491 2.541 13.196v.003c-.805 6.504-5.565 6.912-6.443 7.193-.373.12-3.843.983-8.204.699 0 0-3.248 3.92-4.263 4.939-.16.16-.347.223-.469.192-.173-.044-.221-.251-.22-.552l.027-5.357c-6.349-1.76-5.98-8.389-5.907-11.86.072-3.472.724-6.317 2.661-8.231 2.613-2.364 7.299-2.691 9.48-2.707l-.007.001zm.507 3.47a.41.41 0 0 0-.385.403.403.403 0 0 0 .38.407c2.165.013 3.928.716 5.371 2.123 1.431 1.395 2.16 3.291 2.177 5.779a.403.403 0 0 0 .692.279.405.405 0 0 0 .117-.285c-.019-2.645-.824-4.795-2.421-6.352-1.587-1.547-3.589-2.337-5.929-2.353h-.001zm-5.28.926a1.312 1.312 0 0 0-.821.156l-.013.003a6.142 6.142 0 0 0-1.528 1.243c-.003.005-.008.005-.011.011-.356.431-.56.851-.613 1.264a.78.78 0 0 0-.009.187c0 .181.029.36.087.533l.017.013c.18.64.631 1.701 1.607 3.472.56 1.024 1.204 2 1.928 2.915.36.459.747.897 1.16 1.312l.176.176c.413.411.853.8 1.312 1.16.915.724 1.89 1.37 2.915 1.929 1.771.977 2.835 1.427 3.472 1.608l.013.019c.232.076.477.101.72.073.413-.048.836-.253 1.264-.613.005 0 .004-.003.011-.007.493-.44.911-.96 1.24-1.531l.004-.013c.3-.576.2-1.123-.24-1.493-.005 0-.931-.773-1.383-1.107-.48-.34-.973-.656-1.484-.947-.68-.38-1.376-.141-1.664.232l-.596.752c-.307.377-.876.328-.876.328-4.16-1.061-5.273-5.273-5.273-5.273s-.049-.568.331-.875l.751-.597c.369-.287.608-.983.227-1.664a17.067 17.067 0 0 0-.947-1.487 36.71 36.71 0 0 0-1.107-1.38 1.098 1.098 0 0 0-.669-.396l.001-.003zm5.987 1.174a.403.403 0 0 0-.306.681.404.404 0 0 0 .282.127c1.547.113 2.689.621 3.527 1.533.84.917 1.24 2.032 1.208 3.427a.406.406 0 0 0 .399.384.409.409 0 0 0 .414-.368c.033-1.567-.445-2.924-1.423-3.992-.987-1.08-2.369-1.671-4.067-1.795h-.032l-.003.001zM17.108 10a.408.408 0 0 0-.4.383.409.409 0 0 0 .384.427c.697.037 1.167.233 1.484.563.32.327.517.827.555 1.552a.409.409 0 0 0 .422.35.405.405 0 0 0 .385-.39c-.04-.859-.287-1.571-.773-2.076-.489-.504-1.191-.765-2.027-.809h-.024l-.005.001z"/>
        </symbol>
        <symbol id="icon-vk" viewBox="0 0 32 32">
            <path d="M20.912 0h-9.823C2.125 0 0 2.125 0 11.089v9.823c0 8.964 2.125 11.089 11.089 11.089h9.823c8.964 0 11.089-2.125 11.089-11.089v-9.823C32.001 2.125 29.855 0 20.912 0zm4.922 22.828h-2.323c-.88 0-1.151-.698-2.734-2.302-1.375-1.333-1.984-1.51-2.323-1.51-.479 0-.615.135-.615.792v2.099c0 .563-.177.901-1.667.901-2.464 0-5.198-1.49-7.115-4.266-2.891-4.068-3.682-7.115-3.682-7.745 0-.339.135-.656.786-.656h2.328c.589 0 .813.271 1.042.901 1.151 3.323 3.068 6.234 3.859 6.234.292 0 .427-.135.427-.88v-3.432c-.089-1.583-.922-1.719-.922-2.281 0-.271.224-.542.583-.542h3.661c.495 0 .677.271.677.854v4.63c0 .5.224.677.359.677.292 0 .542-.177 1.083-.719 1.672-1.875 2.87-4.766 2.87-4.766.156-.339.427-.656 1.016-.656h2.328c.698 0 .854.359.698.859-.292 1.354-3.141 5.375-3.141 5.375-.245.406-.339.583 0 1.036.25.339 1.063 1.042 1.604 1.672.995 1.13 1.76 2.078 1.964 2.734.229.651-.109.99-.766.99l.003.001z"/>
        </symbol>
        <symbol id="icon-wall" viewBox="0 0 32 32">
            <path d="M0 30.942V1C.158.5.492.167 1 0h29.942c.733.25 1.008.758 1.008 1.525-.008 9.633-.008 19.275-.008 28.908 0 1.042-.458 1.5-1.5 1.5-9.625 0-19.25-.008-28.883.008-.775.008-1.308-.25-1.558-1zm2.517-1.525h25.05L2.517 4.367v25.05zM17.225 9.783h12.192V2.516H17.225v7.267zm12.2 2.55H22.15v7.283h7.275v-7.283zM4.308 2.508c.042.058.05.075.067.092 2.358 2.358 4.717 4.717 7.083 7.075.083.083.233.125.358.125.7.008 1.392.008 2.092.008h.8v-7.3h-10.4zm9.925 9.8c1.792 1.792 3.6 3.608 5.392 5.392-.008.033.008 0 .008-.025 0-1.7 0-3.408.008-5.108 0-.25-.117-.258-.308-.258-1.65.008-3.3 0-4.958 0h-.142zm9.792 9.834c1.8 1.8 3.608 3.617 5.392 5.4v-5.4h-5.392z"/>
            <path d="M0 30.942V1C.158.5.492.167 1 0h29.942c.733.25 1.008.758 1.008 1.525-.008 9.633-.008 19.275-.008 28.908 0 1.042-.458 1.5-1.5 1.5l-7.219-.001c-7.219-.001-14.439-.003-21.664.009-.775.008-1.308-.25-1.558-1zm2.517-1.525h25.05L2.517 4.367v25.05zM17.225 9.783h12.192V2.516H17.225v7.267zm12.2 2.55H22.15v7.283h7.275v-7.283zM4.308 2.508l.035.05a.26.26 0 0 0 .032.042c2.358 2.358 4.717 4.717 7.083 7.075.083.083.233.125.358.125.7.008 1.392.008 2.092.008h.8v-7.3h-10.4zm9.925 9.8 1.794 1.796c1.2 1.202 2.402 2.406 3.598 3.596-.008.033.008 0 .008-.025 0-1.7 0-3.408.008-5.108 0-.25-.117-.258-.308-.258-1.099.006-2.199.004-3.301.002l-1.658-.002h-.142zm9.792 9.834 2.708 2.712 2.684 2.688v-5.4h-5.392z"/>
        </symbol>
        <symbol id="icon-water" viewBox="0 0 30 32">
            <path d="m26.507 10.072-5.534.009c-.605 2.539-3.028 4.44-5.67 4.44l-8.142-.014c-2.591-.146-4.653-2.214-4.653-4.753 0-2.152 1.479-3.969 3.512-4.562.195-2.78 2.453-4.973 5.216-4.973 2.059 0 3.836 1.223 4.692 2.997.49.03.965.13 1.412.283a4.136 4.136 0 0 1 2.712-1.213c.627-1.223 1.935-2.067 3.453-2.067 2.035 0 3.698 1.513 3.843 3.43 1.496.409 2.586 1.662 2.586 3.147 0 1.751-1.518 3.177-3.428 3.278h.003zM15.242 4.163c-.782-2.185-2.307-2.954-4.023-2.954-2.586 0-4.163 2.377-4.163 4.928-1.895.154-3.556 1.826-3.568 3.696-.023 3.314 3.568 3.696 3.568 3.696h8.326c2.142 0 4.883-2.21 4.758-4.927-.093-2.023-1.952-4.572-4.898-4.439zm11.198.198c0-1.634-1.114-3.156-2.942-3.156-1.215 0-2.292.493-2.846 1.892-.989-.04-1.802.307-2.39.82a5.662 5.662 0 0 1 2.851 4.943c0 .084-.01.158-.013.237h5.334s2.538-.242 2.522-2.367c-.01-1.198-1.183-2.269-2.522-2.367h.006zM8.875 17.973l-.49-1.48c-.05-.268.224-.443.49-.493s.44.225.49.493l.49 1.48c.05.268-.224.443-.49.493s-.441-.225-.49-.493zm1.469 3.945-.49-1.48c-.05-.268.224-.443.49-.493s.44.225.49.493l.49 1.48c.05.268-.224.443-.49.493s-.441-.225-.49-.493zm1.959 2.466.49 1.48c.05.268-.224.443-.49.493s-.44-.225-.49-.493l-.49-1.48c-.05-.268.224-.443.49-.493s.44.225.49.493zm0-8.384c.266-.05.44.225.49.493l.49 1.48c.05.268-.224.443-.49.493s-.44-.225-.49-.493l-.49-1.48c-.05-.268.224-.443.49-.493zm1.47 5.918-.49-1.48c-.05-.268.224-.443.49-.493s.44.225.49.493l.49 1.48c.05.268-.224.443-.49.493s-.441-.225-.49-.493zm1.959 2.466.49 1.48c.05.268-.224.443-.49.493s-.44-.225-.49-.493l-.49-1.48c-.05-.268.224-.443.49-.493s.44.225.49.493zm0-8.384c.266-.05.44.225.49.493l.49 1.48c.05.268-.224.443-.49.493s-.44-.225-.49-.493l-.49-1.48c-.05-.268.224-.443.49-.493zm1.469 5.918-.49-1.48c-.05-.268.224-.443.49-.493s.44.225.49.493l.49 1.48c.05.268-.224.443-.49.493s-.441-.225-.49-.493zm1.469 3.946-.49-1.48c-.05-.268.224-.443.49-.493s.44.225.49.493l.49 1.48c.05.268-.224.443-.49.493s-.441-.225-.49-.493zM6.999 21.918h1.806l.279.986H7.536c-.539 0-1.215.375-1.504.833l-3.982 5.08-.524.991c0 .544.439.986.98.986h23.509c.541 0 .98-.442.98-.986l-.446-.986-4.153-5.065c-.269-.468-.93-.853-1.469-.853h-.894l-.35-.986h1.812c.539 0 1.2.385 1.469.853l4.897 6.185c.073.128.108.25.113.36h.008v.493a1.966 1.966 0 0 1-1.959 1.973H2.514a1.966 1.966 0 0 1-1.959-1.973v-.346c-.031-.138.002-.306.118-.488l4.829-6.223c.287-.459.965-.834 1.502-.834h-.005z"/>
        </symbol>
        <symbol id="icon-wave" viewBox="0 0 25 32">
            <path d="M15.903 26.381c2.457.449 4.134 1.337 4.134 2.361 0 1.477-3.484 2.675-7.781 2.675s-7.781-1.198-7.781-2.675c0-1.024 1.676-1.911 4.134-2.361C4.896 23.24.098 17.204.098 12.46.098 5.739 5.541.292 12.256.292S24.414 5.74 24.414 12.46c0 4.744-4.798 10.781-8.511 13.921zM5.447 28.742c0 .562 3.048 1.702 6.808 1.702s6.809-1.02 6.809-1.702c0-.515-1.737-1.218-4.202-1.534-.224.165-.44.315-.648.451 1.153.168 1.932.482 1.932.839 0 .537-1.742.973-3.891.973s-3.891-.436-3.891-.973c0-.358.778-.671 1.932-.84a12.808 12.808 0 0 1-.629-.437c-2.474.343-4.22 1.095-4.22 1.52zm6.808-27.481c-6.18 0-11.19 5.004-11.19 11.178 0 6.151 9.474 15.021 11.17 15.087h.042c1.695-.067 11.169-8.937 11.169-15.087 0-6.173-5.011-11.178-11.19-11.178zm0 19.456c-4.567 0-8.267-3.701-8.267-8.267a8.268 8.268 0 1 1 8.266 8.267zm0-15.569a7.302 7.302 0 1 0 0 14.604 7.302 7.302 0 1 0 0-14.604zm4.863 8.761h-1.459a.486.486 0 0 1-.486-.486l-.45-1.082-.522 1.568c.071.243-.089.369-.338.444a.386.386 0 0 1-.054.019l-.015.005c-.029.007-.052-.003-.079-.002-.024 0-.049.01-.078.002l-.015-.005a.281.281 0 0 1-.053-.019c-.248-.075-.409-.201-.336-.444l-.579-3.181-1.372 5.126c.071.243-.089.369-.338.444a.342.342 0 0 1-.069.023c-.029.005-.052-.005-.079-.005-.024 0-.049.01-.078 0l-.015-.005a.281.281 0 0 1-.053-.019c-.248-.077-.409-.203-.336-.445l-.629-3.458-.349 1.034a.486.486 0 0 1-.486.486H7.391a.486.486 0 1 1 0-.972h1.135l.811-2.432c-.048-.16.041-.275.178-.36a.319.319 0 0 1 .281-.118c.01-.002.018-.007.028-.009.163-.04.268.039.345.158.11.081.179.187.141.329l.579 3.181 1.367-5.126c-.063-.214.104-.35.322-.433a.336.336 0 0 1 .083-.027c.028-.008.053-.019.081-.026.146-.036.249.02.324.119.138.078.214.19.162.368l.629 3.462.343-1.03c.005-.017.015-.033.02-.05.002-.01.008-.018.011-.027.022-.053.049-.107.083-.16l.004-.005a.446.446 0 0 1 .31-.214c.019-.005.037-.019.058-.024.146-.034.249.022.324.121.139.078.214.19.162.368l.778 1.945h1.167a.487.487 0 0 1 0 .972v-.007zM3.647 27.319c.117.112.258.276.243.694-.005.125-.106.181-.204.237-.747.165-1.186.337-1.186.492 0 .17.371.377 1.002.586v.144c.501.402.618.894.347 1.114-1.411-.416-2.293-1.012-2.293-1.843 0-.616.798-1.082 2.091-1.423zm17.249.859c-.115-.163-.275-.331-.275-.499 0-.134.17-.269.287-.405 1.269.34 2.047.817 2.047 1.469 0 .817-.871 1.415-2.281 1.833a.37.37 0 0 1-.053-.175c0-.219.389-.472.389-.744v-.19c.627-.224.992-.467.992-.72 0-.206-.404-.396-1.104-.564l-.002-.005z"/>
        </symbol>
        <symbol id="icon-whatsapp" viewBox="0 0 31 32">
            <path d="M22.395 19.05c-.385-.195-2.26-1.11-2.61-1.24-.35-.125-.605-.19-.86.195-.25.375-.985 1.235-1.21 1.485s-.445.27-.825.1c-.385-.195-1.615-.595-3.075-1.905-1.141-1.015-1.9-2.265-2.126-2.649-.225-.38-.025-.595.165-.785.175-.175.385-.44.58-.67.185-.231.245-.385.38-.635.125-.27.06-.48-.035-.67s-.86-2.075-1.18-2.825c-.305-.745-.625-.65-.86-.65-.22-.02-.475-.02-.73-.02s-.67.095-1.02.46c-.35.385-1.34 1.305-1.34 3.165 0 1.865 1.37 3.67 1.56 3.94.195.25 2.695 4.09 6.53 5.74.915.385 1.625.615 2.18.805.915.29 1.75.25 2.41.155.73-.12 2.26-.925 2.581-1.825.325-.905.325-1.655.23-1.825-.095-.175-.345-.27-.73-.44l-.016.095zm-6.955 9.43h-.02c-2.27 0-4.515-.615-6.475-1.765l-.46-.275-4.8 1.25 1.29-4.67-.31-.48a12.638 12.638 0 0 1-1.94-6.73c0-6.97 5.705-12.655 12.725-12.655 3.4 0 6.59 1.325 8.99 3.725 1.184 1.17 2.123 2.564 2.763 4.1s.967 3.185.962 4.85c-.01 6.965-5.71 12.65-12.72 12.65h-.005zM26.265 5.055C23.345 2.235 19.505.64 15.42.64 6.995.64.135 7.47.13 15.865c0 2.68.7 5.295 2.04 7.61L0 31.36l8.11-2.115a15.497 15.497 0 0 0 7.31 1.855h.005c8.43 0 15.29-6.83 15.295-15.23 0-4.065-1.585-7.89-4.475-10.765l.019-.049z"/>
        </symbol>
        <symbol id="icon-wood" viewBox="0 0 32 32">
            <path d="M3.35 1.333h25.297c1.113 0 2.018.771 2.018 1.719v25.896c0 .948-.905 1.719-2.018 1.719H3.35c-1.113 0-2.018-.771-2.018-1.719v-6.801c0-.316.301-.573.673-.573s.673.257.673.573v6.801c0 .316.302.573.673.573h3.773C5.687 28.096 4.9 26.294 4.9 24.405c0-.316.301-.573.673-.573s.673.257.673.573c0 1.716.761 3.35 2.143 4.6l.57.516h7.726c-3.731-1.65-6.626-4.421-8.11-7.829-1.14-2.619-3.177-4.834-5.889-6.405l-.007-.004v2.646c0 .316-.301.573-.673.573s-.673-.257-.673-.573V3.052c0-.948.905-1.719 2.018-1.719zm23.763 6.556c.783 0 1.535.173 2.207.497V3.052c0-.316-.302-.573-.673-.573H14.678c-.175.18-.346.368-.511.561-4.349 5.089-4.349 13.369 0 18.457 2.054 2.403 4.764 3.727 7.631 3.727.372 0 .673.257.673.573s-.301.573-.673.573c-3.309 0-6.406-1.491-8.719-4.198-2.267-2.652-3.515-6.169-3.515-9.903 0-3.681 1.214-7.151 3.421-9.79H5.848a10.77 10.77 0 0 1 1.113 4.725v1.522c0 .316-.301.573-.673.573s-.673-.257-.673-.573V7.204a9.814 9.814 0 0 0-1.239-4.725H3.35c-.371 0-.673.257-.673.573v10.845l.764.443c2.945 1.706 5.156 4.111 6.394 6.954 1.622 3.725 5.074 6.623 9.471 7.951l.914.276h8.427c.371 0 .673-.257.673-.573v-5.547c-.265.239-.538.464-.819.676a.738.738 0 0 1-.446.144.727.727 0 0 1-.504-.193c-.246-.237-.221-.599.057-.809.61-.46 1.184-.997 1.711-1.597v-5.523a5.06 5.06 0 0 1-2.207.497c-1.279 0-2.477-.459-3.375-1.293-1.818-1.688-1.818-4.434 0-6.122.898-.834 2.097-1.293 3.375-1.293zm2.206 6.792V9.804a3.5 3.5 0 0 0-2.207-.77c-.897 0-1.744.327-2.384.922-1.358 1.261-1.358 3.312 0 4.573.64.594 1.487.922 2.384.922.817 0 1.591-.272 2.207-.77zM21.421 4.265a.572.572 0 0 0-.734-.342c-1.162.423-2.231 1.178-3.092 2.182a.573.573 0 0 0 .87.746c.734-.855 1.638-1.495 2.615-1.851a.572.572 0 0 0 .342-.734zM4.487 19.531a.573.573 0 1 0-.809.812.573.573 0 0 0 .809-.812zm19.416.82a.572.572 0 0 0-.605-.539l-.01.001a.573.573 0 0 0 .032 1.145l.033-.001.01-.001a.573.573 0 0 0 .539-.605zm-5.441-2.716c.82.957 1.841 1.635 2.952 1.962a.573.573 0 1 1-.323 1.099c-1.324-.39-2.533-1.191-3.498-2.316-2.122-2.474-2.766-6.161-1.642-9.393a.572.572 0 1 1 1.082.376c-.993 2.854-.431 6.101 1.43 8.271z"/>
            <path d="M20.109 30.667v-.4h-.013l.013.4zm-.005 0-.015.4.014.001.014-.001-.013-.4zm-.005 0 .015-.4h-.015v.4zM7.123 29.521v.4h.972l-.69-.684-.282.284zm1.264-.516zm.571.516-.268.297.114.103h.154v-.4zm7.726 0v.4l.162-.766-.162.366zm-8.11-7.829zm-5.889-6.405-.201.346.2-.346zm-.008-.004.201-.346-.601-.349v.695h.4zm26.642-6.897-.174.36.574.277v-.637h-.4zM14.677 2.479v-.4h-.169l-.118.122.287.278zm-.51.561zm0 18.457zm-1.088.675zm-.095-19.693.307.257.549-.657h-.856v.4zm-7.137 0v-.4h-.641l.282.576.359-.176zm-1.471 0 .35-.193-.114-.207h-.236v.4zM2.677 13.897h-.4v.231l.2.116.2-.346zm.764.442zm6.394 6.955zm9.471 7.951zm.914.276-.116.383.057.017h.059v-.4zm9.099-.573zm0-5.547h.4v-.898l-.667.6.267.297zm-.818.676zm-.95-.049zm.058-.809zm1.71-1.597.301.264.099-.113v-.151h-.4zm0-5.523h.4v-.637l-.574.277.174.36zm-5.582-.795zm0-6.122zm5.582.622h.4v-.191l-.149-.12-.251.311zm0 4.877.251.311.149-.12v-.191h-.4zm-2.206-5.647zm-2.384.922zm0 4.573zM20.687 3.923l.137.376-.137-.376zm.734.342zm-3.826 1.84zm.062.808zm.807-.062zm2.615-1.852zM4.487 19.531l.284-.282-.001-.001-.283.283zm-.811 0-.283-.283-.001.001.284.282zm0 .81-.284.282.001.001.283-.283zm.811 0 .283.283.001-.001-.284-.282zm18.812-.529-.022-.399.022.399zm.604.539zm-.615-.538-.022-.399h-.001l.023.399zm-.539.604zm.605.54-.022-.399.023.399zm.01-.001.022.399h.001l-.023-.399zm-1.95-1.358zm-2.952-1.963zm3.34 2.674zm-.711.388.113-.384-.113.384zm-3.499-2.316zM15.95 8.988zm.729-.353.131-.378-.131.378zm.353.729zM28.647.933H3.35v.8h25.297v-.8zm2.418 2.119c0-1.226-1.147-2.119-2.418-2.119v.8c.955 0 1.618.65 1.618 1.319h.8zm0 25.896V3.052h-.8v25.896h.8zm-2.418 2.119c1.271 0 2.418-.892 2.418-2.119h-.8c0 .669-.664 1.319-1.618 1.319v.8zm-8.538 0h8.538v-.8h-8.538v.8zm.008-.001h.005l-.027-.8h-.005l.027.799zm-.032 0h.005l.029-.799h-.005l-.029.799zm-16.735.001h16.749v-.8H3.35v.8zM.932 28.948c0 1.227 1.147 2.119 2.418 2.119v-.8c-.955 0-1.618-.65-1.618-1.319h-.8zm0-6.801v6.801h.8v-6.801h-.8zm1.072-.973c-.53 0-1.073.378-1.073.973h.8c0-.025.011-.062.056-.101s.122-.072.216-.072v-.8zm1.073.973c0-.595-.543-.973-1.073-.973v.8c.095 0 .17.033.216.072s.056.076.056.101h.8zm0 6.801v-6.801h-.8v6.801h.8zm.273.173c-.094 0-.169-.033-.216-.073s-.057-.076-.057-.1h-.8c0 .595.544.973 1.073.973v-.8zm3.773 0H3.35v.8h3.773v-.8zm-2.624-4.716c0 2.004.836 3.906 2.342 5.4l.563-.568c-1.368-1.356-2.106-3.059-2.106-4.831h-.8zm1.073-.973c-.53 0-1.073.378-1.073.973h.8c0-.025.011-.062.056-.101s.122-.072.216-.072v-.8zm1.073.973c0-.595-.543-.973-1.073-.973v.8c.095 0 .17.033.216.072s.056.076.056.101h.8zm2.011 4.303c-1.306-1.181-2.011-2.71-2.011-4.303h-.8c0 1.84.817 3.578 2.274 4.896l.537-.593zm.57.516-.57-.516-.537.593.57.516.537-.593zm7.458-.103H8.958v.8h7.726v-.8zm-8.477-7.269c1.529 3.511 4.504 6.349 8.315 8.035l.324-.732c-3.651-1.615-6.466-4.317-7.905-7.622l-.733.319zm-5.723-6.219c2.646 1.533 4.62 3.685 5.723 6.219l.733-.319c-1.178-2.705-3.277-4.982-6.055-6.592l-.401.692zm-.008-.005.007.004.402-.692-.007-.004-.402.692zm.601 2.301v-2.646h-.8v2.646h.8zm-1.073.973c.53 0 1.073-.378 1.073-.973h-.8c0 .025-.011.062-.056.101s-.122.072-.216.072v.8zm-1.072-.973c0 .595.543.973 1.073.973v-.8c-.095 0-.17-.033-.216-.072s-.056-.076-.056-.101h-.8zm0-3.73v3.73h.8v-3.73h-.8zm0-.003v.003h.8v-.003h-.8zm0-11.144v11.144h.8V3.052h-.8zM3.35.933C2.079.933.932 1.825.932 3.052h.8c0-.669.664-1.319 1.618-1.319v-.8zm26.143 7.093a5.469 5.469 0 0 0-2.381-.537v.8c.724 0 1.416.16 2.033.458l.348-.72zm-.574-4.974v5.334h.8V3.052h-.8zm-.272-.173c.094 0 .169.033.216.073s.057.076.057.1h.8c0-.595-.544-.973-1.073-.973v.8zm-13.97 0h13.969v-.8H14.677v.8zm-.206.421c.159-.187.325-.368.494-.543L14.39 2.2c-.18.186-.357.38-.527.579l.608.52zm0 17.937c-4.221-4.939-4.221-12.998 0-17.938l-.608-.52c-4.477 5.238-4.477 13.739 0 18.977l.608-.52zm7.327 3.587c-2.738 0-5.341-1.262-7.327-3.586l-.608.52c2.121 2.482 4.938 3.867 7.935 3.867v-.8zm1.073.973c0-.595-.543-.973-1.073-.973v.8c.095 0 .17.033.216.072s.056.076.056.101h.8zm-1.073.973c.53 0 1.073-.378 1.073-.973h-.8c0 .025-.011.062-.056.101s-.122.072-.216.072v.8zm-9.023-4.339c2.383 2.788 5.588 4.338 9.023 4.338v-.8c-3.182 0-6.171-1.432-8.415-4.058l-.608.52zM9.164 12.269c0 3.822 1.278 7.433 3.611 10.163l.608-.52c-2.2-2.575-3.419-5.997-3.419-9.643h-.8zm3.513-10.046c-2.271 2.716-3.514 6.278-3.514 10.046h.8c0-3.594 1.185-6.971 3.328-9.533l-.614-.513zm-6.83.656h7.137v-.8H5.847v.8zm1.514 4.325a11.18 11.18 0 0 0-1.154-4.901l-.719.351a10.372 10.372 0 0 1 1.073 4.549h.8zm0 1.522V7.204h-.8v1.522h.8zm-1.073.973c.53 0 1.073-.378 1.073-.973h-.8c0 .025-.011.062-.056.101s-.122.072-.216.072v.8zm-1.073-.973c0 .595.543.973 1.073.973v-.8c-.095 0-.17-.033-.216-.072s-.056-.076-.056-.101h-.8zm0-1.522v1.522h.8V7.204h-.8zM4.026 2.672a9.421 9.421 0 0 1 1.189 4.532h.8c0-1.695-.446-3.389-1.288-4.918l-.701.386zm-.676.207h1.026v-.8H3.35v.8zm-.273.173c0-.024.011-.061.057-.1s.122-.073.216-.073v-.8c-.529 0-1.073.378-1.073.973h.8zm0 10.845V3.052h-.8v10.845h.8zm.565.096-.764-.443-.401.692.764.443.401-.692zm6.56 7.141c-1.276-2.93-3.549-5.397-6.56-7.141l-.401.692c2.878 1.667 5.027 4.01 6.228 6.768l.733-.319zm9.22 7.728c-4.301-1.299-7.651-4.125-9.22-7.728l-.733.319c1.675 3.847 5.229 6.817 9.722 8.174l.231-.766zm.913.276-.914-.276-.231.766.914.276.231-.766zm8.312-.017H20.22v.8h8.427v-.8zm.272-.173c0 .024-.011.061-.057.101s-.122.073-.216.073v.8c.529 0 1.073-.378 1.073-.973h-.8zm0-5.547v5.547h.8v-5.547h-.8zm-.177.995c.29-.219.572-.452.845-.698l-.535-.595c-.257.231-.521.45-.792.654l.482.639zm-.687.225c.236 0 .482-.07.687-.225l-.482-.639a.34.34 0 0 1-.205.063v.8zm-.781-.305c.217.209.506.305.781.305v-.8a.334.334 0 0 1-.227-.081l-.554.577zm.094-1.416c-.467.352-.524 1.003-.094 1.416l.554-.577c-.042-.04-.048-.075-.046-.098s.014-.063.067-.103l-.482-.639zm1.651-1.542c-.51.58-1.064 1.099-1.651 1.541l.482.639a11.857 11.857 0 0 0 1.77-1.652l-.601-.528zm-.1-5.259v5.523h.8v-5.523h-.8zm-1.806.898c.842 0 1.653-.186 2.381-.537l-.348-.72a4.665 4.665 0 0 1-2.033.458v.8zm-3.648-1.4c.976.906 2.273 1.4 3.648 1.4v-.8c-1.182 0-2.283-.424-3.103-1.186l-.544.586zm0-6.708c-1.988 1.846-1.988 4.862 0 6.708l.544-.586c-1.647-1.53-1.647-4.006 0-5.536l-.544-.586zm3.648-1.4c-1.375 0-2.672.494-3.648 1.4l.544.586c.821-.762 1.921-1.186 3.103-1.186v-.8zm1.806 2.315v4.877h.8V9.804h-.8zm-1.807-.37c.727 0 1.413.242 1.956.681l.503-.622a3.898 3.898 0 0 0-2.458-.859v.8zm-2.111.815a3.086 3.086 0 0 1 2.112-.815v-.8c-.995 0-1.94.364-2.656 1.029l.544.586zm0 3.987c-1.187-1.102-1.187-2.884 0-3.987l-.544-.586c-1.528 1.419-1.528 3.74 0 5.159l.544-.586zm2.112.815a3.086 3.086 0 0 1-2.112-.815l-.544.586a3.887 3.887 0 0 0 2.656 1.029v-.8zm1.955-.681a3.096 3.096 0 0 1-1.955.681v.8c.906 0 1.77-.302 2.458-.859l-.503-.622zM20.824 4.299a.174.174 0 0 1 .222.103l.752-.274a.972.972 0 0 0-1.247-.581l.274.752zm-2.926 2.066c.82-.956 1.833-1.669 2.926-2.067l-.274-.752c-1.231.448-2.356 1.245-3.259 2.297l.607.521zm.019.244a.173.173 0 0 1-.019-.244l-.607-.521a.973.973 0 0 0 .105 1.372l.521-.607zm.112.042a.167.167 0 0 1-.112-.042l-.521.607a.97.97 0 0 0 .633.234v-.8zm.132-.061a.17.17 0 0 1-.132.06v.8a.972.972 0 0 0 .739-.34l-.607-.521zm2.781-1.966c-1.047.381-2.007 1.064-2.781 1.967l.607.521c.693-.808 1.541-1.405 2.448-1.736l-.274-.752zm.104-.222a.174.174 0 0 1-.103.222l.274.752a.972.972 0 0 0 .581-1.247l-.752.274zM4.082 19.763c.045 0 .091.019.122.05l.566-.565a.978.978 0 0 0-.688-.285v.8zm-.123.05a.177.177 0 0 1 .122-.05v-.8a.977.977 0 0 0-.688.284l.566.566zm-.05.123c0-.045.019-.091.051-.123l-.567-.564a.98.98 0 0 0-.284.688h.8zm.051.123a.177.177 0 0 1-.051-.123h-.8a.98.98 0 0 0 .284.687l.567-.564zm.122.05a.175.175 0 0 1-.122-.051l-.566.566a.978.978 0 0 0 .688.285v-.8zm.122-.05a.182.182 0 0 1-.122.051v.8a.976.976 0 0 0 .688-.285l-.566-.565zm.05-.123c0 .044-.019.09-.052.123l.567.564a.978.978 0 0 0 .284-.687h-.8zm-.051-.123a.177.177 0 0 1 .051.123h.8a.982.982 0 0 0-.284-.688l-.567.564zm19.118.398a.172.172 0 0 1 .183.163l.799-.046a.972.972 0 0 0-1.026-.916l.044.799zm-.01.001.01-.001-.045-.799-.01.001.045.799zm-.162.183a.174.174 0 0 1 .163-.183l-.046-.799a.973.973 0 0 0-.915 1.027l.799-.046zm.172.163a.172.172 0 0 1-.172-.163l-.799.046c.03.518.459.917.971.917v-.8zm.01-.001h-.011v.8l.056-.002-.045-.799zm.011 0-.01.001.045.799.01-.001-.045-.799zm.162-.183a.172.172 0 0 1-.163.182l.046.799a.974.974 0 0 0 .916-1.027l-.799.046zm-1.977-1.16c-1.03-.303-1.987-.936-2.761-1.839l-.607.521c.866 1.01 1.951 1.735 3.143 2.086l.226-.767zm.659 1.208a.973.973 0 0 0-.659-1.208l-.226.767a.174.174 0 0 1 .117.215l.767.226zm-.933.698c.42 0 .808-.274.933-.698l-.767-.226a.173.173 0 0 1-.166.124v.8zm-.276-.039c.091.027.184.04.275.04v-.8a.17.17 0 0 1-.049-.007l-.226.767zm-3.688-2.439c1.011 1.179 2.286 2.025 3.689 2.439l.226-.767c-1.244-.366-2.389-1.121-3.308-2.192l-.607.521zm-1.717-9.786c-1.168 3.359-.504 7.197 1.716 9.785l.607-.521c-2.023-2.359-2.648-5.896-1.568-9.002l-.756-.263zm1.239-.599a.973.973 0 0 0-1.238.599l.756.263a.172.172 0 0 1 .22-.106l.263-.756zm.599 1.238a.973.973 0 0 0-.599-1.238l-.263.756c.09.031.138.13.107.22l.756.263zm1.356 7.88c-1.762-2.055-2.305-5.15-1.355-7.879l-.756-.263c-1.036 2.98-.456 6.377 1.504 8.663l.607-.521z"/>
        </symbol>
        <symbol id="icon-youtube" viewBox="0 0 43 32">
            <path d="M41.768 5.695a5.344 5.344 0 0 0-3.716-3.708c-3.327-.889-16.7-.889-16.7-.889s-13.348-.021-16.709.889c-.885.247-1.691.718-2.341 1.367S1.181 4.81.935 5.694a55.374 55.374 0 0 0-.929 10.327 56.228 56.228 0 0 0 .929 10.277 5.35 5.35 0 0 0 3.708 3.716c3.327.889 16.709.889 16.709.889s13.34 0 16.7-.889a5.368 5.368 0 0 0 3.716-3.716c.612-3.388.911-6.833.889-10.277a55.943 55.943 0 0 0-.889-10.327zM17.08 22.404V9.611l11.132 6.411-11.132 6.383z"/>
        </symbol>
    </defs>
</svg>
