<svg width="55" height="516" viewBox="0 0 55 516" fill="none" xmlns="http://www.w3.org/2000/svg">
<path d="M2.5 1.9L2.5 0.899997L1.5 0.899997L1.5 1.9L2.5 1.9ZM2.5 11.42L1.5 11.42L1.5 12.42L2.5 12.42L2.5 11.42ZM25.46 11.42L26.1185 12.1726L28.1214 10.42L25.46 10.42L25.46 11.42ZM2.5 31.51L1.84149 30.7574L1.5 31.0562L1.5 31.51L2.5 31.51ZM2.5 43.55L1.5 43.55L1.5 45.7566L3.15923 44.3019L2.5 43.55ZM28.05 21.15L28.6967 20.3873L28.0391 19.8297L27.3908 20.3981L28.05 21.15ZM52.9 42.22L52.2533 42.9827L53.9 44.379L53.9 42.22L52.9 42.22ZM52.9 30.6L53.9 30.6L53.9 30.1287L53.5365 29.8287L52.9 30.6ZM29.66 11.42L29.66 10.42L26.8773 10.42L29.0235 12.1913L29.66 11.42ZM52.9 11.42L52.9 12.42L53.9 12.42L53.9 11.42L52.9 11.42ZM52.9 1.9L53.9 1.9L53.9 0.899999L52.9 0.899999L52.9 1.9ZM1.5 1.9L1.5 11.42L3.5 11.42L3.5 1.9L1.5 1.9ZM2.5 12.42L25.46 12.42L25.46 10.42L2.5 10.42L2.5 12.42ZM24.8015 10.6674L1.84149 30.7574L3.1585 32.2626L26.1185 12.1726L24.8015 10.6674ZM1.5 31.51L1.5 43.55L3.5 43.55L3.5 31.51L1.5 31.51ZM3.15923 44.3019L28.7092 21.9019L27.3908 20.3981L1.84076 42.7981L3.15923 44.3019ZM27.4033 21.9127L52.2533 42.9827L53.5467 41.4573L28.6967 20.3873L27.4033 21.9127ZM53.9 42.22L53.9 30.6L51.9 30.6L51.9 42.22L53.9 42.22ZM53.5365 29.8287L30.2965 10.6487L29.0235 12.1913L52.2635 31.3713L53.5365 29.8287ZM29.66 12.42L52.9 12.42L52.9 10.42L29.66 10.42L29.66 12.42ZM53.9 11.42L53.9 1.9L51.9 1.9L51.9 11.42L53.9 11.42ZM52.9 0.899999L2.5 0.899997L2.5 2.9L52.9 2.9L52.9 0.899999ZM2.5 44.9527L2.79222 43.9964L1.5 43.6015L1.5 44.9527L2.5 44.9527ZM2.5 54.7527L1.5 54.7527L1.5 55.4944L2.20972 55.7097L2.5 54.7527ZM13 57.9377L14 57.9377L14 57.1961L13.2903 56.9808L13 57.9377ZM13 76.9077L13.2961 77.8629L14 77.6447L14 76.9077L13 76.9077ZM2.5 80.1627L2.2039 79.2076L1.5 79.4258L1.5 80.1627L2.5 80.1627ZM2.5 89.9627L1.5 89.9627L1.5 91.3139L2.79221 90.9191L2.5 89.9627ZM52.9 74.5627L53.1922 75.5191L53.9 75.3028L53.9 74.5627L52.9 74.5627ZM52.9 60.3527L53.9 60.3527L53.9 59.6126L53.1922 59.3964L52.9 60.3527ZM21.89 60.6327L22.1811 59.676L20.89 59.2832L20.89 60.6327L21.89 60.6327ZM43.975 67.3527L44.2703 68.3082L47.3859 67.3453L44.2661 66.396L43.975 67.3527ZM21.89 74.1777L20.89 74.1777L20.89 75.5334L22.1853 75.1332L21.89 74.1777ZM1.5 44.9527L1.5 54.7527L3.5 54.7527L3.5 44.9527L1.5 44.9527ZM2.20972 55.7097L12.7097 58.8947L13.2903 56.9808L2.79027 53.7958L2.20972 55.7097ZM12 57.9377L12 76.9077L14 76.9077L14 57.9377L12 57.9377ZM12.7039 75.9526L2.2039 79.2076L2.79609 81.1179L13.2961 77.8629L12.7039 75.9526ZM1.5 80.1627L1.5 89.9627L3.5 89.9627L3.5 80.1627L1.5 80.1627ZM2.79221 90.9191L53.1922 75.5191L52.6078 73.6064L2.20778 89.0064L2.79221 90.9191ZM53.9 74.5627L53.9 60.3527L51.9 60.3527L51.9 74.5627L53.9 74.5627ZM53.1922 59.3964L2.79222 43.9964L2.20778 45.9091L52.6078 61.3091L53.1922 59.3964ZM21.5989 61.5894L43.6839 68.3094L44.2661 66.396L22.1811 59.676L21.5989 61.5894ZM43.6797 66.3973L21.5947 73.2223L22.1853 75.1332L44.2703 68.3082L43.6797 66.3973ZM22.89 74.1777L22.89 60.6327L20.89 60.6327L20.89 74.1777L22.89 74.1777ZM2.5 94.8551L2.5 93.8551L1.67814 93.8551L1.51894 94.6614L2.5 94.8551ZM2.815 103.43L3.72712 103.02L3.72536 103.016L2.815 103.43ZM7.645 108.155L7.22009 109.06L7.22009 109.06L7.645 108.155ZM16.08 110.745L16.2847 109.766L16.2722 109.764L16.08 110.745ZM24.025 112.11L23.8895 113.101L23.8895 113.101L24.025 112.11ZM31.935 113.055L32.0354 112.06L32.0354 112.06L31.935 113.055ZM38.9 113.65L38.9775 112.653L38.9665 112.652L38.9 113.65ZM44.01 114.035L45.01 114.035L45.01 113.104L44.0812 113.038L44.01 114.035ZM44.01 130.135L44.01 131.135L45.01 131.135L45.01 130.135L44.01 130.135ZM2.49999 130.135L2.49999 129.135L1.49999 129.135L1.49999 130.135L2.49999 130.135ZM2.49999 139.655L1.49999 139.655L1.49999 140.655L2.49999 140.655L2.49999 139.655ZM52.9 139.655L52.9 140.655L53.9 140.655L53.9 139.655L52.9 139.655ZM52.9 105.285L53.9 105.285L53.9 104.33L52.9461 104.286L52.9 105.285ZM46.775 104.97L46.72 105.969L46.7205 105.969L46.775 104.97ZM38.305 104.375L38.3874 103.378L38.3874 103.378L38.305 104.375ZM28.785 103.395L28.9064 102.402L28.9002 102.402L28.785 103.395ZM19.58 101.995L19.7686 101.013L19.7654 101.012L19.58 101.995ZM13.805 100.455L13.4226 101.379L13.4282 101.381L13.805 100.455ZM11.005 98.2851L10.1353 98.7787L10.1396 98.7861L11.005 98.2851ZM10.41 94.8551L11.4079 94.9205L11.4777 93.8551L10.41 93.8551L10.41 94.8551ZM1.51894 94.6614C0.779227 98.4076 0.844703 101.512 1.90463 103.844L3.72536 103.016C2.91862 101.241 2.7741 98.6292 3.48105 95.0488L1.51894 94.6614ZM1.90288 103.84C2.94512 106.159 4.74243 107.897 7.22009 109.06L8.0699 107.25C5.97423 106.266 4.55154 104.854 3.72711 103.02L1.90288 103.84ZM7.22009 109.06C9.60142 110.178 12.4965 111.062 15.8878 111.726L16.2722 109.764C12.9901 109.121 10.2619 108.279 8.0699 107.25L7.22009 109.06ZM15.8753 111.724C18.466 112.266 21.1375 112.725 23.8895 113.101L24.1605 111.119C21.4525 110.749 18.8273 110.298 16.2847 109.766L15.8753 111.724ZM23.8895 113.101C26.6303 113.476 29.2787 113.792 31.8346 114.05L32.0354 112.06C29.5047 111.805 26.8797 111.491 24.1605 111.119L23.8895 113.101ZM31.8346 114.05C34.3869 114.308 36.7201 114.507 38.8335 114.648L38.9665 112.652C36.8799 112.513 34.5698 112.316 32.0354 112.06L31.8346 114.05ZM38.8225 114.647C40.9235 114.81 42.6291 114.939 43.9388 115.033L44.0812 113.038C42.7775 112.944 41.0765 112.816 38.9775 112.653L38.8225 114.647ZM43.01 114.035L43.01 130.135L45.01 130.135L45.01 114.035L43.01 114.035ZM44.01 129.135L2.49999 129.135L2.49999 131.135L44.01 131.135L44.01 129.135ZM1.49999 130.135L1.49999 139.655L3.49999 139.655L3.49999 130.135L1.49999 130.135ZM2.49999 140.655L52.9 140.655L52.9 138.655L2.49999 138.655L2.49999 140.655ZM53.9 139.655L53.9 105.285L51.9 105.285L51.9 139.655L53.9 139.655ZM52.9461 104.286C51.4335 104.216 49.395 104.111 46.8295 103.972L46.7205 105.969C49.2884 106.109 51.3332 106.214 52.8539 106.284L52.9461 104.286ZM46.83 103.972C44.2975 103.832 41.4835 103.635 38.3874 103.378L38.2226 105.372C41.3331 105.629 44.1658 105.828 46.72 105.969L46.83 103.972ZM38.3874 103.378C35.2977 103.123 32.1374 102.798 28.9064 102.402L28.6636 104.388C31.9193 104.786 35.1056 105.114 38.2226 105.372L38.3874 103.378ZM28.9002 102.402C25.7026 102.031 22.6588 101.568 19.7686 101.013L19.3914 102.977C22.3345 103.542 25.4274 104.012 28.6698 104.388L28.9002 102.402ZM19.7654 101.012C17.3192 100.551 15.4688 100.052 14.1818 99.5288L13.4282 101.381C14.8945 101.978 16.8941 102.506 19.3946 102.978L19.7654 101.012ZM14.1873 99.5311C12.9525 99.0201 12.2351 98.414 11.8704 97.784L10.1396 98.7861C10.8015 99.9295 11.9509 100.77 13.4226 101.379L14.1873 99.5311ZM11.8747 97.7915C11.5146 97.157 11.322 96.2301 11.4079 94.9205L9.41214 94.7896C9.31135 96.3267 9.5154 97.6865 10.1353 98.7787L11.8747 97.7915ZM10.41 93.8551L2.5 93.8551L2.5 95.8551L10.41 95.8551L10.41 93.8551ZM2.49999 149.418L2.49999 148.418L1.49999 148.418L1.49999 149.418L2.49999 149.418ZM2.56999 172.658L3.56845 172.602L3.56836 172.601L2.56999 172.658ZM2.77999 174.898L1.78998 175.039L1.79174 175.051L2.77999 174.898ZM8.30999 184.803L7.73911 185.624L7.74211 185.626L8.30999 184.803ZM30.01 184.768L29.4348 183.95L29.4348 183.95L30.01 184.768ZM35.54 174.898L34.5556 174.722L34.5537 174.733L34.552 174.744L35.54 174.898ZM35.75 172.658L34.7515 172.602L34.7508 172.616L34.7504 172.63L35.75 172.658ZM35.82 158.938L35.82 157.938L34.82 157.938L34.82 158.938L35.82 158.938ZM52.9 158.938L52.9 159.938L53.9 159.938L53.9 158.938L52.9 158.938ZM52.9 149.418L53.9 149.418L53.9 148.418L52.9 148.418L52.9 149.418ZM11.39 158.938L11.39 157.938L10.39 157.938L10.39 158.938L11.39 158.938ZM26.93 158.938L27.93 158.938L27.93 157.938L26.93 157.938L26.93 158.938ZM26.86 171.888L27.8568 171.968L27.8568 171.968L26.86 171.888ZM26.58 173.498L25.6184 173.223L25.6152 173.235L26.58 173.498ZM24.795 176.473L24.1547 175.705L24.1442 175.714L24.795 176.473ZM22.03 177.908L21.7875 176.938L21.7743 176.941L21.7612 176.945L22.03 177.908ZM16.255 177.908L16.5181 176.943L16.5105 176.941L16.5028 176.939L16.255 177.908ZM13.49 176.473L12.8391 177.232L12.8498 177.241L13.49 176.473ZM11.74 173.498L12.7048 173.235L12.7015 173.223L11.74 173.498ZM11.46 171.888L12.4568 171.808L12.4568 171.808L11.46 171.888ZM1.49999 149.418L1.49999 170.698L3.49999 170.698L3.49999 149.418L1.49999 149.418ZM1.49999 170.698C1.49999 171.215 1.52448 171.89 1.57162 172.715L3.56836 172.601C3.52217 171.792 3.49999 171.161 3.49999 170.698L1.49999 170.698ZM1.57153 172.713C1.61939 173.575 1.69171 174.351 1.79004 175.039L3.76994 174.756C3.68161 174.138 3.61393 173.421 3.56845 172.602L1.57153 172.713ZM1.79174 175.051C2.52205 179.773 4.47261 183.353 7.73912 185.624L8.88087 183.982C6.17404 182.1 4.43793 179.076 3.76825 174.745L1.79174 175.051ZM7.74211 185.626C10.9439 187.835 14.7662 188.918 19.16 188.918L19.16 186.918C15.1071 186.918 11.6961 185.924 8.87787 183.98L7.74211 185.626ZM19.16 188.918C23.5779 188.918 27.4038 187.823 30.5852 185.586L29.4348 183.95C26.6428 185.913 23.2354 186.918 19.16 186.918L19.16 188.918ZM30.5852 185.586C33.8451 183.294 35.7969 179.731 36.528 175.052L34.552 174.744C33.8831 179.024 32.1482 182.042 29.4348 183.95L30.5852 185.586ZM36.5244 175.074C36.6518 174.361 36.7252 173.563 36.7496 172.686L34.7504 172.63C34.7281 173.433 34.6616 174.129 34.5556 174.722L36.5244 175.074ZM36.7485 172.713C36.7955 171.867 36.82 171.192 36.82 170.698L34.82 170.698C34.82 171.137 34.7978 171.769 34.7515 172.602L36.7485 172.713ZM36.82 170.698L36.82 158.938L34.82 158.938L34.82 170.698L36.82 170.698ZM35.82 159.938L52.9 159.938L52.9 157.938L35.82 157.938L35.82 159.938ZM53.9 158.938L53.9 149.418L51.9 149.418L51.9 158.938L53.9 158.938ZM52.9 148.418L2.49999 148.418L2.49999 150.418L52.9 150.418L52.9 148.418ZM11.39 159.938L26.93 159.938L26.93 157.938L11.39 157.938L11.39 159.938ZM25.93 158.938L25.93 170.278L27.93 170.278L27.93 158.938L25.93 158.938ZM25.93 170.278C25.93 170.737 25.9081 171.246 25.8632 171.808L27.8568 171.968C27.9052 171.363 27.93 170.799 27.93 170.278L25.93 170.278ZM25.8632 171.808C25.821 172.335 25.7378 172.805 25.6185 173.223L27.5415 173.773C27.7021 173.21 27.8056 172.607 27.8568 171.968L25.8632 171.808ZM25.6152 173.235C25.3073 174.364 24.806 175.162 24.1548 175.705L25.4352 177.241C26.4639 176.384 27.1527 175.199 27.5448 173.761L25.6152 173.235ZM24.1442 175.714C23.4434 176.314 22.661 176.719 21.7875 176.938L22.2725 178.878C23.4523 178.583 24.5133 178.031 25.4458 177.232L24.1442 175.714ZM21.7612 176.945C20.833 177.204 19.9671 177.328 19.16 177.328L19.16 179.328C20.1729 179.328 21.2203 179.172 22.2988 178.871L21.7612 176.945ZM19.16 177.328C18.3524 177.328 17.4731 177.204 16.5181 176.943L15.9919 178.873C17.0902 179.172 18.1476 179.328 19.16 179.328L19.16 177.328ZM16.5028 176.939C15.6516 176.721 14.8625 176.315 14.1302 175.705L12.8498 177.241C13.7975 178.031 14.8517 178.581 16.0072 178.877L16.5028 176.939ZM14.1408 175.714C13.5086 175.172 13.0147 174.371 12.7048 173.235L10.7752 173.761C11.1653 175.191 11.838 176.374 12.8392 177.232L14.1408 175.714ZM12.7015 173.223C12.5821 172.805 12.499 172.335 12.4568 171.808L10.4632 171.968C10.5144 172.607 10.6178 173.21 10.7785 173.773L12.7015 173.223ZM12.4568 171.808C12.4119 171.246 12.39 170.737 12.39 170.278L10.39 170.278C10.39 170.799 10.4148 171.363 10.4632 171.968L12.4568 171.808ZM12.39 170.278L12.39 158.938L10.39 158.938L10.39 170.278L12.39 170.278ZM2.49999 195.63L2.49999 194.63L1.49999 194.63L1.49999 195.63L2.49999 195.63ZM2.49999 205.15L1.49999 205.15L1.49999 206.15L2.49999 206.15L2.49999 205.15ZM25.46 205.15L26.1185 205.903L28.1214 204.15L25.46 204.15L25.46 205.15ZM2.49999 225.24L1.84149 224.488L1.49999 224.787L1.49999 225.24L2.49999 225.24ZM2.49999 237.28L1.49999 237.28L1.49999 239.487L3.15922 238.032L2.49999 237.28ZM28.05 214.88L28.6967 214.118L28.0391 213.56L27.3908 214.129L28.05 214.88ZM52.9 235.95L52.2533 236.713L53.9 238.109L53.9 235.95L52.9 235.95ZM52.9 224.33L53.9 224.33L53.9 223.859L53.5365 223.559L52.9 224.33ZM29.66 205.15L29.66 204.15L26.8773 204.15L29.0235 205.922L29.66 205.15ZM52.9 205.15L52.9 206.15L53.9 206.15L53.9 205.15L52.9 205.15ZM52.9 195.63L53.9 195.63L53.9 194.63L52.9 194.63L52.9 195.63ZM1.49999 195.63L1.49999 205.15L3.49999 205.15L3.49999 195.63L1.49999 195.63ZM2.49999 206.15L25.46 206.15L25.46 204.15L2.49999 204.15L2.49999 206.15ZM24.8015 204.398L1.84149 224.488L3.15849 225.993L26.1185 205.903L24.8015 204.398ZM1.49999 225.24L1.49999 237.28L3.49999 237.28L3.49999 225.24L1.49999 225.24ZM3.15922 238.032L28.7092 215.632L27.3908 214.129L1.84076 236.529L3.15922 238.032ZM27.4033 215.643L52.2533 236.713L53.5467 235.188L28.6967 214.118L27.4033 215.643ZM53.9 235.95L53.9 224.33L51.9 224.33L51.9 235.95L53.9 235.95ZM53.5365 223.559L30.2965 204.379L29.0235 205.922L52.2635 225.102L53.5365 223.559ZM29.66 206.15L52.9 206.15L52.9 204.15L29.66 204.15L29.66 206.15ZM53.9 205.15L53.9 195.63L51.9 195.63L51.9 205.15L53.9 205.15ZM52.9 194.63L2.49999 194.63L2.49999 196.63L52.9 196.63L52.9 194.63ZM2.49999 248.203L2.94365 247.307L1.49999 246.592L1.49999 248.203L2.49999 248.203ZM2.49999 258.353L1.49999 258.353L1.49999 258.987L2.07298 259.257L2.49999 258.353ZM52.9 282.153L52.473 283.057L53.9 283.731L53.9 282.153L52.9 282.153ZM52.9 272.003L53.9 272.003L53.9 271.357L53.3109 271.092L52.9 272.003ZM26.65 260.173L26.2514 259.256L24.1795 260.157L26.2391 261.085L26.65 260.173ZM52.9 248.763L53.2986 249.68L53.9 249.419L53.9 248.763L52.9 248.763ZM52.9 237.983L53.9 237.983L53.9 236.401L52.471 237.08L52.9 237.983ZM16.64 255.203L16.1963 256.099L16.6309 256.315L17.069 256.107L16.64 255.203ZM1.49999 248.203L1.49999 258.353L3.49999 258.353L3.49999 248.203L1.49999 248.203ZM2.07298 259.257L52.473 283.057L53.327 281.249L2.92699 257.449L2.07298 259.257ZM53.9 282.153L53.9 272.003L51.9 272.003L51.9 282.153L53.9 282.153ZM53.3109 271.092L27.0609 259.262L26.2391 261.085L52.4891 272.915L53.3109 271.092ZM27.0486 261.09L53.2986 249.68L52.5014 247.846L26.2514 259.256L27.0486 261.09ZM53.9 248.763L53.9 237.983L51.9 237.983L51.9 248.763L53.9 248.763ZM52.471 237.08L16.211 254.3L17.069 256.107L53.329 238.887L52.471 237.08ZM17.0837 254.307L2.94365 247.307L2.05633 249.099L16.1963 256.099L17.0837 254.307ZM2.49999 278.605L2.49999 277.605L1.67813 277.605L1.51893 278.411L2.49999 278.605ZM2.81499 287.18L3.72711 286.77L3.72535 286.766L2.81499 287.18ZM7.64499 291.905L7.22008 292.81L7.22008 292.81L7.64499 291.905ZM16.08 294.495L16.2847 293.516L16.2721 293.514L16.08 294.495ZM24.025 295.86L23.8895 296.851L23.8895 296.851L24.025 295.86ZM31.935 296.805L32.0354 295.81L32.0354 295.81L31.935 296.805ZM38.9 297.4L38.9775 296.403L38.9665 296.402L38.9 297.4ZM44.01 297.785L45.01 297.785L45.01 296.854L44.0812 296.788L44.01 297.785ZM44.01 313.885L44.01 314.885L45.01 314.885L45.01 313.885L44.01 313.885ZM2.49999 313.885L2.49999 312.885L1.49999 312.885L1.49999 313.885L2.49999 313.885ZM2.49999 323.405L1.49999 323.405L1.49999 324.405L2.49999 324.405L2.49999 323.405ZM52.9 323.405L52.9 324.405L53.9 324.405L53.9 323.405L52.9 323.405ZM52.9 289.035L53.9 289.035L53.9 288.08L52.9461 288.036L52.9 289.035ZM46.775 288.72L46.72 289.719L46.7205 289.719L46.775 288.72ZM38.305 288.125L38.3874 287.128L38.3874 287.128L38.305 288.125ZM28.785 287.145L28.9064 286.152L28.9002 286.152L28.785 287.145ZM19.58 285.745L19.7685 284.763L19.7654 284.762L19.58 285.745ZM13.805 284.205L13.4226 285.129L13.4282 285.131L13.805 284.205ZM11.005 282.035L10.1353 282.529L10.1396 282.536L11.005 282.035ZM10.41 278.605L11.4078 278.671L11.4777 277.605L10.41 277.605L10.41 278.605ZM1.51893 278.411C0.779219 282.158 0.844695 285.262 1.90462 287.594L3.72535 286.766C2.91861 284.991 2.77409 282.379 3.48105 278.799L1.51893 278.411ZM1.90287 287.59C2.94511 289.909 4.74242 291.647 7.22008 292.81L8.06989 291C5.97422 290.016 4.55153 288.604 3.7271 286.77L1.90287 287.59ZM7.22008 292.81C9.60141 293.928 12.4965 294.812 15.8878 295.476L16.2721 293.514C12.9901 292.871 10.2619 292.029 8.06989 291L7.22008 292.81ZM15.8753 295.474C18.466 296.016 21.1375 296.475 23.8895 296.851L24.1605 294.869C21.4525 294.499 18.8273 294.048 16.2847 293.516L15.8753 295.474ZM23.8895 296.851C26.6303 297.226 29.2787 297.542 31.8346 297.8L32.0354 295.81C29.5046 295.555 26.8797 295.241 24.1605 294.869L23.8895 296.851ZM31.8346 297.8C34.3869 298.058 36.7201 298.257 38.8335 298.398L38.9665 296.402C36.8799 296.263 34.5697 296.066 32.0354 295.81L31.8346 297.8ZM38.8224 298.397C40.9234 298.56 42.6291 298.689 43.9387 298.783L44.0812 296.788C42.7775 296.694 41.0765 296.566 38.9775 296.403L38.8224 298.397ZM43.01 297.785L43.01 313.885L45.01 313.885L45.01 297.785L43.01 297.785ZM44.01 312.885L2.49999 312.885L2.49999 314.885L44.01 314.885L44.01 312.885ZM1.49999 313.885L1.49999 323.405L3.49999 323.405L3.49999 313.885L1.49999 313.885ZM2.49999 324.405L52.9 324.405L52.9 322.405L2.49999 322.405L2.49999 324.405ZM53.9 323.405L53.9 289.035L51.9 289.035L51.9 323.405L53.9 323.405ZM52.9461 288.036C51.4335 287.966 49.395 287.861 46.8295 287.722L46.7205 289.719C49.2884 289.859 51.3332 289.964 52.8539 290.034L52.9461 288.036ZM46.83 287.722C44.2975 287.582 41.4835 287.385 38.3874 287.128L38.2226 289.122C41.3331 289.379 44.1658 289.578 46.72 289.719L46.83 287.722ZM38.3874 287.128C35.2977 286.873 32.1374 286.548 28.9064 286.152L28.6636 288.138C31.9193 288.536 35.1056 288.864 38.2226 289.122L38.3874 287.128ZM28.9002 286.152C25.7026 285.781 22.6588 285.318 19.7685 284.763L19.3914 286.727C22.3345 287.292 25.4274 287.762 28.6698 288.138L28.9002 286.152ZM19.7654 284.762C17.3192 284.301 15.4688 283.802 14.1818 283.279L13.4282 285.131C14.8945 285.728 16.8941 286.256 19.3946 286.728L19.7654 284.762ZM14.1873 283.281C12.9525 282.77 12.2351 282.164 11.8704 281.534L10.1396 282.536C10.8015 283.679 11.9509 284.52 13.4226 285.129L14.1873 283.281ZM11.8747 281.541C11.5146 280.907 11.322 279.98 11.4078 278.671L9.41213 278.54C9.31134 280.077 9.51539 281.436 10.1353 282.529L11.8747 281.541ZM10.41 277.605L2.49999 277.605L2.49999 279.605L10.41 279.605L10.41 277.605ZM2.49998 370.338L1.49998 370.338L1.49998 371.338L2.49998 371.338L2.49998 370.338ZM2.49998 360.818L2.49998 359.818L1.49998 359.818L1.49998 360.818L2.49998 360.818ZM19.58 360.818L19.58 361.818L20.58 361.818L20.58 360.818L19.58 360.818ZM19.58 350.213L20.58 350.213L20.58 349.587L20.0168 349.313L19.58 350.213ZM2.49998 341.918L1.49998 341.918L1.49998 342.544L2.06312 342.817L2.49998 341.918ZM2.49999 331.138L2.93775 330.239L1.49999 329.539L1.49999 331.138L2.49999 331.138ZM21.19 340.238L20.7522 341.137L21.6749 341.586L22.1001 340.652L21.19 340.238ZM27.105 333.868L26.6515 332.977L26.6422 332.981L27.105 333.868ZM47.09 334.953L47.6609 334.132L47.6609 334.132L47.09 334.953ZM52.62 344.858L51.6317 345.011L51.6335 345.022L51.6356 345.034L52.62 344.858ZM52.83 347.063L51.8304 347.091L51.8308 347.105L51.8315 347.118L52.83 347.063ZM52.9 370.338L52.9 371.338L53.9 371.338L53.9 370.338L52.9 370.338ZM28.47 360.818L27.47 360.818L27.47 361.818L28.47 361.818L28.47 360.818ZM44.01 360.818L44.01 361.818L45.01 361.818L45.01 360.818L44.01 360.818ZM43.94 347.868L42.9432 347.948L42.9432 347.948L43.94 347.868ZM43.66 346.258L42.6952 346.521L42.6985 346.533L43.66 346.258ZM41.875 343.283L41.2241 344.042L41.2348 344.051L41.875 343.283ZM39.11 341.813L39.3731 340.848L39.3655 340.846L39.3578 340.844L39.11 341.813ZM33.335 341.813L33.0925 340.843L33.0793 340.846L33.0662 340.85L33.335 341.813ZM30.57 343.283L29.9297 342.515L29.9192 342.524L30.57 343.283ZM28.82 346.258L29.7816 346.533L29.7847 346.521L28.82 346.258ZM28.54 347.868L27.5432 347.788L27.5432 347.788L28.54 347.868ZM3.49998 370.338L3.49998 360.818L1.49998 360.818L1.49998 370.338L3.49998 370.338ZM2.49998 361.818L19.58 361.818L19.58 359.818L2.49998 359.818L2.49998 361.818ZM20.58 360.818L20.58 350.213L18.58 350.213L18.58 360.818L20.58 360.818ZM20.0168 349.313L2.93685 341.018L2.06312 342.817L19.1431 351.112L20.0168 349.313ZM3.49998 341.918L3.49999 331.138L1.49999 331.138L1.49998 341.918L3.49998 341.918ZM2.06223 332.037L20.7522 341.137L21.6277 339.339L2.93775 330.239L2.06223 332.037ZM22.1001 340.652C23.3204 337.972 25.1411 336.021 27.5678 334.754L26.6422 332.981C23.7956 334.468 21.6729 336.764 20.2799 339.824L22.1001 340.652ZM27.5584 334.759C30.0583 333.487 32.944 332.838 36.24 332.838L36.24 330.838C32.676 330.838 29.4716 331.542 26.6515 332.977L27.5584 334.759ZM36.24 332.838C40.3177 332.838 43.7267 333.832 46.5191 335.774L47.6609 334.132C44.4799 331.92 40.6556 330.838 36.24 330.838L36.24 332.838ZM46.5191 335.774C49.2259 337.656 50.962 340.68 51.6317 345.011L53.6082 344.705C52.8779 339.982 50.9274 336.403 47.6609 334.132L46.5191 335.774ZM51.6356 345.034C51.7418 345.629 51.8082 346.313 51.8304 347.091L53.8296 347.034C53.8051 346.179 53.7315 345.394 53.6044 344.682L51.6356 345.034ZM51.8315 347.118C51.8778 347.951 51.9 348.595 51.9 349.058L53.9 349.058C53.9 348.541 53.8755 347.855 53.8284 347.007L51.8315 347.118ZM51.9 349.058L51.9 370.338L53.9 370.338L53.9 349.058L51.9 349.058ZM52.9 369.338L2.49998 369.338L2.49998 371.338L52.9 371.338L52.9 369.338ZM28.47 361.818L44.01 361.818L44.01 359.818L28.47 359.818L28.47 361.818ZM45.01 360.818L45.01 349.478L43.01 349.478L43.01 360.818L45.01 360.818ZM45.01 349.478C45.01 348.957 44.9852 348.393 44.9368 347.788L42.9432 347.948C42.9881 348.509 43.01 349.019 43.01 349.478L45.01 349.478ZM44.9368 347.788C44.8856 347.148 44.7821 346.545 44.6215 345.983L42.6985 346.533C42.8178 346.95 42.901 347.421 42.9432 347.948L44.9368 347.788ZM44.6247 345.995C44.2327 344.557 43.5439 343.372 42.5152 342.515L41.2348 344.051C41.886 344.594 42.3873 345.392 42.6952 346.521L44.6247 345.995ZM42.5258 342.524C41.5979 341.728 40.5442 341.168 39.3731 340.848L38.8469 342.778C39.7291 343.018 40.5187 343.437 41.2242 344.042L42.5258 342.524ZM39.3578 340.844C38.2844 340.569 37.2441 340.428 36.24 340.428L36.24 342.428C37.0558 342.428 37.9289 342.543 38.8622 342.782L39.3578 340.844ZM36.24 340.428C35.2362 340.428 34.1859 340.569 33.0925 340.843L33.5775 342.783C34.5374 342.543 35.4237 342.428 36.24 342.428L36.24 340.428ZM33.0662 340.85C31.9199 341.17 30.8729 341.729 29.9298 342.515L31.2102 344.051C31.9471 343.437 32.7434 343.016 33.6038 342.776L33.0662 340.85ZM29.9192 342.524C28.918 343.382 28.2453 344.564 27.8552 345.995L29.7847 346.521C30.0946 345.385 30.5886 344.584 31.2208 344.042L29.9192 342.524ZM27.8585 345.983C27.6978 346.545 27.5944 347.148 27.5432 347.788L29.5368 347.948C29.5789 347.421 29.6621 346.95 29.7815 346.533L27.8585 345.983ZM27.5432 347.788C27.4948 348.393 27.47 348.957 27.47 349.478L29.47 349.478C29.47 349.019 29.4919 348.509 29.5368 347.948L27.5432 347.788ZM27.47 349.478L27.47 360.818L29.47 360.818L29.47 349.478L27.47 349.478ZM2.49998 391.822L2.49998 390.822L1.49998 390.822L1.49998 391.822L2.49998 391.822ZM2.49998 401.342L1.49998 401.342L1.49998 402.342L2.49998 402.342L2.49998 401.342ZM44.01 401.342L45.01 401.342L45.01 400.342L44.01 400.342L44.01 401.342ZM44.01 417.232L43.01 417.232L43.01 418.232L44.01 418.232L44.01 417.232ZM52.9 417.232L52.9 418.232L53.9 418.232L53.9 417.232L52.9 417.232ZM52.9 375.932L53.9 375.932L53.9 374.932L52.9 374.932L52.9 375.932ZM44.01 375.932L44.01 374.932L43.01 374.932L43.01 375.932L44.01 375.932ZM44.01 391.822L44.01 392.822L45.01 392.822L45.01 391.822L44.01 391.822ZM1.49998 391.822L1.49998 401.342L3.49998 401.342L3.49998 391.822L1.49998 391.822ZM2.49998 402.342L44.01 402.342L44.01 400.342L2.49998 400.342L2.49998 402.342ZM43.01 401.342L43.01 417.232L45.01 417.232L45.01 401.342L43.01 401.342ZM44.01 418.232L52.9 418.232L52.9 416.232L44.01 416.232L44.01 418.232ZM53.9 417.232L53.9 375.932L51.9 375.932L51.9 417.232L53.9 417.232ZM52.9 374.932L44.01 374.932L44.01 376.932L52.9 376.932L52.9 374.932ZM43.01 375.932L43.01 391.822L45.01 391.822L45.01 375.932L43.01 375.932ZM44.01 390.822L2.49998 390.822L2.49998 392.822L44.01 392.822L44.01 390.822ZM4.73998 457.507L5.59796 456.993L5.5965 456.991L4.73998 457.507ZM13.945 465.942L14.3943 465.049L14.3901 465.047L13.945 465.942ZM41.455 465.942L41.0099 465.047L41.0057 465.049L41.455 465.942ZM50.66 457.507L49.8035 456.991L49.802 456.993L50.66 457.507ZM50.66 431.432L51.518 430.918L51.5165 430.916L50.66 431.432ZM41.455 422.997L41.9043 422.104L41.9001 422.102L41.455 422.997ZM13.945 422.997L13.4999 422.102L13.4957 422.104L13.945 422.997ZM4.73998 431.432L3.88346 430.916L3.88201 430.918L4.73998 431.432ZM10.41 444.487L9.41009 444.472L9.41009 444.472L10.41 444.487ZM15.17 433.707L14.5614 432.914L14.5577 432.916L15.17 433.707ZM40.335 433.707L40.9387 432.91L40.935 432.907L40.335 433.707ZM44.99 444.487L43.9901 444.472L43.9901 444.472L44.99 444.487ZM40.23 455.267L40.8385 456.061L40.8385 456.061L40.23 455.267ZM15.065 455.267L14.465 456.067L14.465 456.067L15.065 455.267ZM0.44998 444.487C0.44998 449.675 1.58008 454.201 3.88346 458.023L5.5965 456.991C3.51321 453.534 2.44998 449.379 2.44998 444.487L0.44998 444.487ZM3.88201 458.021C6.17681 461.854 9.39091 464.795 13.4999 466.838L14.3901 465.047C10.6124 463.169 7.68981 460.487 5.59795 456.993L3.88201 458.021ZM13.4957 466.835C17.6018 468.901 22.3458 469.917 27.7 469.917L27.7 467.917C22.6008 467.917 18.1748 466.95 14.3943 465.049L13.4957 466.835ZM27.7 469.917C33.0541 469.917 37.7981 468.901 41.9043 466.835L41.0057 465.049C37.2252 466.95 32.7992 467.917 27.7 467.917L27.7 469.917ZM41.9001 466.838C46.0091 464.795 49.2231 461.854 51.518 458.021L49.802 456.993C47.7101 460.487 44.7876 463.169 41.0099 465.047L41.9001 466.838ZM51.5165 458.023C53.8199 454.201 54.95 449.675 54.95 444.487L52.95 444.487C52.95 449.379 51.8868 453.534 49.8035 456.991L51.5165 458.023ZM54.95 444.487C54.95 439.299 53.8198 434.763 51.518 430.918L49.802 431.946C51.8868 435.428 52.95 439.595 52.95 444.487L54.95 444.487ZM51.5165 430.916C49.2219 427.108 46.0094 424.168 41.9043 422.104L41.0057 423.89C44.7872 425.792 47.7114 428.476 49.8035 431.948L51.5165 430.916ZM41.9001 422.102C37.7949 420.061 33.0524 419.057 27.7 419.057L27.7 421.057C32.8009 421.057 37.2284 422.013 41.0099 423.893L41.9001 422.102ZM27.7 419.057C22.3475 419.057 17.6051 420.061 13.4999 422.102L14.3901 423.893C18.1715 422.013 22.5991 421.057 27.7 421.057L27.7 419.057ZM13.4957 422.104C9.39056 424.168 6.17809 427.108 3.88346 430.916L5.5965 431.948C7.68854 428.476 10.6127 425.792 14.3943 423.89L13.4957 422.104ZM3.88201 430.918C1.58015 434.763 0.449981 439.299 0.44998 444.487L2.44998 444.487C2.44998 439.595 3.51314 435.428 5.59796 431.946L3.88201 430.918ZM11.4099 444.502C11.4765 439.949 12.9722 436.674 15.7823 434.498L14.5577 432.916C11.1611 435.547 9.48346 439.459 9.41009 444.472L11.4099 444.502ZM15.7785 434.501C18.656 432.294 22.5952 431.137 27.7 431.137L27.7 429.137C22.3048 429.137 17.8907 430.36 14.5614 432.914L15.7785 434.501ZM27.7 431.137C32.8033 431.137 36.7832 432.293 39.735 434.507L40.935 432.907C37.5401 430.361 33.0967 429.137 27.7 429.137L27.7 431.137ZM39.7312 434.504C42.5982 436.675 44.0565 439.935 43.9901 444.472L45.9899 444.502C46.0635 439.473 44.4184 435.545 40.9387 432.91L39.7312 434.504ZM43.9901 444.472C43.9234 449.051 42.4266 452.322 39.6214 454.474L40.8385 456.061C44.24 453.452 45.9166 449.537 45.9899 444.502L43.9901 444.472ZM39.6214 454.474C36.744 456.68 32.8048 457.837 27.7 457.837L27.7 459.837C33.0952 459.837 37.5093 458.614 40.8385 456.061L39.6214 454.474ZM27.7 457.837C22.5967 457.837 18.6167 456.681 15.665 454.467L14.465 456.067C17.8599 458.613 22.3033 459.837 27.7 459.837L27.7 457.837ZM15.665 454.467C12.8031 452.321 11.3434 449.065 11.4099 444.502L9.41009 444.472C9.33654 449.523 10.9802 453.453 14.465 456.067L15.665 454.467ZM2.49998 475.904L2.49998 474.904L1.49998 474.904L1.49998 475.904L2.49998 475.904ZM2.49998 485.424L1.49998 485.424L1.49998 486.424L2.49998 486.424L2.49998 485.424ZM19.58 485.424L20.58 485.424L20.58 484.424L19.58 484.424L19.58 485.424ZM19.65 499.144L18.6515 499.199L18.6515 499.199L19.65 499.144ZM19.86 501.384L18.8699 501.525L18.872 501.538L19.86 501.384ZM25.39 511.254L24.8148 512.072L24.8178 512.074L25.39 511.254ZM52.62 501.384L51.6356 501.208L51.6335 501.22L51.6317 501.231L52.62 501.384ZM52.83 499.144L51.8316 499.087L51.8308 499.101L51.8304 499.116L52.83 499.144ZM52.9 475.904L53.9 475.904L53.9 474.904L52.9 474.904L52.9 475.904ZM28.47 485.424L28.47 484.424L27.47 484.424L27.47 485.424L28.47 485.424ZM44.01 485.424L45.01 485.424L45.01 484.424L44.01 484.424L44.01 485.424ZM43.94 498.374L42.9432 498.294L42.9432 498.294L43.94 498.374ZM43.66 499.984L42.6984 499.709L42.6952 499.721L43.66 499.984ZM41.875 502.959L41.2347 502.191L41.2242 502.2L41.875 502.959ZM39.11 504.394L38.8674 503.424L38.8543 503.427L38.8412 503.431L39.11 504.394ZM33.335 504.394L33.5981 503.429L33.5905 503.427L33.5828 503.425L33.335 504.394ZM30.57 502.959L29.9191 503.718L29.9298 503.727L30.57 502.959ZM28.82 499.984L29.7848 499.721L29.7815 499.709L28.82 499.984ZM28.54 498.374L27.5432 498.454L27.5432 498.454L28.54 498.374ZM1.49998 475.904L1.49998 485.424L3.49998 485.424L3.49998 475.904L1.49998 475.904ZM2.49998 486.424L19.58 486.424L19.58 484.424L2.49998 484.424L2.49998 486.424ZM18.58 485.424L18.58 497.184L20.58 497.184L20.58 485.424L18.58 485.424ZM18.58 497.184C18.58 497.678 18.6045 498.353 18.6515 499.199L20.6484 499.088C20.6021 498.255 20.58 497.623 20.58 497.184L18.58 497.184ZM18.6515 499.199C18.6994 500.061 18.7717 500.837 18.87 501.525L20.8499 501.242C20.7616 500.624 20.6939 499.907 20.6484 499.088L18.6515 499.199ZM18.872 501.538C19.6031 506.217 21.5549 509.78 24.8148 512.072L25.9652 510.436C23.2517 508.528 21.5169 505.51 20.848 501.23L18.872 501.538ZM24.8178 512.074C28.02 514.308 31.8439 515.404 36.24 515.404L36.24 513.404C32.1894 513.404 28.78 512.4 25.9622 510.434L24.8178 512.074ZM36.24 515.404C40.6556 515.404 44.4799 514.322 47.6609 512.11L46.5191 510.468C43.7267 512.409 40.3177 513.404 36.24 513.404L36.24 515.404ZM47.6609 512.11C50.9274 509.839 52.8779 506.259 53.6082 501.537L51.6317 501.231C50.962 505.562 49.2259 508.586 46.5191 510.468L47.6609 512.11ZM53.6044 501.56C53.7317 500.847 53.8052 500.049 53.8296 499.172L51.8304 499.116C51.8081 499.919 51.7415 500.615 51.6356 501.208L53.6044 501.56ZM53.8284 499.201C53.8755 498.376 53.9 497.701 53.9 497.184L51.9 497.184C51.9 497.647 51.8778 498.278 51.8316 499.087L53.8284 499.201ZM53.9 497.184L53.9 475.904L51.9 475.904L51.9 497.184L53.9 497.184ZM52.9 474.904L2.49998 474.904L2.49998 476.904L52.9 476.904L52.9 474.904ZM28.47 486.424L44.01 486.424L44.01 484.424L28.47 484.424L28.47 486.424ZM43.01 485.424L43.01 496.764L45.01 496.764L45.01 485.424L43.01 485.424ZM43.01 496.764C43.01 497.223 42.9881 497.732 42.9432 498.294L44.9368 498.454C44.9852 497.849 45.01 497.285 45.01 496.764L43.01 496.764ZM42.9432 498.294C42.901 498.821 42.8178 499.291 42.6985 499.709L44.6215 500.259C44.7821 499.696 44.8856 499.093 44.9368 498.454L42.9432 498.294ZM42.6952 499.721C42.3873 500.85 41.886 501.648 41.2348 502.191L42.5152 503.727C43.5439 502.87 44.2327 501.685 44.6247 500.247L42.6952 499.721ZM41.2242 502.2C40.5234 502.8 39.741 503.205 38.8674 503.424L39.3525 505.364C40.5323 505.069 41.5932 504.517 42.5258 503.718L41.2242 502.2ZM38.8412 503.431C37.913 503.69 37.0471 503.814 36.24 503.814L36.24 505.814C37.2528 505.814 38.3003 505.658 39.3788 505.357L38.8412 503.431ZM36.24 503.814C35.4324 503.814 34.5531 503.69 33.5981 503.429L33.0719 505.359C34.1702 505.658 35.2276 505.814 36.24 505.814L36.24 503.814ZM33.5828 503.425C32.7316 503.207 31.9424 502.801 31.2102 502.191L29.9298 503.727C30.8775 504.517 31.9317 505.067 33.0871 505.363L33.5828 503.425ZM31.2208 502.2C30.5886 501.658 30.0946 500.857 29.7847 499.721L27.8552 500.247C28.2453 501.677 28.918 502.86 29.9192 503.718L31.2208 502.2ZM29.7815 499.709C29.6621 499.291 29.5789 498.821 29.5368 498.294L27.5432 498.454C27.5944 499.093 27.6978 499.696 27.8585 500.259L29.7815 499.709ZM29.5368 498.294C29.4919 497.732 29.47 497.223 29.47 496.764L27.47 496.764C27.47 497.285 27.4948 497.849 27.5432 498.454L29.5368 498.294ZM29.47 496.764L29.47 485.424L27.47 485.424L27.47 496.764L29.47 496.764Z" fill="#28272D"/>
</svg>
