<svg width="62" height="534" viewBox="0 0 62 534" fill="none" xmlns="http://www.w3.org/2000/svg">
<path d="M9.5 1.4L9.5 0.399997L8.5 0.399997L8.5 1.4L9.5 1.4ZM9.5 10.92L8.5 10.92L8.5 11.92L9.5 11.92L9.5 10.92ZM32.46 10.92L33.1185 11.6726L35.1214 9.92L32.46 9.92L32.46 10.92ZM9.5 31.01L8.84149 30.2574L8.5 30.5562L8.5 31.01L9.5 31.01ZM9.5 43.05L8.5 43.05L8.5 45.2566L10.1592 43.8019L9.5 43.05ZM35.05 20.65L35.6967 19.8873L35.0391 19.3297L34.3908 19.8981L35.05 20.65ZM59.9 41.72L59.2533 42.4827L60.9 43.879L60.9 41.72L59.9 41.72ZM59.9 30.1L60.9 30.1L60.9 29.6287L60.5365 29.3287L59.9 30.1ZM36.66 10.92L36.66 9.92L33.8773 9.92L36.0235 11.6913L36.66 10.92ZM59.9 10.92L59.9 11.92L60.9 11.92L60.9 10.92L59.9 10.92ZM59.9 1.4L60.9 1.4L60.9 0.399999L59.9 0.399999L59.9 1.4ZM8.5 1.4L8.5 10.92L10.5 10.92L10.5 1.4L8.5 1.4ZM9.5 11.92L32.46 11.92L32.46 9.92L9.5 9.92L9.5 11.92ZM31.8015 10.1674L8.84149 30.2574L10.1585 31.7626L33.1185 11.6726L31.8015 10.1674ZM8.5 31.01L8.5 43.05L10.5 43.05L10.5 31.01L8.5 31.01ZM10.1592 43.8019L35.7092 21.4019L34.3908 19.8981L8.84076 42.2981L10.1592 43.8019ZM34.4033 21.4127L59.2533 42.4827L60.5467 40.9573L35.6967 19.8873L34.4033 21.4127ZM60.9 41.72L60.9 30.1L58.9 30.1L58.9 41.72L60.9 41.72ZM60.5365 29.3287L37.2965 10.1487L36.0235 11.6913L59.2635 30.8713L60.5365 29.3287ZM36.66 11.92L59.9 11.92L59.9 9.92L36.66 9.92L36.66 11.92ZM60.9 10.92L60.9 1.4L58.9 1.4L58.9 10.92L60.9 10.92ZM59.9 0.399999L9.5 0.399997L9.5 2.4L59.9 2.4L59.9 0.399999ZM11.74 79.8L12.598 79.2863L12.5965 79.2839L11.74 79.8ZM20.945 88.235L21.3943 87.3416L21.3901 87.3395L20.945 88.235ZM48.455 88.235L48.0099 87.3395L48.0057 87.3416L48.455 88.235ZM57.66 79.8L56.8035 79.2839L56.802 79.2863L57.66 79.8ZM57.66 53.725L58.518 53.2113L58.5165 53.2089L57.66 53.725ZM48.455 45.29L48.9043 44.3966L48.9001 44.3945L48.455 45.29ZM20.945 45.29L20.4999 44.3945L20.4957 44.3966L20.945 45.29ZM11.74 53.725L10.8835 53.2089L10.882 53.2113L11.74 53.725ZM17.41 66.78L16.4101 66.7654L16.4101 66.7654L17.41 66.78ZM22.17 56L21.5614 55.2065L21.5577 55.2094L22.17 56ZM47.335 56L47.9388 55.2028L47.935 55.2L47.335 56ZM51.99 66.78L50.9901 66.7654L50.9901 66.7654L51.99 66.78ZM47.23 77.56L47.8386 78.3535L47.23 77.56ZM22.065 77.56L21.465 78.36L22.065 77.56ZM7.44999 66.78C7.44999 71.9678 8.5801 76.4935 10.8835 80.3161L12.5965 79.2839C10.5132 75.8265 9.44999 71.6722 9.44999 66.78L7.44999 66.78ZM10.882 80.3137C13.1768 84.1465 16.3909 87.0881 20.4999 89.1305L21.3901 87.3395C17.6124 85.4619 14.6898 82.7802 12.598 79.2863L10.882 80.3137ZM20.4957 89.1284C24.6019 91.1936 29.3458 92.21 34.7 92.21L34.7 90.21C29.6008 90.21 25.1748 89.2431 21.3943 87.3416L20.4957 89.1284ZM34.7 92.21C40.0541 92.21 44.7981 91.1936 48.9043 89.1284L48.0057 87.3416C44.2252 89.2431 39.7992 90.21 34.7 90.21L34.7 92.21ZM48.9001 89.1305C53.0091 87.0881 56.2232 84.1465 58.518 80.3137L56.802 79.2863C54.7102 82.7802 51.7876 85.4619 48.0099 87.3395L48.9001 89.1305ZM58.5165 80.3161C60.8199 76.4935 61.95 71.9678 61.95 66.78L59.95 66.78C59.95 71.6722 58.8868 75.8265 56.8035 79.2839L58.5165 80.3161ZM61.95 66.78C61.95 61.592 60.8198 57.0559 58.518 53.2113L56.802 54.2387C58.8868 57.7208 59.95 61.888 59.95 66.78L61.95 66.78ZM58.5165 53.2089C56.2219 49.4008 53.0094 46.4613 48.9043 44.3966L48.0057 46.1834C51.7872 48.0853 54.7114 50.7692 56.8035 54.2411L58.5165 53.2089ZM48.9001 44.3945C44.7949 42.3541 40.0525 41.35 34.7 41.35L34.7 43.35C39.8009 43.35 44.2284 44.3059 48.0099 46.1855L48.9001 44.3945ZM34.7 41.35C29.3475 41.35 24.6051 42.3541 20.4999 44.3945L21.3901 46.1855C25.1716 44.3059 29.5991 43.35 34.7 43.35L34.7 41.35ZM20.4957 44.3966C16.3906 46.4613 13.1781 49.4008 10.8835 53.2089L12.5965 54.2411C14.6886 50.7692 17.6128 48.0853 21.3943 46.1834L20.4957 44.3966ZM10.882 53.2113C8.58017 57.0559 7.44999 61.592 7.44999 66.78L9.44999 66.78C9.44999 61.888 10.5132 57.7208 12.598 54.2387L10.882 53.2113ZM18.4099 66.7946C18.4765 62.2419 19.9722 58.9669 22.7823 56.7906L21.5577 55.2094C18.1611 57.8398 16.4835 61.7515 16.4101 66.7654L18.4099 66.7946ZM22.7786 56.7935C25.656 54.5868 29.5952 53.43 34.7 53.43L34.7 51.43C29.3048 51.43 24.8907 52.6532 21.5614 55.2065L22.7786 56.7935ZM34.7 53.43C39.8033 53.43 43.7833 54.5862 46.735 56.8L47.935 55.2C44.5401 52.6538 40.0967 51.43 34.7 51.43L34.7 53.43ZM46.7313 56.7972C49.5982 58.9685 51.0565 62.2278 50.9901 66.7654L52.9899 66.7946C53.0635 61.7655 51.4185 57.8382 47.9387 55.2028L46.7313 56.7972ZM50.9901 66.7654C50.9234 71.3437 49.4266 74.6152 46.6214 76.7665L47.8386 78.3535C51.2401 75.7448 52.9166 71.8296 52.9899 66.7946L50.9901 66.7654ZM46.6214 76.7665C43.744 78.9732 39.8048 80.13 34.7 80.13L34.7 82.13C40.0952 82.13 44.5093 80.9068 47.8386 78.3535L46.6214 76.7665ZM34.7 80.13C29.5967 80.13 25.6167 78.9738 22.665 76.76L21.465 78.36C24.8599 80.9062 29.3033 82.13 34.7 82.13L34.7 80.13ZM22.665 76.76C19.8031 74.6136 18.3434 71.3577 18.4099 66.7946L16.4101 66.7654C16.3366 71.8156 17.9802 75.7464 21.465 78.36L22.665 76.76ZM9.5 98.1969L9.5 97.1969L8.5 97.1969L8.5 98.1969L9.5 98.1969ZM9.5 107.087L8.5 107.087L8.5 108.087L9.5 108.087L9.5 107.087ZM39.6 107.087L40.0371 107.986L39.6 106.087L39.6 107.087ZM9.49999 121.717L9.06285 120.817L8.49999 121.091L8.49999 121.717L9.49999 121.717ZM9.49999 125.077L8.49999 125.077L8.49999 125.703L9.06285 125.976L9.49999 125.077ZM39.6 139.707L39.6 140.707L40.0371 138.807L39.6 139.707ZM9.49999 139.707L9.49999 138.707L8.49999 138.707L8.49999 139.707L9.49999 139.707ZM9.49999 148.597L8.49999 148.597L8.49999 149.597L9.49999 149.597L9.49999 148.597ZM59.9 148.597L59.9 149.597L60.9 149.597L60.9 148.597L59.9 148.597ZM59.9 140.057L60.9 140.057L60.9 139.438L60.3457 139.162L59.9 140.057ZM26.44 123.397L25.9943 122.502L24.1964 123.397L25.9943 124.292L26.44 123.397ZM59.9 106.737L60.3457 107.632L60.9 107.356L60.9 106.737L59.9 106.737ZM59.9 98.1969L60.9 98.1969L60.9 97.1969L59.9 97.1969L59.9 98.1969ZM8.5 98.1969L8.5 107.087L10.5 107.087L10.5 98.1969L8.5 98.1969ZM9.5 108.087L39.6 108.087L39.6 106.087L9.5 106.087L9.5 108.087ZM39.1628 106.187L9.06285 120.817L9.93714 122.616L40.0371 107.986L39.1628 106.187ZM8.49999 121.717L8.49999 125.077L10.5 125.077L10.5 121.717L8.49999 121.717ZM9.06285 125.976L39.1628 140.606L40.0371 138.807L9.93714 124.177L9.06285 125.976ZM39.6 138.707L9.49999 138.707L9.49999 140.707L39.6 140.707L39.6 138.707ZM8.49999 139.707L8.49999 148.597L10.5 148.597L10.5 139.707L8.49999 139.707ZM9.49999 149.597L59.9 149.597L59.9 147.597L9.49999 147.597L9.49999 149.597ZM60.9 148.597L60.9 140.057L58.9 140.057L58.9 148.597L60.9 148.597ZM60.3457 139.162L26.8857 122.502L25.9943 124.292L59.4543 140.952L60.3457 139.162ZM26.8857 124.292L60.3457 107.632L59.4543 105.842L25.9943 122.502L26.8857 124.292ZM60.9 106.737L60.9 98.1969L58.9 98.1969L58.9 106.737L60.9 106.737ZM59.9 97.1969L9.5 97.1969L9.5 99.1969L59.9 99.1969L59.9 97.1969ZM9.49999 158.421L9.49999 157.421L8.49999 157.421L8.49999 158.421L9.49999 158.421ZM9.49999 167.941L8.49999 167.941L8.49999 168.941L9.49999 168.941L9.49999 167.941ZM51.01 167.941L52.01 167.941L52.01 166.941L51.01 166.941L51.01 167.941ZM51.01 190.481L51.01 191.481L52.01 191.481L52.01 190.481L51.01 190.481ZM9.49999 190.481L9.49999 189.481L8.49999 189.481L8.49999 190.481L9.49999 190.481ZM9.49999 200.001L8.49999 200.001L8.49999 201.001L9.49999 201.001L9.49999 200.001ZM59.9 200.001L59.9 201.001L60.9 201.001L60.9 200.001L59.9 200.001ZM59.9 158.421L60.9 158.421L60.9 157.421L59.9 157.421L59.9 158.421ZM8.49999 158.421L8.49999 167.941L10.5 167.941L10.5 158.421L8.49999 158.421ZM9.49999 168.941L51.01 168.941L51.01 166.941L9.49999 166.941L9.49999 168.941ZM50.01 167.941L50.01 190.481L52.01 190.481L52.01 167.941L50.01 167.941ZM51.01 189.481L9.49999 189.481L9.49999 191.481L51.01 191.481L51.01 189.481ZM8.49999 190.481L8.49999 200.001L10.5 200.001L10.5 190.481L8.49999 190.481ZM9.49999 201.001L59.9 201.001L59.9 199.001L9.49999 199.001L9.49999 201.001ZM60.9 200.001L60.9 158.421L58.9 158.421L58.9 200.001L60.9 200.001ZM59.9 157.421L9.49999 157.421L9.49999 159.421L59.9 159.421L59.9 157.421ZM9.49999 209.828L9.49999 208.828L8.49999 208.828L8.49999 209.828L9.49999 209.828ZM9.49999 242.728L8.49999 242.728L8.49999 243.728L9.49999 243.728L9.49999 242.728ZM18.39 242.728L18.39 243.728L19.39 243.728L19.39 242.728L18.39 242.728ZM18.39 219.348L18.39 218.348L17.39 218.348L17.39 219.348L18.39 219.348ZM31.34 219.348L32.34 219.348L32.34 218.348L31.34 218.348L31.34 219.348ZM31.34 238.528L30.34 238.528L30.34 239.528L31.34 239.528L31.34 238.528ZM40.23 238.528L40.23 239.528L41.23 239.528L41.23 238.528L40.23 238.528ZM40.23 219.348L40.23 218.348L39.23 218.348L39.23 219.348L40.23 219.348ZM51.01 219.348L52.01 219.348L52.01 218.348L51.01 218.348L51.01 219.348ZM51.01 242.728L50.01 242.728L50.01 243.728L51.01 243.728L51.01 242.728ZM59.9 242.728L59.9 243.728L60.9 243.728L60.9 242.728L59.9 242.728ZM59.9 209.828L60.9 209.828L60.9 208.828L59.9 208.828L59.9 209.828ZM8.49999 209.828L8.49999 242.728L10.5 242.728L10.5 209.828L8.49999 209.828ZM9.49999 243.728L18.39 243.728L18.39 241.728L9.49999 241.728L9.49999 243.728ZM19.39 242.728L19.39 219.348L17.39 219.348L17.39 242.728L19.39 242.728ZM18.39 220.348L31.34 220.348L31.34 218.348L18.39 218.348L18.39 220.348ZM30.34 219.348L30.34 238.528L32.34 238.528L32.34 219.348L30.34 219.348ZM31.34 239.528L40.23 239.528L40.23 237.528L31.34 237.528L31.34 239.528ZM41.23 238.528L41.23 219.348L39.23 219.348L39.23 238.528L41.23 238.528ZM40.23 220.348L51.01 220.348L51.01 218.348L40.23 218.348L40.23 220.348ZM50.01 219.348L50.01 242.728L52.01 242.728L52.01 219.348L50.01 219.348ZM51.01 243.728L59.9 243.728L59.9 241.728L51.01 241.728L51.01 243.728ZM60.9 242.728L60.9 209.828L58.9 209.828L58.9 242.728L60.9 242.728ZM59.9 208.828L9.49999 208.828L9.49999 210.828L59.9 210.828L59.9 208.828ZM9.49999 262.807L9.49999 261.807L8.49999 261.807L8.49999 262.807L9.49999 262.807ZM9.49999 272.327L8.49999 272.327L8.49999 273.327L9.49999 273.327L9.49999 272.327ZM51.01 272.327L52.01 272.327L52.01 271.327L51.01 271.327L51.01 272.327ZM51.01 288.217L50.01 288.217L50.01 289.217L51.01 289.217L51.01 288.217ZM59.9 288.217L59.9 289.217L60.9 289.217L60.9 288.217L59.9 288.217ZM59.9 246.917L60.9 246.917L60.9 245.917L59.9 245.917L59.9 246.917ZM51.01 246.917L51.01 245.917L50.01 245.917L50.01 246.917L51.01 246.917ZM51.01 262.807L51.01 263.807L52.01 263.807L52.01 262.807L51.01 262.807ZM8.49999 262.807L8.49999 272.327L10.5 272.327L10.5 262.807L8.49999 262.807ZM9.49999 273.327L51.01 273.327L51.01 271.327L9.49999 271.327L9.49999 273.327ZM50.01 272.327L50.01 288.217L52.01 288.217L52.01 272.327L50.01 272.327ZM51.01 289.217L59.9 289.217L59.9 287.217L51.01 287.217L51.01 289.217ZM60.9 288.217L60.9 246.917L58.9 246.917L58.9 288.217L60.9 288.217ZM59.9 245.917L51.01 245.917L51.01 247.917L59.9 247.917L59.9 245.917ZM50.01 246.917L50.01 262.807L52.01 262.807L52.01 246.917L50.01 246.917ZM51.01 261.807L9.49999 261.807L9.49999 263.807L51.01 263.807L51.01 261.807ZM9.49999 293.841L9.49999 292.841L8.49999 292.841L8.49999 293.841L9.49999 293.841ZM9.49999 326.741L8.49999 326.741L8.49999 327.741L9.49999 327.741L9.49999 326.741ZM18.39 326.741L18.39 327.741L19.39 327.741L19.39 326.741L18.39 326.741ZM18.39 303.361L18.39 302.361L17.39 302.361L17.39 303.361L18.39 303.361ZM31.34 303.361L32.34 303.361L32.34 302.361L31.34 302.361L31.34 303.361ZM31.34 322.541L30.34 322.541L30.34 323.541L31.34 323.541L31.34 322.541ZM40.23 322.541L40.23 323.541L41.23 323.541L41.23 322.541L40.23 322.541ZM40.23 303.361L40.23 302.361L39.23 302.361L39.23 303.361L40.23 303.361ZM51.01 303.361L52.01 303.361L52.01 302.361L51.01 302.361L51.01 303.361ZM51.01 326.741L50.01 326.741L50.01 327.741L51.01 327.741L51.01 326.741ZM59.9 326.741L59.9 327.741L60.9 327.741L60.9 326.741L59.9 326.741ZM59.9 293.841L60.9 293.841L60.9 292.841L59.9 292.841L59.9 293.841ZM8.49999 293.841L8.49999 326.741L10.5 326.741L10.5 293.841L8.49999 293.841ZM9.49999 327.741L18.39 327.741L18.39 325.741L9.49999 325.741L9.49999 327.741ZM19.39 326.741L19.39 303.361L17.39 303.361L17.39 326.741L19.39 326.741ZM18.39 304.361L31.34 304.361L31.34 302.361L18.39 302.361L18.39 304.361ZM30.34 303.361L30.34 322.541L32.34 322.541L32.34 303.361L30.34 303.361ZM31.34 323.541L40.23 323.541L40.23 321.541L31.34 321.541L31.34 323.541ZM41.23 322.541L41.23 303.361L39.23 303.361L39.23 322.541L41.23 322.541ZM40.23 304.361L51.01 304.361L51.01 302.361L40.23 302.361L40.23 304.361ZM50.01 303.361L50.01 326.741L52.01 326.741L52.01 303.361L50.01 303.361ZM51.01 327.741L59.9 327.741L59.9 325.741L51.01 325.741L51.01 327.741ZM60.9 326.741L60.9 293.841L58.9 293.841L58.9 326.741L60.9 326.741ZM59.9 292.841L9.49999 292.841L9.49999 294.841L59.9 294.841L59.9 292.841ZM9.49999 335.13L9.49999 334.13L8.49999 334.13L8.49999 335.13L9.49999 335.13ZM9.49998 344.65L8.49998 344.65L8.49998 345.65L9.49998 345.65L9.49998 344.65ZM30.29 344.65L31.29 344.65L31.29 343.65L30.29 343.65L30.29 344.65ZM30.29 367.19L30.29 368.19L31.29 368.19L31.29 367.19L30.29 367.19ZM9.49998 367.19L9.49998 366.19L8.49998 366.19L8.49998 367.19L9.49998 367.19ZM9.49998 376.71L8.49998 376.71L8.49998 377.71L9.49998 377.71L9.49998 376.71ZM59.9 376.71L59.9 377.71L60.9 377.71L60.9 376.71L59.9 376.71ZM59.9 367.19L60.9 367.19L60.9 366.19L59.9 366.19L59.9 367.19ZM39.18 367.19L38.18 367.19L38.18 368.19L39.18 368.19L39.18 367.19ZM39.18 344.65L39.18 343.65L38.18 343.65L38.18 344.65L39.18 344.65ZM59.9 344.65L59.9 345.65L60.9 345.65L60.9 344.65L59.9 344.65ZM59.9 335.13L60.9 335.13L60.9 334.13L59.9 334.13L59.9 335.13ZM8.49999 335.13L8.49998 344.65L10.5 344.65L10.5 335.13L8.49999 335.13ZM9.49998 345.65L30.29 345.65L30.29 343.65L9.49998 343.65L9.49998 345.65ZM29.29 344.65L29.29 367.19L31.29 367.19L31.29 344.65L29.29 344.65ZM30.29 366.19L9.49998 366.19L9.49998 368.19L30.29 368.19L30.29 366.19ZM8.49998 367.19L8.49998 376.71L10.5 376.71L10.5 367.19L8.49998 367.19ZM9.49998 377.71L59.9 377.71L59.9 375.71L9.49998 375.71L9.49998 377.71ZM60.9 376.71L60.9 367.19L58.9 367.19L58.9 376.71L60.9 376.71ZM59.9 366.19L39.18 366.19L39.18 368.19L59.9 368.19L59.9 366.19ZM40.18 367.19L40.18 344.65L38.18 344.65L38.18 367.19L40.18 367.19ZM39.18 345.65L59.9 345.65L59.9 343.65L39.18 343.65L39.18 345.65ZM60.9 344.65L60.9 335.13L58.9 335.13L58.9 344.65L60.9 344.65ZM59.9 334.13L9.49999 334.13L9.49999 336.13L59.9 336.13L59.9 334.13ZM1.09998 424.687L1.09998 423.687L0.0999798 423.687L0.0999798 424.687L1.09998 424.687ZM1.09998 434.207L0.0999793 434.207L0.0999793 435.207L1.09998 435.207L1.09998 434.207ZM17.9 434.207L17.9 435.207L18.9 435.207L18.9 434.207L17.9 434.207ZM17.9 428.537L17.9 427.537L16.9 427.537L16.9 428.537L17.9 428.537ZM58.5 428.537L58.5 429.537L59.5 429.537L59.5 428.537L58.5 428.537ZM58.5 419.017L59.5 419.017L59.5 418.017L58.5 418.017L58.5 419.017ZM17.9 419.017L16.9 419.017L16.9 420.017L17.9 420.017L17.9 419.017ZM17.9 396.057L17.9 395.057L16.9 395.057L16.9 396.057L17.9 396.057ZM59.9 396.057L59.9 397.057L60.9 397.057L60.9 396.057L59.9 396.057ZM59.9 386.537L60.9 386.537L60.9 385.537L59.9 385.537L59.9 386.537ZM9.49998 386.537L9.49998 385.537L8.49998 385.537L8.49998 386.537L9.49998 386.537ZM9.49998 424.687L9.49998 425.687L10.5 425.687L10.5 424.687L9.49998 424.687ZM0.0999798 424.687L0.0999793 434.207L2.09998 434.207L2.09998 424.687L0.0999798 424.687ZM1.09998 435.207L17.9 435.207L17.9 433.207L1.09998 433.207L1.09998 435.207ZM18.9 434.207L18.9 428.537L16.9 428.537L16.9 434.207L18.9 434.207ZM17.9 429.537L58.5 429.537L58.5 427.537L17.9 427.537L17.9 429.537ZM59.5 428.537L59.5 419.017L57.5 419.017L57.5 428.537L59.5 428.537ZM58.5 418.017L17.9 418.017L17.9 420.017L58.5 420.017L58.5 418.017ZM18.9 419.017L18.9 396.057L16.9 396.057L16.9 419.017L18.9 419.017ZM17.9 397.057L59.9 397.057L59.9 395.057L17.9 395.057L17.9 397.057ZM60.9 396.057L60.9 386.537L58.9 386.537L58.9 396.057L60.9 396.057ZM59.9 385.537L9.49998 385.537L9.49998 387.537L59.9 387.537L59.9 385.537ZM8.49998 386.537L8.49998 424.687L10.5 424.687L10.5 386.537L8.49998 386.537ZM9.49998 423.687L1.09998 423.687L1.09998 425.687L9.49998 425.687L9.49998 423.687ZM9.49998 481.019L8.49998 481.019L8.49998 482.019L9.49998 482.019L9.49998 481.019ZM9.49998 471.359L9.49998 470.359L8.49998 470.359L8.49998 471.359L9.49998 471.359ZM43.1 471.359L43.1 472.359L46.4643 472.359L43.6462 470.521L43.1 471.359ZM9.49998 449.449L8.49998 449.449L8.49998 449.99L8.95377 450.286L9.49998 449.449ZM9.49998 439.789L9.49998 438.789L8.49998 438.789L8.49998 439.789L9.49998 439.789ZM59.9 439.789L60.9 439.789L60.9 438.789L59.9 438.789L59.9 439.789ZM59.9 449.449L59.9 450.449L60.9 450.449L60.9 449.449L59.9 449.449ZM26.3 449.449L26.3 448.449L22.9357 448.449L25.7538 450.286L26.3 449.449ZM59.9 471.359L60.9 471.359L60.9 470.817L60.4462 470.521L59.9 471.359ZM59.9 481.019L59.9 482.019L60.9 482.019L60.9 481.019L59.9 481.019ZM10.5 481.019L10.5 471.359L8.49998 471.359L8.49998 481.019L10.5 481.019ZM9.49998 472.359L43.1 472.359L43.1 470.359L9.49998 470.359L9.49998 472.359ZM43.6462 470.521L10.0462 448.611L8.95377 450.286L42.5538 472.196L43.6462 470.521ZM10.5 449.449L10.5 439.789L8.49998 439.789L8.49998 449.449L10.5 449.449ZM9.49998 440.789L59.9 440.789L59.9 438.789L9.49998 438.789L9.49998 440.789ZM58.9 439.789L58.9 449.449L60.9 449.449L60.9 439.789L58.9 439.789ZM59.9 448.449L26.3 448.449L26.3 450.449L59.9 450.449L59.9 448.449ZM25.7538 450.286L59.3538 472.196L60.4462 470.521L26.8462 448.611L25.7538 450.286ZM58.9 471.359L58.9 481.019L60.9 481.019L60.9 471.359L58.9 471.359ZM59.9 480.019L9.49998 480.019L9.49998 482.019L59.9 482.019L59.9 480.019ZM9.49998 532.015L8.49998 532.015L8.49998 533.015L9.49998 533.015L9.49998 532.015ZM9.49998 522.355L9.49998 521.355L8.49998 521.355L8.49998 522.355L9.49998 522.355ZM43.1 522.355L43.1 523.355L46.4643 523.355L43.6462 521.517L43.1 522.355ZM9.49998 500.445L8.49998 500.445L8.49998 500.987L8.95377 501.282L9.49998 500.445ZM9.49998 490.785L9.49998 489.785L8.49998 489.785L8.49998 490.785L9.49998 490.785ZM59.9 490.785L60.9 490.785L60.9 489.785L59.9 489.785L59.9 490.785ZM59.9 500.445L59.9 501.445L60.9 501.445L60.9 500.445L59.9 500.445ZM26.3 500.445L26.3 499.445L22.9357 499.445L25.7538 501.282L26.3 500.445ZM59.9 522.355L60.9 522.355L60.9 521.813L60.4462 521.517L59.9 522.355ZM59.9 532.015L59.9 533.015L60.9 533.015L60.9 532.015L59.9 532.015ZM10.5 532.015L10.5 522.355L8.49998 522.355L8.49998 532.015L10.5 532.015ZM9.49998 523.355L43.1 523.355L43.1 521.355L9.49998 521.355L9.49998 523.355ZM43.6462 521.517L10.0462 499.607L8.95377 501.282L42.5538 523.192L43.6462 521.517ZM10.5 500.445L10.5 490.785L8.49998 490.785L8.49998 500.445L10.5 500.445ZM9.49998 491.785L59.9 491.785L59.9 489.785L9.49998 489.785L9.49998 491.785ZM58.9 490.785L58.9 500.445L60.9 500.445L60.9 490.785L58.9 490.785ZM59.9 499.445L26.3 499.445L26.3 501.445L59.9 501.445L59.9 499.445ZM25.7538 501.282L59.3538 523.192L60.4462 521.517L26.8462 499.607L25.7538 501.282ZM58.9 522.355L58.9 532.015L60.9 532.015L60.9 522.355L58.9 522.355ZM59.9 531.015L9.49998 531.015L9.49998 533.015L59.9 533.015L59.9 531.015Z" fill="#28272D"/>
</svg>
