<svg width="55" height="473" viewBox="0 0 55 473" fill="none" xmlns="http://www.w3.org/2000/svg">
<path d="M4.74 12.975L3.88348 12.4589L3.88203 12.4613L4.74 12.975ZM13.945 4.54L13.4999 3.6445L13.4957 3.64663L13.945 4.54ZM41.455 4.54L41.9043 3.64662L41.9001 3.64451L41.455 4.54ZM50.66 12.975L51.518 12.4613L51.5165 12.4589L50.66 12.975ZM50.66 39.05L49.8035 38.5339L49.802 38.5363L50.66 39.05ZM41.455 47.485L41.0099 46.5895L41.0057 46.5916L41.455 47.485ZM13.945 47.485L14.3943 46.5916L14.3901 46.5895L13.945 47.485ZM4.74 39.05L5.59797 38.5363L5.59652 38.5339L4.74 39.05ZM10.41 26.03L9.41011 26.0154L10.41 26.03ZM12.475 34.01L11.6444 34.5668L12.475 34.01ZM18.53 38.77L18.9099 37.845L18.9028 37.8421L18.53 38.77ZM36.8 38.77L36.4214 37.8444L36.4142 37.8474L36.8 38.77ZM42.785 34.01L43.6156 34.5668L42.785 34.01ZM44.99 26.03L45.9899 26.0446L44.99 26.03ZM36.87 13.255L37.2499 12.33L37.2428 12.3271L36.87 13.255ZM18.6 13.255L18.2214 12.3294L18.2142 12.3324L18.6 13.255ZM12.615 18.05L11.7844 17.4932L12.615 18.05ZM2.45 26.03C2.45 21.138 3.51316 16.9708 5.59798 13.4887L3.88203 12.4613C1.58017 16.3059 0.449996 20.842 0.449996 26.03L2.45 26.03ZM5.59652 13.4911C7.68856 10.0192 10.6128 7.33534 14.3943 5.43336L13.4957 3.64663C9.39058 5.71132 6.17811 8.65078 3.88348 12.4589L5.59652 13.4911ZM14.3901 5.43548C18.1716 3.55593 22.5991 2.6 27.7 2.6L27.7 0.599998C22.3475 0.599998 17.6051 1.60406 13.4999 3.64451L14.3901 5.43548ZM27.7 2.6C32.8009 2.6 37.2284 3.55593 41.0099 5.43548L41.9001 3.64451C37.7949 1.60406 33.0525 0.599998 27.7 0.599998L27.7 2.6ZM41.0057 5.43337C44.7873 7.33534 47.7114 10.0192 49.8035 13.4911L51.5165 12.4589C49.2219 8.65078 46.0094 5.71132 41.9043 3.64663L41.0057 5.43337ZM49.802 13.4887C51.8868 16.9708 52.95 21.138 52.95 26.03L54.95 26.03C54.95 20.842 53.8198 16.3059 51.518 12.4613L49.802 13.4887ZM52.95 26.03C52.95 30.9222 51.8868 35.0765 49.8035 38.5339L51.5165 39.5661C53.8199 35.7435 54.95 31.2178 54.95 26.03L52.95 26.03ZM49.802 38.5363C47.7102 42.0302 44.7876 44.7118 41.0099 46.5895L41.9001 48.3805C46.0091 46.3382 49.2232 43.3965 51.518 39.5637L49.802 38.5363ZM41.0057 46.5916C37.2252 48.4931 32.7992 49.46 27.7 49.46L27.7 51.46C33.0541 51.46 37.7981 50.4436 41.9043 48.3784L41.0057 46.5916ZM27.7 49.46C22.6008 49.46 18.1748 48.4931 14.3943 46.5916L13.4957 48.3784C17.6019 50.4436 22.3458 51.46 27.7 51.46L27.7 49.46ZM14.3901 46.5895C10.6124 44.7118 7.68983 42.0302 5.59797 38.5363L3.88202 39.5637C6.17683 43.3965 9.39093 46.3382 13.4999 48.3805L14.3901 46.5895ZM5.59652 38.5339C3.51323 35.0765 2.45 30.9222 2.45 26.03L0.449996 26.03C0.449996 31.2178 1.5801 35.7435 3.88347 39.5661L5.59652 38.5339ZM9.41011 26.0154C9.36122 29.3641 10.0823 32.2366 11.6444 34.5668L13.3056 33.4532C12.021 31.5368 11.3654 29.0892 11.4099 26.0446L9.41011 26.0154ZM11.6444 34.5668C13.1909 36.8739 15.3772 38.581 18.1572 39.6979L18.9028 37.8421C16.4561 36.859 14.6058 35.3928 13.3056 33.4532L11.6444 34.5668ZM18.1501 39.695C20.909 40.8282 24.0998 41.38 27.7 41.38L27.7 39.38C24.3002 39.38 21.3777 38.8585 18.9099 37.845L18.1501 39.695ZM27.7 41.38C31.2995 41.38 34.4698 40.8284 37.1858 39.6926L36.4142 37.8474C33.9969 38.8583 31.1005 39.38 27.7 39.38L27.7 41.38ZM37.1786 39.6955C39.9129 38.577 42.0722 36.8693 43.6156 34.5668L41.9544 33.4532C40.6511 35.3973 38.8204 36.863 36.4214 37.8445L37.1786 39.6955ZM43.6156 34.5668C45.1707 32.2469 45.9411 29.3862 45.9899 26.0446L43.9901 26.0154C43.9456 29.0672 43.2459 31.5264 41.9544 33.4532L43.6156 34.5668ZM45.9899 26.0446C46.0388 22.6959 45.3177 19.8234 43.7556 17.4932L42.0944 18.6068C43.379 20.5232 44.0346 22.9708 43.9901 26.0154L45.9899 26.0446ZM43.7556 17.4932C42.2104 15.188 40.0266 13.4704 37.2499 12.33L36.4901 14.18C38.9401 15.1863 40.7929 16.6653 42.0944 18.6068L43.7556 17.4932ZM37.2428 12.3271C34.486 11.2195 31.2978 10.68 27.7 10.68L27.7 12.68C31.1022 12.68 34.0273 13.1905 36.4972 14.1829L37.2428 12.3271ZM27.7 10.68C24.1029 10.68 20.9352 11.2192 18.2214 12.3295L18.9786 14.1805C21.3981 13.1908 24.2971 12.68 27.7 12.68L27.7 10.68ZM18.2142 12.3324C15.4833 13.4744 13.3265 15.1926 11.7844 17.4932L13.4456 18.6068C14.7501 16.6608 16.5834 15.1822 18.9858 14.1776L18.2142 12.3324ZM11.7844 17.4932C10.2293 19.8131 9.45889 22.6738 9.41011 26.0154L11.4099 26.0446C11.4544 22.9928 12.1541 20.5336 13.4456 18.6068L11.7844 17.4932ZM2.5 71.4605L2.5 70.4605L1.5 70.4605L1.5 71.4605L2.5 71.4605ZM52.9 71.4605L53.9 71.4605L53.9 70.4605L52.9 70.4605L52.9 71.4605ZM52.9 80.9805L52.9 81.9805L53.9 81.9805L53.9 80.9805L52.9 80.9805ZM29.66 80.9805L29.66 79.9805L26.8773 79.9805L29.0235 81.7518L29.66 80.9805ZM52.9 100.161L53.9 100.161L53.9 99.6893L53.5365 99.3893L52.9 100.161ZM52.9 111.781L52.2533 112.543L53.9 113.94L53.9 111.781L52.9 111.781ZM28.05 90.7105L28.6967 89.9478L28.0391 89.3902L27.3908 89.9586L28.05 90.7105ZM2.5 113.111L1.5 113.111L1.49999 115.317L3.15923 113.862L2.5 113.111ZM2.5 101.071L1.84149 100.318L1.5 100.617L1.5 101.071L2.5 101.071ZM25.46 80.9805L26.1185 81.7331L28.1214 79.9805L25.46 79.9805L25.46 80.9805ZM2.5 80.9805L1.5 80.9805L1.5 81.9805L2.5 81.9805L2.5 80.9805ZM2.5 72.4605L52.9 72.4605L52.9 70.4605L2.5 70.4605L2.5 72.4605ZM51.9 71.4605L51.9 80.9805L53.9 80.9805L53.9 71.4605L51.9 71.4605ZM52.9 79.9805L29.66 79.9805L29.66 81.9805L52.9 81.9805L52.9 79.9805ZM29.0235 81.7518L52.2635 100.932L53.5365 99.3893L30.2965 80.2093L29.0235 81.7518ZM51.9 100.161L51.9 111.781L53.9 111.781L53.9 100.161L51.9 100.161ZM53.5467 111.018L28.6967 89.9478L27.4033 91.4733L52.2533 112.543L53.5467 111.018ZM27.3908 89.9586L1.84076 112.359L3.15923 113.862L28.7092 91.4625L27.3908 89.9586ZM3.5 113.111L3.5 101.071L1.5 101.071L1.5 113.111L3.5 113.111ZM3.1585 101.823L26.1185 81.7331L24.8015 80.228L1.84149 100.318L3.1585 101.823ZM25.46 79.9805L2.5 79.9805L2.5 81.9805L25.46 81.9805L25.46 79.9805ZM3.5 80.9805L3.5 71.4605L1.5 71.4605L1.5 80.9805L3.5 80.9805ZM4.73999 123.786L3.88347 123.269L3.88202 123.272L4.73999 123.786ZM13.945 115.351L13.4999 114.455L13.4957 114.457L13.945 115.351ZM41.455 115.351L41.9043 114.457L41.9001 114.455L41.455 115.351ZM50.66 123.786L51.518 123.272L51.5165 123.269L50.66 123.786ZM50.66 149.861L49.8035 149.344L49.802 149.347L50.66 149.861ZM41.455 158.296L41.0099 157.4L41.0057 157.402L41.455 158.296ZM13.945 158.296L14.3943 157.402L14.3901 157.4L13.945 158.296ZM4.73999 149.861L5.59797 149.347L5.59651 149.344L4.73999 149.861ZM10.41 136.841L9.4101 136.826L10.41 136.841ZM12.475 144.821L11.6443 145.377L12.475 144.821ZM18.53 149.581L18.9099 148.655L18.9028 148.653L18.53 149.581ZM36.8 149.581L36.4213 148.655L36.4142 148.658L36.8 149.581ZM42.785 144.821L43.6156 145.377L42.785 144.821ZM44.99 136.841L45.9899 136.855L44.99 136.841ZM36.87 124.066L37.2499 123.141L37.2428 123.138L36.87 124.066ZM18.6 124.066L18.2214 123.14L18.2142 123.143L18.6 124.066ZM12.615 128.861L11.7843 128.304L12.615 128.861ZM2.44999 136.841C2.44999 131.949 3.51316 127.781 5.59797 124.299L3.88202 123.272C1.58016 127.116 0.449991 131.653 0.449991 136.841L2.44999 136.841ZM5.59651 124.302C7.68856 120.83 10.6127 118.146 14.3943 116.244L13.4957 114.457C9.39057 116.522 6.1781 119.461 3.88347 123.269L5.59651 124.302ZM14.3901 116.246C18.1716 114.366 22.5991 113.411 27.7 113.411L27.7 111.411C22.3475 111.411 17.6051 112.415 13.4999 114.455L14.3901 116.246ZM27.7 113.411C32.8009 113.411 37.2284 114.366 41.0099 116.246L41.9001 114.455C37.7949 112.415 33.0525 111.411 27.7 111.411L27.7 113.411ZM41.0057 116.244C44.7872 118.146 47.7114 120.83 49.8035 124.302L51.5165 123.269C49.2219 119.461 46.0094 116.522 41.9043 114.457L41.0057 116.244ZM49.802 124.299C51.8868 127.781 52.95 131.949 52.95 136.841L54.95 136.841C54.95 131.653 53.8198 127.116 51.518 123.272L49.802 124.299ZM52.95 136.841C52.95 141.733 51.8868 145.887 49.8035 149.344L51.5165 150.377C53.8199 146.554 54.95 142.028 54.95 136.841L52.95 136.841ZM49.802 149.347C47.7102 152.841 44.7876 155.522 41.0099 157.4L41.9001 159.191C46.0091 157.149 49.2232 154.207 51.518 150.374L49.802 149.347ZM41.0057 157.402C37.2252 159.304 32.7992 160.271 27.7 160.271L27.7 162.271C33.0541 162.271 37.7981 161.254 41.9043 159.189L41.0057 157.402ZM27.7 160.271C22.6008 160.271 18.1748 159.304 14.3943 157.402L13.4957 159.189C17.6019 161.254 22.3458 162.271 27.7 162.271L27.7 160.271ZM14.3901 157.4C10.6124 155.522 7.68983 152.841 5.59797 149.347L3.88202 150.374C6.17683 154.207 9.39092 157.149 13.4999 159.191L14.3901 157.4ZM5.59651 149.344C3.51322 145.887 2.44999 141.733 2.44999 136.841L0.449991 136.841C0.449991 142.028 1.58009 146.554 3.88347 150.377L5.59651 149.344ZM9.4101 136.826C9.36122 140.175 10.0823 143.047 11.6443 145.377L13.3056 144.264C12.021 142.347 11.3654 139.9 11.4099 136.855L9.4101 136.826ZM11.6443 145.377C13.1909 147.684 15.3772 149.392 18.1572 150.508L18.9028 148.653C16.4561 147.67 14.6058 146.203 13.3056 144.264L11.6443 145.377ZM18.1501 150.506C20.909 151.639 24.0998 152.191 27.7 152.191L27.7 150.191C24.3002 150.191 21.3776 149.669 18.9099 148.656L18.1501 150.506ZM27.7 152.191C31.2995 152.191 34.4698 151.639 37.1858 150.503L36.4142 148.658C33.9969 149.669 31.1005 150.191 27.7 150.191L27.7 152.191ZM37.1786 150.506C39.9129 149.388 42.0722 147.68 43.6156 145.377L41.9544 144.264C40.6511 146.208 38.8204 147.674 36.4214 148.655L37.1786 150.506ZM43.6156 145.377C45.1707 143.057 45.9411 140.197 45.9899 136.855L43.9901 136.826C43.9456 139.878 43.2459 142.337 41.9544 144.264L43.6156 145.377ZM45.9899 136.855C46.0388 133.506 45.3177 130.634 43.7556 128.304L42.0944 129.417C43.379 131.334 44.0346 133.781 43.9901 136.826L45.9899 136.855ZM43.7556 128.304C42.2104 125.999 40.0266 124.281 37.2499 123.141L36.4901 124.991C38.9401 125.997 40.7929 127.476 42.0944 129.417L43.7556 128.304ZM37.2428 123.138C34.486 122.03 31.2978 121.491 27.7 121.491L27.7 123.491C31.1022 123.491 34.0273 124.001 36.4972 124.993L37.2428 123.138ZM27.7 121.491C24.1029 121.491 20.9352 122.03 18.2214 123.14L18.9786 124.991C21.3981 124.001 24.2971 123.491 27.7 123.491L27.7 121.491ZM18.2142 123.143C15.4833 124.285 13.3265 126.003 11.7843 128.304L13.4456 129.417C14.7501 127.471 16.5834 125.993 18.9858 124.988L18.2142 123.143ZM11.7843 128.304C10.2293 130.624 9.45889 133.484 9.4101 136.826L11.4099 136.855C11.4544 133.803 12.1541 131.344 13.4456 129.417L11.7843 128.304ZM2.49999 168.257L2.49999 167.257L1.49999 167.257L1.49999 168.257L2.49999 168.257ZM52.9 168.257L53.9 168.257L53.9 167.257L52.9 167.257L52.9 168.257ZM52.9 176.797L53.3457 177.693L53.9 177.417L53.9 176.797L52.9 176.797ZM19.44 193.457L18.9943 192.562L17.1964 193.457L18.9943 194.353L19.44 193.457ZM52.9 210.117L53.9 210.117L53.9 209.498L53.3457 209.222L52.9 210.117ZM52.9 218.657L52.9 219.657L53.9 219.657L53.9 218.657L52.9 218.657ZM2.49999 218.657L1.49999 218.657L1.49999 219.657L2.49999 219.657L2.49999 218.657ZM2.49999 209.767L2.49999 208.767L1.49999 208.767L1.49999 209.767L2.49999 209.767ZM32.6 209.767L32.6 210.767L33.0371 208.868L32.6 209.767ZM2.49999 195.137L1.49999 195.137L1.49999 195.763L2.06284 196.037L2.49999 195.137ZM2.49999 191.777L2.06284 190.878L1.49999 191.152L1.49999 191.777L2.49999 191.777ZM32.6 177.147L33.0371 178.047L32.6 176.147L32.6 177.147ZM2.49999 177.147L1.49999 177.147L1.49999 178.147L2.49999 178.147L2.49999 177.147ZM2.49999 169.257L52.9 169.257L52.9 167.257L2.49999 167.257L2.49999 169.257ZM51.9 168.257L51.9 176.797L53.9 176.797L53.9 168.257L51.9 168.257ZM52.4543 175.902L18.9943 192.562L19.8857 194.353L53.3457 177.693L52.4543 175.902ZM18.9943 194.353L52.4543 211.013L53.3457 209.222L19.8857 192.562L18.9943 194.353ZM51.9 210.117L51.9 218.657L53.9 218.657L53.9 210.117L51.9 210.117ZM52.9 217.657L2.49999 217.657L2.49999 219.657L52.9 219.657L52.9 217.657ZM3.49999 218.657L3.49999 209.767L1.49999 209.767L1.49999 218.657L3.49999 218.657ZM2.49999 210.767L32.6 210.767L32.6 208.767L2.49999 208.767L2.49999 210.767ZM33.0371 208.868L2.93714 194.238L2.06284 196.037L32.1628 210.667L33.0371 208.868ZM3.49999 195.137L3.49999 191.777L1.49999 191.777L1.49999 195.137L3.49999 195.137ZM2.93714 192.677L33.0371 178.047L32.1628 176.248L2.06284 190.878L2.93714 192.677ZM32.6 176.147L2.49999 176.147L2.49999 178.147L32.6 178.147L32.6 176.147ZM3.49999 177.147L3.49999 168.257L1.49999 168.257L1.49999 177.147L3.49999 177.147ZM2.49999 228.482L2.49999 227.482L1.49999 227.482L1.49999 228.482L2.49999 228.482ZM52.9 228.482L53.9 228.482L53.9 227.482L52.9 227.482L52.9 228.482ZM52.9 270.062L52.9 271.062L53.9 271.062L53.9 270.062L52.9 270.062ZM2.49999 270.062L1.49999 270.062L1.49999 271.062L2.49999 271.062L2.49999 270.062ZM2.49999 260.542L2.49999 259.542L1.49999 259.542L1.49999 260.542L2.49999 260.542ZM44.01 260.542L44.01 261.542L45.01 261.542L45.01 260.542L44.01 260.542ZM44.01 238.002L45.01 238.002L45.01 237.002L44.01 237.002L44.01 238.002ZM2.49999 238.002L1.49999 238.002L1.49999 239.002L2.49999 239.002L2.49999 238.002ZM2.49999 229.482L52.9 229.482L52.9 227.482L2.49999 227.482L2.49999 229.482ZM51.9 228.482L51.9 270.062L53.9 270.062L53.9 228.482L51.9 228.482ZM52.9 269.062L2.49999 269.062L2.49999 271.062L52.9 271.062L52.9 269.062ZM3.49999 270.062L3.49999 260.542L1.49999 260.542L1.49999 270.062L3.49999 270.062ZM2.49999 261.542L44.01 261.542L44.01 259.542L2.49999 259.542L2.49999 261.542ZM45.01 260.542L45.01 238.002L43.01 238.002L43.01 260.542L45.01 260.542ZM44.01 237.002L2.49999 237.002L2.49999 239.002L44.01 239.002L44.01 237.002ZM3.49999 238.002L3.49999 228.482L1.49999 228.482L1.49999 238.002L3.49999 238.002ZM2.49999 276.388L2.79221 275.432L1.49999 275.037L1.49999 276.388L2.49999 276.388ZM52.9 291.788L53.9 291.788L53.9 291.048L53.1922 290.832L52.9 291.788ZM52.9 305.998L53.1922 306.955L53.9 306.738L53.9 305.998L52.9 305.998ZM2.49999 321.398L1.49999 321.398L1.49999 322.749L2.79221 322.355L2.49999 321.398ZM2.49999 311.598L2.20506 310.643L1.49999 310.86L1.49999 311.598L2.49999 311.598ZM46.95 297.878L47.95 297.878L47.95 296.523L46.6551 296.923L46.95 297.878ZM46.95 299.698L46.6592 300.655L47.95 301.047L47.95 299.698L46.95 299.698ZM2.49999 286.188L1.49999 286.188L1.49999 286.93L2.20919 287.145L2.49999 286.188ZM13 285.628L13 284.628L12 284.628L12 285.628L13 285.628ZM21.89 285.628L22.89 285.628L22.89 284.628L21.89 284.628L21.89 285.628ZM21.89 312.228L21.89 313.228L22.89 313.228L22.89 312.228L21.89 312.228ZM13 312.228L12 312.228L12 313.228L13 313.228L13 312.228ZM2.20777 277.345L52.6078 292.745L53.1922 290.832L2.79221 275.432L2.20777 277.345ZM51.9 291.788L51.9 305.998L53.9 305.998L53.9 291.788L51.9 291.788ZM52.6078 305.042L2.20776 320.442L2.79221 322.355L53.1922 306.955L52.6078 305.042ZM3.49999 321.398L3.49999 311.598L1.49999 311.598L1.49999 321.398L3.49999 321.398ZM2.79492 312.554L47.2449 298.834L46.6551 296.923L2.20506 310.643L2.79492 312.554ZM45.95 297.878L45.95 299.698L47.95 299.698L47.95 297.878L45.95 297.878ZM47.2408 298.741L2.79079 285.232L2.20919 287.145L46.6592 300.655L47.2408 298.741ZM3.49999 286.188L3.49999 276.388L1.49999 276.388L1.49999 286.188L3.49999 286.188ZM13 286.628L21.89 286.628L21.89 284.628L13 284.628L13 286.628ZM20.89 285.628L20.89 312.228L22.89 312.228L22.89 285.628L20.89 285.628ZM21.89 311.228L13 311.228L13 313.228L21.89 313.228L21.89 311.228ZM14 312.228L14 285.628L12 285.628L12 312.228L14 312.228ZM2.49999 327.671L2.49999 326.671L1.49999 326.671L1.49999 327.671L2.49999 327.671ZM52.9 327.671L53.9 327.671L53.9 326.671L52.9 326.671L52.9 327.671ZM52.9 337.191L52.9 338.191L53.9 338.191L53.9 337.191L52.9 337.191ZM32.18 337.191L32.18 336.191L31.18 336.191L31.18 337.191L32.18 337.191ZM32.18 359.731L31.18 359.731L31.18 360.731L32.18 360.731L32.18 359.731ZM52.9 359.731L53.9 359.731L53.9 358.731L52.9 358.731L52.9 359.731ZM52.9 369.251L52.9 370.251L53.9 370.251L53.9 369.251L52.9 369.251ZM2.49998 369.251L1.49998 369.251L1.49998 370.251L2.49998 370.251L2.49998 369.251ZM2.49998 359.731L2.49998 358.731L1.49998 358.731L1.49998 359.731L2.49998 359.731ZM23.29 359.731L23.29 360.731L24.29 360.731L24.29 359.731L23.29 359.731ZM23.29 337.191L24.29 337.191L24.29 336.191L23.29 336.191L23.29 337.191ZM2.49999 337.191L1.49999 337.191L1.49999 338.191L2.49999 338.191L2.49999 337.191ZM2.49999 328.671L52.9 328.671L52.9 326.671L2.49999 326.671L2.49999 328.671ZM51.9 327.671L51.9 337.191L53.9 337.191L53.9 327.671L51.9 327.671ZM52.9 336.191L32.18 336.191L32.18 338.191L52.9 338.191L52.9 336.191ZM31.18 337.191L31.18 359.731L33.18 359.731L33.18 337.191L31.18 337.191ZM32.18 360.731L52.9 360.731L52.9 358.731L32.18 358.731L32.18 360.731ZM51.9 359.731L51.9 369.251L53.9 369.251L53.9 359.731L51.9 359.731ZM52.9 368.251L2.49998 368.251L2.49998 370.251L52.9 370.251L52.9 368.251ZM3.49998 369.251L3.49998 359.731L1.49998 359.731L1.49998 369.251L3.49998 369.251ZM2.49998 360.731L23.29 360.731L23.29 358.731L2.49998 358.731L2.49998 360.731ZM24.29 359.731L24.29 337.191L22.29 337.191L22.29 359.731L24.29 359.731ZM23.29 336.191L2.49999 336.191L2.49999 338.191L23.29 338.191L23.29 336.191ZM3.49999 337.191L3.49999 327.671L1.49999 327.671L1.49999 337.191L3.49999 337.191ZM2.49998 420.308L1.49998 420.308L1.49998 421.308L2.49998 421.308L2.49998 420.308ZM52.9 420.308L52.9 421.308L53.9 421.308L53.9 420.308L52.9 420.308ZM52.9 410.648L53.9 410.648L53.9 410.106L53.4462 409.81L52.9 410.648ZM19.3 388.738L19.3 387.738L15.9357 387.738L18.7538 389.575L19.3 388.738ZM52.9 388.738L52.9 389.738L53.9 389.738L53.9 388.738L52.9 388.738ZM52.9 379.078L53.9 379.078L53.9 378.078L52.9 378.078L52.9 379.078ZM2.49998 379.078L2.49998 378.078L1.49998 378.078L1.49998 379.078L2.49998 379.078ZM2.49998 388.738L1.49998 388.738L1.49998 389.279L1.95377 389.575L2.49998 388.738ZM36.1 410.648L36.1 411.648L39.4643 411.648L36.6462 409.81L36.1 410.648ZM2.49998 410.648L2.49998 409.648L1.49998 409.648L1.49998 410.648L2.49998 410.648ZM2.49998 421.308L52.9 421.308L52.9 419.308L2.49998 419.308L2.49998 421.308ZM53.9 420.308L53.9 410.648L51.9 410.648L51.9 420.308L53.9 420.308ZM53.4462 409.81L19.8462 387.9L18.7538 389.575L52.3538 411.485L53.4462 409.81ZM19.3 389.738L52.9 389.738L52.9 387.738L19.3 387.738L19.3 389.738ZM53.9 388.738L53.9 379.078L51.9 379.078L51.9 388.738L53.9 388.738ZM52.9 378.078L2.49998 378.078L2.49998 380.078L52.9 380.078L52.9 378.078ZM1.49998 379.078L1.49998 388.738L3.49998 388.738L3.49998 379.078L1.49998 379.078ZM1.95377 389.575L35.5538 411.485L36.6462 409.81L3.04619 387.9L1.95377 389.575ZM36.1 409.648L2.49998 409.648L2.49998 411.648L36.1 411.648L36.1 409.648ZM1.49998 410.648L1.49998 420.308L3.49998 420.308L3.49998 410.648L1.49998 410.648ZM2.49998 471.304L1.49998 471.304L1.49998 472.304L2.49998 472.304L2.49998 471.304ZM52.9 471.304L52.9 472.304L53.9 472.304L53.9 471.304L52.9 471.304ZM52.9 461.644L53.9 461.644L53.9 461.102L53.4462 460.806L52.9 461.644ZM19.3 439.734L19.3 438.734L15.9357 438.734L18.7538 440.571L19.3 439.734ZM52.9 439.734L52.9 440.734L53.9 440.734L53.9 439.734L52.9 439.734ZM52.9 430.074L53.9 430.074L53.9 429.074L52.9 429.074L52.9 430.074ZM2.49998 430.074L2.49998 429.074L1.49998 429.074L1.49998 430.074L2.49998 430.074ZM2.49998 439.734L1.49998 439.734L1.49998 440.276L1.95377 440.571L2.49998 439.734ZM36.1 461.644L36.1 462.644L39.4643 462.644L36.6462 460.806L36.1 461.644ZM2.49998 461.644L2.49998 460.644L1.49998 460.644L1.49998 461.644L2.49998 461.644ZM2.49998 472.304L52.9 472.304L52.9 470.304L2.49998 470.304L2.49998 472.304ZM53.9 471.304L53.9 461.644L51.9 461.644L51.9 471.304L53.9 471.304ZM53.4462 460.806L19.8462 438.896L18.7538 440.571L52.3538 462.481L53.4462 460.806ZM19.3 440.734L52.9 440.734L52.9 438.734L19.3 438.734L19.3 440.734ZM53.9 439.734L53.9 430.074L51.9 430.074L51.9 439.734L53.9 439.734ZM52.9 429.074L2.49998 429.074L2.49998 431.074L52.9 431.074L52.9 429.074ZM1.49998 430.074L1.49998 439.734L3.49998 439.734L3.49998 430.074L1.49998 430.074ZM1.95377 440.571L35.5538 462.481L36.6462 460.806L3.04619 438.896L1.95377 440.571ZM36.1 460.644L2.49998 460.644L2.49998 462.644L36.1 462.644L36.1 460.644ZM1.49998 461.644L1.49998 471.304L3.49998 471.304L3.49998 461.644L1.49998 461.644Z" fill="#28272D"/>
</svg>
