<svg width="55" height="543" viewBox="0 0 55 543" fill="none" xmlns="http://www.w3.org/2000/svg">
<path d="M52.5 541.1L52.5 542.1L53.5 542.1L53.5 541.1L52.5 541.1ZM52.5 531.58L53.5 531.58L53.5 530.58L52.5 530.58L52.5 531.58ZM10.99 531.58L9.99 531.58L9.99 532.58L10.99 532.58L10.99 531.58ZM10.99 509.04L10.99 508.04L9.98999 508.04L9.98999 509.04L10.99 509.04ZM52.5 509.04L52.5 510.04L53.5 510.04L53.5 509.04L52.5 509.04ZM52.5 499.52L53.5 499.52L53.5 498.52L52.5 498.52L52.5 499.52ZM2.1 499.52L2.1 498.52L1.1 498.52L1.1 499.52L2.1 499.52ZM2.1 541.1L1.1 541.1L1.1 542.1L2.1 542.1L2.1 541.1ZM53.5 541.1L53.5 531.58L51.5 531.58L51.5 541.1L53.5 541.1ZM52.5 530.58L10.99 530.58L10.99 532.58L52.5 532.58L52.5 530.58ZM11.99 531.58L11.99 509.04L9.98999 509.04L9.99 531.58L11.99 531.58ZM10.99 510.04L52.5 510.04L52.5 508.04L10.99 508.04L10.99 510.04ZM53.5 509.04L53.5 499.52L51.5 499.52L51.5 509.04L53.5 509.04ZM52.5 498.52L2.1 498.52L2.1 500.52L52.5 500.52L52.5 498.52ZM1.1 499.52L1.1 541.1L3.1 541.1L3.1 499.52L1.1 499.52ZM2.1 542.1L52.5 542.1L52.5 540.1L2.1 540.1L2.1 542.1ZM52.5 493.194L52.2078 494.15L53.5 494.545L53.5 493.194L52.5 493.194ZM52.5 483.394L53.5 483.394L53.5 482.652L52.7903 482.437L52.5 483.394ZM42 480.209L41 480.209L41 480.95L41.7097 481.166L42 480.209ZM42 461.239L41.7039 460.284L41 460.502L41 461.239L42 461.239ZM52.5 457.984L52.7961 458.939L53.5 458.721L53.5 457.984L52.5 457.984ZM52.5 448.184L53.5 448.184L53.5 446.833L52.2078 447.227L52.5 448.184ZM2.09999 463.584L1.80778 462.627L1.09999 462.844L1.09999 463.584L2.09999 463.584ZM2.1 477.794L1.1 477.794L1.1 478.534L1.80778 478.75L2.1 477.794ZM33.11 477.514L32.8189 478.47L34.11 478.863L34.11 477.514L33.11 477.514ZM11.025 470.794L10.7297 469.838L7.61412 470.801L10.7339 471.75L11.025 470.794ZM33.11 463.969L34.11 463.969L34.11 462.613L32.8147 463.013L33.11 463.969ZM53.5 493.194L53.5 483.394L51.5 483.394L51.5 493.194L53.5 493.194ZM52.7903 482.437L42.2903 479.252L41.7097 481.166L52.2097 484.351L52.7903 482.437ZM43 480.209L43 461.239L41 461.239L41 480.209L43 480.209ZM42.2961 462.194L52.7961 458.939L52.2039 457.029L41.7039 460.284L42.2961 462.194ZM53.5 457.984L53.5 448.184L51.5 448.184L51.5 457.984L53.5 457.984ZM52.2078 447.227L1.80778 462.627L2.39221 464.54L52.7922 449.14L52.2078 447.227ZM1.09999 463.584L1.1 477.794L3.1 477.794L3.09999 463.584L1.09999 463.584ZM1.80778 478.75L52.2078 494.15L52.7922 492.237L2.39221 476.837L1.80778 478.75ZM33.4011 476.557L11.3161 469.837L10.7339 471.75L32.8189 478.47L33.4011 476.557ZM11.3203 471.749L33.4053 464.924L32.8147 463.013L10.7297 469.838L11.3203 471.749ZM32.11 463.969L32.11 477.514L34.11 477.514L34.11 463.969L32.11 463.969ZM52.5 441.911L52.5 442.911L53.5 442.911L53.5 441.911L52.5 441.911ZM52.5 432.391L53.5 432.391L53.5 431.391L52.5 431.391L52.5 432.391ZM31.71 432.391L30.71 432.391L30.71 433.391L31.71 433.391L31.71 432.391ZM31.71 409.851L31.71 408.851L30.71 408.851L30.71 409.851L31.71 409.851ZM52.5 409.851L52.5 410.851L53.5 410.851L53.5 409.851L52.5 409.851ZM52.5 400.331L53.5 400.331L53.5 399.331L52.5 399.331L52.5 400.331ZM2.09999 400.331L2.09999 399.331L1.09999 399.331L1.09999 400.331L2.09999 400.331ZM2.09999 409.851L1.09999 409.851L1.09999 410.851L2.09999 410.851L2.09999 409.851ZM22.82 409.851L23.82 409.851L23.82 408.851L22.82 408.851L22.82 409.851ZM22.82 432.391L22.82 433.391L23.82 433.391L23.82 432.391L22.82 432.391ZM2.09999 432.391L2.09999 431.391L1.09999 431.391L1.09999 432.391L2.09999 432.391ZM2.09999 441.911L1.09999 441.911L1.09999 442.911L2.09999 442.911L2.09999 441.911ZM53.5 441.911L53.5 432.391L51.5 432.391L51.5 441.911L53.5 441.911ZM52.5 431.391L31.71 431.391L31.71 433.391L52.5 433.391L52.5 431.391ZM32.71 432.391L32.71 409.851L30.71 409.851L30.71 432.391L32.71 432.391ZM31.71 410.851L52.5 410.851L52.5 408.851L31.71 408.851L31.71 410.851ZM53.5 409.851L53.5 400.331L51.5 400.331L51.5 409.851L53.5 409.851ZM52.5 399.331L2.09999 399.331L2.09999 401.331L52.5 401.331L52.5 399.331ZM1.09999 400.331L1.09999 409.851L3.09999 409.851L3.09999 400.331L1.09999 400.331ZM2.09999 410.851L22.82 410.851L22.82 408.851L2.09999 408.851L2.09999 410.851ZM21.82 409.851L21.82 432.391L23.82 432.391L23.82 409.851L21.82 409.851ZM22.82 431.391L2.09999 431.391L2.09999 433.391L22.82 433.391L22.82 431.391ZM1.09999 432.391L1.09999 441.911L3.09999 441.911L3.09999 432.391L1.09999 432.391ZM2.09999 442.911L52.5 442.911L52.5 440.911L2.09999 440.911L2.09999 442.911ZM52.5 390.504L52.5 391.504L53.5 391.504L53.5 390.504L52.5 390.504ZM52.5 357.604L53.5 357.604L53.5 356.604L52.5 356.604L52.5 357.604ZM43.61 357.604L43.61 356.604L42.61 356.604L42.61 357.604L43.61 357.604ZM43.61 380.984L43.61 381.984L44.61 381.984L44.61 380.984L43.61 380.984ZM30.66 380.984L29.66 380.984L29.66 381.984L30.66 381.984L30.66 380.984ZM30.66 361.804L31.66 361.804L31.66 360.804L30.66 360.804L30.66 361.804ZM21.77 361.804L21.77 360.804L20.77 360.804L20.77 361.804L21.77 361.804ZM21.77 380.984L21.77 381.984L22.77 381.984L22.77 380.984L21.77 380.984ZM10.99 380.984L9.98999 380.984L9.98999 381.984L10.99 381.984L10.99 380.984ZM10.99 357.604L11.99 357.604L11.99 356.604L10.99 356.604L10.99 357.604ZM2.09999 357.604L2.09999 356.604L1.09999 356.604L1.09999 357.604L2.09999 357.604ZM2.09999 390.504L1.09999 390.504L1.09999 391.504L2.09999 391.504L2.09999 390.504ZM53.5 390.504L53.5 357.604L51.5 357.604L51.5 390.504L53.5 390.504ZM52.5 356.604L43.61 356.604L43.61 358.604L52.5 358.604L52.5 356.604ZM42.61 357.604L42.61 380.984L44.61 380.984L44.61 357.604L42.61 357.604ZM43.61 379.984L30.66 379.984L30.66 381.984L43.61 381.984L43.61 379.984ZM31.66 380.984L31.66 361.804L29.66 361.804L29.66 380.984L31.66 380.984ZM30.66 360.804L21.77 360.804L21.77 362.804L30.66 362.804L30.66 360.804ZM20.77 361.804L20.77 380.984L22.77 380.984L22.77 361.804L20.77 361.804ZM21.77 379.984L10.99 379.984L10.99 381.984L21.77 381.984L21.77 379.984ZM11.99 380.984L11.99 357.604L9.98999 357.604L9.98999 380.984L11.99 380.984ZM10.99 356.604L2.09999 356.604L2.09999 358.604L10.99 358.604L10.99 356.604ZM1.09999 357.604L1.09999 390.504L3.09999 390.504L3.09999 357.604L1.09999 357.604ZM2.09999 391.504L52.5 391.504L52.5 389.504L2.09999 389.504L2.09999 391.504ZM52.5 352.715L52.5 353.715L53.3218 353.715L53.481 352.909L52.5 352.715ZM52.185 344.14L51.2729 344.55L51.2746 344.554L52.185 344.14ZM47.355 339.415L47.7799 338.51L47.7799 338.51L47.355 339.415ZM38.92 336.825L38.7153 337.804L38.7278 337.807L38.92 336.825ZM30.975 335.46L31.1105 334.469L31.1105 334.469L30.975 335.46ZM23.065 334.515L22.9646 335.51L22.9646 335.51L23.065 334.515ZM16.1 333.92L16.0224 334.917L16.0335 334.918L16.1 333.92ZM10.99 333.535L9.98999 333.535L9.98999 334.466L10.9187 334.533L10.99 333.535ZM10.99 317.435L10.99 316.435L9.98999 316.435L9.98999 317.435L10.99 317.435ZM52.5 317.435L52.5 318.435L53.5 318.435L53.5 317.435L52.5 317.435ZM52.5 307.915L53.5 307.915L53.5 306.915L52.5 306.915L52.5 307.915ZM2.09999 307.915L2.09999 306.915L1.09999 306.915L1.09999 307.915L2.09999 307.915ZM2.09999 342.285L1.09999 342.285L1.09999 343.24L2.05388 343.284L2.09999 342.285ZM8.22499 342.6L8.27995 341.602L8.27945 341.602L8.22499 342.6ZM16.695 343.195L16.6126 344.192L16.6126 344.192L16.695 343.195ZM26.215 344.175L26.0936 345.168L26.0998 345.169L26.215 344.175ZM35.42 345.575L35.2314 346.557L35.2346 346.558L35.42 345.575ZM41.195 347.115L41.5773 346.191L41.5718 346.189L41.195 347.115ZM43.995 349.285L44.8647 348.792L44.8604 348.784L43.995 349.285ZM44.59 352.715L43.5921 352.65L43.5223 353.715L44.59 353.715L44.59 352.715ZM53.481 352.909C54.2208 349.163 54.1553 346.058 53.0954 343.726L51.2746 344.554C52.0814 346.329 52.2259 348.941 51.5189 352.522L53.481 352.909ZM53.0971 343.73C52.0549 341.411 50.2576 339.673 47.7799 338.51L46.9301 340.32C49.0258 341.304 50.4484 342.716 51.2729 344.55L53.0971 343.73ZM47.7799 338.51C45.3986 337.392 42.5035 336.508 39.1121 335.844L38.7278 337.807C42.0098 338.449 44.7381 339.292 46.9301 340.32L47.7799 338.51ZM39.1247 335.846C36.534 335.305 33.8625 334.846 31.1105 334.469L30.8395 336.451C33.5475 336.821 36.1727 337.272 38.7153 337.804L39.1247 335.846ZM31.1105 334.469C28.3697 334.095 25.7213 333.778 23.1654 333.52L22.9646 335.51C25.4953 335.766 28.1203 336.079 30.8395 336.451L31.1105 334.469ZM23.1654 333.52C20.6131 333.263 18.2799 333.063 16.1665 332.922L16.0335 334.918C18.1201 335.057 20.4302 335.254 22.9646 335.51L23.1654 333.52ZM16.1775 332.923C14.0765 332.76 12.3709 332.631 11.0612 332.538L10.9187 334.533C12.2224 334.626 13.9235 334.754 16.0224 334.917L16.1775 332.923ZM11.99 333.535L11.99 317.435L9.98999 317.435L9.98999 333.535L11.99 333.535ZM10.99 318.435L52.5 318.435L52.5 316.435L10.99 316.435L10.99 318.435ZM53.5 317.435L53.5 307.915L51.5 307.915L51.5 317.435L53.5 317.435ZM52.5 306.915L2.09999 306.915L2.09999 308.915L52.5 308.915L52.5 306.915ZM1.09999 307.915L1.09999 342.285L3.09999 342.285L3.09999 307.915L1.09999 307.915ZM2.05388 343.284C3.56651 343.354 5.60502 343.459 8.17052 343.599L8.27945 341.602C5.71162 341.462 3.6668 341.356 2.14609 341.286L2.05388 343.284ZM8.17002 343.599C10.7025 343.738 13.5165 343.936 16.6126 344.192L16.7774 342.199C13.6669 341.941 10.8342 341.742 8.27995 341.602L8.17002 343.599ZM16.6126 344.192C19.7023 344.447 22.8626 344.773 26.0936 345.168L26.3364 343.183C23.0807 342.784 19.8944 342.456 16.7774 342.199L16.6126 344.192ZM26.0998 345.169C29.2974 345.539 32.3412 346.002 35.2314 346.557L35.6085 344.593C32.6655 344.028 29.5726 343.558 26.3302 343.182L26.0998 345.169ZM35.2346 346.558C37.6808 347.019 39.5312 347.518 40.8182 348.042L41.5718 346.189C40.1055 345.592 38.1059 345.064 35.6054 344.593L35.2346 346.558ZM40.8126 348.039C42.0475 348.55 42.7649 349.156 43.1296 349.786L44.8604 348.784C44.1985 347.641 43.0491 346.8 41.5773 346.191L40.8126 348.039ZM43.1253 349.779C43.4854 350.413 43.678 351.34 43.5921 352.65L45.5878 352.781C45.6886 351.244 45.4846 349.884 44.8647 348.792L43.1253 349.779ZM44.59 353.715L52.5 353.715L52.5 351.715L44.59 351.715L44.59 353.715ZM52.5 256.852L53.5 256.852L53.5 255.852L52.5 255.852L52.5 256.852ZM52.5 266.512L52.5 267.512L53.5 267.512L53.5 266.512L52.5 266.512ZM18.9 266.512L18.9 265.512L15.5357 265.512L18.3538 267.35L18.9 266.512ZM52.5 288.422L53.5 288.422L53.5 287.881L53.0462 287.585L52.5 288.422ZM52.5 298.082L52.5 299.082L53.5 299.082L53.5 298.082L52.5 298.082ZM2.09999 298.082L1.09999 298.082L1.09999 299.082L2.09999 299.082L2.09999 298.082ZM2.09999 288.422L2.09999 287.422L1.09999 287.422L1.09999 288.422L2.09999 288.422ZM35.7 288.422L35.7 289.422L39.0643 289.422L36.2462 287.585L35.7 288.422ZM2.09999 266.512L1.09999 266.512L1.09999 267.054L1.55377 267.35L2.09999 266.512ZM2.09999 256.852L2.09999 255.852L1.09999 255.852L1.09999 256.852L2.09999 256.852ZM51.5 256.852L51.5 266.512L53.5 266.512L53.5 256.852L51.5 256.852ZM52.5 265.512L18.9 265.512L18.9 267.512L52.5 267.512L52.5 265.512ZM18.3538 267.35L51.9538 289.26L53.0462 287.585L19.4462 265.675L18.3538 267.35ZM51.5 288.422L51.5 298.082L53.5 298.082L53.5 288.422L51.5 288.422ZM52.5 297.082L2.09999 297.082L2.09999 299.082L52.5 299.082L52.5 297.082ZM3.09999 298.082L3.09999 288.422L1.09999 288.422L1.09999 298.082L3.09999 298.082ZM2.09999 289.422L35.7 289.422L35.7 287.422L2.09999 287.422L2.09999 289.422ZM36.2462 287.585L2.6462 265.675L1.55377 267.35L35.1538 289.26L36.2462 287.585ZM3.09999 266.512L3.09999 256.852L1.09999 256.852L1.09999 266.512L3.09999 266.512ZM2.09999 257.852L52.5 257.852L52.5 255.852L2.09999 255.852L2.09999 257.852ZM49.245 196.883L48.4365 197.471L48.4381 197.473L49.245 196.883ZM37.59 188.553L37.9021 187.603L36.9065 187.275L36.6264 188.285L37.59 188.553ZM34.93 198.143L33.9664 197.875L33.7064 198.812L34.6359 199.098L34.93 198.143ZM42.035 202.868L41.242 203.477L41.2421 203.477L42.035 202.868ZM39.9 222.258L40.5066 223.053L40.5131 223.048L39.9 222.258ZM14.735 222.258L14.1247 223.05L14.1256 223.05L14.735 222.258ZM12.565 202.868L13.3579 203.477L13.362 203.472L12.565 202.868ZM19.67 198.143L19.962 199.099L20.8941 198.814L20.6336 197.875L19.67 198.143ZM17.01 188.553L17.9736 188.285L17.6935 187.275L16.6978 187.603L17.01 188.553ZM5.35498 196.883L6.16185 197.473L6.16351 197.471L5.35498 196.883ZM4.33998 224.498L3.48201 225.011L3.48346 225.014L4.33998 224.498ZM13.545 232.933L13.0957 233.826L13.0999 233.828L13.545 232.933ZM41.055 232.933L41.5001 233.828L41.5043 233.826L41.055 232.933ZM50.26 224.498L51.1165 225.014L51.118 225.011L50.26 224.498ZM54.55 211.443C54.55 205.485 53.0699 200.414 50.0518 196.292L48.4381 197.473C51.16 201.191 52.55 205.827 52.55 211.443L54.55 211.443ZM50.0535 196.294C47.0527 192.171 42.9893 189.274 37.9021 187.603L37.2778 189.503C41.9907 191.051 45.6972 193.707 48.4365 197.471L50.0535 196.294ZM36.6264 188.285L33.9664 197.875L35.8936 198.41L38.5536 188.82L36.6264 188.285ZM34.6359 199.098C37.4989 199.979 39.6817 201.446 41.242 203.477L42.8279 202.258C40.9816 199.856 38.4277 198.173 35.2241 197.187L34.6359 199.098ZM41.2421 203.477C42.7803 205.479 43.59 208.107 43.59 211.443L45.59 211.443C45.59 207.779 44.6963 204.69 42.8279 202.258L41.2421 203.477ZM43.59 211.443C43.59 215.989 42.1178 219.27 39.2869 221.468L40.5131 223.048C43.9355 220.391 45.59 216.463 45.59 211.443L43.59 211.443ZM39.2934 221.463C36.3668 223.696 32.4018 224.863 27.3 224.863L27.3 226.863C32.6981 226.863 37.1332 225.626 40.5066 223.053L39.2934 221.463ZM27.3 224.863C22.1976 224.863 18.2463 223.695 15.3444 221.465L14.1256 223.05C17.477 225.627 21.9023 226.863 27.3 226.863L27.3 224.863ZM15.3453 221.465C12.4919 219.267 11.01 215.986 11.01 211.443L9.00998 211.443C9.00998 216.466 10.6781 220.395 14.1247 223.05L15.3453 221.465ZM11.01 211.443C11.01 208.107 11.8196 205.479 13.3579 203.477L11.7721 202.258C9.90366 204.69 9.00998 207.779 9.00998 211.443L11.01 211.443ZM13.362 203.472C14.8966 201.447 17.0754 199.98 19.962 199.099L19.378 197.186C16.1512 198.172 13.5934 199.855 11.768 202.264L13.362 203.472ZM20.6336 197.875L17.9736 188.285L16.0464 188.82L18.7064 198.41L20.6336 197.875ZM16.6978 187.603C11.6107 189.274 7.54722 192.171 4.54645 196.294L6.16351 197.471C8.90274 193.707 12.6092 191.051 17.3221 189.503L16.6978 187.603ZM4.54812 196.292C1.53004 200.414 0.0499841 205.485 0.0499844 211.443L2.04998 211.443C2.04998 205.827 3.43992 201.191 6.16184 197.473L4.54812 196.292ZM0.0499844 211.443C0.0499846 216.631 1.18016 221.167 3.48201 225.011L5.19796 223.984C3.11314 220.502 2.04998 216.335 2.04998 211.443L0.0499844 211.443ZM3.48346 225.014C5.77809 228.822 8.99057 231.761 13.0957 233.826L13.9943 232.039C10.2127 230.137 7.28854 227.453 5.19651 223.982L3.48346 225.014ZM13.0999 233.828C17.2051 235.869 21.9475 236.873 27.3 236.873L27.3 234.873C22.1991 234.873 17.7715 233.917 13.9901 232.037L13.0999 233.828ZM27.3 236.873C32.6524 236.873 37.3949 235.869 41.5001 233.828L40.6099 232.037C36.8284 233.917 32.4009 234.873 27.3 234.873L27.3 236.873ZM41.5043 233.826C45.6094 231.761 48.8219 228.822 51.1165 225.014L49.4035 223.982C47.3114 227.453 44.3872 230.137 40.6057 232.039L41.5043 233.826ZM51.118 225.011C53.4198 221.167 54.55 216.631 54.55 211.443L52.55 211.443C52.55 216.335 51.4868 220.502 49.402 223.984L51.118 225.011ZM52.5 180.846L52.5 181.846L53.5 181.846L53.5 180.846L52.5 180.846ZM52.5 147.946L53.5 147.946L53.5 146.946L52.5 146.946L52.5 147.946ZM43.61 147.946L43.61 146.946L42.61 146.946L42.61 147.946L43.61 147.946ZM43.61 171.326L43.61 172.326L44.61 172.326L44.61 171.326L43.61 171.326ZM30.66 171.326L29.66 171.326L29.66 172.326L30.66 172.326L30.66 171.326ZM30.66 152.146L31.66 152.146L31.66 151.146L30.66 151.146L30.66 152.146ZM21.77 152.146L21.77 151.146L20.77 151.146L20.77 152.146L21.77 152.146ZM21.77 171.326L21.77 172.326L22.77 172.326L22.77 171.326L21.77 171.326ZM10.99 171.326L9.98998 171.326L9.98998 172.326L10.99 172.326L10.99 171.326ZM10.99 147.946L11.99 147.946L11.99 146.946L10.99 146.946L10.99 147.946ZM2.09998 147.946L2.09998 146.946L1.09998 146.946L1.09998 147.946L2.09998 147.946ZM2.09998 180.846L1.09998 180.846L1.09998 181.846L2.09998 181.846L2.09998 180.846ZM53.5 180.846L53.5 147.946L51.5 147.946L51.5 180.846L53.5 180.846ZM52.5 146.946L43.61 146.946L43.61 148.946L52.5 148.946L52.5 146.946ZM42.61 147.946L42.61 171.326L44.61 171.326L44.61 147.946L42.61 147.946ZM43.61 170.326L30.66 170.326L30.66 172.326L43.61 172.326L43.61 170.326ZM31.66 171.326L31.66 152.146L29.66 152.146L29.66 171.326L31.66 171.326ZM30.66 151.146L21.77 151.146L21.77 153.146L30.66 153.146L30.66 151.146ZM20.77 152.146L20.77 171.326L22.77 171.326L22.77 152.146L20.77 152.146ZM21.77 170.326L10.99 170.326L10.99 172.326L21.77 172.326L21.77 170.326ZM11.99 171.326L11.99 147.946L9.98998 147.946L9.98998 171.326L11.99 171.326ZM10.99 146.946L2.09998 146.946L2.09998 148.946L10.99 148.946L10.99 146.946ZM1.09998 147.946L1.09998 180.846L3.09998 180.846L3.09998 147.946L1.09998 147.946ZM2.09998 181.846L52.5 181.846L52.5 179.846L2.09998 179.846L2.09998 181.846ZM52.5 139.557L52.5 140.557L53.5 140.557L53.5 139.557L52.5 139.557ZM52.5 130.037L53.5 130.037L53.5 129.037L52.5 129.037L52.5 130.037ZM35.42 130.037L34.42 130.037L34.42 131.037L35.42 131.037L35.42 130.037ZM35.35 116.317L36.3484 116.262L36.3484 116.262L35.35 116.317ZM35.14 114.077L36.13 113.936L36.128 113.923L35.14 114.077ZM29.61 104.207L30.1852 103.389L30.1822 103.387L29.61 104.207ZM2.37998 114.077L3.36441 114.253L3.36645 114.241L3.36823 114.23L2.37998 114.077ZM2.16998 116.317L3.16835 116.374L3.16919 116.359L3.16959 116.345L2.16998 116.317ZM2.09998 139.557L1.09998 139.557L1.09998 140.557L2.09998 140.557L2.09998 139.557ZM26.53 130.037L26.53 131.037L27.53 131.037L27.53 130.037L26.53 130.037ZM10.99 130.037L9.98998 130.037L9.98998 131.037L10.99 131.037L10.99 130.037ZM11.06 117.087L12.0568 117.167L12.0568 117.167L11.06 117.087ZM11.34 115.477L12.3016 115.752L12.3047 115.74L11.34 115.477ZM13.125 112.502L13.7652 113.27L13.7758 113.261L13.125 112.502ZM15.89 111.067L16.1325 112.037L16.1457 112.034L16.1588 112.03L15.89 111.067ZM21.665 111.067L21.4019 112.032L21.4095 112.034L21.4171 112.036L21.665 111.067ZM24.43 112.502L25.0808 111.743L25.0702 111.734L24.43 112.502ZM26.18 115.477L25.2151 115.74L25.2185 115.752L26.18 115.477ZM26.46 117.087L27.4568 117.007L27.4568 117.007L26.46 117.087ZM53.5 139.557L53.5 130.037L51.5 130.037L51.5 139.557L53.5 139.557ZM52.5 129.037L35.42 129.037L35.42 131.037L52.5 131.037L52.5 129.037ZM36.42 130.037L36.42 118.277L34.42 118.277L34.42 130.037L36.42 130.037ZM36.42 118.277C36.42 117.783 36.3955 117.108 36.3484 116.262L34.3515 116.372C34.3978 117.206 34.42 117.838 34.42 118.277L36.42 118.277ZM36.3484 116.262C36.3006 115.4 36.2283 114.624 36.1299 113.936L34.15 114.218C34.2384 114.837 34.306 115.554 34.3515 116.372L36.3484 116.262ZM36.128 113.923C35.3969 109.244 33.4451 105.681 30.1852 103.389L29.0348 105.025C31.7482 106.933 33.4831 109.95 34.152 114.231L36.128 113.923ZM30.1822 103.387C26.98 101.153 23.1561 100.057 18.76 100.057L18.76 102.057C22.8105 102.057 26.22 103.061 29.0378 105.027L30.1822 103.387ZM18.76 100.057C14.3443 100.057 10.52 101.139 7.3391 103.351L8.48086 104.993C11.2733 103.051 14.6823 102.057 18.76 102.057L18.76 100.057ZM7.3391 103.351C4.0726 105.622 2.12204 109.202 1.39173 113.924L3.36823 114.23C4.03792 109.899 5.77403 106.875 8.48086 104.993L7.3391 103.351ZM1.39555 113.901C1.26822 114.614 1.19473 115.412 1.17036 116.289L3.16959 116.345C3.19189 115.542 3.25841 114.846 3.36441 114.253L1.39555 113.901ZM1.17161 116.26C1.12447 117.085 1.09998 117.76 1.09998 118.277L3.09998 118.277C3.09998 117.814 3.12216 117.182 3.16835 116.374L1.17161 116.26ZM1.09998 118.277L1.09998 139.557L3.09998 139.557L3.09998 118.277L1.09998 118.277ZM2.09998 140.557L52.5 140.557L52.5 138.557L2.09998 138.557L2.09998 140.557ZM26.53 129.037L10.99 129.037L10.99 131.037L26.53 131.037L26.53 129.037ZM11.99 130.037L11.99 118.697L9.98998 118.697L9.98998 130.037L11.99 130.037ZM11.99 118.697C11.99 118.238 12.0119 117.728 12.0568 117.167L10.0632 117.007C10.0148 117.612 9.98998 118.176 9.98998 118.697L11.99 118.697ZM12.0568 117.167C12.0989 116.64 12.1821 116.17 12.3015 115.752L10.3785 115.202C10.2178 115.765 10.1144 116.367 10.0632 117.007L12.0568 117.167ZM12.3047 115.74C12.6127 114.611 13.1139 113.813 13.7652 113.27L12.4848 111.734C11.456 112.591 10.7673 113.776 10.3752 115.214L12.3047 115.74ZM13.7758 113.261C14.4766 112.661 15.259 112.256 16.1325 112.037L15.6474 110.097C14.4676 110.392 13.4067 110.943 12.4742 111.743L13.7758 113.261ZM16.1588 112.03C17.087 111.771 17.9528 111.647 18.76 111.647L18.76 109.647C17.7471 109.647 16.6996 109.803 15.6212 110.104L16.1588 112.03ZM18.76 111.647C19.5676 111.647 20.4468 111.771 21.4019 112.032L21.9281 110.102C20.8298 109.803 19.7724 109.647 18.76 109.647L18.76 111.647ZM21.4171 112.036C22.2684 112.254 23.0575 112.66 23.7898 113.27L25.0702 111.734C24.1224 110.944 23.0682 110.394 21.9128 110.098L21.4171 112.036ZM23.7792 113.261C24.4113 113.803 24.9053 114.604 25.2152 115.74L27.1447 115.214C26.7546 113.784 26.082 112.601 25.0808 111.743L23.7792 113.261ZM25.2185 115.752C25.3378 116.17 25.421 116.64 25.4632 117.167L27.4568 117.007C27.4056 116.367 27.3021 115.765 27.1415 115.202L25.2185 115.752ZM25.4632 117.167C25.5081 117.728 25.53 118.238 25.53 118.697L27.53 118.697C27.53 118.176 27.5052 117.612 27.4568 117.007L25.4632 117.167ZM25.53 118.697L25.53 130.037L27.53 130.037L27.53 118.697L25.53 118.697ZM52.5 52.7997L53.5 52.7997L53.5 51.7997L52.5 51.7997L52.5 52.7997ZM52.5 62.4597L52.5 63.4597L53.5 63.4597L53.5 62.4597L52.5 62.4597ZM18.9 62.4597L18.9 61.4597L15.5356 61.4597L18.3538 63.2973L18.9 62.4597ZM52.5 84.3697L53.5 84.3697L53.5 83.8279L53.0462 83.532L52.5 84.3697ZM52.5 94.0297L52.5 95.0297L53.5 95.0297L53.5 94.0297L52.5 94.0297ZM2.09998 94.0297L1.09998 94.0297L1.09998 95.0297L2.09998 95.0297L2.09998 94.0297ZM2.09998 84.3697L2.09998 83.3697L1.09998 83.3697L1.09998 84.3697L2.09998 84.3697ZM35.7 84.3697L35.7 85.3697L39.0643 85.3697L36.2462 83.532L35.7 84.3697ZM2.09998 62.4597L1.09998 62.4597L1.09998 63.0014L1.55376 63.2973L2.09998 62.4597ZM2.09998 52.7997L2.09998 51.7997L1.09998 51.7997L1.09998 52.7997L2.09998 52.7997ZM51.5 52.7997L51.5 62.4597L53.5 62.4597L53.5 52.7997L51.5 52.7997ZM52.5 61.4597L18.9 61.4597L18.9 63.4597L52.5 63.4597L52.5 61.4597ZM18.3538 63.2973L51.9538 85.2073L53.0462 83.532L19.4462 61.622L18.3538 63.2973ZM51.5 84.3697L51.5 94.0297L53.5 94.0297L53.5 84.3697L51.5 84.3697ZM52.5 93.0297L2.09998 93.0297L2.09998 95.0297L52.5 95.0297L52.5 93.0297ZM3.09998 94.0297L3.09998 84.3697L1.09998 84.3697L1.09998 94.0297L3.09998 94.0297ZM2.09998 85.3697L35.7 85.3697L35.7 83.3697L2.09998 83.3697L2.09998 85.3697ZM36.2462 83.532L2.64619 61.622L1.55376 63.2973L35.1538 85.2073L36.2462 83.532ZM3.09998 62.4597L3.09998 52.7997L1.09998 52.7997L1.09998 62.4597L3.09998 62.4597ZM2.09998 53.7997L52.5 53.7997L52.5 51.7997L2.09998 51.7997L2.09998 53.7997ZM52.5 1.80359L53.5 1.80359L53.5 0.803588L52.5 0.803588L52.5 1.80359ZM52.5 11.4636L52.5 12.4636L53.5 12.4636L53.5 11.4636L52.5 11.4636ZM18.9 11.4636L18.9 10.4636L15.5356 10.4636L18.3538 12.3012L18.9 11.4636ZM52.5 33.3736L53.5 33.3736L53.5 32.8319L53.0462 32.5359L52.5 33.3736ZM52.5 43.0336L52.5 44.0336L53.5 44.0336L53.5 43.0336L52.5 43.0336ZM2.09998 43.0336L1.09998 43.0336L1.09998 44.0336L2.09998 44.0336L2.09998 43.0336ZM2.09998 33.3736L2.09998 32.3736L1.09998 32.3736L1.09998 33.3736L2.09998 33.3736ZM35.7 33.3736L35.7 34.3736L39.0643 34.3736L36.2462 32.5359L35.7 33.3736ZM2.09997 11.4636L1.09997 11.4636L1.09997 12.0053L1.55376 12.3012L2.09997 11.4636ZM2.09997 1.80359L2.09997 0.80359L1.09997 0.80359L1.09997 1.80359L2.09997 1.80359ZM51.5 1.80359L51.5 11.4636L53.5 11.4636L53.5 1.80359L51.5 1.80359ZM52.5 10.4636L18.9 10.4636L18.9 12.4636L52.5 12.4636L52.5 10.4636ZM18.3538 12.3012L51.9538 34.2112L53.0462 32.5359L19.4462 10.6259L18.3538 12.3012ZM51.5 33.3736L51.5 43.0336L53.5 43.0336L53.5 33.3736L51.5 33.3736ZM52.5 42.0336L2.09998 42.0336L2.09998 44.0336L52.5 44.0336L52.5 42.0336ZM3.09998 43.0336L3.09998 33.3736L1.09998 33.3736L1.09998 43.0336L3.09998 43.0336ZM2.09998 34.3736L35.7 34.3736L35.7 32.3736L2.09998 32.3736L2.09998 34.3736ZM36.2462 32.5359L2.64619 10.6259L1.55376 12.3012L35.1538 34.2112L36.2462 32.5359ZM3.09997 11.4636L3.09997 1.80359L1.09997 1.80359L1.09997 11.4636L3.09997 11.4636ZM2.09997 2.80359L52.5 2.80359L52.5 0.803588L2.09997 0.80359L2.09997 2.80359Z" fill="#28272D"/>
</svg>
