<svg width="62" height="587" viewBox="0 0 62 587" fill="none" xmlns="http://www.w3.org/2000/svg">
<path d="M52.5 585.1L52.5 586.1L53.5 586.1L53.5 585.1L52.5 585.1ZM52.5 575.58L53.5 575.58L53.5 574.58L52.5 574.58L52.5 575.58ZM10.99 575.58L9.99 575.58L9.99 576.58L10.99 576.58L10.99 575.58ZM10.99 553.04L10.99 552.04L9.99 552.04L9.99 553.04L10.99 553.04ZM52.5 553.04L52.5 554.04L53.5 554.04L53.5 553.04L52.5 553.04ZM52.5 543.52L53.5 543.52L53.5 542.52L52.5 542.52L52.5 543.52ZM2.1 543.52L2.1 542.52L1.1 542.52L1.1 543.52L2.1 543.52ZM2.1 585.1L1.1 585.1L1.1 586.1L2.1 586.1L2.1 585.1ZM53.5 585.1L53.5 575.58L51.5 575.58L51.5 585.1L53.5 585.1ZM52.5 574.58L10.99 574.58L10.99 576.58L52.5 576.58L52.5 574.58ZM11.99 575.58L11.99 553.04L9.99 553.04L9.99 575.58L11.99 575.58ZM10.99 554.04L52.5 554.04L52.5 552.04L10.99 552.04L10.99 554.04ZM53.5 553.04L53.5 543.52L51.5 543.52L51.5 553.04L53.5 553.04ZM52.5 542.52L2.1 542.52L2.1 544.52L52.5 544.52L52.5 542.52ZM1.1 543.52L1.1 585.1L3.1 585.1L3.1 543.52L1.1 543.52ZM2.1 586.1L52.5 586.1L52.5 584.1L2.1 584.1L2.1 586.1ZM52.5 533.694L52.5 534.694L53.5 534.694L53.5 533.694L52.5 533.694ZM52.5 524.174L53.5 524.174L53.5 523.174L52.5 523.174L52.5 524.174ZM35.42 524.174L34.42 524.174L34.42 525.174L35.42 525.174L35.42 524.174ZM35.35 510.454L36.3485 510.398L35.35 510.454ZM35.14 508.214L36.13 508.072L36.128 508.059L35.14 508.214ZM29.61 498.344L30.1852 497.526L30.1822 497.524L29.61 498.344ZM2.38 508.214L3.36442 508.39L3.36647 508.378L3.36825 508.367L2.38 508.214ZM2.16999 510.454L3.16837 510.511L3.1692 510.496L3.16961 510.482L2.16999 510.454ZM2.1 533.694L1.1 533.694L1.1 534.694L2.1 534.694L2.1 533.694ZM26.53 524.174L26.53 525.174L27.53 525.174L27.53 524.174L26.53 524.174ZM10.99 524.174L9.98999 524.174L9.99 525.174L10.99 525.174L10.99 524.174ZM11.06 511.224L12.0568 511.303L12.0568 511.303L11.06 511.224ZM11.34 509.614L12.3016 509.888L12.3048 509.877L11.34 509.614ZM13.125 506.639L13.7652 507.407L13.7758 507.398L13.125 506.639ZM15.89 505.204L16.1325 506.174L16.1457 506.171L16.1588 506.167L15.89 505.204ZM21.665 505.204L21.4019 506.169L21.4095 506.171L21.4172 506.173L21.665 505.204ZM24.43 506.639L25.0808 505.879L25.0702 505.871L24.43 506.639ZM26.18 509.614L25.2152 509.877L25.2185 509.888L26.18 509.614ZM26.46 511.224L27.4568 511.144L26.46 511.224ZM53.5 533.694L53.5 524.174L51.5 524.174L51.5 533.694L53.5 533.694ZM52.5 523.174L35.42 523.174L35.42 525.174L52.5 525.174L52.5 523.174ZM36.42 524.174L36.42 512.414L34.42 512.414L34.42 524.174L36.42 524.174ZM36.42 512.414C36.42 511.919 36.3955 511.245 36.3485 510.398L34.3515 510.509C34.3978 511.343 34.42 511.975 34.42 512.414L36.42 512.414ZM36.3485 510.398C36.3006 509.537 36.2283 508.761 36.1299 508.072L34.15 508.355C34.2384 508.974 34.3061 509.691 34.3515 510.509L36.3485 510.398ZM36.128 508.059C35.3969 503.38 33.4451 499.818 30.1852 497.526L29.0348 499.162C31.7482 501.07 33.4831 504.087 34.152 508.368L36.128 508.059ZM30.1822 497.524C26.98 495.29 23.1561 494.194 18.76 494.194L18.76 496.194C22.8106 496.194 26.22 497.198 29.0378 499.164L30.1822 497.524ZM18.76 494.194C14.3444 494.194 10.5201 495.276 7.33912 497.488L8.48087 499.13C11.2733 497.188 14.6823 496.194 18.76 496.194L18.76 494.194ZM7.33912 497.488C4.07261 499.759 2.12206 503.338 1.39174 508.061L3.36825 508.367C4.03793 504.036 5.77404 501.012 8.48087 499.13L7.33912 497.488ZM1.39557 508.038C1.26823 508.751 1.19475 509.549 1.17038 510.426L3.16961 510.482C3.19191 509.679 3.25843 508.983 3.36442 508.39L1.39557 508.038ZM1.17162 510.397C1.12448 511.222 1.1 511.896 1.1 512.414L3.1 512.414C3.1 511.951 3.12217 511.319 3.16837 510.511L1.17162 510.397ZM1.1 512.414L1.1 533.694L3.1 533.694L3.1 512.414L1.1 512.414ZM2.1 534.694L52.5 534.694L52.5 532.694L2.1 532.694L2.1 534.694ZM26.53 523.174L10.99 523.174L10.99 525.174L26.53 525.174L26.53 523.174ZM11.99 524.174L11.99 512.834L9.98999 512.834L9.98999 524.174L11.99 524.174ZM11.99 512.834C11.99 512.375 12.0119 511.865 12.0568 511.303L10.0632 511.144C10.0148 511.749 9.98999 512.313 9.98999 512.834L11.99 512.834ZM12.0568 511.303C12.099 510.777 12.1822 510.306 12.3015 509.888L10.3785 509.339C10.2178 509.901 10.1144 510.504 10.0632 511.144L12.0568 511.303ZM12.3048 509.877C12.6127 508.748 13.1139 507.95 13.7652 507.407L12.4848 505.871C11.456 506.728 10.7673 507.913 10.3752 509.351L12.3048 509.877ZM13.7758 507.398C14.4766 506.797 15.259 506.392 16.1325 506.174L15.6475 504.234C14.4676 504.529 13.4067 505.08 12.4742 505.879L13.7758 507.398ZM16.1588 506.167C17.087 505.908 17.9529 505.784 18.76 505.784L18.76 503.784C17.7471 503.784 16.6997 503.94 15.6212 504.241L16.1588 506.167ZM18.76 505.784C19.5676 505.784 20.4469 505.908 21.4019 506.169L21.9281 504.239C20.8298 503.939 19.7724 503.784 18.76 503.784L18.76 505.784ZM21.4172 506.173C22.2684 506.39 23.0575 506.797 23.7898 507.407L25.0702 505.871C24.1225 505.081 23.0682 504.531 21.9128 504.235L21.4172 506.173ZM23.7792 507.398C24.4114 507.94 24.9053 508.741 25.2152 509.877L27.1448 509.351C26.7547 507.92 26.082 506.738 25.0808 505.879L23.7792 507.398ZM25.2185 509.888C25.3378 510.306 25.421 510.777 25.4632 511.303L27.4568 511.144C27.4056 510.504 27.3022 509.901 27.1415 509.339L25.2185 509.888ZM25.4632 511.303C25.5081 511.865 25.53 512.375 25.53 512.834L27.53 512.834C27.53 512.313 27.5052 511.749 27.4568 511.144L25.4632 511.303ZM25.53 512.834L25.53 524.174L27.53 524.174L27.53 512.834L25.53 512.834ZM52.5 488.166L52.5 489.166L53.5 489.166L53.5 488.166L52.5 488.166ZM52.5 455.266L53.5 455.266L53.5 454.266L52.5 454.266L52.5 455.266ZM43.61 455.266L43.61 454.266L42.61 454.266L42.61 455.266L43.61 455.266ZM43.61 478.646L43.61 479.646L44.61 479.646L44.61 478.646L43.61 478.646ZM30.66 478.646L29.66 478.646L29.66 479.646L30.66 479.646L30.66 478.646ZM30.66 459.466L31.66 459.466L31.66 458.466L30.66 458.466L30.66 459.466ZM21.77 459.466L21.77 458.466L20.77 458.466L20.77 459.466L21.77 459.466ZM21.77 478.646L21.77 479.646L22.77 479.646L22.77 478.646L21.77 478.646ZM10.99 478.646L9.98999 478.646L9.98999 479.646L10.99 479.646L10.99 478.646ZM10.99 455.266L11.99 455.266L11.99 454.266L10.99 454.266L10.99 455.266ZM2.09999 455.266L2.09999 454.266L1.09999 454.266L1.09999 455.266L2.09999 455.266ZM2.09999 488.166L1.09999 488.166L1.09999 489.166L2.09999 489.166L2.09999 488.166ZM53.5 488.166L53.5 455.266L51.5 455.266L51.5 488.166L53.5 488.166ZM52.5 454.266L43.61 454.266L43.61 456.266L52.5 456.266L52.5 454.266ZM42.61 455.266L42.61 478.646L44.61 478.646L44.61 455.266L42.61 455.266ZM43.61 477.646L30.66 477.646L30.66 479.646L43.61 479.646L43.61 477.646ZM31.66 478.646L31.66 459.466L29.66 459.466L29.66 478.646L31.66 478.646ZM30.66 458.466L21.77 458.466L21.77 460.466L30.66 460.466L30.66 458.466ZM20.77 459.466L20.77 478.646L22.77 478.646L22.77 459.466L20.77 459.466ZM21.77 477.646L10.99 477.646L10.99 479.646L21.77 479.646L21.77 477.646ZM11.99 478.646L11.99 455.266L9.98999 455.266L9.98999 478.646L11.99 478.646ZM10.99 454.266L2.09999 454.266L2.09999 456.266L10.99 456.266L10.99 454.266ZM1.09999 455.266L1.09999 488.166L3.09999 488.166L3.09999 455.266L1.09999 455.266ZM2.09999 489.166L52.5 489.166L52.5 487.166L2.09999 487.166L2.09999 489.166ZM52.5 405.647L53.5 405.647L53.5 404.647L52.5 404.647L52.5 405.647ZM52.5 415.307L52.5 416.307L53.5 416.307L53.5 415.307L52.5 415.307ZM18.9 415.307L18.9 414.307L15.5357 414.307L18.3538 416.145L18.9 415.307ZM52.5 437.217L53.5 437.217L53.5 436.676L53.0462 436.38L52.5 437.217ZM52.5 446.877L52.5 447.877L53.5 447.877L53.5 446.877L52.5 446.877ZM2.09999 446.877L1.09999 446.877L1.09999 447.877L2.09999 447.877L2.09999 446.877ZM2.09999 437.217L2.09999 436.217L1.09999 436.217L1.09999 437.217L2.09999 437.217ZM35.7 437.217L35.7 438.217L39.0643 438.217L36.2462 436.38L35.7 437.217ZM2.09999 415.307L1.09999 415.307L1.09999 415.849L1.55378 416.145L2.09999 415.307ZM2.09999 405.647L2.09999 404.647L1.09999 404.647L1.09999 405.647L2.09999 405.647ZM51.5 405.647L51.5 415.307L53.5 415.307L53.5 405.647L51.5 405.647ZM52.5 414.307L18.9 414.307L18.9 416.307L52.5 416.307L52.5 414.307ZM18.3538 416.145L51.9538 438.055L53.0462 436.38L19.4462 414.47L18.3538 416.145ZM51.5 437.217L51.5 446.877L53.5 446.877L53.5 437.217L51.5 437.217ZM52.5 445.877L2.09999 445.877L2.09999 447.877L52.5 447.877L52.5 445.877ZM3.09999 446.877L3.09999 437.217L1.09999 437.217L1.09999 446.877L3.09999 446.877ZM2.09999 438.217L35.7 438.217L35.7 436.217L2.09999 436.217L2.09999 438.217ZM36.2462 436.38L2.6462 414.47L1.55378 416.145L35.1538 438.055L36.2462 436.38ZM3.09999 415.307L3.09999 405.647L1.09999 405.647L1.09999 415.307L3.09999 415.307ZM2.09999 406.647L52.5 406.647L52.5 404.647L2.09999 404.647L2.09999 406.647ZM52.5 395.881L52.5 396.881L53.5 396.881L53.5 395.881L52.5 395.881ZM52.5 386.991L53.5 386.991L53.5 385.991L52.5 385.991L52.5 386.991ZM22.4 386.991L21.9628 386.092L22.4 387.991L22.4 386.991ZM52.5 372.361L52.9371 373.261L53.5 372.987L53.5 372.361L52.5 372.361ZM52.5 369.001L53.5 369.001L53.5 368.375L52.9371 368.102L52.5 369.001ZM22.4 354.371L22.4 353.371L21.9628 355.271L22.4 354.371ZM52.5 354.371L52.5 355.371L53.5 355.371L53.5 354.371L52.5 354.371ZM52.5 345.481L53.5 345.481L53.5 344.481L52.5 344.481L52.5 345.481ZM2.09999 345.481L2.09999 344.481L1.09999 344.481L1.09999 345.481L2.09999 345.481ZM2.09999 354.021L1.09999 354.021L1.09999 354.64L1.65427 354.916L2.09999 354.021ZM35.56 370.681L36.0057 371.576L37.8036 370.681L36.0057 369.786L35.56 370.681ZM2.09999 387.341L1.65427 386.446L1.09999 386.722L1.09999 387.341L2.09999 387.341ZM2.09999 395.881L1.09999 395.881L1.09999 396.881L2.09999 396.881L2.09999 395.881ZM53.5 395.881L53.5 386.991L51.5 386.991L51.5 395.881L53.5 395.881ZM52.5 385.991L22.4 385.991L22.4 387.991L52.5 387.991L52.5 385.991ZM22.8371 387.891L52.9371 373.261L52.0628 371.462L21.9628 386.092L22.8371 387.891ZM53.5 372.361L53.5 369.001L51.5 369.001L51.5 372.361L53.5 372.361ZM52.9371 368.102L22.8371 353.472L21.9628 355.271L52.0628 369.901L52.9371 368.102ZM22.4 355.371L52.5 355.371L52.5 353.371L22.4 353.371L22.4 355.371ZM53.5 354.371L53.5 345.481L51.5 345.481L51.5 354.371L53.5 354.371ZM52.5 344.481L2.09999 344.481L2.09999 346.481L52.5 346.481L52.5 344.481ZM1.09999 345.481L1.09999 354.021L3.09999 354.021L3.09999 345.481L1.09999 345.481ZM1.65427 354.916L35.1143 371.576L36.0057 369.786L2.5457 353.126L1.65427 354.916ZM35.1143 369.786L1.65427 386.446L2.5457 388.236L36.0057 371.576L35.1143 369.786ZM1.09999 387.341L1.09999 395.881L3.09999 395.881L3.09999 387.341L1.09999 387.341ZM2.09999 396.881L52.5 396.881L52.5 394.881L2.09999 394.881L2.09999 396.881ZM52.5 329.637L52.0563 330.533L53.5 331.248L53.5 329.637L52.5 329.637ZM52.5 319.487L53.5 319.487L53.5 318.853L52.927 318.582L52.5 319.487ZM2.09999 295.687L2.52699 294.782L1.09999 294.109L1.09999 295.687L2.09999 295.687ZM2.09999 305.837L1.09999 305.837L1.09999 306.483L1.68912 306.748L2.09999 305.837ZM28.35 317.667L28.7486 318.584L30.8205 317.683L28.7609 316.755L28.35 317.667ZM2.09999 329.077L1.70135 328.16L1.09999 328.421L1.09999 329.077L2.09999 329.077ZM2.09999 339.857L1.09999 339.857L1.09999 341.439L2.52897 340.76L2.09999 339.857ZM38.36 322.637L38.8036 321.74L38.3691 321.525L37.931 321.733L38.36 322.637ZM53.5 329.637L53.5 319.487L51.5 319.487L51.5 329.637L53.5 329.637ZM52.927 318.582L2.52699 294.782L1.67298 296.591L52.073 320.391L52.927 318.582ZM1.09999 295.687L1.09999 305.837L3.09999 305.837L3.09999 295.687L1.09999 295.687ZM1.68912 306.748L27.9391 318.578L28.7609 316.755L2.51086 304.925L1.68912 306.748ZM27.9514 316.75L1.70135 328.16L2.49862 329.994L28.7486 318.584L27.9514 316.75ZM1.09999 329.077L1.09999 339.857L3.09999 339.857L3.09999 329.077L1.09999 329.077ZM2.52897 340.76L38.789 323.54L37.931 321.733L1.671 338.953L2.52897 340.76ZM37.9163 323.533L52.0563 330.533L52.9437 328.74L38.8036 321.74L37.9163 323.533ZM52.5 290.813L52.5 291.813L53.5 291.813L53.5 290.813L52.5 290.813ZM52.5 237.263L52.5 236.263L51.5 236.263L51.5 237.263L52.5 237.263ZM60.9 237.263L60.9 238.263L61.9 238.263L61.9 237.263L60.9 237.263ZM60.9 227.743L61.9 227.743L61.9 226.743L60.9 226.743L60.9 227.743ZM44.1 227.743L44.1 226.743L43.1 226.743L43.1 227.743L44.1 227.743ZM44.1 233.413L44.1 234.413L45.1 234.413L45.1 233.413L44.1 233.413ZM2.09998 233.413L2.09998 232.413L1.09998 232.413L1.09998 233.413L2.09998 233.413ZM2.09998 242.933L1.09998 242.933L1.09998 243.933L2.09998 243.933L2.09998 242.933ZM43.61 242.933L44.61 242.933L44.61 241.933L43.61 241.933L43.61 242.933ZM43.61 257.353L43.61 258.353L44.61 258.353L44.61 257.353L43.61 257.353ZM2.09998 257.353L2.09998 256.353L1.09998 256.353L1.09998 257.353L2.09998 257.353ZM2.09998 266.873L1.09998 266.873L1.09998 267.873L2.09998 267.873L2.09998 266.873ZM43.61 266.873L44.61 266.873L44.61 265.873L43.61 265.873L43.61 266.873ZM43.61 281.293L43.61 282.293L44.61 282.293L44.61 281.293L43.61 281.293ZM2.09998 281.293L2.09998 280.293L1.09998 280.293L1.09998 281.293L2.09998 281.293ZM2.09999 290.813L1.09999 290.813L1.09999 291.813L2.09999 291.813L2.09999 290.813ZM53.5 290.813L53.5 237.263L51.5 237.263L51.5 290.813L53.5 290.813ZM52.5 238.263L60.9 238.263L60.9 236.263L52.5 236.263L52.5 238.263ZM61.9 237.263L61.9 227.743L59.9 227.743L59.9 237.263L61.9 237.263ZM60.9 226.743L44.1 226.743L44.1 228.743L60.9 228.743L60.9 226.743ZM43.1 227.743L43.1 233.413L45.1 233.413L45.1 227.743L43.1 227.743ZM44.1 232.413L2.09998 232.413L2.09998 234.413L44.1 234.413L44.1 232.413ZM1.09998 233.413L1.09998 242.933L3.09998 242.933L3.09998 233.413L1.09998 233.413ZM2.09998 243.933L43.61 243.933L43.61 241.933L2.09998 241.933L2.09998 243.933ZM42.61 242.933L42.61 257.353L44.61 257.353L44.61 242.933L42.61 242.933ZM43.61 256.353L2.09998 256.353L2.09998 258.353L43.61 258.353L43.61 256.353ZM1.09998 257.353L1.09998 266.873L3.09998 266.873L3.09998 257.353L1.09998 257.353ZM2.09998 267.873L43.61 267.873L43.61 265.873L2.09998 265.873L2.09998 267.873ZM42.61 266.873L42.61 281.293L44.61 281.293L44.61 266.873L42.61 266.873ZM43.61 280.293L2.09998 280.293L2.09999 282.293L43.61 282.293L43.61 280.293ZM1.09998 281.293L1.09999 290.813L3.09999 290.813L3.09998 281.293L1.09998 281.293ZM2.09999 291.813L52.5 291.813L52.5 289.813L2.09999 289.813L2.09999 291.813ZM52.5 222.112L52.5 223.112L53.5 223.112L53.5 222.112L52.5 222.112ZM52.5 189.212L53.5 189.212L53.5 188.212L52.5 188.212L52.5 189.212ZM43.61 189.212L43.61 188.212L42.61 188.212L42.61 189.212L43.61 189.212ZM43.61 212.592L43.61 213.592L44.61 213.592L44.61 212.592L43.61 212.592ZM30.66 212.592L29.66 212.592L29.66 213.592L30.66 213.592L30.66 212.592ZM30.66 193.412L31.66 193.412L31.66 192.412L30.66 192.412L30.66 193.412ZM21.77 193.412L21.77 192.412L20.77 192.412L20.77 193.412L21.77 193.412ZM21.77 212.592L21.77 213.592L22.77 213.592L22.77 212.592L21.77 212.592ZM10.99 212.592L9.98998 212.592L9.98998 213.592L10.99 213.592L10.99 212.592ZM10.99 189.212L11.99 189.212L11.99 188.212L10.99 188.212L10.99 189.212ZM2.09998 189.212L2.09998 188.212L1.09998 188.212L1.09998 189.212L2.09998 189.212ZM2.09998 222.112L1.09998 222.112L1.09998 223.112L2.09998 223.112L2.09998 222.112ZM53.5 222.112L53.5 189.212L51.5 189.212L51.5 222.112L53.5 222.112ZM52.5 188.212L43.61 188.212L43.61 190.212L52.5 190.212L52.5 188.212ZM42.61 189.212L42.61 212.592L44.61 212.592L44.61 189.212L42.61 189.212ZM43.61 211.592L30.66 211.592L30.66 213.592L43.61 213.592L43.61 211.592ZM31.66 212.592L31.66 193.412L29.66 193.412L29.66 212.592L31.66 212.592ZM30.66 192.412L21.77 192.412L21.77 194.412L30.66 194.412L30.66 192.412ZM20.77 193.412L20.77 212.592L22.77 212.592L22.77 193.412L20.77 193.412ZM21.77 211.592L10.99 211.592L10.99 213.592L21.77 213.592L21.77 211.592ZM11.99 212.592L11.99 189.212L9.98998 189.212L9.98998 212.592L11.99 212.592ZM10.99 188.212L2.09998 188.212L2.09998 190.212L10.99 190.212L10.99 188.212ZM1.09998 189.212L1.09998 222.112L3.09998 222.112L3.09998 189.212L1.09998 189.212ZM2.09998 223.112L52.5 223.112L52.5 221.112L2.09998 221.112L2.09998 223.112ZM49.245 146.752L48.4365 147.34L48.4381 147.343L49.245 146.752ZM37.59 138.422L37.9021 137.472L36.9065 137.145L36.6264 138.155L37.59 138.422ZM34.93 148.012L33.9664 147.745L33.7064 148.682L34.6359 148.968L34.93 148.012ZM42.035 152.737L41.242 153.346L42.035 152.737ZM39.9 172.127L40.5066 172.922L40.5131 172.917L39.9 172.127ZM14.735 172.127L14.1247 172.919L14.1256 172.92L14.735 172.127ZM12.565 152.737L13.3579 153.346L13.3619 153.341L12.565 152.737ZM19.67 148.012L19.962 148.968L20.8941 148.684L20.6336 147.745L19.67 148.012ZM17.01 138.422L17.9736 138.155L17.6935 137.145L16.6978 137.472L17.01 138.422ZM5.35498 146.752L6.16184 147.343L6.16351 147.34L5.35498 146.752ZM4.33998 174.367L3.482 174.88L3.48346 174.883L4.33998 174.367ZM13.545 182.802L13.0957 183.695L13.0999 183.697L13.545 182.802ZM41.055 182.802L41.5001 183.697L41.5043 183.695L41.055 182.802ZM50.26 174.367L51.1165 174.883L51.118 174.88L50.26 174.367ZM54.55 161.312C54.55 155.354 53.0699 150.283 50.0518 146.161L48.4381 147.343C51.16 151.06 52.55 155.696 52.55 161.312L54.55 161.312ZM50.0535 146.163C47.0527 142.04 42.9892 139.143 37.9021 137.472L37.2778 139.372C41.9907 140.92 45.6972 143.577 48.4365 147.34L50.0535 146.163ZM36.6264 138.155L33.9664 147.745L35.8936 148.279L38.5536 138.689L36.6264 138.155ZM34.6359 148.968C37.4989 149.849 39.6817 151.316 41.242 153.346L42.8279 152.127C40.9816 149.725 38.4277 148.042 35.2241 147.056L34.6359 148.968ZM41.242 153.346C42.7803 155.348 43.59 157.976 43.59 161.312L45.59 161.312C45.59 157.648 44.6963 154.559 42.8279 152.127L41.242 153.346ZM43.59 161.312C43.59 165.858 42.1178 169.14 39.2869 171.337L40.5131 172.917C43.9355 170.261 45.59 166.332 45.59 161.312L43.59 161.312ZM39.2934 171.332C36.3668 173.565 32.4018 174.732 27.3 174.732L27.3 176.732C32.6981 176.732 37.1332 175.496 40.5066 172.922L39.2934 171.332ZM27.3 174.732C22.1976 174.732 18.2463 173.564 15.3444 171.334L14.1256 172.92C17.477 175.496 21.9023 176.732 27.3 176.732L27.3 174.732ZM15.3453 171.335C12.4918 169.136 11.01 165.855 11.01 161.312L9.00998 161.312C9.00998 166.335 10.6781 170.264 14.1247 172.919L15.3453 171.335ZM11.01 161.312C11.01 157.976 11.8196 155.348 13.3579 153.346L11.772 152.128C9.90366 154.559 9.00998 157.648 9.00998 161.312L11.01 161.312ZM13.3619 153.341C14.8966 151.316 17.0754 149.85 19.962 148.968L19.3779 147.055C16.1512 148.041 13.5934 149.724 11.768 152.133L13.3619 153.341ZM20.6336 147.745L17.9736 138.155L16.0464 138.689L18.7064 148.279L20.6336 147.745ZM16.6978 137.472C11.6107 139.143 7.54722 142.04 4.54645 146.163L6.16351 147.34C8.90273 143.577 12.6092 140.92 17.3221 139.372L16.6978 137.472ZM4.54811 146.161C1.53004 150.283 0.0499802 155.354 0.0499805 161.312L2.04998 161.312C2.04998 155.696 3.43992 151.06 6.16184 147.343L4.54811 146.161ZM0.0499805 161.312C0.0499807 166.5 1.18015 171.036 3.48201 174.88L5.19796 173.853C3.11314 170.371 2.04998 166.204 2.04998 161.312L0.0499805 161.312ZM3.48346 174.883C5.77809 178.691 8.99056 181.63 13.0957 183.695L13.9943 181.908C10.2127 180.006 7.28854 177.323 5.1965 173.851L3.48346 174.883ZM13.0999 183.697C17.2051 185.738 21.9475 186.742 27.3 186.742L27.3 184.742C22.1991 184.742 17.7715 183.786 13.9901 181.906L13.0999 183.697ZM27.3 186.742C32.6524 186.742 37.3949 185.738 41.5001 183.697L40.6099 181.906C36.8284 183.786 32.4009 184.742 27.3 184.742L27.3 186.742ZM41.5043 183.695C45.6094 181.63 48.8219 178.691 51.1165 174.883L49.4035 173.851C47.3114 177.323 44.3872 180.006 40.6057 181.908L41.5043 183.695ZM51.118 174.88C53.4198 171.036 54.55 166.5 54.55 161.312L52.55 161.312C52.55 166.204 51.4868 170.371 49.402 173.853L51.118 174.88ZM52.5 119.025L52.5 120.025L53.5 120.025L53.5 119.025L52.5 119.025ZM52.5 109.505L53.5 109.505L53.5 108.505L52.5 108.505L52.5 109.505ZM10.99 109.505L9.98998 109.505L9.98998 110.505L10.99 110.505L10.99 109.505ZM10.99 93.6152L11.99 93.6152L11.99 92.6152L10.99 92.6152L10.99 93.6152ZM2.09998 93.6152L2.09998 92.6152L1.09998 92.6152L1.09998 93.6152L2.09998 93.6152ZM2.09998 134.915L1.09998 134.915L1.09998 135.915L2.09998 135.915L2.09998 134.915ZM10.99 134.915L10.99 135.915L11.99 135.915L11.99 134.915L10.99 134.915ZM10.99 119.025L10.99 118.025L9.98998 118.025L9.98998 119.025L10.99 119.025ZM53.5 119.025L53.5 109.505L51.5 109.505L51.5 119.025L53.5 119.025ZM52.5 108.505L10.99 108.505L10.99 110.505L52.5 110.505L52.5 108.505ZM11.99 109.505L11.99 93.6152L9.98998 93.6152L9.98998 109.505L11.99 109.505ZM10.99 92.6152L2.09998 92.6152L2.09998 94.6152L10.99 94.6152L10.99 92.6152ZM1.09998 93.6152L1.09998 134.915L3.09998 134.915L3.09998 93.6152L1.09998 93.6152ZM2.09998 135.915L10.99 135.915L10.99 133.915L2.09998 133.915L2.09998 135.915ZM11.99 134.915L11.99 119.025L9.98998 119.025L9.98998 134.915L11.99 134.915ZM10.99 120.025L52.5 120.025L52.5 118.025L10.99 118.025L10.99 120.025ZM52.5 87.9906L52.5 88.9906L53.5 88.9906L53.5 87.9906L52.5 87.9906ZM48.265 54.1806L47.6021 54.9294L47.6025 54.9297L48.265 54.1806ZM30.555 52.1856L31.049 53.0552L31.0607 53.0483L30.555 52.1856ZM26.005 57.4706L25.151 57.991L26.1737 59.6692L26.9283 57.8546L26.005 57.4706ZM22.155 53.9706L22.6072 53.0787L22.6072 53.0787L22.155 53.9706ZM9.65997 54.2506L9.2323 53.3467L9.65997 54.2506ZM4.26998 59.1156L5.10743 59.6622L5.11144 59.6559L4.26998 59.1156ZM2.09998 87.9906L1.09998 87.9906L1.09998 88.9906L2.09998 88.9906L2.09998 87.9906ZM21.77 78.3306L21.77 79.3306L22.77 79.3306L22.77 78.3306L21.77 78.3306ZM10.99 78.3306L9.98998 78.3306L9.98998 79.3306L10.99 79.3306L10.99 78.3306ZM12.565 63.8056L13.2385 64.5448L13.2385 64.5448L12.565 63.8056ZM20.51 63.9806L21.2908 63.356L21.2892 63.3539L20.51 63.9806ZM43.54 78.3306L43.54 79.3306L44.54 79.3306L44.54 78.3306L43.54 78.3306ZM30.66 78.3306L29.66 78.3306L29.66 79.3306L30.66 79.3306L30.66 78.3306ZM32.445 61.6707L33.1227 62.406L33.1302 62.399L33.1375 62.392L32.445 61.6707ZM41.755 61.8806L42.4755 61.1873L42.4753 61.187L41.755 61.8806ZM53.5 87.9906L53.5 65.6606L51.5 65.6606L51.5 87.9906L53.5 87.9906ZM53.5 65.6606C53.5 60.3276 52.036 56.1804 48.9274 53.4315L47.6025 54.9297C50.1406 57.1741 51.5 60.6804 51.5 65.6606L53.5 65.6606ZM48.9278 53.4319C45.8656 50.721 41.94 49.4006 37.24 49.4006L37.24 51.4006C41.5467 51.4006 44.971 52.6002 47.6021 54.9294L48.9278 53.4319ZM37.24 49.4006C34.6413 49.4006 32.2376 50.0401 30.0493 51.3229L31.0607 53.0483C32.9324 51.9511 34.9853 51.4006 37.24 51.4006L37.24 49.4006ZM30.061 51.3162C27.7986 52.6016 26.1395 54.5426 25.0816 57.0867L26.9283 57.8546C27.8304 55.6853 29.2047 54.103 31.049 53.0551L30.061 51.3162ZM26.8589 56.9503C25.8461 55.2881 24.419 53.9974 22.6072 53.0787L21.7027 54.8625C23.2043 55.6239 24.3439 56.6664 25.151 57.991L26.8589 56.9503ZM22.6072 53.0787C20.7817 52.1531 18.6481 51.7106 16.24 51.7106L16.24 53.7106C18.4052 53.7106 20.2149 54.1082 21.7027 54.8625L22.6072 53.0787ZM16.24 51.7106C13.8634 51.7106 11.5247 52.2621 9.2323 53.3467L10.0876 55.1545C12.1352 54.1858 14.1832 53.7106 16.24 53.7106L16.24 51.7106ZM9.2323 53.3467C6.87677 54.4611 4.94282 56.217 3.42851 58.5753L5.11144 59.6559C6.4438 57.5809 8.10318 56.0934 10.0876 55.1545L9.2323 53.3467ZM3.43254 58.5691C1.84813 60.9968 1.09998 64.1107 1.09998 67.8306L3.09998 67.8306C3.09998 64.364 3.79849 61.6678 5.10741 59.6622L3.43254 58.5691ZM1.09998 67.8306L1.09998 87.9906L3.09998 87.9906L3.09998 67.8306L1.09998 67.8306ZM2.09998 88.9906L52.5 88.9906L52.5 86.9906L2.09998 86.9906L2.09998 88.9906ZM21.77 77.3306L10.99 77.3306L10.99 79.3306L21.77 79.3306L21.77 77.3306ZM11.99 78.3306L11.99 67.9706L9.98998 67.9706L9.98998 78.3306L11.99 78.3306ZM11.99 67.9706C11.99 66.3478 12.4514 65.2619 13.2385 64.5448L11.8915 63.0664C10.5785 64.2627 9.98997 65.9534 9.98998 67.9706L11.99 67.9706ZM13.2385 64.5448C14.0881 63.7707 15.1363 63.3706 16.45 63.3706L16.45 61.3706C14.6836 61.3706 13.1418 61.9272 11.8915 63.0664L13.2385 64.5448ZM16.45 63.3706C18.1 63.3706 19.1167 63.8439 19.7308 64.6074L21.2892 63.3539C20.1766 61.9706 18.4866 61.3706 16.45 61.3706L16.45 63.3706ZM19.7291 64.6053C20.4007 65.4448 20.77 66.5412 20.77 67.9706L22.77 67.9706C22.77 66.1801 22.2992 64.6164 21.2908 63.356L19.7291 64.6053ZM20.77 67.9706L20.77 78.3306L22.77 78.3306L22.77 67.9706L20.77 67.9706ZM43.54 77.3306L30.66 77.3306L30.66 79.3306L43.54 79.3306L43.54 77.3306ZM31.66 78.3306L31.66 66.6406L29.66 66.6406L29.66 78.3306L31.66 78.3306ZM31.66 66.6406C31.66 64.5963 32.2055 63.2512 33.1227 62.406L31.7673 60.9352C30.3045 62.2833 29.66 64.2516 29.66 66.6406L31.66 66.6406ZM33.1375 62.392C34.0966 61.4712 35.3203 60.9906 36.89 60.9906L36.89 58.9906C34.8663 58.9906 33.1267 59.6299 31.7524 60.9492L33.1375 62.392ZM36.89 60.9906C38.6957 60.9906 40.0404 61.5417 41.0347 62.5743L42.4753 61.187C41.0429 59.6995 39.1443 58.9906 36.89 58.9906L36.89 60.9906ZM41.0344 62.574C42.0216 63.5999 42.54 64.9265 42.54 66.6406L44.54 66.6406C44.54 64.4814 43.8683 62.6346 42.4755 61.1873L41.0344 62.574ZM42.54 66.6406L42.54 78.3306L44.54 78.3306L44.54 66.6406L42.54 66.6406ZM52.5 46.9203L52.2078 47.8766L53.5 48.2715L53.5 46.9203L52.5 46.9203ZM52.5 37.1203L53.5 37.1203L53.5 36.3787L52.7903 36.1634L52.5 37.1203ZM42 33.9353L41 33.9353L41 34.677L41.7097 34.8923L42 33.9353ZM42 14.9653L41.7039 14.0101L41 14.2283L41 14.9653L42 14.9653ZM52.5 11.7103L52.7961 12.6655L53.5 12.4473L53.5 11.7103L52.5 11.7103ZM52.5 1.91034L53.5 1.91034L53.5 0.55914L52.2078 0.953976L52.5 1.91034ZM2.09997 17.3103L1.80775 16.3539L1.09997 16.5703L1.09997 17.3103L2.09997 17.3103ZM2.09997 31.5203L1.09997 31.5203L1.09997 32.2604L1.80775 32.4767L2.09997 31.5203ZM33.11 31.2403L32.8189 32.197L34.11 32.5898L34.11 31.2403L33.11 31.2403ZM11.025 24.5203L10.7297 23.5649L7.6141 24.5277L10.7339 25.477L11.025 24.5203ZM33.11 17.6953L34.11 17.6953L34.11 16.3396L32.8147 16.7399L33.11 17.6953ZM53.5 46.9203L53.5 37.1203L51.5 37.1203L51.5 46.9203L53.5 46.9203ZM52.7903 36.1634L42.2903 32.9784L41.7097 34.8923L52.2097 38.0773L52.7903 36.1634ZM43 33.9353L43 14.9653L41 14.9653L41 33.9353L43 33.9353ZM42.2961 15.9205L52.7961 12.6655L52.2039 10.7551L41.7039 14.0101L42.2961 15.9205ZM53.5 11.7103L53.5 1.91034L51.5 1.91034L51.5 11.7103L53.5 11.7103ZM52.2078 0.953976L1.80775 16.3539L2.39219 18.2667L52.7922 2.86663L52.2078 0.953976ZM1.09997 17.3103L1.09997 31.5203L3.09997 31.5203L3.09997 17.3103L1.09997 17.3103ZM1.80775 32.4767L52.2078 47.8766L52.7922 45.964L2.39219 30.564L1.80775 32.4767ZM33.4011 30.2836L11.3161 23.5636L10.7339 25.477L32.8189 32.197L33.4011 30.2836ZM11.3202 25.4757L33.4052 18.6508L32.8147 16.7399L10.7297 23.5649L11.3202 25.4757ZM32.11 17.6953L32.11 31.2403L34.11 31.2403L34.11 17.6953L32.11 17.6953Z" fill="#28272D"/>
</svg>
