<svg width="55" height="421" viewBox="0 0 55 421" fill="none" xmlns="http://www.w3.org/2000/svg">
<path d="M52.5 419.1L52.5 420.1L53.5 420.1L53.5 419.1L52.5 419.1ZM48.265 385.29L47.6022 386.039L47.6026 386.039L48.265 385.29ZM30.555 383.295L31.0491 384.165L31.0607 384.158L30.555 383.295ZM26.005 388.58L25.1511 389.1L26.1737 390.779L26.9283 388.964L26.005 388.58ZM22.155 385.08L22.6072 384.188L22.6072 384.188L22.155 385.08ZM9.65999 385.36L9.23233 384.456L9.23233 384.456L9.65999 385.36ZM4.27 390.225L5.10746 390.772L5.11146 390.765L4.27 390.225ZM2.1 419.1L1.1 419.1L1.1 420.1L2.1 420.1L2.1 419.1ZM21.77 409.44L21.77 410.44L22.77 410.44L22.77 409.44L21.77 409.44ZM10.99 409.44L9.99 409.44L9.99 410.44L10.99 410.44L10.99 409.44ZM12.565 394.915L13.2385 395.654L13.2385 395.654L12.565 394.915ZM20.51 395.09L21.2909 394.465L21.2892 394.463L20.51 395.09ZM43.54 409.44L43.54 410.44L44.54 410.44L44.54 409.44L43.54 409.44ZM30.66 409.44L29.66 409.44L29.66 410.44L30.66 410.44L30.66 409.44ZM32.445 392.78L33.1227 393.515L33.1302 393.508L33.1375 393.501L32.445 392.78ZM41.755 392.99L42.4756 392.297L42.4753 392.296L41.755 392.99ZM53.5 419.1L53.5 396.77L51.5 396.77L51.5 419.1L53.5 419.1ZM53.5 396.77C53.5 391.437 52.036 387.29 48.9274 384.541L47.6026 386.039C50.1406 388.284 51.5 391.79 51.5 396.77L53.5 396.77ZM48.9278 384.541C45.8656 381.83 41.94 380.51 37.24 380.51L37.24 382.51C41.5467 382.51 44.9711 383.71 47.6022 386.039L48.9278 384.541ZM37.24 380.51C34.6414 380.51 32.2376 381.149 30.0493 382.432L31.0607 384.158C32.9324 383.06 34.9853 382.51 37.24 382.51L37.24 380.51ZM30.061 382.426C27.7986 383.711 26.1396 385.652 25.0817 388.196L26.9283 388.964C27.8304 386.795 29.2047 385.212 31.049 384.164L30.061 382.426ZM26.8589 388.06C25.8461 386.398 24.419 385.107 22.6072 384.188L21.7028 385.972C23.2044 386.733 24.3439 387.776 25.1511 389.1L26.8589 388.06ZM22.6072 384.188C20.7817 383.262 18.6481 382.82 16.24 382.82L16.24 384.82C18.4052 384.82 20.215 385.218 21.7028 385.972L22.6072 384.188ZM16.24 382.82C13.8634 382.82 11.5248 383.371 9.23233 384.456L10.0877 386.264C12.1352 385.295 14.1832 384.82 16.24 384.82L16.24 382.82ZM9.23233 384.456C6.87679 385.571 4.94284 387.326 3.42853 389.685L5.11146 390.765C6.44382 388.69 8.1032 387.203 10.0877 386.264L9.23233 384.456ZM3.43256 389.678C1.84815 392.106 1.1 395.22 1.1 398.94L3.1 398.94C3.1 395.473 3.79851 392.777 5.10743 390.772L3.43256 389.678ZM1.1 398.94L1.1 419.1L3.1 419.1L3.1 398.94L1.1 398.94ZM2.1 420.1L52.5 420.1L52.5 418.1L2.1 418.1L2.1 420.1ZM21.77 408.44L10.99 408.44L10.99 410.44L21.77 410.44L21.77 408.44ZM11.99 409.44L11.99 399.08L9.99 399.08L9.99 409.44L11.99 409.44ZM11.99 399.08C11.99 397.457 12.4514 396.371 13.2385 395.654L11.8915 394.176C10.5785 395.372 9.99 397.063 9.99 399.08L11.99 399.08ZM13.2385 395.654C14.0881 394.88 15.1363 394.48 16.45 394.48L16.45 392.48C14.6837 392.48 13.1419 393.037 11.8915 394.176L13.2385 395.654ZM16.45 394.48C18.1 394.48 19.1167 394.953 19.7308 395.717L21.2892 394.463C20.1766 393.08 18.4866 392.48 16.45 392.48L16.45 394.48ZM19.7291 395.715C20.4007 396.554 20.77 397.651 20.77 399.08L22.77 399.08C22.77 397.289 22.2993 395.726 21.2909 394.465L19.7291 395.715ZM20.77 399.08L20.77 409.44L22.77 409.44L22.77 399.08L20.77 399.08ZM43.54 408.44L30.66 408.44L30.66 410.44L43.54 410.44L43.54 408.44ZM31.66 409.44L31.66 397.75L29.66 397.75L29.66 409.44L31.66 409.44ZM31.66 397.75C31.66 395.706 32.2055 394.361 33.1227 393.515L31.7673 392.045C30.3045 393.393 29.66 395.361 29.66 397.75L31.66 397.75ZM33.1375 393.501C34.0966 392.581 35.3203 392.1 36.89 392.1L36.89 390.1C34.8664 390.1 33.1267 390.739 31.7525 392.059L33.1375 393.501ZM36.89 392.1C38.6957 392.1 40.0404 392.651 41.0347 393.684L42.4753 392.296C41.0429 390.809 39.1443 390.1 36.89 390.1L36.89 392.1ZM41.0344 393.683C42.0216 394.709 42.54 396.036 42.54 397.75L44.54 397.75C44.54 395.591 43.8684 393.744 42.4756 392.297L41.0344 393.683ZM42.54 397.75L42.54 409.44L44.54 409.44L44.54 397.75L42.54 397.75ZM52.5 378.03L52.2078 378.986L53.5 379.381L53.5 378.03L52.5 378.03ZM52.5 368.23L53.5 368.23L53.5 367.488L52.7903 367.273L52.5 368.23ZM42 365.045L41 365.045L41 365.786L41.7097 366.002L42 365.045ZM42 346.075L41.7039 345.12L41 345.338L41 346.075L42 346.075ZM52.5 342.82L52.7961 343.775L53.5 343.557L53.5 342.82L52.5 342.82ZM52.5 333.02L53.5 333.02L53.5 331.668L52.2078 332.063L52.5 333.02ZM2.09999 348.42L1.80778 347.463L1.09999 347.68L1.09999 348.42L2.09999 348.42ZM2.1 362.63L1.1 362.63L1.1 363.37L1.80778 363.586L2.1 362.63ZM33.11 362.35L32.8189 363.306L34.11 363.699L34.11 362.35L33.11 362.35ZM11.025 355.63L10.7297 354.674L7.61412 355.637L10.7339 356.586L11.025 355.63ZM33.11 348.805L34.11 348.805L34.11 347.449L32.8147 347.849L33.11 348.805ZM53.5 378.03L53.5 368.23L51.5 368.23L51.5 378.03L53.5 378.03ZM52.7903 367.273L42.2903 364.088L41.7097 366.002L52.2097 369.187L52.7903 367.273ZM43 365.045L43 346.075L41 346.075L41 365.045L43 365.045ZM42.2961 347.03L52.7961 343.775L52.2039 341.865L41.7039 345.12L42.2961 347.03ZM53.5 342.82L53.5 333.02L51.5 333.02L51.5 342.82L53.5 342.82ZM52.2078 332.063L1.80778 347.463L2.39221 349.376L52.7922 333.976L52.2078 332.063ZM1.09999 348.42L1.1 362.63L3.1 362.63L3.09999 348.42L1.09999 348.42ZM1.80778 363.586L52.2078 378.986L52.7922 377.073L2.39221 361.673L1.80778 363.586ZM33.4011 361.393L11.3161 354.673L10.7339 356.586L32.8189 363.306L33.4011 361.393ZM11.3203 356.585L33.4053 349.76L32.8147 347.849L10.7297 354.674L11.3203 356.585ZM32.11 348.805L32.11 362.35L34.11 362.35L34.11 348.805L32.11 348.805ZM52.5 326.746L52.5 327.746L53.5 327.746L53.5 326.746L52.5 326.746ZM52.5 269.346L53.5 269.346L53.5 268.346L52.5 268.346L52.5 269.346ZM2.09999 269.346L2.09999 268.346L1.09999 268.346L1.09999 269.346L2.09999 269.346ZM2.09999 278.866L1.09999 278.866L1.09999 279.866L2.09999 279.866L2.09999 278.866ZM43.61 278.866L44.61 278.866L44.61 277.866L43.61 277.866L43.61 278.866ZM43.61 293.286L43.61 294.286L44.61 294.286L44.61 293.286L43.61 293.286ZM2.09999 293.286L2.09999 292.286L1.09999 292.286L1.09999 293.286L2.09999 293.286ZM2.09999 302.806L1.09999 302.806L1.09999 303.806L2.09999 303.806L2.09999 302.806ZM43.61 302.806L44.61 302.806L44.61 301.806L43.61 301.806L43.61 302.806ZM43.61 317.226L43.61 318.226L44.61 318.226L44.61 317.226L43.61 317.226ZM2.09999 317.226L2.09999 316.226L1.09999 316.226L1.09999 317.226L2.09999 317.226ZM2.09999 326.746L1.09999 326.746L1.09999 327.746L2.09999 327.746L2.09999 326.746ZM53.5 326.746L53.5 269.346L51.5 269.346L51.5 326.746L53.5 326.746ZM52.5 268.346L2.09999 268.346L2.09999 270.346L52.5 270.346L52.5 268.346ZM1.09999 269.346L1.09999 278.866L3.09999 278.866L3.09999 269.346L1.09999 269.346ZM2.09999 279.866L43.61 279.866L43.61 277.866L2.09999 277.866L2.09999 279.866ZM42.61 278.866L42.61 293.286L44.61 293.286L44.61 278.866L42.61 278.866ZM43.61 292.286L2.09999 292.286L2.09999 294.286L43.61 294.286L43.61 292.286ZM1.09999 293.286L1.09999 302.806L3.09999 302.806L3.09999 293.286L1.09999 293.286ZM2.09999 303.806L43.61 303.806L43.61 301.806L2.09999 301.806L2.09999 303.806ZM42.61 302.806L42.61 317.226L44.61 317.226L44.61 302.806L42.61 302.806ZM43.61 316.226L2.09999 316.226L2.09999 318.226L43.61 318.226L43.61 316.226ZM1.09999 317.226L1.09999 326.746L3.09999 326.746L3.09999 317.226L1.09999 317.226ZM2.09999 327.746L52.5 327.746L52.5 325.746L2.09999 325.746L2.09999 327.746ZM52.5 245.536L52.5 246.536L53.5 246.536L53.5 245.536L52.5 245.536ZM48.265 211.726L47.6022 212.474L47.6026 212.475L48.265 211.726ZM30.555 209.731L31.049 210.6L31.0607 210.593L30.555 209.731ZM26.005 215.016L25.151 215.536L26.1737 217.214L26.9283 215.4L26.005 215.016ZM22.155 211.516L22.6072 210.624L22.6072 210.624L22.155 211.516ZM9.65999 211.796L9.23232 210.892L9.23232 210.892L9.65999 211.796ZM4.26999 216.661L5.10745 217.207L5.11146 217.201L4.26999 216.661ZM2.09999 245.536L1.09999 245.536L1.09999 246.536L2.09999 246.536L2.09999 245.536ZM21.77 235.876L21.77 236.876L22.77 236.876L22.77 235.876L21.77 235.876ZM10.99 235.876L9.98999 235.876L9.98999 236.876L10.99 236.876L10.99 235.876ZM12.565 221.351L13.2385 222.09L13.2385 222.09L12.565 221.351ZM20.51 221.526L21.2909 220.901L21.2892 220.899L20.51 221.526ZM43.54 235.876L43.54 236.876L44.54 236.876L44.54 235.876L43.54 235.876ZM30.66 235.876L29.66 235.876L29.66 236.876L30.66 236.876L30.66 235.876ZM32.445 219.216L33.1227 219.951L33.1302 219.944L33.1375 219.937L32.445 219.216ZM41.755 219.426L42.4756 218.732L42.4753 218.732L41.755 219.426ZM53.5 245.536L53.5 223.206L51.5 223.206L51.5 245.536L53.5 245.536ZM53.5 223.206C53.5 217.872 52.036 213.725 48.9274 210.976L47.6026 212.475C50.1406 214.719 51.5 218.225 51.5 223.206L53.5 223.206ZM48.9278 210.977C45.8656 208.266 41.94 206.946 37.24 206.946L37.24 208.946C41.5467 208.946 44.9711 210.145 47.6022 212.474L48.9278 210.977ZM37.24 206.946C34.6414 206.946 32.2376 207.585 30.0493 208.868L31.0607 210.593C32.9324 209.496 34.9853 208.946 37.24 208.946L37.24 206.946ZM30.061 208.861C27.7986 210.147 26.1396 212.088 25.0816 214.632L26.9283 215.4C27.8304 213.23 29.2047 211.648 31.049 210.6L30.061 208.861ZM26.8589 214.495C25.8461 212.833 24.419 211.542 22.6072 210.624L21.7028 212.407C23.2043 213.169 24.3439 214.211 25.151 215.536L26.8589 214.495ZM22.6072 210.624C20.7817 209.698 18.6481 209.256 16.24 209.256L16.24 211.256C18.4052 211.256 20.2149 211.653 21.7028 212.407L22.6072 210.624ZM16.24 209.256C13.8634 209.256 11.5247 209.807 9.23232 210.892L10.0877 212.699C12.1352 211.731 14.1832 211.256 16.24 211.256L16.24 209.256ZM9.23232 210.892C6.87678 212.006 4.94283 213.762 3.42852 216.12L5.11146 217.201C6.44382 215.126 8.1032 213.638 10.0877 212.699L9.23232 210.892ZM3.43256 216.114C1.84814 218.542 1.09999 221.656 1.09999 225.376L3.09999 225.376C3.09999 221.909 3.7985 219.213 5.10743 217.207L3.43256 216.114ZM1.09999 225.376L1.09999 245.536L3.09999 245.536L3.09999 225.376L1.09999 225.376ZM2.09999 246.536L52.5 246.536L52.5 244.536L2.09999 244.536L2.09999 246.536ZM21.77 234.876L10.99 234.876L10.99 236.876L21.77 236.876L21.77 234.876ZM11.99 235.876L11.99 225.516L9.98999 225.516L9.98999 235.876L11.99 235.876ZM11.99 225.516C11.99 223.893 12.4514 222.807 13.2385 222.09L11.8915 220.611C10.5785 221.808 9.98999 223.498 9.98999 225.516L11.99 225.516ZM13.2385 222.09C14.0881 221.316 15.1363 220.916 16.45 220.916L16.45 218.916C14.6836 218.916 13.1419 219.472 11.8915 220.611L13.2385 222.09ZM16.45 220.916C18.1 220.916 19.1167 221.389 19.7308 222.152L21.2892 220.899C20.1766 219.516 18.4866 218.916 16.45 218.916L16.45 220.916ZM19.7291 222.15C20.4007 222.99 20.77 224.086 20.77 225.516L22.77 225.516C22.77 223.725 22.2993 222.161 21.2909 220.901L19.7291 222.15ZM20.77 225.516L20.77 235.876L22.77 235.876L22.77 225.516L20.77 225.516ZM43.54 234.876L30.66 234.876L30.66 236.876L43.54 236.876L43.54 234.876ZM31.66 235.876L31.66 224.186L29.66 224.186L29.66 235.876L31.66 235.876ZM31.66 224.186C31.66 222.141 32.2055 220.796 33.1227 219.951L31.7673 218.48C30.3045 219.828 29.66 221.797 29.66 224.186L31.66 224.186ZM33.1375 219.937C34.0966 219.016 35.3203 218.536 36.89 218.536L36.89 216.536C34.8663 216.536 33.1267 217.175 31.7525 218.494L33.1375 219.937ZM36.89 218.536C38.6957 218.536 40.0404 219.087 41.0347 220.119L42.4753 218.732C41.0429 217.244 39.1443 216.536 36.89 216.536L36.89 218.536ZM41.0344 220.119C42.0216 221.145 42.54 222.471 42.54 224.186L44.54 224.186C44.54 222.026 43.8683 220.18 42.4756 218.732L41.0344 220.119ZM42.54 224.186L42.54 235.876L44.54 235.876L44.54 224.186L42.54 224.186ZM52.5 201.035L52.5 202.035L53.5 202.035L53.5 201.035L52.5 201.035ZM52.43 177.795L51.4315 177.851L51.4316 177.852L52.43 177.795ZM52.22 175.555L53.21 175.414L53.2082 175.402L52.22 175.555ZM46.69 165.65L47.2609 164.829L47.2579 164.827L46.69 165.65ZM24.99 165.685L25.5652 166.503L25.5652 166.503L24.99 165.685ZM19.46 175.555L20.4444 175.731L20.4463 175.72L20.448 175.71L19.46 175.555ZM19.25 177.795L20.2484 177.851L20.2492 177.837L20.2496 177.823L19.25 177.795ZM19.18 191.515L19.18 192.515L20.18 192.515L20.18 191.515L19.18 191.515ZM2.09999 191.515L2.09999 190.515L1.09999 190.515L1.09999 191.515L2.09999 191.515ZM2.09999 201.035L1.09999 201.035L1.09999 202.035L2.09999 202.035L2.09999 201.035ZM43.61 191.515L43.61 192.515L44.61 192.515L44.61 191.515L43.61 191.515ZM28.07 191.515L27.07 191.515L27.07 192.515L28.07 192.515L28.07 191.515ZM28.14 178.565L27.1432 178.485L27.1432 178.485L28.14 178.565ZM28.42 176.955L29.3816 177.23L29.3848 177.218L28.42 176.955ZM30.205 173.98L30.8452 174.749L30.8558 174.739L30.205 173.98ZM32.97 172.545L33.2125 173.515L33.2257 173.512L33.2388 173.508L32.97 172.545ZM38.745 172.545L38.4819 173.51L38.4895 173.512L38.4972 173.514L38.745 172.545ZM41.51 173.98L42.1608 173.221L42.1502 173.212L41.51 173.98ZM43.26 176.955L42.2952 177.218L42.2985 177.23L43.26 176.955ZM43.54 178.565L42.5432 178.645L42.5432 178.645L43.54 178.565ZM52.5 157.495L52.5 158.495L53.5 158.495L53.5 157.495L52.5 157.495ZM52.5 147.975L53.5 147.975L53.5 146.975L52.5 146.975L52.5 147.975ZM2.09999 147.975L2.09999 146.975L1.09999 146.975L1.09999 147.975L2.09999 147.975ZM2.09999 157.495L1.09999 157.495L1.09999 158.495L2.09999 158.495L2.09999 157.495ZM53.5 201.035L53.5 179.755L51.5 179.755L51.5 201.035L53.5 201.035ZM53.5 179.755C53.5 179.238 53.4755 178.563 53.4284 177.738L51.4316 177.852C51.4778 178.661 51.5 179.293 51.5 179.755L53.5 179.755ZM53.4284 177.74C53.3806 176.878 53.3083 176.102 53.2099 175.414L51.23 175.697C51.3184 176.315 51.3861 177.032 51.4315 177.851L53.4284 177.74ZM53.2082 175.402C52.4779 170.68 50.5274 167.1 47.2609 164.829L46.1191 166.471C48.8259 168.353 50.562 171.377 51.2317 175.708L53.2082 175.402ZM47.2579 164.827C44.0561 162.618 40.2338 161.535 35.84 161.535L35.84 163.535C39.8929 163.535 43.3039 164.529 46.1221 166.473L47.2579 164.827ZM35.84 161.535C31.422 161.535 27.5962 162.63 24.4148 164.867L25.5652 166.503C28.3572 164.54 31.7646 163.535 35.84 163.535L35.84 161.535ZM24.4148 164.867C21.1549 167.159 19.2031 170.722 18.472 175.401L20.448 175.71C21.1169 171.429 22.8517 168.411 25.5652 166.503L24.4148 164.867ZM18.4756 175.379C18.3482 176.093 18.2747 176.89 18.2504 177.767L20.2496 177.823C20.2719 177.02 20.3384 176.325 20.4444 175.731L18.4756 175.379ZM18.2515 177.74C18.2045 178.586 18.18 179.261 18.18 179.755L20.18 179.755C20.18 179.316 20.2021 178.684 20.2484 177.851L18.2515 177.74ZM18.18 179.755L18.18 191.515L20.18 191.515L20.18 179.755L18.18 179.755ZM19.18 190.515L2.09999 190.515L2.09999 192.515L19.18 192.515L19.18 190.515ZM1.09999 191.515L1.09999 201.035L3.09999 201.035L3.09999 191.515L1.09999 191.515ZM2.09999 202.035L52.5 202.035L52.5 200.035L2.09999 200.035L2.09999 202.035ZM43.61 190.515L28.07 190.515L28.07 192.515L43.61 192.515L43.61 190.515ZM29.07 191.515L29.07 180.175L27.07 180.175L27.07 191.515L29.07 191.515ZM29.07 180.175C29.07 179.716 29.0919 179.207 29.1368 178.645L27.1432 178.485C27.0948 179.09 27.07 179.654 27.07 180.175L29.07 180.175ZM29.1368 178.645C29.179 178.118 29.2621 177.648 29.3815 177.23L27.4585 176.681C27.2978 177.243 27.1944 177.846 27.1432 178.485L29.1368 178.645ZM29.3848 177.218C29.6927 176.089 30.1939 175.291 30.8452 174.748L29.5648 173.212C28.536 174.069 27.8473 175.255 27.4552 176.692L29.3848 177.218ZM30.8558 174.739C31.5566 174.139 32.339 173.734 33.2125 173.515L32.7275 171.575C31.5476 171.87 30.4867 172.422 29.5542 173.221L30.8558 174.739ZM33.2388 173.508C34.167 173.249 35.0329 173.125 35.84 173.125L35.84 171.125C34.8271 171.125 33.7797 171.281 32.7012 171.582L33.2388 173.508ZM35.84 173.125C36.6476 173.125 37.5269 173.25 38.4819 173.51L39.0081 171.58C37.9098 171.281 36.8524 171.125 35.84 171.125L35.84 173.125ZM38.4972 173.514C39.3484 173.732 40.1375 174.138 40.8698 174.748L42.1502 173.212C41.2025 172.422 40.1482 171.872 38.9928 171.576L38.4972 173.514ZM40.8592 174.739C41.4913 175.281 41.9853 176.082 42.2952 177.218L44.2248 176.692C43.8346 175.262 43.162 174.079 42.1608 173.221L40.8592 174.739ZM42.2985 177.23C42.4178 177.648 42.501 178.118 42.5432 178.645L44.5368 178.485C44.4856 177.846 44.3821 177.243 44.2215 176.681L42.2985 177.23ZM42.5432 178.645C42.5881 179.207 42.61 179.716 42.61 180.175L44.61 180.175C44.61 179.654 44.5852 179.09 44.5368 178.485L42.5432 178.645ZM42.61 180.175L42.61 191.515L44.61 191.515L44.61 180.175L42.61 180.175ZM53.5 157.495L53.5 147.975L51.5 147.975L51.5 157.495L53.5 157.495ZM52.5 146.975L2.09999 146.975L2.09999 148.975L52.5 148.975L52.5 146.975ZM1.09999 147.975L1.09999 157.495L3.09999 157.495L3.09999 147.975L1.09999 147.975ZM2.09999 158.495L52.5 158.495L52.5 156.495L2.09999 156.495L2.09999 158.495ZM52.5 138.143L52.5 139.143L53.5 139.143L53.5 138.143L52.5 138.143ZM52.465 114.903L53.4646 114.874L53.4642 114.861L53.4634 114.847L52.465 114.903ZM52.29 112.663L51.2953 112.766L51.2957 112.769L52.29 112.663ZM49.63 105.418L50.423 104.809L50.4219 104.807L49.63 105.418ZM43.995 101.078L44.3843 100.157L44.3809 100.155L43.995 101.078ZM29.12 101.113L29.506 102.036L29.5173 102.031L29.12 101.113ZM23.485 105.453L24.2734 106.068L24.2815 106.058L23.485 105.453ZM20.79 112.663L21.7843 112.769L21.7845 112.767L20.79 112.663ZM20.65 114.903L21.6484 114.958L21.6492 114.945L21.6496 114.931L20.65 114.903ZM20.58 128.623L20.58 129.623L21.58 129.623L21.58 128.623L20.58 128.623ZM10.99 128.623L9.98998 128.623L9.98998 129.623L10.99 129.623L10.99 128.623ZM10.99 103.563L11.99 103.563L11.99 102.563L10.99 102.563L10.99 103.563ZM2.09998 103.563L2.09998 102.563L1.09998 102.563L1.09998 103.563L2.09998 103.563ZM2.09999 138.143L1.09999 138.143L1.09999 139.143L2.09999 139.143L2.09999 138.143ZM43.61 128.623L43.61 129.623L44.61 129.623L44.61 128.623L43.61 128.623ZM29.47 128.623L28.47 128.623L28.47 129.623L29.47 129.623L29.47 128.623ZM29.54 115.673L30.5368 115.753L30.5384 115.733L30.5392 115.713L29.54 115.673ZM29.75 114.063L30.7228 114.295L30.7251 114.285L30.7273 114.275L29.75 114.063ZM32.445 110.213L32.8611 111.122L32.8705 111.118L32.8797 111.114L32.445 110.213ZM40.635 110.213L40.2062 111.116L40.2189 111.122L40.635 110.213ZM43.33 114.063L44.3123 113.876L44.31 113.863L44.3073 113.851L43.33 114.063ZM43.54 115.673L44.5368 115.593L44.5368 115.593L43.54 115.673ZM53.5 138.143L53.5 116.863L51.5 116.863L51.5 138.143L53.5 138.143ZM53.5 116.863C53.5 116.359 53.488 115.695 53.4646 114.874L51.4654 114.932C51.4886 115.744 51.5 116.387 51.5 116.863L53.5 116.863ZM53.4634 114.847C53.4161 113.995 53.3565 113.231 53.2843 112.556L51.2957 112.769C51.3634 113.402 51.4206 114.131 51.4665 114.958L53.4634 114.847ZM53.2846 112.56C52.9663 109.499 52.0278 106.897 50.423 104.809L48.837 106.027C50.1722 107.765 51.007 109.994 51.2954 112.766L53.2846 112.56ZM50.4219 104.807C48.8228 102.734 46.8056 101.18 44.3843 100.157L43.6057 101.999C45.7111 102.889 47.4505 104.229 48.8381 106.029L50.4219 104.807ZM44.3809 100.155C41.9622 99.1435 39.3448 98.643 36.54 98.643L36.54 100.643C39.1018 100.643 41.4544 101.099 43.609 102L44.3809 100.155ZM36.54 98.643C33.7321 98.643 31.1221 99.1564 28.7226 100.195L29.5173 102.031C31.6446 101.11 33.9812 100.643 36.54 100.643L36.54 98.643ZM28.734 100.19C26.2882 101.214 24.2671 102.769 22.6885 104.848L24.2815 106.058C25.6429 104.264 27.3784 102.926 29.5059 102.035L28.734 100.19ZM22.6967 104.838C21.067 106.926 20.1144 109.516 19.7954 112.559L21.7845 112.767C22.0722 110.023 22.9163 107.807 24.2733 106.068L22.6967 104.838ZM19.7957 112.556C19.7222 113.242 19.6742 114.016 19.6504 114.875L21.6496 114.931C21.6724 114.11 21.7177 113.391 21.7843 112.769L19.7957 112.556ZM19.6515 114.847C19.6045 115.694 19.58 116.369 19.58 116.863L21.58 116.863C21.58 116.424 21.6021 115.792 21.6484 114.958L19.6515 114.847ZM19.58 116.863L19.58 128.623L21.58 128.623L21.58 116.863L19.58 116.863ZM20.58 127.623L10.99 127.623L10.99 129.623L20.58 129.623L20.58 127.623ZM11.99 128.623L11.99 103.563L9.98998 103.563L9.98998 128.623L11.99 128.623ZM10.99 102.563L2.09998 102.563L2.09998 104.563L10.99 104.563L10.99 102.563ZM1.09998 103.563L1.09999 138.143L3.09999 138.143L3.09998 103.563L1.09998 103.563ZM2.09999 139.143L52.5 139.143L52.5 137.143L2.09999 137.143L2.09999 139.143ZM43.61 127.623L29.47 127.623L29.47 129.623L43.61 129.623L43.61 127.623ZM30.47 128.623L30.47 117.283L28.47 117.283L28.47 128.623L30.47 128.623ZM30.47 117.283C30.47 116.824 30.4919 116.314 30.5368 115.753L28.5432 115.593C28.4948 116.198 28.47 116.762 28.47 117.283L30.47 117.283ZM30.5392 115.713C30.5603 115.184 30.6232 114.713 30.7228 114.295L28.7772 113.831C28.6434 114.393 28.5663 114.995 28.5408 115.633L30.5392 115.713ZM30.7273 114.275C31.103 112.542 31.8554 111.582 32.8611 111.122L32.0289 109.304C30.2812 110.103 29.2369 111.71 28.7727 113.851L30.7273 114.275ZM32.8797 111.114C34.1101 110.52 35.3273 110.233 36.54 110.233L36.54 108.233C34.9994 108.233 33.4865 108.6 32.0102 109.312L32.8797 111.114ZM36.54 110.233C37.7273 110.233 38.9466 110.519 40.2062 111.116L41.0637 109.31C39.57 108.601 38.0593 108.233 36.54 108.233L36.54 110.233ZM40.2189 111.122C41.2245 111.582 41.9769 112.542 42.3527 114.275L44.3073 113.851C43.843 111.71 42.7988 110.103 41.0511 109.304L40.2189 111.122ZM42.3476 114.25C42.4332 114.699 42.4989 115.199 42.5432 115.753L44.5368 115.593C44.4877 114.98 44.4135 114.407 44.3123 113.876L42.3476 114.25ZM42.5432 115.753C42.5881 116.314 42.61 116.824 42.61 117.283L44.61 117.283C44.61 116.762 44.5852 116.198 44.5368 115.593L42.5432 115.753ZM42.61 117.283L42.61 128.623L44.61 128.623L44.61 117.283L42.61 117.283ZM50.26 57.9656L49.402 58.4793L49.4035 58.4817L50.26 57.9656ZM41.055 49.5306L40.6057 50.424L40.6099 50.4261L41.055 49.5306ZM13.545 49.5306L13.9901 50.4261L13.9943 50.424L13.545 49.5306ZM4.33998 57.9656L5.19651 58.4817L5.19796 58.4793L4.33998 57.9656ZM4.33998 84.0406L3.48201 84.5543L3.48346 84.5567L4.33998 84.0406ZM13.545 92.4756L13.0957 93.369L13.0999 93.3711L13.545 92.4756ZM41.055 92.4756L41.5001 93.3711L41.5043 93.369L41.055 92.4756ZM50.26 84.0406L51.1165 84.5567L51.118 84.5543L50.26 84.0406ZM44.59 70.9856L45.5899 71.0003L45.5899 71.0002L44.59 70.9856ZM39.83 81.7656L40.4385 82.5591L40.4423 82.5563L39.83 81.7656ZM14.665 81.7656L14.0612 82.5628L14.065 82.5656L14.665 81.7656ZM10.01 70.9856L11.0099 71.0003L11.0099 71.0002L10.01 70.9856ZM14.77 60.2056L14.1614 59.4121L14.1614 59.4121L14.77 60.2056ZM39.935 60.2056L40.535 59.4056L40.535 59.4056L39.935 60.2056ZM54.55 70.9856C54.55 65.7978 53.4199 61.2721 51.1165 57.4495L49.4035 58.4817C51.4868 61.9391 52.55 66.0934 52.55 70.9856L54.55 70.9856ZM51.118 57.4519C48.8231 53.6191 45.6091 50.6775 41.5001 48.6351L40.6099 50.4261C44.3876 52.3038 47.3102 54.9855 49.402 58.4793L51.118 57.4519ZM41.5043 48.6373C37.3981 46.572 32.6541 45.5556 27.3 45.5556L27.3 47.5556C32.3992 47.5556 36.8252 48.5226 40.6057 50.424L41.5043 48.6373ZM27.3 45.5556C21.9458 45.5556 17.2018 46.572 13.0957 48.6373L13.9943 50.424C17.7748 48.5226 22.2008 47.5556 27.3 47.5556L27.3 45.5556ZM13.0999 48.6351C8.99091 50.6775 5.77682 53.6191 3.48201 57.4519L5.19796 58.4793C7.28981 54.9855 10.2124 52.3038 13.9901 50.4261L13.0999 48.6351ZM3.48346 57.4495C1.18009 61.2721 0.0499833 65.7978 0.0499836 70.9856L2.04998 70.9856C2.04998 66.0934 3.11321 61.9391 5.1965 58.4817L3.48346 57.4495ZM0.0499836 70.9856C0.0499838 76.1736 1.18016 80.7097 3.48201 84.5543L5.19796 83.5269C3.11314 80.0448 2.04998 75.8776 2.04998 70.9856L0.0499836 70.9856ZM3.48346 84.5567C5.77809 88.3648 8.99057 91.3043 13.0957 93.369L13.9943 91.5823C10.2127 89.6803 7.28854 86.9964 5.19651 83.5245L3.48346 84.5567ZM13.0999 93.3711C17.2051 95.4116 21.9475 96.4156 27.3 96.4156L27.3 94.4156C22.1991 94.4156 17.7715 93.4597 13.9901 91.5801L13.0999 93.3711ZM27.3 96.4156C32.6524 96.4156 37.3949 95.4116 41.5001 93.3711L40.6099 91.5801C36.8284 93.4597 32.4009 94.4156 27.3 94.4156L27.3 96.4156ZM41.5043 93.369C45.6094 91.3043 48.8219 88.3648 51.1165 84.5567L49.4035 83.5245C47.3114 86.9964 44.3872 89.6803 40.6057 91.5823L41.5043 93.369ZM51.118 84.5543C53.4198 80.7097 54.55 76.1736 54.55 70.9856L52.55 70.9856C52.55 75.8776 51.4868 80.0448 49.402 83.5269L51.118 84.5543ZM43.5901 70.971C43.5235 75.5238 42.0278 78.7987 39.2177 80.975L40.4423 82.5563C43.8388 79.9258 45.5165 76.0141 45.5899 71.0003L43.5901 70.971ZM39.2214 80.9721C36.344 83.1789 32.4048 84.3356 27.3 84.3356L27.3 86.3356C32.6952 86.3356 37.1093 85.1124 40.4385 82.5591L39.2214 80.9721ZM27.3 84.3356C22.1967 84.3356 18.2167 83.1794 15.265 80.9656L14.065 82.5656C17.4599 85.1118 21.9033 86.3356 27.3 86.3356L27.3 84.3356ZM15.2687 80.9684C12.4018 78.7972 10.9435 75.5378 11.0099 71.0003L9.01009 70.971C8.93649 76.0001 10.5815 79.9274 14.0612 82.5628L15.2687 80.9684ZM11.0099 71.0002C11.0765 66.4219 12.5734 63.1505 15.3785 60.9991L14.1614 59.4121C10.7599 62.0208 9.08341 65.936 9.01009 70.9711L11.0099 71.0002ZM15.3785 60.9991C18.256 58.7924 22.1952 57.6356 27.3 57.6356L27.3 55.6356C21.9048 55.6356 17.4907 56.8589 14.1614 59.4121L15.3785 60.9991ZM27.3 57.6356C32.4033 57.6356 36.3832 58.7918 39.335 61.0056L40.535 59.4056C37.1401 56.8594 32.6967 55.6356 27.3 55.6356L27.3 57.6356ZM39.335 61.0056C42.1969 63.152 43.6565 66.4079 43.5901 70.9711L45.5899 71.0002C45.6634 65.95 44.0197 62.0192 40.535 59.4056L39.335 61.0056ZM52.5 39.5687L52.5 40.5687L53.5 40.5687L53.5 39.5687L52.5 39.5687ZM52.5 30.0487L53.5 30.0487L53.5 29.0487L52.5 29.0487L52.5 30.0487ZM35.42 30.0487L34.42 30.0487L34.42 31.0487L35.42 31.0487L35.42 30.0487ZM35.35 16.3287L36.3484 16.2733L36.3484 16.2733L35.35 16.3287ZM35.14 14.0887L36.13 13.9473L36.128 13.9344L35.14 14.0887ZM29.61 4.21874L30.1852 3.40071L30.1822 3.39862L29.61 4.21874ZM2.37998 14.0887L3.36441 14.2645L3.36645 14.2531L3.36823 14.2416L2.37998 14.0887ZM2.16998 16.3287L3.16835 16.3858L3.16919 16.3712L3.16959 16.3565L2.16998 16.3287ZM2.09998 39.5687L1.09998 39.5687L1.09998 40.5687L2.09998 40.5687L2.09998 39.5687ZM26.53 30.0487L26.53 31.0487L27.53 31.0487L27.53 30.0487L26.53 30.0487ZM10.99 30.0487L9.98998 30.0487L9.98998 31.0487L10.99 31.0487L10.99 30.0487ZM11.06 17.0987L12.0568 17.1785L12.0568 17.1785L11.06 17.0987ZM11.34 15.4887L12.3016 15.7635L12.3047 15.7519L11.34 15.4887ZM13.125 12.5137L13.7652 13.282L13.7758 13.273L13.125 12.5137ZM15.89 11.0787L16.1325 12.0489L16.1457 12.0456L16.1588 12.0419L15.89 11.0787ZM21.665 11.0787L21.4019 12.0435L21.4095 12.0456L21.4171 12.0475L21.665 11.0787ZM24.43 12.5137L25.0808 11.7544L25.0702 11.7455L24.43 12.5137ZM26.18 15.4887L25.2151 15.7519L25.2185 15.7635L26.18 15.4887ZM26.46 17.0987L27.4568 17.019L27.4568 17.019L26.46 17.0987ZM53.5 39.5687L53.5 30.0487L51.5 30.0487L51.5 39.5687L53.5 39.5687ZM52.5 29.0487L35.42 29.0487L35.42 31.0487L52.5 31.0487L52.5 29.0487ZM36.42 30.0487L36.42 18.2887L34.42 18.2887L34.42 30.0487L36.42 30.0487ZM36.42 18.2887C36.42 17.7945 36.3955 17.1196 36.3484 16.2733L34.3515 16.3842C34.3978 17.2178 34.42 17.8497 34.42 18.2887L36.42 18.2887ZM36.3484 16.2733C36.3006 15.4119 36.2283 14.6357 36.1299 13.9473L34.15 14.2302C34.2384 14.8485 34.306 15.5656 34.3515 16.3842L36.3484 16.2733ZM36.128 13.9344C35.3969 9.25534 33.4451 5.69284 30.1852 3.40072L29.0348 5.03677C31.7482 6.94465 33.4831 9.96215 34.152 14.2431L36.128 13.9344ZM30.1822 3.39862C26.98 1.16453 23.1561 0.0687477 18.76 0.0687479L18.76 2.06875C22.8105 2.06875 26.22 3.07296 29.0378 5.03887L30.1822 3.39862ZM18.76 0.0687479C14.3443 0.0687481 10.52 1.15097 7.3391 3.36271L8.48086 5.00478C11.2733 3.0632 14.6823 2.06875 18.76 2.06875L18.76 0.0687479ZM7.3391 3.36271C4.0726 5.63395 2.12204 9.21323 1.39173 13.9359L3.36823 14.2416C4.03792 9.91094 5.77403 6.88688 8.48086 5.00478L7.3391 3.36271ZM1.39555 13.913C1.26822 14.626 1.19473 15.4237 1.17036 16.301L3.16959 16.3565C3.19189 15.5538 3.25841 14.8581 3.36441 14.2645L1.39555 13.913ZM1.17161 16.2717C1.12447 17.0966 1.09998 17.7714 1.09998 18.2887L3.09998 18.2887C3.09998 17.8261 3.12216 17.1942 3.16835 16.3858L1.17161 16.2717ZM1.09998 18.2887L1.09998 39.5687L3.09998 39.5687L3.09998 18.2887L1.09998 18.2887ZM2.09998 40.5687L52.5 40.5687L52.5 38.5687L2.09998 38.5687L2.09998 40.5687ZM26.53 29.0487L10.99 29.0487L10.99 31.0487L26.53 31.0487L26.53 29.0487ZM11.99 30.0487L11.99 18.7087L9.98998 18.7087L9.98998 30.0487L11.99 30.0487ZM11.99 18.7087C11.99 18.2499 12.0119 17.7402 12.0568 17.1785L10.0632 17.019C10.0148 17.6239 9.98998 18.1876 9.98998 18.7087L11.99 18.7087ZM12.0568 17.1785C12.0989 16.6517 12.1821 16.1813 12.3015 15.7635L10.3785 15.214C10.2178 15.7762 10.1144 16.3792 10.0632 17.019L12.0568 17.1785ZM12.3047 15.7519C12.6127 14.6227 13.1139 13.8247 13.7652 13.282L12.4848 11.7455C11.456 12.6028 10.7673 13.7881 10.3752 15.2256L12.3047 15.7519ZM13.7758 13.273C14.4766 12.6723 15.259 12.2673 16.1325 12.0489L15.6474 10.1086C14.4676 10.4036 13.4067 10.9552 12.4742 11.7545L13.7758 13.273ZM16.1588 12.0419C17.087 11.7829 17.9528 11.6587 18.76 11.6587L18.76 9.65875C17.7471 9.65875 16.6997 9.81458 15.6212 10.1155L16.1588 12.0419ZM18.76 11.6587C19.5676 11.6587 20.4468 11.7831 21.4019 12.0435L21.9281 10.114C20.8298 9.81444 19.7724 9.65875 18.76 9.65875L18.76 11.6587ZM21.4171 12.0475C22.2684 12.2653 23.0575 12.6717 23.7898 13.282L25.0702 11.7455C24.1224 10.9558 23.0682 10.4055 21.9128 10.1099L21.4171 12.0475ZM23.7792 13.273C24.4113 13.8148 24.9053 14.6156 25.2152 15.7519L27.1447 15.2256C26.7546 13.7952 26.082 12.6127 25.0808 11.7545L23.7792 13.273ZM25.2185 15.7635C25.3378 16.1813 25.421 16.6517 25.4632 17.1785L27.4568 17.019C27.4056 16.3792 27.3021 15.7762 27.1415 15.214L25.2185 15.7635ZM25.4632 17.1785C25.5081 17.7402 25.53 18.2499 25.53 18.7087L27.53 18.7087C27.53 18.1876 27.5052 17.624 27.4568 17.019L25.4632 17.1785ZM25.53 18.7087L25.53 30.0487L27.53 30.0487L27.53 18.7087L25.53 18.7087Z" fill="#28272D"/>
</svg>
