<svg width="104" height="26" viewBox="0 0 104 26" fill="none" xmlns="http://www.w3.org/2000/svg">
<path d="M0 16.3669L7.18261 9.78285V9.58333H0.64843V6.59058H11.6219V9.78285L4.43925 16.3669V16.6163H11.8713V19.5592H0V16.3669Z" fill="#5CC773"/>
<path d="M13.8159 12.7258H20.0009V15.8682H13.8159V12.7258Z" fill="white"/>
<path d="M22.7454 6.59058H32.7213V9.53345H26.1372V11.7281H32.422V14.671H26.1372V19.5592H22.7454V6.59058Z" fill="white"/>
<path d="M38.4564 6.59058H42.4966L47.7838 18.811V19.5592H44.2922L43.4443 17.4642H37.5087L36.6607 19.5592H33.2689V18.811L38.4564 6.59058ZM38.7058 14.5214H42.1973L40.6012 10.531H40.3019L38.7058 14.5214Z" fill="white"/>
<path d="M60.7529 9.7329V10.5809H57.2613C56.9122 9.78278 55.8148 9.28399 54.7674 9.28399C53.5703 9.28399 52.7223 9.68303 52.7223 10.3315C52.7223 11.0298 53.9194 11.329 55.0666 11.5784C57.411 12.0772 60.8526 12.7755 60.8526 15.6187C60.8526 18.2622 58.3587 19.8584 55.1664 19.8584C52.3732 19.8584 50.0288 18.5615 49.0312 16.2671V15.4191H52.5228C52.9218 16.2172 53.9693 16.716 55.2163 16.716C56.4134 16.716 57.411 16.4167 57.411 15.6685C57.411 15.0201 56.3136 14.7208 55.0168 14.4714C52.7223 14.0225 49.2806 13.3242 49.2806 10.3813C49.2806 7.88737 51.7746 6.1416 54.7674 6.1416C57.6604 6.19148 59.8052 7.68786 60.7529 9.7329Z" fill="white"/>
<path d="M67.2391 6.59082H71.2793L76.5665 18.8112V19.5594H73.075L72.227 17.4645H66.3413L65.4933 19.5594H62.1016V18.8112L67.2391 6.59082ZM67.4885 14.5216H70.9801L69.3839 10.5313H69.0847L67.4885 14.5216Z" fill="white"/>
<path d="M78.46 6.59082H84.2959C88.3361 6.59082 91.4286 8.98502 91.4286 13.0751C91.4286 17.1652 88.3361 19.5594 84.2959 19.5594H78.4102V6.59082H78.46ZM81.8518 9.58357V16.6664H84.3458C86.4407 16.6664 88.0368 15.3696 88.0368 13.125C88.0368 10.8306 86.4906 9.63345 84.3458 9.63345H81.8518V9.58357Z" fill="white"/>
</svg>
