<svg width="55" height="337" viewBox="0 0 55 337" fill="none" xmlns="http://www.w3.org/2000/svg">
<path d="M52.5 335.1L52.5 336.1L53.5 336.1L53.5 335.1L52.5 335.1ZM52.5 325.58L53.5 325.58L53.5 324.58L52.5 324.58L52.5 325.58ZM10.99 325.58L9.99 325.58L9.99 326.58L10.99 326.58L10.99 325.58ZM10.99 303.04L10.99 302.04L9.99 302.04L9.99 303.04L10.99 303.04ZM52.5 303.04L52.5 304.04L53.5 304.04L53.5 303.04L52.5 303.04ZM52.5 293.52L53.5 293.52L53.5 292.52L52.5 292.52L52.5 293.52ZM2.1 293.52L2.1 292.52L1.1 292.52L1.1 293.52L2.1 293.52ZM2.1 335.1L1.1 335.1L1.1 336.1L2.1 336.1L2.1 335.1ZM53.5 335.1L53.5 325.58L51.5 325.58L51.5 335.1L53.5 335.1ZM52.5 324.58L10.99 324.58L10.99 326.58L52.5 326.58L52.5 324.58ZM11.99 325.58L11.99 303.04L9.99 303.04L9.99 325.58L11.99 325.58ZM10.99 304.04L52.5 304.04L52.5 302.04L10.99 302.04L10.99 304.04ZM53.5 303.04L53.5 293.52L51.5 293.52L51.5 303.04L53.5 303.04ZM52.5 292.52L2.1 292.52L2.1 294.52L52.5 294.52L52.5 292.52ZM1.1 293.52L1.1 335.1L3.1 335.1L3.1 293.52L1.1 293.52ZM2.1 336.1L52.5 336.1L52.5 334.1L2.1 334.1L2.1 336.1ZM52.5 283.694L52.5 284.694L53.5 284.694L53.5 283.694L52.5 283.694ZM52.5 274.174L53.5 274.174L53.5 273.174L52.5 273.174L52.5 274.174ZM35.42 274.174L34.42 274.174L34.42 275.174L35.42 275.174L35.42 274.174ZM35.35 260.454L36.3485 260.398L35.35 260.454ZM35.14 258.214L36.13 258.072L36.128 258.059L35.14 258.214ZM29.61 248.344L30.1852 247.526L30.1822 247.524L29.61 248.344ZM2.38 258.214L3.36442 258.39L3.36647 258.378L3.36825 258.367L2.38 258.214ZM2.16999 260.454L3.16837 260.511L3.1692 260.496L3.16961 260.482L2.16999 260.454ZM2.1 283.694L1.1 283.694L1.1 284.694L2.1 284.694L2.1 283.694ZM26.53 274.174L26.53 275.174L27.53 275.174L27.53 274.174L26.53 274.174ZM10.99 274.174L9.98999 274.174L9.99 275.174L10.99 275.174L10.99 274.174ZM11.06 261.224L12.0568 261.303L12.0568 261.303L11.06 261.224ZM11.34 259.614L12.3016 259.888L12.3048 259.877L11.34 259.614ZM13.125 256.639L13.7652 257.407L13.7758 257.398L13.125 256.639ZM15.89 255.204L16.1325 256.174L16.1457 256.171L16.1588 256.167L15.89 255.204ZM21.665 255.204L21.4019 256.169L21.4095 256.171L21.4172 256.173L21.665 255.204ZM24.43 256.639L25.0808 255.879L25.0702 255.871L24.43 256.639ZM26.18 259.614L25.2152 259.877L25.2185 259.888L26.18 259.614ZM26.46 261.224L27.4568 261.144L26.46 261.224ZM53.5 283.694L53.5 274.174L51.5 274.174L51.5 283.694L53.5 283.694ZM52.5 273.174L35.42 273.174L35.42 275.174L52.5 275.174L52.5 273.174ZM36.42 274.174L36.42 262.414L34.42 262.414L34.42 274.174L36.42 274.174ZM36.42 262.414C36.42 261.919 36.3955 261.245 36.3485 260.398L34.3515 260.509C34.3978 261.343 34.42 261.975 34.42 262.414L36.42 262.414ZM36.3485 260.398C36.3006 259.537 36.2283 258.761 36.1299 258.072L34.15 258.355C34.2384 258.974 34.3061 259.691 34.3515 260.509L36.3485 260.398ZM36.128 258.059C35.3969 253.38 33.4451 249.818 30.1852 247.526L29.0348 249.162C31.7482 251.07 33.4831 254.087 34.152 258.368L36.128 258.059ZM30.1822 247.524C26.98 245.29 23.1561 244.194 18.76 244.194L18.76 246.194C22.8106 246.194 26.22 247.198 29.0378 249.164L30.1822 247.524ZM18.76 244.194C14.3444 244.194 10.5201 245.276 7.33912 247.488L8.48087 249.13C11.2733 247.188 14.6823 246.194 18.76 246.194L18.76 244.194ZM7.33912 247.488C4.07261 249.759 2.12206 253.338 1.39174 258.061L3.36825 258.367C4.03793 254.036 5.77404 251.012 8.48087 249.13L7.33912 247.488ZM1.39557 258.038C1.26823 258.751 1.19475 259.549 1.17038 260.426L3.16961 260.482C3.19191 259.679 3.25843 258.983 3.36442 258.39L1.39557 258.038ZM1.17162 260.397C1.12448 261.222 1.1 261.896 1.1 262.414L3.1 262.414C3.1 261.951 3.12217 261.319 3.16837 260.511L1.17162 260.397ZM1.1 262.414L1.1 283.694L3.1 283.694L3.1 262.414L1.1 262.414ZM2.1 284.694L52.5 284.694L52.5 282.694L2.1 282.694L2.1 284.694ZM26.53 273.174L10.99 273.174L10.99 275.174L26.53 275.174L26.53 273.174ZM11.99 274.174L11.99 262.834L9.98999 262.834L9.98999 274.174L11.99 274.174ZM11.99 262.834C11.99 262.375 12.0119 261.865 12.0568 261.303L10.0632 261.144C10.0148 261.749 9.98999 262.313 9.98999 262.834L11.99 262.834ZM12.0568 261.303C12.099 260.777 12.1822 260.306 12.3015 259.888L10.3785 259.339C10.2178 259.901 10.1144 260.504 10.0632 261.144L12.0568 261.303ZM12.3048 259.877C12.6127 258.748 13.1139 257.95 13.7652 257.407L12.4848 255.871C11.456 256.728 10.7673 257.913 10.3752 259.351L12.3048 259.877ZM13.7758 257.398C14.4766 256.797 15.259 256.392 16.1325 256.174L15.6475 254.234C14.4676 254.529 13.4067 255.08 12.4742 255.879L13.7758 257.398ZM16.1588 256.167C17.087 255.908 17.9529 255.784 18.76 255.784L18.76 253.784C17.7471 253.784 16.6997 253.94 15.6212 254.241L16.1588 256.167ZM18.76 255.784C19.5676 255.784 20.4469 255.908 21.4019 256.169L21.9281 254.239C20.8298 253.939 19.7724 253.784 18.76 253.784L18.76 255.784ZM21.4172 256.173C22.2684 256.39 23.0575 256.797 23.7898 257.407L25.0702 255.871C24.1225 255.081 23.0682 254.531 21.9128 254.235L21.4172 256.173ZM23.7792 257.398C24.4114 257.94 24.9053 258.741 25.2152 259.877L27.1448 259.351C26.7547 257.92 26.082 256.738 25.0808 255.879L23.7792 257.398ZM25.2185 259.888C25.3378 260.306 25.421 260.777 25.4632 261.303L27.4568 261.144C27.4056 260.504 27.3022 259.901 27.1415 259.339L25.2185 259.888ZM25.4632 261.303C25.5081 261.865 25.53 262.375 25.53 262.834L27.53 262.834C27.53 262.313 27.5052 261.749 27.4568 261.144L25.4632 261.303ZM25.53 262.834L25.53 274.174L27.53 274.174L27.53 262.834L25.53 262.834ZM50.26 203.516L49.402 204.03L49.4035 204.033L50.26 203.516ZM41.055 195.081L40.6057 195.975L40.6099 195.977L41.055 195.081ZM13.545 195.081L13.9901 195.977L13.9943 195.975L13.545 195.081ZM4.33999 203.516L5.19652 204.033L5.19797 204.03L4.33999 203.516ZM4.33999 229.591L3.48201 230.105L3.48347 230.108L4.33999 229.591ZM13.545 238.026L13.0957 238.92L13.0999 238.922L13.545 238.026ZM41.055 238.026L41.5001 238.922L41.5043 238.92L41.055 238.026ZM50.26 229.591L51.1165 230.108L51.118 230.105L50.26 229.591ZM44.59 216.536L45.5899 216.551L45.5899 216.551L44.59 216.536ZM39.83 227.316L40.4386 228.11L40.4423 228.107L39.83 227.316ZM14.665 227.316L14.0612 228.114L14.065 228.116L14.665 227.316ZM10.01 216.536L11.0099 216.551L11.0099 216.551L10.01 216.536ZM14.77 205.756L14.1614 204.963L14.77 205.756ZM39.935 205.756L40.535 204.956L39.935 205.756ZM54.55 216.536C54.55 211.349 53.4199 206.823 51.1165 203L49.4035 204.033C51.4868 207.49 52.55 211.644 52.55 216.536L54.55 216.536ZM51.118 203.003C48.8232 199.17 45.6091 196.228 41.5001 194.186L40.6099 195.977C44.3876 197.855 47.3102 200.536 49.402 204.03L51.118 203.003ZM41.5043 194.188C37.3981 192.123 32.6541 191.106 27.3 191.106L27.3 193.106C32.3992 193.106 36.8252 194.073 40.6057 195.975L41.5043 194.188ZM27.3 191.106C21.9458 191.106 17.2019 192.123 13.0957 194.188L13.9943 195.975C17.7748 194.073 22.2008 193.106 27.3 193.106L27.3 191.106ZM13.0999 194.186C8.99092 196.228 5.77683 199.17 3.48202 203.003L5.19797 204.03C7.28983 200.536 10.2124 197.855 13.9901 195.977L13.0999 194.186ZM3.48347 203C1.1801 206.823 0.0499936 211.349 0.0499938 216.536L2.04999 216.536C2.04999 211.644 3.11322 207.49 5.19652 204.033L3.48347 203ZM0.0499938 216.536C0.0499941 221.724 1.18017 226.261 3.48202 230.105L5.19797 229.078C3.11315 225.596 2.04999 221.428 2.04999 216.536L0.0499938 216.536ZM3.48347 230.108C5.7781 233.916 8.99058 236.855 13.0957 238.92L13.9943 237.133C10.2127 235.231 7.28855 232.547 5.19652 229.075L3.48347 230.108ZM13.0999 238.922C17.2051 240.962 21.9475 241.966 27.3 241.966L27.3 239.966C22.1991 239.966 17.7716 239.01 13.9901 237.131L13.0999 238.922ZM27.3 241.966C32.6525 241.966 37.3949 240.962 41.5001 238.922L40.6099 237.131C36.8284 239.01 32.4009 239.966 27.3 239.966L27.3 241.966ZM41.5043 238.92C45.6094 236.855 48.8219 233.916 51.1165 230.108L49.4035 229.075C47.3114 232.547 44.3872 235.231 40.6057 237.133L41.5043 238.92ZM51.118 230.105C53.4198 226.261 54.55 221.724 54.55 216.536L52.55 216.536C52.55 221.428 51.4868 225.596 49.402 229.078L51.118 230.105ZM43.5901 216.522C43.5235 221.075 42.0278 224.35 39.2177 226.526L40.4423 228.107C43.8388 225.477 45.5165 221.565 45.5899 216.551L43.5901 216.522ZM39.2214 226.523C36.344 228.73 32.4048 229.886 27.3 229.886L27.3 231.886C32.6952 231.886 37.1093 230.663 40.4386 228.11L39.2214 226.523ZM27.3 229.886C22.1967 229.886 18.2167 228.73 15.265 226.516L14.065 228.116C17.4599 230.663 21.9033 231.886 27.3 231.886L27.3 229.886ZM15.2687 226.519C12.4018 224.348 10.9435 221.089 11.0099 216.551L9.0101 216.522C8.9365 221.551 10.5815 225.478 14.0612 228.114L15.2687 226.519ZM11.0099 216.551C11.0766 211.973 12.5734 208.701 15.3785 206.55L14.1614 204.963C10.7599 207.572 9.08342 211.487 9.0101 216.522L11.0099 216.551ZM15.3785 206.55C18.256 204.343 22.1952 203.186 27.3 203.186L27.3 201.186C21.9048 201.186 17.4907 202.41 14.1614 204.963L15.3785 206.55ZM27.3 203.186C32.4033 203.186 36.3833 204.343 39.335 206.556L40.535 204.956C37.1401 202.41 32.6967 201.186 27.3 201.186L27.3 203.186ZM39.335 206.556C42.1969 208.703 43.6566 211.959 43.5901 216.522L45.5899 216.551C45.6634 211.501 44.0198 207.57 40.535 204.956L39.335 206.556ZM52.5 185.12L52.5 186.12L53.5 186.12L53.5 185.12L52.5 185.12ZM52.5 152.22L53.5 152.22L53.5 151.22L52.5 151.22L52.5 152.22ZM43.61 152.22L43.61 151.22L42.61 151.22L42.61 152.22L43.61 152.22ZM43.61 175.6L43.61 176.6L44.61 176.6L44.61 175.6L43.61 175.6ZM30.66 175.6L29.66 175.6L29.66 176.6L30.66 176.6L30.66 175.6ZM30.66 156.42L31.66 156.42L31.66 155.42L30.66 155.42L30.66 156.42ZM21.77 156.42L21.77 155.42L20.77 155.42L20.77 156.42L21.77 156.42ZM21.77 175.6L21.77 176.6L22.77 176.6L22.77 175.6L21.77 175.6ZM10.99 175.6L9.98999 175.6L9.98999 176.6L10.99 176.6L10.99 175.6ZM10.99 152.22L11.99 152.22L11.99 151.22L10.99 151.22L10.99 152.22ZM2.09999 152.22L2.09999 151.22L1.09999 151.22L1.09999 152.22L2.09999 152.22ZM2.09999 185.12L1.09999 185.12L1.09999 186.12L2.09999 186.12L2.09999 185.12ZM53.5 185.12L53.5 152.22L51.5 152.22L51.5 185.12L53.5 185.12ZM52.5 151.22L43.61 151.22L43.61 153.22L52.5 153.22L52.5 151.22ZM42.61 152.22L42.61 175.6L44.61 175.6L44.61 152.22L42.61 152.22ZM43.61 174.6L30.66 174.6L30.66 176.6L43.61 176.6L43.61 174.6ZM31.66 175.6L31.66 156.42L29.66 156.42L29.66 175.6L31.66 175.6ZM30.66 155.42L21.77 155.42L21.77 157.42L30.66 157.42L30.66 155.42ZM20.77 156.42L20.77 175.6L22.77 175.6L22.77 156.42L20.77 156.42ZM21.77 174.6L10.99 174.6L10.99 176.6L21.77 176.6L21.77 174.6ZM11.99 175.6L11.99 152.22L9.98999 152.22L9.98999 175.6L11.99 175.6ZM10.99 151.22L2.09999 151.22L2.09999 153.22L10.99 153.22L10.99 151.22ZM1.09999 152.22L1.09999 185.12L3.09999 185.12L3.09999 152.22L1.09999 152.22ZM2.09999 186.12L52.5 186.12L52.5 184.12L2.09999 184.12L2.09999 186.12ZM52.5 143.83L52.5 144.83L53.5 144.83L53.5 143.83L52.5 143.83ZM52.5 134.31L53.5 134.31L53.5 133.31L52.5 133.31L52.5 134.31ZM29.54 134.31L28.8815 133.558L26.8785 135.31L29.54 135.31L29.54 134.31ZM52.5 114.22L53.1585 114.973L53.5 114.674L53.5 114.22L52.5 114.22ZM52.5 102.18L53.5 102.18L53.5 99.9739L51.8408 101.429L52.5 102.18ZM26.95 124.58L26.3033 125.343L26.9609 125.901L27.6092 125.332L26.95 124.58ZM2.09999 103.51L2.7467 102.748L1.09999 101.352L1.09999 103.51L2.09999 103.51ZM2.09999 115.13L1.09999 115.13L1.09999 115.602L1.46347 115.902L2.09999 115.13ZM25.34 134.31L25.34 135.31L28.1227 135.31L25.9765 133.539L25.34 134.31ZM2.09999 134.31L2.09999 133.31L1.09999 133.31L1.09999 134.31L2.09999 134.31ZM2.09999 143.83L1.09999 143.83L1.09999 144.83L2.09999 144.83L2.09999 143.83ZM53.5 143.83L53.5 134.31L51.5 134.31L51.5 143.83L53.5 143.83ZM52.5 133.31L29.54 133.31L29.54 135.31L52.5 135.31L52.5 133.31ZM30.1985 135.063L53.1585 114.973L51.8415 113.468L28.8815 133.558L30.1985 135.063ZM53.5 114.22L53.5 102.18L51.5 102.18L51.5 114.22L53.5 114.22ZM51.8408 101.429L26.2908 123.829L27.6092 125.332L53.1592 102.932L51.8408 101.429ZM27.5967 123.818L2.7467 102.748L1.45327 104.273L26.3033 125.343L27.5967 123.818ZM1.09999 103.51L1.09999 115.13L3.09999 115.13L3.09999 103.51L1.09999 103.51ZM1.46347 115.902L24.7035 135.082L25.9765 133.539L2.73651 114.359L1.46347 115.902ZM25.34 133.31L2.09999 133.31L2.09999 135.31L25.34 135.31L25.34 133.31ZM1.09999 134.31L1.09999 143.83L3.09999 143.83L3.09999 134.31L1.09999 134.31ZM2.09999 144.83L52.5 144.83L52.5 142.83L2.09999 142.83L2.09999 144.83ZM52.5 85.5877L52.5 86.5877L53.5 86.5877L53.5 85.5877L52.5 85.5877ZM52.5 76.0677L53.5 76.0677L53.5 75.0677L52.5 75.0677L52.5 76.0677ZM10.99 76.0677L9.98999 76.0677L9.98999 77.0677L10.99 77.0677L10.99 76.0677ZM10.99 60.1777L11.99 60.1777L11.99 59.1777L10.99 59.1777L10.99 60.1777ZM2.09999 60.1777L2.09999 59.1777L1.09999 59.1777L1.09999 60.1777L2.09999 60.1777ZM2.09999 101.478L1.09999 101.478L1.09999 102.478L2.09999 102.478L2.09999 101.478ZM10.99 101.478L10.99 102.478L11.99 102.478L11.99 101.478L10.99 101.478ZM10.99 85.5877L10.99 84.5877L9.98999 84.5877L9.98999 85.5877L10.99 85.5877ZM53.5 85.5877L53.5 76.0677L51.5 76.0677L51.5 85.5877L53.5 85.5877ZM52.5 75.0677L10.99 75.0677L10.99 77.0677L52.5 77.0677L52.5 75.0677ZM11.99 76.0677L11.99 60.1777L9.98999 60.1777L9.98999 76.0677L11.99 76.0677ZM10.99 59.1777L2.09999 59.1777L2.09999 61.1777L10.99 61.1777L10.99 59.1777ZM1.09999 60.1777L1.09999 101.478L3.09999 101.478L3.09999 60.1777L1.09999 60.1777ZM2.09999 102.478L10.99 102.478L10.99 100.478L2.09999 100.478L2.09999 102.478ZM11.99 101.478L11.99 85.5877L9.98999 85.5877L9.98999 101.478L11.99 101.478ZM10.99 86.5877L52.5 86.5877L52.5 84.5877L10.99 84.5877L10.99 86.5877ZM52.5 54.6231L52.5 55.6231L53.5 55.6231L53.5 54.6231L52.5 54.6231ZM52.43 31.3831L51.4315 31.4386L51.4316 31.4402L52.43 31.3831ZM52.22 29.1431L53.21 29.0017L53.2082 28.9903L52.22 29.1431ZM46.69 19.2381L47.2609 18.4171L47.2579 18.415L46.69 19.2381ZM24.99 19.2731L25.5652 20.0912L25.5652 20.0912L24.99 19.2731ZM19.46 29.1431L20.4444 29.3189L20.4463 29.3082L20.448 29.2975L19.46 29.1431ZM19.25 31.3831L20.2484 31.4386L20.2492 31.4247L20.2496 31.4109L19.25 31.3831ZM19.18 45.1031L19.18 46.1031L20.18 46.1031L20.18 45.1031L19.18 45.1031ZM2.09999 45.1031L2.09999 44.1031L1.09999 44.1031L1.09999 45.1031L2.09999 45.1031ZM2.09999 54.6231L1.09999 54.6231L1.09999 55.6231L2.09999 55.6231L2.09999 54.6231ZM43.61 45.1031L43.61 46.1031L44.61 46.1031L44.61 45.1031L43.61 45.1031ZM28.07 45.1031L27.07 45.1031L27.07 46.1031L28.07 46.1031L28.07 45.1031ZM28.14 32.1531L27.1432 32.0734L27.1432 32.0734L28.14 32.1531ZM28.42 30.5431L29.3816 30.8179L29.3847 30.8062L28.42 30.5431ZM30.205 27.5681L30.8452 28.3364L30.8558 28.3274L30.205 27.5681ZM32.97 26.1331L33.2125 27.1033L33.2257 27.1L33.2388 27.0963L32.97 26.1331ZM38.745 26.1331L38.4819 27.0979L38.4895 27.1L38.4972 27.1019L38.745 26.1331ZM41.51 27.5681L42.1608 26.8088L42.1502 26.7999L41.51 27.5681ZM43.26 30.5431L42.2952 30.8063L42.2985 30.8178L43.26 30.5431ZM43.54 32.1531L42.5432 32.2329L43.54 32.1531ZM52.5 11.0831L52.5 12.0831L53.5 12.0831L53.5 11.0831L52.5 11.0831ZM52.5 1.56311L53.5 1.56311L53.5 0.563107L52.5 0.563107L52.5 1.56311ZM2.09998 1.56311L2.09998 0.563109L1.09998 0.563109L1.09998 1.56311L2.09998 1.56311ZM2.09998 11.0831L1.09998 11.0831L1.09998 12.0831L2.09998 12.0831L2.09998 11.0831ZM53.5 54.6231L53.5 33.3431L51.5 33.3431L51.5 54.6231L53.5 54.6231ZM53.5 33.3431C53.5 32.8257 53.4755 32.151 53.4284 31.3261L51.4316 31.4402C51.4778 32.2486 51.5 32.8805 51.5 33.3431L53.5 33.3431ZM53.4284 31.3277C53.3806 30.4663 53.3083 29.69 53.2099 29.0017L51.23 29.2845C51.3184 29.9029 51.386 30.62 51.4315 31.4386L53.4284 31.3277ZM53.2082 28.9903C52.4779 24.2676 50.5274 20.6883 47.2609 18.4171L46.1191 20.0592C48.8259 21.9413 50.562 24.9653 51.2317 29.296L53.2082 28.9903ZM47.2579 18.415C44.0561 16.206 40.2338 15.1231 35.84 15.1231L35.84 17.1231C39.8929 17.1231 43.3039 18.1169 46.1221 20.0612L47.2579 18.415ZM35.84 15.1231C31.422 15.1231 27.5962 16.2182 24.4148 18.4551L25.5652 20.0912C28.3571 18.128 31.7646 17.1231 35.84 17.1231L35.84 15.1231ZM24.4148 18.4551C21.1549 20.7472 19.2031 24.3097 18.472 28.9887L20.448 29.2975C21.1169 25.0165 22.8517 21.999 25.5652 20.0912L24.4148 18.4551ZM18.4756 28.9673C18.3482 29.6804 18.2747 30.4781 18.2504 31.3553L20.2496 31.4109C20.2719 30.6082 20.3384 29.9125 20.4444 29.3189L18.4756 28.9673ZM18.2515 31.3277C18.2045 32.174 18.18 32.8489 18.18 33.3431L20.18 33.3431C20.18 32.9041 20.2021 32.2722 20.2484 31.4386L18.2515 31.3277ZM18.18 33.3431L18.18 45.1031L20.18 45.1031L20.18 33.3431L18.18 33.3431ZM19.18 44.1031L2.09999 44.1031L2.09999 46.1031L19.18 46.1031L19.18 44.1031ZM1.09999 45.1031L1.09999 54.6231L3.09999 54.6231L3.09999 45.1031L1.09999 45.1031ZM2.09999 55.6231L52.5 55.6231L52.5 53.6231L2.09999 53.6231L2.09999 55.6231ZM43.61 44.1031L28.07 44.1031L28.07 46.1031L43.61 46.1031L43.61 44.1031ZM29.07 45.1031L29.07 33.7631L27.07 33.7631L27.07 45.1031L29.07 45.1031ZM29.07 33.7631C29.07 33.3043 29.0919 32.7946 29.1368 32.2329L27.1432 32.0734C27.0948 32.6783 27.07 33.242 27.07 33.7631L29.07 33.7631ZM29.1368 32.2329C29.1789 31.706 29.2621 31.2356 29.3815 30.8178L27.4585 30.2684C27.2978 30.8306 27.1944 31.4335 27.1432 32.0734L29.1368 32.2329ZM29.3847 30.8062C29.6927 29.6771 30.1939 28.879 30.8452 28.3363L29.5648 26.7999C28.536 27.6572 27.8473 28.8425 27.4552 30.28L29.3847 30.8062ZM30.8558 28.3274C31.5566 27.7267 32.339 27.3217 33.2125 27.1033L32.7274 25.163C31.5476 25.4579 30.4867 26.0095 29.5542 26.8089L30.8558 28.3274ZM33.2388 27.0963C34.167 26.8373 35.0329 26.7131 35.84 26.7131L35.84 24.7131C34.8271 24.7131 33.7797 24.869 32.7012 25.1699L33.2388 27.0963ZM35.84 26.7131C36.6476 26.7131 37.5268 26.8374 38.4819 27.0979L39.0081 25.1684C37.9098 24.8688 36.8524 24.7131 35.84 24.7131L35.84 26.7131ZM38.4972 27.1019C39.3484 27.3197 40.1375 27.7261 40.8698 28.3363L42.1502 26.7999C41.2025 26.0101 40.1482 25.4599 38.9928 25.1643L38.4972 27.1019ZM40.8592 28.3274C41.4913 28.8692 41.9853 29.6699 42.2952 30.8062L44.2247 30.28C43.8346 28.8496 43.162 27.667 42.1608 26.8089L40.8592 28.3274ZM42.2985 30.8178C42.4178 31.2356 42.501 31.706 42.5432 32.2329L44.5368 32.0734C44.4856 31.4335 44.3821 30.8306 44.2215 30.2684L42.2985 30.8178ZM42.5432 32.2329C42.5881 32.7946 42.61 33.3043 42.61 33.7631L44.61 33.7631C44.61 33.242 44.5852 32.6783 44.5368 32.0734L42.5432 32.2329ZM42.61 33.7631L42.61 45.1031L44.61 45.1031L44.61 33.7631L42.61 33.7631ZM53.5 11.0831L53.5 1.56311L51.5 1.56311L51.5 11.0831L53.5 11.0831ZM52.5 0.563107L2.09998 0.563109L2.09998 2.56311L52.5 2.56311L52.5 0.563107ZM1.09998 1.56311L1.09998 11.0831L3.09998 11.0831L3.09998 1.56311L1.09998 1.56311ZM2.09998 12.0831L52.5 12.0831L52.5 10.0831L2.09998 10.0831L2.09998 12.0831Z" fill="#28272D"/>
</svg>
